G75*
%MOIN*%
%OFA0B0*%
%FSLAX24Y24*%
%IPPOS*%
%LPD*%
%AMOC8*
5,1,8,0,0,1.08239X$1,22.5*
%
%ADD10C,0.0000*%
%ADD11C,0.0060*%
%ADD12C,0.0040*%
%ADD13C,0.0050*%
%ADD14C,0.0120*%
%ADD15C,0.0070*%
%ADD16C,0.0080*%
%ADD17R,0.0150X0.0200*%
%ADD18C,0.0100*%
%ADD19C,0.0010*%
%ADD20R,0.0340X0.0240*%
%ADD21R,0.0200X0.0150*%
%ADD22C,0.0030*%
%ADD23R,0.0200X0.1000*%
%ADD24R,0.0750X0.0300*%
D10*
X000180Y000180D02*
X000180Y039050D01*
X059172Y039050D01*
X059172Y000180D01*
X000180Y000180D01*
X000667Y004193D02*
X000669Y004240D01*
X000675Y004286D01*
X000685Y004332D01*
X000698Y004377D01*
X000716Y004420D01*
X000737Y004462D01*
X000761Y004502D01*
X000789Y004539D01*
X000820Y004574D01*
X000854Y004607D01*
X000890Y004636D01*
X000929Y004662D01*
X000970Y004685D01*
X001013Y004704D01*
X001057Y004720D01*
X001102Y004732D01*
X001148Y004740D01*
X001195Y004744D01*
X001241Y004744D01*
X001288Y004740D01*
X001334Y004732D01*
X001379Y004720D01*
X001423Y004704D01*
X001466Y004685D01*
X001507Y004662D01*
X001546Y004636D01*
X001582Y004607D01*
X001616Y004574D01*
X001647Y004539D01*
X001675Y004502D01*
X001699Y004462D01*
X001720Y004420D01*
X001738Y004377D01*
X001751Y004332D01*
X001761Y004286D01*
X001767Y004240D01*
X001769Y004193D01*
X001767Y004146D01*
X001761Y004100D01*
X001751Y004054D01*
X001738Y004009D01*
X001720Y003966D01*
X001699Y003924D01*
X001675Y003884D01*
X001647Y003847D01*
X001616Y003812D01*
X001582Y003779D01*
X001546Y003750D01*
X001507Y003724D01*
X001466Y003701D01*
X001423Y003682D01*
X001379Y003666D01*
X001334Y003654D01*
X001288Y003646D01*
X001241Y003642D01*
X001195Y003642D01*
X001148Y003646D01*
X001102Y003654D01*
X001057Y003666D01*
X001013Y003682D01*
X000970Y003701D01*
X000929Y003724D01*
X000890Y003750D01*
X000854Y003779D01*
X000820Y003812D01*
X000789Y003847D01*
X000761Y003884D01*
X000737Y003924D01*
X000716Y003966D01*
X000698Y004009D01*
X000685Y004054D01*
X000675Y004100D01*
X000669Y004146D01*
X000667Y004193D01*
X019217Y027605D02*
X019219Y027652D01*
X019225Y027698D01*
X019235Y027744D01*
X019248Y027789D01*
X019266Y027832D01*
X019287Y027874D01*
X019311Y027914D01*
X019339Y027951D01*
X019370Y027986D01*
X019404Y028019D01*
X019440Y028048D01*
X019479Y028074D01*
X019520Y028097D01*
X019563Y028116D01*
X019607Y028132D01*
X019652Y028144D01*
X019698Y028152D01*
X019745Y028156D01*
X019791Y028156D01*
X019838Y028152D01*
X019884Y028144D01*
X019929Y028132D01*
X019973Y028116D01*
X020016Y028097D01*
X020057Y028074D01*
X020096Y028048D01*
X020132Y028019D01*
X020166Y027986D01*
X020197Y027951D01*
X020225Y027914D01*
X020249Y027874D01*
X020270Y027832D01*
X020288Y027789D01*
X020301Y027744D01*
X020311Y027698D01*
X020317Y027652D01*
X020319Y027605D01*
X020317Y027558D01*
X020311Y027512D01*
X020301Y027466D01*
X020288Y027421D01*
X020270Y027378D01*
X020249Y027336D01*
X020225Y027296D01*
X020197Y027259D01*
X020166Y027224D01*
X020132Y027191D01*
X020096Y027162D01*
X020057Y027136D01*
X020016Y027113D01*
X019973Y027094D01*
X019929Y027078D01*
X019884Y027066D01*
X019838Y027058D01*
X019791Y027054D01*
X019745Y027054D01*
X019698Y027058D01*
X019652Y027066D01*
X019607Y027078D01*
X019563Y027094D01*
X019520Y027113D01*
X019479Y027136D01*
X019440Y027162D01*
X019404Y027191D01*
X019370Y027224D01*
X019339Y027259D01*
X019311Y027296D01*
X019287Y027336D01*
X019266Y027378D01*
X019248Y027421D01*
X019235Y027466D01*
X019225Y027512D01*
X019219Y027558D01*
X019217Y027605D01*
X008617Y037043D02*
X008619Y037090D01*
X008625Y037136D01*
X008635Y037182D01*
X008648Y037227D01*
X008666Y037270D01*
X008687Y037312D01*
X008711Y037352D01*
X008739Y037389D01*
X008770Y037424D01*
X008804Y037457D01*
X008840Y037486D01*
X008879Y037512D01*
X008920Y037535D01*
X008963Y037554D01*
X009007Y037570D01*
X009052Y037582D01*
X009098Y037590D01*
X009145Y037594D01*
X009191Y037594D01*
X009238Y037590D01*
X009284Y037582D01*
X009329Y037570D01*
X009373Y037554D01*
X009416Y037535D01*
X009457Y037512D01*
X009496Y037486D01*
X009532Y037457D01*
X009566Y037424D01*
X009597Y037389D01*
X009625Y037352D01*
X009649Y037312D01*
X009670Y037270D01*
X009688Y037227D01*
X009701Y037182D01*
X009711Y037136D01*
X009717Y037090D01*
X009719Y037043D01*
X009717Y036996D01*
X009711Y036950D01*
X009701Y036904D01*
X009688Y036859D01*
X009670Y036816D01*
X009649Y036774D01*
X009625Y036734D01*
X009597Y036697D01*
X009566Y036662D01*
X009532Y036629D01*
X009496Y036600D01*
X009457Y036574D01*
X009416Y036551D01*
X009373Y036532D01*
X009329Y036516D01*
X009284Y036504D01*
X009238Y036496D01*
X009191Y036492D01*
X009145Y036492D01*
X009098Y036496D01*
X009052Y036504D01*
X009007Y036516D01*
X008963Y036532D01*
X008920Y036551D01*
X008879Y036574D01*
X008840Y036600D01*
X008804Y036629D01*
X008770Y036662D01*
X008739Y036697D01*
X008711Y036734D01*
X008687Y036774D01*
X008666Y036816D01*
X008648Y036859D01*
X008635Y036904D01*
X008625Y036950D01*
X008619Y036996D01*
X008617Y037043D01*
X057642Y038093D02*
X057644Y038140D01*
X057650Y038186D01*
X057660Y038232D01*
X057673Y038277D01*
X057691Y038320D01*
X057712Y038362D01*
X057736Y038402D01*
X057764Y038439D01*
X057795Y038474D01*
X057829Y038507D01*
X057865Y038536D01*
X057904Y038562D01*
X057945Y038585D01*
X057988Y038604D01*
X058032Y038620D01*
X058077Y038632D01*
X058123Y038640D01*
X058170Y038644D01*
X058216Y038644D01*
X058263Y038640D01*
X058309Y038632D01*
X058354Y038620D01*
X058398Y038604D01*
X058441Y038585D01*
X058482Y038562D01*
X058521Y038536D01*
X058557Y038507D01*
X058591Y038474D01*
X058622Y038439D01*
X058650Y038402D01*
X058674Y038362D01*
X058695Y038320D01*
X058713Y038277D01*
X058726Y038232D01*
X058736Y038186D01*
X058742Y038140D01*
X058744Y038093D01*
X058742Y038046D01*
X058736Y038000D01*
X058726Y037954D01*
X058713Y037909D01*
X058695Y037866D01*
X058674Y037824D01*
X058650Y037784D01*
X058622Y037747D01*
X058591Y037712D01*
X058557Y037679D01*
X058521Y037650D01*
X058482Y037624D01*
X058441Y037601D01*
X058398Y037582D01*
X058354Y037566D01*
X058309Y037554D01*
X058263Y037546D01*
X058216Y037542D01*
X058170Y037542D01*
X058123Y037546D01*
X058077Y037554D01*
X058032Y037566D01*
X057988Y037582D01*
X057945Y037601D01*
X057904Y037624D01*
X057865Y037650D01*
X057829Y037679D01*
X057795Y037712D01*
X057764Y037747D01*
X057736Y037784D01*
X057712Y037824D01*
X057691Y037866D01*
X057673Y037909D01*
X057660Y037954D01*
X057650Y038000D01*
X057644Y038046D01*
X057642Y038093D01*
X053679Y003105D02*
X053681Y003152D01*
X053687Y003198D01*
X053697Y003244D01*
X053710Y003289D01*
X053728Y003332D01*
X053749Y003374D01*
X053773Y003414D01*
X053801Y003451D01*
X053832Y003486D01*
X053866Y003519D01*
X053902Y003548D01*
X053941Y003574D01*
X053982Y003597D01*
X054025Y003616D01*
X054069Y003632D01*
X054114Y003644D01*
X054160Y003652D01*
X054207Y003656D01*
X054253Y003656D01*
X054300Y003652D01*
X054346Y003644D01*
X054391Y003632D01*
X054435Y003616D01*
X054478Y003597D01*
X054519Y003574D01*
X054558Y003548D01*
X054594Y003519D01*
X054628Y003486D01*
X054659Y003451D01*
X054687Y003414D01*
X054711Y003374D01*
X054732Y003332D01*
X054750Y003289D01*
X054763Y003244D01*
X054773Y003198D01*
X054779Y003152D01*
X054781Y003105D01*
X054779Y003058D01*
X054773Y003012D01*
X054763Y002966D01*
X054750Y002921D01*
X054732Y002878D01*
X054711Y002836D01*
X054687Y002796D01*
X054659Y002759D01*
X054628Y002724D01*
X054594Y002691D01*
X054558Y002662D01*
X054519Y002636D01*
X054478Y002613D01*
X054435Y002594D01*
X054391Y002578D01*
X054346Y002566D01*
X054300Y002558D01*
X054253Y002554D01*
X054207Y002554D01*
X054160Y002558D01*
X054114Y002566D01*
X054069Y002578D01*
X054025Y002594D01*
X053982Y002613D01*
X053941Y002636D01*
X053902Y002662D01*
X053866Y002691D01*
X053832Y002724D01*
X053801Y002759D01*
X053773Y002796D01*
X053749Y002836D01*
X053728Y002878D01*
X053710Y002921D01*
X053697Y002966D01*
X053687Y003012D01*
X053681Y003058D01*
X053679Y003105D01*
D11*
X052930Y003680D02*
X052430Y003680D01*
X052180Y003930D01*
X051930Y003680D01*
X051430Y003680D01*
X051180Y003930D01*
X050930Y003680D01*
X050430Y003680D01*
X050180Y003930D01*
X050180Y004430D01*
X050430Y004680D01*
X050930Y004680D01*
X051180Y004430D01*
X051430Y004680D01*
X051930Y004680D01*
X052180Y004430D01*
X052430Y004680D01*
X052930Y004680D01*
X053180Y004430D01*
X053180Y003930D01*
X052930Y003680D01*
X052180Y003930D02*
X052180Y004430D01*
X051180Y004430D02*
X051180Y003930D01*
X050930Y002180D02*
X051430Y002180D01*
X051680Y001930D01*
X051680Y001430D01*
X051430Y001180D01*
X050930Y001180D01*
X050680Y001430D01*
X050430Y001180D01*
X049930Y001180D01*
X049680Y001430D01*
X049680Y001930D01*
X049930Y002180D01*
X050430Y002180D01*
X050680Y001930D01*
X050930Y002180D01*
X050680Y001930D02*
X050680Y001430D01*
X051680Y001430D02*
X051930Y001180D01*
X052430Y001180D01*
X052680Y001430D01*
X052930Y001180D01*
X053430Y001180D01*
X053680Y001430D01*
X053680Y001930D01*
X053430Y002180D01*
X052930Y002180D01*
X052680Y001930D01*
X052680Y001430D01*
X052680Y001930D02*
X052430Y002180D01*
X051930Y002180D01*
X051680Y001930D01*
X049475Y001385D02*
X049048Y001385D01*
X049261Y001385D02*
X049261Y002026D01*
X049048Y001812D01*
X046580Y004780D02*
X046430Y004780D01*
X046380Y004830D01*
X044980Y004830D01*
X044930Y004780D01*
X044780Y004780D01*
X044763Y004782D01*
X044746Y004786D01*
X044730Y004793D01*
X044716Y004803D01*
X044703Y004816D01*
X044693Y004830D01*
X044686Y004846D01*
X044682Y004863D01*
X044680Y004880D01*
X044680Y005480D01*
X044682Y005497D01*
X044686Y005514D01*
X044693Y005530D01*
X044703Y005544D01*
X044716Y005557D01*
X044730Y005567D01*
X044746Y005574D01*
X044763Y005578D01*
X044780Y005580D01*
X044930Y005580D01*
X044980Y005530D01*
X046380Y005530D01*
X046430Y005580D01*
X046580Y005580D01*
X046597Y005578D01*
X046614Y005574D01*
X046630Y005567D01*
X046644Y005557D01*
X046657Y005544D01*
X046667Y005530D01*
X046674Y005514D01*
X046678Y005497D01*
X046680Y005480D01*
X046680Y004880D01*
X046678Y004863D01*
X046674Y004846D01*
X046667Y004830D01*
X046657Y004816D01*
X046644Y004803D01*
X046630Y004793D01*
X046614Y004786D01*
X046597Y004782D01*
X046580Y004780D01*
X045880Y006680D02*
X047480Y006680D01*
X047480Y007680D01*
X045880Y007680D01*
X045880Y006680D01*
X046280Y006930D02*
X046680Y007180D01*
X046680Y007430D01*
X046680Y007180D02*
X046680Y006930D01*
X046680Y007180D02*
X046080Y007180D01*
X046280Y007430D02*
X046680Y007180D01*
X046930Y007180D01*
X046280Y006930D02*
X046280Y007430D01*
X045880Y008180D02*
X047480Y008180D01*
X047480Y009180D01*
X045880Y009180D01*
X045880Y008180D01*
X046280Y008430D02*
X046680Y008680D01*
X046680Y008930D01*
X046680Y008680D02*
X046680Y008430D01*
X046680Y008680D02*
X046080Y008680D01*
X046280Y008930D02*
X046680Y008680D01*
X046930Y008680D01*
X046280Y008430D02*
X046280Y008930D01*
X045880Y010680D02*
X047480Y010680D01*
X047480Y011680D01*
X045880Y011680D01*
X045880Y010680D01*
X046280Y010930D02*
X046680Y011180D01*
X046680Y011430D01*
X046680Y011180D02*
X046080Y011180D01*
X046280Y010930D02*
X046280Y011430D01*
X046680Y011180D01*
X046680Y010930D01*
X046680Y011180D02*
X046930Y011180D01*
X047480Y012180D02*
X045880Y012180D01*
X045880Y013180D01*
X047480Y013180D01*
X047480Y012180D01*
X046680Y012430D02*
X046680Y012680D01*
X046680Y012930D01*
X046680Y012680D02*
X046280Y012430D01*
X046280Y012930D01*
X046680Y012680D01*
X046080Y012680D01*
X046680Y012680D02*
X046930Y012680D01*
X047480Y014680D02*
X045880Y014680D01*
X045880Y015680D01*
X047480Y015680D01*
X047480Y014680D01*
X046930Y015180D02*
X046680Y015180D01*
X046680Y015430D01*
X046680Y015180D02*
X046080Y015180D01*
X046280Y014930D02*
X046680Y015180D01*
X046680Y014930D01*
X046680Y015180D02*
X046280Y015430D01*
X046280Y014930D01*
X045880Y016180D02*
X047480Y016180D01*
X047480Y017180D01*
X045880Y017180D01*
X045880Y016180D01*
X046280Y016430D02*
X046680Y016680D01*
X046680Y016930D01*
X046680Y016680D02*
X046080Y016680D01*
X046280Y016430D02*
X046280Y016930D01*
X046680Y016680D01*
X046680Y016430D01*
X046680Y016680D02*
X046930Y016680D01*
X046180Y018668D02*
X047880Y018668D01*
X047897Y018670D01*
X047914Y018674D01*
X047930Y018681D01*
X047944Y018691D01*
X047957Y018704D01*
X047967Y018718D01*
X047974Y018734D01*
X047978Y018751D01*
X047980Y018768D01*
X047980Y019568D01*
X047978Y019585D01*
X047974Y019602D01*
X047967Y019618D01*
X047957Y019632D01*
X047944Y019645D01*
X047930Y019655D01*
X047914Y019662D01*
X047897Y019666D01*
X047880Y019668D01*
X046180Y019668D01*
X046163Y019666D01*
X046146Y019662D01*
X046130Y019655D01*
X046116Y019645D01*
X046103Y019632D01*
X046093Y019618D01*
X046086Y019602D01*
X046082Y019585D01*
X046080Y019568D01*
X046080Y018768D01*
X046082Y018751D01*
X046086Y018734D01*
X046093Y018718D01*
X046103Y018704D01*
X046116Y018691D01*
X046130Y018681D01*
X046146Y018674D01*
X046163Y018670D01*
X046180Y018668D01*
X046880Y019168D02*
X046930Y019168D01*
X047130Y019168D02*
X047180Y019168D01*
X050730Y019280D02*
X050730Y020080D01*
X050732Y020097D01*
X050736Y020114D01*
X050743Y020130D01*
X050753Y020144D01*
X050766Y020157D01*
X050780Y020167D01*
X050796Y020174D01*
X050813Y020178D01*
X050830Y020180D01*
X052530Y020180D01*
X052547Y020178D01*
X052564Y020174D01*
X052580Y020167D01*
X052594Y020157D01*
X052607Y020144D01*
X052617Y020130D01*
X052624Y020114D01*
X052628Y020097D01*
X052630Y020080D01*
X052630Y019280D01*
X052628Y019263D01*
X052624Y019246D01*
X052617Y019230D01*
X052607Y019216D01*
X052594Y019203D01*
X052580Y019193D01*
X052564Y019186D01*
X052547Y019182D01*
X052530Y019180D01*
X050830Y019180D01*
X050813Y019182D01*
X050796Y019186D01*
X050780Y019193D01*
X050766Y019203D01*
X050753Y019216D01*
X050743Y019230D01*
X050736Y019246D01*
X050732Y019263D01*
X050730Y019280D01*
X051530Y019680D02*
X051580Y019680D01*
X051780Y019680D02*
X051830Y019680D01*
X052930Y020080D02*
X052930Y019280D01*
X052932Y019263D01*
X052936Y019246D01*
X052943Y019230D01*
X052953Y019216D01*
X052966Y019203D01*
X052980Y019193D01*
X052996Y019186D01*
X053013Y019182D01*
X053030Y019180D01*
X054730Y019180D01*
X054747Y019182D01*
X054764Y019186D01*
X054780Y019193D01*
X054794Y019203D01*
X054807Y019216D01*
X054817Y019230D01*
X054824Y019246D01*
X054828Y019263D01*
X054830Y019280D01*
X054830Y020080D01*
X054828Y020097D01*
X054824Y020114D01*
X054817Y020130D01*
X054807Y020144D01*
X054794Y020157D01*
X054780Y020167D01*
X054764Y020174D01*
X054747Y020178D01*
X054730Y020180D01*
X053030Y020180D01*
X053013Y020178D01*
X052996Y020174D01*
X052980Y020167D01*
X052966Y020157D01*
X052953Y020144D01*
X052943Y020130D01*
X052936Y020114D01*
X052932Y020097D01*
X052930Y020080D01*
X053730Y019680D02*
X053780Y019680D01*
X053980Y019680D02*
X054030Y019680D01*
X057180Y019430D02*
X057180Y018930D01*
X057430Y018680D01*
X057930Y018680D01*
X058180Y018930D01*
X058180Y019430D01*
X057930Y019680D01*
X058180Y019930D01*
X058180Y020430D01*
X057930Y020680D01*
X057430Y020680D01*
X057180Y020430D01*
X057180Y019930D01*
X057430Y019680D01*
X057930Y019680D01*
X057430Y019680D02*
X057180Y019430D01*
X057430Y018680D02*
X057180Y018430D01*
X057180Y017930D01*
X057430Y017680D01*
X057930Y017680D01*
X058180Y017430D01*
X058180Y016930D01*
X057930Y016680D01*
X058180Y016430D01*
X058180Y015930D01*
X057930Y015680D01*
X058180Y015430D01*
X058180Y014930D01*
X057930Y014680D01*
X058180Y014430D01*
X058180Y013930D01*
X057930Y013680D01*
X058180Y013430D01*
X058180Y012930D01*
X057930Y012680D01*
X058180Y012430D01*
X058180Y011930D01*
X057930Y011680D01*
X058180Y011430D01*
X058180Y010930D01*
X057930Y010680D01*
X058180Y010430D01*
X058180Y009930D01*
X057930Y009680D01*
X058180Y009430D01*
X058180Y008930D01*
X057930Y008680D01*
X058180Y008430D01*
X058180Y007930D01*
X057930Y007680D01*
X058180Y007430D01*
X058180Y006930D01*
X057930Y006680D01*
X057430Y006680D01*
X057180Y006930D01*
X057180Y007430D01*
X057430Y007680D01*
X057180Y007930D01*
X057180Y008430D01*
X057430Y008680D01*
X057930Y008680D01*
X057430Y008680D02*
X057180Y008930D01*
X057180Y009430D01*
X057430Y009680D01*
X057180Y009930D01*
X057180Y010430D01*
X057430Y010680D01*
X057180Y010930D01*
X057180Y011430D01*
X057430Y011680D01*
X057930Y011680D01*
X057430Y011680D02*
X057180Y011930D01*
X057180Y012430D01*
X057430Y012680D01*
X057180Y012930D01*
X057180Y013430D01*
X057430Y013680D01*
X057180Y013930D01*
X057180Y014430D01*
X057430Y014680D01*
X057930Y014680D01*
X057430Y014680D02*
X057180Y014930D01*
X057180Y015430D01*
X057430Y015680D01*
X057180Y015930D01*
X057180Y016430D01*
X057430Y016680D01*
X057180Y016930D01*
X057180Y017430D01*
X057430Y017680D01*
X057930Y017680D02*
X058180Y017930D01*
X058180Y018430D01*
X057930Y018680D01*
X057930Y016680D02*
X057430Y016680D01*
X057430Y015680D02*
X057930Y015680D01*
X057930Y013680D02*
X057430Y013680D01*
X057430Y012680D02*
X057930Y012680D01*
X057930Y010680D02*
X057430Y010680D01*
X057430Y009680D02*
X057930Y009680D01*
X057930Y007680D02*
X057430Y007680D01*
X057350Y006562D02*
X057350Y006135D01*
X057350Y006349D02*
X056709Y006349D01*
X056923Y006135D01*
X056930Y004680D02*
X057180Y004430D01*
X057430Y004680D01*
X057930Y004680D01*
X058180Y004430D01*
X058180Y003930D01*
X057930Y003680D01*
X057430Y003680D01*
X057180Y003930D01*
X056930Y003680D01*
X056430Y003680D01*
X056180Y003930D01*
X055930Y003680D01*
X055430Y003680D01*
X055180Y003930D01*
X055180Y004430D01*
X055430Y004680D01*
X055930Y004680D01*
X056180Y004430D01*
X056430Y004680D01*
X056930Y004680D01*
X057180Y004430D02*
X057180Y003930D01*
X056180Y003930D02*
X056180Y004430D01*
X055930Y002180D02*
X055430Y002180D01*
X055180Y001930D01*
X055180Y001430D01*
X055430Y001180D01*
X055930Y001180D01*
X056180Y001430D01*
X056430Y001180D01*
X056930Y001180D01*
X057180Y001430D01*
X057430Y001180D01*
X057930Y001180D01*
X058180Y001430D01*
X058180Y001930D01*
X057930Y002180D01*
X057430Y002180D01*
X057180Y001930D01*
X057180Y001430D01*
X057180Y001930D02*
X056930Y002180D01*
X056430Y002180D01*
X056180Y001930D01*
X056180Y001430D01*
X056180Y001930D02*
X055930Y002180D01*
X053830Y006730D02*
X053680Y006730D01*
X053630Y006780D01*
X051730Y006780D01*
X051680Y006730D01*
X051530Y006730D01*
X051513Y006732D01*
X051496Y006736D01*
X051480Y006743D01*
X051466Y006753D01*
X051453Y006766D01*
X051443Y006780D01*
X051436Y006796D01*
X051432Y006813D01*
X051430Y006830D01*
X051430Y007530D01*
X051432Y007547D01*
X051436Y007564D01*
X051443Y007580D01*
X051453Y007594D01*
X051466Y007607D01*
X051480Y007617D01*
X051496Y007624D01*
X051513Y007628D01*
X051530Y007630D01*
X051680Y007630D01*
X051730Y007580D01*
X053630Y007580D01*
X053680Y007630D01*
X053830Y007630D01*
X053847Y007628D01*
X053864Y007624D01*
X053880Y007617D01*
X053894Y007607D01*
X053907Y007594D01*
X053917Y007580D01*
X053924Y007564D01*
X053928Y007547D01*
X053930Y007530D01*
X053930Y006830D01*
X053928Y006813D01*
X053924Y006796D01*
X053917Y006780D01*
X053907Y006766D01*
X053894Y006753D01*
X053880Y006743D01*
X053864Y006736D01*
X053847Y006732D01*
X053830Y006730D01*
X053830Y008230D02*
X053680Y008230D01*
X053630Y008280D01*
X051730Y008280D01*
X051680Y008230D01*
X051530Y008230D01*
X051513Y008232D01*
X051496Y008236D01*
X051480Y008243D01*
X051466Y008253D01*
X051453Y008266D01*
X051443Y008280D01*
X051436Y008296D01*
X051432Y008313D01*
X051430Y008330D01*
X051430Y009030D01*
X051432Y009047D01*
X051436Y009064D01*
X051443Y009080D01*
X051453Y009094D01*
X051466Y009107D01*
X051480Y009117D01*
X051496Y009124D01*
X051513Y009128D01*
X051530Y009130D01*
X051680Y009130D01*
X051730Y009080D01*
X053630Y009080D01*
X053680Y009130D01*
X053830Y009130D01*
X053847Y009128D01*
X053864Y009124D01*
X053880Y009117D01*
X053894Y009107D01*
X053907Y009094D01*
X053917Y009080D01*
X053924Y009064D01*
X053928Y009047D01*
X053930Y009030D01*
X053930Y008330D01*
X053928Y008313D01*
X053924Y008296D01*
X053917Y008280D01*
X053907Y008266D01*
X053894Y008253D01*
X053880Y008243D01*
X053864Y008236D01*
X053847Y008232D01*
X053830Y008230D01*
X053830Y010730D02*
X053680Y010730D01*
X053630Y010780D01*
X051730Y010780D01*
X051680Y010730D01*
X051530Y010730D01*
X051513Y010732D01*
X051496Y010736D01*
X051480Y010743D01*
X051466Y010753D01*
X051453Y010766D01*
X051443Y010780D01*
X051436Y010796D01*
X051432Y010813D01*
X051430Y010830D01*
X051430Y011530D01*
X051432Y011547D01*
X051436Y011564D01*
X051443Y011580D01*
X051453Y011594D01*
X051466Y011607D01*
X051480Y011617D01*
X051496Y011624D01*
X051513Y011628D01*
X051530Y011630D01*
X051680Y011630D01*
X051730Y011580D01*
X053630Y011580D01*
X053680Y011630D01*
X053830Y011630D01*
X053847Y011628D01*
X053864Y011624D01*
X053880Y011617D01*
X053894Y011607D01*
X053907Y011594D01*
X053917Y011580D01*
X053924Y011564D01*
X053928Y011547D01*
X053930Y011530D01*
X053930Y010830D01*
X053928Y010813D01*
X053924Y010796D01*
X053917Y010780D01*
X053907Y010766D01*
X053894Y010753D01*
X053880Y010743D01*
X053864Y010736D01*
X053847Y010732D01*
X053830Y010730D01*
X053830Y012230D02*
X053680Y012230D01*
X053630Y012280D01*
X051730Y012280D01*
X051680Y012230D01*
X051530Y012230D01*
X051513Y012232D01*
X051496Y012236D01*
X051480Y012243D01*
X051466Y012253D01*
X051453Y012266D01*
X051443Y012280D01*
X051436Y012296D01*
X051432Y012313D01*
X051430Y012330D01*
X051430Y013030D01*
X051432Y013047D01*
X051436Y013064D01*
X051443Y013080D01*
X051453Y013094D01*
X051466Y013107D01*
X051480Y013117D01*
X051496Y013124D01*
X051513Y013128D01*
X051530Y013130D01*
X051680Y013130D01*
X051730Y013080D01*
X053630Y013080D01*
X053680Y013130D01*
X053830Y013130D01*
X053847Y013128D01*
X053864Y013124D01*
X053880Y013117D01*
X053894Y013107D01*
X053907Y013094D01*
X053917Y013080D01*
X053924Y013064D01*
X053928Y013047D01*
X053930Y013030D01*
X053930Y012330D01*
X053928Y012313D01*
X053924Y012296D01*
X053917Y012280D01*
X053907Y012266D01*
X053894Y012253D01*
X053880Y012243D01*
X053864Y012236D01*
X053847Y012232D01*
X053830Y012230D01*
X053830Y014730D02*
X053680Y014730D01*
X053630Y014780D01*
X051730Y014780D01*
X051680Y014730D01*
X051530Y014730D01*
X051513Y014732D01*
X051496Y014736D01*
X051480Y014743D01*
X051466Y014753D01*
X051453Y014766D01*
X051443Y014780D01*
X051436Y014796D01*
X051432Y014813D01*
X051430Y014830D01*
X051430Y015530D01*
X051432Y015547D01*
X051436Y015564D01*
X051443Y015580D01*
X051453Y015594D01*
X051466Y015607D01*
X051480Y015617D01*
X051496Y015624D01*
X051513Y015628D01*
X051530Y015630D01*
X051680Y015630D01*
X051730Y015580D01*
X053630Y015580D01*
X053680Y015630D01*
X053830Y015630D01*
X053847Y015628D01*
X053864Y015624D01*
X053880Y015617D01*
X053894Y015607D01*
X053907Y015594D01*
X053917Y015580D01*
X053924Y015564D01*
X053928Y015547D01*
X053930Y015530D01*
X053930Y014830D01*
X053928Y014813D01*
X053924Y014796D01*
X053917Y014780D01*
X053907Y014766D01*
X053894Y014753D01*
X053880Y014743D01*
X053864Y014736D01*
X053847Y014732D01*
X053830Y014730D01*
X053830Y016230D02*
X053680Y016230D01*
X053630Y016280D01*
X051730Y016280D01*
X051680Y016230D01*
X051530Y016230D01*
X051513Y016232D01*
X051496Y016236D01*
X051480Y016243D01*
X051466Y016253D01*
X051453Y016266D01*
X051443Y016280D01*
X051436Y016296D01*
X051432Y016313D01*
X051430Y016330D01*
X051430Y017030D01*
X051432Y017047D01*
X051436Y017064D01*
X051443Y017080D01*
X051453Y017094D01*
X051466Y017107D01*
X051480Y017117D01*
X051496Y017124D01*
X051513Y017128D01*
X051530Y017130D01*
X051680Y017130D01*
X051730Y017080D01*
X053630Y017080D01*
X053680Y017130D01*
X053830Y017130D01*
X053847Y017128D01*
X053864Y017124D01*
X053880Y017117D01*
X053894Y017107D01*
X053907Y017094D01*
X053917Y017080D01*
X053924Y017064D01*
X053928Y017047D01*
X053930Y017030D01*
X053930Y016330D01*
X053928Y016313D01*
X053924Y016296D01*
X053917Y016280D01*
X053907Y016266D01*
X053894Y016253D01*
X053880Y016243D01*
X053864Y016236D01*
X053847Y016232D01*
X053830Y016230D01*
X057430Y020680D02*
X057180Y020930D01*
X057180Y021430D01*
X057430Y021680D01*
X057180Y021930D01*
X057180Y022430D01*
X057430Y022680D01*
X057930Y022680D01*
X058180Y022430D01*
X058180Y021930D01*
X057930Y021680D01*
X058180Y021430D01*
X058180Y020930D01*
X057930Y020680D01*
X057930Y021680D02*
X057430Y021680D01*
X057430Y024180D02*
X057180Y024430D01*
X057180Y024930D01*
X057430Y025180D01*
X057180Y025430D01*
X057180Y025930D01*
X057430Y026180D01*
X057930Y026180D01*
X058180Y025930D01*
X058180Y025430D01*
X057930Y025180D01*
X058180Y024930D01*
X058180Y024430D01*
X057930Y024180D01*
X057430Y024180D01*
X057430Y025180D02*
X057930Y025180D01*
X057930Y026180D02*
X058180Y026430D01*
X058180Y026930D01*
X057930Y027180D01*
X058180Y027430D01*
X058180Y027930D01*
X057930Y028180D01*
X058180Y028430D01*
X058180Y028930D01*
X057930Y029180D01*
X058180Y029430D01*
X058180Y029930D01*
X057930Y030180D01*
X057430Y030180D01*
X057180Y029930D01*
X057180Y029430D01*
X057430Y029180D01*
X057930Y029180D01*
X057430Y029180D02*
X057180Y028930D01*
X057180Y028430D01*
X057430Y028180D01*
X057930Y028180D01*
X057430Y028180D02*
X057180Y027930D01*
X057180Y027430D01*
X057430Y027180D01*
X057930Y027180D01*
X057430Y027180D02*
X057180Y026930D01*
X057180Y026430D01*
X057430Y026180D01*
X055930Y026280D02*
X055930Y027080D01*
X055928Y027097D01*
X055924Y027114D01*
X055917Y027130D01*
X055907Y027144D01*
X055894Y027157D01*
X055880Y027167D01*
X055864Y027174D01*
X055847Y027178D01*
X055830Y027180D01*
X054130Y027180D01*
X054113Y027178D01*
X054096Y027174D01*
X054080Y027167D01*
X054066Y027157D01*
X054053Y027144D01*
X054043Y027130D01*
X054036Y027114D01*
X054032Y027097D01*
X054030Y027080D01*
X054030Y026280D01*
X054032Y026263D01*
X054036Y026246D01*
X054043Y026230D01*
X054053Y026216D01*
X054066Y026203D01*
X054080Y026193D01*
X054096Y026186D01*
X054113Y026182D01*
X054130Y026180D01*
X055830Y026180D01*
X055847Y026182D01*
X055864Y026186D01*
X055880Y026193D01*
X055894Y026203D01*
X055907Y026216D01*
X055917Y026230D01*
X055924Y026246D01*
X055928Y026263D01*
X055930Y026280D01*
X055130Y026680D02*
X055080Y026680D01*
X054880Y026680D02*
X054830Y026680D01*
X055330Y028480D02*
X053630Y028480D01*
X053613Y028482D01*
X053596Y028486D01*
X053580Y028493D01*
X053566Y028503D01*
X053553Y028516D01*
X053543Y028530D01*
X053536Y028546D01*
X053532Y028563D01*
X053530Y028580D01*
X053530Y029380D01*
X053532Y029397D01*
X053536Y029414D01*
X053543Y029430D01*
X053553Y029444D01*
X053566Y029457D01*
X053580Y029467D01*
X053596Y029474D01*
X053613Y029478D01*
X053630Y029480D01*
X055330Y029480D01*
X055347Y029478D01*
X055364Y029474D01*
X055380Y029467D01*
X055394Y029457D01*
X055407Y029444D01*
X055417Y029430D01*
X055424Y029414D01*
X055428Y029397D01*
X055430Y029380D01*
X055430Y028580D01*
X055428Y028563D01*
X055424Y028546D01*
X055417Y028530D01*
X055407Y028516D01*
X055394Y028503D01*
X055380Y028493D01*
X055364Y028486D01*
X055347Y028482D01*
X055330Y028480D01*
X054630Y028980D02*
X054580Y028980D01*
X054380Y028980D02*
X054330Y028980D01*
X051630Y030230D02*
X051630Y030930D01*
X051628Y030947D01*
X051624Y030964D01*
X051617Y030980D01*
X051607Y030994D01*
X051594Y031007D01*
X051580Y031017D01*
X051564Y031024D01*
X051547Y031028D01*
X051530Y031030D01*
X051380Y031030D01*
X051330Y030980D01*
X049430Y030980D01*
X049380Y031030D01*
X049230Y031030D01*
X049213Y031028D01*
X049196Y031024D01*
X049180Y031017D01*
X049166Y031007D01*
X049153Y030994D01*
X049143Y030980D01*
X049136Y030964D01*
X049132Y030947D01*
X049130Y030930D01*
X049130Y030230D01*
X049132Y030213D01*
X049136Y030196D01*
X049143Y030180D01*
X049153Y030166D01*
X049166Y030153D01*
X049180Y030143D01*
X049196Y030136D01*
X049213Y030132D01*
X049230Y030130D01*
X049380Y030130D01*
X049430Y030180D01*
X051330Y030180D01*
X051380Y030130D01*
X051530Y030130D01*
X051547Y030132D01*
X051564Y030136D01*
X051580Y030143D01*
X051594Y030153D01*
X051607Y030166D01*
X051617Y030180D01*
X051624Y030196D01*
X051628Y030213D01*
X051630Y030230D01*
X047330Y030280D02*
X047330Y031080D01*
X047328Y031097D01*
X047324Y031114D01*
X047317Y031130D01*
X047307Y031144D01*
X047294Y031157D01*
X047280Y031167D01*
X047264Y031174D01*
X047247Y031178D01*
X047230Y031180D01*
X045530Y031180D01*
X045513Y031178D01*
X045496Y031174D01*
X045480Y031167D01*
X045466Y031157D01*
X045453Y031144D01*
X045443Y031130D01*
X045436Y031114D01*
X045432Y031097D01*
X045430Y031080D01*
X045430Y030280D01*
X045432Y030263D01*
X045436Y030246D01*
X045443Y030230D01*
X045453Y030216D01*
X045466Y030203D01*
X045480Y030193D01*
X045496Y030186D01*
X045513Y030182D01*
X045530Y030180D01*
X047230Y030180D01*
X047247Y030182D01*
X047264Y030186D01*
X047280Y030193D01*
X047294Y030203D01*
X047307Y030216D01*
X047317Y030230D01*
X047324Y030246D01*
X047328Y030263D01*
X047330Y030280D01*
X046530Y030680D02*
X046480Y030680D01*
X046280Y030680D02*
X046230Y030680D01*
X042830Y030380D02*
X042830Y029580D01*
X042828Y029563D01*
X042824Y029546D01*
X042817Y029530D01*
X042807Y029516D01*
X042794Y029503D01*
X042780Y029493D01*
X042764Y029486D01*
X042747Y029482D01*
X042730Y029480D01*
X041030Y029480D01*
X041013Y029482D01*
X040996Y029486D01*
X040980Y029493D01*
X040966Y029503D01*
X040953Y029516D01*
X040943Y029530D01*
X040936Y029546D01*
X040932Y029563D01*
X040930Y029580D01*
X040930Y030380D01*
X040932Y030397D01*
X040936Y030414D01*
X040943Y030430D01*
X040953Y030444D01*
X040966Y030457D01*
X040980Y030467D01*
X040996Y030474D01*
X041013Y030478D01*
X041030Y030480D01*
X042730Y030480D01*
X042747Y030478D01*
X042764Y030474D01*
X042780Y030467D01*
X042794Y030457D01*
X042807Y030444D01*
X042817Y030430D01*
X042824Y030414D01*
X042828Y030397D01*
X042830Y030380D01*
X042030Y029980D02*
X041980Y029980D01*
X041780Y029980D02*
X041730Y029980D01*
X041630Y028380D02*
X041130Y028380D01*
X040880Y028130D01*
X040880Y027630D01*
X041130Y027380D01*
X041630Y027380D01*
X041880Y027630D01*
X041880Y028130D01*
X041630Y028380D01*
X041880Y028130D02*
X042130Y028380D01*
X042630Y028380D01*
X042880Y028130D01*
X042880Y027630D01*
X042630Y027380D01*
X042130Y027380D01*
X041880Y027630D01*
X040030Y027780D02*
X040030Y028580D01*
X040028Y028597D01*
X040024Y028614D01*
X040017Y028630D01*
X040007Y028644D01*
X039994Y028657D01*
X039980Y028667D01*
X039964Y028674D01*
X039947Y028678D01*
X039930Y028680D01*
X038230Y028680D01*
X038213Y028678D01*
X038196Y028674D01*
X038180Y028667D01*
X038166Y028657D01*
X038153Y028644D01*
X038143Y028630D01*
X038136Y028614D01*
X038132Y028597D01*
X038130Y028580D01*
X038130Y027780D01*
X038132Y027763D01*
X038136Y027746D01*
X038143Y027730D01*
X038153Y027716D01*
X038166Y027703D01*
X038180Y027693D01*
X038196Y027686D01*
X038213Y027682D01*
X038230Y027680D01*
X039930Y027680D01*
X039947Y027682D01*
X039964Y027686D01*
X039980Y027693D01*
X039994Y027703D01*
X040007Y027716D01*
X040017Y027730D01*
X040024Y027746D01*
X040028Y027763D01*
X040030Y027780D01*
X039230Y028180D02*
X039180Y028180D01*
X038980Y028180D02*
X038930Y028180D01*
X040930Y026080D02*
X042630Y026080D01*
X042647Y026078D01*
X042664Y026074D01*
X042680Y026067D01*
X042694Y026057D01*
X042707Y026044D01*
X042717Y026030D01*
X042724Y026014D01*
X042728Y025997D01*
X042730Y025980D01*
X042730Y025180D01*
X042728Y025163D01*
X042724Y025146D01*
X042717Y025130D01*
X042707Y025116D01*
X042694Y025103D01*
X042680Y025093D01*
X042664Y025086D01*
X042647Y025082D01*
X042630Y025080D01*
X040930Y025080D01*
X040913Y025082D01*
X040896Y025086D01*
X040880Y025093D01*
X040866Y025103D01*
X040853Y025116D01*
X040843Y025130D01*
X040836Y025146D01*
X040832Y025163D01*
X040830Y025180D01*
X040830Y025980D01*
X040832Y025997D01*
X040836Y026014D01*
X040843Y026030D01*
X040853Y026044D01*
X040866Y026057D01*
X040880Y026067D01*
X040896Y026074D01*
X040913Y026078D01*
X040930Y026080D01*
X041630Y025580D02*
X041680Y025580D01*
X041880Y025580D02*
X041930Y025580D01*
X043030Y024380D02*
X044730Y024380D01*
X044747Y024378D01*
X044764Y024374D01*
X044780Y024367D01*
X044794Y024357D01*
X044807Y024344D01*
X044817Y024330D01*
X044824Y024314D01*
X044828Y024297D01*
X044830Y024280D01*
X044830Y023480D01*
X044828Y023463D01*
X044824Y023446D01*
X044817Y023430D01*
X044807Y023416D01*
X044794Y023403D01*
X044780Y023393D01*
X044764Y023386D01*
X044747Y023382D01*
X044730Y023380D01*
X043030Y023380D01*
X043013Y023382D01*
X042996Y023386D01*
X042980Y023393D01*
X042966Y023403D01*
X042953Y023416D01*
X042943Y023430D01*
X042936Y023446D01*
X042932Y023463D01*
X042930Y023480D01*
X042930Y024280D01*
X042932Y024297D01*
X042936Y024314D01*
X042943Y024330D01*
X042953Y024344D01*
X042966Y024357D01*
X042980Y024367D01*
X042996Y024374D01*
X043013Y024378D01*
X043030Y024380D01*
X043730Y023880D02*
X043780Y023880D01*
X043980Y023880D02*
X044030Y023880D01*
X042930Y022880D02*
X041230Y022880D01*
X041213Y022878D01*
X041196Y022874D01*
X041180Y022867D01*
X041166Y022857D01*
X041153Y022844D01*
X041143Y022830D01*
X041136Y022814D01*
X041132Y022797D01*
X041130Y022780D01*
X041130Y021980D01*
X041132Y021963D01*
X041136Y021946D01*
X041143Y021930D01*
X041153Y021916D01*
X041166Y021903D01*
X041180Y021893D01*
X041196Y021886D01*
X041213Y021882D01*
X041230Y021880D01*
X042930Y021880D01*
X042947Y021882D01*
X042964Y021886D01*
X042980Y021893D01*
X042994Y021903D01*
X043007Y021916D01*
X043017Y021930D01*
X043024Y021946D01*
X043028Y021963D01*
X043030Y021980D01*
X043030Y022780D01*
X043028Y022797D01*
X043024Y022814D01*
X043017Y022830D01*
X043007Y022844D01*
X042994Y022857D01*
X042980Y022867D01*
X042964Y022874D01*
X042947Y022878D01*
X042930Y022880D01*
X042230Y022380D02*
X042180Y022380D01*
X041980Y022380D02*
X041930Y022380D01*
X040030Y020580D02*
X040030Y019780D01*
X040028Y019763D01*
X040024Y019746D01*
X040017Y019730D01*
X040007Y019716D01*
X039994Y019703D01*
X039980Y019693D01*
X039964Y019686D01*
X039947Y019682D01*
X039930Y019680D01*
X038230Y019680D01*
X038213Y019682D01*
X038196Y019686D01*
X038180Y019693D01*
X038166Y019703D01*
X038153Y019716D01*
X038143Y019730D01*
X038136Y019746D01*
X038132Y019763D01*
X038130Y019780D01*
X038130Y020580D01*
X038132Y020597D01*
X038136Y020614D01*
X038143Y020630D01*
X038153Y020644D01*
X038166Y020657D01*
X038180Y020667D01*
X038196Y020674D01*
X038213Y020678D01*
X038230Y020680D01*
X039930Y020680D01*
X039947Y020678D01*
X039964Y020674D01*
X039980Y020667D01*
X039994Y020657D01*
X040007Y020644D01*
X040017Y020630D01*
X040024Y020614D01*
X040028Y020597D01*
X040030Y020580D01*
X039230Y020180D02*
X039180Y020180D01*
X038980Y020180D02*
X038930Y020180D01*
X039680Y017130D02*
X039830Y017130D01*
X039847Y017128D01*
X039864Y017124D01*
X039880Y017117D01*
X039894Y017107D01*
X039907Y017094D01*
X039917Y017080D01*
X039924Y017064D01*
X039928Y017047D01*
X039930Y017030D01*
X039930Y016330D01*
X039928Y016313D01*
X039924Y016296D01*
X039917Y016280D01*
X039907Y016266D01*
X039894Y016253D01*
X039880Y016243D01*
X039864Y016236D01*
X039847Y016232D01*
X039830Y016230D01*
X039680Y016230D01*
X039630Y016280D01*
X037730Y016280D01*
X037680Y016230D01*
X037530Y016230D01*
X037513Y016232D01*
X037496Y016236D01*
X037480Y016243D01*
X037466Y016253D01*
X037453Y016266D01*
X037443Y016280D01*
X037436Y016296D01*
X037432Y016313D01*
X037430Y016330D01*
X037430Y017030D01*
X037432Y017047D01*
X037436Y017064D01*
X037443Y017080D01*
X037453Y017094D01*
X037466Y017107D01*
X037480Y017117D01*
X037496Y017124D01*
X037513Y017128D01*
X037530Y017130D01*
X037680Y017130D01*
X037730Y017080D01*
X039630Y017080D01*
X039680Y017130D01*
X039680Y015630D02*
X039830Y015630D01*
X039847Y015628D01*
X039864Y015624D01*
X039880Y015617D01*
X039894Y015607D01*
X039907Y015594D01*
X039917Y015580D01*
X039924Y015564D01*
X039928Y015547D01*
X039930Y015530D01*
X039930Y014830D01*
X039928Y014813D01*
X039924Y014796D01*
X039917Y014780D01*
X039907Y014766D01*
X039894Y014753D01*
X039880Y014743D01*
X039864Y014736D01*
X039847Y014732D01*
X039830Y014730D01*
X039680Y014730D01*
X039630Y014780D01*
X037730Y014780D01*
X037680Y014730D01*
X037530Y014730D01*
X037513Y014732D01*
X037496Y014736D01*
X037480Y014743D01*
X037466Y014753D01*
X037453Y014766D01*
X037443Y014780D01*
X037436Y014796D01*
X037432Y014813D01*
X037430Y014830D01*
X037430Y015530D01*
X037432Y015547D01*
X037436Y015564D01*
X037443Y015580D01*
X037453Y015594D01*
X037466Y015607D01*
X037480Y015617D01*
X037496Y015624D01*
X037513Y015628D01*
X037530Y015630D01*
X037680Y015630D01*
X037730Y015580D01*
X039630Y015580D01*
X039680Y015630D01*
X039680Y013130D02*
X039830Y013130D01*
X039847Y013128D01*
X039864Y013124D01*
X039880Y013117D01*
X039894Y013107D01*
X039907Y013094D01*
X039917Y013080D01*
X039924Y013064D01*
X039928Y013047D01*
X039930Y013030D01*
X039930Y012330D01*
X039928Y012313D01*
X039924Y012296D01*
X039917Y012280D01*
X039907Y012266D01*
X039894Y012253D01*
X039880Y012243D01*
X039864Y012236D01*
X039847Y012232D01*
X039830Y012230D01*
X039680Y012230D01*
X039630Y012280D01*
X037730Y012280D01*
X037680Y012230D01*
X037530Y012230D01*
X037513Y012232D01*
X037496Y012236D01*
X037480Y012243D01*
X037466Y012253D01*
X037453Y012266D01*
X037443Y012280D01*
X037436Y012296D01*
X037432Y012313D01*
X037430Y012330D01*
X037430Y013030D01*
X037432Y013047D01*
X037436Y013064D01*
X037443Y013080D01*
X037453Y013094D01*
X037466Y013107D01*
X037480Y013117D01*
X037496Y013124D01*
X037513Y013128D01*
X037530Y013130D01*
X037680Y013130D01*
X037730Y013080D01*
X039630Y013080D01*
X039680Y013130D01*
X039680Y011630D02*
X039830Y011630D01*
X039847Y011628D01*
X039864Y011624D01*
X039880Y011617D01*
X039894Y011607D01*
X039907Y011594D01*
X039917Y011580D01*
X039924Y011564D01*
X039928Y011547D01*
X039930Y011530D01*
X039930Y010830D01*
X039928Y010813D01*
X039924Y010796D01*
X039917Y010780D01*
X039907Y010766D01*
X039894Y010753D01*
X039880Y010743D01*
X039864Y010736D01*
X039847Y010732D01*
X039830Y010730D01*
X039680Y010730D01*
X039630Y010780D01*
X037730Y010780D01*
X037680Y010730D01*
X037530Y010730D01*
X037513Y010732D01*
X037496Y010736D01*
X037480Y010743D01*
X037466Y010753D01*
X037453Y010766D01*
X037443Y010780D01*
X037436Y010796D01*
X037432Y010813D01*
X037430Y010830D01*
X037430Y011530D01*
X037432Y011547D01*
X037436Y011564D01*
X037443Y011580D01*
X037453Y011594D01*
X037466Y011607D01*
X037480Y011617D01*
X037496Y011624D01*
X037513Y011628D01*
X037530Y011630D01*
X037680Y011630D01*
X037730Y011580D01*
X039630Y011580D01*
X039680Y011630D01*
X039680Y009130D02*
X039830Y009130D01*
X039847Y009128D01*
X039864Y009124D01*
X039880Y009117D01*
X039894Y009107D01*
X039907Y009094D01*
X039917Y009080D01*
X039924Y009064D01*
X039928Y009047D01*
X039930Y009030D01*
X039930Y008330D01*
X039928Y008313D01*
X039924Y008296D01*
X039917Y008280D01*
X039907Y008266D01*
X039894Y008253D01*
X039880Y008243D01*
X039864Y008236D01*
X039847Y008232D01*
X039830Y008230D01*
X039680Y008230D01*
X039630Y008280D01*
X037730Y008280D01*
X037680Y008230D01*
X037530Y008230D01*
X037513Y008232D01*
X037496Y008236D01*
X037480Y008243D01*
X037466Y008253D01*
X037453Y008266D01*
X037443Y008280D01*
X037436Y008296D01*
X037432Y008313D01*
X037430Y008330D01*
X037430Y009030D01*
X037432Y009047D01*
X037436Y009064D01*
X037443Y009080D01*
X037453Y009094D01*
X037466Y009107D01*
X037480Y009117D01*
X037496Y009124D01*
X037513Y009128D01*
X037530Y009130D01*
X037680Y009130D01*
X037730Y009080D01*
X039630Y009080D01*
X039680Y009130D01*
X039680Y007630D02*
X039830Y007630D01*
X039847Y007628D01*
X039864Y007624D01*
X039880Y007617D01*
X039894Y007607D01*
X039907Y007594D01*
X039917Y007580D01*
X039924Y007564D01*
X039928Y007547D01*
X039930Y007530D01*
X039930Y006830D01*
X039928Y006813D01*
X039924Y006796D01*
X039917Y006780D01*
X039907Y006766D01*
X039894Y006753D01*
X039880Y006743D01*
X039864Y006736D01*
X039847Y006732D01*
X039830Y006730D01*
X039680Y006730D01*
X039630Y006780D01*
X037730Y006780D01*
X037680Y006730D01*
X037530Y006730D01*
X037513Y006732D01*
X037496Y006736D01*
X037480Y006743D01*
X037466Y006753D01*
X037453Y006766D01*
X037443Y006780D01*
X037436Y006796D01*
X037432Y006813D01*
X037430Y006830D01*
X037430Y007530D01*
X037432Y007547D01*
X037436Y007564D01*
X037443Y007580D01*
X037453Y007594D01*
X037466Y007607D01*
X037480Y007617D01*
X037496Y007624D01*
X037513Y007628D01*
X037530Y007630D01*
X037680Y007630D01*
X037730Y007580D01*
X039630Y007580D01*
X039680Y007630D01*
X040780Y005580D02*
X040930Y005580D01*
X040980Y005530D01*
X042380Y005530D01*
X042430Y005580D01*
X042580Y005580D01*
X042597Y005578D01*
X042614Y005574D01*
X042630Y005567D01*
X042644Y005557D01*
X042657Y005544D01*
X042667Y005530D01*
X042674Y005514D01*
X042678Y005497D01*
X042680Y005480D01*
X042680Y004880D01*
X042678Y004863D01*
X042674Y004846D01*
X042667Y004830D01*
X042657Y004816D01*
X042644Y004803D01*
X042630Y004793D01*
X042614Y004786D01*
X042597Y004782D01*
X042580Y004780D01*
X042430Y004780D01*
X042380Y004830D01*
X040980Y004830D01*
X040930Y004780D01*
X040780Y004780D01*
X040763Y004782D01*
X040746Y004786D01*
X040730Y004793D01*
X040716Y004803D01*
X040703Y004816D01*
X040693Y004830D01*
X040686Y004846D01*
X040682Y004863D01*
X040680Y004880D01*
X040680Y005480D01*
X040682Y005497D01*
X040686Y005514D01*
X040693Y005530D01*
X040703Y005544D01*
X040716Y005557D01*
X040730Y005567D01*
X040746Y005574D01*
X040763Y005578D01*
X040780Y005580D01*
X033330Y008680D02*
X028030Y008680D01*
X028030Y022680D01*
X030280Y022680D01*
X030282Y022641D01*
X030288Y022602D01*
X030297Y022564D01*
X030310Y022527D01*
X030327Y022491D01*
X030347Y022458D01*
X030371Y022426D01*
X030397Y022397D01*
X030426Y022371D01*
X030458Y022347D01*
X030491Y022327D01*
X030527Y022310D01*
X030564Y022297D01*
X030602Y022288D01*
X030641Y022282D01*
X030680Y022280D01*
X030719Y022282D01*
X030758Y022288D01*
X030796Y022297D01*
X030833Y022310D01*
X030869Y022327D01*
X030902Y022347D01*
X030934Y022371D01*
X030963Y022397D01*
X030989Y022426D01*
X031013Y022458D01*
X031033Y022491D01*
X031050Y022527D01*
X031063Y022564D01*
X031072Y022602D01*
X031078Y022641D01*
X031080Y022680D01*
X033330Y022680D01*
X033330Y008680D01*
X030250Y012331D02*
X029823Y012331D01*
X029609Y012544D01*
X029823Y012758D01*
X030250Y012758D01*
X029930Y012758D02*
X029930Y012331D01*
X029716Y012975D02*
X029609Y012975D01*
X029716Y012975D02*
X029930Y013189D01*
X030250Y013189D01*
X029930Y013189D02*
X029716Y013402D01*
X029609Y013402D01*
X029930Y013620D02*
X029930Y014047D01*
X030143Y014264D02*
X030250Y014371D01*
X030250Y014585D01*
X030143Y014692D01*
X030036Y014692D01*
X029930Y014585D01*
X029930Y014478D01*
X029930Y014585D02*
X029823Y014692D01*
X029716Y014692D01*
X029609Y014585D01*
X029609Y014371D01*
X029716Y014264D01*
X029930Y014909D02*
X029930Y015336D01*
X030036Y015554D02*
X029930Y015660D01*
X029930Y015874D01*
X030036Y015981D01*
X030143Y015981D01*
X030250Y015874D01*
X030250Y015660D01*
X030143Y015554D01*
X030036Y015554D01*
X029930Y015660D02*
X029823Y015554D01*
X029716Y015554D01*
X029609Y015660D01*
X029609Y015874D01*
X029716Y015981D01*
X029823Y015981D01*
X029930Y015874D01*
X029823Y016198D02*
X029930Y016305D01*
X029930Y016625D01*
X030143Y016625D02*
X029716Y016625D01*
X029609Y016518D01*
X029609Y016305D01*
X029716Y016198D01*
X029823Y016198D01*
X030143Y016198D02*
X030250Y016305D01*
X030250Y016518D01*
X030143Y016625D01*
X030250Y016843D02*
X030250Y017270D01*
X030250Y017056D02*
X029609Y017056D01*
X029823Y016843D01*
X029716Y017487D02*
X029609Y017594D01*
X029609Y017808D01*
X029716Y017914D01*
X029823Y017914D01*
X030250Y017487D01*
X030250Y017914D01*
X029930Y018132D02*
X029930Y018559D01*
X030143Y018776D02*
X030250Y018883D01*
X030250Y019097D01*
X030143Y019203D01*
X030143Y019421D02*
X030250Y019528D01*
X030250Y019741D01*
X030143Y019848D01*
X030036Y019848D01*
X029930Y019741D01*
X029930Y019528D01*
X029823Y019421D01*
X029716Y019421D01*
X029609Y019528D01*
X029609Y019741D01*
X029716Y019848D01*
X029716Y020065D02*
X029609Y020172D01*
X029609Y020386D01*
X029716Y020492D01*
X029823Y020492D01*
X030250Y020065D01*
X030250Y020492D01*
X029716Y019203D02*
X029609Y019097D01*
X029609Y018883D01*
X029716Y018776D01*
X030143Y018776D01*
X023900Y018750D02*
X023900Y018610D01*
X023900Y017750D02*
X023900Y017610D01*
X023900Y016750D02*
X023900Y016610D01*
X023900Y015750D02*
X023900Y015610D01*
X023900Y014750D02*
X023900Y014610D01*
X023900Y013750D02*
X023900Y013610D01*
X023900Y012750D02*
X023900Y012610D01*
X023900Y011750D02*
X023900Y011610D01*
X023900Y010750D02*
X023900Y010610D01*
X023900Y009750D02*
X023900Y009610D01*
X023900Y008750D02*
X023900Y008430D01*
X018460Y008430D01*
X018460Y008750D01*
X018460Y009610D02*
X018460Y009750D01*
X018460Y010610D02*
X018460Y010750D01*
X018460Y011610D02*
X018460Y011750D01*
X018460Y012610D02*
X018460Y012750D01*
X018460Y013610D02*
X018460Y013750D01*
X018460Y014610D02*
X018460Y014750D01*
X018460Y015610D02*
X018460Y015750D01*
X018460Y016610D02*
X018460Y016750D01*
X018460Y017610D02*
X018460Y017750D01*
X018460Y018610D02*
X018460Y018750D01*
X018460Y019610D02*
X018460Y019750D01*
X018460Y020610D02*
X018460Y020750D01*
X018460Y021610D02*
X018460Y021750D01*
X018460Y022610D02*
X018460Y022750D01*
X016080Y022080D02*
X016080Y021930D01*
X016030Y021880D01*
X016030Y020480D01*
X016080Y020430D01*
X016080Y020280D01*
X016078Y020263D01*
X016074Y020246D01*
X016067Y020230D01*
X016057Y020216D01*
X016044Y020203D01*
X016030Y020193D01*
X016014Y020186D01*
X015997Y020182D01*
X015980Y020180D01*
X015380Y020180D01*
X015363Y020182D01*
X015346Y020186D01*
X015330Y020193D01*
X015316Y020203D01*
X015303Y020216D01*
X015293Y020230D01*
X015286Y020246D01*
X015282Y020263D01*
X015280Y020280D01*
X015280Y020430D01*
X015330Y020480D01*
X015330Y021880D01*
X015280Y021930D01*
X015280Y022080D01*
X015282Y022097D01*
X015286Y022114D01*
X015293Y022130D01*
X015303Y022144D01*
X015316Y022157D01*
X015330Y022167D01*
X015346Y022174D01*
X015363Y022178D01*
X015380Y022180D01*
X015980Y022180D01*
X015997Y022178D01*
X016014Y022174D01*
X016030Y022167D01*
X016044Y022157D01*
X016057Y022144D01*
X016067Y022130D01*
X016074Y022114D01*
X016078Y022097D01*
X016080Y022080D01*
X013430Y021880D02*
X013430Y022480D01*
X013428Y022497D01*
X013424Y022514D01*
X013417Y022530D01*
X013407Y022544D01*
X013394Y022557D01*
X013380Y022567D01*
X013364Y022574D01*
X013347Y022578D01*
X013330Y022580D01*
X013180Y022580D01*
X013130Y022530D01*
X011730Y022530D01*
X011680Y022580D01*
X011530Y022580D01*
X011513Y022578D01*
X011496Y022574D01*
X011480Y022567D01*
X011466Y022557D01*
X011453Y022544D01*
X011443Y022530D01*
X011436Y022514D01*
X011432Y022497D01*
X011430Y022480D01*
X011430Y021880D01*
X011432Y021863D01*
X011436Y021846D01*
X011443Y021830D01*
X011453Y021816D01*
X011466Y021803D01*
X011480Y021793D01*
X011496Y021786D01*
X011513Y021782D01*
X011530Y021780D01*
X011680Y021780D01*
X011730Y021830D01*
X013130Y021830D01*
X013180Y021780D01*
X013330Y021780D01*
X013347Y021782D01*
X013364Y021786D01*
X013380Y021793D01*
X013394Y021803D01*
X013407Y021816D01*
X013417Y021830D01*
X013424Y021846D01*
X013428Y021863D01*
X013430Y021880D01*
X013330Y022780D02*
X013180Y022780D01*
X013130Y022830D01*
X011730Y022830D01*
X011680Y022780D01*
X011530Y022780D01*
X011513Y022782D01*
X011496Y022786D01*
X011480Y022793D01*
X011466Y022803D01*
X011453Y022816D01*
X011443Y022830D01*
X011436Y022846D01*
X011432Y022863D01*
X011430Y022880D01*
X011430Y023480D01*
X011432Y023497D01*
X011436Y023514D01*
X011443Y023530D01*
X011453Y023544D01*
X011466Y023557D01*
X011480Y023567D01*
X011496Y023574D01*
X011513Y023578D01*
X011530Y023580D01*
X011680Y023580D01*
X011730Y023530D01*
X013130Y023530D01*
X013180Y023580D01*
X013330Y023580D01*
X013347Y023578D01*
X013364Y023574D01*
X013380Y023567D01*
X013394Y023557D01*
X013407Y023544D01*
X013417Y023530D01*
X013424Y023514D01*
X013428Y023497D01*
X013430Y023480D01*
X013430Y022880D01*
X013428Y022863D01*
X013424Y022846D01*
X013417Y022830D01*
X013407Y022816D01*
X013394Y022803D01*
X013380Y022793D01*
X013364Y022786D01*
X013347Y022782D01*
X013330Y022780D01*
X013330Y023780D02*
X013180Y023780D01*
X013130Y023830D01*
X011730Y023830D01*
X011680Y023780D01*
X011530Y023780D01*
X011513Y023782D01*
X011496Y023786D01*
X011480Y023793D01*
X011466Y023803D01*
X011453Y023816D01*
X011443Y023830D01*
X011436Y023846D01*
X011432Y023863D01*
X011430Y023880D01*
X011430Y024480D01*
X011432Y024497D01*
X011436Y024514D01*
X011443Y024530D01*
X011453Y024544D01*
X011466Y024557D01*
X011480Y024567D01*
X011496Y024574D01*
X011513Y024578D01*
X011530Y024580D01*
X011680Y024580D01*
X011730Y024530D01*
X013130Y024530D01*
X013180Y024580D01*
X013330Y024580D01*
X013347Y024578D01*
X013364Y024574D01*
X013380Y024567D01*
X013394Y024557D01*
X013407Y024544D01*
X013417Y024530D01*
X013424Y024514D01*
X013428Y024497D01*
X013430Y024480D01*
X013430Y023880D01*
X013428Y023863D01*
X013424Y023846D01*
X013417Y023830D01*
X013407Y023816D01*
X013394Y023803D01*
X013380Y023793D01*
X013364Y023786D01*
X013347Y023782D01*
X013330Y023780D01*
X013330Y024780D02*
X013180Y024780D01*
X013130Y024830D01*
X011730Y024830D01*
X011680Y024780D01*
X011530Y024780D01*
X011513Y024782D01*
X011496Y024786D01*
X011480Y024793D01*
X011466Y024803D01*
X011453Y024816D01*
X011443Y024830D01*
X011436Y024846D01*
X011432Y024863D01*
X011430Y024880D01*
X011430Y025480D01*
X011432Y025497D01*
X011436Y025514D01*
X011443Y025530D01*
X011453Y025544D01*
X011466Y025557D01*
X011480Y025567D01*
X011496Y025574D01*
X011513Y025578D01*
X011530Y025580D01*
X011680Y025580D01*
X011730Y025530D01*
X013130Y025530D01*
X013180Y025580D01*
X013330Y025580D01*
X013347Y025578D01*
X013364Y025574D01*
X013380Y025567D01*
X013394Y025557D01*
X013407Y025544D01*
X013417Y025530D01*
X013424Y025514D01*
X013428Y025497D01*
X013430Y025480D01*
X013430Y024880D01*
X013428Y024863D01*
X013424Y024846D01*
X013417Y024830D01*
X013407Y024816D01*
X013394Y024803D01*
X013380Y024793D01*
X013364Y024786D01*
X013347Y024782D01*
X013330Y024780D01*
X013330Y025780D02*
X013180Y025780D01*
X013130Y025830D01*
X011730Y025830D01*
X011680Y025780D01*
X011530Y025780D01*
X011513Y025782D01*
X011496Y025786D01*
X011480Y025793D01*
X011466Y025803D01*
X011453Y025816D01*
X011443Y025830D01*
X011436Y025846D01*
X011432Y025863D01*
X011430Y025880D01*
X011430Y026480D01*
X011432Y026497D01*
X011436Y026514D01*
X011443Y026530D01*
X011453Y026544D01*
X011466Y026557D01*
X011480Y026567D01*
X011496Y026574D01*
X011513Y026578D01*
X011530Y026580D01*
X011680Y026580D01*
X011730Y026530D01*
X013130Y026530D01*
X013180Y026580D01*
X013330Y026580D01*
X013347Y026578D01*
X013364Y026574D01*
X013380Y026567D01*
X013394Y026557D01*
X013407Y026544D01*
X013417Y026530D01*
X013424Y026514D01*
X013428Y026497D01*
X013430Y026480D01*
X013430Y025880D01*
X013428Y025863D01*
X013424Y025846D01*
X013417Y025830D01*
X013407Y025816D01*
X013394Y025803D01*
X013380Y025793D01*
X013364Y025786D01*
X013347Y025782D01*
X013330Y025780D01*
X015280Y025430D02*
X015330Y025480D01*
X015330Y026880D01*
X015280Y026930D01*
X015280Y027080D01*
X015282Y027097D01*
X015286Y027114D01*
X015293Y027130D01*
X015303Y027144D01*
X015316Y027157D01*
X015330Y027167D01*
X015346Y027174D01*
X015363Y027178D01*
X015380Y027180D01*
X015980Y027180D01*
X015997Y027178D01*
X016014Y027174D01*
X016030Y027167D01*
X016044Y027157D01*
X016057Y027144D01*
X016067Y027130D01*
X016074Y027114D01*
X016078Y027097D01*
X016080Y027080D01*
X016080Y026930D01*
X016030Y026880D01*
X016030Y025480D01*
X016080Y025430D01*
X016080Y025280D01*
X016078Y025263D01*
X016074Y025246D01*
X016067Y025230D01*
X016057Y025216D01*
X016044Y025203D01*
X016030Y025193D01*
X016014Y025186D01*
X015997Y025182D01*
X015980Y025180D01*
X015380Y025180D01*
X015363Y025182D01*
X015346Y025186D01*
X015330Y025193D01*
X015316Y025203D01*
X015303Y025216D01*
X015293Y025230D01*
X015286Y025246D01*
X015282Y025263D01*
X015280Y025280D01*
X015280Y025430D01*
X018460Y024930D02*
X018460Y024700D01*
X018460Y024930D02*
X021060Y024930D01*
X021300Y024930D01*
X023900Y024930D01*
X023900Y024610D01*
X023900Y023750D02*
X023900Y023610D01*
X023900Y022750D02*
X023900Y022610D01*
X023900Y021750D02*
X023900Y021610D01*
X023900Y020750D02*
X023900Y020610D01*
X023900Y019750D02*
X023900Y019610D01*
X016180Y016530D02*
X016180Y014830D01*
X016178Y014813D01*
X016174Y014796D01*
X016167Y014780D01*
X016157Y014766D01*
X016144Y014753D01*
X016130Y014743D01*
X016114Y014736D01*
X016097Y014732D01*
X016080Y014730D01*
X015280Y014730D01*
X015263Y014732D01*
X015246Y014736D01*
X015230Y014743D01*
X015216Y014753D01*
X015203Y014766D01*
X015193Y014780D01*
X015186Y014796D01*
X015182Y014813D01*
X015180Y014830D01*
X015180Y016530D01*
X015182Y016547D01*
X015186Y016564D01*
X015193Y016580D01*
X015203Y016594D01*
X015216Y016607D01*
X015230Y016617D01*
X015246Y016624D01*
X015263Y016628D01*
X015280Y016630D01*
X016080Y016630D01*
X016097Y016628D01*
X016114Y016624D01*
X016130Y016617D01*
X016144Y016607D01*
X016157Y016594D01*
X016167Y016580D01*
X016174Y016564D01*
X016178Y016547D01*
X016180Y016530D01*
X015680Y015830D02*
X015680Y015780D01*
X015680Y015580D02*
X015680Y015530D01*
X009930Y019330D02*
X009930Y021030D01*
X009928Y021047D01*
X009924Y021064D01*
X009917Y021080D01*
X009907Y021094D01*
X009894Y021107D01*
X009880Y021117D01*
X009864Y021124D01*
X009847Y021128D01*
X009830Y021130D01*
X009030Y021130D01*
X009013Y021128D01*
X008996Y021124D01*
X008980Y021117D01*
X008966Y021107D01*
X008953Y021094D01*
X008943Y021080D01*
X008936Y021064D01*
X008932Y021047D01*
X008930Y021030D01*
X008930Y019330D01*
X008932Y019313D01*
X008936Y019296D01*
X008943Y019280D01*
X008953Y019266D01*
X008966Y019253D01*
X008980Y019243D01*
X008996Y019236D01*
X009013Y019232D01*
X009030Y019230D01*
X009830Y019230D01*
X009847Y019232D01*
X009864Y019236D01*
X009880Y019243D01*
X009894Y019253D01*
X009907Y019266D01*
X009917Y019280D01*
X009924Y019296D01*
X009928Y019313D01*
X009930Y019330D01*
X009430Y020030D02*
X009430Y020080D01*
X009430Y020280D02*
X009430Y020330D01*
X009175Y021310D02*
X009175Y021737D01*
X009180Y021680D02*
X008930Y021930D01*
X008930Y022430D01*
X009180Y022680D01*
X008930Y022930D01*
X008930Y023430D01*
X009180Y023680D01*
X009680Y023680D01*
X009930Y023430D01*
X009930Y022930D01*
X009680Y022680D01*
X009930Y022430D01*
X009930Y021930D01*
X009680Y021680D01*
X009180Y021680D01*
X009175Y021524D02*
X008534Y021524D01*
X008748Y021310D01*
X009180Y022680D02*
X009680Y022680D01*
X009680Y023680D02*
X009930Y023930D01*
X009930Y024430D01*
X009680Y024680D01*
X009930Y024930D01*
X009930Y025430D01*
X009680Y025680D01*
X009930Y025930D01*
X009930Y026430D01*
X009680Y026680D01*
X009180Y026680D01*
X008930Y026430D01*
X008930Y025930D01*
X009180Y025680D01*
X009680Y025680D01*
X009180Y025680D02*
X008930Y025430D01*
X008930Y024930D01*
X009180Y024680D01*
X009680Y024680D01*
X009180Y024680D02*
X008930Y024430D01*
X008930Y023930D01*
X009180Y023680D01*
X006180Y025005D02*
X006180Y025605D01*
X006178Y025622D01*
X006174Y025639D01*
X006167Y025655D01*
X006157Y025669D01*
X006144Y025682D01*
X006130Y025692D01*
X006114Y025699D01*
X006097Y025703D01*
X006080Y025705D01*
X005930Y025705D01*
X005880Y025655D01*
X004480Y025655D01*
X004430Y025705D01*
X004280Y025705D01*
X004263Y025703D01*
X004246Y025699D01*
X004230Y025692D01*
X004216Y025682D01*
X004203Y025669D01*
X004193Y025655D01*
X004186Y025639D01*
X004182Y025622D01*
X004180Y025605D01*
X004180Y025005D01*
X004182Y024988D01*
X004186Y024971D01*
X004193Y024955D01*
X004203Y024941D01*
X004216Y024928D01*
X004230Y024918D01*
X004246Y024911D01*
X004263Y024907D01*
X004280Y024905D01*
X004430Y024905D01*
X004480Y024955D01*
X005880Y024955D01*
X005930Y024905D01*
X006080Y024905D01*
X006097Y024907D01*
X006114Y024911D01*
X006130Y024918D01*
X006144Y024928D01*
X006157Y024941D01*
X006167Y024955D01*
X006174Y024971D01*
X006178Y024988D01*
X006180Y025005D01*
X006080Y025905D02*
X005930Y025905D01*
X005880Y025955D01*
X004480Y025955D01*
X004430Y025905D01*
X004280Y025905D01*
X004263Y025907D01*
X004246Y025911D01*
X004230Y025918D01*
X004216Y025928D01*
X004203Y025941D01*
X004193Y025955D01*
X004186Y025971D01*
X004182Y025988D01*
X004180Y026005D01*
X004180Y026605D01*
X004182Y026622D01*
X004186Y026639D01*
X004193Y026655D01*
X004203Y026669D01*
X004216Y026682D01*
X004230Y026692D01*
X004246Y026699D01*
X004263Y026703D01*
X004280Y026705D01*
X004430Y026705D01*
X004480Y026655D01*
X005880Y026655D01*
X005930Y026705D01*
X006080Y026705D01*
X006097Y026703D01*
X006114Y026699D01*
X006130Y026692D01*
X006144Y026682D01*
X006157Y026669D01*
X006167Y026655D01*
X006174Y026639D01*
X006178Y026622D01*
X006180Y026605D01*
X006180Y026005D01*
X006178Y025988D01*
X006174Y025971D01*
X006167Y025955D01*
X006157Y025941D01*
X006144Y025928D01*
X006130Y025918D01*
X006114Y025911D01*
X006097Y025907D01*
X006080Y025905D01*
X006080Y026905D02*
X005930Y026905D01*
X005880Y026955D01*
X004480Y026955D01*
X004430Y026905D01*
X004280Y026905D01*
X004263Y026907D01*
X004246Y026911D01*
X004230Y026918D01*
X004216Y026928D01*
X004203Y026941D01*
X004193Y026955D01*
X004186Y026971D01*
X004182Y026988D01*
X004180Y027005D01*
X004180Y027605D01*
X004182Y027622D01*
X004186Y027639D01*
X004193Y027655D01*
X004203Y027669D01*
X004216Y027682D01*
X004230Y027692D01*
X004246Y027699D01*
X004263Y027703D01*
X004280Y027705D01*
X004430Y027705D01*
X004480Y027655D01*
X005880Y027655D01*
X005930Y027705D01*
X006080Y027705D01*
X006097Y027703D01*
X006114Y027699D01*
X006130Y027692D01*
X006144Y027682D01*
X006157Y027669D01*
X006167Y027655D01*
X006174Y027639D01*
X006178Y027622D01*
X006180Y027605D01*
X006180Y027005D01*
X006178Y026988D01*
X006174Y026971D01*
X006167Y026955D01*
X006157Y026941D01*
X006144Y026928D01*
X006130Y026918D01*
X006114Y026911D01*
X006097Y026907D01*
X006080Y026905D01*
X006080Y027905D02*
X005930Y027905D01*
X005880Y027955D01*
X004480Y027955D01*
X004430Y027905D01*
X004280Y027905D01*
X004263Y027907D01*
X004246Y027911D01*
X004230Y027918D01*
X004216Y027928D01*
X004203Y027941D01*
X004193Y027955D01*
X004186Y027971D01*
X004182Y027988D01*
X004180Y028005D01*
X004180Y028605D01*
X004182Y028622D01*
X004186Y028639D01*
X004193Y028655D01*
X004203Y028669D01*
X004216Y028682D01*
X004230Y028692D01*
X004246Y028699D01*
X004263Y028703D01*
X004280Y028705D01*
X004430Y028705D01*
X004480Y028655D01*
X005880Y028655D01*
X005930Y028705D01*
X006080Y028705D01*
X006097Y028703D01*
X006114Y028699D01*
X006130Y028692D01*
X006144Y028682D01*
X006157Y028669D01*
X006167Y028655D01*
X006174Y028639D01*
X006178Y028622D01*
X006180Y028605D01*
X006180Y028005D01*
X006178Y027988D01*
X006174Y027971D01*
X006167Y027955D01*
X006157Y027941D01*
X006144Y027928D01*
X006130Y027918D01*
X006114Y027911D01*
X006097Y027907D01*
X006080Y027905D01*
X006080Y028905D02*
X005930Y028905D01*
X005880Y028955D01*
X004480Y028955D01*
X004430Y028905D01*
X004280Y028905D01*
X004263Y028907D01*
X004246Y028911D01*
X004230Y028918D01*
X004216Y028928D01*
X004203Y028941D01*
X004193Y028955D01*
X004186Y028971D01*
X004182Y028988D01*
X004180Y029005D01*
X004180Y029605D01*
X004182Y029622D01*
X004186Y029639D01*
X004193Y029655D01*
X004203Y029669D01*
X004216Y029682D01*
X004230Y029692D01*
X004246Y029699D01*
X004263Y029703D01*
X004280Y029705D01*
X004430Y029705D01*
X004480Y029655D01*
X005880Y029655D01*
X005930Y029705D01*
X006080Y029705D01*
X006097Y029703D01*
X006114Y029699D01*
X006130Y029692D01*
X006144Y029682D01*
X006157Y029669D01*
X006167Y029655D01*
X006174Y029639D01*
X006178Y029622D01*
X006180Y029605D01*
X006180Y029005D01*
X006178Y028988D01*
X006174Y028971D01*
X006167Y028955D01*
X006157Y028941D01*
X006144Y028928D01*
X006130Y028918D01*
X006114Y028911D01*
X006097Y028907D01*
X006080Y028905D01*
X008930Y028930D02*
X009180Y028680D01*
X009680Y028680D01*
X009930Y028930D01*
X009930Y029430D01*
X009680Y029680D01*
X009180Y029680D01*
X008930Y029430D01*
X008930Y028930D01*
X009180Y028680D02*
X008930Y028430D01*
X008930Y027930D01*
X009180Y027680D01*
X009680Y027680D01*
X009930Y027930D01*
X009930Y028430D01*
X009680Y028680D01*
X009680Y027680D02*
X009930Y027430D01*
X009930Y026930D01*
X009680Y026680D01*
X009180Y026680D02*
X008930Y026930D01*
X008930Y027430D01*
X009180Y027680D01*
X007830Y031230D02*
X007680Y031230D01*
X007630Y031280D01*
X005730Y031280D01*
X005680Y031230D01*
X005530Y031230D01*
X005513Y031232D01*
X005496Y031236D01*
X005480Y031243D01*
X005466Y031253D01*
X005453Y031266D01*
X005443Y031280D01*
X005436Y031296D01*
X005432Y031313D01*
X005430Y031330D01*
X005430Y032030D01*
X005432Y032047D01*
X005436Y032064D01*
X005443Y032080D01*
X005453Y032094D01*
X005466Y032107D01*
X005480Y032117D01*
X005496Y032124D01*
X005513Y032128D01*
X005530Y032130D01*
X005680Y032130D01*
X005730Y032080D01*
X007630Y032080D01*
X007680Y032130D01*
X007830Y032130D01*
X007847Y032128D01*
X007864Y032124D01*
X007880Y032117D01*
X007894Y032107D01*
X007907Y032094D01*
X007917Y032080D01*
X007924Y032064D01*
X007928Y032047D01*
X007930Y032030D01*
X007930Y031330D01*
X007928Y031313D01*
X007924Y031296D01*
X007917Y031280D01*
X007907Y031266D01*
X007894Y031253D01*
X007880Y031243D01*
X007864Y031236D01*
X007847Y031232D01*
X007830Y031230D01*
X007580Y033280D02*
X007430Y033280D01*
X007380Y033330D01*
X005980Y033330D01*
X005930Y033280D01*
X005780Y033280D01*
X005763Y033282D01*
X005746Y033286D01*
X005730Y033293D01*
X005716Y033303D01*
X005703Y033316D01*
X005693Y033330D01*
X005686Y033346D01*
X005682Y033363D01*
X005680Y033380D01*
X005680Y033980D01*
X005682Y033997D01*
X005686Y034014D01*
X005693Y034030D01*
X005703Y034044D01*
X005716Y034057D01*
X005730Y034067D01*
X005746Y034074D01*
X005763Y034078D01*
X005780Y034080D01*
X005930Y034080D01*
X005980Y034030D01*
X007380Y034030D01*
X007430Y034080D01*
X007580Y034080D01*
X007597Y034078D01*
X007614Y034074D01*
X007630Y034067D01*
X007644Y034057D01*
X007657Y034044D01*
X007667Y034030D01*
X007674Y034014D01*
X007678Y033997D01*
X007680Y033980D01*
X007680Y033380D01*
X007678Y033363D01*
X007674Y033346D01*
X007667Y033330D01*
X007657Y033316D01*
X007644Y033303D01*
X007630Y033293D01*
X007614Y033286D01*
X007597Y033282D01*
X007580Y033280D01*
X010280Y035280D02*
X010280Y035430D01*
X010330Y035480D01*
X010330Y036880D01*
X010280Y036930D01*
X010280Y037080D01*
X010282Y037097D01*
X010286Y037114D01*
X010293Y037130D01*
X010303Y037144D01*
X010316Y037157D01*
X010330Y037167D01*
X010346Y037174D01*
X010363Y037178D01*
X010380Y037180D01*
X010980Y037180D01*
X010997Y037178D01*
X011014Y037174D01*
X011030Y037167D01*
X011044Y037157D01*
X011057Y037144D01*
X011067Y037130D01*
X011074Y037114D01*
X011078Y037097D01*
X011080Y037080D01*
X011080Y036930D01*
X011030Y036880D01*
X011030Y035480D01*
X011080Y035430D01*
X011080Y035280D01*
X011078Y035263D01*
X011074Y035246D01*
X011067Y035230D01*
X011057Y035216D01*
X011044Y035203D01*
X011030Y035193D01*
X011014Y035186D01*
X010997Y035182D01*
X010980Y035180D01*
X010380Y035180D01*
X010363Y035182D01*
X010346Y035186D01*
X010330Y035193D01*
X010316Y035203D01*
X010303Y035216D01*
X010293Y035230D01*
X010286Y035246D01*
X010282Y035263D01*
X010280Y035280D01*
X011660Y035585D02*
X012087Y035585D01*
X011874Y035585D02*
X011874Y036226D01*
X011660Y036012D01*
X012180Y035930D02*
X012430Y035680D01*
X012930Y035680D01*
X013180Y035930D01*
X013180Y037430D01*
X013430Y037680D01*
X013930Y037680D01*
X014180Y037430D01*
X014430Y037680D01*
X014930Y037680D01*
X015180Y037430D01*
X015180Y035930D01*
X014930Y035680D01*
X014430Y035680D01*
X014180Y035930D01*
X014180Y037430D01*
X013180Y037430D02*
X012930Y037680D01*
X012430Y037680D01*
X012180Y037430D01*
X012180Y035930D01*
X013180Y035930D02*
X013430Y035680D01*
X013930Y035680D01*
X014180Y035930D01*
X016585Y036973D02*
X017012Y036973D01*
X017180Y036930D02*
X017430Y036680D01*
X017930Y036680D01*
X018180Y036930D01*
X018430Y036680D01*
X018930Y036680D01*
X019180Y036930D01*
X019180Y037430D01*
X018930Y037680D01*
X018430Y037680D01*
X018180Y037430D01*
X018180Y036930D01*
X018180Y037430D02*
X017930Y037680D01*
X017430Y037680D01*
X017180Y037430D01*
X017180Y036930D01*
X016799Y036973D02*
X016799Y037613D01*
X016585Y037400D01*
X019180Y037430D02*
X019430Y037680D01*
X019930Y037680D01*
X020180Y037430D01*
X020430Y037680D01*
X020930Y037680D01*
X021180Y037430D01*
X021430Y037680D01*
X021930Y037680D01*
X022180Y037430D01*
X022180Y036930D01*
X021930Y036680D01*
X021430Y036680D01*
X021180Y036930D01*
X020930Y036680D01*
X020430Y036680D01*
X020180Y036930D01*
X019930Y036680D01*
X019430Y036680D01*
X019180Y036930D01*
X020180Y036930D02*
X020180Y037430D01*
X021180Y037430D02*
X021180Y036930D01*
X022180Y036930D02*
X022430Y036680D01*
X022930Y036680D01*
X023180Y036930D01*
X023430Y036680D01*
X023930Y036680D01*
X024180Y036930D01*
X024430Y036680D01*
X024930Y036680D01*
X025180Y036930D01*
X025180Y037430D01*
X024930Y037680D01*
X024430Y037680D01*
X024180Y037430D01*
X024180Y036930D01*
X023180Y036930D02*
X023180Y037430D01*
X023430Y037680D01*
X023930Y037680D01*
X024180Y037430D01*
X023180Y037430D02*
X022930Y037680D01*
X022430Y037680D01*
X022180Y037430D01*
X026085Y037600D02*
X026299Y037813D01*
X026299Y037173D01*
X026512Y037173D02*
X026085Y037173D01*
X026680Y036930D02*
X026930Y036680D01*
X027430Y036680D01*
X027680Y036930D01*
X027930Y036680D01*
X028430Y036680D01*
X028680Y036930D01*
X028680Y037430D01*
X028430Y037680D01*
X027930Y037680D01*
X027680Y037430D01*
X027680Y036930D01*
X027680Y037430D02*
X027430Y037680D01*
X026930Y037680D01*
X026680Y037430D01*
X026680Y036930D01*
X028680Y036930D02*
X028930Y036680D01*
X029430Y036680D01*
X029680Y036930D01*
X029930Y036680D01*
X030430Y036680D01*
X030680Y036930D01*
X030930Y036680D01*
X031430Y036680D01*
X031680Y036930D01*
X031680Y037430D01*
X031430Y037680D01*
X030930Y037680D01*
X030680Y037430D01*
X030680Y036930D01*
X030680Y037430D02*
X030430Y037680D01*
X029930Y037680D01*
X029680Y037430D01*
X029680Y036930D01*
X029680Y037430D02*
X029430Y037680D01*
X028930Y037680D01*
X028680Y037430D01*
X031680Y037430D02*
X031930Y037680D01*
X032430Y037680D01*
X032680Y037430D01*
X032930Y037680D01*
X033430Y037680D01*
X033680Y037430D01*
X033930Y037680D01*
X034430Y037680D01*
X034680Y037430D01*
X034680Y036930D01*
X034430Y036680D01*
X033930Y036680D01*
X033680Y036930D01*
X033430Y036680D01*
X032930Y036680D01*
X032680Y036930D01*
X032430Y036680D01*
X031930Y036680D01*
X031680Y036930D01*
X032680Y036930D02*
X032680Y037430D01*
X033680Y037430D02*
X033680Y036930D01*
X036810Y036050D02*
X037024Y036263D01*
X037024Y035623D01*
X037237Y035623D02*
X036810Y035623D01*
X037180Y035930D02*
X037180Y037430D01*
X037430Y037680D01*
X037930Y037680D01*
X038180Y037430D01*
X038180Y035930D01*
X038430Y035680D01*
X038930Y035680D01*
X039180Y035930D01*
X039180Y037430D01*
X039430Y037680D01*
X039930Y037680D01*
X040180Y037430D01*
X040180Y035930D01*
X040430Y035680D01*
X040930Y035680D01*
X041180Y035930D01*
X041180Y037430D01*
X041430Y037680D01*
X041930Y037680D01*
X042180Y037430D01*
X042180Y035930D01*
X042430Y035680D01*
X042930Y035680D01*
X043180Y035930D01*
X043180Y037430D01*
X043430Y037680D01*
X043930Y037680D01*
X044180Y037430D01*
X044180Y035930D01*
X043930Y035680D01*
X043430Y035680D01*
X043180Y035930D01*
X042180Y035930D02*
X041930Y035680D01*
X041430Y035680D01*
X041180Y035930D01*
X040180Y035930D02*
X039930Y035680D01*
X039430Y035680D01*
X039180Y035930D01*
X038180Y035930D02*
X037930Y035680D01*
X037430Y035680D01*
X037180Y035930D01*
X038180Y037430D02*
X038430Y037680D01*
X038930Y037680D01*
X039180Y037430D01*
X040180Y037430D02*
X040430Y037680D01*
X040930Y037680D01*
X041180Y037430D01*
X042180Y037430D02*
X042430Y037680D01*
X042930Y037680D01*
X043180Y037430D01*
X044180Y037430D02*
X044430Y037680D01*
X044930Y037680D01*
X045180Y037430D01*
X045180Y035930D01*
X044930Y035680D01*
X044430Y035680D01*
X044180Y035930D01*
X045180Y035930D02*
X045430Y035680D01*
X045930Y035680D01*
X046180Y035930D01*
X046430Y035680D01*
X046930Y035680D01*
X047180Y035930D01*
X047180Y037430D01*
X046930Y037680D01*
X046430Y037680D01*
X046180Y037430D01*
X046180Y035930D01*
X046180Y037430D02*
X045930Y037680D01*
X045430Y037680D01*
X045180Y037430D01*
X048680Y036930D02*
X048680Y036430D01*
X048930Y036180D01*
X049430Y036180D01*
X049680Y036430D01*
X049930Y036180D01*
X050430Y036180D01*
X050680Y036430D01*
X050680Y036930D01*
X050430Y037180D01*
X049930Y037180D01*
X049680Y036930D01*
X049680Y036430D01*
X049680Y036930D02*
X049430Y037180D01*
X048930Y037180D01*
X048680Y036930D01*
X050680Y036930D02*
X050930Y037180D01*
X051430Y037180D01*
X051680Y036930D01*
X051930Y037180D01*
X052430Y037180D01*
X052680Y036930D01*
X052680Y036430D01*
X052430Y036180D01*
X051930Y036180D01*
X051680Y036430D01*
X051430Y036180D01*
X050930Y036180D01*
X050680Y036430D01*
X051680Y036430D02*
X051680Y036930D01*
X052810Y036769D02*
X052810Y036342D01*
X052917Y036235D01*
X053130Y036235D01*
X053237Y036342D01*
X053237Y036555D01*
X053024Y036555D01*
X053237Y036769D02*
X053130Y036876D01*
X052917Y036876D01*
X052810Y036769D01*
X054180Y036930D02*
X054180Y036430D01*
X054430Y036180D01*
X054930Y036180D01*
X055180Y036430D01*
X055430Y036180D01*
X055930Y036180D01*
X056180Y036430D01*
X056180Y036930D01*
X055930Y037180D01*
X055430Y037180D01*
X055180Y036930D01*
X055180Y036430D01*
X055099Y035938D02*
X055099Y035298D01*
X055312Y035298D02*
X054885Y035298D01*
X054885Y035725D02*
X055099Y035938D01*
X055180Y036930D02*
X054930Y037180D01*
X054430Y037180D01*
X054180Y036930D01*
X056180Y036930D02*
X056430Y037180D01*
X056930Y037180D01*
X057180Y036930D01*
X057430Y037180D01*
X057930Y037180D01*
X058180Y036930D01*
X058180Y036430D01*
X057930Y036180D01*
X057430Y036180D01*
X057180Y036430D01*
X056930Y036180D01*
X056430Y036180D01*
X056180Y036430D01*
X057180Y036430D02*
X057180Y036930D01*
X058198Y036294D02*
X058198Y035867D01*
X058304Y035760D01*
X058518Y035760D01*
X058625Y035867D01*
X058625Y036080D01*
X058411Y036080D01*
X058198Y036294D02*
X058304Y036401D01*
X058518Y036401D01*
X058625Y036294D01*
X057930Y034180D02*
X057430Y034180D01*
X057180Y033930D01*
X056930Y034180D01*
X056430Y034180D01*
X056180Y033930D01*
X056180Y033430D01*
X056430Y033180D01*
X056930Y033180D01*
X057180Y033430D01*
X057180Y033930D01*
X057930Y034180D02*
X058180Y033930D01*
X058180Y033430D01*
X057930Y033180D01*
X057430Y033180D01*
X057180Y033430D01*
X056180Y033430D02*
X055930Y033180D01*
X055430Y033180D01*
X055180Y033430D01*
X054930Y033180D01*
X054430Y033180D01*
X054180Y033430D01*
X053930Y033180D01*
X053430Y033180D01*
X053180Y033430D01*
X053180Y033930D01*
X053430Y034180D01*
X053930Y034180D01*
X054180Y033930D01*
X054430Y034180D01*
X054930Y034180D01*
X055180Y033930D01*
X055430Y034180D01*
X055930Y034180D01*
X056180Y033930D01*
X055180Y033930D02*
X055180Y033430D01*
X054180Y033430D02*
X054180Y033930D01*
X053180Y033930D02*
X052930Y034180D01*
X052430Y034180D01*
X052180Y033930D01*
X051930Y034180D01*
X051430Y034180D01*
X051180Y033930D01*
X050930Y034180D01*
X050430Y034180D01*
X050180Y033930D01*
X050180Y033430D01*
X050430Y033180D01*
X050930Y033180D01*
X051180Y033430D01*
X051180Y033930D01*
X052180Y033930D02*
X052180Y033430D01*
X051930Y033180D01*
X051430Y033180D01*
X051180Y033430D01*
X052180Y033430D02*
X052430Y033180D01*
X052930Y033180D01*
X053180Y033430D01*
X049687Y033260D02*
X049260Y033260D01*
X049180Y033430D02*
X048930Y033180D01*
X048430Y033180D01*
X048180Y033430D01*
X047930Y033180D01*
X047430Y033180D01*
X047180Y033430D01*
X047180Y033930D01*
X047430Y034180D01*
X047930Y034180D01*
X048180Y033930D01*
X048430Y034180D01*
X048930Y034180D01*
X049180Y033930D01*
X049180Y033430D01*
X049260Y033687D02*
X049474Y033901D01*
X049474Y033260D01*
X048180Y033430D02*
X048180Y033930D01*
X047180Y033930D02*
X046930Y034180D01*
X046430Y034180D01*
X046180Y033930D01*
X045930Y034180D01*
X045430Y034180D01*
X045180Y033930D01*
X044930Y034180D01*
X044430Y034180D01*
X044180Y033930D01*
X044180Y033430D01*
X044430Y033180D01*
X044930Y033180D01*
X045180Y033430D01*
X045180Y033930D01*
X046180Y033930D02*
X046180Y033430D01*
X045930Y033180D01*
X045430Y033180D01*
X045180Y033430D01*
X046180Y033430D02*
X046430Y033180D01*
X046930Y033180D01*
X047180Y033430D01*
X044180Y033430D02*
X043930Y033180D01*
X043430Y033180D01*
X043180Y033430D01*
X042930Y033180D01*
X042430Y033180D01*
X042180Y033430D01*
X041930Y033180D01*
X041430Y033180D01*
X041180Y033430D01*
X041180Y033930D01*
X041430Y034180D01*
X041930Y034180D01*
X042180Y033930D01*
X042430Y034180D01*
X042930Y034180D01*
X043180Y033930D01*
X043430Y034180D01*
X043930Y034180D01*
X044180Y033930D01*
X043180Y033930D02*
X043180Y033430D01*
X042180Y033430D02*
X042180Y033930D01*
X034680Y033830D02*
X034680Y031530D01*
X027680Y031530D01*
X027680Y032280D01*
X027719Y032282D01*
X027758Y032288D01*
X027796Y032297D01*
X027833Y032310D01*
X027869Y032327D01*
X027902Y032347D01*
X027934Y032371D01*
X027963Y032397D01*
X027989Y032426D01*
X028013Y032458D01*
X028033Y032491D01*
X028050Y032527D01*
X028063Y032564D01*
X028072Y032602D01*
X028078Y032641D01*
X028080Y032680D01*
X028078Y032719D01*
X028072Y032758D01*
X028063Y032796D01*
X028050Y032833D01*
X028033Y032869D01*
X028013Y032902D01*
X027989Y032934D01*
X027963Y032963D01*
X027934Y032989D01*
X027902Y033013D01*
X027869Y033033D01*
X027833Y033050D01*
X027796Y033063D01*
X027758Y033072D01*
X027719Y033078D01*
X027680Y033080D01*
X027680Y033830D01*
X034680Y033830D01*
X034580Y027930D02*
X033930Y027930D01*
X033430Y027930D02*
X027930Y027930D01*
X027430Y027930D02*
X026780Y027930D01*
X026780Y025430D01*
X027430Y025430D01*
X027930Y025430D02*
X033430Y025430D01*
X033930Y025430D02*
X034580Y025430D01*
X034580Y027930D01*
X029430Y026680D02*
X029050Y026680D01*
X028310Y026680D02*
X027930Y026680D01*
X027380Y026030D02*
X027382Y026064D01*
X027388Y026098D01*
X027397Y026131D01*
X027411Y026162D01*
X027428Y026192D01*
X027448Y026220D01*
X027471Y026245D01*
X027497Y026268D01*
X027525Y026287D01*
X027555Y026303D01*
X027587Y026315D01*
X027620Y026324D01*
X027654Y026329D01*
X027689Y026330D01*
X027723Y026327D01*
X027756Y026320D01*
X027789Y026310D01*
X027820Y026295D01*
X027849Y026278D01*
X027876Y026257D01*
X027901Y026233D01*
X027923Y026206D01*
X027941Y026178D01*
X027956Y026147D01*
X027968Y026115D01*
X027976Y026081D01*
X027980Y026047D01*
X027980Y026013D01*
X027976Y025979D01*
X027968Y025945D01*
X027956Y025913D01*
X027941Y025882D01*
X027923Y025854D01*
X027901Y025827D01*
X027876Y025803D01*
X027849Y025782D01*
X027820Y025765D01*
X027789Y025750D01*
X027756Y025740D01*
X027723Y025733D01*
X027689Y025730D01*
X027654Y025731D01*
X027620Y025736D01*
X027587Y025745D01*
X027555Y025757D01*
X027525Y025773D01*
X027497Y025792D01*
X027471Y025815D01*
X027448Y025840D01*
X027428Y025868D01*
X027411Y025898D01*
X027397Y025929D01*
X027388Y025962D01*
X027382Y025996D01*
X027380Y026030D01*
X021300Y024930D02*
X021298Y024909D01*
X021293Y024889D01*
X021284Y024870D01*
X021272Y024853D01*
X021257Y024838D01*
X021240Y024826D01*
X021221Y024817D01*
X021201Y024812D01*
X021180Y024810D01*
X021159Y024812D01*
X021139Y024817D01*
X021120Y024826D01*
X021103Y024838D01*
X021088Y024853D01*
X021076Y024870D01*
X021067Y024889D01*
X021062Y024909D01*
X021060Y024930D01*
X012630Y020580D02*
X012630Y019780D01*
X012628Y019763D01*
X012624Y019746D01*
X012617Y019730D01*
X012607Y019716D01*
X012594Y019703D01*
X012580Y019693D01*
X012564Y019686D01*
X012547Y019682D01*
X012530Y019680D01*
X010830Y019680D01*
X010813Y019682D01*
X010796Y019686D01*
X010780Y019693D01*
X010766Y019703D01*
X010753Y019716D01*
X010743Y019730D01*
X010736Y019746D01*
X010732Y019763D01*
X010730Y019780D01*
X010730Y020580D01*
X010732Y020597D01*
X010736Y020614D01*
X010743Y020630D01*
X010753Y020644D01*
X010766Y020657D01*
X010780Y020667D01*
X010796Y020674D01*
X010813Y020678D01*
X010830Y020680D01*
X012530Y020680D01*
X012547Y020678D01*
X012564Y020674D01*
X012580Y020667D01*
X012594Y020657D01*
X012607Y020644D01*
X012617Y020630D01*
X012624Y020614D01*
X012628Y020597D01*
X012630Y020580D01*
X011830Y020180D02*
X011780Y020180D01*
X011580Y020180D02*
X011530Y020180D01*
X003755Y018830D02*
X003755Y018030D01*
X003753Y018013D01*
X003749Y017996D01*
X003742Y017980D01*
X003732Y017966D01*
X003719Y017953D01*
X003705Y017943D01*
X003689Y017936D01*
X003672Y017932D01*
X003655Y017930D01*
X001955Y017930D01*
X001938Y017932D01*
X001921Y017936D01*
X001905Y017943D01*
X001891Y017953D01*
X001878Y017966D01*
X001868Y017980D01*
X001861Y017996D01*
X001857Y018013D01*
X001855Y018030D01*
X001855Y018830D01*
X001857Y018847D01*
X001861Y018864D01*
X001868Y018880D01*
X001878Y018894D01*
X001891Y018907D01*
X001905Y018917D01*
X001921Y018924D01*
X001938Y018928D01*
X001955Y018930D01*
X003655Y018930D01*
X003672Y018928D01*
X003689Y018924D01*
X003705Y018917D01*
X003719Y018907D01*
X003732Y018894D01*
X003742Y018880D01*
X003749Y018864D01*
X003753Y018847D01*
X003755Y018830D01*
X002955Y018430D02*
X002905Y018430D01*
X002705Y018430D02*
X002655Y018430D01*
X001930Y017330D02*
X001780Y017330D01*
X001763Y017328D01*
X001746Y017324D01*
X001730Y017317D01*
X001716Y017307D01*
X001703Y017294D01*
X001693Y017280D01*
X001686Y017264D01*
X001682Y017247D01*
X001680Y017230D01*
X001680Y016630D01*
X001682Y016613D01*
X001686Y016596D01*
X001693Y016580D01*
X001703Y016566D01*
X001716Y016553D01*
X001730Y016543D01*
X001746Y016536D01*
X001763Y016532D01*
X001780Y016530D01*
X001930Y016530D01*
X001980Y016580D01*
X003380Y016580D01*
X003430Y016530D01*
X003580Y016530D01*
X003597Y016532D01*
X003614Y016536D01*
X003630Y016543D01*
X003644Y016553D01*
X003657Y016566D01*
X003667Y016580D01*
X003674Y016596D01*
X003678Y016613D01*
X003680Y016630D01*
X003680Y017230D01*
X003678Y017247D01*
X003674Y017264D01*
X003667Y017280D01*
X003657Y017294D01*
X003644Y017307D01*
X003630Y017317D01*
X003614Y017324D01*
X003597Y017328D01*
X003580Y017330D01*
X003430Y017330D01*
X003380Y017280D01*
X001980Y017280D01*
X001930Y017330D01*
X001930Y016080D02*
X001780Y016080D01*
X001763Y016078D01*
X001746Y016074D01*
X001730Y016067D01*
X001716Y016057D01*
X001703Y016044D01*
X001693Y016030D01*
X001686Y016014D01*
X001682Y015997D01*
X001680Y015980D01*
X001680Y015380D01*
X001682Y015363D01*
X001686Y015346D01*
X001693Y015330D01*
X001703Y015316D01*
X001716Y015303D01*
X001730Y015293D01*
X001746Y015286D01*
X001763Y015282D01*
X001780Y015280D01*
X001930Y015280D01*
X001980Y015330D01*
X003380Y015330D01*
X003430Y015280D01*
X003580Y015280D01*
X003597Y015282D01*
X003614Y015286D01*
X003630Y015293D01*
X003644Y015303D01*
X003657Y015316D01*
X003667Y015330D01*
X003674Y015346D01*
X003678Y015363D01*
X003680Y015380D01*
X003680Y015980D01*
X003678Y015997D01*
X003674Y016014D01*
X003667Y016030D01*
X003657Y016044D01*
X003644Y016057D01*
X003630Y016067D01*
X003614Y016074D01*
X003597Y016078D01*
X003580Y016080D01*
X003430Y016080D01*
X003380Y016030D01*
X001980Y016030D01*
X001930Y016080D01*
X002205Y014880D02*
X001405Y014880D01*
X001388Y014878D01*
X001371Y014874D01*
X001355Y014867D01*
X001341Y014857D01*
X001328Y014844D01*
X001318Y014830D01*
X001311Y014814D01*
X001307Y014797D01*
X001305Y014780D01*
X001305Y013080D01*
X001307Y013063D01*
X001311Y013046D01*
X001318Y013030D01*
X001328Y013016D01*
X001341Y013003D01*
X001355Y012993D01*
X001371Y012986D01*
X001388Y012982D01*
X001405Y012980D01*
X002205Y012980D01*
X002222Y012982D01*
X002239Y012986D01*
X002255Y012993D01*
X002269Y013003D01*
X002282Y013016D01*
X002292Y013030D01*
X002299Y013046D01*
X002303Y013063D01*
X002305Y013080D01*
X002305Y014780D01*
X002303Y014797D01*
X002299Y014814D01*
X002292Y014830D01*
X002282Y014844D01*
X002269Y014857D01*
X002255Y014867D01*
X002239Y014874D01*
X002222Y014878D01*
X002205Y014880D01*
X002943Y014730D02*
X002943Y013030D01*
X002945Y013013D01*
X002949Y012996D01*
X002956Y012980D01*
X002966Y012966D01*
X002979Y012953D01*
X002993Y012943D01*
X003009Y012936D01*
X003026Y012932D01*
X003043Y012930D01*
X003843Y012930D01*
X003860Y012932D01*
X003877Y012936D01*
X003893Y012943D01*
X003907Y012953D01*
X003920Y012966D01*
X003930Y012980D01*
X003937Y012996D01*
X003941Y013013D01*
X003943Y013030D01*
X003943Y014730D01*
X003941Y014747D01*
X003937Y014764D01*
X003930Y014780D01*
X003920Y014794D01*
X003907Y014807D01*
X003893Y014817D01*
X003877Y014824D01*
X003860Y014828D01*
X003843Y014830D01*
X003043Y014830D01*
X003026Y014828D01*
X003009Y014824D01*
X002993Y014817D01*
X002979Y014807D01*
X002966Y014794D01*
X002956Y014780D01*
X002949Y014764D01*
X002945Y014747D01*
X002943Y014730D01*
X003443Y014030D02*
X003443Y013980D01*
X003443Y013780D02*
X003443Y013730D01*
X001805Y013780D02*
X001805Y013830D01*
X001805Y014030D02*
X001805Y014080D01*
X001330Y011918D02*
X003030Y011918D01*
X003047Y011916D01*
X003064Y011912D01*
X003080Y011905D01*
X003094Y011895D01*
X003107Y011882D01*
X003117Y011868D01*
X003124Y011852D01*
X003128Y011835D01*
X003130Y011818D01*
X003130Y011018D01*
X003128Y011001D01*
X003124Y010984D01*
X003117Y010968D01*
X003107Y010954D01*
X003094Y010941D01*
X003080Y010931D01*
X003064Y010924D01*
X003047Y010920D01*
X003030Y010918D01*
X001330Y010918D01*
X001313Y010920D01*
X001296Y010924D01*
X001280Y010931D01*
X001266Y010941D01*
X001253Y010954D01*
X001243Y010968D01*
X001236Y010984D01*
X001232Y011001D01*
X001230Y011018D01*
X001230Y011818D01*
X001232Y011835D01*
X001236Y011852D01*
X001243Y011868D01*
X001253Y011882D01*
X001266Y011895D01*
X001280Y011905D01*
X001296Y011912D01*
X001313Y011916D01*
X001330Y011918D01*
X002030Y011418D02*
X002080Y011418D01*
X002280Y011418D02*
X002330Y011418D01*
X002555Y009680D02*
X003055Y009680D01*
X003305Y009430D01*
X003305Y008930D01*
X003055Y008680D01*
X002555Y008680D01*
X002305Y008930D01*
X002055Y008680D01*
X001555Y008680D01*
X001305Y008930D01*
X001305Y009430D01*
X001555Y009680D01*
X002055Y009680D01*
X002305Y009430D01*
X002555Y009680D01*
X002305Y009430D02*
X002305Y008930D01*
X002068Y006705D02*
X001568Y006705D01*
X001318Y006455D01*
X001318Y005955D01*
X001568Y005705D01*
X002068Y005705D01*
X002318Y005955D01*
X002318Y006455D01*
X002068Y006705D01*
X006730Y007780D02*
X006730Y008580D01*
X006732Y008597D01*
X006736Y008614D01*
X006743Y008630D01*
X006753Y008644D01*
X006766Y008657D01*
X006780Y008667D01*
X006796Y008674D01*
X006813Y008678D01*
X006830Y008680D01*
X008530Y008680D01*
X008547Y008678D01*
X008564Y008674D01*
X008580Y008667D01*
X008594Y008657D01*
X008607Y008644D01*
X008617Y008630D01*
X008624Y008614D01*
X008628Y008597D01*
X008630Y008580D01*
X008630Y007780D01*
X008628Y007763D01*
X008624Y007746D01*
X008617Y007730D01*
X008607Y007716D01*
X008594Y007703D01*
X008580Y007693D01*
X008564Y007686D01*
X008547Y007682D01*
X008530Y007680D01*
X006830Y007680D01*
X006813Y007682D01*
X006796Y007686D01*
X006780Y007693D01*
X006766Y007703D01*
X006753Y007716D01*
X006743Y007730D01*
X006736Y007746D01*
X006732Y007763D01*
X006730Y007780D01*
X007530Y008180D02*
X007580Y008180D01*
X007780Y008180D02*
X007830Y008180D01*
X010268Y008580D02*
X010268Y007780D01*
X010270Y007763D01*
X010274Y007746D01*
X010281Y007730D01*
X010291Y007716D01*
X010304Y007703D01*
X010318Y007693D01*
X010334Y007686D01*
X010351Y007682D01*
X010368Y007680D01*
X012068Y007680D01*
X012085Y007682D01*
X012102Y007686D01*
X012118Y007693D01*
X012132Y007703D01*
X012145Y007716D01*
X012155Y007730D01*
X012162Y007746D01*
X012166Y007763D01*
X012168Y007780D01*
X012168Y008580D01*
X012166Y008597D01*
X012162Y008614D01*
X012155Y008630D01*
X012145Y008644D01*
X012132Y008657D01*
X012118Y008667D01*
X012102Y008674D01*
X012085Y008678D01*
X012068Y008680D01*
X010368Y008680D01*
X010351Y008678D01*
X010334Y008674D01*
X010318Y008667D01*
X010304Y008657D01*
X010291Y008644D01*
X010281Y008630D01*
X010274Y008614D01*
X010270Y008597D01*
X010268Y008580D01*
X011068Y008180D02*
X011118Y008180D01*
X011318Y008180D02*
X011368Y008180D01*
X014343Y009455D02*
X014343Y009955D01*
X014593Y010205D01*
X015093Y010205D01*
X015343Y009955D01*
X015343Y009455D01*
X015093Y009205D01*
X014593Y009205D01*
X014343Y009455D01*
X015618Y009305D02*
X015618Y011005D01*
X015620Y011022D01*
X015624Y011039D01*
X015631Y011055D01*
X015641Y011069D01*
X015654Y011082D01*
X015668Y011092D01*
X015684Y011099D01*
X015701Y011103D01*
X015718Y011105D01*
X016518Y011105D01*
X016535Y011103D01*
X016552Y011099D01*
X016568Y011092D01*
X016582Y011082D01*
X016595Y011069D01*
X016605Y011055D01*
X016612Y011039D01*
X016616Y011022D01*
X016618Y011005D01*
X016618Y009305D01*
X016616Y009288D01*
X016612Y009271D01*
X016605Y009255D01*
X016595Y009241D01*
X016582Y009228D01*
X016568Y009218D01*
X016552Y009211D01*
X016535Y009207D01*
X016518Y009205D01*
X015718Y009205D01*
X015701Y009207D01*
X015684Y009211D01*
X015668Y009218D01*
X015654Y009228D01*
X015641Y009241D01*
X015631Y009255D01*
X015624Y009271D01*
X015620Y009288D01*
X015618Y009305D01*
X016118Y010005D02*
X016118Y010055D01*
X016118Y010255D02*
X016118Y010305D01*
X009430Y002680D02*
X009680Y002430D01*
X009680Y001930D01*
X009430Y001680D01*
X008930Y001680D01*
X008680Y001930D01*
X008430Y001680D01*
X007930Y001680D01*
X007680Y001930D01*
X007430Y001680D01*
X006930Y001680D01*
X006680Y001930D01*
X006430Y001680D01*
X005930Y001680D01*
X005680Y001930D01*
X005430Y001680D01*
X004930Y001680D01*
X004680Y001930D01*
X004430Y001680D01*
X003930Y001680D01*
X003680Y001930D01*
X003430Y001680D01*
X002930Y001680D01*
X002680Y001930D01*
X002430Y001680D01*
X001930Y001680D01*
X001680Y001930D01*
X001680Y002430D01*
X001930Y002680D01*
X002430Y002680D01*
X002680Y002430D01*
X002930Y002680D01*
X003430Y002680D01*
X003680Y002430D01*
X003680Y001930D01*
X004680Y001930D02*
X004680Y002430D01*
X004930Y002680D01*
X005430Y002680D01*
X005680Y002430D01*
X005930Y002680D01*
X006430Y002680D01*
X006680Y002430D01*
X006680Y001930D01*
X007680Y001930D02*
X007680Y002430D01*
X007930Y002680D01*
X008430Y002680D01*
X008680Y002430D01*
X008930Y002680D01*
X009430Y002680D01*
X008680Y002430D02*
X008680Y001930D01*
X007680Y002430D02*
X007430Y002680D01*
X006930Y002680D01*
X006680Y002430D01*
X005680Y002430D02*
X005680Y001930D01*
X004680Y002430D02*
X004430Y002680D01*
X003930Y002680D01*
X003680Y002430D01*
X002680Y002430D02*
X002680Y001930D01*
X001461Y001851D02*
X001461Y001210D01*
X001248Y001210D02*
X001675Y001210D01*
X001248Y001637D02*
X001461Y001851D01*
X001930Y021805D02*
X001680Y022055D01*
X001680Y022555D01*
X001930Y022805D01*
X001680Y023055D01*
X001680Y023555D01*
X001930Y023805D01*
X001680Y024055D01*
X001680Y024555D01*
X001930Y024805D01*
X001680Y025055D01*
X001680Y025555D01*
X001930Y025805D01*
X001680Y026055D01*
X001680Y026555D01*
X001930Y026805D01*
X001680Y027055D01*
X001680Y027555D01*
X001930Y027805D01*
X001680Y028055D01*
X001680Y028555D01*
X001930Y028805D01*
X001680Y029055D01*
X001680Y029555D01*
X001930Y029805D01*
X002430Y029805D01*
X002680Y029555D01*
X002680Y029055D01*
X002430Y028805D01*
X002680Y028555D01*
X002680Y028055D01*
X002430Y027805D01*
X001930Y027805D01*
X002430Y027805D02*
X002680Y027555D01*
X002680Y027055D01*
X002430Y026805D01*
X002680Y026555D01*
X002680Y026055D01*
X002430Y025805D01*
X002680Y025555D01*
X002680Y025055D01*
X002430Y024805D01*
X001930Y024805D01*
X002430Y024805D02*
X002680Y024555D01*
X002680Y024055D01*
X002430Y023805D01*
X002680Y023555D01*
X002680Y023055D01*
X002430Y022805D01*
X002680Y022555D01*
X002680Y022055D01*
X002430Y021805D01*
X001930Y021805D01*
X001930Y022805D02*
X002430Y022805D01*
X002430Y023805D02*
X001930Y023805D01*
X001930Y025805D02*
X002430Y025805D01*
X002430Y026805D02*
X001930Y026805D01*
X001930Y028805D02*
X002430Y028805D01*
X001400Y029173D02*
X001400Y029600D01*
X001400Y029386D02*
X000759Y029386D01*
X000973Y029173D01*
X001930Y030430D02*
X001680Y030680D01*
X001680Y031180D01*
X001930Y031430D01*
X001680Y031680D01*
X001680Y032180D01*
X001930Y032430D01*
X002430Y032430D01*
X002680Y032180D01*
X002680Y031680D01*
X002430Y031430D01*
X002680Y031180D01*
X002680Y030680D01*
X002430Y030430D01*
X001930Y030430D01*
X001930Y031430D02*
X002430Y031430D01*
X002430Y032430D02*
X002680Y032680D01*
X002680Y033180D01*
X002430Y033430D01*
X002680Y033680D01*
X002680Y034180D01*
X002430Y034430D01*
X001930Y034430D01*
X001680Y034180D01*
X001680Y033680D01*
X001930Y033430D01*
X002430Y033430D01*
X001930Y033430D02*
X001680Y033180D01*
X001680Y032680D01*
X001930Y032430D01*
X002567Y034398D02*
X002780Y034398D01*
X002887Y034504D01*
X002887Y034718D01*
X002674Y034718D01*
X002887Y034931D02*
X002780Y035038D01*
X002567Y035038D01*
X002460Y034931D01*
X002460Y034504D01*
X002567Y034398D01*
X003105Y034398D02*
X003105Y035038D01*
X003532Y034398D01*
X003532Y035038D01*
X003749Y035038D02*
X004069Y035038D01*
X004176Y034931D01*
X004176Y034504D01*
X004069Y034398D01*
X003749Y034398D01*
X003749Y035038D01*
X005818Y036693D02*
X005820Y036756D01*
X005826Y036818D01*
X005836Y036880D01*
X005849Y036942D01*
X005867Y037002D01*
X005888Y037061D01*
X005913Y037119D01*
X005942Y037175D01*
X005974Y037229D01*
X006009Y037281D01*
X006047Y037330D01*
X006089Y037378D01*
X006133Y037422D01*
X006181Y037464D01*
X006230Y037502D01*
X006282Y037537D01*
X006336Y037569D01*
X006392Y037598D01*
X006450Y037623D01*
X006509Y037644D01*
X006569Y037662D01*
X006631Y037675D01*
X006693Y037685D01*
X006755Y037691D01*
X006818Y037693D01*
X006881Y037691D01*
X006943Y037685D01*
X007005Y037675D01*
X007067Y037662D01*
X007127Y037644D01*
X007186Y037623D01*
X007244Y037598D01*
X007300Y037569D01*
X007354Y037537D01*
X007406Y037502D01*
X007455Y037464D01*
X007503Y037422D01*
X007547Y037378D01*
X007589Y037330D01*
X007627Y037281D01*
X007662Y037229D01*
X007694Y037175D01*
X007723Y037119D01*
X007748Y037061D01*
X007769Y037002D01*
X007787Y036942D01*
X007800Y036880D01*
X007810Y036818D01*
X007816Y036756D01*
X007818Y036693D01*
X007816Y036630D01*
X007810Y036568D01*
X007800Y036506D01*
X007787Y036444D01*
X007769Y036384D01*
X007748Y036325D01*
X007723Y036267D01*
X007694Y036211D01*
X007662Y036157D01*
X007627Y036105D01*
X007589Y036056D01*
X007547Y036008D01*
X007503Y035964D01*
X007455Y035922D01*
X007406Y035884D01*
X007354Y035849D01*
X007300Y035817D01*
X007244Y035788D01*
X007186Y035763D01*
X007127Y035742D01*
X007067Y035724D01*
X007005Y035711D01*
X006943Y035701D01*
X006881Y035695D01*
X006818Y035693D01*
X006755Y035695D01*
X006693Y035701D01*
X006631Y035711D01*
X006569Y035724D01*
X006509Y035742D01*
X006450Y035763D01*
X006392Y035788D01*
X006336Y035817D01*
X006282Y035849D01*
X006230Y035884D01*
X006181Y035922D01*
X006133Y035964D01*
X006089Y036008D01*
X006047Y036056D01*
X006009Y036105D01*
X005974Y036157D01*
X005942Y036211D01*
X005913Y036267D01*
X005888Y036325D01*
X005867Y036384D01*
X005849Y036444D01*
X005836Y036506D01*
X005826Y036568D01*
X005820Y036630D01*
X005818Y036693D01*
X012680Y033980D02*
X012680Y033380D01*
X012682Y033363D01*
X012686Y033346D01*
X012693Y033330D01*
X012703Y033316D01*
X012716Y033303D01*
X012730Y033293D01*
X012746Y033286D01*
X012763Y033282D01*
X012780Y033280D01*
X012930Y033280D01*
X012980Y033330D01*
X014380Y033330D01*
X014430Y033280D01*
X014580Y033280D01*
X014597Y033282D01*
X014614Y033286D01*
X014630Y033293D01*
X014644Y033303D01*
X014657Y033316D01*
X014667Y033330D01*
X014674Y033346D01*
X014678Y033363D01*
X014680Y033380D01*
X014680Y033980D01*
X014678Y033997D01*
X014674Y034014D01*
X014667Y034030D01*
X014657Y034044D01*
X014644Y034057D01*
X014630Y034067D01*
X014614Y034074D01*
X014597Y034078D01*
X014580Y034080D01*
X014430Y034080D01*
X014380Y034030D01*
X012980Y034030D01*
X012930Y034080D01*
X012780Y034080D01*
X012763Y034078D01*
X012746Y034074D01*
X012730Y034067D01*
X012716Y034057D01*
X012703Y034044D01*
X012693Y034030D01*
X012686Y034014D01*
X012682Y033997D01*
X012680Y033980D01*
X017680Y033830D02*
X017680Y033080D01*
X017719Y033078D01*
X017758Y033072D01*
X017796Y033063D01*
X017833Y033050D01*
X017869Y033033D01*
X017902Y033013D01*
X017934Y032989D01*
X017963Y032963D01*
X017989Y032934D01*
X018013Y032902D01*
X018033Y032869D01*
X018050Y032833D01*
X018063Y032796D01*
X018072Y032758D01*
X018078Y032719D01*
X018080Y032680D01*
X018078Y032641D01*
X018072Y032602D01*
X018063Y032564D01*
X018050Y032527D01*
X018033Y032491D01*
X018013Y032458D01*
X017989Y032426D01*
X017963Y032397D01*
X017934Y032371D01*
X017902Y032347D01*
X017869Y032327D01*
X017833Y032310D01*
X017796Y032297D01*
X017758Y032288D01*
X017719Y032282D01*
X017680Y032280D01*
X017680Y031530D01*
X024680Y031530D01*
X024680Y033830D01*
X017680Y033830D01*
X058273Y033162D02*
X058486Y033376D01*
X058486Y032735D01*
X058273Y032735D02*
X058700Y032735D01*
D12*
X056833Y030096D02*
X056910Y030020D01*
X056910Y029789D01*
X056450Y029789D01*
X056450Y030020D01*
X056526Y030096D01*
X056603Y030096D01*
X056680Y030020D01*
X056680Y029789D01*
X056680Y029636D02*
X056680Y029483D01*
X056680Y029636D02*
X056833Y029636D01*
X056910Y029559D01*
X056910Y029406D01*
X056833Y029329D01*
X056526Y029329D01*
X056450Y029406D01*
X056450Y029559D01*
X056526Y029636D01*
X056680Y030020D02*
X056757Y030096D01*
X056833Y030096D01*
X056910Y029176D02*
X056757Y029022D01*
X056757Y029099D02*
X056757Y028869D01*
X056910Y028869D02*
X056450Y028869D01*
X056450Y029099D01*
X056526Y029176D01*
X056680Y029176D01*
X056757Y029099D01*
X056833Y028715D02*
X056680Y028715D01*
X056680Y028562D01*
X056833Y028715D02*
X056910Y028638D01*
X056910Y028485D01*
X056833Y028408D01*
X056526Y028408D01*
X056450Y028485D01*
X056450Y028638D01*
X056526Y028715D01*
X056450Y028255D02*
X056910Y028255D01*
X056680Y028255D02*
X056680Y027948D01*
X056757Y027794D02*
X056450Y027794D01*
X056450Y027948D02*
X056910Y027948D01*
X056757Y027794D02*
X056910Y027641D01*
X056757Y027488D01*
X056450Y027488D01*
X050002Y028570D02*
X049695Y028570D01*
X049925Y028800D01*
X049925Y028340D01*
X049388Y028570D02*
X049234Y028570D01*
X049081Y028647D02*
X049081Y028723D01*
X049004Y028800D01*
X048851Y028800D01*
X048774Y028723D01*
X048620Y028723D02*
X048544Y028800D01*
X048390Y028800D01*
X048313Y028723D01*
X048160Y028800D02*
X048160Y028340D01*
X048313Y028417D02*
X048390Y028340D01*
X048544Y028340D01*
X048620Y028417D01*
X048620Y028493D01*
X048544Y028570D01*
X048467Y028570D01*
X048544Y028570D02*
X048620Y028647D01*
X048620Y028723D01*
X048774Y028340D02*
X049081Y028647D01*
X049234Y028800D02*
X049234Y028340D01*
X049081Y028340D02*
X048774Y028340D01*
X049234Y028800D02*
X049541Y028800D01*
X048160Y028800D02*
X048007Y028647D01*
X047853Y028800D01*
X047853Y028340D01*
X047546Y028340D02*
X047546Y028800D01*
X047393Y028800D02*
X047700Y028800D01*
X047239Y028723D02*
X047162Y028800D01*
X047009Y028800D01*
X046932Y028723D01*
X046932Y028647D01*
X047009Y028570D01*
X047162Y028570D01*
X047239Y028493D01*
X047239Y028417D01*
X047162Y028340D01*
X047009Y028340D01*
X046932Y028417D01*
X016560Y022016D02*
X016560Y021899D01*
X016502Y021841D01*
X016560Y021715D02*
X016560Y021482D01*
X016560Y021599D02*
X016210Y021599D01*
X016326Y021482D01*
X016268Y021356D02*
X016385Y021356D01*
X016443Y021298D01*
X016443Y021123D01*
X016443Y021239D02*
X016560Y021356D01*
X016560Y021123D02*
X016210Y021123D01*
X016210Y021298D01*
X016268Y021356D01*
X016268Y021841D02*
X016210Y021899D01*
X016210Y022016D01*
X016268Y022074D01*
X016326Y022074D01*
X016385Y022016D01*
X016443Y022074D01*
X016502Y022074D01*
X016560Y022016D01*
X016385Y022016D02*
X016385Y021958D01*
X012402Y022768D02*
X012343Y022710D01*
X012227Y022710D01*
X012168Y022768D01*
X012043Y022710D02*
X011809Y022710D01*
X012043Y022944D01*
X012043Y023002D01*
X011984Y023060D01*
X011867Y023060D01*
X011809Y023002D01*
X011684Y023002D02*
X011684Y022885D01*
X011625Y022827D01*
X011450Y022827D01*
X011567Y022827D02*
X011684Y022710D01*
X011450Y022710D02*
X011450Y023060D01*
X011625Y023060D01*
X011684Y023002D01*
X012168Y023002D02*
X012227Y023060D01*
X012343Y023060D01*
X012402Y023002D01*
X012402Y022944D01*
X012343Y022885D01*
X012402Y022827D01*
X012402Y022768D01*
X012343Y022885D02*
X012285Y022885D01*
X012402Y023710D02*
X012168Y023710D01*
X012402Y023944D01*
X012402Y024002D01*
X012343Y024060D01*
X012227Y024060D01*
X012168Y024002D01*
X012043Y024002D02*
X011984Y024060D01*
X011867Y024060D01*
X011809Y024002D01*
X011684Y024002D02*
X011684Y023885D01*
X011625Y023827D01*
X011450Y023827D01*
X011567Y023827D02*
X011684Y023710D01*
X011809Y023710D02*
X012043Y023944D01*
X012043Y024002D01*
X012043Y023710D02*
X011809Y023710D01*
X011684Y024002D02*
X011625Y024060D01*
X011450Y024060D01*
X011450Y023710D01*
X011450Y024710D02*
X011450Y025060D01*
X011625Y025060D01*
X011684Y025002D01*
X011684Y024885D01*
X011625Y024827D01*
X011450Y024827D01*
X011567Y024827D02*
X011684Y024710D01*
X011809Y024710D02*
X012043Y024944D01*
X012043Y025002D01*
X011984Y025060D01*
X011867Y025060D01*
X011809Y025002D01*
X011809Y024710D02*
X012043Y024710D01*
X012168Y024710D02*
X012402Y024710D01*
X012285Y024710D02*
X012285Y025060D01*
X012168Y024944D01*
X012227Y025710D02*
X012168Y025768D01*
X012402Y026002D01*
X012402Y025768D01*
X012343Y025710D01*
X012227Y025710D01*
X012168Y025768D02*
X012168Y026002D01*
X012227Y026060D01*
X012343Y026060D01*
X012402Y026002D01*
X012043Y026002D02*
X011984Y026060D01*
X011867Y026060D01*
X011809Y026002D01*
X011684Y026002D02*
X011684Y025885D01*
X011625Y025827D01*
X011450Y025827D01*
X011567Y025827D02*
X011684Y025710D01*
X011809Y025710D02*
X012043Y025944D01*
X012043Y026002D01*
X012043Y025710D02*
X011809Y025710D01*
X011684Y026002D02*
X011625Y026060D01*
X011450Y026060D01*
X011450Y025710D01*
X011450Y026710D02*
X011450Y027060D01*
X011625Y027060D01*
X011684Y027002D01*
X011684Y026885D01*
X011625Y026827D01*
X011450Y026827D01*
X011567Y026827D02*
X011684Y026710D01*
X011809Y026710D02*
X012043Y026710D01*
X011926Y026710D02*
X011926Y027060D01*
X011809Y026944D01*
X012168Y026885D02*
X012402Y026885D01*
X012343Y026710D02*
X012343Y027060D01*
X012168Y026885D01*
X014800Y026093D02*
X014800Y025977D01*
X014858Y025918D01*
X014800Y026093D02*
X014858Y026152D01*
X014916Y026152D01*
X015150Y025918D01*
X015150Y026152D01*
X015150Y025793D02*
X015150Y025559D01*
X015150Y025676D02*
X014800Y025676D01*
X014916Y025559D01*
X014858Y025434D02*
X014975Y025434D01*
X015033Y025375D01*
X015033Y025200D01*
X015033Y025317D02*
X015150Y025434D01*
X015150Y025200D02*
X014800Y025200D01*
X014800Y025375D01*
X014858Y025434D01*
X004793Y026127D02*
X004559Y025893D01*
X004559Y025835D01*
X004434Y025835D02*
X004317Y025952D01*
X004375Y025952D02*
X004200Y025952D01*
X004200Y025835D02*
X004200Y026185D01*
X004375Y026185D01*
X004434Y026127D01*
X004434Y026010D01*
X004375Y025952D01*
X004559Y026185D02*
X004793Y026185D01*
X004793Y026127D01*
X004734Y026835D02*
X004617Y026835D01*
X004559Y026893D01*
X004559Y026952D01*
X004617Y027010D01*
X004734Y027010D01*
X004793Y026952D01*
X004793Y026893D01*
X004734Y026835D01*
X004734Y027010D02*
X004793Y027069D01*
X004793Y027127D01*
X004734Y027185D01*
X004617Y027185D01*
X004559Y027127D01*
X004559Y027069D01*
X004617Y027010D01*
X004434Y027010D02*
X004375Y026952D01*
X004200Y026952D01*
X004317Y026952D02*
X004434Y026835D01*
X004434Y027010D02*
X004434Y027127D01*
X004375Y027185D01*
X004200Y027185D01*
X004200Y026835D01*
X004200Y027835D02*
X004200Y028185D01*
X004375Y028185D01*
X004434Y028127D01*
X004434Y028010D01*
X004375Y027952D01*
X004200Y027952D01*
X004317Y027952D02*
X004434Y027835D01*
X004559Y027893D02*
X004617Y027835D01*
X004734Y027835D01*
X004793Y027893D01*
X004793Y028127D01*
X004734Y028185D01*
X004617Y028185D01*
X004559Y028127D01*
X004559Y028069D01*
X004617Y028010D01*
X004793Y028010D01*
X004793Y028835D02*
X004559Y028835D01*
X004676Y028835D02*
X004676Y029185D01*
X004559Y029069D01*
X004434Y029127D02*
X004434Y029010D01*
X004375Y028952D01*
X004200Y028952D01*
X004317Y028952D02*
X004434Y028835D01*
X004200Y028835D02*
X004200Y029185D01*
X004375Y029185D01*
X004434Y029127D01*
X004918Y029127D02*
X004918Y028893D01*
X005152Y029127D01*
X005152Y028893D01*
X005093Y028835D01*
X004977Y028835D01*
X004918Y028893D01*
X004918Y029127D02*
X004977Y029185D01*
X005093Y029185D01*
X005152Y029127D01*
X005152Y029835D02*
X004918Y029835D01*
X005035Y029835D02*
X005035Y030185D01*
X004918Y030069D01*
X004793Y029835D02*
X004559Y029835D01*
X004676Y029835D02*
X004676Y030185D01*
X004559Y030069D01*
X004434Y030127D02*
X004434Y030010D01*
X004375Y029952D01*
X004200Y029952D01*
X004317Y029952D02*
X004434Y029835D01*
X004200Y029835D02*
X004200Y030185D01*
X004375Y030185D01*
X004434Y030127D01*
X005700Y034210D02*
X005700Y034560D01*
X005875Y034560D01*
X005934Y034502D01*
X005934Y034385D01*
X005875Y034327D01*
X005700Y034327D01*
X005817Y034327D02*
X005934Y034210D01*
X006059Y034268D02*
X006117Y034210D01*
X006234Y034210D01*
X006293Y034268D01*
X006293Y034327D01*
X006234Y034385D01*
X006176Y034385D01*
X006234Y034385D02*
X006293Y034444D01*
X006293Y034502D01*
X006234Y034560D01*
X006117Y034560D01*
X006059Y034502D01*
X009800Y035200D02*
X009800Y035375D01*
X009858Y035434D01*
X009975Y035434D01*
X010033Y035375D01*
X010033Y035200D01*
X010033Y035317D02*
X010150Y035434D01*
X010092Y035559D02*
X010150Y035617D01*
X010150Y035734D01*
X010092Y035793D01*
X010033Y035793D01*
X009975Y035734D01*
X009975Y035559D01*
X010092Y035559D01*
X009975Y035559D02*
X009858Y035676D01*
X009800Y035793D01*
X009800Y035200D02*
X010150Y035200D01*
X012700Y034560D02*
X012700Y034210D01*
X012700Y034327D02*
X012875Y034327D01*
X012934Y034385D01*
X012934Y034502D01*
X012875Y034560D01*
X012700Y034560D01*
X012817Y034327D02*
X012934Y034210D01*
X013059Y034210D02*
X013293Y034210D01*
X013176Y034210D02*
X013176Y034560D01*
X013059Y034444D01*
X003516Y016400D02*
X003341Y016225D01*
X003574Y016225D01*
X003516Y016050D02*
X003516Y016400D01*
X003215Y016342D02*
X003215Y016225D01*
X003157Y016167D01*
X002982Y016167D01*
X003099Y016167D02*
X003215Y016050D01*
X002982Y016050D02*
X002982Y016400D01*
X003157Y016400D01*
X003215Y016342D01*
X003157Y015150D02*
X003215Y015092D01*
X003215Y014975D01*
X003157Y014917D01*
X002982Y014917D01*
X003099Y014917D02*
X003215Y014800D01*
X003341Y014800D02*
X003574Y015034D01*
X003574Y015092D01*
X003516Y015150D01*
X003399Y015150D01*
X003341Y015092D01*
X003157Y015150D02*
X002982Y015150D01*
X002982Y014800D01*
X003341Y014800D02*
X003574Y014800D01*
X008200Y013410D02*
X008200Y012950D01*
X008507Y012950D01*
X008660Y012950D02*
X008967Y012950D01*
X009121Y013027D02*
X009198Y012950D01*
X009351Y012950D01*
X009428Y013027D01*
X009428Y013103D01*
X009351Y013180D01*
X009198Y013180D01*
X009121Y013257D01*
X009121Y013334D01*
X009198Y013410D01*
X009351Y013410D01*
X009428Y013334D01*
X009428Y013257D01*
X009351Y013180D01*
X009198Y013180D02*
X009121Y013103D01*
X009121Y013027D01*
X008967Y013334D02*
X008660Y013027D01*
X008660Y012950D01*
X008353Y013180D02*
X008200Y013180D01*
X008200Y013410D02*
X008507Y013410D01*
X008660Y013410D02*
X008967Y013410D01*
X008967Y013334D01*
X009581Y013334D02*
X009658Y013410D01*
X009811Y013410D01*
X009888Y013334D01*
X009581Y013027D01*
X009658Y012950D01*
X009811Y012950D01*
X009888Y013027D01*
X009888Y013334D01*
X010042Y013410D02*
X010042Y012950D01*
X010042Y013180D02*
X010195Y013180D01*
X010042Y013410D02*
X010348Y013410D01*
X010502Y013334D02*
X010579Y013410D01*
X010732Y013410D01*
X010809Y013334D01*
X010809Y013027D01*
X010732Y012950D01*
X010579Y012950D01*
X010502Y013027D01*
X010579Y013180D02*
X010809Y013180D01*
X010962Y013027D02*
X011039Y012950D01*
X011193Y012950D01*
X011269Y013027D01*
X011269Y013103D01*
X011193Y013180D01*
X011116Y013180D01*
X011193Y013180D02*
X011269Y013257D01*
X011269Y013334D01*
X011193Y013410D01*
X011039Y013410D01*
X010962Y013334D01*
X010579Y013180D02*
X010502Y013257D01*
X010502Y013334D01*
X009581Y013334D02*
X009581Y013027D01*
X003362Y007785D02*
X003362Y007325D01*
X003669Y007325D01*
X003209Y007402D02*
X003132Y007325D01*
X002979Y007325D01*
X002902Y007402D01*
X002902Y007709D01*
X002979Y007785D01*
X003132Y007785D01*
X003209Y007709D01*
X002748Y007709D02*
X002672Y007785D01*
X002518Y007785D01*
X002442Y007709D01*
X002442Y007632D01*
X002518Y007555D01*
X002672Y007555D01*
X002748Y007478D01*
X002748Y007402D01*
X002672Y007325D01*
X002518Y007325D01*
X002442Y007402D01*
X001828Y007325D02*
X001828Y007632D01*
X001674Y007785D01*
X001521Y007632D01*
X001521Y007325D01*
X001367Y007402D02*
X001367Y007709D01*
X001291Y007785D01*
X001060Y007785D01*
X001060Y007325D01*
X001291Y007325D01*
X001367Y007402D01*
X001521Y007555D02*
X001828Y007555D01*
X000907Y007478D02*
X000907Y007402D01*
X000830Y007325D01*
X000677Y007325D01*
X000600Y007402D01*
X000677Y007555D02*
X000830Y007555D01*
X000907Y007478D01*
X000907Y007709D02*
X000830Y007785D01*
X000677Y007785D01*
X000600Y007709D01*
X000600Y007632D01*
X000677Y007555D01*
X002513Y004985D02*
X002819Y004985D01*
X002819Y004909D01*
X002513Y004602D01*
X002513Y004525D01*
X002819Y004525D01*
X002973Y004525D02*
X003126Y004525D01*
X003050Y004525D02*
X003050Y004832D01*
X002973Y004832D01*
X003050Y004985D02*
X003050Y005062D01*
X003280Y004985D02*
X003280Y004525D01*
X003280Y004678D02*
X003510Y004832D01*
X003663Y004832D02*
X003970Y004832D01*
X003663Y004525D01*
X003970Y004525D01*
X004124Y004602D02*
X004201Y004678D01*
X004431Y004678D01*
X004431Y004755D02*
X004431Y004525D01*
X004201Y004525D01*
X004124Y004602D01*
X004201Y004832D02*
X004354Y004832D01*
X004431Y004755D01*
X004584Y004678D02*
X004814Y004832D01*
X004584Y004985D02*
X004584Y004525D01*
X004584Y004678D02*
X004814Y004525D01*
X004661Y004312D02*
X004661Y004235D01*
X004661Y004082D02*
X004661Y003775D01*
X004584Y003775D02*
X004738Y003775D01*
X004891Y003775D02*
X004891Y004235D01*
X004661Y004082D02*
X004584Y004082D01*
X004431Y004082D02*
X004124Y003775D01*
X004431Y003775D01*
X004431Y004082D02*
X004124Y004082D01*
X003970Y003852D02*
X003970Y003775D01*
X003894Y003775D01*
X003894Y003852D01*
X003970Y003852D01*
X003740Y003852D02*
X003740Y004082D01*
X003740Y003852D02*
X003663Y003775D01*
X003587Y003852D01*
X003510Y003775D01*
X003433Y003852D01*
X003433Y004082D01*
X003280Y004082D02*
X003280Y003852D01*
X003203Y003775D01*
X003126Y003852D01*
X003050Y003775D01*
X002973Y003852D01*
X002973Y004082D01*
X002819Y004082D02*
X002819Y003852D01*
X002743Y003775D01*
X002666Y003852D01*
X002589Y003775D01*
X002513Y003852D01*
X002513Y004082D01*
X003280Y004678D02*
X003510Y004525D01*
X004891Y003928D02*
X005121Y004082D01*
X005275Y004082D02*
X005582Y004082D01*
X005275Y003775D01*
X005582Y003775D01*
X005735Y003852D02*
X005812Y003928D01*
X006042Y003928D01*
X006042Y004005D02*
X006042Y003775D01*
X005812Y003775D01*
X005735Y003852D01*
X005812Y004082D02*
X005965Y004082D01*
X006042Y004005D01*
X006196Y003928D02*
X006426Y004082D01*
X006579Y003852D02*
X006656Y003852D01*
X006656Y003775D01*
X006579Y003775D01*
X006579Y003852D01*
X006426Y003775D02*
X006196Y003928D01*
X006196Y003775D02*
X006196Y004235D01*
X006809Y004005D02*
X006809Y003852D01*
X006886Y003775D01*
X007116Y003775D01*
X007270Y003852D02*
X007347Y003928D01*
X007577Y003928D01*
X007577Y004005D02*
X007577Y003775D01*
X007347Y003775D01*
X007270Y003852D01*
X007347Y004082D02*
X007500Y004082D01*
X007577Y004005D01*
X007588Y004044D02*
X007664Y003968D01*
X007818Y003968D01*
X007894Y003891D01*
X007894Y003814D01*
X007818Y003738D01*
X007664Y003738D01*
X007588Y003814D01*
X007588Y004044D02*
X007588Y004121D01*
X007664Y004198D01*
X007818Y004198D01*
X007894Y004121D01*
X008048Y004198D02*
X008278Y004198D01*
X008355Y004121D01*
X008355Y004044D01*
X008278Y003968D01*
X008048Y003968D01*
X008048Y003738D02*
X008048Y004198D01*
X008125Y004488D02*
X008048Y004564D01*
X008048Y004718D01*
X008125Y004794D01*
X008278Y004794D01*
X008355Y004718D01*
X008355Y004641D01*
X008048Y004641D01*
X008125Y004488D02*
X008278Y004488D01*
X008585Y004488D02*
X008585Y004871D01*
X008662Y004948D01*
X008662Y004718D02*
X008508Y004718D01*
X008815Y004718D02*
X008969Y004718D01*
X008892Y004871D02*
X008969Y004948D01*
X008892Y004871D02*
X008892Y004488D01*
X008738Y004198D02*
X008585Y004198D01*
X008508Y004121D01*
X008508Y003814D01*
X008585Y003738D01*
X008738Y003738D01*
X008815Y003814D01*
X008815Y004121D02*
X008738Y004198D01*
X008355Y003891D02*
X008355Y003814D01*
X008278Y003738D01*
X008048Y003738D01*
X008278Y003968D02*
X008355Y003891D01*
X009429Y003891D02*
X009583Y004044D01*
X009659Y004044D01*
X009813Y003968D02*
X009889Y004044D01*
X010043Y004044D01*
X010120Y003968D01*
X010120Y003891D01*
X009813Y003891D01*
X009813Y003814D02*
X009813Y003968D01*
X009813Y003814D02*
X009889Y003738D01*
X010043Y003738D01*
X010273Y004044D02*
X010427Y003738D01*
X010580Y004044D01*
X010503Y004488D02*
X010427Y004564D01*
X010427Y004871D01*
X010350Y004794D02*
X010503Y004794D01*
X010657Y004718D02*
X010657Y004564D01*
X010734Y004488D01*
X010964Y004488D01*
X011117Y004488D02*
X011117Y004948D01*
X011194Y004794D02*
X011347Y004794D01*
X011424Y004718D01*
X011424Y004488D01*
X011578Y004564D02*
X011578Y004718D01*
X011654Y004794D01*
X011808Y004794D01*
X011884Y004718D01*
X011884Y004641D01*
X011578Y004641D01*
X011578Y004564D02*
X011654Y004488D01*
X011808Y004488D01*
X012038Y004488D02*
X012191Y004488D01*
X012115Y004488D02*
X012115Y004948D01*
X012038Y004948D01*
X012345Y004948D02*
X012422Y004948D01*
X012422Y004488D01*
X012498Y004488D02*
X012345Y004488D01*
X012345Y004198D02*
X012422Y004121D01*
X012115Y003814D01*
X012191Y003738D01*
X012345Y003738D01*
X012422Y003814D01*
X012422Y004121D01*
X012345Y004198D02*
X012191Y004198D01*
X012115Y004121D01*
X012115Y003814D01*
X012575Y003814D02*
X012575Y003891D01*
X012652Y003968D01*
X012805Y003968D01*
X012882Y003891D01*
X012882Y003814D01*
X012805Y003738D01*
X012652Y003738D01*
X012575Y003814D01*
X012652Y003968D02*
X012575Y004044D01*
X012575Y004121D01*
X012652Y004198D01*
X012805Y004198D01*
X012882Y004121D01*
X012882Y004044D01*
X012805Y003968D01*
X013035Y003968D02*
X013342Y003968D01*
X013496Y004121D02*
X013573Y004198D01*
X013726Y004198D01*
X013803Y004121D01*
X013803Y004044D01*
X013496Y003738D01*
X013803Y003738D01*
X013956Y003814D02*
X014263Y004121D01*
X014263Y003814D01*
X014186Y003738D01*
X014033Y003738D01*
X013956Y003814D01*
X013956Y004121D01*
X014033Y004198D01*
X014186Y004198D01*
X014263Y004121D01*
X014417Y004044D02*
X014570Y004198D01*
X014570Y003738D01*
X014417Y003738D02*
X014724Y003738D01*
X014877Y003968D02*
X015184Y003968D01*
X015200Y003853D02*
X015430Y003853D01*
X015507Y003930D01*
X015507Y004084D01*
X015430Y004160D01*
X015200Y004160D01*
X015200Y003700D01*
X015107Y003738D02*
X015107Y004198D01*
X014877Y003968D01*
X015660Y003930D02*
X015967Y003930D01*
X015967Y004007D02*
X015967Y003700D01*
X015660Y003700D02*
X015660Y004007D01*
X015814Y004160D01*
X015967Y004007D01*
X011501Y003738D02*
X011194Y003738D01*
X011347Y003738D02*
X011347Y004198D01*
X011194Y004044D01*
X011117Y004718D02*
X011194Y004794D01*
X010964Y004794D02*
X010734Y004794D01*
X010657Y004718D01*
X010196Y004488D02*
X010043Y004488D01*
X010120Y004488D02*
X010120Y004794D01*
X010043Y004794D01*
X010120Y004948D02*
X010120Y005025D01*
X009889Y004948D02*
X009889Y004488D01*
X009583Y004488D02*
X009583Y004948D01*
X009736Y004794D01*
X009889Y004948D01*
X009429Y004044D02*
X009429Y003738D01*
X007818Y004564D02*
X007818Y004948D01*
X007894Y004948D02*
X007741Y004948D01*
X007818Y004564D02*
X007741Y004488D01*
X007664Y004488D01*
X007588Y004564D01*
X007116Y004082D02*
X006886Y004082D01*
X006809Y004005D01*
X005121Y003775D02*
X004891Y003928D01*
X015200Y001160D02*
X015200Y000700D01*
X015200Y000853D02*
X015430Y000853D01*
X015507Y000930D01*
X015507Y001084D01*
X015430Y001160D01*
X015200Y001160D01*
X015660Y001007D02*
X015814Y001160D01*
X015814Y000700D01*
X015967Y000700D02*
X015660Y000700D01*
X021700Y000700D02*
X021700Y001160D01*
X021930Y001160D01*
X022007Y001084D01*
X022007Y000930D01*
X021930Y000853D01*
X021700Y000853D01*
X022160Y000777D02*
X022237Y000700D01*
X022391Y000700D01*
X022467Y000777D01*
X022467Y000930D01*
X022391Y001007D01*
X022314Y001007D01*
X022160Y000930D01*
X022160Y001160D01*
X022467Y001160D01*
X029200Y001160D02*
X029200Y000700D01*
X029200Y000853D02*
X029430Y000853D01*
X029507Y000930D01*
X029507Y001084D01*
X029430Y001160D01*
X029200Y001160D01*
X029660Y001007D02*
X029814Y001160D01*
X029814Y000700D01*
X029967Y000700D02*
X029660Y000700D01*
X030121Y000777D02*
X030121Y001084D01*
X030198Y001160D01*
X030351Y001160D01*
X030428Y001084D01*
X030121Y000777D01*
X030198Y000700D01*
X030351Y000700D01*
X030428Y000777D01*
X030428Y001084D01*
X035700Y001160D02*
X035700Y000700D01*
X035700Y000853D02*
X035930Y000853D01*
X036007Y000930D01*
X036007Y001084D01*
X035930Y001160D01*
X035700Y001160D01*
X036160Y001007D02*
X036314Y001160D01*
X036314Y000700D01*
X036467Y000700D02*
X036160Y000700D01*
X036621Y000930D02*
X036928Y000930D01*
X036851Y000700D02*
X036851Y001160D01*
X036621Y000930D01*
X041700Y000853D02*
X041930Y000853D01*
X042007Y000930D01*
X042007Y001084D01*
X041930Y001160D01*
X041700Y001160D01*
X041700Y000700D01*
X042160Y000700D02*
X042467Y000700D01*
X042314Y000700D02*
X042314Y001160D01*
X042160Y001007D01*
X042621Y001007D02*
X042621Y001084D01*
X042698Y001160D01*
X042851Y001160D01*
X042928Y001084D01*
X042928Y001007D01*
X042851Y000930D01*
X042698Y000930D01*
X042621Y001007D01*
X042698Y000930D02*
X042621Y000853D01*
X042621Y000777D01*
X042698Y000700D01*
X042851Y000700D01*
X042928Y000777D01*
X042928Y000853D01*
X042851Y000930D01*
X042467Y003700D02*
X042314Y003853D01*
X042391Y003853D02*
X042160Y003853D01*
X042160Y003700D02*
X042160Y004160D01*
X042391Y004160D01*
X042467Y004084D01*
X042467Y003930D01*
X042391Y003853D01*
X042007Y003930D02*
X042007Y004084D01*
X041930Y004160D01*
X041700Y004160D01*
X041700Y003700D01*
X041700Y003853D02*
X041930Y003853D01*
X042007Y003930D01*
X041593Y005710D02*
X041477Y005710D01*
X041418Y005768D01*
X041293Y005768D02*
X041234Y005710D01*
X041117Y005710D01*
X041059Y005768D01*
X040934Y005710D02*
X040817Y005827D01*
X040875Y005827D02*
X040700Y005827D01*
X040700Y005710D02*
X040700Y006060D01*
X040875Y006060D01*
X040934Y006002D01*
X040934Y005885D01*
X040875Y005827D01*
X041059Y006002D02*
X041117Y006060D01*
X041234Y006060D01*
X041293Y006002D01*
X041293Y005944D01*
X041234Y005885D01*
X041293Y005827D01*
X041293Y005768D01*
X041234Y005885D02*
X041176Y005885D01*
X041418Y006002D02*
X041477Y006060D01*
X041593Y006060D01*
X041652Y006002D01*
X041652Y005944D01*
X041593Y005885D01*
X041652Y005827D01*
X041652Y005768D01*
X041593Y005710D01*
X041593Y005885D02*
X041535Y005885D01*
X045623Y004650D02*
X045623Y004300D01*
X045623Y004417D02*
X045798Y004417D01*
X045856Y004475D01*
X045856Y004592D01*
X045798Y004650D01*
X045623Y004650D01*
X045739Y004417D02*
X045856Y004300D01*
X045982Y004300D02*
X046215Y004300D01*
X046099Y004300D02*
X046099Y004650D01*
X045982Y004534D01*
X046341Y004475D02*
X046458Y004534D01*
X046516Y004534D01*
X046574Y004475D01*
X046574Y004358D01*
X046516Y004300D01*
X046399Y004300D01*
X046341Y004358D01*
X046341Y004475D02*
X046341Y004650D01*
X046574Y004650D01*
D13*
X047180Y004180D02*
X044180Y004180D01*
X044180Y000680D01*
X047180Y000680D01*
X047180Y004180D01*
X049675Y002875D02*
X049675Y002425D01*
X049675Y002575D02*
X049900Y002575D01*
X049975Y002650D01*
X049975Y002800D01*
X049900Y002875D01*
X049675Y002875D01*
X050135Y002800D02*
X050135Y002725D01*
X050210Y002650D01*
X050361Y002650D01*
X050436Y002575D01*
X050436Y002500D01*
X050361Y002425D01*
X050210Y002425D01*
X050135Y002500D01*
X050135Y002800D02*
X050210Y002875D01*
X050361Y002875D01*
X050436Y002800D01*
X050596Y002800D02*
X050671Y002875D01*
X050821Y002875D01*
X050896Y002800D01*
X050896Y002725D01*
X050596Y002425D01*
X050896Y002425D01*
X051056Y002425D02*
X051056Y002875D01*
X051131Y002650D02*
X051356Y002425D01*
X051517Y002425D02*
X051817Y002425D01*
X051667Y002650D02*
X051517Y002650D01*
X051517Y002875D02*
X051517Y002425D01*
X051517Y002875D02*
X051817Y002875D01*
X051977Y002875D02*
X051977Y002800D01*
X052127Y002650D01*
X052127Y002425D01*
X052127Y002650D02*
X052277Y002800D01*
X052277Y002875D01*
X052437Y002875D02*
X052663Y002875D01*
X052738Y002800D01*
X052738Y002725D01*
X052663Y002650D01*
X052437Y002650D01*
X052437Y002425D02*
X052663Y002425D01*
X052738Y002500D01*
X052738Y002575D01*
X052663Y002650D01*
X052437Y002425D02*
X052437Y002875D01*
X051356Y002875D02*
X051056Y002575D01*
X051171Y004925D02*
X051321Y004925D01*
X051396Y005000D01*
X051396Y005300D01*
X051321Y005375D01*
X051171Y005375D01*
X051096Y005300D01*
X051096Y005000D01*
X051171Y004925D01*
X050936Y005000D02*
X050936Y005150D01*
X050861Y005225D01*
X050786Y005225D01*
X050635Y005150D01*
X050635Y005375D01*
X050936Y005375D01*
X050936Y005000D02*
X050861Y004925D01*
X050710Y004925D01*
X050635Y005000D01*
X050475Y005150D02*
X050175Y005150D01*
X050325Y005300D02*
X050325Y005000D01*
X051556Y005000D02*
X051631Y004925D01*
X051781Y004925D01*
X051856Y005000D01*
X051856Y005375D01*
X052017Y005375D02*
X052317Y005375D01*
X052167Y005375D02*
X052167Y004925D01*
X052477Y004925D02*
X052777Y004925D01*
X052627Y004925D02*
X052627Y005375D01*
X052477Y005225D01*
X051556Y005375D02*
X051556Y005000D01*
X055175Y005150D02*
X055475Y005150D01*
X055325Y005300D02*
X055325Y005000D01*
X055635Y005000D02*
X055710Y004925D01*
X055861Y004925D01*
X055936Y005000D01*
X055936Y005075D01*
X055861Y005150D01*
X055786Y005150D01*
X055861Y005150D02*
X055936Y005225D01*
X055936Y005300D01*
X055861Y005375D01*
X055710Y005375D01*
X055635Y005300D01*
X056096Y005375D02*
X056096Y005075D01*
X056246Y004925D01*
X056396Y005075D01*
X056396Y005375D01*
X056556Y005300D02*
X056631Y005375D01*
X056781Y005375D01*
X056856Y005300D01*
X056856Y005225D01*
X056781Y005150D01*
X056856Y005075D01*
X056856Y005000D01*
X056781Y004925D01*
X056631Y004925D01*
X056556Y005000D01*
X056706Y005150D02*
X056781Y005150D01*
X057017Y005000D02*
X057092Y004925D01*
X057242Y004925D01*
X057317Y005000D01*
X057317Y005300D01*
X057242Y005375D01*
X057092Y005375D01*
X057017Y005300D01*
X057017Y005000D01*
X057477Y005000D02*
X057552Y004925D01*
X057702Y004925D01*
X057777Y005000D01*
X057777Y005375D01*
X057937Y005375D02*
X058238Y005375D01*
X058087Y005375D02*
X058087Y004925D01*
X058398Y004925D02*
X058698Y004925D01*
X058548Y004925D02*
X058548Y005375D01*
X058398Y005225D01*
X057477Y005375D02*
X057477Y005000D01*
X056935Y006675D02*
X056935Y006900D01*
X056860Y006975D01*
X056785Y006975D01*
X056710Y006900D01*
X056710Y006675D01*
X056935Y006675D02*
X056485Y006675D01*
X056485Y006900D01*
X056560Y006975D01*
X056635Y006975D01*
X056710Y006900D01*
X056860Y007135D02*
X056935Y007210D01*
X056935Y007361D01*
X056860Y007436D01*
X056560Y007436D01*
X056485Y007361D01*
X056485Y007210D01*
X056560Y007135D01*
X056860Y007135D01*
X056935Y007596D02*
X056935Y007821D01*
X056860Y007896D01*
X056785Y007896D01*
X056710Y007821D01*
X056710Y007596D01*
X056710Y007821D02*
X056635Y007896D01*
X056560Y007896D01*
X056485Y007821D01*
X056485Y007596D01*
X056935Y007596D01*
X056710Y008056D02*
X056710Y008356D01*
X056785Y008517D02*
X056785Y008742D01*
X056710Y008817D01*
X056560Y008817D01*
X056485Y008742D01*
X056485Y008517D01*
X056935Y008517D01*
X056935Y008977D02*
X056635Y008977D01*
X056485Y009127D01*
X056635Y009277D01*
X056935Y009277D01*
X056710Y009277D02*
X056710Y008977D01*
X052726Y009305D02*
X052426Y009305D01*
X052576Y009305D02*
X052576Y009755D01*
X052426Y009605D01*
X052266Y009605D02*
X052191Y009530D01*
X052266Y009455D01*
X052266Y009380D01*
X052191Y009305D01*
X052040Y009305D01*
X051965Y009380D01*
X051805Y009305D02*
X051655Y009455D01*
X051730Y009455D02*
X051505Y009455D01*
X051505Y009305D02*
X051505Y009755D01*
X051730Y009755D01*
X051805Y009680D01*
X051805Y009530D01*
X051730Y009455D01*
X051965Y009680D02*
X052040Y009755D01*
X052191Y009755D01*
X052266Y009680D01*
X052266Y009605D01*
X052191Y009530D02*
X052116Y009530D01*
X052191Y008255D02*
X052266Y008180D01*
X052266Y008105D01*
X052191Y008030D01*
X052266Y007955D01*
X052266Y007880D01*
X052191Y007805D01*
X052040Y007805D01*
X051965Y007880D01*
X051805Y007805D02*
X051655Y007955D01*
X051730Y007955D02*
X051505Y007955D01*
X051505Y007805D02*
X051505Y008255D01*
X051730Y008255D01*
X051805Y008180D01*
X051805Y008030D01*
X051730Y007955D01*
X051965Y008180D02*
X052040Y008255D01*
X052191Y008255D01*
X052191Y008030D02*
X052116Y008030D01*
X052426Y008180D02*
X052501Y008255D01*
X052651Y008255D01*
X052726Y008180D01*
X052726Y008105D01*
X052426Y007805D01*
X052726Y007805D01*
X047345Y007555D02*
X047045Y007555D01*
X047195Y007555D02*
X047195Y008005D01*
X047045Y007855D01*
X046884Y007930D02*
X046809Y008005D01*
X046584Y008005D01*
X046584Y007555D01*
X046809Y007555D01*
X046884Y007630D01*
X046884Y007930D01*
X046809Y006505D02*
X046584Y006505D01*
X046584Y006055D01*
X046809Y006055D01*
X046884Y006130D01*
X046884Y006430D01*
X046809Y006505D01*
X047045Y006430D02*
X047120Y006505D01*
X047270Y006505D01*
X047345Y006430D01*
X047345Y006355D01*
X047045Y006055D01*
X047345Y006055D01*
X044180Y004180D02*
X013680Y004180D01*
X013680Y000680D01*
X044180Y000680D01*
X038651Y007805D02*
X038651Y008255D01*
X038426Y008030D01*
X038726Y008030D01*
X038266Y008105D02*
X038266Y008180D01*
X038191Y008255D01*
X038040Y008255D01*
X037965Y008180D01*
X037805Y008180D02*
X037805Y008030D01*
X037730Y007955D01*
X037505Y007955D01*
X037505Y007805D02*
X037505Y008255D01*
X037730Y008255D01*
X037805Y008180D01*
X037655Y007955D02*
X037805Y007805D01*
X037965Y007805D02*
X038266Y008105D01*
X038266Y007805D02*
X037965Y007805D01*
X037965Y009305D02*
X038266Y009605D01*
X038266Y009680D01*
X038191Y009755D01*
X038040Y009755D01*
X037965Y009680D01*
X037805Y009680D02*
X037805Y009530D01*
X037730Y009455D01*
X037505Y009455D01*
X037505Y009305D02*
X037505Y009755D01*
X037730Y009755D01*
X037805Y009680D01*
X037655Y009455D02*
X037805Y009305D01*
X037965Y009305D02*
X038266Y009305D01*
X038426Y009380D02*
X038501Y009305D01*
X038651Y009305D01*
X038726Y009380D01*
X038726Y009530D01*
X038651Y009605D01*
X038576Y009605D01*
X038426Y009530D01*
X038426Y009755D01*
X038726Y009755D01*
X038651Y011805D02*
X038501Y011805D01*
X038426Y011880D01*
X038426Y011955D01*
X038501Y012030D01*
X038651Y012030D01*
X038726Y011955D01*
X038726Y011880D01*
X038651Y011805D01*
X038651Y012030D02*
X038726Y012105D01*
X038726Y012180D01*
X038651Y012255D01*
X038501Y012255D01*
X038426Y012180D01*
X038426Y012105D01*
X038501Y012030D01*
X038266Y011805D02*
X037965Y011805D01*
X038116Y011805D02*
X038116Y012255D01*
X037965Y012105D01*
X037805Y012030D02*
X037730Y011955D01*
X037505Y011955D01*
X037505Y011805D02*
X037505Y012255D01*
X037730Y012255D01*
X037805Y012180D01*
X037805Y012030D01*
X037655Y011955D02*
X037805Y011805D01*
X037805Y013305D02*
X037655Y013455D01*
X037730Y013455D02*
X037505Y013455D01*
X037505Y013305D02*
X037505Y013755D01*
X037730Y013755D01*
X037805Y013680D01*
X037805Y013530D01*
X037730Y013455D01*
X037965Y013305D02*
X038266Y013305D01*
X038116Y013305D02*
X038116Y013755D01*
X037965Y013605D01*
X038426Y013605D02*
X038501Y013530D01*
X038726Y013530D01*
X038726Y013380D02*
X038726Y013680D01*
X038651Y013755D01*
X038501Y013755D01*
X038426Y013680D01*
X038426Y013605D01*
X038426Y013380D02*
X038501Y013305D01*
X038651Y013305D01*
X038726Y013380D01*
X038651Y015805D02*
X038501Y015805D01*
X038426Y015880D01*
X038426Y016030D01*
X038651Y016030D01*
X038726Y015955D01*
X038726Y015880D01*
X038651Y015805D01*
X038426Y016030D02*
X038576Y016180D01*
X038726Y016255D01*
X038116Y016255D02*
X038116Y015805D01*
X038266Y015805D02*
X037965Y015805D01*
X037805Y015805D02*
X037655Y015955D01*
X037730Y015955D02*
X037505Y015955D01*
X037505Y015805D02*
X037505Y016255D01*
X037730Y016255D01*
X037805Y016180D01*
X037805Y016030D01*
X037730Y015955D01*
X037965Y016105D02*
X038116Y016255D01*
X038116Y017305D02*
X038116Y017755D01*
X037965Y017605D01*
X037805Y017530D02*
X037730Y017455D01*
X037505Y017455D01*
X037505Y017305D02*
X037505Y017755D01*
X037730Y017755D01*
X037805Y017680D01*
X037805Y017530D01*
X037655Y017455D02*
X037805Y017305D01*
X037965Y017305D02*
X038266Y017305D01*
X038426Y017305D02*
X038426Y017380D01*
X038726Y017680D01*
X038726Y017755D01*
X038426Y017755D01*
X038430Y020805D02*
X038505Y020880D01*
X038430Y020805D02*
X038280Y020805D01*
X038205Y020880D01*
X038205Y021180D01*
X038280Y021255D01*
X038430Y021255D01*
X038505Y021180D01*
X038665Y021105D02*
X038816Y021255D01*
X038816Y020805D01*
X038966Y020805D02*
X038665Y020805D01*
X039126Y020805D02*
X039426Y020805D01*
X039276Y020805D02*
X039276Y021255D01*
X039126Y021105D01*
X037505Y022280D02*
X037505Y022430D01*
X037430Y022505D01*
X037280Y022505D01*
X037280Y022355D01*
X037130Y022205D02*
X037430Y022205D01*
X037505Y022280D01*
X037130Y022205D02*
X037055Y022280D01*
X037055Y022430D01*
X037130Y022505D01*
X037055Y022665D02*
X037055Y022891D01*
X037130Y022966D01*
X037280Y022966D01*
X037355Y022891D01*
X037355Y022665D01*
X037505Y022665D02*
X037055Y022665D01*
X037055Y023126D02*
X037430Y023126D01*
X037505Y023201D01*
X037505Y023351D01*
X037430Y023426D01*
X037055Y023426D01*
X037130Y023586D02*
X037430Y023586D01*
X037505Y023661D01*
X037505Y023811D01*
X037430Y023886D01*
X037130Y023886D01*
X037055Y023811D01*
X037055Y023661D01*
X037130Y023586D01*
X037130Y024047D02*
X037205Y024047D01*
X037280Y024122D01*
X037280Y024272D01*
X037355Y024347D01*
X037430Y024347D01*
X037505Y024272D01*
X037505Y024122D01*
X037430Y024047D01*
X037130Y024047D02*
X037055Y024122D01*
X037055Y024272D01*
X037130Y024347D01*
X037130Y024507D02*
X037430Y024507D01*
X037505Y024582D01*
X037505Y024732D01*
X037430Y024807D01*
X037130Y024807D02*
X037055Y024732D01*
X037055Y024582D01*
X037130Y024507D01*
X038942Y026685D02*
X039092Y026835D01*
X039092Y027135D01*
X039252Y027135D02*
X039252Y026685D01*
X039477Y026685D01*
X039552Y026760D01*
X039552Y026835D01*
X039477Y026910D01*
X039252Y026910D01*
X039477Y026910D02*
X039552Y026985D01*
X039552Y027060D01*
X039477Y027135D01*
X039252Y027135D01*
X038791Y027135D02*
X038791Y026835D01*
X038942Y026685D01*
X039712Y026685D02*
X039712Y026985D01*
X039862Y027135D01*
X040013Y026985D01*
X040013Y026685D01*
X040013Y026910D02*
X039712Y026910D01*
X040173Y027135D02*
X040473Y027135D01*
X040323Y027135D02*
X040323Y026685D01*
X040633Y026685D02*
X040633Y027135D01*
X040858Y027135D01*
X040933Y027060D01*
X040933Y026910D01*
X040858Y026835D01*
X040633Y026835D01*
X041093Y026685D02*
X041244Y026835D01*
X041394Y026685D01*
X041394Y027135D01*
X041554Y027135D02*
X041779Y027135D01*
X041854Y027060D01*
X041854Y026910D01*
X041779Y026835D01*
X041554Y026835D01*
X041704Y026835D02*
X041854Y026685D01*
X042014Y026760D02*
X042089Y026685D01*
X042164Y026685D01*
X042239Y026760D01*
X042239Y027135D01*
X042164Y027135D02*
X042314Y027135D01*
X042475Y027135D02*
X042700Y027135D01*
X042775Y027060D01*
X042775Y026910D01*
X042700Y026835D01*
X042475Y026835D01*
X042475Y026685D02*
X042475Y027135D01*
X041554Y027135D02*
X041554Y026685D01*
X041093Y026685D02*
X041093Y027135D01*
X041399Y024955D02*
X041324Y024880D01*
X041324Y024580D01*
X041399Y024505D01*
X041549Y024505D01*
X041624Y024580D01*
X041784Y024505D02*
X042084Y024805D01*
X042084Y024880D01*
X042009Y024955D01*
X041859Y024955D01*
X041784Y024880D01*
X041624Y024880D02*
X041549Y024955D01*
X041399Y024955D01*
X041784Y024505D02*
X042084Y024505D01*
X042245Y024505D02*
X042545Y024805D01*
X042545Y024880D01*
X042470Y024955D01*
X042320Y024955D01*
X042245Y024880D01*
X042245Y024505D02*
X042545Y024505D01*
X043499Y023255D02*
X043424Y023180D01*
X043424Y022880D01*
X043499Y022805D01*
X043649Y022805D01*
X043724Y022880D01*
X043884Y022805D02*
X044184Y023105D01*
X044184Y023180D01*
X044109Y023255D01*
X043959Y023255D01*
X043884Y023180D01*
X043724Y023180D02*
X043649Y023255D01*
X043499Y023255D01*
X044345Y023105D02*
X044495Y023255D01*
X044495Y022805D01*
X044345Y022805D02*
X044645Y022805D01*
X044184Y022805D02*
X043884Y022805D01*
X042845Y021755D02*
X042545Y021755D01*
X042845Y021755D02*
X042845Y021680D01*
X042545Y021380D01*
X042545Y021305D01*
X042384Y021305D02*
X042084Y021305D01*
X042234Y021305D02*
X042234Y021755D01*
X042084Y021605D01*
X041924Y021680D02*
X041849Y021755D01*
X041699Y021755D01*
X041624Y021680D01*
X041624Y021380D01*
X041699Y021305D01*
X041849Y021305D01*
X041924Y021380D01*
X046574Y018468D02*
X046574Y018168D01*
X046649Y018093D01*
X046799Y018093D01*
X046874Y018168D01*
X047034Y018093D02*
X047334Y018093D01*
X047184Y018093D02*
X047184Y018543D01*
X047034Y018393D01*
X046874Y018468D02*
X046799Y018543D01*
X046649Y018543D01*
X046574Y018468D01*
X047495Y018318D02*
X047720Y018318D01*
X047795Y018243D01*
X047795Y018168D01*
X047720Y018093D01*
X047570Y018093D01*
X047495Y018168D01*
X047495Y018318D01*
X047645Y018468D01*
X047795Y018543D01*
X050805Y020380D02*
X050805Y020680D01*
X050880Y020755D01*
X051030Y020755D01*
X051105Y020680D01*
X051265Y020605D02*
X051416Y020755D01*
X051416Y020305D01*
X051566Y020305D02*
X051265Y020305D01*
X051105Y020380D02*
X051030Y020305D01*
X050880Y020305D01*
X050805Y020380D01*
X051726Y020380D02*
X051801Y020305D01*
X051951Y020305D01*
X052026Y020380D01*
X052026Y020680D01*
X051951Y020755D01*
X051801Y020755D01*
X051726Y020680D01*
X051726Y020605D01*
X051801Y020530D01*
X052026Y020530D01*
X053005Y020380D02*
X053080Y020305D01*
X053230Y020305D01*
X053305Y020380D01*
X053465Y020305D02*
X053766Y020305D01*
X053616Y020305D02*
X053616Y020755D01*
X053465Y020605D01*
X053305Y020680D02*
X053230Y020755D01*
X053080Y020755D01*
X053005Y020680D01*
X053005Y020380D01*
X053926Y020380D02*
X054001Y020305D01*
X054151Y020305D01*
X054226Y020380D01*
X054226Y020530D01*
X054151Y020605D01*
X054076Y020605D01*
X053926Y020530D01*
X053926Y020755D01*
X054226Y020755D01*
X052726Y017755D02*
X052726Y017680D01*
X052426Y017380D01*
X052426Y017305D01*
X052266Y017305D02*
X051965Y017305D01*
X052266Y017605D01*
X052266Y017680D01*
X052191Y017755D01*
X052040Y017755D01*
X051965Y017680D01*
X051805Y017680D02*
X051805Y017530D01*
X051730Y017455D01*
X051505Y017455D01*
X051505Y017305D02*
X051505Y017755D01*
X051730Y017755D01*
X051805Y017680D01*
X051655Y017455D02*
X051805Y017305D01*
X052426Y017755D02*
X052726Y017755D01*
X052651Y016255D02*
X052726Y016180D01*
X052726Y016105D01*
X052651Y016030D01*
X052501Y016030D01*
X052426Y016105D01*
X052426Y016180D01*
X052501Y016255D01*
X052651Y016255D01*
X052651Y016030D02*
X052726Y015955D01*
X052726Y015880D01*
X052651Y015805D01*
X052501Y015805D01*
X052426Y015880D01*
X052426Y015955D01*
X052501Y016030D01*
X052266Y016105D02*
X052266Y016180D01*
X052191Y016255D01*
X052040Y016255D01*
X051965Y016180D01*
X051805Y016180D02*
X051805Y016030D01*
X051730Y015955D01*
X051505Y015955D01*
X051505Y015805D02*
X051505Y016255D01*
X051730Y016255D01*
X051805Y016180D01*
X051655Y015955D02*
X051805Y015805D01*
X051965Y015805D02*
X052266Y016105D01*
X052266Y015805D02*
X051965Y015805D01*
X052040Y013755D02*
X051965Y013680D01*
X052040Y013755D02*
X052191Y013755D01*
X052266Y013680D01*
X052266Y013605D01*
X051965Y013305D01*
X052266Y013305D01*
X052426Y013380D02*
X052501Y013305D01*
X052651Y013305D01*
X052726Y013380D01*
X052726Y013680D01*
X052651Y013755D01*
X052501Y013755D01*
X052426Y013680D01*
X052426Y013605D01*
X052501Y013530D01*
X052726Y013530D01*
X051805Y013530D02*
X051730Y013455D01*
X051505Y013455D01*
X051505Y013305D02*
X051505Y013755D01*
X051730Y013755D01*
X051805Y013680D01*
X051805Y013530D01*
X051655Y013455D02*
X051805Y013305D01*
X051730Y012255D02*
X051505Y012255D01*
X051505Y011805D01*
X051505Y011955D02*
X051730Y011955D01*
X051805Y012030D01*
X051805Y012180D01*
X051730Y012255D01*
X051965Y012180D02*
X052040Y012255D01*
X052191Y012255D01*
X052266Y012180D01*
X052266Y012105D01*
X052191Y012030D01*
X052266Y011955D01*
X052266Y011880D01*
X052191Y011805D01*
X052040Y011805D01*
X051965Y011880D01*
X051805Y011805D02*
X051655Y011955D01*
X052116Y012030D02*
X052191Y012030D01*
X052426Y011880D02*
X052501Y011805D01*
X052651Y011805D01*
X052726Y011880D01*
X052726Y012180D01*
X052426Y011880D01*
X052426Y012180D01*
X052501Y012255D01*
X052651Y012255D01*
X052726Y012180D01*
X047345Y011930D02*
X047345Y011630D01*
X047270Y011555D01*
X047120Y011555D01*
X047045Y011630D01*
X046884Y011630D02*
X046884Y011930D01*
X046809Y012005D01*
X046584Y012005D01*
X046584Y011555D01*
X046809Y011555D01*
X046884Y011630D01*
X047045Y011855D02*
X047120Y011780D01*
X047345Y011780D01*
X047345Y011930D02*
X047270Y012005D01*
X047120Y012005D01*
X047045Y011930D01*
X047045Y011855D01*
X047120Y010505D02*
X047270Y010505D01*
X047345Y010430D01*
X047045Y010130D01*
X047120Y010055D01*
X047270Y010055D01*
X047345Y010130D01*
X047345Y010430D01*
X047120Y010505D02*
X047045Y010430D01*
X047045Y010130D01*
X046884Y010055D02*
X046584Y010055D01*
X046734Y010055D02*
X046734Y010505D01*
X046584Y010355D01*
X046424Y010430D02*
X046349Y010505D01*
X046124Y010505D01*
X046124Y010055D01*
X046349Y010055D01*
X046424Y010130D01*
X046424Y010430D01*
X046584Y014055D02*
X046809Y014055D01*
X046884Y014130D01*
X046884Y014430D01*
X046809Y014505D01*
X046584Y014505D01*
X046584Y014055D01*
X047045Y014130D02*
X047045Y014205D01*
X047120Y014280D01*
X047270Y014280D01*
X047345Y014205D01*
X047345Y014130D01*
X047270Y014055D01*
X047120Y014055D01*
X047045Y014130D01*
X047120Y014280D02*
X047045Y014355D01*
X047045Y014430D01*
X047120Y014505D01*
X047270Y014505D01*
X047345Y014430D01*
X047345Y014355D01*
X047270Y014280D01*
X047045Y015555D02*
X047045Y015630D01*
X047345Y015930D01*
X047345Y016005D01*
X047045Y016005D01*
X046884Y015930D02*
X046884Y015630D01*
X046809Y015555D01*
X046584Y015555D01*
X046584Y016005D01*
X046809Y016005D01*
X046884Y015930D01*
X056485Y024175D02*
X056785Y024175D01*
X056935Y024325D01*
X056785Y024475D01*
X056485Y024475D01*
X056560Y024635D02*
X056860Y024635D01*
X056935Y024710D01*
X056935Y024861D01*
X056860Y024936D01*
X056710Y024936D01*
X056710Y024786D01*
X056560Y024936D02*
X056485Y024861D01*
X056485Y024710D01*
X056560Y024635D01*
X056635Y025096D02*
X056485Y025246D01*
X056635Y025396D01*
X056935Y025396D01*
X056935Y025556D02*
X056485Y025556D01*
X056710Y025556D02*
X056710Y025856D01*
X056485Y025856D02*
X056935Y025856D01*
X056935Y026017D02*
X056935Y026242D01*
X056860Y026317D01*
X056560Y026317D01*
X056485Y026242D01*
X056485Y026017D01*
X056935Y026017D01*
X056935Y026477D02*
X056485Y026477D01*
X056485Y026702D01*
X056560Y026777D01*
X056710Y026777D01*
X056785Y026702D01*
X056785Y026477D01*
X056785Y026627D02*
X056935Y026777D01*
X055326Y027380D02*
X055251Y027305D01*
X055101Y027305D01*
X055026Y027380D01*
X055026Y027455D01*
X055101Y027530D01*
X055251Y027530D01*
X055326Y027455D01*
X055326Y027380D01*
X055251Y027530D02*
X055326Y027605D01*
X055326Y027680D01*
X055251Y027755D01*
X055101Y027755D01*
X055026Y027680D01*
X055026Y027605D01*
X055101Y027530D01*
X054866Y027305D02*
X054565Y027305D01*
X054716Y027305D02*
X054716Y027755D01*
X054565Y027605D01*
X054405Y027680D02*
X054330Y027755D01*
X054180Y027755D01*
X054105Y027680D01*
X054105Y027380D01*
X054180Y027305D01*
X054330Y027305D01*
X054405Y027380D01*
X056710Y025396D02*
X056710Y025096D01*
X056635Y025096D02*
X056935Y025096D01*
X051445Y029580D02*
X051370Y029505D01*
X051220Y029505D01*
X051145Y029580D01*
X051145Y029730D01*
X051370Y029730D01*
X051445Y029655D01*
X051445Y029580D01*
X051295Y029880D02*
X051145Y029730D01*
X050984Y029805D02*
X050684Y029505D01*
X050984Y029505D01*
X050984Y029805D02*
X050984Y029880D01*
X050909Y029955D01*
X050759Y029955D01*
X050684Y029880D01*
X050524Y029880D02*
X050524Y029730D01*
X050449Y029655D01*
X050224Y029655D01*
X050374Y029655D02*
X050524Y029505D01*
X050224Y029505D02*
X050224Y029955D01*
X050449Y029955D01*
X050524Y029880D01*
X051295Y029880D02*
X051445Y029955D01*
X053605Y029980D02*
X053605Y029680D01*
X053680Y029605D01*
X053830Y029605D01*
X053905Y029680D01*
X054065Y029605D02*
X054366Y029605D01*
X054216Y029605D02*
X054216Y030055D01*
X054065Y029905D01*
X053905Y029980D02*
X053830Y030055D01*
X053680Y030055D01*
X053605Y029980D01*
X054526Y029830D02*
X054826Y029830D01*
X054751Y029605D02*
X054751Y030055D01*
X054526Y029830D01*
X055012Y032485D02*
X055237Y032485D01*
X055313Y032560D01*
X055313Y032635D01*
X055237Y032710D01*
X055012Y032710D01*
X055012Y032485D02*
X055012Y032935D01*
X055237Y032935D01*
X055313Y032860D01*
X055313Y032785D01*
X055237Y032710D01*
X055473Y032860D02*
X055473Y032560D01*
X055548Y032485D01*
X055698Y032485D01*
X055773Y032560D01*
X055773Y032860D01*
X055698Y032935D01*
X055548Y032935D01*
X055473Y032860D01*
X055933Y032935D02*
X055933Y032485D01*
X056158Y032485D01*
X056233Y032560D01*
X056233Y032635D01*
X056158Y032710D01*
X055933Y032710D01*
X056158Y032710D02*
X056233Y032785D01*
X056233Y032860D01*
X056158Y032935D01*
X055933Y032935D01*
X056393Y032935D02*
X056619Y032935D01*
X056694Y032860D01*
X056694Y032560D01*
X056619Y032485D01*
X056393Y032485D01*
X056393Y032935D01*
X056854Y032785D02*
X056854Y032485D01*
X056854Y032710D02*
X057154Y032710D01*
X057154Y032785D02*
X057154Y032485D01*
X057154Y032785D02*
X057004Y032935D01*
X056854Y032785D01*
X057314Y032935D02*
X057614Y032935D01*
X057464Y032935D02*
X057464Y032485D01*
X057775Y032485D02*
X057775Y032785D01*
X057925Y032935D01*
X058075Y032785D01*
X058075Y032485D01*
X058075Y032710D02*
X057775Y032710D01*
X055856Y037425D02*
X055706Y037575D01*
X055781Y037575D02*
X055556Y037575D01*
X055556Y037425D02*
X055556Y037875D01*
X055781Y037875D01*
X055856Y037800D01*
X055856Y037650D01*
X055781Y037575D01*
X055396Y037425D02*
X055171Y037650D01*
X055096Y037575D02*
X055396Y037875D01*
X055096Y037875D02*
X055096Y037425D01*
X054936Y037650D02*
X054861Y037575D01*
X054635Y037575D01*
X054635Y037425D02*
X054635Y037875D01*
X054861Y037875D01*
X054936Y037800D01*
X054936Y037650D01*
X054475Y037575D02*
X054475Y037500D01*
X054400Y037425D01*
X054250Y037425D01*
X054175Y037500D01*
X054250Y037650D02*
X054400Y037650D01*
X054475Y037575D01*
X054475Y037800D02*
X054400Y037875D01*
X054250Y037875D01*
X054175Y037800D01*
X054175Y037725D01*
X054250Y037650D01*
X051738Y037425D02*
X051437Y037425D01*
X051587Y037425D02*
X051587Y037875D01*
X051437Y037725D01*
X051277Y037875D02*
X050977Y037875D01*
X051127Y037875D02*
X051127Y037425D01*
X050817Y037500D02*
X050817Y037875D01*
X050517Y037875D02*
X050517Y037500D01*
X050592Y037425D01*
X050742Y037425D01*
X050817Y037500D01*
X050356Y037500D02*
X050356Y037800D01*
X050281Y037875D01*
X050131Y037875D01*
X050056Y037800D01*
X050056Y037500D01*
X050131Y037425D01*
X050281Y037425D01*
X050356Y037500D01*
X049896Y037425D02*
X049746Y037575D01*
X049821Y037575D02*
X049596Y037575D01*
X049596Y037425D02*
X049596Y037875D01*
X049821Y037875D01*
X049896Y037800D01*
X049896Y037650D01*
X049821Y037575D01*
X049436Y037425D02*
X049436Y037875D01*
X049135Y037875D02*
X049135Y037425D01*
X049286Y037575D01*
X049436Y037425D01*
X048975Y037650D02*
X048975Y037800D01*
X048900Y037875D01*
X048675Y037875D01*
X048675Y037425D01*
X048675Y037575D02*
X048900Y037575D01*
X048975Y037650D01*
X049000Y032935D02*
X049075Y032860D01*
X049075Y032710D01*
X049000Y032635D01*
X048775Y032635D01*
X048925Y032635D02*
X049075Y032485D01*
X048775Y032485D02*
X048775Y032935D01*
X049000Y032935D01*
X048614Y032860D02*
X048614Y032560D01*
X048539Y032485D01*
X048314Y032485D01*
X048314Y032935D01*
X048539Y032935D01*
X048614Y032860D01*
X048154Y032860D02*
X048079Y032935D01*
X047854Y032935D01*
X047854Y032485D01*
X048079Y032485D01*
X048154Y032560D01*
X048154Y032860D01*
X047694Y032785D02*
X047694Y032485D01*
X047694Y032710D02*
X047393Y032710D01*
X047393Y032785D02*
X047544Y032935D01*
X047694Y032785D01*
X047393Y032785D02*
X047393Y032485D01*
X047233Y032560D02*
X047158Y032485D01*
X046933Y032485D01*
X046933Y032935D01*
X047158Y032935D01*
X047233Y032860D01*
X047233Y032785D01*
X047158Y032710D01*
X046933Y032710D01*
X046773Y032560D02*
X046773Y032860D01*
X046698Y032935D01*
X046548Y032935D01*
X046473Y032860D01*
X046473Y032560D01*
X046548Y032485D01*
X046698Y032485D01*
X046773Y032560D01*
X047158Y032710D02*
X047233Y032635D01*
X047233Y032560D01*
X046313Y032560D02*
X046237Y032485D01*
X046012Y032485D01*
X046012Y032935D01*
X046237Y032935D01*
X046313Y032860D01*
X046313Y032785D01*
X046237Y032710D01*
X046012Y032710D01*
X046237Y032710D02*
X046313Y032635D01*
X046313Y032560D01*
X046149Y030055D02*
X045999Y030055D01*
X045924Y029980D01*
X045924Y029680D01*
X045999Y029605D01*
X046149Y029605D01*
X046224Y029680D01*
X046384Y029605D02*
X046684Y029605D01*
X046534Y029605D02*
X046534Y030055D01*
X046384Y029905D01*
X046224Y029980D02*
X046149Y030055D01*
X046845Y029980D02*
X046920Y030055D01*
X047070Y030055D01*
X047145Y029980D01*
X047145Y029905D01*
X047070Y029830D01*
X047145Y029755D01*
X047145Y029680D01*
X047070Y029605D01*
X046920Y029605D01*
X046845Y029680D01*
X046995Y029830D02*
X047070Y029830D01*
X042226Y030680D02*
X042151Y030605D01*
X042001Y030605D01*
X041926Y030680D01*
X042226Y030980D01*
X042226Y030680D01*
X041926Y030680D02*
X041926Y030980D01*
X042001Y031055D01*
X042151Y031055D01*
X042226Y030980D01*
X041766Y030980D02*
X041691Y031055D01*
X041540Y031055D01*
X041465Y030980D01*
X041305Y030980D02*
X041230Y031055D01*
X041080Y031055D01*
X041005Y030980D01*
X041005Y030680D01*
X041080Y030605D01*
X041230Y030605D01*
X041305Y030680D01*
X041465Y030605D02*
X041766Y030905D01*
X041766Y030980D01*
X041766Y030605D02*
X041465Y030605D01*
X039426Y029180D02*
X039351Y029255D01*
X039201Y029255D01*
X039126Y029180D01*
X039426Y029180D02*
X039426Y029105D01*
X039126Y028805D01*
X039426Y028805D01*
X038966Y028805D02*
X038665Y028805D01*
X038816Y028805D02*
X038816Y029255D01*
X038665Y029105D01*
X038505Y029180D02*
X038430Y029255D01*
X038280Y029255D01*
X038205Y029180D01*
X038205Y028880D01*
X038280Y028805D01*
X038430Y028805D01*
X038505Y028880D01*
X033875Y027450D02*
X033875Y027375D01*
X033800Y027300D01*
X033650Y027300D01*
X033575Y027375D01*
X033575Y027450D01*
X033650Y027525D01*
X033800Y027525D01*
X033875Y027450D01*
X033800Y027300D02*
X033875Y027225D01*
X033875Y027150D01*
X033800Y027075D01*
X033650Y027075D01*
X033575Y027150D01*
X033575Y027225D01*
X033650Y027300D01*
X033575Y026215D02*
X033875Y026215D01*
X033875Y026140D01*
X033575Y025840D01*
X033575Y025765D01*
X028066Y027370D02*
X027765Y027370D01*
X027991Y027595D01*
X027991Y027145D01*
X027605Y027145D02*
X027305Y027145D01*
X027455Y027145D02*
X027455Y027595D01*
X027305Y027445D01*
X027505Y031505D02*
X027505Y031655D01*
X027505Y031580D02*
X027055Y031580D01*
X027055Y031505D02*
X027055Y031655D01*
X027130Y031812D02*
X027430Y031812D01*
X027505Y031887D01*
X027505Y032037D01*
X027430Y032112D01*
X027505Y032272D02*
X027505Y032573D01*
X027505Y032422D02*
X027055Y032422D01*
X027205Y032272D01*
X027130Y032112D02*
X027055Y032037D01*
X027055Y031887D01*
X027130Y031812D01*
X027210Y037925D02*
X027361Y037925D01*
X027436Y038000D01*
X027436Y038300D01*
X027361Y038375D01*
X027210Y038375D01*
X027135Y038300D01*
X027135Y038000D01*
X027210Y037925D01*
X026975Y038000D02*
X026900Y037925D01*
X026675Y037925D01*
X026675Y038375D01*
X026900Y038375D01*
X026975Y038300D01*
X026975Y038225D01*
X026900Y038150D01*
X026675Y038150D01*
X026900Y038150D02*
X026975Y038075D01*
X026975Y038000D01*
X027596Y037925D02*
X027596Y038375D01*
X027821Y038375D01*
X027896Y038300D01*
X027896Y038225D01*
X027821Y038150D01*
X027596Y038150D01*
X027821Y038150D02*
X027896Y038075D01*
X027896Y038000D01*
X027821Y037925D01*
X027596Y037925D01*
X028056Y037925D02*
X028056Y038375D01*
X028206Y038225D01*
X028356Y038375D01*
X028356Y037925D01*
X028517Y037925D02*
X028667Y037925D01*
X028592Y037925D02*
X028592Y038375D01*
X028517Y038375D02*
X028667Y038375D01*
X028823Y038300D02*
X028823Y038225D01*
X028899Y038150D01*
X029049Y038150D01*
X029124Y038075D01*
X029124Y038000D01*
X029049Y037925D01*
X028899Y037925D01*
X028823Y038000D01*
X028823Y038300D02*
X028899Y038375D01*
X029049Y038375D01*
X029124Y038300D01*
X029284Y038300D02*
X029284Y038000D01*
X029359Y037925D01*
X029509Y037925D01*
X029584Y038000D01*
X029584Y038300D02*
X029509Y038375D01*
X029359Y038375D01*
X029284Y038300D01*
X037205Y038405D02*
X037355Y038405D01*
X037280Y038405D02*
X037280Y037955D01*
X037205Y037955D02*
X037355Y037955D01*
X037512Y038030D02*
X037587Y037955D01*
X037737Y037955D01*
X037812Y038030D01*
X037812Y038105D01*
X037737Y038180D01*
X037587Y038180D01*
X037512Y038255D01*
X037512Y038330D01*
X037587Y038405D01*
X037737Y038405D01*
X037812Y038330D01*
X037972Y038405D02*
X038198Y038405D01*
X038273Y038330D01*
X038273Y038180D01*
X038198Y038105D01*
X037972Y038105D01*
X037972Y037955D02*
X037972Y038405D01*
X038433Y038030D02*
X038508Y037955D01*
X038583Y037955D01*
X038658Y038030D01*
X038658Y038405D01*
X038583Y038405D02*
X038733Y038405D01*
X038893Y038405D02*
X039193Y038405D01*
X039043Y038405D02*
X039043Y037955D01*
X039353Y037955D02*
X039353Y038255D01*
X039504Y038405D01*
X039654Y038255D01*
X039654Y037955D01*
X039814Y038030D02*
X039814Y038330D01*
X039889Y038405D01*
X040039Y038405D01*
X040114Y038330D01*
X040114Y038180D02*
X039964Y038180D01*
X040114Y038180D02*
X040114Y038030D01*
X040039Y037955D01*
X039889Y037955D01*
X039814Y038030D01*
X039654Y038180D02*
X039353Y038180D01*
X037891Y034655D02*
X037740Y034655D01*
X037665Y034580D01*
X037505Y034580D02*
X037430Y034655D01*
X037280Y034655D01*
X037205Y034580D01*
X037205Y034505D01*
X037280Y034430D01*
X037430Y034430D01*
X037505Y034355D01*
X037505Y034280D01*
X037430Y034205D01*
X037280Y034205D01*
X037205Y034280D01*
X037665Y034205D02*
X037966Y034505D01*
X037966Y034580D01*
X037891Y034655D01*
X037966Y034205D02*
X037665Y034205D01*
X020698Y038150D02*
X020398Y038150D01*
X020238Y038150D02*
X020087Y038150D01*
X020238Y038150D02*
X020238Y038000D01*
X020163Y037925D01*
X020012Y037925D01*
X019937Y038000D01*
X019937Y038300D01*
X020012Y038375D01*
X020163Y038375D01*
X020238Y038300D01*
X020548Y038300D02*
X020548Y038000D01*
X019777Y037925D02*
X019777Y038225D01*
X019627Y038375D01*
X019477Y038225D01*
X019477Y037925D01*
X019477Y038150D02*
X019777Y038150D01*
X019317Y038375D02*
X019017Y038375D01*
X019167Y038375D02*
X019167Y037925D01*
X018781Y038000D02*
X018781Y038375D01*
X018706Y038375D02*
X018856Y038375D01*
X018781Y038000D02*
X018706Y037925D01*
X018631Y037925D01*
X018556Y038000D01*
X018396Y038000D02*
X018321Y037925D01*
X018096Y037925D01*
X018096Y038375D01*
X018321Y038375D01*
X018396Y038300D01*
X018396Y038225D01*
X018321Y038150D01*
X018096Y038150D01*
X017936Y038000D02*
X017936Y038300D01*
X017861Y038375D01*
X017710Y038375D01*
X017635Y038300D01*
X017635Y038000D01*
X017710Y037925D01*
X017861Y037925D01*
X017936Y038000D01*
X018321Y038150D02*
X018396Y038075D01*
X018396Y038000D01*
X017475Y038000D02*
X017400Y037925D01*
X017175Y037925D01*
X017175Y038375D01*
X017400Y038375D01*
X017475Y038300D01*
X017475Y038225D01*
X017400Y038150D01*
X017175Y038150D01*
X017400Y038150D02*
X017475Y038075D01*
X017475Y038000D01*
X014504Y037955D02*
X014353Y037955D01*
X014429Y037955D02*
X014429Y038405D01*
X014504Y038405D02*
X014353Y038405D01*
X014193Y038330D02*
X014193Y038030D01*
X014118Y037955D01*
X013893Y037955D01*
X013893Y038405D01*
X014118Y038405D01*
X014193Y038330D01*
X013733Y038330D02*
X013433Y038030D01*
X013433Y037955D01*
X013733Y037955D01*
X013733Y038330D02*
X013733Y038405D01*
X013433Y038405D01*
X013273Y038330D02*
X013273Y038180D01*
X013198Y038105D01*
X012972Y038105D01*
X012972Y037955D02*
X012972Y038405D01*
X013198Y038405D01*
X013273Y038330D01*
X012812Y038330D02*
X012737Y038405D01*
X012587Y038405D01*
X012512Y038330D01*
X012512Y038255D01*
X012587Y038180D01*
X012737Y038180D01*
X012812Y038105D01*
X012812Y038030D01*
X012737Y037955D01*
X012587Y037955D01*
X012512Y038030D01*
X012355Y037955D02*
X012205Y037955D01*
X012280Y037955D02*
X012280Y038405D01*
X012205Y038405D02*
X012355Y038405D01*
X005432Y036383D02*
X005357Y036458D01*
X005207Y036458D01*
X005132Y036383D01*
X004972Y036383D02*
X004897Y036458D01*
X004672Y036458D01*
X004672Y036008D01*
X004897Y036008D01*
X004972Y036083D01*
X004972Y036383D01*
X005132Y036008D02*
X005432Y036308D01*
X005432Y036383D01*
X005432Y036008D02*
X005132Y036008D01*
X004512Y036008D02*
X004211Y036008D01*
X004211Y036458D01*
X004512Y036458D01*
X004361Y036233D02*
X004211Y036233D01*
X004051Y036008D02*
X003751Y036008D01*
X003751Y036458D01*
X002466Y038205D02*
X002165Y038205D01*
X002316Y038205D02*
X002316Y038655D01*
X002165Y038505D01*
X002005Y038580D02*
X001930Y038655D01*
X001780Y038655D01*
X001705Y038580D01*
X001705Y038505D01*
X001780Y038430D01*
X001930Y038430D01*
X002005Y038355D01*
X002005Y038280D01*
X001930Y038205D01*
X001780Y038205D01*
X001705Y038280D01*
X001435Y032874D02*
X001435Y032573D01*
X001435Y032724D02*
X000985Y032724D01*
X001135Y032573D01*
X000985Y032413D02*
X001435Y032413D01*
X000985Y032113D01*
X001435Y032113D01*
X001435Y031956D02*
X001435Y031806D01*
X001435Y031881D02*
X000985Y031881D01*
X000985Y031806D02*
X000985Y031956D01*
X001060Y031646D02*
X001210Y031646D01*
X001285Y031571D01*
X001285Y031346D01*
X001285Y031496D02*
X001435Y031646D01*
X001435Y031346D02*
X000985Y031346D01*
X000985Y031571D01*
X001060Y031646D01*
X000985Y031186D02*
X001435Y031186D01*
X001285Y031036D01*
X001435Y030885D01*
X000985Y030885D01*
X001060Y030725D02*
X001210Y030725D01*
X001285Y030650D01*
X001285Y030425D01*
X001435Y030425D02*
X000985Y030425D01*
X000985Y030650D01*
X001060Y030725D01*
X002925Y029625D02*
X003000Y029700D01*
X003300Y029400D01*
X003375Y029475D01*
X003375Y029625D01*
X003300Y029700D01*
X003000Y029700D01*
X002925Y029625D02*
X002925Y029475D01*
X003000Y029400D01*
X003300Y029400D01*
X003375Y029089D02*
X003150Y029089D01*
X003000Y029239D01*
X002925Y029239D01*
X003150Y029089D02*
X003000Y028939D01*
X002925Y028939D01*
X003000Y028779D02*
X002925Y028704D01*
X002925Y028554D01*
X003000Y028479D01*
X003300Y028479D01*
X003375Y028554D01*
X003375Y028704D01*
X003300Y028779D01*
X003000Y028779D01*
X002925Y028319D02*
X002925Y028169D01*
X002925Y028244D02*
X003300Y028244D01*
X003375Y028169D01*
X003375Y028093D01*
X003300Y028018D01*
X003150Y027858D02*
X003150Y027558D01*
X003300Y027398D02*
X003375Y027323D01*
X003375Y027173D01*
X003300Y027098D01*
X003000Y027098D01*
X002925Y027173D01*
X002925Y027323D01*
X003000Y027398D01*
X003000Y026937D02*
X002925Y026862D01*
X002925Y026712D01*
X003000Y026637D01*
X003300Y026637D01*
X003375Y026712D01*
X003375Y026862D01*
X003300Y026937D01*
X003000Y026937D01*
X002925Y026480D02*
X002925Y026330D01*
X002925Y026405D02*
X003375Y026405D01*
X003375Y026330D02*
X003375Y026480D01*
X003150Y026170D02*
X003225Y026095D01*
X003225Y025870D01*
X003375Y025870D02*
X002925Y025870D01*
X002925Y026095D01*
X003000Y026170D01*
X003150Y026170D01*
X003150Y025710D02*
X003150Y025560D01*
X003150Y025710D02*
X003300Y025710D01*
X003375Y025635D01*
X003375Y025485D01*
X003300Y025410D01*
X003000Y025410D01*
X002925Y025485D01*
X002925Y025635D01*
X003000Y025710D01*
X008235Y025815D02*
X008685Y025815D01*
X008685Y025665D02*
X008685Y025965D01*
X008385Y025665D02*
X008235Y025815D01*
X008235Y025505D02*
X008310Y025505D01*
X008460Y025355D01*
X008685Y025355D01*
X008460Y025355D02*
X008310Y025205D01*
X008235Y025205D01*
X008310Y025045D02*
X008235Y024969D01*
X008235Y024819D01*
X008310Y024744D01*
X008610Y024744D01*
X008685Y024819D01*
X008685Y024969D01*
X008610Y025045D01*
X008310Y025045D01*
X008235Y024584D02*
X008235Y024434D01*
X008235Y024509D02*
X008610Y024509D01*
X008685Y024434D01*
X008685Y024359D01*
X008610Y024284D01*
X008460Y024124D02*
X008460Y023823D01*
X008610Y023663D02*
X008310Y023663D01*
X008235Y023588D01*
X008235Y023363D01*
X008685Y023363D01*
X008685Y023588D01*
X008610Y023663D01*
X008610Y023203D02*
X008310Y023203D01*
X008235Y023128D01*
X008235Y022978D01*
X008310Y022903D01*
X008610Y022903D01*
X008685Y022978D01*
X008685Y023128D01*
X008610Y023203D01*
X008685Y022746D02*
X008685Y022596D01*
X008685Y022671D02*
X008235Y022671D01*
X008235Y022596D02*
X008235Y022746D01*
X008310Y022436D02*
X008460Y022436D01*
X008535Y022361D01*
X008535Y022135D01*
X008685Y022135D02*
X008235Y022135D01*
X008235Y022361D01*
X008310Y022436D01*
X008310Y021975D02*
X008235Y021900D01*
X008235Y021750D01*
X008310Y021675D01*
X008610Y021675D01*
X008685Y021750D01*
X008685Y021900D01*
X008610Y021975D01*
X008460Y021975D01*
X008460Y021825D01*
X010805Y021180D02*
X010805Y020880D01*
X010880Y020805D01*
X011030Y020805D01*
X011105Y020880D01*
X011265Y020880D02*
X011265Y020805D01*
X011265Y020880D02*
X011566Y021180D01*
X011566Y021255D01*
X011265Y021255D01*
X011105Y021180D02*
X011030Y021255D01*
X010880Y021255D01*
X010805Y021180D01*
X008805Y019991D02*
X008805Y019840D01*
X008730Y019765D01*
X008655Y019765D01*
X008580Y019840D01*
X008580Y019991D01*
X008655Y020066D01*
X008730Y020066D01*
X008805Y019991D01*
X008580Y019991D02*
X008505Y020066D01*
X008430Y020066D01*
X008355Y019991D01*
X008355Y019840D01*
X008430Y019765D01*
X008505Y019765D01*
X008580Y019840D01*
X008730Y019605D02*
X008805Y019530D01*
X008805Y019380D01*
X008730Y019305D01*
X008430Y019305D01*
X008355Y019380D01*
X008355Y019530D01*
X008430Y019605D01*
X005170Y019155D02*
X005095Y019230D01*
X004945Y019230D01*
X004870Y019155D01*
X004870Y018855D01*
X004945Y018780D01*
X005095Y018780D01*
X005170Y018855D01*
X004709Y018855D02*
X004709Y018930D01*
X004634Y019005D01*
X004484Y019005D01*
X004409Y019080D01*
X004409Y019155D01*
X004484Y019230D01*
X004634Y019230D01*
X004709Y019155D01*
X004709Y018855D02*
X004634Y018780D01*
X004484Y018780D01*
X004409Y018855D01*
X004249Y018855D02*
X004249Y019155D01*
X004174Y019230D01*
X004024Y019230D01*
X003949Y019155D01*
X003949Y018855D01*
X004024Y018780D01*
X004174Y018780D01*
X004249Y018855D01*
X003789Y019005D02*
X003488Y019005D01*
X003328Y019155D02*
X003028Y018855D01*
X003028Y018780D01*
X003328Y018780D01*
X003328Y019155D02*
X003328Y019230D01*
X003028Y019230D01*
X002691Y019205D02*
X002691Y019130D01*
X002616Y019055D01*
X002465Y019055D01*
X002390Y019130D01*
X002230Y019130D02*
X002155Y019055D01*
X002005Y019055D01*
X001930Y019130D01*
X001930Y019430D01*
X002005Y019505D01*
X002155Y019505D01*
X002230Y019430D01*
X002390Y019430D02*
X002465Y019505D01*
X002616Y019505D01*
X002691Y019430D01*
X002691Y019355D01*
X002616Y019280D01*
X002691Y019205D01*
X002616Y019280D02*
X002541Y019280D01*
X002880Y014695D02*
X002880Y014395D01*
X002880Y014545D02*
X002430Y014545D01*
X002580Y014395D01*
X002505Y014234D02*
X002430Y014159D01*
X002430Y014009D01*
X002505Y013934D01*
X002805Y013934D01*
X002880Y014009D01*
X002880Y014159D01*
X002805Y014234D01*
X004067Y014109D02*
X004067Y013959D01*
X004142Y013884D01*
X004442Y013884D01*
X004518Y013959D01*
X004518Y014109D01*
X004442Y014184D01*
X004442Y014345D02*
X004518Y014420D01*
X004518Y014570D01*
X004442Y014645D01*
X004142Y014645D01*
X004067Y014570D01*
X004067Y014420D01*
X004142Y014345D01*
X004217Y014345D01*
X004292Y014420D01*
X004292Y014645D01*
X004142Y014184D02*
X004067Y014109D01*
X002870Y010793D02*
X002945Y010718D01*
X002645Y010418D01*
X002720Y010343D01*
X002870Y010343D01*
X002945Y010418D01*
X002945Y010718D01*
X002870Y010793D02*
X002720Y010793D01*
X002645Y010718D01*
X002645Y010418D01*
X002484Y010343D02*
X002184Y010343D01*
X002334Y010343D02*
X002334Y010793D01*
X002184Y010643D01*
X002024Y010718D02*
X001949Y010793D01*
X001799Y010793D01*
X001724Y010718D01*
X001724Y010418D01*
X001799Y010343D01*
X001949Y010343D01*
X002024Y010418D01*
X002132Y008435D02*
X002282Y008435D01*
X002207Y008435D02*
X002207Y007985D01*
X002132Y007985D02*
X002282Y007985D01*
X002439Y007985D02*
X002739Y008285D01*
X002739Y008360D01*
X002664Y008435D01*
X002514Y008435D01*
X002439Y008360D01*
X002439Y007985D02*
X002739Y007985D01*
X002900Y008060D02*
X002975Y007985D01*
X003125Y007985D01*
X003200Y008060D01*
X003200Y008360D02*
X003125Y008435D01*
X002975Y008435D01*
X002900Y008360D01*
X002900Y008060D01*
X001972Y008060D02*
X001897Y007985D01*
X001672Y007985D01*
X001672Y008435D01*
X001897Y008435D01*
X001972Y008360D01*
X001972Y008285D01*
X001897Y008210D01*
X001672Y008210D01*
X001512Y008060D02*
X001512Y008360D01*
X001437Y008435D01*
X001287Y008435D01*
X001211Y008360D01*
X001211Y008060D01*
X001287Y007985D01*
X001437Y007985D01*
X001512Y008060D01*
X001897Y008210D02*
X001972Y008135D01*
X001972Y008060D01*
X001051Y008060D02*
X000976Y007985D01*
X000751Y007985D01*
X000751Y008435D01*
X000976Y008435D01*
X001051Y008360D01*
X001051Y008285D01*
X000976Y008210D01*
X000751Y008210D01*
X000976Y008210D02*
X001051Y008135D01*
X001051Y008060D01*
X001145Y005460D02*
X001370Y005460D01*
X001445Y005385D01*
X001445Y005235D01*
X001370Y005160D01*
X001145Y005160D01*
X001145Y005010D02*
X001145Y005460D01*
X001605Y005460D02*
X001605Y005010D01*
X001605Y005235D02*
X001905Y005235D01*
X001905Y005460D02*
X001905Y005010D01*
X002066Y005010D02*
X002216Y005010D01*
X002141Y005010D02*
X002141Y005460D01*
X002066Y005460D02*
X002216Y005460D01*
X002210Y003375D02*
X002135Y003300D01*
X002135Y003000D01*
X002210Y002925D01*
X002361Y002925D01*
X002436Y003000D01*
X002436Y003300D01*
X002361Y003375D01*
X002210Y003375D01*
X001975Y003300D02*
X001975Y003225D01*
X001900Y003150D01*
X001675Y003150D01*
X001675Y002925D02*
X001675Y003375D01*
X001900Y003375D01*
X001975Y003300D01*
X001900Y003150D02*
X001975Y003075D01*
X001975Y003000D01*
X001900Y002925D01*
X001675Y002925D01*
X002596Y002925D02*
X002821Y002925D01*
X002896Y003000D01*
X002896Y003075D01*
X002821Y003150D01*
X002596Y003150D01*
X002821Y003150D02*
X002896Y003225D01*
X002896Y003300D01*
X002821Y003375D01*
X002596Y003375D01*
X002596Y002925D01*
X003056Y003000D02*
X003056Y003300D01*
X003131Y003375D01*
X003281Y003375D01*
X003356Y003300D01*
X003356Y003150D02*
X003206Y003150D01*
X003356Y003150D02*
X003356Y003000D01*
X003281Y002925D01*
X003131Y002925D01*
X003056Y003000D01*
X003517Y002925D02*
X003517Y003375D01*
X003742Y003375D01*
X003817Y003300D01*
X003817Y003150D01*
X003742Y003075D01*
X003517Y003075D01*
X003977Y002925D02*
X004127Y002925D01*
X004052Y002925D02*
X004052Y003375D01*
X003977Y003375D02*
X004127Y003375D01*
X004284Y003300D02*
X004284Y003000D01*
X004359Y002925D01*
X004509Y002925D01*
X004584Y003000D01*
X004584Y003300D01*
X004509Y003375D01*
X004359Y003375D01*
X004284Y003300D01*
X004744Y003375D02*
X004969Y003375D01*
X005045Y003300D01*
X005045Y003225D01*
X004969Y003150D01*
X004744Y003150D01*
X004744Y002925D02*
X004744Y003375D01*
X004969Y003150D02*
X005045Y003075D01*
X005045Y003000D01*
X004969Y002925D01*
X004744Y002925D01*
X010680Y004180D02*
X010680Y000680D01*
X013680Y000680D01*
X013680Y004180D02*
X010680Y004180D01*
X008445Y007105D02*
X008145Y007105D01*
X008445Y007405D01*
X008445Y007480D01*
X008370Y007555D01*
X008220Y007555D01*
X008145Y007480D01*
X007984Y007480D02*
X007909Y007555D01*
X007759Y007555D01*
X007684Y007480D01*
X007684Y007180D01*
X007759Y007105D01*
X007909Y007105D01*
X007984Y007180D01*
X010343Y008880D02*
X010418Y008805D01*
X010568Y008805D01*
X010643Y008880D01*
X010803Y009030D02*
X011028Y009255D01*
X011028Y008805D01*
X011103Y009030D02*
X010803Y009030D01*
X010643Y009180D02*
X010568Y009255D01*
X010418Y009255D01*
X010343Y009180D01*
X010343Y008880D01*
X014338Y010450D02*
X014638Y010900D01*
X014798Y010825D02*
X014798Y010525D01*
X014873Y010450D01*
X015023Y010450D01*
X015098Y010525D01*
X015258Y010525D02*
X015333Y010450D01*
X015483Y010450D01*
X015559Y010525D01*
X015559Y010600D01*
X015483Y010675D01*
X015333Y010675D01*
X015258Y010750D01*
X015258Y010825D01*
X015333Y010900D01*
X015483Y010900D01*
X015559Y010825D01*
X015719Y010825D02*
X015794Y010900D01*
X015944Y010900D01*
X016019Y010825D01*
X016019Y010750D01*
X015944Y010675D01*
X016019Y010600D01*
X016019Y010525D01*
X015944Y010450D01*
X015794Y010450D01*
X015719Y010525D01*
X015869Y010675D02*
X015944Y010675D01*
X015098Y010825D02*
X015023Y010900D01*
X014873Y010900D01*
X014798Y010825D01*
X016742Y010920D02*
X016742Y010620D01*
X016967Y010620D01*
X016892Y010770D01*
X016892Y010845D01*
X016967Y010920D01*
X017117Y010920D01*
X017193Y010845D01*
X017193Y010695D01*
X017117Y010620D01*
X017117Y010459D02*
X017193Y010384D01*
X017193Y010234D01*
X017117Y010159D01*
X016817Y010159D01*
X016742Y010234D01*
X016742Y010384D01*
X016817Y010459D01*
X014980Y014805D02*
X014680Y014805D01*
X014605Y014880D01*
X014605Y015030D01*
X014680Y015105D01*
X014830Y015265D02*
X014830Y015491D01*
X014905Y015566D01*
X014980Y015566D01*
X015055Y015491D01*
X015055Y015340D01*
X014980Y015265D01*
X014830Y015265D01*
X014680Y015416D01*
X014605Y015566D01*
X014980Y015105D02*
X015055Y015030D01*
X015055Y014880D01*
X014980Y014805D01*
X017055Y031505D02*
X017055Y031655D01*
X017055Y031580D02*
X017505Y031580D01*
X017505Y031505D02*
X017505Y031655D01*
X017430Y031812D02*
X017505Y031887D01*
X017505Y032037D01*
X017430Y032112D01*
X017505Y032272D02*
X017205Y032573D01*
X017130Y032573D01*
X017055Y032498D01*
X017055Y032347D01*
X017130Y032272D01*
X017130Y032112D02*
X017055Y032037D01*
X017055Y031887D01*
X017130Y031812D01*
X017430Y031812D01*
X017505Y032272D02*
X017505Y032573D01*
X006266Y032530D02*
X006266Y032380D01*
X006191Y032305D01*
X006040Y032305D01*
X005965Y032380D01*
X005965Y032530D02*
X006116Y032605D01*
X006191Y032605D01*
X006266Y032530D01*
X006266Y032755D02*
X005965Y032755D01*
X005965Y032530D01*
X005805Y032530D02*
X005805Y032680D01*
X005730Y032755D01*
X005505Y032755D01*
X005505Y032305D01*
X005505Y032455D02*
X005730Y032455D01*
X005805Y032530D01*
X005655Y032455D02*
X005805Y032305D01*
X055175Y002800D02*
X055175Y002500D01*
X055250Y002425D01*
X055400Y002425D01*
X055475Y002500D01*
X055475Y002650D01*
X055325Y002650D01*
X055175Y002800D02*
X055250Y002875D01*
X055400Y002875D01*
X055475Y002800D01*
X055635Y002875D02*
X055936Y002425D01*
X055936Y002875D01*
X056096Y002875D02*
X056321Y002875D01*
X056396Y002800D01*
X056396Y002500D01*
X056321Y002425D01*
X056096Y002425D01*
X056096Y002875D01*
X055635Y002875D02*
X055635Y002425D01*
X056556Y002500D02*
X056631Y002425D01*
X056781Y002425D01*
X056856Y002500D01*
X056856Y002800D01*
X056781Y002875D01*
X056631Y002875D01*
X056556Y002800D01*
X056556Y002500D01*
X057017Y002500D02*
X057017Y002875D01*
X057317Y002875D02*
X057317Y002500D01*
X057242Y002425D01*
X057092Y002425D01*
X057017Y002500D01*
X057477Y002875D02*
X057777Y002875D01*
X057627Y002875D02*
X057627Y002425D01*
X057937Y002425D02*
X058238Y002425D01*
X058087Y002425D02*
X058087Y002875D01*
X057937Y002725D01*
D14*
X029050Y026180D02*
X029050Y026680D01*
X029050Y027180D01*
X028800Y027180D02*
X028550Y027180D01*
X028550Y026180D01*
X028800Y026180D01*
X028800Y027180D01*
X028310Y027180D02*
X028310Y026680D01*
X028310Y026180D01*
D15*
X026435Y026030D02*
X026435Y025820D01*
X026330Y025715D01*
X025910Y025715D01*
X025804Y025820D01*
X025804Y026030D01*
X025910Y026135D01*
X026330Y026135D01*
X026435Y026030D01*
X026330Y026360D02*
X026435Y026465D01*
X026435Y026675D01*
X026330Y026780D01*
X026225Y026780D01*
X026120Y026675D01*
X026120Y026465D01*
X026015Y026360D01*
X025910Y026360D01*
X025804Y026465D01*
X025804Y026675D01*
X025910Y026780D01*
X025910Y027004D02*
X026330Y027004D01*
X026435Y027109D01*
X026435Y027319D01*
X026330Y027424D01*
X026435Y027649D02*
X025804Y027649D01*
X025804Y027964D01*
X025910Y028069D01*
X026330Y028069D01*
X026435Y027964D01*
X026435Y027649D01*
X025910Y027424D02*
X025804Y027319D01*
X025804Y027109D01*
X025910Y027004D01*
X025804Y028293D02*
X025804Y028503D01*
X025804Y028398D02*
X026435Y028398D01*
X026435Y028293D02*
X026435Y028503D01*
X026435Y028723D02*
X026435Y029143D01*
X026435Y029367D02*
X026435Y029788D01*
X026435Y029578D02*
X025804Y029578D01*
X026015Y029367D01*
X026120Y030012D02*
X026120Y030432D01*
X026435Y030327D02*
X025804Y030327D01*
X026120Y030012D01*
X026435Y028723D02*
X025804Y028723D01*
D16*
X023761Y026461D02*
X023514Y026461D01*
X023390Y026337D01*
X023390Y025843D01*
X023884Y026337D01*
X023884Y025843D01*
X023761Y025720D01*
X023514Y025720D01*
X023390Y025843D01*
X023129Y025843D02*
X023006Y025720D01*
X022759Y025720D01*
X022635Y025843D01*
X022374Y025843D02*
X022250Y025720D01*
X022004Y025720D01*
X021880Y025843D01*
X021880Y026337D01*
X022004Y026461D01*
X022250Y026461D01*
X022374Y026337D01*
X022635Y026337D02*
X022759Y026461D01*
X023006Y026461D01*
X023129Y026337D01*
X023006Y026090D02*
X023129Y025967D01*
X023129Y025843D01*
X023006Y026090D02*
X022759Y026090D01*
X022635Y026214D01*
X022635Y026337D01*
X021619Y026090D02*
X021125Y026090D01*
X020864Y025720D02*
X020864Y026461D01*
X020617Y026214D01*
X020370Y026461D01*
X020370Y025720D01*
X020109Y025720D02*
X020109Y026214D01*
X019862Y026461D01*
X019615Y026214D01*
X019615Y025720D01*
X019354Y025720D02*
X019107Y025967D01*
X019230Y025967D02*
X018860Y025967D01*
X018860Y025720D02*
X018860Y026461D01*
X019230Y026461D01*
X019354Y026337D01*
X019354Y026090D01*
X019230Y025967D01*
X019615Y026090D02*
X020109Y026090D01*
X023761Y026461D02*
X023884Y026337D01*
X036980Y032280D02*
X036980Y033085D01*
X037330Y033880D02*
X039030Y033880D01*
X039380Y033073D02*
X039380Y032280D01*
X037480Y032680D02*
X037482Y032732D01*
X037488Y032784D01*
X037498Y032836D01*
X037511Y032886D01*
X037528Y032936D01*
X037549Y032984D01*
X037574Y033030D01*
X037602Y033074D01*
X037633Y033116D01*
X037667Y033156D01*
X037704Y033193D01*
X037744Y033227D01*
X037786Y033258D01*
X037830Y033286D01*
X037876Y033311D01*
X037924Y033332D01*
X037974Y033349D01*
X038024Y033362D01*
X038076Y033372D01*
X038128Y033378D01*
X038180Y033380D01*
X038232Y033378D01*
X038284Y033372D01*
X038336Y033362D01*
X038386Y033349D01*
X038436Y033332D01*
X038484Y033311D01*
X038530Y033286D01*
X038574Y033258D01*
X038616Y033227D01*
X038656Y033193D01*
X038693Y033156D01*
X038727Y033116D01*
X038758Y033074D01*
X038786Y033030D01*
X038811Y032984D01*
X038832Y032936D01*
X038849Y032886D01*
X038862Y032836D01*
X038872Y032784D01*
X038878Y032732D01*
X038880Y032680D01*
X038878Y032628D01*
X038872Y032576D01*
X038862Y032524D01*
X038849Y032474D01*
X038832Y032424D01*
X038811Y032376D01*
X038786Y032330D01*
X038758Y032286D01*
X038727Y032244D01*
X038693Y032204D01*
X038656Y032167D01*
X038616Y032133D01*
X038574Y032102D01*
X038530Y032074D01*
X038484Y032049D01*
X038436Y032028D01*
X038386Y032011D01*
X038336Y031998D01*
X038284Y031988D01*
X038232Y031982D01*
X038180Y031980D01*
X038128Y031982D01*
X038076Y031988D01*
X038024Y031998D01*
X037974Y032011D01*
X037924Y032028D01*
X037876Y032049D01*
X037830Y032074D01*
X037786Y032102D01*
X037744Y032133D01*
X037704Y032167D01*
X037667Y032204D01*
X037633Y032244D01*
X037602Y032286D01*
X037574Y032330D01*
X037549Y032376D01*
X037528Y032424D01*
X037511Y032474D01*
X037498Y032524D01*
X037488Y032576D01*
X037482Y032628D01*
X037480Y032680D01*
X037330Y031480D02*
X039030Y031480D01*
X039480Y025530D02*
X039478Y025589D01*
X039472Y025647D01*
X039463Y025706D01*
X039449Y025763D01*
X039432Y025819D01*
X039411Y025874D01*
X039387Y025928D01*
X039359Y025980D01*
X039328Y026030D01*
X039294Y026078D01*
X039257Y026123D01*
X039216Y026166D01*
X039173Y026207D01*
X039128Y026244D01*
X039080Y026278D01*
X039030Y026309D01*
X038978Y026337D01*
X038924Y026361D01*
X038869Y026382D01*
X038813Y026399D01*
X038756Y026413D01*
X038697Y026422D01*
X038639Y026428D01*
X038580Y026430D01*
X038521Y026428D01*
X038463Y026422D01*
X038404Y026413D01*
X038347Y026399D01*
X038291Y026382D01*
X038236Y026361D01*
X038182Y026337D01*
X038130Y026309D01*
X038080Y026278D01*
X038032Y026244D01*
X037987Y026207D01*
X037944Y026166D01*
X037903Y026123D01*
X037866Y026078D01*
X037832Y026030D01*
X037801Y025980D01*
X037773Y025928D01*
X037749Y025874D01*
X037728Y025819D01*
X037711Y025763D01*
X037697Y025706D01*
X037688Y025647D01*
X037682Y025589D01*
X037680Y025530D01*
X037680Y022830D01*
X037682Y022771D01*
X037688Y022713D01*
X037697Y022654D01*
X037711Y022597D01*
X037728Y022541D01*
X037749Y022486D01*
X037773Y022432D01*
X037801Y022380D01*
X037832Y022330D01*
X037866Y022282D01*
X037903Y022237D01*
X037944Y022194D01*
X037987Y022153D01*
X038032Y022116D01*
X038080Y022082D01*
X038130Y022051D01*
X038182Y022023D01*
X038236Y021999D01*
X038291Y021978D01*
X038347Y021961D01*
X038404Y021947D01*
X038463Y021938D01*
X038521Y021932D01*
X038580Y021930D01*
X038639Y021932D01*
X038697Y021938D01*
X038756Y021947D01*
X038813Y021961D01*
X038869Y021978D01*
X038924Y021999D01*
X038978Y022023D01*
X039030Y022051D01*
X039080Y022082D01*
X039128Y022116D01*
X039173Y022153D01*
X039216Y022194D01*
X039257Y022237D01*
X039294Y022282D01*
X039328Y022330D01*
X039359Y022380D01*
X039387Y022432D01*
X039411Y022486D01*
X039432Y022541D01*
X039449Y022597D01*
X039463Y022654D01*
X039472Y022713D01*
X039478Y022771D01*
X039480Y022830D01*
X039480Y025530D01*
X012322Y016822D02*
X012322Y011538D01*
X007034Y011538D01*
X007034Y016822D01*
X012322Y016822D01*
X004655Y019405D02*
X001955Y019405D01*
X001896Y019407D01*
X001838Y019413D01*
X001779Y019422D01*
X001722Y019436D01*
X001666Y019453D01*
X001611Y019474D01*
X001557Y019498D01*
X001505Y019526D01*
X001455Y019557D01*
X001407Y019591D01*
X001362Y019628D01*
X001319Y019669D01*
X001278Y019712D01*
X001241Y019757D01*
X001207Y019805D01*
X001176Y019855D01*
X001148Y019907D01*
X001124Y019961D01*
X001103Y020016D01*
X001086Y020072D01*
X001072Y020129D01*
X001063Y020188D01*
X001057Y020246D01*
X001055Y020305D01*
X001057Y020364D01*
X001063Y020422D01*
X001072Y020481D01*
X001086Y020538D01*
X001103Y020594D01*
X001124Y020649D01*
X001148Y020703D01*
X001176Y020755D01*
X001207Y020805D01*
X001241Y020853D01*
X001278Y020898D01*
X001319Y020941D01*
X001362Y020982D01*
X001407Y021019D01*
X001455Y021053D01*
X001505Y021084D01*
X001557Y021112D01*
X001611Y021136D01*
X001666Y021157D01*
X001722Y021174D01*
X001779Y021188D01*
X001838Y021197D01*
X001896Y021203D01*
X001955Y021205D01*
X004655Y021205D01*
X004714Y021203D01*
X004772Y021197D01*
X004831Y021188D01*
X004888Y021174D01*
X004944Y021157D01*
X004999Y021136D01*
X005053Y021112D01*
X005105Y021084D01*
X005155Y021053D01*
X005203Y021019D01*
X005248Y020982D01*
X005291Y020941D01*
X005332Y020898D01*
X005369Y020853D01*
X005403Y020805D01*
X005434Y020755D01*
X005462Y020703D01*
X005486Y020649D01*
X005507Y020594D01*
X005524Y020538D01*
X005538Y020481D01*
X005547Y020422D01*
X005553Y020364D01*
X005555Y020305D01*
X005553Y020246D01*
X005547Y020188D01*
X005538Y020129D01*
X005524Y020072D01*
X005507Y020016D01*
X005486Y019961D01*
X005462Y019907D01*
X005434Y019855D01*
X005403Y019805D01*
X005369Y019757D01*
X005332Y019712D01*
X005291Y019669D01*
X005248Y019628D01*
X005203Y019591D01*
X005155Y019557D01*
X005105Y019526D01*
X005053Y019498D01*
X004999Y019474D01*
X004944Y019453D01*
X004888Y019436D01*
X004831Y019422D01*
X004772Y019413D01*
X004714Y019407D01*
X004655Y019405D01*
X003530Y035480D02*
X001830Y035480D01*
X001480Y036280D02*
X001480Y037085D01*
X001830Y037880D02*
X003530Y037880D01*
X003880Y037073D02*
X003880Y036280D01*
X001980Y036680D02*
X001982Y036732D01*
X001988Y036784D01*
X001998Y036836D01*
X002011Y036886D01*
X002028Y036936D01*
X002049Y036984D01*
X002074Y037030D01*
X002102Y037074D01*
X002133Y037116D01*
X002167Y037156D01*
X002204Y037193D01*
X002244Y037227D01*
X002286Y037258D01*
X002330Y037286D01*
X002376Y037311D01*
X002424Y037332D01*
X002474Y037349D01*
X002524Y037362D01*
X002576Y037372D01*
X002628Y037378D01*
X002680Y037380D01*
X002732Y037378D01*
X002784Y037372D01*
X002836Y037362D01*
X002886Y037349D01*
X002936Y037332D01*
X002984Y037311D01*
X003030Y037286D01*
X003074Y037258D01*
X003116Y037227D01*
X003156Y037193D01*
X003193Y037156D01*
X003227Y037116D01*
X003258Y037074D01*
X003286Y037030D01*
X003311Y036984D01*
X003332Y036936D01*
X003349Y036886D01*
X003362Y036836D01*
X003372Y036784D01*
X003378Y036732D01*
X003380Y036680D01*
X003378Y036628D01*
X003372Y036576D01*
X003362Y036524D01*
X003349Y036474D01*
X003332Y036424D01*
X003311Y036376D01*
X003286Y036330D01*
X003258Y036286D01*
X003227Y036244D01*
X003193Y036204D01*
X003156Y036167D01*
X003116Y036133D01*
X003074Y036102D01*
X003030Y036074D01*
X002984Y036049D01*
X002936Y036028D01*
X002886Y036011D01*
X002836Y035998D01*
X002784Y035988D01*
X002732Y035982D01*
X002680Y035980D01*
X002628Y035982D01*
X002576Y035988D01*
X002524Y035998D01*
X002474Y036011D01*
X002424Y036028D01*
X002376Y036049D01*
X002330Y036074D01*
X002286Y036102D01*
X002244Y036133D01*
X002204Y036167D01*
X002167Y036204D01*
X002133Y036244D01*
X002102Y036286D01*
X002074Y036330D01*
X002049Y036376D01*
X002028Y036424D01*
X002011Y036474D01*
X001998Y036524D01*
X001988Y036576D01*
X001982Y036628D01*
X001980Y036680D01*
X005818Y035943D02*
X005818Y037443D01*
D17*
X005605Y033680D03*
X007755Y033680D03*
X012605Y033680D03*
X014755Y033680D03*
X006255Y029305D03*
X006255Y028305D03*
X006255Y027305D03*
X006255Y026305D03*
X006255Y025305D03*
X004105Y025305D03*
X004105Y026305D03*
X004105Y027305D03*
X004105Y028305D03*
X004105Y029305D03*
X011355Y026180D03*
X011355Y025180D03*
X011355Y024180D03*
X011355Y023180D03*
X011355Y022180D03*
X013505Y022180D03*
X013505Y023180D03*
X013505Y024180D03*
X013505Y025180D03*
X013505Y026180D03*
X003755Y016930D03*
X003755Y015680D03*
X001605Y015680D03*
X001605Y016930D03*
X040605Y005180D03*
X042755Y005180D03*
X044605Y005180D03*
X046755Y005180D03*
D18*
X046930Y018868D02*
X046930Y019168D01*
X046930Y019468D01*
X047130Y019468D02*
X047130Y019168D01*
X047130Y018868D01*
X051580Y019380D02*
X051580Y019680D01*
X051580Y019980D01*
X051780Y019980D02*
X051780Y019680D01*
X051780Y019380D01*
X053780Y019380D02*
X053780Y019680D01*
X053780Y019980D01*
X053980Y019980D02*
X053980Y019680D01*
X053980Y019380D01*
X051837Y021924D02*
X046523Y021924D01*
X046424Y022023D01*
X046424Y027141D01*
X046719Y027436D01*
X051837Y027436D01*
X051936Y027337D01*
X051936Y022023D01*
X051837Y021924D01*
X054880Y026380D02*
X054880Y026680D01*
X054880Y026980D01*
X055080Y026980D02*
X055080Y026680D01*
X055080Y026380D01*
X054580Y028680D02*
X054580Y028980D01*
X054580Y029280D01*
X054380Y029280D02*
X054380Y028980D01*
X054380Y028680D01*
X046720Y027042D02*
X046722Y027061D01*
X046727Y027080D01*
X046737Y027096D01*
X046749Y027111D01*
X046764Y027123D01*
X046780Y027133D01*
X046799Y027138D01*
X046818Y027140D01*
X046837Y027138D01*
X046856Y027133D01*
X046872Y027123D01*
X046887Y027111D01*
X046899Y027096D01*
X046909Y027080D01*
X046914Y027061D01*
X046916Y027042D01*
X046914Y027023D01*
X046909Y027004D01*
X046899Y026988D01*
X046887Y026973D01*
X046872Y026961D01*
X046856Y026951D01*
X046837Y026946D01*
X046818Y026944D01*
X046799Y026946D01*
X046780Y026951D01*
X046764Y026961D01*
X046749Y026973D01*
X046737Y026988D01*
X046727Y027004D01*
X046722Y027023D01*
X046720Y027042D01*
X043980Y024180D02*
X043980Y023880D01*
X043980Y023580D01*
X043780Y023580D02*
X043780Y023880D01*
X043780Y024180D01*
X041880Y025280D02*
X041880Y025580D01*
X041880Y025880D01*
X041680Y025880D02*
X041680Y025580D01*
X041680Y025280D01*
X039180Y027880D02*
X039180Y028180D01*
X039180Y028480D01*
X038980Y028480D02*
X038980Y028180D01*
X038980Y027880D01*
X041780Y029680D02*
X041780Y029980D01*
X041780Y030280D01*
X041980Y030280D02*
X041980Y029980D01*
X041980Y029680D01*
X046280Y030380D02*
X046280Y030680D01*
X046280Y030980D01*
X046480Y030980D02*
X046480Y030680D01*
X046480Y030380D01*
X042180Y022680D02*
X042180Y022380D01*
X042180Y022080D01*
X041980Y022080D02*
X041980Y022380D01*
X041980Y022680D01*
X039180Y020480D02*
X039180Y020180D01*
X039180Y019880D01*
X038980Y019880D02*
X038980Y020180D01*
X038980Y020480D01*
X016418Y010255D02*
X016118Y010255D01*
X015818Y010255D01*
X015818Y010055D02*
X016118Y010055D01*
X016418Y010055D01*
X011318Y008480D02*
X011318Y008180D01*
X011318Y007880D01*
X011118Y007880D02*
X011118Y008180D01*
X011118Y008480D01*
X007780Y008480D02*
X007780Y008180D01*
X007780Y007880D01*
X007580Y007880D02*
X007580Y008180D01*
X007580Y008480D01*
X007220Y012015D02*
X007222Y012049D01*
X007228Y012083D01*
X007238Y012116D01*
X007251Y012147D01*
X007269Y012177D01*
X007289Y012205D01*
X007313Y012230D01*
X007339Y012252D01*
X007367Y012270D01*
X007398Y012286D01*
X007430Y012298D01*
X007464Y012306D01*
X007498Y012310D01*
X007532Y012310D01*
X007566Y012306D01*
X007600Y012298D01*
X007632Y012286D01*
X007662Y012270D01*
X007691Y012252D01*
X007717Y012230D01*
X007741Y012205D01*
X007761Y012177D01*
X007779Y012147D01*
X007792Y012116D01*
X007802Y012083D01*
X007808Y012049D01*
X007810Y012015D01*
X007808Y011981D01*
X007802Y011947D01*
X007792Y011914D01*
X007779Y011883D01*
X007761Y011853D01*
X007741Y011825D01*
X007717Y011800D01*
X007691Y011778D01*
X007663Y011760D01*
X007632Y011744D01*
X007600Y011732D01*
X007566Y011724D01*
X007532Y011720D01*
X007498Y011720D01*
X007464Y011724D01*
X007430Y011732D01*
X007398Y011744D01*
X007367Y011760D01*
X007339Y011778D01*
X007313Y011800D01*
X007289Y011825D01*
X007269Y011853D01*
X007251Y011883D01*
X007238Y011914D01*
X007228Y011947D01*
X007222Y011981D01*
X007220Y012015D01*
X003743Y013780D02*
X003443Y013780D01*
X003143Y013780D01*
X003143Y013980D02*
X003443Y013980D01*
X003743Y013980D01*
X002105Y014030D02*
X001805Y014030D01*
X001505Y014030D01*
X001505Y013830D02*
X001805Y013830D01*
X002105Y013830D01*
X002080Y011718D02*
X002080Y011418D01*
X002080Y011118D01*
X002280Y011118D02*
X002280Y011418D01*
X002280Y011718D01*
X002705Y018130D02*
X002705Y018430D01*
X002705Y018730D01*
X002905Y018730D02*
X002905Y018430D01*
X002905Y018130D01*
X009130Y020080D02*
X009430Y020080D01*
X009730Y020080D01*
X009730Y020280D02*
X009430Y020280D01*
X009130Y020280D01*
X011580Y020180D02*
X011580Y019880D01*
X011780Y019880D02*
X011780Y020180D01*
X011780Y020480D01*
X011580Y020480D02*
X011580Y020180D01*
X015380Y015780D02*
X015680Y015780D01*
X015980Y015780D01*
X015980Y015580D02*
X015680Y015580D01*
X015380Y015580D01*
D19*
X005786Y035913D02*
X005858Y035967D01*
X005857Y035966D02*
X005900Y035913D01*
X005945Y035862D01*
X005994Y035814D01*
X006045Y035769D01*
X006099Y035726D01*
X006155Y035687D01*
X006213Y035651D01*
X006273Y035618D01*
X006334Y035589D01*
X006398Y035564D01*
X006462Y035542D01*
X006528Y035523D01*
X006595Y035509D01*
X006662Y035498D01*
X006730Y035491D01*
X006798Y035488D01*
X006867Y035489D01*
X006935Y035494D01*
X007003Y035502D01*
X007070Y035515D01*
X007136Y035531D01*
X007201Y035551D01*
X007266Y035574D01*
X007328Y035601D01*
X007389Y035632D01*
X007448Y035666D01*
X007506Y035703D01*
X007561Y035744D01*
X007613Y035788D01*
X007663Y035834D01*
X007710Y035883D01*
X007755Y035935D01*
X007796Y035989D01*
X007835Y036046D01*
X007870Y036105D01*
X007901Y036165D01*
X007929Y036227D01*
X007954Y036291D01*
X007975Y036356D01*
X007992Y036422D01*
X008006Y036489D01*
X008015Y036557D01*
X008021Y036625D01*
X008023Y036693D01*
X008021Y036761D01*
X008015Y036829D01*
X008006Y036897D01*
X007992Y036964D01*
X007975Y037030D01*
X007954Y037095D01*
X007929Y037159D01*
X007901Y037221D01*
X007870Y037281D01*
X007835Y037340D01*
X007796Y037397D01*
X007755Y037451D01*
X007710Y037503D01*
X007663Y037552D01*
X007613Y037598D01*
X007561Y037642D01*
X007506Y037683D01*
X007448Y037720D01*
X007389Y037754D01*
X007328Y037785D01*
X007266Y037812D01*
X007201Y037835D01*
X007136Y037855D01*
X007070Y037871D01*
X007003Y037884D01*
X006935Y037892D01*
X006867Y037897D01*
X006798Y037898D01*
X006730Y037895D01*
X006662Y037888D01*
X006595Y037877D01*
X006528Y037863D01*
X006462Y037844D01*
X006398Y037822D01*
X006334Y037797D01*
X006273Y037768D01*
X006213Y037735D01*
X006155Y037699D01*
X006099Y037660D01*
X006045Y037617D01*
X005994Y037572D01*
X005945Y037524D01*
X005900Y037473D01*
X005857Y037420D01*
X005786Y037473D01*
X005785Y037474D01*
X005829Y037529D01*
X005877Y037582D01*
X005927Y037633D01*
X005980Y037680D01*
X006035Y037724D01*
X006093Y037766D01*
X006153Y037804D01*
X006214Y037839D01*
X006278Y037870D01*
X006343Y037898D01*
X006410Y037922D01*
X006478Y037943D01*
X006547Y037959D01*
X006617Y037972D01*
X006687Y037981D01*
X006758Y037987D01*
X006829Y037988D01*
X006900Y037985D01*
X006971Y037979D01*
X007041Y037969D01*
X007110Y037955D01*
X007179Y037937D01*
X007247Y037915D01*
X007313Y037890D01*
X007378Y037861D01*
X007441Y037828D01*
X007502Y037792D01*
X007561Y037753D01*
X007618Y037711D01*
X007673Y037666D01*
X007725Y037617D01*
X007774Y037566D01*
X007821Y037513D01*
X007864Y037456D01*
X007904Y037398D01*
X007941Y037337D01*
X007975Y037275D01*
X008005Y037211D01*
X008032Y037145D01*
X008055Y037078D01*
X008074Y037009D01*
X008089Y036940D01*
X008101Y036870D01*
X008109Y036799D01*
X008113Y036728D01*
X008113Y036658D01*
X008109Y036587D01*
X008101Y036516D01*
X008089Y036446D01*
X008074Y036377D01*
X008055Y036308D01*
X008032Y036241D01*
X008005Y036175D01*
X007975Y036111D01*
X007941Y036049D01*
X007904Y035988D01*
X007864Y035930D01*
X007821Y035873D01*
X007774Y035820D01*
X007725Y035769D01*
X007673Y035720D01*
X007618Y035675D01*
X007561Y035633D01*
X007502Y035594D01*
X007441Y035558D01*
X007378Y035525D01*
X007313Y035496D01*
X007247Y035471D01*
X007179Y035449D01*
X007110Y035431D01*
X007041Y035417D01*
X006971Y035407D01*
X006900Y035401D01*
X006829Y035398D01*
X006758Y035399D01*
X006687Y035405D01*
X006617Y035414D01*
X006547Y035427D01*
X006478Y035443D01*
X006410Y035464D01*
X006343Y035488D01*
X006278Y035516D01*
X006214Y035547D01*
X006153Y035582D01*
X006093Y035620D01*
X006035Y035662D01*
X005980Y035706D01*
X005927Y035753D01*
X005877Y035804D01*
X005829Y035857D01*
X005785Y035912D01*
X005792Y035917D01*
X005837Y035862D01*
X005884Y035809D01*
X005935Y035758D01*
X005988Y035711D01*
X006044Y035666D01*
X006102Y035625D01*
X006162Y035587D01*
X006224Y035552D01*
X006288Y035521D01*
X006354Y035494D01*
X006421Y035470D01*
X006490Y035450D01*
X006559Y035433D01*
X006629Y035421D01*
X006700Y035412D01*
X006771Y035408D01*
X006842Y035407D01*
X006913Y035411D01*
X006984Y035418D01*
X007055Y035429D01*
X007124Y035444D01*
X007193Y035463D01*
X007261Y035486D01*
X007327Y035512D01*
X007392Y035542D01*
X007454Y035576D01*
X007515Y035612D01*
X007574Y035653D01*
X007631Y035696D01*
X007685Y035743D01*
X007736Y035792D01*
X007784Y035845D01*
X007830Y035899D01*
X007872Y035957D01*
X007911Y036016D01*
X007947Y036078D01*
X007980Y036141D01*
X008008Y036206D01*
X008034Y036273D01*
X008055Y036341D01*
X008073Y036410D01*
X008086Y036480D01*
X008096Y036551D01*
X008102Y036622D01*
X008104Y036693D01*
X008102Y036764D01*
X008096Y036835D01*
X008086Y036906D01*
X008073Y036976D01*
X008055Y037045D01*
X008034Y037113D01*
X008008Y037180D01*
X007980Y037245D01*
X007947Y037308D01*
X007911Y037370D01*
X007872Y037429D01*
X007830Y037487D01*
X007784Y037541D01*
X007736Y037594D01*
X007685Y037643D01*
X007631Y037690D01*
X007574Y037733D01*
X007515Y037774D01*
X007454Y037810D01*
X007392Y037844D01*
X007327Y037874D01*
X007261Y037900D01*
X007193Y037923D01*
X007124Y037942D01*
X007055Y037957D01*
X006984Y037968D01*
X006913Y037975D01*
X006842Y037979D01*
X006771Y037978D01*
X006700Y037974D01*
X006629Y037965D01*
X006559Y037953D01*
X006490Y037936D01*
X006421Y037916D01*
X006354Y037892D01*
X006288Y037865D01*
X006224Y037834D01*
X006162Y037799D01*
X006102Y037761D01*
X006044Y037720D01*
X005988Y037675D01*
X005935Y037628D01*
X005884Y037577D01*
X005837Y037524D01*
X005792Y037469D01*
X005799Y037463D01*
X005844Y037518D01*
X005891Y037571D01*
X005941Y037621D01*
X005994Y037668D01*
X006049Y037712D01*
X006107Y037754D01*
X006166Y037791D01*
X006228Y037826D01*
X006292Y037857D01*
X006357Y037884D01*
X006424Y037908D01*
X006492Y037928D01*
X006561Y037944D01*
X006630Y037956D01*
X006701Y037965D01*
X006771Y037969D01*
X006842Y037970D01*
X006913Y037966D01*
X006983Y037959D01*
X007053Y037948D01*
X007122Y037933D01*
X007190Y037914D01*
X007258Y037892D01*
X007323Y037866D01*
X007388Y037836D01*
X007450Y037803D01*
X007510Y037766D01*
X007569Y037726D01*
X007625Y037683D01*
X007679Y037637D01*
X007729Y037587D01*
X007778Y037536D01*
X007823Y037481D01*
X007865Y037424D01*
X007904Y037365D01*
X007939Y037304D01*
X007972Y037241D01*
X008000Y037176D01*
X008025Y037110D01*
X008046Y037042D01*
X008064Y036974D01*
X008077Y036904D01*
X008087Y036834D01*
X008093Y036764D01*
X008095Y036693D01*
X008093Y036622D01*
X008087Y036552D01*
X008077Y036482D01*
X008064Y036412D01*
X008046Y036344D01*
X008025Y036276D01*
X008000Y036210D01*
X007972Y036145D01*
X007939Y036082D01*
X007904Y036021D01*
X007865Y035962D01*
X007823Y035905D01*
X007778Y035850D01*
X007729Y035799D01*
X007679Y035749D01*
X007625Y035703D01*
X007569Y035660D01*
X007510Y035620D01*
X007450Y035583D01*
X007388Y035550D01*
X007323Y035520D01*
X007258Y035494D01*
X007190Y035472D01*
X007122Y035453D01*
X007053Y035438D01*
X006983Y035427D01*
X006913Y035420D01*
X006842Y035416D01*
X006771Y035417D01*
X006701Y035421D01*
X006630Y035430D01*
X006561Y035442D01*
X006492Y035458D01*
X006424Y035478D01*
X006357Y035502D01*
X006292Y035529D01*
X006228Y035560D01*
X006166Y035595D01*
X006107Y035632D01*
X006049Y035674D01*
X005994Y035718D01*
X005941Y035765D01*
X005891Y035815D01*
X005844Y035868D01*
X005799Y035923D01*
X005807Y035928D01*
X005851Y035873D01*
X005899Y035820D01*
X005949Y035770D01*
X006002Y035722D01*
X006058Y035678D01*
X006116Y035637D01*
X006176Y035600D01*
X006238Y035565D01*
X006302Y035535D01*
X006368Y035508D01*
X006435Y035484D01*
X006503Y035465D01*
X006573Y035449D01*
X006643Y035437D01*
X006713Y035429D01*
X006784Y035425D01*
X006855Y035426D01*
X006926Y035430D01*
X006997Y035438D01*
X007067Y035450D01*
X007136Y035466D01*
X007204Y035485D01*
X007272Y035509D01*
X007337Y035536D01*
X007401Y035567D01*
X007463Y035601D01*
X007523Y035639D01*
X007581Y035681D01*
X007637Y035725D01*
X007690Y035772D01*
X007740Y035823D01*
X007787Y035876D01*
X007832Y035931D01*
X007873Y035989D01*
X007910Y036049D01*
X007945Y036112D01*
X007976Y036176D01*
X008003Y036241D01*
X008026Y036308D01*
X008046Y036377D01*
X008062Y036446D01*
X008074Y036516D01*
X008082Y036587D01*
X008086Y036657D01*
X008086Y036729D01*
X008082Y036799D01*
X008074Y036870D01*
X008062Y036940D01*
X008046Y037009D01*
X008026Y037078D01*
X008003Y037145D01*
X007976Y037210D01*
X007945Y037274D01*
X007910Y037337D01*
X007873Y037397D01*
X007832Y037455D01*
X007787Y037510D01*
X007740Y037563D01*
X007690Y037614D01*
X007637Y037661D01*
X007581Y037705D01*
X007523Y037747D01*
X007463Y037785D01*
X007401Y037819D01*
X007337Y037850D01*
X007272Y037877D01*
X007204Y037901D01*
X007136Y037920D01*
X007067Y037936D01*
X006997Y037948D01*
X006926Y037956D01*
X006855Y037960D01*
X006784Y037961D01*
X006713Y037957D01*
X006643Y037949D01*
X006573Y037937D01*
X006503Y037921D01*
X006435Y037902D01*
X006368Y037878D01*
X006302Y037851D01*
X006238Y037821D01*
X006176Y037786D01*
X006116Y037749D01*
X006058Y037708D01*
X006002Y037664D01*
X005949Y037616D01*
X005899Y037566D01*
X005851Y037513D01*
X005807Y037458D01*
X005814Y037452D01*
X005858Y037507D01*
X005905Y037560D01*
X005955Y037610D01*
X006008Y037657D01*
X006063Y037701D01*
X006121Y037741D01*
X006180Y037779D01*
X006242Y037813D01*
X006306Y037843D01*
X006371Y037870D01*
X006438Y037893D01*
X006506Y037913D01*
X006574Y037928D01*
X006644Y037940D01*
X006714Y037948D01*
X006785Y037952D01*
X006855Y037951D01*
X006926Y037947D01*
X006996Y037939D01*
X007065Y037927D01*
X007134Y037912D01*
X007202Y037892D01*
X007268Y037869D01*
X007333Y037842D01*
X007397Y037811D01*
X007459Y037777D01*
X007518Y037739D01*
X007576Y037698D01*
X007631Y037654D01*
X007684Y037607D01*
X007733Y037557D01*
X007780Y037505D01*
X007824Y037449D01*
X007865Y037392D01*
X007903Y037332D01*
X007937Y037270D01*
X007967Y037207D01*
X007994Y037142D01*
X008018Y037075D01*
X008037Y037007D01*
X008053Y036938D01*
X008065Y036869D01*
X008073Y036799D01*
X008077Y036728D01*
X008077Y036658D01*
X008073Y036587D01*
X008065Y036517D01*
X008053Y036448D01*
X008037Y036379D01*
X008018Y036311D01*
X007994Y036244D01*
X007967Y036179D01*
X007937Y036116D01*
X007903Y036054D01*
X007865Y035994D01*
X007824Y035937D01*
X007780Y035881D01*
X007733Y035829D01*
X007684Y035779D01*
X007631Y035732D01*
X007576Y035688D01*
X007518Y035647D01*
X007459Y035609D01*
X007397Y035575D01*
X007333Y035544D01*
X007268Y035517D01*
X007202Y035494D01*
X007134Y035474D01*
X007065Y035459D01*
X006996Y035447D01*
X006926Y035439D01*
X006855Y035435D01*
X006785Y035434D01*
X006714Y035438D01*
X006644Y035446D01*
X006574Y035458D01*
X006506Y035473D01*
X006438Y035493D01*
X006371Y035516D01*
X006306Y035543D01*
X006242Y035573D01*
X006180Y035607D01*
X006121Y035645D01*
X006063Y035685D01*
X006008Y035729D01*
X005955Y035776D01*
X005905Y035826D01*
X005858Y035879D01*
X005814Y035934D01*
X005821Y035939D01*
X005865Y035884D01*
X005912Y035832D01*
X005961Y035783D01*
X006014Y035736D01*
X006068Y035693D01*
X006126Y035652D01*
X006185Y035615D01*
X006246Y035581D01*
X006310Y035551D01*
X006374Y035524D01*
X006441Y035501D01*
X006508Y035482D01*
X006576Y035467D01*
X006645Y035455D01*
X006715Y035447D01*
X006785Y035443D01*
X006855Y035444D01*
X006925Y035448D01*
X006994Y035456D01*
X007063Y035467D01*
X007132Y035483D01*
X007199Y035502D01*
X007265Y035526D01*
X007330Y035553D01*
X007393Y035583D01*
X007454Y035617D01*
X007513Y035654D01*
X007571Y035695D01*
X007625Y035739D01*
X007677Y035785D01*
X007727Y035835D01*
X007774Y035887D01*
X007817Y035942D01*
X007858Y035999D01*
X007895Y036058D01*
X007929Y036120D01*
X007959Y036183D01*
X007986Y036248D01*
X008009Y036314D01*
X008028Y036381D01*
X008044Y036449D01*
X008056Y036518D01*
X008064Y036588D01*
X008068Y036658D01*
X008068Y036728D01*
X008064Y036798D01*
X008056Y036868D01*
X008044Y036937D01*
X008028Y037005D01*
X008009Y037072D01*
X007986Y037138D01*
X007959Y037203D01*
X007929Y037266D01*
X007895Y037328D01*
X007858Y037387D01*
X007817Y037444D01*
X007774Y037499D01*
X007727Y037551D01*
X007677Y037601D01*
X007625Y037647D01*
X007571Y037691D01*
X007513Y037732D01*
X007454Y037769D01*
X007393Y037803D01*
X007330Y037833D01*
X007265Y037860D01*
X007199Y037884D01*
X007132Y037903D01*
X007063Y037919D01*
X006994Y037930D01*
X006925Y037938D01*
X006855Y037942D01*
X006785Y037943D01*
X006715Y037939D01*
X006645Y037931D01*
X006576Y037919D01*
X006508Y037904D01*
X006441Y037885D01*
X006374Y037862D01*
X006310Y037835D01*
X006246Y037805D01*
X006185Y037771D01*
X006126Y037734D01*
X006068Y037693D01*
X006014Y037650D01*
X005961Y037603D01*
X005912Y037554D01*
X005865Y037502D01*
X005821Y037447D01*
X005828Y037442D01*
X005872Y037496D01*
X005918Y037548D01*
X005967Y037597D01*
X006019Y037643D01*
X006074Y037686D01*
X006131Y037726D01*
X006190Y037763D01*
X006251Y037797D01*
X006313Y037827D01*
X006378Y037853D01*
X006443Y037876D01*
X006510Y037895D01*
X006578Y037911D01*
X006647Y037922D01*
X006716Y037930D01*
X006785Y037934D01*
X006855Y037933D01*
X006924Y037929D01*
X006993Y037922D01*
X007062Y037910D01*
X007129Y037894D01*
X007196Y037875D01*
X007262Y037852D01*
X007326Y037825D01*
X007389Y037795D01*
X007450Y037761D01*
X007508Y037724D01*
X007565Y037684D01*
X007619Y037641D01*
X007671Y037594D01*
X007720Y037545D01*
X007767Y037493D01*
X007810Y037439D01*
X007850Y037382D01*
X007887Y037323D01*
X007921Y037262D01*
X007951Y037199D01*
X007978Y037135D01*
X008001Y037070D01*
X008020Y037003D01*
X008035Y036935D01*
X008047Y036866D01*
X008055Y036797D01*
X008059Y036728D01*
X008059Y036658D01*
X008055Y036589D01*
X008047Y036520D01*
X008035Y036451D01*
X008020Y036383D01*
X008001Y036316D01*
X007978Y036251D01*
X007951Y036187D01*
X007921Y036124D01*
X007887Y036063D01*
X007850Y036004D01*
X007810Y035947D01*
X007767Y035893D01*
X007720Y035841D01*
X007671Y035792D01*
X007619Y035745D01*
X007565Y035702D01*
X007508Y035662D01*
X007450Y035625D01*
X007389Y035591D01*
X007326Y035561D01*
X007262Y035534D01*
X007196Y035511D01*
X007129Y035492D01*
X007062Y035476D01*
X006993Y035464D01*
X006924Y035457D01*
X006855Y035453D01*
X006785Y035452D01*
X006716Y035456D01*
X006647Y035464D01*
X006578Y035475D01*
X006510Y035491D01*
X006443Y035510D01*
X006378Y035533D01*
X006313Y035559D01*
X006251Y035589D01*
X006190Y035623D01*
X006131Y035660D01*
X006074Y035700D01*
X006019Y035743D01*
X005967Y035789D01*
X005918Y035838D01*
X005872Y035890D01*
X005828Y035944D01*
X005835Y035950D01*
X005879Y035896D01*
X005925Y035845D01*
X005974Y035796D01*
X006025Y035750D01*
X006079Y035707D01*
X006136Y035667D01*
X006194Y035631D01*
X006255Y035597D01*
X006317Y035567D01*
X006381Y035541D01*
X006446Y035519D01*
X006512Y035500D01*
X006580Y035484D01*
X006648Y035473D01*
X006716Y035465D01*
X006785Y035461D01*
X006854Y035462D01*
X006923Y035466D01*
X006992Y035473D01*
X007060Y035485D01*
X007127Y035500D01*
X007194Y035520D01*
X007259Y035543D01*
X007322Y035569D01*
X007385Y035599D01*
X007445Y035632D01*
X007503Y035669D01*
X007560Y035709D01*
X007614Y035752D01*
X007665Y035798D01*
X007714Y035847D01*
X007760Y035899D01*
X007803Y035953D01*
X007843Y036009D01*
X007879Y036068D01*
X007913Y036128D01*
X007943Y036190D01*
X007969Y036254D01*
X007992Y036319D01*
X008011Y036386D01*
X008026Y036453D01*
X008038Y036521D01*
X008046Y036590D01*
X008050Y036658D01*
X008050Y036728D01*
X008046Y036796D01*
X008038Y036865D01*
X008026Y036933D01*
X008011Y037000D01*
X007992Y037067D01*
X007969Y037132D01*
X007943Y037196D01*
X007913Y037258D01*
X007879Y037318D01*
X007843Y037377D01*
X007803Y037433D01*
X007760Y037487D01*
X007714Y037539D01*
X007665Y037588D01*
X007614Y037634D01*
X007560Y037677D01*
X007503Y037717D01*
X007445Y037754D01*
X007385Y037787D01*
X007322Y037817D01*
X007259Y037843D01*
X007194Y037866D01*
X007127Y037886D01*
X007060Y037901D01*
X006992Y037913D01*
X006923Y037920D01*
X006854Y037924D01*
X006785Y037925D01*
X006716Y037921D01*
X006648Y037913D01*
X006580Y037902D01*
X006512Y037886D01*
X006446Y037867D01*
X006381Y037845D01*
X006317Y037819D01*
X006255Y037789D01*
X006194Y037755D01*
X006136Y037719D01*
X006079Y037679D01*
X006025Y037636D01*
X005974Y037590D01*
X005925Y037541D01*
X005879Y037490D01*
X005835Y037436D01*
X005843Y037431D01*
X005886Y037485D01*
X005932Y037536D01*
X005982Y037585D01*
X006033Y037631D01*
X006088Y037674D01*
X006145Y037714D01*
X006203Y037750D01*
X006264Y037784D01*
X006327Y037813D01*
X006391Y037839D01*
X006457Y037861D01*
X006524Y037880D01*
X006591Y037895D01*
X006660Y037906D01*
X006729Y037913D01*
X006798Y037916D01*
X006867Y037915D01*
X006937Y037910D01*
X007005Y037902D01*
X007073Y037889D01*
X007141Y037873D01*
X007207Y037852D01*
X007272Y037829D01*
X007336Y037801D01*
X007398Y037770D01*
X007458Y037735D01*
X007516Y037697D01*
X007572Y037656D01*
X007625Y037612D01*
X007676Y037565D01*
X007724Y037515D01*
X007769Y037462D01*
X007811Y037407D01*
X007850Y037350D01*
X007885Y037290D01*
X007917Y037229D01*
X007946Y037166D01*
X007971Y037101D01*
X007992Y037035D01*
X008010Y036968D01*
X008023Y036900D01*
X008033Y036831D01*
X008039Y036762D01*
X008041Y036693D01*
X008039Y036624D01*
X008033Y036555D01*
X008023Y036486D01*
X008010Y036418D01*
X007992Y036351D01*
X007971Y036285D01*
X007946Y036220D01*
X007917Y036157D01*
X007885Y036096D01*
X007850Y036036D01*
X007811Y035979D01*
X007769Y035924D01*
X007724Y035871D01*
X007676Y035821D01*
X007625Y035774D01*
X007572Y035730D01*
X007516Y035689D01*
X007458Y035651D01*
X007398Y035616D01*
X007336Y035585D01*
X007272Y035557D01*
X007207Y035534D01*
X007141Y035513D01*
X007073Y035497D01*
X007005Y035484D01*
X006937Y035476D01*
X006867Y035471D01*
X006798Y035470D01*
X006729Y035473D01*
X006660Y035480D01*
X006591Y035491D01*
X006524Y035506D01*
X006457Y035525D01*
X006391Y035547D01*
X006327Y035573D01*
X006264Y035602D01*
X006203Y035636D01*
X006145Y035672D01*
X006088Y035712D01*
X006033Y035755D01*
X005982Y035801D01*
X005932Y035850D01*
X005886Y035901D01*
X005843Y035955D01*
X005850Y035961D01*
X005893Y035907D01*
X005939Y035856D01*
X005988Y035807D01*
X006039Y035762D01*
X006093Y035719D01*
X006150Y035680D01*
X006208Y035643D01*
X006268Y035610D01*
X006331Y035581D01*
X006394Y035555D01*
X006460Y035533D01*
X006526Y035515D01*
X006593Y035500D01*
X006661Y035489D01*
X006730Y035482D01*
X006798Y035479D01*
X006867Y035480D01*
X006936Y035485D01*
X007004Y035493D01*
X007072Y035506D01*
X007138Y035522D01*
X007204Y035542D01*
X007269Y035566D01*
X007332Y035593D01*
X007393Y035624D01*
X007453Y035658D01*
X007511Y035696D01*
X007566Y035737D01*
X007619Y035781D01*
X007669Y035828D01*
X007717Y035877D01*
X007762Y035929D01*
X007804Y035984D01*
X007842Y036041D01*
X007877Y036100D01*
X007909Y036161D01*
X007938Y036224D01*
X007962Y036288D01*
X007984Y036354D01*
X008001Y036420D01*
X008014Y036488D01*
X008024Y036556D01*
X008030Y036624D01*
X008032Y036693D01*
X008030Y036762D01*
X008024Y036830D01*
X008014Y036898D01*
X008001Y036966D01*
X007984Y037032D01*
X007962Y037098D01*
X007938Y037162D01*
X007909Y037225D01*
X007877Y037286D01*
X007842Y037345D01*
X007804Y037402D01*
X007762Y037457D01*
X007717Y037509D01*
X007669Y037558D01*
X007619Y037605D01*
X007566Y037649D01*
X007511Y037690D01*
X007453Y037728D01*
X007393Y037762D01*
X007332Y037793D01*
X007269Y037820D01*
X007204Y037844D01*
X007138Y037864D01*
X007072Y037880D01*
X007004Y037893D01*
X006936Y037901D01*
X006867Y037906D01*
X006798Y037907D01*
X006730Y037904D01*
X006661Y037897D01*
X006593Y037886D01*
X006526Y037871D01*
X006460Y037853D01*
X006394Y037831D01*
X006331Y037805D01*
X006268Y037776D01*
X006208Y037743D01*
X006150Y037706D01*
X006093Y037667D01*
X006039Y037624D01*
X005988Y037579D01*
X005939Y037530D01*
X005893Y037479D01*
X005850Y037425D01*
D20*
X005260Y031680D03*
X008100Y031680D03*
X037260Y016680D03*
X037260Y015180D03*
X040100Y015180D03*
X040100Y016680D03*
X040100Y012680D03*
X040100Y011180D03*
X037260Y011180D03*
X037260Y012680D03*
X037260Y008680D03*
X037260Y007180D03*
X040100Y007180D03*
X040100Y008680D03*
X051260Y008680D03*
X051260Y007180D03*
X054100Y007180D03*
X054100Y008680D03*
X054100Y011180D03*
X054100Y012680D03*
X051260Y012680D03*
X051260Y011180D03*
X051260Y015180D03*
X051260Y016680D03*
X054100Y016680D03*
X054100Y015180D03*
X051800Y030580D03*
X048960Y030580D03*
D21*
X015680Y027255D03*
X015680Y025105D03*
X015680Y022255D03*
X015680Y020105D03*
X010680Y035105D03*
X010680Y037255D03*
D22*
X017965Y025027D02*
X018279Y024713D01*
X018122Y024713D02*
X018122Y025027D01*
X018279Y025027D02*
X017965Y024713D01*
X017965Y024870D02*
X018279Y024870D01*
D23*
X047230Y016680D03*
X047230Y015180D03*
X047230Y012680D03*
X047230Y011180D03*
X047230Y008680D03*
X047230Y007180D03*
D24*
X047855Y007180D03*
X047855Y008680D03*
X045505Y008680D03*
X045505Y007180D03*
X045505Y011180D03*
X045505Y012680D03*
X047855Y012680D03*
X047855Y011180D03*
X047855Y015180D03*
X047855Y016680D03*
X045505Y016680D03*
X045505Y015180D03*
M02*
