G75*
G70*
%OFA0B0*%
%FSLAX24Y24*%
%IPPOS*%
%LPD*%
%AMOC8*
5,1,8,0,0,1.08239X$1,22.5*
%
%ADD10OC8,0.0520*%
%ADD11R,0.1000X0.2500*%
%ADD12C,0.0520*%
%ADD13C,0.0100*%
%ADD14C,0.0400*%
%ADD15C,0.0160*%
D10*
X026740Y007100D03*
X026740Y008100D03*
D11*
X027108Y021774D03*
X025548Y021774D03*
X023988Y021774D03*
X022428Y021774D03*
X020868Y021774D03*
X019308Y021774D03*
X017748Y021774D03*
X016188Y021774D03*
X014628Y021774D03*
X013068Y021774D03*
X011508Y021774D03*
X009948Y021774D03*
X008388Y021774D03*
X006828Y021774D03*
X005268Y021774D03*
X003708Y021774D03*
X002148Y021774D03*
X028668Y021774D03*
D12*
X022680Y011940D02*
X022680Y011420D01*
X021680Y011420D02*
X021680Y011940D01*
X020680Y011940D02*
X020680Y011420D01*
X019680Y011420D02*
X019680Y011940D01*
X018680Y011940D02*
X018680Y011420D01*
X017680Y011420D02*
X017680Y011940D01*
X016680Y011940D02*
X016680Y011420D01*
X015680Y011420D02*
X015680Y011940D01*
X014680Y011940D02*
X014680Y011420D01*
X013680Y011420D02*
X013680Y011940D01*
X012680Y011940D02*
X012680Y011420D01*
X011680Y011420D02*
X011680Y011940D01*
X010680Y011940D02*
X010680Y011420D01*
X009680Y011420D02*
X009680Y011940D01*
X009680Y005940D02*
X009680Y005420D01*
X010680Y005420D02*
X010680Y005940D01*
X011680Y005940D02*
X011680Y005420D01*
X012680Y005420D02*
X012680Y005940D01*
X013680Y005940D02*
X013680Y005420D01*
X014680Y005420D02*
X014680Y005940D01*
X015680Y005940D02*
X015680Y005420D01*
X016680Y005420D02*
X016680Y005940D01*
X017680Y005940D02*
X017680Y005420D01*
X018680Y005420D02*
X018680Y005940D01*
X019680Y005940D02*
X019680Y005420D01*
X020680Y005420D02*
X020680Y005940D01*
X021680Y005940D02*
X021680Y005420D01*
X022680Y005420D02*
X022680Y005940D01*
D13*
X021680Y011680D02*
X021680Y017180D01*
X021680Y018180D02*
X020680Y017180D01*
X020680Y011680D01*
X019680Y011680D02*
X019680Y018180D01*
X018680Y018180D02*
X018680Y011680D01*
X015680Y011680D02*
X015680Y017180D01*
X011680Y017180D02*
X010680Y018180D01*
X010680Y018680D01*
X010680Y017180D02*
X010680Y011680D01*
X011680Y011680D02*
X011680Y017180D01*
X008680Y017180D02*
X008680Y005680D01*
X009680Y005680D01*
X010680Y005680D02*
X010680Y005180D01*
X010180Y004680D01*
X008180Y004680D01*
X008180Y015680D01*
X007680Y016180D01*
X007680Y017180D01*
X005180Y017180D02*
X005180Y020680D01*
X005680Y021180D01*
X005680Y021680D01*
X005268Y021774D01*
X004180Y021680D02*
X003708Y021774D01*
X004180Y021680D02*
X003680Y021180D01*
X003680Y019680D01*
X004680Y019680D01*
X006680Y020680D02*
X006680Y015180D01*
X007680Y014180D01*
X006680Y020680D02*
X007180Y021180D01*
X007180Y021680D01*
X006828Y021774D01*
X024680Y011680D02*
X025180Y012180D01*
X025180Y021680D01*
X025548Y021774D01*
X026680Y021680D02*
X027108Y021774D01*
X026680Y021680D02*
X027180Y021180D01*
X027180Y019180D01*
X026680Y018680D01*
X026680Y018180D01*
X027680Y018180D02*
X028680Y019180D01*
X028680Y021680D01*
X028668Y021774D01*
D14*
X027680Y018180D03*
X026680Y018180D03*
X021680Y018180D03*
X021680Y017180D03*
X019680Y018180D03*
X018680Y018180D03*
X015680Y017180D03*
X010680Y017180D03*
X010680Y018680D03*
X008680Y017180D03*
X007680Y017180D03*
X005180Y017180D03*
X004680Y019680D03*
X007680Y014180D03*
X024680Y011680D03*
D15*
X001660Y020180D02*
X001660Y001660D01*
X029692Y001660D01*
X029692Y020180D01*
X028890Y020180D01*
X028890Y019093D01*
X028040Y018243D01*
X028040Y018108D01*
X027985Y017976D01*
X027884Y017875D01*
X027752Y017820D01*
X027608Y017820D01*
X027476Y017875D01*
X027375Y017976D01*
X027320Y018108D01*
X027320Y018252D01*
X027375Y018384D01*
X027476Y018485D01*
X027608Y018540D01*
X027743Y018540D01*
X028470Y019267D01*
X028470Y020180D01*
X027390Y020180D01*
X027390Y019093D01*
X026890Y018593D01*
X026890Y018479D01*
X026985Y018384D01*
X027040Y018252D01*
X027040Y018108D01*
X026985Y017976D01*
X026884Y017875D01*
X026752Y017820D01*
X026608Y017820D01*
X026476Y017875D01*
X026375Y017976D01*
X026320Y018108D01*
X026320Y018252D01*
X026375Y018384D01*
X026470Y018479D01*
X026470Y018767D01*
X026593Y018890D01*
X026970Y019267D01*
X026970Y020180D01*
X025390Y020180D01*
X025390Y012093D01*
X025267Y011970D01*
X025040Y011743D01*
X025040Y011608D01*
X024985Y011476D01*
X024884Y011375D01*
X024752Y011320D01*
X024608Y011320D01*
X024476Y011375D01*
X024420Y011431D01*
X024420Y009226D01*
X024421Y009225D01*
X024420Y009179D01*
X024420Y009132D01*
X024419Y009131D01*
X024419Y009129D01*
X024401Y009087D01*
X024383Y009044D01*
X024382Y009043D01*
X024382Y009042D01*
X024349Y009009D01*
X024316Y008977D01*
X024315Y008976D01*
X024313Y008975D01*
X024271Y008958D01*
X024228Y008940D01*
X024226Y008940D01*
X021920Y008018D01*
X021920Y006294D01*
X022036Y006178D01*
X022100Y006024D01*
X022100Y005336D01*
X022036Y005182D01*
X021918Y005064D01*
X021764Y005000D01*
X021596Y005000D01*
X021442Y005064D01*
X021324Y005182D01*
X021260Y005336D01*
X021260Y006024D01*
X021324Y006178D01*
X021440Y006294D01*
X021440Y008134D01*
X021439Y008135D01*
X021440Y008181D01*
X021440Y008228D01*
X021441Y008229D01*
X021441Y008231D01*
X021459Y008273D01*
X021477Y008316D01*
X021478Y008317D01*
X021478Y008318D01*
X021511Y008351D01*
X021544Y008383D01*
X021545Y008384D01*
X021547Y008385D01*
X021589Y008402D01*
X021632Y008420D01*
X021634Y008420D01*
X023940Y009342D01*
X023940Y020180D01*
X022420Y020180D01*
X022420Y012274D01*
X022442Y012296D01*
X022596Y012360D01*
X022764Y012360D01*
X022918Y012296D01*
X023036Y012178D01*
X023100Y012024D01*
X023100Y011336D01*
X023036Y011182D01*
X022918Y011064D01*
X022764Y011000D01*
X022596Y011000D01*
X022442Y011064D01*
X022420Y011086D01*
X022420Y009219D01*
X022423Y009211D01*
X022420Y009171D01*
X022420Y009132D01*
X022417Y009124D01*
X022416Y009115D01*
X022398Y009080D01*
X022383Y009044D01*
X022377Y009038D01*
X022373Y009030D01*
X022344Y009004D01*
X022316Y008977D01*
X022308Y008973D01*
X022301Y008967D01*
X022264Y008955D01*
X022228Y008940D01*
X022219Y008940D01*
X020920Y008507D01*
X020920Y006294D01*
X021036Y006178D01*
X021100Y006024D01*
X021100Y005336D01*
X021036Y005182D01*
X020918Y005064D01*
X020764Y005000D01*
X020596Y005000D01*
X020442Y005064D01*
X020324Y005182D01*
X020260Y005336D01*
X020260Y006024D01*
X020324Y006178D01*
X020440Y006294D01*
X020440Y008641D01*
X020437Y008649D01*
X020440Y008689D01*
X020440Y008728D01*
X020443Y008736D01*
X020444Y008745D01*
X020462Y008780D01*
X020477Y008816D01*
X020483Y008822D01*
X020487Y008830D01*
X020516Y008856D01*
X020544Y008883D01*
X020552Y008887D01*
X020559Y008893D01*
X020596Y008905D01*
X020632Y008920D01*
X020641Y008920D01*
X021940Y009353D01*
X021940Y011086D01*
X021918Y011064D01*
X021764Y011000D01*
X021596Y011000D01*
X021442Y011064D01*
X021324Y011182D01*
X021260Y011336D01*
X021260Y012024D01*
X021324Y012178D01*
X021442Y012296D01*
X021470Y012308D01*
X021470Y016881D01*
X021375Y016976D01*
X021320Y017108D01*
X021320Y017252D01*
X021375Y017384D01*
X021476Y017485D01*
X021608Y017540D01*
X021752Y017540D01*
X021884Y017485D01*
X021940Y017429D01*
X021940Y017931D01*
X021884Y017875D01*
X021752Y017820D01*
X021617Y017820D01*
X020890Y017093D01*
X020890Y012308D01*
X020918Y012296D01*
X021036Y012178D01*
X021100Y012024D01*
X021100Y011336D01*
X021036Y011182D01*
X020918Y011064D01*
X020764Y011000D01*
X020596Y011000D01*
X020442Y011064D01*
X020420Y011086D01*
X020420Y009132D01*
X020383Y009044D01*
X020316Y008977D01*
X019920Y008581D01*
X019920Y006294D01*
X020036Y006178D01*
X020100Y006024D01*
X020100Y005336D01*
X020036Y005182D01*
X019918Y005064D01*
X019764Y005000D01*
X019596Y005000D01*
X019442Y005064D01*
X019324Y005182D01*
X019260Y005336D01*
X019260Y006024D01*
X019324Y006178D01*
X019440Y006294D01*
X019440Y008728D01*
X019477Y008816D01*
X019940Y009279D01*
X019940Y011086D01*
X019918Y011064D01*
X019764Y011000D01*
X019596Y011000D01*
X019442Y011064D01*
X019420Y011086D01*
X019420Y009132D01*
X019383Y009044D01*
X019316Y008977D01*
X018920Y008581D01*
X018920Y006294D01*
X019036Y006178D01*
X019100Y006024D01*
X019100Y005336D01*
X019036Y005182D01*
X018918Y005064D01*
X018764Y005000D01*
X018596Y005000D01*
X018442Y005064D01*
X018324Y005182D01*
X018260Y005336D01*
X018260Y006024D01*
X018324Y006178D01*
X018440Y006294D01*
X018440Y008728D01*
X018477Y008816D01*
X018940Y009279D01*
X018940Y011086D01*
X018918Y011064D01*
X018764Y011000D01*
X018596Y011000D01*
X018442Y011064D01*
X018420Y011086D01*
X018420Y009132D01*
X018383Y009044D01*
X018316Y008977D01*
X017920Y008581D01*
X017920Y006294D01*
X018036Y006178D01*
X018100Y006024D01*
X018100Y005336D01*
X018036Y005182D01*
X017918Y005064D01*
X017764Y005000D01*
X017596Y005000D01*
X017442Y005064D01*
X017324Y005182D01*
X017260Y005336D01*
X017260Y006024D01*
X017324Y006178D01*
X017440Y006294D01*
X017440Y008728D01*
X017477Y008816D01*
X017940Y009279D01*
X017940Y011086D01*
X017918Y011064D01*
X017764Y011000D01*
X017596Y011000D01*
X017442Y011064D01*
X017420Y011086D01*
X017420Y009132D01*
X017383Y009044D01*
X017316Y008977D01*
X017316Y008977D01*
X016920Y008581D01*
X016920Y006294D01*
X017036Y006178D01*
X017100Y006024D01*
X017100Y005336D01*
X017036Y005182D01*
X016918Y005064D01*
X016764Y005000D01*
X016596Y005000D01*
X016442Y005064D01*
X016324Y005182D01*
X016260Y005336D01*
X016260Y006024D01*
X016324Y006178D01*
X016440Y006294D01*
X016440Y008728D01*
X016477Y008816D01*
X016544Y008883D01*
X016544Y008883D01*
X016940Y009279D01*
X016940Y011086D01*
X016918Y011064D01*
X016764Y011000D01*
X016596Y011000D01*
X016442Y011064D01*
X016324Y011182D01*
X016260Y011336D01*
X016260Y012024D01*
X016324Y012178D01*
X016442Y012296D01*
X016596Y012360D01*
X016764Y012360D01*
X016918Y012296D01*
X016940Y012274D01*
X016940Y017581D01*
X016044Y018477D01*
X016044Y018477D01*
X015977Y018544D01*
X015940Y018632D01*
X015940Y020180D01*
X014920Y020180D01*
X014920Y018279D01*
X015383Y017816D01*
X015420Y017728D01*
X015420Y017429D01*
X015476Y017485D01*
X015608Y017540D01*
X015752Y017540D01*
X015884Y017485D01*
X015985Y017384D01*
X016040Y017252D01*
X016040Y017108D01*
X015985Y016976D01*
X015890Y016881D01*
X015890Y012308D01*
X015918Y012296D01*
X016036Y012178D01*
X016100Y012024D01*
X016100Y011336D01*
X016036Y011182D01*
X015918Y011064D01*
X015764Y011000D01*
X015596Y011000D01*
X015442Y011064D01*
X015420Y011086D01*
X015420Y009279D01*
X015883Y008816D01*
X015920Y008728D01*
X015920Y006294D01*
X016036Y006178D01*
X016100Y006024D01*
X016100Y005336D01*
X016036Y005182D01*
X015918Y005064D01*
X015764Y005000D01*
X015596Y005000D01*
X015442Y005064D01*
X015324Y005182D01*
X015260Y005336D01*
X015260Y006024D01*
X015324Y006178D01*
X015440Y006294D01*
X015440Y008581D01*
X015044Y008977D01*
X014977Y009044D01*
X014940Y009132D01*
X014940Y011086D01*
X014918Y011064D01*
X014764Y011000D01*
X014596Y011000D01*
X014442Y011064D01*
X014324Y011182D01*
X014260Y011336D01*
X014260Y012024D01*
X014324Y012178D01*
X014442Y012296D01*
X014596Y012360D01*
X014764Y012360D01*
X014918Y012296D01*
X014940Y012274D01*
X014940Y017581D01*
X014544Y017977D01*
X014477Y018044D01*
X014440Y018132D01*
X014440Y020180D01*
X013420Y020180D01*
X013420Y012274D01*
X013442Y012296D01*
X013596Y012360D01*
X013764Y012360D01*
X013918Y012296D01*
X014036Y012178D01*
X014100Y012024D01*
X014100Y011336D01*
X014036Y011182D01*
X013918Y011064D01*
X013764Y011000D01*
X013596Y011000D01*
X013442Y011064D01*
X013420Y011086D01*
X013420Y009279D01*
X014883Y007816D01*
X014920Y007728D01*
X014920Y006294D01*
X015036Y006178D01*
X015100Y006024D01*
X015100Y005336D01*
X015036Y005182D01*
X014918Y005064D01*
X014764Y005000D01*
X014596Y005000D01*
X014442Y005064D01*
X014324Y005182D01*
X014260Y005336D01*
X014260Y006024D01*
X014324Y006178D01*
X014440Y006294D01*
X014440Y007581D01*
X013044Y008977D01*
X012977Y009044D01*
X012940Y009132D01*
X012940Y011086D01*
X012918Y011064D01*
X012764Y011000D01*
X012596Y011000D01*
X012442Y011064D01*
X012420Y011086D01*
X012420Y009279D01*
X013883Y007816D01*
X013920Y007728D01*
X013920Y006294D01*
X014036Y006178D01*
X014100Y006024D01*
X014100Y005336D01*
X014036Y005182D01*
X013918Y005064D01*
X013764Y005000D01*
X013596Y005000D01*
X013442Y005064D01*
X013324Y005182D01*
X013260Y005336D01*
X013260Y006024D01*
X013324Y006178D01*
X013440Y006294D01*
X013440Y007581D01*
X012044Y008977D01*
X011977Y009044D01*
X011940Y009132D01*
X011940Y011086D01*
X011918Y011064D01*
X011764Y011000D01*
X011596Y011000D01*
X011442Y011064D01*
X011324Y011182D01*
X011260Y011336D01*
X011260Y012024D01*
X011324Y012178D01*
X011442Y012296D01*
X011470Y012308D01*
X011470Y017093D01*
X010593Y017970D01*
X010470Y018093D01*
X010470Y018381D01*
X010420Y018431D01*
X010420Y017429D01*
X010476Y017485D01*
X010608Y017540D01*
X010752Y017540D01*
X010884Y017485D01*
X010985Y017384D01*
X011040Y017252D01*
X011040Y017108D01*
X010985Y016976D01*
X010890Y016881D01*
X010890Y012308D01*
X010918Y012296D01*
X011036Y012178D01*
X011100Y012024D01*
X011100Y011336D01*
X011036Y011182D01*
X010918Y011064D01*
X010764Y011000D01*
X010596Y011000D01*
X010442Y011064D01*
X010420Y011086D01*
X010420Y009316D01*
X012788Y007895D01*
X012816Y007883D01*
X012829Y007871D01*
X012844Y007861D01*
X012862Y007837D01*
X012883Y007816D01*
X012890Y007799D01*
X012901Y007785D01*
X012909Y007755D01*
X012920Y007728D01*
X012920Y007710D01*
X012924Y007692D01*
X012920Y007662D01*
X012920Y006294D01*
X013036Y006178D01*
X013100Y006024D01*
X013100Y005336D01*
X013036Y005182D01*
X012918Y005064D01*
X012764Y005000D01*
X012596Y005000D01*
X012442Y005064D01*
X012324Y005182D01*
X012260Y005336D01*
X012260Y006024D01*
X012324Y006178D01*
X012440Y006294D01*
X012440Y007544D01*
X010072Y008965D01*
X010044Y008977D01*
X010031Y008989D01*
X010016Y008999D01*
X009998Y009023D01*
X009977Y009044D01*
X009970Y009061D01*
X009959Y009075D01*
X009951Y009105D01*
X009771Y009105D01*
X009940Y009132D02*
X009951Y009105D01*
X009940Y009132D02*
X009940Y009150D01*
X009936Y009168D01*
X009940Y009198D01*
X009940Y011086D01*
X009918Y011064D01*
X009764Y011000D01*
X009596Y011000D01*
X009442Y011064D01*
X009420Y011086D01*
X009420Y009316D01*
X011788Y007895D01*
X011816Y007883D01*
X011829Y007871D01*
X011844Y007861D01*
X011862Y007837D01*
X011883Y007816D01*
X011890Y007799D01*
X011901Y007785D01*
X011909Y007755D01*
X011920Y007728D01*
X011920Y007710D01*
X011924Y007692D01*
X011920Y007662D01*
X011920Y006294D01*
X012036Y006178D01*
X012100Y006024D01*
X012100Y005336D01*
X012036Y005182D01*
X011918Y005064D01*
X011764Y005000D01*
X011596Y005000D01*
X011442Y005064D01*
X011324Y005182D01*
X011260Y005336D01*
X011260Y006024D01*
X011324Y006178D01*
X011440Y006294D01*
X011440Y007544D01*
X009072Y008965D01*
X009044Y008977D01*
X009031Y008989D01*
X009016Y008999D01*
X008998Y009023D01*
X008977Y009044D01*
X008970Y009061D01*
X008959Y009075D01*
X008951Y009105D01*
X008890Y009105D01*
X008940Y009132D02*
X008951Y009105D01*
X008940Y009132D02*
X008940Y009150D01*
X008936Y009168D01*
X008940Y009198D01*
X008940Y016931D01*
X008890Y016881D01*
X008890Y005890D01*
X009260Y005890D01*
X009260Y006024D01*
X009324Y006178D01*
X009442Y006296D01*
X009596Y006360D01*
X009764Y006360D01*
X009918Y006296D01*
X010036Y006178D01*
X010100Y006024D01*
X010100Y005336D01*
X010036Y005182D01*
X009918Y005064D01*
X009764Y005000D01*
X009596Y005000D01*
X009442Y005064D01*
X009324Y005182D01*
X009260Y005336D01*
X009260Y005470D01*
X008593Y005470D01*
X008470Y005593D01*
X008470Y016881D01*
X008375Y016976D01*
X008320Y017108D01*
X008320Y017252D01*
X008375Y017384D01*
X008476Y017485D01*
X008608Y017540D01*
X008752Y017540D01*
X008884Y017485D01*
X008940Y017429D01*
X008940Y017581D01*
X008517Y018003D01*
X008488Y018028D01*
X008484Y018037D01*
X008477Y018044D01*
X008462Y018079D01*
X008445Y018113D01*
X008444Y018123D01*
X008440Y018132D01*
X008440Y018170D01*
X008277Y020180D01*
X006890Y020180D01*
X006890Y015267D01*
X007617Y014540D01*
X007752Y014540D01*
X007884Y014485D01*
X007970Y014399D01*
X007970Y015593D01*
X007470Y016093D01*
X007470Y016881D01*
X007375Y016976D01*
X007320Y017108D01*
X007320Y017252D01*
X007375Y017384D01*
X007476Y017485D01*
X007608Y017540D01*
X007752Y017540D01*
X007884Y017485D01*
X007985Y017384D01*
X008040Y017252D01*
X008040Y017108D01*
X007985Y016976D01*
X007890Y016881D01*
X007890Y016267D01*
X008267Y015890D01*
X008390Y015767D01*
X008390Y004890D01*
X010093Y004890D01*
X010355Y005152D01*
X010324Y005182D01*
X010260Y005336D01*
X010260Y006024D01*
X010324Y006178D01*
X010442Y006296D01*
X010596Y006360D01*
X010764Y006360D01*
X010918Y006296D01*
X011036Y006178D01*
X011100Y006024D01*
X011100Y005336D01*
X011036Y005182D01*
X010918Y005064D01*
X010821Y005024D01*
X010390Y004593D01*
X010267Y004470D01*
X008093Y004470D01*
X007970Y004593D01*
X007970Y013961D01*
X007884Y013875D01*
X007752Y013820D01*
X007608Y013820D01*
X007476Y013875D01*
X007375Y013976D01*
X007320Y014108D01*
X007320Y014243D01*
X006593Y014970D01*
X006593Y014970D01*
X006470Y015093D01*
X006470Y020180D01*
X005390Y020180D01*
X005390Y017479D01*
X005485Y017384D01*
X005540Y017252D01*
X005540Y017108D01*
X005485Y016976D01*
X005384Y016875D01*
X005252Y016820D01*
X005108Y016820D01*
X004976Y016875D01*
X004875Y016976D01*
X004820Y017108D01*
X004820Y017252D01*
X004875Y017384D01*
X004970Y017479D01*
X004970Y019461D01*
X004884Y019375D01*
X004752Y019320D01*
X004608Y019320D01*
X004476Y019375D01*
X004381Y019470D01*
X003593Y019470D01*
X003470Y019593D01*
X003470Y020180D01*
X001660Y020180D01*
X001660Y020042D02*
X003470Y020042D01*
X003470Y019883D02*
X001660Y019883D01*
X001660Y019725D02*
X003470Y019725D01*
X003497Y019566D02*
X001660Y019566D01*
X001660Y019408D02*
X004443Y019408D01*
X004917Y019408D02*
X004970Y019408D01*
X004970Y019249D02*
X001660Y019249D01*
X001660Y019091D02*
X004970Y019091D01*
X004970Y018932D02*
X001660Y018932D01*
X001660Y018774D02*
X004970Y018774D01*
X004970Y018615D02*
X001660Y018615D01*
X001660Y018457D02*
X004970Y018457D01*
X004970Y018298D02*
X001660Y018298D01*
X001660Y018140D02*
X004970Y018140D01*
X004970Y017981D02*
X001660Y017981D01*
X001660Y017823D02*
X004970Y017823D01*
X004970Y017664D02*
X001660Y017664D01*
X001660Y017506D02*
X004970Y017506D01*
X004860Y017347D02*
X001660Y017347D01*
X001660Y017189D02*
X004820Y017189D01*
X004852Y017030D02*
X001660Y017030D01*
X001660Y016872D02*
X004984Y016872D01*
X005376Y016872D02*
X006470Y016872D01*
X006470Y017030D02*
X005508Y017030D01*
X005540Y017189D02*
X006470Y017189D01*
X006470Y017347D02*
X005500Y017347D01*
X005390Y017506D02*
X006470Y017506D01*
X006470Y017664D02*
X005390Y017664D01*
X005390Y017823D02*
X006470Y017823D01*
X006470Y017981D02*
X005390Y017981D01*
X005390Y018140D02*
X006470Y018140D01*
X006470Y018298D02*
X005390Y018298D01*
X005390Y018457D02*
X006470Y018457D01*
X006470Y018615D02*
X005390Y018615D01*
X005390Y018774D02*
X006470Y018774D01*
X006470Y018932D02*
X005390Y018932D01*
X005390Y019091D02*
X006470Y019091D01*
X006470Y019249D02*
X005390Y019249D01*
X005390Y019408D02*
X006470Y019408D01*
X006470Y019566D02*
X005390Y019566D01*
X005390Y019725D02*
X006470Y019725D01*
X006470Y019883D02*
X005390Y019883D01*
X005390Y020042D02*
X006470Y020042D01*
X006890Y020042D02*
X008288Y020042D01*
X008301Y019883D02*
X006890Y019883D01*
X006890Y019725D02*
X008314Y019725D01*
X008327Y019566D02*
X006890Y019566D01*
X006890Y019408D02*
X008339Y019408D01*
X008352Y019249D02*
X006890Y019249D01*
X006890Y019091D02*
X008365Y019091D01*
X008378Y018932D02*
X006890Y018932D01*
X006890Y018774D02*
X008391Y018774D01*
X008404Y018615D02*
X006890Y018615D01*
X006890Y018457D02*
X008417Y018457D01*
X008430Y018298D02*
X006890Y018298D01*
X006890Y018140D02*
X008440Y018140D01*
X008540Y017981D02*
X006890Y017981D01*
X006890Y017823D02*
X008698Y017823D01*
X008857Y017664D02*
X006890Y017664D01*
X006890Y017506D02*
X007525Y017506D01*
X007360Y017347D02*
X006890Y017347D01*
X006890Y017189D02*
X007320Y017189D01*
X007352Y017030D02*
X006890Y017030D01*
X006890Y016872D02*
X007470Y016872D01*
X007470Y016713D02*
X006890Y016713D01*
X006890Y016555D02*
X007470Y016555D01*
X007470Y016396D02*
X006890Y016396D01*
X006890Y016238D02*
X007470Y016238D01*
X007484Y016079D02*
X006890Y016079D01*
X006890Y015921D02*
X007642Y015921D01*
X007801Y015762D02*
X006890Y015762D01*
X006890Y015604D02*
X007959Y015604D01*
X007970Y015445D02*
X006890Y015445D01*
X006890Y015287D02*
X007970Y015287D01*
X007970Y015128D02*
X007029Y015128D01*
X007187Y014970D02*
X007970Y014970D01*
X007970Y014811D02*
X007346Y014811D01*
X007504Y014653D02*
X007970Y014653D01*
X007970Y014494D02*
X007863Y014494D01*
X008390Y014494D02*
X008470Y014494D01*
X008470Y014336D02*
X008390Y014336D01*
X008390Y014177D02*
X008470Y014177D01*
X008470Y014019D02*
X008390Y014019D01*
X008390Y013860D02*
X008470Y013860D01*
X008470Y013702D02*
X008390Y013702D01*
X008390Y013543D02*
X008470Y013543D01*
X008470Y013385D02*
X008390Y013385D01*
X008390Y013226D02*
X008470Y013226D01*
X008470Y013068D02*
X008390Y013068D01*
X008390Y012909D02*
X008470Y012909D01*
X008470Y012751D02*
X008390Y012751D01*
X008390Y012592D02*
X008470Y012592D01*
X008470Y012434D02*
X008390Y012434D01*
X008390Y012275D02*
X008470Y012275D01*
X008470Y012117D02*
X008390Y012117D01*
X008390Y011958D02*
X008470Y011958D01*
X008470Y011800D02*
X008390Y011800D01*
X008390Y011641D02*
X008470Y011641D01*
X008470Y011483D02*
X008390Y011483D01*
X008390Y011324D02*
X008470Y011324D01*
X008470Y011166D02*
X008390Y011166D01*
X008390Y011007D02*
X008470Y011007D01*
X008470Y010849D02*
X008390Y010849D01*
X008390Y010690D02*
X008470Y010690D01*
X008470Y010532D02*
X008390Y010532D01*
X008390Y010373D02*
X008470Y010373D01*
X008470Y010215D02*
X008390Y010215D01*
X008390Y010056D02*
X008470Y010056D01*
X008470Y009898D02*
X008390Y009898D01*
X008390Y009739D02*
X008470Y009739D01*
X008470Y009581D02*
X008390Y009581D01*
X008390Y009422D02*
X008470Y009422D01*
X008470Y009264D02*
X008390Y009264D01*
X008390Y009105D02*
X008470Y009105D01*
X008470Y008947D02*
X008390Y008947D01*
X008390Y008788D02*
X008470Y008788D01*
X008470Y008630D02*
X008390Y008630D01*
X008390Y008471D02*
X008470Y008471D01*
X008470Y008313D02*
X008390Y008313D01*
X008390Y008154D02*
X008470Y008154D01*
X008470Y007996D02*
X008390Y007996D01*
X008390Y007837D02*
X008470Y007837D01*
X008470Y007679D02*
X008390Y007679D01*
X008390Y007520D02*
X008470Y007520D01*
X008470Y007362D02*
X008390Y007362D01*
X008390Y007203D02*
X008470Y007203D01*
X008470Y007045D02*
X008390Y007045D01*
X008390Y006886D02*
X008470Y006886D01*
X008470Y006728D02*
X008390Y006728D01*
X008390Y006569D02*
X008470Y006569D01*
X008470Y006411D02*
X008390Y006411D01*
X008390Y006252D02*
X008470Y006252D01*
X008470Y006094D02*
X008390Y006094D01*
X008390Y005935D02*
X008470Y005935D01*
X008470Y005777D02*
X008390Y005777D01*
X008390Y005618D02*
X008470Y005618D01*
X008390Y005460D02*
X009260Y005460D01*
X009275Y005301D02*
X008390Y005301D01*
X008390Y005143D02*
X009364Y005143D01*
X009996Y005143D02*
X010346Y005143D01*
X010275Y005301D02*
X010085Y005301D01*
X010100Y005460D02*
X010260Y005460D01*
X010260Y005618D02*
X010100Y005618D01*
X010100Y005777D02*
X010260Y005777D01*
X010260Y005935D02*
X010100Y005935D01*
X010071Y006094D02*
X010289Y006094D01*
X010398Y006252D02*
X009962Y006252D01*
X009398Y006252D02*
X008890Y006252D01*
X008890Y006094D02*
X009289Y006094D01*
X009260Y005935D02*
X008890Y005935D01*
X008890Y006411D02*
X011440Y006411D01*
X011440Y006569D02*
X008890Y006569D01*
X008890Y006728D02*
X011440Y006728D01*
X011440Y006886D02*
X008890Y006886D01*
X008890Y007045D02*
X011440Y007045D01*
X011440Y007203D02*
X008890Y007203D01*
X008890Y007362D02*
X011440Y007362D01*
X011440Y007520D02*
X008890Y007520D01*
X008890Y007679D02*
X011216Y007679D01*
X010952Y007837D02*
X008890Y007837D01*
X008890Y007996D02*
X010688Y007996D01*
X010424Y008154D02*
X008890Y008154D01*
X008890Y008313D02*
X010159Y008313D01*
X009895Y008471D02*
X008890Y008471D01*
X008890Y008630D02*
X009631Y008630D01*
X009367Y008788D02*
X008890Y008788D01*
X008890Y008947D02*
X009103Y008947D01*
X009180Y009180D02*
X009180Y017680D01*
X008680Y018180D01*
X008388Y021774D01*
X009948Y021774D02*
X010180Y021542D01*
X010180Y009180D01*
X012680Y007680D01*
X012680Y005680D01*
X013100Y005618D02*
X013260Y005618D01*
X013260Y005460D02*
X013100Y005460D01*
X013085Y005301D02*
X013275Y005301D01*
X013364Y005143D02*
X012996Y005143D01*
X012364Y005143D02*
X011996Y005143D01*
X012085Y005301D02*
X012275Y005301D01*
X012260Y005460D02*
X012100Y005460D01*
X012100Y005618D02*
X012260Y005618D01*
X012260Y005777D02*
X012100Y005777D01*
X012100Y005935D02*
X012260Y005935D01*
X012289Y006094D02*
X012071Y006094D01*
X011962Y006252D02*
X012398Y006252D01*
X012440Y006411D02*
X011920Y006411D01*
X011920Y006569D02*
X012440Y006569D01*
X012440Y006728D02*
X011920Y006728D01*
X011920Y006886D02*
X012440Y006886D01*
X012440Y007045D02*
X011920Y007045D01*
X011920Y007203D02*
X012440Y007203D01*
X012440Y007362D02*
X011920Y007362D01*
X011920Y007520D02*
X012440Y007520D01*
X012216Y007679D02*
X011922Y007679D01*
X011952Y007837D02*
X011862Y007837D01*
X011688Y007996D02*
X011621Y007996D01*
X011424Y008154D02*
X011356Y008154D01*
X011159Y008313D02*
X011092Y008313D01*
X010895Y008471D02*
X010828Y008471D01*
X010631Y008630D02*
X010564Y008630D01*
X010367Y008788D02*
X010300Y008788D01*
X010103Y008947D02*
X010036Y008947D01*
X009940Y009264D02*
X009507Y009264D01*
X009420Y009422D02*
X009940Y009422D01*
X009940Y009581D02*
X009420Y009581D01*
X009420Y009739D02*
X009940Y009739D01*
X009940Y009898D02*
X009420Y009898D01*
X009420Y010056D02*
X009940Y010056D01*
X009940Y010215D02*
X009420Y010215D01*
X009420Y010373D02*
X009940Y010373D01*
X009940Y010532D02*
X009420Y010532D01*
X009420Y010690D02*
X009940Y010690D01*
X009940Y010849D02*
X009420Y010849D01*
X009420Y011007D02*
X009580Y011007D01*
X009780Y011007D02*
X009940Y011007D01*
X010420Y011007D02*
X010580Y011007D01*
X010780Y011007D02*
X011580Y011007D01*
X011780Y011007D02*
X011940Y011007D01*
X011940Y010849D02*
X010420Y010849D01*
X010420Y010690D02*
X011940Y010690D01*
X011940Y010532D02*
X010420Y010532D01*
X010420Y010373D02*
X011940Y010373D01*
X011940Y010215D02*
X010420Y010215D01*
X010420Y010056D02*
X011940Y010056D01*
X011940Y009898D02*
X010420Y009898D01*
X010420Y009739D02*
X011940Y009739D01*
X011940Y009581D02*
X010420Y009581D01*
X010420Y009422D02*
X011940Y009422D01*
X011940Y009264D02*
X010507Y009264D01*
X010771Y009105D02*
X011951Y009105D01*
X012074Y008947D02*
X011036Y008947D01*
X011300Y008788D02*
X012233Y008788D01*
X012391Y008630D02*
X011564Y008630D01*
X011828Y008471D02*
X012550Y008471D01*
X012708Y008313D02*
X012092Y008313D01*
X012356Y008154D02*
X012867Y008154D01*
X013025Y007996D02*
X012621Y007996D01*
X012862Y007837D02*
X013184Y007837D01*
X013342Y007679D02*
X012922Y007679D01*
X012920Y007520D02*
X013440Y007520D01*
X013440Y007362D02*
X012920Y007362D01*
X012920Y007203D02*
X013440Y007203D01*
X013440Y007045D02*
X012920Y007045D01*
X012920Y006886D02*
X013440Y006886D01*
X013440Y006728D02*
X012920Y006728D01*
X012920Y006569D02*
X013440Y006569D01*
X013440Y006411D02*
X012920Y006411D01*
X012962Y006252D02*
X013398Y006252D01*
X013289Y006094D02*
X013071Y006094D01*
X013100Y005935D02*
X013260Y005935D01*
X013260Y005777D02*
X013100Y005777D01*
X013680Y005680D02*
X013680Y007680D01*
X012180Y009180D01*
X012180Y017680D01*
X011680Y018180D01*
X011680Y021602D01*
X011508Y021774D01*
X013068Y021774D02*
X013180Y021662D01*
X013180Y009180D01*
X014680Y007680D01*
X014680Y005680D01*
X014260Y005618D02*
X014100Y005618D01*
X014100Y005460D02*
X014260Y005460D01*
X014275Y005301D02*
X014085Y005301D01*
X013996Y005143D02*
X014364Y005143D01*
X014996Y005143D02*
X015364Y005143D01*
X015275Y005301D02*
X015085Y005301D01*
X015100Y005460D02*
X015260Y005460D01*
X015260Y005618D02*
X015100Y005618D01*
X015100Y005777D02*
X015260Y005777D01*
X015260Y005935D02*
X015100Y005935D01*
X015071Y006094D02*
X015289Y006094D01*
X015398Y006252D02*
X014962Y006252D01*
X014920Y006411D02*
X015440Y006411D01*
X015440Y006569D02*
X014920Y006569D01*
X014920Y006728D02*
X015440Y006728D01*
X015440Y006886D02*
X014920Y006886D01*
X014920Y007045D02*
X015440Y007045D01*
X015440Y007203D02*
X014920Y007203D01*
X014920Y007362D02*
X015440Y007362D01*
X015440Y007520D02*
X014920Y007520D01*
X014920Y007679D02*
X015440Y007679D01*
X015440Y007837D02*
X014862Y007837D01*
X014704Y007996D02*
X015440Y007996D01*
X015440Y008154D02*
X014545Y008154D01*
X014387Y008313D02*
X015440Y008313D01*
X015440Y008471D02*
X014228Y008471D01*
X014070Y008630D02*
X015391Y008630D01*
X015233Y008788D02*
X013911Y008788D01*
X013753Y008947D02*
X015074Y008947D01*
X014951Y009105D02*
X013594Y009105D01*
X013436Y009264D02*
X014940Y009264D01*
X014940Y009422D02*
X013420Y009422D01*
X013420Y009581D02*
X014940Y009581D01*
X014940Y009739D02*
X013420Y009739D01*
X013420Y009898D02*
X014940Y009898D01*
X014940Y010056D02*
X013420Y010056D01*
X013420Y010215D02*
X014940Y010215D01*
X014940Y010373D02*
X013420Y010373D01*
X013420Y010532D02*
X014940Y010532D01*
X014940Y010690D02*
X013420Y010690D01*
X013420Y010849D02*
X014940Y010849D01*
X014940Y011007D02*
X014780Y011007D01*
X014580Y011007D02*
X013780Y011007D01*
X013580Y011007D02*
X013420Y011007D01*
X012940Y011007D02*
X012780Y011007D01*
X012580Y011007D02*
X012420Y011007D01*
X012420Y010849D02*
X012940Y010849D01*
X012940Y010690D02*
X012420Y010690D01*
X012420Y010532D02*
X012940Y010532D01*
X012940Y010373D02*
X012420Y010373D01*
X012420Y010215D02*
X012940Y010215D01*
X012940Y010056D02*
X012420Y010056D01*
X012420Y009898D02*
X012940Y009898D01*
X012940Y009739D02*
X012420Y009739D01*
X012420Y009581D02*
X012940Y009581D01*
X012940Y009422D02*
X012420Y009422D01*
X012436Y009264D02*
X012940Y009264D01*
X012951Y009105D02*
X012594Y009105D01*
X012753Y008947D02*
X013074Y008947D01*
X013233Y008788D02*
X012911Y008788D01*
X013070Y008630D02*
X013391Y008630D01*
X013550Y008471D02*
X013228Y008471D01*
X013387Y008313D02*
X013708Y008313D01*
X013867Y008154D02*
X013545Y008154D01*
X013704Y007996D02*
X014025Y007996D01*
X014184Y007837D02*
X013862Y007837D01*
X013920Y007679D02*
X014342Y007679D01*
X014440Y007520D02*
X013920Y007520D01*
X013920Y007362D02*
X014440Y007362D01*
X014440Y007203D02*
X013920Y007203D01*
X013920Y007045D02*
X014440Y007045D01*
X014440Y006886D02*
X013920Y006886D01*
X013920Y006728D02*
X014440Y006728D01*
X014440Y006569D02*
X013920Y006569D01*
X013920Y006411D02*
X014440Y006411D01*
X014398Y006252D02*
X013962Y006252D01*
X014071Y006094D02*
X014289Y006094D01*
X014260Y005935D02*
X014100Y005935D01*
X014100Y005777D02*
X014260Y005777D01*
X015680Y005680D02*
X015680Y008680D01*
X015180Y009180D01*
X015180Y017680D01*
X014680Y018180D01*
X014680Y021722D01*
X014628Y021774D01*
X016180Y021766D02*
X016188Y021774D01*
X016180Y021766D02*
X016180Y018680D01*
X017180Y017680D01*
X017180Y009180D01*
X016680Y008680D01*
X016680Y005680D01*
X017100Y005618D02*
X017260Y005618D01*
X017260Y005460D02*
X017100Y005460D01*
X017085Y005301D02*
X017275Y005301D01*
X017364Y005143D02*
X016996Y005143D01*
X016364Y005143D02*
X015996Y005143D01*
X016085Y005301D02*
X016275Y005301D01*
X016260Y005460D02*
X016100Y005460D01*
X016100Y005618D02*
X016260Y005618D01*
X016260Y005777D02*
X016100Y005777D01*
X016100Y005935D02*
X016260Y005935D01*
X016289Y006094D02*
X016071Y006094D01*
X015962Y006252D02*
X016398Y006252D01*
X016440Y006411D02*
X015920Y006411D01*
X015920Y006569D02*
X016440Y006569D01*
X016440Y006728D02*
X015920Y006728D01*
X015920Y006886D02*
X016440Y006886D01*
X016440Y007045D02*
X015920Y007045D01*
X015920Y007203D02*
X016440Y007203D01*
X016440Y007362D02*
X015920Y007362D01*
X015920Y007520D02*
X016440Y007520D01*
X016440Y007679D02*
X015920Y007679D01*
X015920Y007837D02*
X016440Y007837D01*
X016440Y007996D02*
X015920Y007996D01*
X015920Y008154D02*
X016440Y008154D01*
X016440Y008313D02*
X015920Y008313D01*
X015920Y008471D02*
X016440Y008471D01*
X016440Y008630D02*
X015920Y008630D01*
X015895Y008788D02*
X016465Y008788D01*
X016607Y008947D02*
X015753Y008947D01*
X015594Y009105D02*
X016766Y009105D01*
X016924Y009264D02*
X015436Y009264D01*
X015420Y009422D02*
X016940Y009422D01*
X016940Y009581D02*
X015420Y009581D01*
X015420Y009739D02*
X016940Y009739D01*
X016940Y009898D02*
X015420Y009898D01*
X015420Y010056D02*
X016940Y010056D01*
X016940Y010215D02*
X015420Y010215D01*
X015420Y010373D02*
X016940Y010373D01*
X016940Y010532D02*
X015420Y010532D01*
X015420Y010690D02*
X016940Y010690D01*
X016940Y010849D02*
X015420Y010849D01*
X015420Y011007D02*
X015580Y011007D01*
X015780Y011007D02*
X016580Y011007D01*
X016780Y011007D02*
X016940Y011007D01*
X017420Y011007D02*
X017580Y011007D01*
X017780Y011007D02*
X017940Y011007D01*
X017940Y010849D02*
X017420Y010849D01*
X017420Y010690D02*
X017940Y010690D01*
X017940Y010532D02*
X017420Y010532D01*
X017420Y010373D02*
X017940Y010373D01*
X017940Y010215D02*
X017420Y010215D01*
X017420Y010056D02*
X017940Y010056D01*
X017940Y009898D02*
X017420Y009898D01*
X017420Y009739D02*
X017940Y009739D01*
X017940Y009581D02*
X017420Y009581D01*
X017420Y009422D02*
X017940Y009422D01*
X017924Y009264D02*
X017420Y009264D01*
X017409Y009105D02*
X017766Y009105D01*
X017607Y008947D02*
X017286Y008947D01*
X017127Y008788D02*
X017465Y008788D01*
X017440Y008630D02*
X016969Y008630D01*
X016920Y008471D02*
X017440Y008471D01*
X017440Y008313D02*
X016920Y008313D01*
X016920Y008154D02*
X017440Y008154D01*
X017440Y007996D02*
X016920Y007996D01*
X016920Y007837D02*
X017440Y007837D01*
X017440Y007679D02*
X016920Y007679D01*
X016920Y007520D02*
X017440Y007520D01*
X017440Y007362D02*
X016920Y007362D01*
X016920Y007203D02*
X017440Y007203D01*
X017440Y007045D02*
X016920Y007045D01*
X016920Y006886D02*
X017440Y006886D01*
X017440Y006728D02*
X016920Y006728D01*
X016920Y006569D02*
X017440Y006569D01*
X017440Y006411D02*
X016920Y006411D01*
X016962Y006252D02*
X017398Y006252D01*
X017289Y006094D02*
X017071Y006094D01*
X017100Y005935D02*
X017260Y005935D01*
X017260Y005777D02*
X017100Y005777D01*
X017680Y005680D02*
X017680Y008680D01*
X018180Y009180D01*
X018180Y017680D01*
X017680Y018180D01*
X017680Y021706D01*
X017748Y021774D01*
X019180Y021646D02*
X019308Y021774D01*
X019180Y021646D02*
X019180Y009180D01*
X018680Y008680D01*
X018680Y005680D01*
X019100Y005618D02*
X019260Y005618D01*
X019260Y005460D02*
X019100Y005460D01*
X019085Y005301D02*
X019275Y005301D01*
X019364Y005143D02*
X018996Y005143D01*
X018364Y005143D02*
X017996Y005143D01*
X018085Y005301D02*
X018275Y005301D01*
X018260Y005460D02*
X018100Y005460D01*
X018100Y005618D02*
X018260Y005618D01*
X018260Y005777D02*
X018100Y005777D01*
X018100Y005935D02*
X018260Y005935D01*
X018289Y006094D02*
X018071Y006094D01*
X017962Y006252D02*
X018398Y006252D01*
X018440Y006411D02*
X017920Y006411D01*
X017920Y006569D02*
X018440Y006569D01*
X018440Y006728D02*
X017920Y006728D01*
X017920Y006886D02*
X018440Y006886D01*
X018440Y007045D02*
X017920Y007045D01*
X017920Y007203D02*
X018440Y007203D01*
X018440Y007362D02*
X017920Y007362D01*
X017920Y007520D02*
X018440Y007520D01*
X018440Y007679D02*
X017920Y007679D01*
X017920Y007837D02*
X018440Y007837D01*
X018440Y007996D02*
X017920Y007996D01*
X017920Y008154D02*
X018440Y008154D01*
X018440Y008313D02*
X017920Y008313D01*
X017920Y008471D02*
X018440Y008471D01*
X018440Y008630D02*
X017969Y008630D01*
X018127Y008788D02*
X018465Y008788D01*
X018607Y008947D02*
X018286Y008947D01*
X018409Y009105D02*
X018766Y009105D01*
X018924Y009264D02*
X018420Y009264D01*
X018420Y009422D02*
X018940Y009422D01*
X018940Y009581D02*
X018420Y009581D01*
X018420Y009739D02*
X018940Y009739D01*
X018940Y009898D02*
X018420Y009898D01*
X018420Y010056D02*
X018940Y010056D01*
X018940Y010215D02*
X018420Y010215D01*
X018420Y010373D02*
X018940Y010373D01*
X018940Y010532D02*
X018420Y010532D01*
X018420Y010690D02*
X018940Y010690D01*
X018940Y010849D02*
X018420Y010849D01*
X018420Y011007D02*
X018580Y011007D01*
X018780Y011007D02*
X018940Y011007D01*
X019420Y011007D02*
X019580Y011007D01*
X019780Y011007D02*
X019940Y011007D01*
X019940Y010849D02*
X019420Y010849D01*
X019420Y010690D02*
X019940Y010690D01*
X019940Y010532D02*
X019420Y010532D01*
X019420Y010373D02*
X019940Y010373D01*
X019940Y010215D02*
X019420Y010215D01*
X019420Y010056D02*
X019940Y010056D01*
X019940Y009898D02*
X019420Y009898D01*
X019420Y009739D02*
X019940Y009739D01*
X019940Y009581D02*
X019420Y009581D01*
X019420Y009422D02*
X019940Y009422D01*
X019924Y009264D02*
X019420Y009264D01*
X019409Y009105D02*
X019766Y009105D01*
X019607Y008947D02*
X019286Y008947D01*
X019127Y008788D02*
X019465Y008788D01*
X019440Y008630D02*
X018969Y008630D01*
X018920Y008471D02*
X019440Y008471D01*
X019440Y008313D02*
X018920Y008313D01*
X018920Y008154D02*
X019440Y008154D01*
X019440Y007996D02*
X018920Y007996D01*
X018920Y007837D02*
X019440Y007837D01*
X019440Y007679D02*
X018920Y007679D01*
X018920Y007520D02*
X019440Y007520D01*
X019440Y007362D02*
X018920Y007362D01*
X018920Y007203D02*
X019440Y007203D01*
X019440Y007045D02*
X018920Y007045D01*
X018920Y006886D02*
X019440Y006886D01*
X019440Y006728D02*
X018920Y006728D01*
X018920Y006569D02*
X019440Y006569D01*
X019440Y006411D02*
X018920Y006411D01*
X018962Y006252D02*
X019398Y006252D01*
X019289Y006094D02*
X019071Y006094D01*
X019100Y005935D02*
X019260Y005935D01*
X019260Y005777D02*
X019100Y005777D01*
X019680Y005680D02*
X019680Y008680D01*
X020180Y009180D01*
X020180Y017680D01*
X020680Y018180D01*
X020868Y021774D01*
X022180Y021680D02*
X022428Y021774D01*
X022180Y021680D02*
X022180Y009180D01*
X020680Y008680D01*
X020680Y005680D01*
X020260Y005618D02*
X020100Y005618D01*
X020100Y005460D02*
X020260Y005460D01*
X020275Y005301D02*
X020085Y005301D01*
X019996Y005143D02*
X020364Y005143D01*
X020996Y005143D02*
X021364Y005143D01*
X021275Y005301D02*
X021085Y005301D01*
X021100Y005460D02*
X021260Y005460D01*
X021260Y005618D02*
X021100Y005618D01*
X021100Y005777D02*
X021260Y005777D01*
X021260Y005935D02*
X021100Y005935D01*
X021071Y006094D02*
X021289Y006094D01*
X021398Y006252D02*
X020962Y006252D01*
X020920Y006411D02*
X021440Y006411D01*
X021440Y006569D02*
X020920Y006569D01*
X020920Y006728D02*
X021440Y006728D01*
X021440Y006886D02*
X020920Y006886D01*
X020920Y007045D02*
X021440Y007045D01*
X021440Y007203D02*
X020920Y007203D01*
X020920Y007362D02*
X021440Y007362D01*
X021440Y007520D02*
X020920Y007520D01*
X020920Y007679D02*
X021440Y007679D01*
X021440Y007837D02*
X020920Y007837D01*
X020920Y007996D02*
X021440Y007996D01*
X021440Y008154D02*
X020920Y008154D01*
X020920Y008313D02*
X021475Y008313D01*
X021680Y008180D02*
X024180Y009180D01*
X024180Y021680D01*
X023988Y021774D01*
X023940Y020042D02*
X022420Y020042D01*
X022420Y019883D02*
X023940Y019883D01*
X023940Y019725D02*
X022420Y019725D01*
X022420Y019566D02*
X023940Y019566D01*
X023940Y019408D02*
X022420Y019408D01*
X022420Y019249D02*
X023940Y019249D01*
X023940Y019091D02*
X022420Y019091D01*
X022420Y018932D02*
X023940Y018932D01*
X023940Y018774D02*
X022420Y018774D01*
X022420Y018615D02*
X023940Y018615D01*
X023940Y018457D02*
X022420Y018457D01*
X022420Y018298D02*
X023940Y018298D01*
X023940Y018140D02*
X022420Y018140D01*
X022420Y017981D02*
X023940Y017981D01*
X023940Y017823D02*
X022420Y017823D01*
X022420Y017664D02*
X023940Y017664D01*
X023940Y017506D02*
X022420Y017506D01*
X022420Y017347D02*
X023940Y017347D01*
X023940Y017189D02*
X022420Y017189D01*
X022420Y017030D02*
X023940Y017030D01*
X023940Y016872D02*
X022420Y016872D01*
X022420Y016713D02*
X023940Y016713D01*
X023940Y016555D02*
X022420Y016555D01*
X022420Y016396D02*
X023940Y016396D01*
X023940Y016238D02*
X022420Y016238D01*
X022420Y016079D02*
X023940Y016079D01*
X023940Y015921D02*
X022420Y015921D01*
X022420Y015762D02*
X023940Y015762D01*
X023940Y015604D02*
X022420Y015604D01*
X022420Y015445D02*
X023940Y015445D01*
X023940Y015287D02*
X022420Y015287D01*
X022420Y015128D02*
X023940Y015128D01*
X023940Y014970D02*
X022420Y014970D01*
X022420Y014811D02*
X023940Y014811D01*
X023940Y014653D02*
X022420Y014653D01*
X022420Y014494D02*
X023940Y014494D01*
X023940Y014336D02*
X022420Y014336D01*
X022420Y014177D02*
X023940Y014177D01*
X023940Y014019D02*
X022420Y014019D01*
X022420Y013860D02*
X023940Y013860D01*
X023940Y013702D02*
X022420Y013702D01*
X022420Y013543D02*
X023940Y013543D01*
X023940Y013385D02*
X022420Y013385D01*
X022420Y013226D02*
X023940Y013226D01*
X023940Y013068D02*
X022420Y013068D01*
X022420Y012909D02*
X023940Y012909D01*
X023940Y012751D02*
X022420Y012751D01*
X022420Y012592D02*
X023940Y012592D01*
X023940Y012434D02*
X022420Y012434D01*
X022420Y012275D02*
X022421Y012275D01*
X022939Y012275D02*
X023940Y012275D01*
X023940Y012117D02*
X023061Y012117D01*
X023100Y011958D02*
X023940Y011958D01*
X023940Y011800D02*
X023100Y011800D01*
X023100Y011641D02*
X023940Y011641D01*
X023940Y011483D02*
X023100Y011483D01*
X023095Y011324D02*
X023940Y011324D01*
X023940Y011166D02*
X023019Y011166D01*
X022780Y011007D02*
X023940Y011007D01*
X023940Y010849D02*
X022420Y010849D01*
X022420Y011007D02*
X022580Y011007D01*
X022420Y010690D02*
X023940Y010690D01*
X023940Y010532D02*
X022420Y010532D01*
X022420Y010373D02*
X023940Y010373D01*
X023940Y010215D02*
X022420Y010215D01*
X022420Y010056D02*
X023940Y010056D01*
X023940Y009898D02*
X022420Y009898D01*
X022420Y009739D02*
X023940Y009739D01*
X023940Y009581D02*
X022420Y009581D01*
X022420Y009422D02*
X023940Y009422D01*
X023743Y009264D02*
X022420Y009264D01*
X022411Y009105D02*
X023346Y009105D01*
X022950Y008947D02*
X022243Y008947D01*
X022158Y008630D02*
X021287Y008630D01*
X020920Y008471D02*
X021761Y008471D01*
X021680Y008180D02*
X021680Y005680D01*
X022100Y005618D02*
X022240Y005618D01*
X022240Y005680D02*
X022240Y005385D01*
X022251Y005317D01*
X022272Y005251D01*
X022304Y005189D01*
X022344Y005133D01*
X022393Y005084D01*
X022449Y005044D01*
X022511Y005012D01*
X022577Y004991D01*
X022645Y004980D01*
X022680Y004980D01*
X022715Y004980D01*
X022783Y004991D01*
X022849Y005012D01*
X022911Y005044D01*
X022967Y005084D01*
X023016Y005133D01*
X023056Y005189D01*
X023088Y005251D01*
X023109Y005317D01*
X023120Y005385D01*
X023120Y005680D01*
X023120Y005975D01*
X023109Y006043D01*
X023088Y006109D01*
X023056Y006171D01*
X023016Y006227D01*
X022967Y006276D01*
X022911Y006316D01*
X022849Y006348D01*
X022783Y006369D01*
X022715Y006380D01*
X022680Y006380D01*
X022680Y005680D01*
X023120Y005680D01*
X022680Y005680D01*
X022680Y005680D01*
X022680Y005680D01*
X022680Y004980D01*
X022680Y005680D01*
X022680Y005680D01*
X022680Y005680D01*
X022240Y005680D01*
X022240Y005975D01*
X022251Y006043D01*
X022272Y006109D01*
X022304Y006171D01*
X022344Y006227D01*
X022393Y006276D01*
X022449Y006316D01*
X022511Y006348D01*
X022577Y006369D01*
X022645Y006380D01*
X022680Y006380D01*
X022680Y005680D01*
X022240Y005680D01*
X022240Y005777D02*
X022100Y005777D01*
X022100Y005935D02*
X022240Y005935D01*
X022267Y006094D02*
X022071Y006094D01*
X021962Y006252D02*
X022370Y006252D01*
X022680Y006252D02*
X022680Y006252D01*
X022680Y006094D02*
X022680Y006094D01*
X022680Y005935D02*
X022680Y005935D01*
X022680Y005777D02*
X022680Y005777D01*
X022680Y005618D02*
X022680Y005618D01*
X022680Y005460D02*
X022680Y005460D01*
X022680Y005301D02*
X022680Y005301D01*
X022680Y005143D02*
X022680Y005143D01*
X022680Y004984D02*
X022680Y004984D01*
X022740Y004984D02*
X029692Y004984D01*
X029692Y004826D02*
X010622Y004826D01*
X010781Y004984D02*
X022620Y004984D01*
X022338Y005143D02*
X021996Y005143D01*
X022085Y005301D02*
X022256Y005301D01*
X022240Y005460D02*
X022100Y005460D01*
X023022Y005143D02*
X029692Y005143D01*
X029692Y005301D02*
X023104Y005301D01*
X023120Y005460D02*
X029692Y005460D01*
X029692Y005618D02*
X023120Y005618D01*
X023120Y005777D02*
X029692Y005777D01*
X029692Y005935D02*
X023120Y005935D01*
X023093Y006094D02*
X029692Y006094D01*
X029692Y006252D02*
X022990Y006252D01*
X021920Y006411D02*
X029692Y006411D01*
X029692Y006569D02*
X021920Y006569D01*
X021920Y006728D02*
X026519Y006728D01*
X026566Y006680D02*
X026914Y006680D01*
X027160Y006926D01*
X027160Y007274D01*
X026914Y007520D01*
X026566Y007520D01*
X026320Y007274D01*
X026320Y006926D01*
X026566Y006680D01*
X026360Y006886D02*
X021920Y006886D01*
X021920Y007045D02*
X026320Y007045D01*
X026320Y007203D02*
X021920Y007203D01*
X021920Y007362D02*
X026408Y007362D01*
X026558Y007660D02*
X026300Y007918D01*
X026300Y008100D01*
X026740Y008100D01*
X026740Y008100D01*
X026740Y008540D01*
X026922Y008540D01*
X027180Y008282D01*
X027180Y008100D01*
X026740Y008100D01*
X026740Y008100D01*
X026740Y008100D01*
X026740Y008540D01*
X026558Y008540D01*
X026300Y008282D01*
X026300Y008100D01*
X026740Y008100D01*
X027180Y008100D01*
X027180Y007918D01*
X026922Y007660D01*
X026740Y007660D01*
X026740Y008100D01*
X026740Y008100D01*
X026740Y007660D01*
X026558Y007660D01*
X026539Y007679D02*
X021920Y007679D01*
X021920Y007837D02*
X026381Y007837D01*
X026300Y007996D02*
X021920Y007996D01*
X022261Y008154D02*
X026300Y008154D01*
X026330Y008313D02*
X022657Y008313D01*
X023054Y008471D02*
X026489Y008471D01*
X026740Y008471D02*
X026740Y008471D01*
X026740Y008313D02*
X026740Y008313D01*
X026740Y008154D02*
X026740Y008154D01*
X026740Y007996D02*
X026740Y007996D01*
X026740Y007837D02*
X026740Y007837D01*
X026740Y007679D02*
X026740Y007679D01*
X026941Y007679D02*
X029692Y007679D01*
X029692Y007837D02*
X027099Y007837D01*
X027180Y007996D02*
X029692Y007996D01*
X029692Y008154D02*
X027180Y008154D01*
X027150Y008313D02*
X029692Y008313D01*
X029692Y008471D02*
X026991Y008471D01*
X027072Y007362D02*
X029692Y007362D01*
X029692Y007520D02*
X021920Y007520D01*
X020440Y007520D02*
X019920Y007520D01*
X019920Y007362D02*
X020440Y007362D01*
X020440Y007203D02*
X019920Y007203D01*
X019920Y007045D02*
X020440Y007045D01*
X020440Y006886D02*
X019920Y006886D01*
X019920Y006728D02*
X020440Y006728D01*
X020440Y006569D02*
X019920Y006569D01*
X019920Y006411D02*
X020440Y006411D01*
X020398Y006252D02*
X019962Y006252D01*
X020071Y006094D02*
X020289Y006094D01*
X020260Y005935D02*
X020100Y005935D01*
X020100Y005777D02*
X020260Y005777D01*
X020440Y007679D02*
X019920Y007679D01*
X019920Y007837D02*
X020440Y007837D01*
X020440Y007996D02*
X019920Y007996D01*
X019920Y008154D02*
X020440Y008154D01*
X020440Y008313D02*
X019920Y008313D01*
X019920Y008471D02*
X020440Y008471D01*
X020440Y008630D02*
X019969Y008630D01*
X020127Y008788D02*
X020465Y008788D01*
X020286Y008947D02*
X020721Y008947D01*
X020409Y009105D02*
X021196Y009105D01*
X021672Y009264D02*
X020420Y009264D01*
X020420Y009422D02*
X021940Y009422D01*
X021940Y009581D02*
X020420Y009581D01*
X020420Y009739D02*
X021940Y009739D01*
X021940Y009898D02*
X020420Y009898D01*
X020420Y010056D02*
X021940Y010056D01*
X021940Y010215D02*
X020420Y010215D01*
X020420Y010373D02*
X021940Y010373D01*
X021940Y010532D02*
X020420Y010532D01*
X020420Y010690D02*
X021940Y010690D01*
X021940Y010849D02*
X020420Y010849D01*
X020420Y011007D02*
X020580Y011007D01*
X020780Y011007D02*
X021580Y011007D01*
X021780Y011007D02*
X021940Y011007D01*
X021341Y011166D02*
X021019Y011166D01*
X021095Y011324D02*
X021265Y011324D01*
X021260Y011483D02*
X021100Y011483D01*
X021100Y011641D02*
X021260Y011641D01*
X021260Y011800D02*
X021100Y011800D01*
X021100Y011958D02*
X021260Y011958D01*
X021299Y012117D02*
X021061Y012117D01*
X020939Y012275D02*
X021421Y012275D01*
X021470Y012434D02*
X020890Y012434D01*
X020890Y012592D02*
X021470Y012592D01*
X021470Y012751D02*
X020890Y012751D01*
X020890Y012909D02*
X021470Y012909D01*
X021470Y013068D02*
X020890Y013068D01*
X020890Y013226D02*
X021470Y013226D01*
X021470Y013385D02*
X020890Y013385D01*
X020890Y013543D02*
X021470Y013543D01*
X021470Y013702D02*
X020890Y013702D01*
X020890Y013860D02*
X021470Y013860D01*
X021470Y014019D02*
X020890Y014019D01*
X020890Y014177D02*
X021470Y014177D01*
X021470Y014336D02*
X020890Y014336D01*
X020890Y014494D02*
X021470Y014494D01*
X021470Y014653D02*
X020890Y014653D01*
X020890Y014811D02*
X021470Y014811D01*
X021470Y014970D02*
X020890Y014970D01*
X020890Y015128D02*
X021470Y015128D01*
X021470Y015287D02*
X020890Y015287D01*
X020890Y015445D02*
X021470Y015445D01*
X021470Y015604D02*
X020890Y015604D01*
X020890Y015762D02*
X021470Y015762D01*
X021470Y015921D02*
X020890Y015921D01*
X020890Y016079D02*
X021470Y016079D01*
X021470Y016238D02*
X020890Y016238D01*
X020890Y016396D02*
X021470Y016396D01*
X021470Y016555D02*
X020890Y016555D01*
X020890Y016713D02*
X021470Y016713D01*
X021470Y016872D02*
X020890Y016872D01*
X020890Y017030D02*
X021352Y017030D01*
X021320Y017189D02*
X020986Y017189D01*
X021144Y017347D02*
X021360Y017347D01*
X021303Y017506D02*
X021525Y017506D01*
X021461Y017664D02*
X021940Y017664D01*
X021940Y017506D02*
X021835Y017506D01*
X021758Y017823D02*
X021940Y017823D01*
X025390Y017823D02*
X026602Y017823D01*
X026758Y017823D02*
X027602Y017823D01*
X027758Y017823D02*
X029692Y017823D01*
X029692Y017981D02*
X027987Y017981D01*
X028040Y018140D02*
X029692Y018140D01*
X029692Y018298D02*
X028095Y018298D01*
X028254Y018457D02*
X029692Y018457D01*
X029692Y018615D02*
X028412Y018615D01*
X028571Y018774D02*
X029692Y018774D01*
X029692Y018932D02*
X028729Y018932D01*
X028888Y019091D02*
X029692Y019091D01*
X029692Y019249D02*
X028890Y019249D01*
X028890Y019408D02*
X029692Y019408D01*
X029692Y019566D02*
X028890Y019566D01*
X028890Y019725D02*
X029692Y019725D01*
X029692Y019883D02*
X028890Y019883D01*
X028890Y020042D02*
X029692Y020042D01*
X028470Y020042D02*
X027390Y020042D01*
X027390Y019883D02*
X028470Y019883D01*
X028470Y019725D02*
X027390Y019725D01*
X027390Y019566D02*
X028470Y019566D01*
X028470Y019408D02*
X027390Y019408D01*
X027390Y019249D02*
X028452Y019249D01*
X028294Y019091D02*
X027388Y019091D01*
X027229Y018932D02*
X028135Y018932D01*
X027977Y018774D02*
X027071Y018774D01*
X026912Y018615D02*
X027818Y018615D01*
X027447Y018457D02*
X026913Y018457D01*
X027021Y018298D02*
X027339Y018298D01*
X027320Y018140D02*
X027040Y018140D01*
X026987Y017981D02*
X027373Y017981D01*
X026373Y017981D02*
X025390Y017981D01*
X025390Y018140D02*
X026320Y018140D01*
X026339Y018298D02*
X025390Y018298D01*
X025390Y018457D02*
X026447Y018457D01*
X026470Y018615D02*
X025390Y018615D01*
X025390Y018774D02*
X026477Y018774D01*
X026635Y018932D02*
X025390Y018932D01*
X025390Y019091D02*
X026794Y019091D01*
X026952Y019249D02*
X025390Y019249D01*
X025390Y019408D02*
X026970Y019408D01*
X026970Y019566D02*
X025390Y019566D01*
X025390Y019725D02*
X026970Y019725D01*
X026970Y019883D02*
X025390Y019883D01*
X025390Y020042D02*
X026970Y020042D01*
X025390Y017664D02*
X029692Y017664D01*
X029692Y017506D02*
X025390Y017506D01*
X025390Y017347D02*
X029692Y017347D01*
X029692Y017189D02*
X025390Y017189D01*
X025390Y017030D02*
X029692Y017030D01*
X029692Y016872D02*
X025390Y016872D01*
X025390Y016713D02*
X029692Y016713D01*
X029692Y016555D02*
X025390Y016555D01*
X025390Y016396D02*
X029692Y016396D01*
X029692Y016238D02*
X025390Y016238D01*
X025390Y016079D02*
X029692Y016079D01*
X029692Y015921D02*
X025390Y015921D01*
X025390Y015762D02*
X029692Y015762D01*
X029692Y015604D02*
X025390Y015604D01*
X025390Y015445D02*
X029692Y015445D01*
X029692Y015287D02*
X025390Y015287D01*
X025390Y015128D02*
X029692Y015128D01*
X029692Y014970D02*
X025390Y014970D01*
X025390Y014811D02*
X029692Y014811D01*
X029692Y014653D02*
X025390Y014653D01*
X025390Y014494D02*
X029692Y014494D01*
X029692Y014336D02*
X025390Y014336D01*
X025390Y014177D02*
X029692Y014177D01*
X029692Y014019D02*
X025390Y014019D01*
X025390Y013860D02*
X029692Y013860D01*
X029692Y013702D02*
X025390Y013702D01*
X025390Y013543D02*
X029692Y013543D01*
X029692Y013385D02*
X025390Y013385D01*
X025390Y013226D02*
X029692Y013226D01*
X029692Y013068D02*
X025390Y013068D01*
X025390Y012909D02*
X029692Y012909D01*
X029692Y012751D02*
X025390Y012751D01*
X025390Y012592D02*
X029692Y012592D01*
X029692Y012434D02*
X025390Y012434D01*
X025390Y012275D02*
X029692Y012275D01*
X029692Y012117D02*
X025390Y012117D01*
X025255Y011958D02*
X029692Y011958D01*
X029692Y011800D02*
X025097Y011800D01*
X025040Y011641D02*
X029692Y011641D01*
X029692Y011483D02*
X024988Y011483D01*
X024761Y011324D02*
X029692Y011324D01*
X029692Y011166D02*
X024420Y011166D01*
X024420Y011324D02*
X024599Y011324D01*
X024420Y011007D02*
X029692Y011007D01*
X029692Y010849D02*
X024420Y010849D01*
X024420Y010690D02*
X029692Y010690D01*
X029692Y010532D02*
X024420Y010532D01*
X024420Y010373D02*
X029692Y010373D01*
X029692Y010215D02*
X024420Y010215D01*
X024420Y010056D02*
X029692Y010056D01*
X029692Y009898D02*
X024420Y009898D01*
X024420Y009739D02*
X029692Y009739D01*
X029692Y009581D02*
X024420Y009581D01*
X024420Y009422D02*
X029692Y009422D01*
X029692Y009264D02*
X024420Y009264D01*
X024409Y009105D02*
X029692Y009105D01*
X029692Y008947D02*
X024243Y008947D01*
X023846Y008788D02*
X029692Y008788D01*
X029692Y008630D02*
X023450Y008630D01*
X022554Y008788D02*
X021763Y008788D01*
X016940Y012275D02*
X016939Y012275D01*
X016940Y012434D02*
X015890Y012434D01*
X015890Y012592D02*
X016940Y012592D01*
X016940Y012751D02*
X015890Y012751D01*
X015890Y012909D02*
X016940Y012909D01*
X016940Y013068D02*
X015890Y013068D01*
X015890Y013226D02*
X016940Y013226D01*
X016940Y013385D02*
X015890Y013385D01*
X015890Y013543D02*
X016940Y013543D01*
X016940Y013702D02*
X015890Y013702D01*
X015890Y013860D02*
X016940Y013860D01*
X016940Y014019D02*
X015890Y014019D01*
X015890Y014177D02*
X016940Y014177D01*
X016940Y014336D02*
X015890Y014336D01*
X015890Y014494D02*
X016940Y014494D01*
X016940Y014653D02*
X015890Y014653D01*
X015890Y014811D02*
X016940Y014811D01*
X016940Y014970D02*
X015890Y014970D01*
X015890Y015128D02*
X016940Y015128D01*
X016940Y015287D02*
X015890Y015287D01*
X015890Y015445D02*
X016940Y015445D01*
X016940Y015604D02*
X015890Y015604D01*
X015890Y015762D02*
X016940Y015762D01*
X016940Y015921D02*
X015890Y015921D01*
X015890Y016079D02*
X016940Y016079D01*
X016940Y016238D02*
X015890Y016238D01*
X015890Y016396D02*
X016940Y016396D01*
X016940Y016555D02*
X015890Y016555D01*
X015890Y016713D02*
X016940Y016713D01*
X016940Y016872D02*
X015890Y016872D01*
X016008Y017030D02*
X016940Y017030D01*
X016940Y017189D02*
X016040Y017189D01*
X016000Y017347D02*
X016940Y017347D01*
X016940Y017506D02*
X015835Y017506D01*
X015525Y017506D02*
X015420Y017506D01*
X015420Y017664D02*
X016857Y017664D01*
X016698Y017823D02*
X015377Y017823D01*
X015218Y017981D02*
X016540Y017981D01*
X016381Y018140D02*
X015060Y018140D01*
X014920Y018298D02*
X016223Y018298D01*
X016064Y018457D02*
X014920Y018457D01*
X014920Y018615D02*
X015947Y018615D01*
X015940Y018774D02*
X014920Y018774D01*
X014920Y018932D02*
X015940Y018932D01*
X015940Y019091D02*
X014920Y019091D01*
X014920Y019249D02*
X015940Y019249D01*
X015940Y019408D02*
X014920Y019408D01*
X014920Y019566D02*
X015940Y019566D01*
X015940Y019725D02*
X014920Y019725D01*
X014920Y019883D02*
X015940Y019883D01*
X015940Y020042D02*
X014920Y020042D01*
X014440Y020042D02*
X013420Y020042D01*
X013420Y019883D02*
X014440Y019883D01*
X014440Y019725D02*
X013420Y019725D01*
X013420Y019566D02*
X014440Y019566D01*
X014440Y019408D02*
X013420Y019408D01*
X013420Y019249D02*
X014440Y019249D01*
X014440Y019091D02*
X013420Y019091D01*
X013420Y018932D02*
X014440Y018932D01*
X014440Y018774D02*
X013420Y018774D01*
X013420Y018615D02*
X014440Y018615D01*
X014440Y018457D02*
X013420Y018457D01*
X013420Y018298D02*
X014440Y018298D01*
X014440Y018140D02*
X013420Y018140D01*
X013420Y017981D02*
X014540Y017981D01*
X014698Y017823D02*
X013420Y017823D01*
X013420Y017664D02*
X014857Y017664D01*
X014940Y017506D02*
X013420Y017506D01*
X013420Y017347D02*
X014940Y017347D01*
X014940Y017189D02*
X013420Y017189D01*
X013420Y017030D02*
X014940Y017030D01*
X014940Y016872D02*
X013420Y016872D01*
X013420Y016713D02*
X014940Y016713D01*
X014940Y016555D02*
X013420Y016555D01*
X013420Y016396D02*
X014940Y016396D01*
X014940Y016238D02*
X013420Y016238D01*
X013420Y016079D02*
X014940Y016079D01*
X014940Y015921D02*
X013420Y015921D01*
X013420Y015762D02*
X014940Y015762D01*
X014940Y015604D02*
X013420Y015604D01*
X013420Y015445D02*
X014940Y015445D01*
X014940Y015287D02*
X013420Y015287D01*
X013420Y015128D02*
X014940Y015128D01*
X014940Y014970D02*
X013420Y014970D01*
X013420Y014811D02*
X014940Y014811D01*
X014940Y014653D02*
X013420Y014653D01*
X013420Y014494D02*
X014940Y014494D01*
X014940Y014336D02*
X013420Y014336D01*
X013420Y014177D02*
X014940Y014177D01*
X014940Y014019D02*
X013420Y014019D01*
X013420Y013860D02*
X014940Y013860D01*
X014940Y013702D02*
X013420Y013702D01*
X013420Y013543D02*
X014940Y013543D01*
X014940Y013385D02*
X013420Y013385D01*
X013420Y013226D02*
X014940Y013226D01*
X014940Y013068D02*
X013420Y013068D01*
X013420Y012909D02*
X014940Y012909D01*
X014940Y012751D02*
X013420Y012751D01*
X013420Y012592D02*
X014940Y012592D01*
X014940Y012434D02*
X013420Y012434D01*
X013420Y012275D02*
X013421Y012275D01*
X013939Y012275D02*
X014421Y012275D01*
X014299Y012117D02*
X014061Y012117D01*
X014100Y011958D02*
X014260Y011958D01*
X014260Y011800D02*
X014100Y011800D01*
X014100Y011641D02*
X014260Y011641D01*
X014260Y011483D02*
X014100Y011483D01*
X014095Y011324D02*
X014265Y011324D01*
X014341Y011166D02*
X014019Y011166D01*
X014939Y012275D02*
X014940Y012275D01*
X015939Y012275D02*
X016421Y012275D01*
X016299Y012117D02*
X016061Y012117D01*
X016100Y011958D02*
X016260Y011958D01*
X016260Y011800D02*
X016100Y011800D01*
X016100Y011641D02*
X016260Y011641D01*
X016260Y011483D02*
X016100Y011483D01*
X016095Y011324D02*
X016265Y011324D01*
X016341Y011166D02*
X016019Y011166D01*
X011341Y011166D02*
X011019Y011166D01*
X011095Y011324D02*
X011265Y011324D01*
X011260Y011483D02*
X011100Y011483D01*
X011100Y011641D02*
X011260Y011641D01*
X011260Y011800D02*
X011100Y011800D01*
X011100Y011958D02*
X011260Y011958D01*
X011299Y012117D02*
X011061Y012117D01*
X010939Y012275D02*
X011421Y012275D01*
X011470Y012434D02*
X010890Y012434D01*
X010890Y012592D02*
X011470Y012592D01*
X011470Y012751D02*
X010890Y012751D01*
X010890Y012909D02*
X011470Y012909D01*
X011470Y013068D02*
X010890Y013068D01*
X010890Y013226D02*
X011470Y013226D01*
X011470Y013385D02*
X010890Y013385D01*
X010890Y013543D02*
X011470Y013543D01*
X011470Y013702D02*
X010890Y013702D01*
X010890Y013860D02*
X011470Y013860D01*
X011470Y014019D02*
X010890Y014019D01*
X010890Y014177D02*
X011470Y014177D01*
X011470Y014336D02*
X010890Y014336D01*
X010890Y014494D02*
X011470Y014494D01*
X011470Y014653D02*
X010890Y014653D01*
X010890Y014811D02*
X011470Y014811D01*
X011470Y014970D02*
X010890Y014970D01*
X010890Y015128D02*
X011470Y015128D01*
X011470Y015287D02*
X010890Y015287D01*
X010890Y015445D02*
X011470Y015445D01*
X011470Y015604D02*
X010890Y015604D01*
X010890Y015762D02*
X011470Y015762D01*
X011470Y015921D02*
X010890Y015921D01*
X010890Y016079D02*
X011470Y016079D01*
X011470Y016238D02*
X010890Y016238D01*
X010890Y016396D02*
X011470Y016396D01*
X011470Y016555D02*
X010890Y016555D01*
X010890Y016713D02*
X011470Y016713D01*
X011470Y016872D02*
X010890Y016872D01*
X011008Y017030D02*
X011470Y017030D01*
X011374Y017189D02*
X011040Y017189D01*
X011000Y017347D02*
X011216Y017347D01*
X011057Y017506D02*
X010835Y017506D01*
X010899Y017664D02*
X010420Y017664D01*
X010420Y017506D02*
X010525Y017506D01*
X010420Y017823D02*
X010740Y017823D01*
X010582Y017981D02*
X010420Y017981D01*
X010420Y018140D02*
X010470Y018140D01*
X010470Y018298D02*
X010420Y018298D01*
X008940Y017506D02*
X008835Y017506D01*
X008525Y017506D02*
X007835Y017506D01*
X008000Y017347D02*
X008360Y017347D01*
X008320Y017189D02*
X008040Y017189D01*
X008008Y017030D02*
X008352Y017030D01*
X008470Y016872D02*
X007890Y016872D01*
X007890Y016713D02*
X008470Y016713D01*
X008470Y016555D02*
X007890Y016555D01*
X007890Y016396D02*
X008470Y016396D01*
X008470Y016238D02*
X007919Y016238D01*
X008078Y016079D02*
X008470Y016079D01*
X008470Y015921D02*
X008236Y015921D01*
X008390Y015762D02*
X008470Y015762D01*
X008470Y015604D02*
X008390Y015604D01*
X008390Y015445D02*
X008470Y015445D01*
X008470Y015287D02*
X008390Y015287D01*
X008390Y015128D02*
X008470Y015128D01*
X008470Y014970D02*
X008390Y014970D01*
X008390Y014811D02*
X008470Y014811D01*
X008470Y014653D02*
X008390Y014653D01*
X008890Y014653D02*
X008940Y014653D01*
X008940Y014811D02*
X008890Y014811D01*
X008890Y014970D02*
X008940Y014970D01*
X008940Y015128D02*
X008890Y015128D01*
X008890Y015287D02*
X008940Y015287D01*
X008940Y015445D02*
X008890Y015445D01*
X008890Y015604D02*
X008940Y015604D01*
X008940Y015762D02*
X008890Y015762D01*
X008890Y015921D02*
X008940Y015921D01*
X008940Y016079D02*
X008890Y016079D01*
X008890Y016238D02*
X008940Y016238D01*
X008940Y016396D02*
X008890Y016396D01*
X008890Y016555D02*
X008940Y016555D01*
X008940Y016713D02*
X008890Y016713D01*
X008890Y016872D02*
X008940Y016872D01*
X006470Y016713D02*
X001660Y016713D01*
X001660Y016555D02*
X006470Y016555D01*
X006470Y016396D02*
X001660Y016396D01*
X001660Y016238D02*
X006470Y016238D01*
X006470Y016079D02*
X001660Y016079D01*
X001660Y015921D02*
X006470Y015921D01*
X006470Y015762D02*
X001660Y015762D01*
X001660Y015604D02*
X006470Y015604D01*
X006470Y015445D02*
X001660Y015445D01*
X001660Y015287D02*
X006470Y015287D01*
X006470Y015128D02*
X001660Y015128D01*
X001660Y014970D02*
X006593Y014970D01*
X006752Y014811D02*
X001660Y014811D01*
X001660Y014653D02*
X006910Y014653D01*
X007069Y014494D02*
X001660Y014494D01*
X001660Y014336D02*
X007227Y014336D01*
X007320Y014177D02*
X001660Y014177D01*
X001660Y014019D02*
X007357Y014019D01*
X007512Y013860D02*
X001660Y013860D01*
X001660Y013702D02*
X007970Y013702D01*
X007970Y013860D02*
X007848Y013860D01*
X007970Y013543D02*
X001660Y013543D01*
X001660Y013385D02*
X007970Y013385D01*
X007970Y013226D02*
X001660Y013226D01*
X001660Y013068D02*
X007970Y013068D01*
X007970Y012909D02*
X001660Y012909D01*
X001660Y012751D02*
X007970Y012751D01*
X007970Y012592D02*
X001660Y012592D01*
X001660Y012434D02*
X007970Y012434D01*
X007970Y012275D02*
X001660Y012275D01*
X001660Y012117D02*
X007970Y012117D01*
X007970Y011958D02*
X001660Y011958D01*
X001660Y011800D02*
X007970Y011800D01*
X007970Y011641D02*
X001660Y011641D01*
X001660Y011483D02*
X007970Y011483D01*
X007970Y011324D02*
X001660Y011324D01*
X001660Y011166D02*
X007970Y011166D01*
X007970Y011007D02*
X001660Y011007D01*
X001660Y010849D02*
X007970Y010849D01*
X007970Y010690D02*
X001660Y010690D01*
X001660Y010532D02*
X007970Y010532D01*
X007970Y010373D02*
X001660Y010373D01*
X001660Y010215D02*
X007970Y010215D01*
X007970Y010056D02*
X001660Y010056D01*
X001660Y009898D02*
X007970Y009898D01*
X007970Y009739D02*
X001660Y009739D01*
X001660Y009581D02*
X007970Y009581D01*
X007970Y009422D02*
X001660Y009422D01*
X001660Y009264D02*
X007970Y009264D01*
X007970Y009105D02*
X001660Y009105D01*
X001660Y008947D02*
X007970Y008947D01*
X007970Y008788D02*
X001660Y008788D01*
X001660Y008630D02*
X007970Y008630D01*
X007970Y008471D02*
X001660Y008471D01*
X001660Y008313D02*
X007970Y008313D01*
X007970Y008154D02*
X001660Y008154D01*
X001660Y007996D02*
X007970Y007996D01*
X007970Y007837D02*
X001660Y007837D01*
X001660Y007679D02*
X007970Y007679D01*
X007970Y007520D02*
X001660Y007520D01*
X001660Y007362D02*
X007970Y007362D01*
X007970Y007203D02*
X001660Y007203D01*
X001660Y007045D02*
X007970Y007045D01*
X007970Y006886D02*
X001660Y006886D01*
X001660Y006728D02*
X007970Y006728D01*
X007970Y006569D02*
X001660Y006569D01*
X001660Y006411D02*
X007970Y006411D01*
X007970Y006252D02*
X001660Y006252D01*
X001660Y006094D02*
X007970Y006094D01*
X007970Y005935D02*
X001660Y005935D01*
X001660Y005777D02*
X007970Y005777D01*
X007970Y005618D02*
X001660Y005618D01*
X001660Y005460D02*
X007970Y005460D01*
X007970Y005301D02*
X001660Y005301D01*
X001660Y005143D02*
X007970Y005143D01*
X007970Y004984D02*
X001660Y004984D01*
X001660Y004826D02*
X007970Y004826D01*
X007970Y004667D02*
X001660Y004667D01*
X001660Y004509D02*
X008055Y004509D01*
X008390Y004984D02*
X010187Y004984D01*
X010464Y004667D02*
X029692Y004667D01*
X029692Y004509D02*
X010305Y004509D01*
X010996Y005143D02*
X011364Y005143D01*
X011275Y005301D02*
X011085Y005301D01*
X011100Y005460D02*
X011260Y005460D01*
X011260Y005618D02*
X011100Y005618D01*
X011100Y005777D02*
X011260Y005777D01*
X011260Y005935D02*
X011100Y005935D01*
X011071Y006094D02*
X011289Y006094D01*
X011398Y006252D02*
X010962Y006252D01*
X011680Y005680D02*
X011680Y007680D01*
X009180Y009180D01*
X008940Y009264D02*
X008890Y009264D01*
X008890Y009422D02*
X008940Y009422D01*
X008940Y009581D02*
X008890Y009581D01*
X008890Y009739D02*
X008940Y009739D01*
X008940Y009898D02*
X008890Y009898D01*
X008890Y010056D02*
X008940Y010056D01*
X008940Y010215D02*
X008890Y010215D01*
X008890Y010373D02*
X008940Y010373D01*
X008940Y010532D02*
X008890Y010532D01*
X008890Y010690D02*
X008940Y010690D01*
X008940Y010849D02*
X008890Y010849D01*
X008890Y011007D02*
X008940Y011007D01*
X008940Y011166D02*
X008890Y011166D01*
X008890Y011324D02*
X008940Y011324D01*
X008940Y011483D02*
X008890Y011483D01*
X008890Y011641D02*
X008940Y011641D01*
X008940Y011800D02*
X008890Y011800D01*
X008890Y011958D02*
X008940Y011958D01*
X008940Y012117D02*
X008890Y012117D01*
X008890Y012275D02*
X008940Y012275D01*
X008940Y012434D02*
X008890Y012434D01*
X008890Y012592D02*
X008940Y012592D01*
X008940Y012751D02*
X008890Y012751D01*
X008890Y012909D02*
X008940Y012909D01*
X008940Y013068D02*
X008890Y013068D01*
X008890Y013226D02*
X008940Y013226D01*
X008940Y013385D02*
X008890Y013385D01*
X008890Y013543D02*
X008940Y013543D01*
X008940Y013702D02*
X008890Y013702D01*
X008890Y013860D02*
X008940Y013860D01*
X008940Y014019D02*
X008890Y014019D01*
X008890Y014177D02*
X008940Y014177D01*
X008940Y014336D02*
X008890Y014336D01*
X008890Y014494D02*
X008940Y014494D01*
X003578Y004141D02*
X003316Y004211D01*
X003044Y004211D01*
X002782Y004141D01*
X002547Y004005D01*
X002355Y003813D01*
X002219Y003578D01*
X002149Y003316D01*
X002149Y003044D01*
X002219Y002782D01*
X002355Y002547D01*
X002547Y002355D01*
X002782Y002219D01*
X003044Y002149D01*
X003316Y002149D01*
X003578Y002219D01*
X003813Y002355D01*
X004005Y002547D01*
X004141Y002782D01*
X004211Y003044D01*
X004211Y003316D01*
X004141Y003578D01*
X004005Y003813D01*
X003813Y004005D01*
X003578Y004141D01*
X003389Y004192D02*
X027971Y004192D01*
X028044Y004211D02*
X027782Y004141D01*
X027547Y004005D01*
X027355Y003813D01*
X027219Y003578D01*
X027149Y003316D01*
X027149Y003044D01*
X027219Y002782D01*
X027355Y002547D01*
X027547Y002355D01*
X027782Y002219D01*
X028044Y002149D01*
X028316Y002149D01*
X028578Y002219D01*
X028813Y002355D01*
X029005Y002547D01*
X029141Y002782D01*
X029211Y003044D01*
X029211Y003316D01*
X029141Y003578D01*
X029005Y003813D01*
X028813Y004005D01*
X028578Y004141D01*
X028316Y004211D01*
X028044Y004211D01*
X028389Y004192D02*
X029692Y004192D01*
X029692Y004350D02*
X001660Y004350D01*
X001660Y004192D02*
X002971Y004192D01*
X002595Y004033D02*
X001660Y004033D01*
X001660Y003875D02*
X002416Y003875D01*
X002299Y003716D02*
X001660Y003716D01*
X001660Y003558D02*
X002214Y003558D01*
X002171Y003399D02*
X001660Y003399D01*
X001660Y003241D02*
X002149Y003241D01*
X002149Y003082D02*
X001660Y003082D01*
X001660Y002924D02*
X002181Y002924D01*
X002229Y002765D02*
X001660Y002765D01*
X001660Y002607D02*
X002320Y002607D01*
X002454Y002448D02*
X001660Y002448D01*
X001660Y002290D02*
X002660Y002290D01*
X001660Y002131D02*
X029692Y002131D01*
X029692Y001973D02*
X001660Y001973D01*
X001660Y001814D02*
X029692Y001814D01*
X029692Y002290D02*
X028700Y002290D01*
X028906Y002448D02*
X029692Y002448D01*
X029692Y002607D02*
X029040Y002607D01*
X029131Y002765D02*
X029692Y002765D01*
X029692Y002924D02*
X029179Y002924D01*
X029211Y003082D02*
X029692Y003082D01*
X029692Y003241D02*
X029211Y003241D01*
X029189Y003399D02*
X029692Y003399D01*
X029692Y003558D02*
X029146Y003558D01*
X029061Y003716D02*
X029692Y003716D01*
X029692Y003875D02*
X028944Y003875D01*
X028765Y004033D02*
X029692Y004033D01*
X027595Y004033D02*
X003765Y004033D01*
X003944Y003875D02*
X027416Y003875D01*
X027299Y003716D02*
X004061Y003716D01*
X004146Y003558D02*
X027214Y003558D01*
X027171Y003399D02*
X004189Y003399D01*
X004211Y003241D02*
X027149Y003241D01*
X027149Y003082D02*
X004211Y003082D01*
X004179Y002924D02*
X027181Y002924D01*
X027229Y002765D02*
X004131Y002765D01*
X004040Y002607D02*
X027320Y002607D01*
X027454Y002448D02*
X003906Y002448D01*
X003700Y002290D02*
X027660Y002290D01*
X026961Y006728D02*
X029692Y006728D01*
X029692Y006886D02*
X027120Y006886D01*
X027160Y007045D02*
X029692Y007045D01*
X029692Y007203D02*
X027160Y007203D01*
M02*
