G75*
G70*
%OFA0B0*%
%FSLAX24Y24*%
%IPPOS*%
%LPD*%
%AMOC8*
5,1,8,0,0,1.08239X$1,22.5*
%
%ADD10C,0.0000*%
%ADD11C,0.0060*%
%ADD12C,0.0100*%
%ADD13C,0.0050*%
%ADD14C,0.0070*%
D10*
X001180Y001180D02*
X001180Y023050D01*
X030172Y023050D01*
X030172Y001180D01*
X001180Y001180D01*
X002629Y003180D02*
X002631Y003227D01*
X002637Y003273D01*
X002647Y003319D01*
X002660Y003364D01*
X002678Y003407D01*
X002699Y003449D01*
X002723Y003489D01*
X002751Y003526D01*
X002782Y003561D01*
X002816Y003594D01*
X002852Y003623D01*
X002891Y003649D01*
X002932Y003672D01*
X002975Y003691D01*
X003019Y003707D01*
X003064Y003719D01*
X003110Y003727D01*
X003157Y003731D01*
X003203Y003731D01*
X003250Y003727D01*
X003296Y003719D01*
X003341Y003707D01*
X003385Y003691D01*
X003428Y003672D01*
X003469Y003649D01*
X003508Y003623D01*
X003544Y003594D01*
X003578Y003561D01*
X003609Y003526D01*
X003637Y003489D01*
X003661Y003449D01*
X003682Y003407D01*
X003700Y003364D01*
X003713Y003319D01*
X003723Y003273D01*
X003729Y003227D01*
X003731Y003180D01*
X003729Y003133D01*
X003723Y003087D01*
X003713Y003041D01*
X003700Y002996D01*
X003682Y002953D01*
X003661Y002911D01*
X003637Y002871D01*
X003609Y002834D01*
X003578Y002799D01*
X003544Y002766D01*
X003508Y002737D01*
X003469Y002711D01*
X003428Y002688D01*
X003385Y002669D01*
X003341Y002653D01*
X003296Y002641D01*
X003250Y002633D01*
X003203Y002629D01*
X003157Y002629D01*
X003110Y002633D01*
X003064Y002641D01*
X003019Y002653D01*
X002975Y002669D01*
X002932Y002688D01*
X002891Y002711D01*
X002852Y002737D01*
X002816Y002766D01*
X002782Y002799D01*
X002751Y002834D01*
X002723Y002871D01*
X002699Y002911D01*
X002678Y002953D01*
X002660Y002996D01*
X002647Y003041D01*
X002637Y003087D01*
X002631Y003133D01*
X002629Y003180D01*
X027629Y003180D02*
X027631Y003227D01*
X027637Y003273D01*
X027647Y003319D01*
X027660Y003364D01*
X027678Y003407D01*
X027699Y003449D01*
X027723Y003489D01*
X027751Y003526D01*
X027782Y003561D01*
X027816Y003594D01*
X027852Y003623D01*
X027891Y003649D01*
X027932Y003672D01*
X027975Y003691D01*
X028019Y003707D01*
X028064Y003719D01*
X028110Y003727D01*
X028157Y003731D01*
X028203Y003731D01*
X028250Y003727D01*
X028296Y003719D01*
X028341Y003707D01*
X028385Y003691D01*
X028428Y003672D01*
X028469Y003649D01*
X028508Y003623D01*
X028544Y003594D01*
X028578Y003561D01*
X028609Y003526D01*
X028637Y003489D01*
X028661Y003449D01*
X028682Y003407D01*
X028700Y003364D01*
X028713Y003319D01*
X028723Y003273D01*
X028729Y003227D01*
X028731Y003180D01*
X028729Y003133D01*
X028723Y003087D01*
X028713Y003041D01*
X028700Y002996D01*
X028682Y002953D01*
X028661Y002911D01*
X028637Y002871D01*
X028609Y002834D01*
X028578Y002799D01*
X028544Y002766D01*
X028508Y002737D01*
X028469Y002711D01*
X028428Y002688D01*
X028385Y002669D01*
X028341Y002653D01*
X028296Y002641D01*
X028250Y002633D01*
X028203Y002629D01*
X028157Y002629D01*
X028110Y002633D01*
X028064Y002641D01*
X028019Y002653D01*
X027975Y002669D01*
X027932Y002688D01*
X027891Y002711D01*
X027852Y002737D01*
X027816Y002766D01*
X027782Y002799D01*
X027751Y002834D01*
X027723Y002871D01*
X027699Y002911D01*
X027678Y002953D01*
X027660Y002996D01*
X027647Y003041D01*
X027637Y003087D01*
X027631Y003133D01*
X027629Y003180D01*
D11*
X026150Y003150D02*
X025723Y003150D01*
X025505Y003150D02*
X025292Y003150D01*
X025399Y003150D02*
X025399Y002723D01*
X025505Y002723D01*
X025399Y002509D02*
X025399Y002403D01*
X025076Y002509D02*
X025076Y003150D01*
X025076Y002936D02*
X024755Y002723D01*
X024539Y002723D02*
X024112Y002723D01*
X024539Y003150D01*
X024112Y003150D01*
X023894Y003043D02*
X023787Y002936D01*
X023467Y002936D01*
X023467Y002830D02*
X023467Y003150D01*
X023787Y003150D01*
X023894Y003043D01*
X023787Y002723D02*
X023574Y002723D01*
X023467Y002830D01*
X023250Y002936D02*
X022929Y002723D01*
X023250Y002936D02*
X022929Y003150D01*
X023250Y003150D02*
X023250Y002509D01*
X024755Y003150D02*
X025076Y002936D01*
X025723Y002616D02*
X025723Y002509D01*
X026150Y002509D01*
X025723Y002616D02*
X026150Y003043D01*
X026150Y003150D01*
X023130Y006080D02*
X009230Y006080D01*
X009230Y008180D01*
X009274Y008182D01*
X009317Y008188D01*
X009359Y008197D01*
X009401Y008210D01*
X009441Y008227D01*
X009480Y008247D01*
X009517Y008270D01*
X009551Y008297D01*
X009584Y008326D01*
X009613Y008359D01*
X009640Y008393D01*
X009663Y008430D01*
X009683Y008469D01*
X009700Y008509D01*
X009713Y008551D01*
X009722Y008593D01*
X009728Y008636D01*
X009730Y008680D01*
X009728Y008724D01*
X009722Y008767D01*
X009713Y008809D01*
X009700Y008851D01*
X009683Y008891D01*
X009663Y008930D01*
X009640Y008967D01*
X009613Y009001D01*
X009584Y009034D01*
X009551Y009063D01*
X009517Y009090D01*
X009480Y009113D01*
X009441Y009133D01*
X009401Y009150D01*
X009359Y009163D01*
X009317Y009172D01*
X009274Y009178D01*
X009230Y009180D01*
X009230Y011280D01*
X023130Y011280D01*
X023130Y006080D01*
X026140Y006750D02*
X026140Y008450D01*
X026142Y008467D01*
X026146Y008484D01*
X026153Y008500D01*
X026163Y008514D01*
X026176Y008527D01*
X026190Y008537D01*
X026206Y008544D01*
X026223Y008548D01*
X026240Y008550D01*
X027240Y008550D01*
X027257Y008548D01*
X027274Y008544D01*
X027290Y008537D01*
X027304Y008527D01*
X027317Y008514D01*
X027327Y008500D01*
X027334Y008484D01*
X027338Y008467D01*
X027340Y008450D01*
X027340Y006750D01*
X027338Y006733D01*
X027334Y006716D01*
X027327Y006700D01*
X027317Y006686D01*
X027304Y006673D01*
X027290Y006663D01*
X027274Y006656D01*
X027257Y006652D01*
X027240Y006650D01*
X026240Y006650D01*
X026223Y006652D01*
X026206Y006656D01*
X026190Y006663D01*
X026176Y006673D01*
X026163Y006686D01*
X026153Y006700D01*
X026146Y006716D01*
X026142Y006733D01*
X026140Y006750D01*
X026740Y007450D02*
X026740Y007500D01*
X026740Y007700D02*
X026740Y007750D01*
X020134Y003150D02*
X020134Y002509D01*
X020027Y002723D02*
X019814Y002723D01*
X019707Y002830D01*
X019707Y003150D01*
X019383Y003043D02*
X019276Y003150D01*
X019383Y003043D02*
X019383Y002616D01*
X019490Y002723D02*
X019276Y002723D01*
X019060Y002723D02*
X018846Y002723D01*
X018953Y002616D02*
X018953Y003043D01*
X018846Y003150D01*
X018630Y003150D02*
X018310Y003150D01*
X018203Y003043D01*
X018203Y002830D01*
X018310Y002723D01*
X018630Y002723D01*
X018630Y003364D01*
X017986Y003150D02*
X017986Y003043D01*
X017879Y003043D01*
X017879Y003150D01*
X017986Y003150D01*
X017986Y002830D02*
X017986Y002723D01*
X017879Y002723D01*
X017879Y002830D01*
X017986Y002830D01*
X017663Y003150D02*
X017236Y002509D01*
X016592Y002509D02*
X017019Y003150D01*
X016374Y003043D02*
X016374Y002723D01*
X016374Y003043D02*
X016268Y003150D01*
X016161Y003043D01*
X016054Y003150D01*
X015947Y003043D01*
X015947Y002723D01*
X015730Y002723D02*
X015730Y003043D01*
X015623Y003150D01*
X015516Y003043D01*
X015410Y003150D01*
X015303Y003043D01*
X015303Y002723D01*
X015085Y002723D02*
X015085Y003043D01*
X014978Y003150D01*
X014872Y003043D01*
X014765Y003150D01*
X014658Y003043D01*
X014658Y002723D01*
X014118Y002723D02*
X013691Y002723D01*
X014118Y003150D01*
X013691Y003150D01*
X013474Y003150D02*
X013260Y003150D01*
X013367Y003150D02*
X013367Y002723D01*
X013474Y002723D01*
X013367Y002509D02*
X013367Y002403D01*
X013044Y002509D02*
X013044Y003150D01*
X013044Y002936D02*
X012724Y002723D01*
X012507Y002723D02*
X012080Y002723D01*
X012507Y003150D01*
X012080Y003150D01*
X011862Y003043D02*
X011756Y002936D01*
X011435Y002936D01*
X011435Y002830D02*
X011435Y003150D01*
X011756Y003150D01*
X011862Y003043D01*
X011542Y002723D02*
X011435Y002830D01*
X011542Y002723D02*
X011756Y002723D01*
X011218Y002936D02*
X010898Y002723D01*
X011218Y002936D02*
X010898Y003150D01*
X010681Y003150D02*
X010574Y003150D01*
X010574Y003043D01*
X010681Y003043D01*
X010681Y003150D01*
X010359Y003043D02*
X010359Y002830D01*
X010252Y002723D01*
X009932Y002723D01*
X009607Y002723D02*
X009394Y002723D01*
X009287Y002830D01*
X009287Y003150D01*
X009607Y003150D01*
X009714Y003043D01*
X009607Y002936D01*
X009287Y002936D01*
X009932Y003150D02*
X010252Y003150D01*
X010359Y003043D01*
X011218Y003150D02*
X011218Y002509D01*
X012724Y003150D02*
X013044Y002936D01*
X014334Y003043D02*
X014334Y003150D01*
X014441Y003150D01*
X014441Y003043D01*
X014334Y003043D01*
X014466Y003509D02*
X014466Y004150D01*
X014679Y004150D02*
X014252Y004150D01*
X014679Y003723D02*
X014466Y003509D01*
X015541Y003723D02*
X015755Y004150D01*
X015968Y003723D01*
X016186Y003830D02*
X016186Y003936D01*
X016613Y003936D01*
X016613Y003830D02*
X016506Y003723D01*
X016293Y003723D01*
X016186Y003830D01*
X016293Y004150D02*
X016506Y004150D01*
X016613Y004043D01*
X016613Y003830D01*
X016830Y003723D02*
X016936Y003723D01*
X017150Y003936D01*
X017150Y003723D02*
X017150Y004150D01*
X020027Y002723D02*
X020134Y002830D01*
X007136Y003043D02*
X007029Y003150D01*
X006922Y003150D01*
X006816Y003043D01*
X006816Y002509D01*
X006922Y002509D02*
X006709Y002509D01*
X006491Y002830D02*
X006384Y002723D01*
X006171Y002723D01*
X006064Y002830D01*
X006064Y002936D01*
X006491Y002936D01*
X006491Y002830D02*
X006491Y003043D01*
X006384Y003150D01*
X006171Y003150D01*
X005740Y003150D02*
X005740Y002616D01*
X005633Y002509D01*
X005310Y002616D02*
X005203Y002509D01*
X005310Y002616D02*
X005310Y003150D01*
X005417Y002830D02*
X005203Y002830D01*
X005633Y002830D02*
X005847Y002830D01*
X004343Y003150D02*
X004343Y002509D01*
X004129Y002723D01*
X003916Y002509D01*
X003916Y003150D01*
X003698Y003150D02*
X003485Y003150D01*
X003591Y003150D02*
X003591Y002723D01*
X003698Y002723D01*
X003591Y002509D02*
X003591Y002403D01*
X003268Y002723D02*
X003055Y002723D01*
X003162Y002616D02*
X003162Y003043D01*
X003055Y003150D01*
X002839Y003043D02*
X002732Y003150D01*
X002412Y003150D01*
X002194Y003150D02*
X002194Y002509D01*
X002087Y002723D02*
X001874Y002723D01*
X001767Y002830D01*
X001767Y003150D01*
X001550Y003043D02*
X001550Y002830D01*
X001443Y002723D01*
X001229Y002723D01*
X001123Y002830D01*
X001123Y002936D01*
X001550Y002936D01*
X001550Y003043D02*
X001443Y003150D01*
X001229Y003150D01*
X000905Y003150D02*
X000692Y003150D01*
X000798Y003150D02*
X000798Y002509D01*
X000905Y002509D01*
X000475Y002509D02*
X000369Y002509D01*
X000369Y003150D01*
X000475Y003150D02*
X000262Y003150D01*
X-000599Y003150D02*
X-001026Y002723D01*
X-001026Y002616D01*
X-000919Y002509D01*
X-000706Y002509D01*
X-000599Y002616D01*
X-001243Y002616D02*
X-001350Y002509D01*
X-001564Y002509D01*
X-001670Y002616D01*
X-001243Y003043D01*
X-001350Y003150D01*
X-001564Y003150D01*
X-001670Y003043D01*
X-001670Y002616D01*
X-001888Y002723D02*
X-002101Y002509D01*
X-002101Y003150D01*
X-001888Y003150D02*
X-002315Y003150D01*
X-002532Y002830D02*
X-002959Y002830D01*
X-002853Y003150D02*
X-002853Y002509D01*
X-002532Y002830D01*
X-001243Y003043D02*
X-001243Y002616D01*
X-001026Y003150D02*
X-000599Y003150D01*
X002087Y002723D02*
X002194Y002830D01*
X002412Y002723D02*
X002732Y002723D01*
X002839Y002830D01*
X002839Y003043D01*
D12*
X026440Y007500D02*
X026740Y007500D01*
X027040Y007500D01*
X027040Y007700D02*
X026740Y007700D01*
X026440Y007700D01*
D13*
X027515Y007679D02*
X027590Y007604D01*
X027890Y007604D01*
X027965Y007679D01*
X027965Y007829D01*
X027890Y007904D01*
X027965Y008065D02*
X027965Y008365D01*
X027965Y008215D02*
X027515Y008215D01*
X027665Y008065D01*
X027590Y007904D02*
X027515Y007829D01*
X027515Y007679D01*
D14*
X009145Y007504D02*
X008725Y007924D01*
X008620Y007924D01*
X008514Y007819D01*
X008514Y007609D01*
X008620Y007504D01*
X008514Y007280D02*
X008514Y006860D01*
X008514Y007070D02*
X009145Y007070D01*
X009145Y007504D02*
X009145Y007924D01*
X009040Y008149D02*
X008935Y008149D01*
X008830Y008254D01*
X008830Y008464D01*
X008935Y008569D01*
X009040Y008569D01*
X009145Y008464D01*
X009145Y008254D01*
X009040Y008149D01*
X008830Y008254D02*
X008725Y008149D01*
X008620Y008149D01*
X008514Y008254D01*
X008514Y008464D01*
X008620Y008569D01*
X008725Y008569D01*
X008830Y008464D01*
X008620Y008793D02*
X009040Y008793D01*
X009145Y008898D01*
X009145Y009108D01*
X009040Y009214D01*
X009145Y009438D02*
X008725Y009858D01*
X008620Y009858D01*
X008514Y009753D01*
X008514Y009543D01*
X008620Y009438D01*
X008620Y009214D02*
X008514Y009108D01*
X008514Y008898D01*
X008620Y008793D01*
X009145Y009438D02*
X009145Y009858D01*
X009040Y010082D02*
X009145Y010187D01*
X009145Y010398D01*
X009040Y010503D01*
X008830Y010503D01*
X008725Y010398D01*
X008725Y010292D01*
X008830Y010082D01*
X008514Y010082D01*
X008514Y010503D01*
X008830Y010727D02*
X008830Y011042D01*
X008935Y011147D01*
X009040Y011147D01*
X009145Y011042D01*
X009145Y010832D01*
X009040Y010727D01*
X008830Y010727D01*
X008620Y010937D01*
X008514Y011147D01*
X008725Y006635D02*
X009145Y006635D01*
X008830Y006635D02*
X008830Y006215D01*
X008725Y006215D02*
X008514Y006425D01*
X008725Y006635D01*
X008725Y006215D02*
X009145Y006215D01*
M02*
