%
M48
M72
T01C0.0236
T02C0.0315
T03C0.0320
T04C0.0354
T05C0.0400
T06C0.0433
T07C0.0470
T08C0.0472
T09C0.0512
T10C0.0630
T11C0.0866
T12C0.1102
T13C0.1250
T14C0.1300
%
T01
X13813Y3930
X14263Y3230
X14763Y2530
X13363Y6830
X12313Y15530
X14813Y16530
X15163Y15580
X15963Y15980
X15963Y17080
X12313Y17930
X9963Y20530
X10363Y21130
X4063Y25430
X9763Y28230
X11063Y29230
X9263Y29530
X13963Y25830
X17113Y27230
X17013Y27730
X19263Y27730
X19763Y28530
X21113Y28130
X21313Y26880
X24013Y25730
X24513Y27180
X24613Y28930
X23613Y29080
X22813Y29830
X22863Y31430
X20813Y29980
X20163Y30530
X18213Y30530
X15963Y29980
X26213Y29730
X29363Y33030
X26913Y34130
X33963Y38930
X39413Y34330
X37563Y33880
X42963Y32780
X47713Y32830
X48963Y31680
X49613Y32330
X53563Y33630
X54613Y33630
X54063Y32580
X58113Y30130
X49613Y28730
X51613Y20780
X52363Y20830
X54813Y19330
X56263Y19480
X55413Y15580
X58013Y13730
X58863Y13730
X59213Y12730
X59213Y11730
X52363Y5480
X58313Y4180
X59063Y4430
X60313Y3180
X61213Y4030
X39513Y19680
X39913Y20380
X38863Y20780
X29563Y19530
X28163Y17880
X27013Y18080
X25113Y19080
X23013Y20030
X23663Y20730
X22763Y21380
X24413Y21880
X28913Y22480
X28863Y23280
X19113Y21230
T02
X59113Y32680
X59113Y33480
X59113Y34280
T03
X50813Y28080
X50813Y27080
X48363Y27680
X47363Y27680
X46363Y27680
X45363Y27680
X43763Y27680
X40763Y27680
X38363Y26380
X38363Y25380
X36613Y24430
X35613Y24430
X34613Y24430
X33613Y24430
X33613Y27430
X34613Y27430
X35613Y27430
X36613Y27430
X42413Y24530
X42413Y23530
X45363Y24680
X46363Y24680
X47363Y24680
X48363Y24680
X50813Y24430
X50813Y23430
X52613Y23430
X55613Y23430
X54813Y27430
X53413Y27430
X20613Y31680
X19613Y31680
X17613Y31680
X16613Y31680
X11263Y11130
X9813Y11180
X9813Y8180
X11263Y8130
X11613Y4680
X12613Y4680
X9813Y4730
X8813Y4730
T04
X18775Y35599
X18775Y36584
X19601Y36584
X20625Y36584
X21452Y36584
X21452Y35599
T05
X5113Y2180
X6113Y2180
X7113Y2180
X8113Y2180
X9113Y2180
X10113Y2180
X11113Y2180
X12113Y2180
X6922Y7749
X6922Y8839
X5804Y8296
X5804Y9387
X5804Y10473
X6922Y9930
X6922Y11021
X5804Y11564
X6922Y12111
X5113Y22305
X5113Y23305
X5113Y24305
X5113Y25305
X5113Y26305
X5113Y27305
X5113Y28305
X5113Y29305
X5113Y30930
X5113Y31930
X5113Y32930
X5113Y33930
X8113Y33930
X8113Y32930
X8113Y31930
X8113Y30930
X10363Y32180
X11363Y32180
X12363Y32180
X13363Y32180
X12363Y29180
X12363Y28180
X12363Y27180
X12363Y26180
X12363Y25180
X12363Y24180
X12363Y23180
X12363Y22180
X16113Y23930
X17113Y23930
X18113Y23930
X19113Y23930
X20113Y23930
X21113Y23930
X26363Y23930
X27363Y23930
X27363Y26180
X26363Y26180
X26113Y28430
X27113Y28430
X28613Y31430
X29613Y31430
X25113Y31430
X24113Y31430
X34863Y31680
X35863Y31680
X36863Y31680
X42432Y35621
X43523Y35621
X44613Y35621
X45704Y35621
X46794Y35621
X46247Y36739
X45157Y36739
X44070Y36739
X42979Y36739
X45113Y31680
X46113Y31680
X47113Y31680
X50863Y31680
X51863Y31680
X52863Y31680
X53063Y35030
X52063Y35030
X54063Y35030
X55063Y35030
X56063Y35030
X57613Y36680
X58613Y36680
X59613Y36680
X60613Y36680
X60613Y29680
X60613Y28680
X60613Y27680
X60613Y26680
X60613Y25680
X60613Y24680
X60613Y22180
X60613Y21180
X60613Y20180
X60613Y19180
X60613Y18180
X60613Y17180
X60613Y16180
X60613Y15180
X60613Y14180
X60613Y13180
X60613Y12180
X60613Y11180
X60613Y10180
X60613Y9180
X60613Y8180
X60613Y7180
X54113Y4430
X53113Y4430
X53113Y1680
X54113Y1680
X55113Y1680
X56113Y1680
T06
X14113Y34430
X12613Y34430
X11113Y34430
X7662Y37576
X7781Y38828
X5064Y37576
X4946Y38828
X52696Y38828
X52814Y37576
X55412Y37576
X55531Y38828
T07
X32763Y37680
X32313Y36930
X31863Y36180
X31413Y36930
X30963Y36180
X30513Y36930
X30063Y36180
X29613Y36930
X29163Y36180
X28713Y36930
X29163Y37680
X30063Y37680
X30963Y37680
X31863Y37680
X32763Y36180
T08
X6863Y20930
X6863Y19930
X4863Y18930
X6863Y17930
X6863Y16930
T09
X10613Y38430
X14613Y38430
T10
X58623Y5570
X58593Y1490
T11
X22913Y37880
X20113Y38080
X17413Y37880
T12
X22701Y27605
X4151Y4193
X61126Y38093
T13
X35783Y36830
X26163Y36830
T14
X39692Y36180
X49534Y36180
X6363Y14851
X6363Y5009
M30
