G75*
%MOIN*%
%OFA0B0*%
%FSLAX24Y24*%
%IPPOS*%
%LPD*%
%AMOC8*
5,1,8,0,0,1.08239X$1,22.5*
%
%ADD10C,0.0000*%
%ADD11R,0.0500X0.0250*%
%ADD12R,0.0984X0.0984*%
%ADD13R,0.0394X0.0787*%
%ADD14R,0.0157X0.0531*%
%ADD15C,0.0050*%
%ADD16R,0.0137X0.0550*%
D10*
X003113Y000180D02*
X003113Y039550D01*
X062105Y039550D01*
X062105Y000180D01*
X003113Y000180D01*
X003600Y004193D02*
X003602Y004240D01*
X003608Y004286D01*
X003618Y004332D01*
X003631Y004377D01*
X003649Y004420D01*
X003670Y004462D01*
X003694Y004502D01*
X003722Y004539D01*
X003753Y004574D01*
X003787Y004607D01*
X003823Y004636D01*
X003862Y004662D01*
X003903Y004685D01*
X003946Y004704D01*
X003990Y004720D01*
X004035Y004732D01*
X004081Y004740D01*
X004128Y004744D01*
X004174Y004744D01*
X004221Y004740D01*
X004267Y004732D01*
X004312Y004720D01*
X004356Y004704D01*
X004399Y004685D01*
X004440Y004662D01*
X004479Y004636D01*
X004515Y004607D01*
X004549Y004574D01*
X004580Y004539D01*
X004608Y004502D01*
X004632Y004462D01*
X004653Y004420D01*
X004671Y004377D01*
X004684Y004332D01*
X004694Y004286D01*
X004700Y004240D01*
X004702Y004193D01*
X004700Y004146D01*
X004694Y004100D01*
X004684Y004054D01*
X004671Y004009D01*
X004653Y003966D01*
X004632Y003924D01*
X004608Y003884D01*
X004580Y003847D01*
X004549Y003812D01*
X004515Y003779D01*
X004479Y003750D01*
X004440Y003724D01*
X004399Y003701D01*
X004356Y003682D01*
X004312Y003666D01*
X004267Y003654D01*
X004221Y003646D01*
X004174Y003642D01*
X004128Y003642D01*
X004081Y003646D01*
X004035Y003654D01*
X003990Y003666D01*
X003946Y003682D01*
X003903Y003701D01*
X003862Y003724D01*
X003823Y003750D01*
X003787Y003779D01*
X003753Y003812D01*
X003722Y003847D01*
X003694Y003884D01*
X003670Y003924D01*
X003649Y003966D01*
X003631Y004009D01*
X003618Y004054D01*
X003608Y004100D01*
X003602Y004146D01*
X003600Y004193D01*
X022150Y027605D02*
X022152Y027652D01*
X022158Y027698D01*
X022168Y027744D01*
X022181Y027789D01*
X022199Y027832D01*
X022220Y027874D01*
X022244Y027914D01*
X022272Y027951D01*
X022303Y027986D01*
X022337Y028019D01*
X022373Y028048D01*
X022412Y028074D01*
X022453Y028097D01*
X022496Y028116D01*
X022540Y028132D01*
X022585Y028144D01*
X022631Y028152D01*
X022678Y028156D01*
X022724Y028156D01*
X022771Y028152D01*
X022817Y028144D01*
X022862Y028132D01*
X022906Y028116D01*
X022949Y028097D01*
X022990Y028074D01*
X023029Y028048D01*
X023065Y028019D01*
X023099Y027986D01*
X023130Y027951D01*
X023158Y027914D01*
X023182Y027874D01*
X023203Y027832D01*
X023221Y027789D01*
X023234Y027744D01*
X023244Y027698D01*
X023250Y027652D01*
X023252Y027605D01*
X023250Y027558D01*
X023244Y027512D01*
X023234Y027466D01*
X023221Y027421D01*
X023203Y027378D01*
X023182Y027336D01*
X023158Y027296D01*
X023130Y027259D01*
X023099Y027224D01*
X023065Y027191D01*
X023029Y027162D01*
X022990Y027136D01*
X022949Y027113D01*
X022906Y027094D01*
X022862Y027078D01*
X022817Y027066D01*
X022771Y027058D01*
X022724Y027054D01*
X022678Y027054D01*
X022631Y027058D01*
X022585Y027066D01*
X022540Y027078D01*
X022496Y027094D01*
X022453Y027113D01*
X022412Y027136D01*
X022373Y027162D01*
X022337Y027191D01*
X022303Y027224D01*
X022272Y027259D01*
X022244Y027296D01*
X022220Y027336D01*
X022199Y027378D01*
X022181Y027421D01*
X022168Y027466D01*
X022158Y027512D01*
X022152Y027558D01*
X022150Y027605D01*
X058308Y005570D02*
X058310Y005605D01*
X058316Y005640D01*
X058326Y005674D01*
X058339Y005707D01*
X058356Y005738D01*
X058377Y005766D01*
X058400Y005793D01*
X058427Y005816D01*
X058455Y005837D01*
X058486Y005854D01*
X058519Y005867D01*
X058553Y005877D01*
X058588Y005883D01*
X058623Y005885D01*
X058658Y005883D01*
X058693Y005877D01*
X058727Y005867D01*
X058760Y005854D01*
X058791Y005837D01*
X058819Y005816D01*
X058846Y005793D01*
X058869Y005766D01*
X058890Y005738D01*
X058907Y005707D01*
X058920Y005674D01*
X058930Y005640D01*
X058936Y005605D01*
X058938Y005570D01*
X058936Y005535D01*
X058930Y005500D01*
X058920Y005466D01*
X058907Y005433D01*
X058890Y005402D01*
X058869Y005374D01*
X058846Y005347D01*
X058819Y005324D01*
X058791Y005303D01*
X058760Y005286D01*
X058727Y005273D01*
X058693Y005263D01*
X058658Y005257D01*
X058623Y005255D01*
X058588Y005257D01*
X058553Y005263D01*
X058519Y005273D01*
X058486Y005286D01*
X058455Y005303D01*
X058427Y005324D01*
X058400Y005347D01*
X058377Y005374D01*
X058356Y005402D01*
X058339Y005433D01*
X058326Y005466D01*
X058316Y005500D01*
X058310Y005535D01*
X058308Y005570D01*
X058278Y001490D02*
X058280Y001525D01*
X058286Y001560D01*
X058296Y001594D01*
X058309Y001627D01*
X058326Y001658D01*
X058347Y001686D01*
X058370Y001713D01*
X058397Y001736D01*
X058425Y001757D01*
X058456Y001774D01*
X058489Y001787D01*
X058523Y001797D01*
X058558Y001803D01*
X058593Y001805D01*
X058628Y001803D01*
X058663Y001797D01*
X058697Y001787D01*
X058730Y001774D01*
X058761Y001757D01*
X058789Y001736D01*
X058816Y001713D01*
X058839Y001686D01*
X058860Y001658D01*
X058877Y001627D01*
X058890Y001594D01*
X058900Y001560D01*
X058906Y001525D01*
X058908Y001490D01*
X058906Y001455D01*
X058900Y001420D01*
X058890Y001386D01*
X058877Y001353D01*
X058860Y001322D01*
X058839Y001294D01*
X058816Y001267D01*
X058789Y001244D01*
X058761Y001223D01*
X058730Y001206D01*
X058697Y001193D01*
X058663Y001183D01*
X058628Y001177D01*
X058593Y001175D01*
X058558Y001177D01*
X058523Y001183D01*
X058489Y001193D01*
X058456Y001206D01*
X058425Y001223D01*
X058397Y001244D01*
X058370Y001267D01*
X058347Y001294D01*
X058326Y001322D01*
X058309Y001353D01*
X058296Y001386D01*
X058286Y001420D01*
X058280Y001455D01*
X058278Y001490D01*
X060575Y038093D02*
X060577Y038140D01*
X060583Y038186D01*
X060593Y038232D01*
X060606Y038277D01*
X060624Y038320D01*
X060645Y038362D01*
X060669Y038402D01*
X060697Y038439D01*
X060728Y038474D01*
X060762Y038507D01*
X060798Y038536D01*
X060837Y038562D01*
X060878Y038585D01*
X060921Y038604D01*
X060965Y038620D01*
X061010Y038632D01*
X061056Y038640D01*
X061103Y038644D01*
X061149Y038644D01*
X061196Y038640D01*
X061242Y038632D01*
X061287Y038620D01*
X061331Y038604D01*
X061374Y038585D01*
X061415Y038562D01*
X061454Y038536D01*
X061490Y038507D01*
X061524Y038474D01*
X061555Y038439D01*
X061583Y038402D01*
X061607Y038362D01*
X061628Y038320D01*
X061646Y038277D01*
X061659Y038232D01*
X061669Y038186D01*
X061675Y038140D01*
X061677Y038093D01*
X061675Y038046D01*
X061669Y038000D01*
X061659Y037954D01*
X061646Y037909D01*
X061628Y037866D01*
X061607Y037824D01*
X061583Y037784D01*
X061555Y037747D01*
X061524Y037712D01*
X061490Y037679D01*
X061454Y037650D01*
X061415Y037624D01*
X061374Y037601D01*
X061331Y037582D01*
X061287Y037566D01*
X061242Y037554D01*
X061196Y037546D01*
X061149Y037542D01*
X061103Y037542D01*
X061056Y037546D01*
X061010Y037554D01*
X060965Y037566D01*
X060921Y037582D01*
X060878Y037601D01*
X060837Y037624D01*
X060798Y037650D01*
X060762Y037679D01*
X060728Y037712D01*
X060697Y037747D01*
X060669Y037784D01*
X060645Y037824D01*
X060624Y037866D01*
X060606Y037909D01*
X060593Y037954D01*
X060583Y038000D01*
X060577Y038046D01*
X060575Y038093D01*
D11*
X057553Y005560D03*
X057553Y005140D03*
X057553Y004620D03*
X057553Y004200D03*
X057553Y003780D03*
X057553Y003360D03*
X057553Y002940D03*
X057553Y002520D03*
X057553Y002100D03*
X057553Y001680D03*
D12*
X055531Y038678D03*
X052696Y038678D03*
X007781Y038678D03*
X004946Y038678D03*
D13*
X006068Y038717D03*
X006659Y038717D03*
X053818Y038717D03*
X054409Y038717D03*
D14*
X054369Y037625D03*
X054113Y037625D03*
X053857Y037625D03*
X053601Y037625D03*
X054625Y037625D03*
X006875Y037625D03*
X006619Y037625D03*
X006363Y037625D03*
X006107Y037625D03*
X005851Y037625D03*
D15*
X005281Y037576D02*
X005274Y037532D01*
X005260Y037490D01*
X005237Y037452D01*
X005207Y037418D01*
X005172Y037392D01*
X005132Y037373D01*
X005089Y037362D01*
X005044Y037359D01*
X004611Y037359D01*
X004561Y037363D01*
X004512Y037377D01*
X004468Y037402D01*
X004431Y037437D01*
X004402Y037478D01*
X004383Y037526D01*
X004375Y037576D01*
X004381Y037620D01*
X004396Y037662D01*
X004419Y037700D01*
X004448Y037733D01*
X004484Y037760D01*
X004524Y037779D01*
X004567Y037790D01*
X004611Y037792D01*
X005044Y037792D01*
X005089Y037790D01*
X005132Y037779D01*
X005172Y037760D01*
X005207Y037733D01*
X005237Y037700D01*
X005260Y037662D01*
X005274Y037620D01*
X005281Y037576D01*
X005280Y037574D02*
X004375Y037574D01*
X004382Y037622D02*
X005273Y037622D01*
X005254Y037671D02*
X004401Y037671D01*
X004436Y037719D02*
X005220Y037719D01*
X005155Y037768D02*
X004501Y037768D01*
X004383Y037525D02*
X005272Y037525D01*
X005252Y037477D02*
X004403Y037477D01*
X004440Y037428D02*
X005216Y037428D01*
X005146Y037380D02*
X004508Y037380D01*
X007446Y037576D02*
X007454Y037526D01*
X007473Y037478D01*
X007501Y037437D01*
X007539Y037402D01*
X007583Y037377D01*
X007632Y037363D01*
X007682Y037359D01*
X008115Y037359D01*
X008160Y037362D01*
X008203Y037373D01*
X008243Y037392D01*
X008278Y037418D01*
X008308Y037452D01*
X008330Y037490D01*
X008345Y037532D01*
X008351Y037576D01*
X008345Y037620D01*
X008330Y037662D01*
X008308Y037700D01*
X008278Y037733D01*
X008243Y037760D01*
X008203Y037779D01*
X008160Y037790D01*
X008115Y037792D01*
X007682Y037792D01*
X007638Y037790D01*
X007595Y037779D01*
X007555Y037760D01*
X007519Y037733D01*
X007490Y037700D01*
X007467Y037662D01*
X007452Y037620D01*
X007446Y037576D01*
X007446Y037574D02*
X008351Y037574D01*
X008344Y037622D02*
X007453Y037622D01*
X007472Y037671D02*
X008325Y037671D01*
X008290Y037719D02*
X007507Y037719D01*
X007572Y037768D02*
X008226Y037768D01*
X008343Y037525D02*
X007454Y037525D01*
X007474Y037477D02*
X008323Y037477D01*
X008287Y037428D02*
X007511Y037428D01*
X007579Y037380D02*
X008217Y037380D01*
X052125Y037576D02*
X052133Y037526D01*
X052152Y037478D01*
X052181Y037437D01*
X052218Y037402D01*
X052262Y037377D01*
X052311Y037363D01*
X052361Y037359D01*
X052794Y037359D01*
X052839Y037362D01*
X052882Y037373D01*
X052922Y037392D01*
X052957Y037418D01*
X052987Y037452D01*
X053010Y037490D01*
X053024Y037532D01*
X053031Y037576D01*
X053024Y037620D01*
X053010Y037662D01*
X052987Y037700D01*
X052957Y037733D01*
X052922Y037760D01*
X052882Y037779D01*
X052839Y037790D01*
X052794Y037792D01*
X052361Y037792D01*
X052317Y037790D01*
X052274Y037779D01*
X052234Y037760D01*
X052198Y037733D01*
X052169Y037700D01*
X052146Y037662D01*
X052131Y037620D01*
X052125Y037576D01*
X052125Y037574D02*
X053030Y037574D01*
X053023Y037622D02*
X052132Y037622D01*
X052151Y037671D02*
X053004Y037671D01*
X052970Y037719D02*
X052186Y037719D01*
X052251Y037768D02*
X052905Y037768D01*
X053022Y037525D02*
X052133Y037525D01*
X052153Y037477D02*
X053002Y037477D01*
X052966Y037428D02*
X052190Y037428D01*
X052258Y037380D02*
X052896Y037380D01*
X055196Y037576D02*
X055204Y037526D01*
X055223Y037478D01*
X055251Y037437D01*
X055289Y037402D01*
X055333Y037377D01*
X055382Y037363D01*
X055432Y037359D01*
X055865Y037359D01*
X055910Y037362D01*
X055953Y037373D01*
X055993Y037392D01*
X056028Y037418D01*
X056058Y037452D01*
X056080Y037490D01*
X056095Y037532D01*
X056101Y037576D01*
X056095Y037620D01*
X056080Y037662D01*
X056058Y037700D01*
X056028Y037733D01*
X055993Y037760D01*
X055953Y037779D01*
X055910Y037790D01*
X055865Y037792D01*
X055432Y037792D01*
X055388Y037790D01*
X055345Y037779D01*
X055305Y037760D01*
X055269Y037733D01*
X055240Y037700D01*
X055217Y037662D01*
X055202Y037620D01*
X055196Y037576D01*
X055196Y037574D02*
X056101Y037574D01*
X056094Y037622D02*
X055203Y037622D01*
X055222Y037671D02*
X056075Y037671D01*
X056040Y037719D02*
X055257Y037719D01*
X055322Y037768D02*
X055976Y037768D01*
X056093Y037525D02*
X055204Y037525D01*
X055224Y037477D02*
X056073Y037477D01*
X056037Y037428D02*
X055261Y037428D01*
X055329Y037380D02*
X055967Y037380D01*
D16*
X020027Y029369D03*
X019771Y029369D03*
X019515Y029369D03*
X019259Y029369D03*
X019003Y029369D03*
X018747Y029369D03*
X018491Y029369D03*
X018235Y029369D03*
X017979Y029369D03*
X017723Y029369D03*
X017468Y029369D03*
X017212Y029369D03*
X016956Y029369D03*
X016700Y029369D03*
X016700Y026491D03*
X016956Y026491D03*
X017212Y026491D03*
X017468Y026491D03*
X017723Y026491D03*
X017979Y026491D03*
X018235Y026491D03*
X018491Y026491D03*
X018747Y026491D03*
X019003Y026491D03*
X019259Y026491D03*
X019515Y026491D03*
X019771Y026491D03*
X020027Y026491D03*
M02*
