G75*
%MOIN*%
%OFA0B0*%
%FSLAX24Y24*%
%IPPOS*%
%LPD*%
%AMOC8*
5,1,8,0,0,1.08239X$1,22.5*
%
%ADD10C,0.0000*%
%ADD11C,0.1142*%
%ADD12R,0.0555X0.0555*%
%ADD13C,0.0670*%
%ADD14R,0.0690X0.0690*%
%ADD15R,0.0808X0.0808*%
%ADD16C,0.0594*%
%ADD17C,0.1306*%
%ADD18R,0.0780X0.0780*%
%ADD19C,0.0780*%
%ADD20C,0.2040*%
%ADD21C,0.0745*%
%ADD22C,0.0745*%
%ADD23C,0.0690*%
%ADD24R,0.1024X0.1024*%
%ADD25R,0.0749X0.0749*%
%ADD26C,0.0640*%
%ADD27OC8,0.0560*%
%ADD28C,0.0560*%
%ADD29OC8,0.0670*%
%ADD30C,0.0670*%
D10*
X003113Y000180D02*
X003113Y039550D01*
X062105Y039550D01*
X062105Y000180D01*
X003113Y000180D01*
X003600Y004193D02*
X003602Y004240D01*
X003608Y004286D01*
X003618Y004332D01*
X003631Y004377D01*
X003649Y004420D01*
X003670Y004462D01*
X003694Y004502D01*
X003722Y004539D01*
X003753Y004574D01*
X003787Y004607D01*
X003823Y004636D01*
X003862Y004662D01*
X003903Y004685D01*
X003946Y004704D01*
X003990Y004720D01*
X004035Y004732D01*
X004081Y004740D01*
X004128Y004744D01*
X004174Y004744D01*
X004221Y004740D01*
X004267Y004732D01*
X004312Y004720D01*
X004356Y004704D01*
X004399Y004685D01*
X004440Y004662D01*
X004479Y004636D01*
X004515Y004607D01*
X004549Y004574D01*
X004580Y004539D01*
X004608Y004502D01*
X004632Y004462D01*
X004653Y004420D01*
X004671Y004377D01*
X004684Y004332D01*
X004694Y004286D01*
X004700Y004240D01*
X004702Y004193D01*
X004700Y004146D01*
X004694Y004100D01*
X004684Y004054D01*
X004671Y004009D01*
X004653Y003966D01*
X004632Y003924D01*
X004608Y003884D01*
X004580Y003847D01*
X004549Y003812D01*
X004515Y003779D01*
X004479Y003750D01*
X004440Y003724D01*
X004399Y003701D01*
X004356Y003682D01*
X004312Y003666D01*
X004267Y003654D01*
X004221Y003646D01*
X004174Y003642D01*
X004128Y003642D01*
X004081Y003646D01*
X004035Y003654D01*
X003990Y003666D01*
X003946Y003682D01*
X003903Y003701D01*
X003862Y003724D01*
X003823Y003750D01*
X003787Y003779D01*
X003753Y003812D01*
X003722Y003847D01*
X003694Y003884D01*
X003670Y003924D01*
X003649Y003966D01*
X003631Y004009D01*
X003618Y004054D01*
X003608Y004100D01*
X003602Y004146D01*
X003600Y004193D01*
X022150Y027605D02*
X022152Y027652D01*
X022158Y027698D01*
X022168Y027744D01*
X022181Y027789D01*
X022199Y027832D01*
X022220Y027874D01*
X022244Y027914D01*
X022272Y027951D01*
X022303Y027986D01*
X022337Y028019D01*
X022373Y028048D01*
X022412Y028074D01*
X022453Y028097D01*
X022496Y028116D01*
X022540Y028132D01*
X022585Y028144D01*
X022631Y028152D01*
X022678Y028156D01*
X022724Y028156D01*
X022771Y028152D01*
X022817Y028144D01*
X022862Y028132D01*
X022906Y028116D01*
X022949Y028097D01*
X022990Y028074D01*
X023029Y028048D01*
X023065Y028019D01*
X023099Y027986D01*
X023130Y027951D01*
X023158Y027914D01*
X023182Y027874D01*
X023203Y027832D01*
X023221Y027789D01*
X023234Y027744D01*
X023244Y027698D01*
X023250Y027652D01*
X023252Y027605D01*
X023250Y027558D01*
X023244Y027512D01*
X023234Y027466D01*
X023221Y027421D01*
X023203Y027378D01*
X023182Y027336D01*
X023158Y027296D01*
X023130Y027259D01*
X023099Y027224D01*
X023065Y027191D01*
X023029Y027162D01*
X022990Y027136D01*
X022949Y027113D01*
X022906Y027094D01*
X022862Y027078D01*
X022817Y027066D01*
X022771Y027058D01*
X022724Y027054D01*
X022678Y027054D01*
X022631Y027058D01*
X022585Y027066D01*
X022540Y027078D01*
X022496Y027094D01*
X022453Y027113D01*
X022412Y027136D01*
X022373Y027162D01*
X022337Y027191D01*
X022303Y027224D01*
X022272Y027259D01*
X022244Y027296D01*
X022220Y027336D01*
X022199Y027378D01*
X022181Y027421D01*
X022168Y027466D01*
X022158Y027512D01*
X022152Y027558D01*
X022150Y027605D01*
X058308Y005570D02*
X058310Y005605D01*
X058316Y005640D01*
X058326Y005674D01*
X058339Y005707D01*
X058356Y005738D01*
X058377Y005766D01*
X058400Y005793D01*
X058427Y005816D01*
X058455Y005837D01*
X058486Y005854D01*
X058519Y005867D01*
X058553Y005877D01*
X058588Y005883D01*
X058623Y005885D01*
X058658Y005883D01*
X058693Y005877D01*
X058727Y005867D01*
X058760Y005854D01*
X058791Y005837D01*
X058819Y005816D01*
X058846Y005793D01*
X058869Y005766D01*
X058890Y005738D01*
X058907Y005707D01*
X058920Y005674D01*
X058930Y005640D01*
X058936Y005605D01*
X058938Y005570D01*
X058936Y005535D01*
X058930Y005500D01*
X058920Y005466D01*
X058907Y005433D01*
X058890Y005402D01*
X058869Y005374D01*
X058846Y005347D01*
X058819Y005324D01*
X058791Y005303D01*
X058760Y005286D01*
X058727Y005273D01*
X058693Y005263D01*
X058658Y005257D01*
X058623Y005255D01*
X058588Y005257D01*
X058553Y005263D01*
X058519Y005273D01*
X058486Y005286D01*
X058455Y005303D01*
X058427Y005324D01*
X058400Y005347D01*
X058377Y005374D01*
X058356Y005402D01*
X058339Y005433D01*
X058326Y005466D01*
X058316Y005500D01*
X058310Y005535D01*
X058308Y005570D01*
X058278Y001490D02*
X058280Y001525D01*
X058286Y001560D01*
X058296Y001594D01*
X058309Y001627D01*
X058326Y001658D01*
X058347Y001686D01*
X058370Y001713D01*
X058397Y001736D01*
X058425Y001757D01*
X058456Y001774D01*
X058489Y001787D01*
X058523Y001797D01*
X058558Y001803D01*
X058593Y001805D01*
X058628Y001803D01*
X058663Y001797D01*
X058697Y001787D01*
X058730Y001774D01*
X058761Y001757D01*
X058789Y001736D01*
X058816Y001713D01*
X058839Y001686D01*
X058860Y001658D01*
X058877Y001627D01*
X058890Y001594D01*
X058900Y001560D01*
X058906Y001525D01*
X058908Y001490D01*
X058906Y001455D01*
X058900Y001420D01*
X058890Y001386D01*
X058877Y001353D01*
X058860Y001322D01*
X058839Y001294D01*
X058816Y001267D01*
X058789Y001244D01*
X058761Y001223D01*
X058730Y001206D01*
X058697Y001193D01*
X058663Y001183D01*
X058628Y001177D01*
X058593Y001175D01*
X058558Y001177D01*
X058523Y001183D01*
X058489Y001193D01*
X058456Y001206D01*
X058425Y001223D01*
X058397Y001244D01*
X058370Y001267D01*
X058347Y001294D01*
X058326Y001322D01*
X058309Y001353D01*
X058296Y001386D01*
X058286Y001420D01*
X058280Y001455D01*
X058278Y001490D01*
X060575Y038093D02*
X060577Y038140D01*
X060583Y038186D01*
X060593Y038232D01*
X060606Y038277D01*
X060624Y038320D01*
X060645Y038362D01*
X060669Y038402D01*
X060697Y038439D01*
X060728Y038474D01*
X060762Y038507D01*
X060798Y038536D01*
X060837Y038562D01*
X060878Y038585D01*
X060921Y038604D01*
X060965Y038620D01*
X061010Y038632D01*
X061056Y038640D01*
X061103Y038644D01*
X061149Y038644D01*
X061196Y038640D01*
X061242Y038632D01*
X061287Y038620D01*
X061331Y038604D01*
X061374Y038585D01*
X061415Y038562D01*
X061454Y038536D01*
X061490Y038507D01*
X061524Y038474D01*
X061555Y038439D01*
X061583Y038402D01*
X061607Y038362D01*
X061628Y038320D01*
X061646Y038277D01*
X061659Y038232D01*
X061669Y038186D01*
X061675Y038140D01*
X061677Y038093D01*
X061675Y038046D01*
X061669Y038000D01*
X061659Y037954D01*
X061646Y037909D01*
X061628Y037866D01*
X061607Y037824D01*
X061583Y037784D01*
X061555Y037747D01*
X061524Y037712D01*
X061490Y037679D01*
X061454Y037650D01*
X061415Y037624D01*
X061374Y037601D01*
X061331Y037582D01*
X061287Y037566D01*
X061242Y037554D01*
X061196Y037546D01*
X061149Y037542D01*
X061103Y037542D01*
X061056Y037546D01*
X061010Y037554D01*
X060965Y037566D01*
X060921Y037582D01*
X060878Y037601D01*
X060837Y037624D01*
X060798Y037650D01*
X060762Y037679D01*
X060728Y037712D01*
X060697Y037747D01*
X060669Y037784D01*
X060645Y037824D01*
X060624Y037866D01*
X060606Y037909D01*
X060593Y037954D01*
X060583Y038000D01*
X060577Y038046D01*
X060575Y038093D01*
D11*
X061126Y038093D03*
X022701Y027605D03*
X004151Y004193D03*
D12*
X059113Y032680D03*
X059113Y033480D03*
X059113Y034280D03*
D13*
X058623Y005570D03*
X058593Y001490D03*
D14*
X014113Y034430D03*
X012613Y034430D03*
X011113Y034430D03*
D15*
X010613Y038430D03*
X014613Y038430D03*
D16*
X018775Y036584D03*
X019601Y036584D03*
X020625Y036584D03*
X021452Y036584D03*
X021452Y035599D03*
X018775Y035599D03*
D17*
X017413Y037880D03*
X020113Y038080D03*
X022913Y037880D03*
D18*
X042432Y035621D03*
X006922Y007749D03*
D19*
X006922Y008839D03*
X005804Y008296D03*
X005804Y009387D03*
X005804Y010473D03*
X006922Y009930D03*
X006922Y011021D03*
X005804Y011564D03*
X006922Y012111D03*
X008813Y004730D03*
X009813Y004730D03*
X011613Y004680D03*
X012613Y004680D03*
X043523Y035621D03*
X044613Y035621D03*
X045704Y035621D03*
X046794Y035621D03*
X046247Y036739D03*
X045157Y036739D03*
X044070Y036739D03*
X042979Y036739D03*
D20*
X039692Y036180D03*
X035783Y036830D03*
X026163Y036830D03*
X049534Y036180D03*
X006363Y014851D03*
X006363Y005009D03*
D21*
X029163Y035475D02*
X029163Y036180D01*
X030063Y036180D02*
X030063Y035475D01*
X030963Y035475D02*
X030963Y036180D01*
X031863Y036180D02*
X031863Y035475D01*
X032763Y035475D02*
X032763Y036180D01*
X032763Y037680D02*
X032763Y038385D01*
X031863Y038385D02*
X031863Y037680D01*
X030963Y037680D02*
X030963Y038385D01*
X030063Y038385D02*
X030063Y037680D01*
X029163Y037680D02*
X029163Y038385D01*
D22*
X028713Y036930D03*
X029613Y036930D03*
X030513Y036930D03*
X031413Y036930D03*
X032313Y036930D03*
D23*
X052164Y037576D02*
X052814Y037576D01*
X055412Y037576D02*
X056062Y037576D01*
X008312Y037576D02*
X007662Y037576D01*
X005064Y037576D02*
X004414Y037576D01*
D24*
X004946Y038828D03*
X007781Y038828D03*
X052696Y038828D03*
X055531Y038828D03*
D25*
X006863Y020930D03*
X006863Y019930D03*
X004863Y018930D03*
X006863Y017930D03*
X006863Y016930D03*
D26*
X005413Y022305D02*
X004813Y022305D01*
X004813Y023305D02*
X005413Y023305D01*
X005413Y024305D02*
X004813Y024305D01*
X004813Y025305D02*
X005413Y025305D01*
X005413Y026305D02*
X004813Y026305D01*
X004813Y027305D02*
X005413Y027305D01*
X005413Y028305D02*
X004813Y028305D01*
X004813Y029305D02*
X005413Y029305D01*
X005413Y030930D02*
X004813Y030930D01*
X004813Y031930D02*
X005413Y031930D01*
X005413Y032930D02*
X004813Y032930D01*
X004813Y033930D02*
X005413Y033930D01*
X007813Y033930D02*
X008413Y033930D01*
X008413Y032930D02*
X007813Y032930D01*
X007813Y031930D02*
X008413Y031930D01*
X008413Y030930D02*
X007813Y030930D01*
X010363Y031880D02*
X010363Y032480D01*
X011363Y032480D02*
X011363Y031880D01*
X012363Y031880D02*
X012363Y032480D01*
X013363Y032480D02*
X013363Y031880D01*
X012663Y029180D02*
X012063Y029180D01*
X012063Y028180D02*
X012663Y028180D01*
X012663Y027180D02*
X012063Y027180D01*
X012063Y026180D02*
X012663Y026180D01*
X012663Y025180D02*
X012063Y025180D01*
X012063Y024180D02*
X012663Y024180D01*
X012663Y023180D02*
X012063Y023180D01*
X012063Y022180D02*
X012663Y022180D01*
X016113Y023630D02*
X016113Y024230D01*
X017113Y024230D02*
X017113Y023630D01*
X018113Y023630D02*
X018113Y024230D01*
X019113Y024230D02*
X019113Y023630D01*
X020113Y023630D02*
X020113Y024230D01*
X021113Y024230D02*
X021113Y023630D01*
X026363Y023630D02*
X026363Y024230D01*
X027363Y024230D02*
X027363Y023630D01*
X027363Y025880D02*
X027363Y026480D01*
X026363Y026480D02*
X026363Y025880D01*
X026113Y028130D02*
X026113Y028730D01*
X027113Y028730D02*
X027113Y028130D01*
X028613Y031130D02*
X028613Y031730D01*
X029613Y031730D02*
X029613Y031130D01*
X025113Y031130D02*
X025113Y031730D01*
X024113Y031730D02*
X024113Y031130D01*
X034863Y031380D02*
X034863Y031980D01*
X035863Y031980D02*
X035863Y031380D01*
X036863Y031380D02*
X036863Y031980D01*
X045113Y031980D02*
X045113Y031380D01*
X046113Y031380D02*
X046113Y031980D01*
X047113Y031980D02*
X047113Y031380D01*
X050863Y031380D02*
X050863Y031980D01*
X051863Y031980D02*
X051863Y031380D01*
X052863Y031380D02*
X052863Y031980D01*
X053063Y034730D02*
X053063Y035330D01*
X052063Y035330D02*
X052063Y034730D01*
X054063Y034730D02*
X054063Y035330D01*
X055063Y035330D02*
X055063Y034730D01*
X056063Y034730D02*
X056063Y035330D01*
X057613Y036380D02*
X057613Y036980D01*
X058613Y036980D02*
X058613Y036380D01*
X059613Y036380D02*
X059613Y036980D01*
X060613Y036980D02*
X060613Y036380D01*
X060913Y029680D02*
X060313Y029680D01*
X060313Y028680D02*
X060913Y028680D01*
X060913Y027680D02*
X060313Y027680D01*
X060313Y026680D02*
X060913Y026680D01*
X060913Y025680D02*
X060313Y025680D01*
X060313Y024680D02*
X060913Y024680D01*
X060913Y022180D02*
X060313Y022180D01*
X060313Y021180D02*
X060913Y021180D01*
X060913Y020180D02*
X060313Y020180D01*
X060313Y019180D02*
X060913Y019180D01*
X060913Y018180D02*
X060313Y018180D01*
X060313Y017180D02*
X060913Y017180D01*
X060913Y016180D02*
X060313Y016180D01*
X060313Y015180D02*
X060913Y015180D01*
X060913Y014180D02*
X060313Y014180D01*
X060313Y013180D02*
X060913Y013180D01*
X060913Y012180D02*
X060313Y012180D01*
X060313Y011180D02*
X060913Y011180D01*
X060913Y010180D02*
X060313Y010180D01*
X060313Y009180D02*
X060913Y009180D01*
X060913Y008180D02*
X060313Y008180D01*
X060313Y007180D02*
X060913Y007180D01*
X054113Y004730D02*
X054113Y004130D01*
X053113Y004130D02*
X053113Y004730D01*
X053113Y001980D02*
X053113Y001380D01*
X054113Y001380D02*
X054113Y001980D01*
X055113Y001980D02*
X055113Y001380D01*
X056113Y001380D02*
X056113Y001980D01*
X012113Y001880D02*
X012113Y002480D01*
X011113Y002480D02*
X011113Y001880D01*
X010113Y001880D02*
X010113Y002480D01*
X009113Y002480D02*
X009113Y001880D01*
X008113Y001880D02*
X008113Y002480D01*
X007113Y002480D02*
X007113Y001880D01*
X006113Y001880D02*
X006113Y002480D01*
X005113Y002480D02*
X005113Y001880D01*
D27*
X009813Y008180D03*
X011263Y008130D03*
X011263Y011130D03*
X009813Y011180D03*
X038363Y025380D03*
X038363Y026380D03*
X040763Y027680D03*
X043763Y027680D03*
X042413Y024530D03*
X042413Y023530D03*
X050813Y023430D03*
X050813Y024430D03*
X052613Y023430D03*
X055613Y023430D03*
X050813Y027080D03*
X050813Y028080D03*
X020613Y031680D03*
X019613Y031680D03*
X017613Y031680D03*
X016613Y031680D03*
D28*
X033613Y027690D02*
X033613Y027170D01*
X034613Y027170D02*
X034613Y027690D01*
X035613Y027690D02*
X035613Y027170D01*
X036613Y027170D02*
X036613Y027690D01*
X036613Y024690D02*
X036613Y024170D01*
X035613Y024170D02*
X035613Y024690D01*
X034613Y024690D02*
X034613Y024170D01*
X033613Y024170D02*
X033613Y024690D01*
X045363Y024940D02*
X045363Y024420D01*
X046363Y024420D02*
X046363Y024940D01*
X047363Y024940D02*
X047363Y024420D01*
X048363Y024420D02*
X048363Y024940D01*
X048363Y027420D02*
X048363Y027940D01*
X047363Y027940D02*
X047363Y027420D01*
X046363Y027420D02*
X046363Y027940D01*
X045363Y027940D02*
X045363Y027420D01*
D29*
X054813Y027430D03*
D30*
X053413Y027430D03*
M02*
