G75*
G70*
%OFA0B0*%
%FSLAX24Y24*%
%IPPOS*%
%LPD*%
%AMOC8*
5,1,8,0,0,1.08239X$1,22.5*
%
%ADD10C,0.0000*%
%ADD11C,0.0640*%
%ADD12OC8,0.0560*%
%ADD13OC8,0.0640*%
%ADD14C,0.0690*%
%ADD15C,0.0780*%
%ADD16R,0.0631X0.0158*%
%ADD17R,0.0158X0.0631*%
%ADD18R,0.0631X0.0178*%
%ADD19C,0.0700*%
D10*
X000160Y000930D02*
X000160Y039800D01*
X039152Y039800D01*
X039152Y000930D01*
X000160Y000930D01*
D11*
X001860Y002430D02*
X002460Y002430D01*
X002460Y003430D02*
X001860Y003430D01*
X001860Y004430D02*
X002460Y004430D01*
X002460Y005430D02*
X001860Y005430D01*
X006660Y002480D02*
X006660Y001880D01*
X007660Y001880D02*
X007660Y002480D01*
X008660Y002480D02*
X008660Y001880D01*
X011035Y001755D02*
X011035Y002355D01*
X012035Y002355D02*
X012035Y001755D01*
X013035Y001755D02*
X013035Y002355D01*
X012910Y004630D02*
X012910Y005230D01*
X011910Y005230D02*
X011910Y004630D01*
X010910Y004630D02*
X010910Y005230D01*
X009910Y005230D02*
X009910Y004630D01*
X013910Y004630D02*
X013910Y005230D01*
X014910Y005230D02*
X014910Y004630D01*
X015410Y002355D02*
X015410Y001755D01*
X016410Y001755D02*
X016410Y002355D01*
X017410Y002355D02*
X017410Y001755D01*
X006960Y032430D02*
X006360Y032430D01*
X006360Y033430D02*
X006960Y033430D01*
X026160Y035005D02*
X026160Y035605D01*
X027160Y035605D02*
X027160Y035005D01*
X028160Y035005D02*
X028160Y035605D01*
X029160Y035605D02*
X029160Y035005D01*
X030160Y035005D02*
X030160Y035605D01*
X031160Y035605D02*
X031160Y035005D01*
X032160Y035005D02*
X032160Y035605D01*
X033160Y035605D02*
X033160Y035005D01*
X033160Y037630D02*
X033160Y038230D01*
X032160Y038230D02*
X032160Y037630D01*
X031160Y037630D02*
X031160Y038230D01*
X030160Y038230D02*
X030160Y037630D01*
X029160Y037630D02*
X029160Y038230D01*
X028160Y038230D02*
X028160Y037630D01*
X027160Y037630D02*
X027160Y038230D01*
X026160Y038230D02*
X026160Y037630D01*
X036860Y037930D02*
X037460Y037930D01*
X037460Y036930D02*
X036860Y036930D01*
X036860Y035930D02*
X037460Y035930D01*
X037460Y034930D02*
X036860Y034930D01*
X036860Y033930D02*
X037460Y033930D01*
X037460Y032930D02*
X036860Y032930D01*
D12*
X035285Y032430D03*
X035160Y030930D03*
X031160Y030930D03*
X031285Y032430D03*
X026160Y027180D03*
X025160Y027180D03*
X025160Y024930D03*
X026160Y024930D03*
X033660Y024430D03*
X033660Y025930D03*
X033660Y021930D03*
X033660Y020430D03*
X037660Y020430D03*
X037660Y021930D03*
X037660Y024430D03*
X037660Y025930D03*
X037660Y014930D03*
X037660Y013430D03*
X037660Y010930D03*
X037660Y009430D03*
X033660Y009430D03*
X033660Y010930D03*
X033660Y013430D03*
X033660Y014930D03*
X026160Y015930D03*
X025160Y015930D03*
X024160Y013930D03*
X023160Y013930D03*
X015160Y013930D03*
X014160Y013930D03*
X013160Y016430D03*
X012160Y016430D03*
X012700Y018750D03*
X013700Y018750D03*
X013580Y021430D03*
X012580Y021430D03*
X013160Y026930D03*
X014160Y026930D03*
X012160Y035055D03*
X016160Y035055D03*
X006660Y035930D03*
X006660Y036930D03*
X006160Y023930D03*
X006160Y022930D03*
X006160Y014430D03*
X006160Y013430D03*
X020910Y003430D03*
X024910Y003430D03*
X033660Y003930D03*
X033660Y002430D03*
X037660Y002430D03*
X037660Y003930D03*
D13*
X030160Y014430D03*
X029160Y014430D03*
X029160Y015430D03*
X030160Y015430D03*
X030160Y016430D03*
X029160Y016430D03*
X029160Y017430D03*
X030160Y017430D03*
X030160Y018430D03*
X029160Y018430D03*
X029160Y019430D03*
X030160Y019430D03*
X030160Y020430D03*
X029160Y020430D03*
X029160Y021430D03*
X030160Y021430D03*
X030160Y022430D03*
X029160Y022430D03*
X029160Y023430D03*
X030160Y023430D03*
X030160Y024430D03*
X029160Y024430D03*
X029160Y025430D03*
X030160Y025430D03*
X030160Y026430D03*
X029160Y026430D03*
X025160Y029930D03*
X024160Y029930D03*
X023160Y029930D03*
X022160Y029930D03*
X021160Y029930D03*
X020160Y029930D03*
X019160Y029930D03*
X018160Y029930D03*
X017160Y029930D03*
X016160Y029930D03*
X015160Y029930D03*
X014160Y029930D03*
X013160Y029930D03*
X013160Y030930D03*
X014160Y030930D03*
X015160Y030930D03*
X016160Y030930D03*
X017160Y030930D03*
X018160Y030930D03*
X019160Y030930D03*
X020160Y030930D03*
X021160Y030930D03*
X022160Y030930D03*
X023160Y030930D03*
X024160Y030930D03*
X025160Y030930D03*
X021160Y036930D03*
X020160Y036930D03*
X020160Y037930D03*
X021160Y037930D03*
X019160Y037930D03*
X019160Y036930D03*
X018160Y036930D03*
X018160Y037930D03*
X017160Y037930D03*
X017160Y036930D03*
X016160Y036930D03*
X016160Y037930D03*
X015160Y037930D03*
X015160Y036930D03*
X014160Y036930D03*
X014160Y037930D03*
X013160Y037930D03*
X013160Y036930D03*
X012160Y036930D03*
X012160Y037930D03*
X003160Y027930D03*
X003160Y026930D03*
X003160Y025930D03*
X003160Y024930D03*
X003160Y023930D03*
X003160Y022930D03*
X003160Y021930D03*
X003160Y020930D03*
X002160Y020930D03*
X002160Y021930D03*
X002160Y022930D03*
X002160Y023930D03*
X002160Y024930D03*
X002160Y025930D03*
X002160Y026930D03*
X002160Y027930D03*
X008660Y026430D03*
X009660Y026430D03*
X009660Y025430D03*
X009660Y024430D03*
X008660Y024430D03*
X008660Y025430D03*
X008660Y023430D03*
X008660Y022430D03*
X009660Y022430D03*
X009660Y023430D03*
X009660Y021430D03*
X009660Y020430D03*
X008660Y020430D03*
X008660Y021430D03*
X008660Y019430D03*
X008660Y018430D03*
X009660Y018430D03*
X009660Y019430D03*
X009660Y017430D03*
X009660Y016430D03*
X008660Y016430D03*
X008660Y017430D03*
X008660Y015430D03*
X008660Y014430D03*
X009660Y014430D03*
X009660Y015430D03*
X013160Y010930D03*
X013160Y009930D03*
X014160Y009930D03*
X015160Y009930D03*
X016160Y009930D03*
X017160Y009930D03*
X018160Y009930D03*
X019160Y009930D03*
X020160Y009930D03*
X021160Y009930D03*
X022160Y009930D03*
X023160Y009930D03*
X024160Y009930D03*
X025160Y009930D03*
X025160Y010930D03*
X024160Y010930D03*
X023160Y010930D03*
X022160Y010930D03*
X021160Y010930D03*
X020160Y010930D03*
X019160Y010930D03*
X018160Y010930D03*
X017160Y010930D03*
X016160Y010930D03*
X015160Y010930D03*
X014160Y010930D03*
X003160Y010430D03*
X003160Y011430D03*
X002160Y011430D03*
X002160Y010430D03*
X002160Y009430D03*
X002160Y008430D03*
X003160Y008430D03*
X003160Y009430D03*
X003160Y012430D03*
X003160Y013430D03*
X002160Y013430D03*
X002160Y012430D03*
X002160Y014430D03*
X002160Y015430D03*
X003160Y015430D03*
X003160Y014430D03*
X003160Y016430D03*
X003160Y017430D03*
X002160Y017430D03*
X002160Y016430D03*
X002160Y018430D03*
X003160Y018430D03*
D14*
X005910Y017930D03*
X005910Y019930D03*
D15*
X004315Y036290D03*
X004315Y038070D03*
X001755Y038070D03*
X001755Y036290D03*
X027410Y003805D03*
X027410Y002805D03*
D16*
X022810Y018068D03*
X022810Y018265D03*
X022810Y018462D03*
X022810Y018659D03*
X022810Y018856D03*
X022810Y019052D03*
X022810Y019249D03*
X022810Y019446D03*
X022810Y019643D03*
X022810Y019840D03*
X022810Y020234D03*
X022810Y020430D03*
X022810Y020627D03*
X022810Y020824D03*
X022810Y021021D03*
X022810Y021218D03*
X022810Y021415D03*
X022810Y021611D03*
X022810Y021808D03*
X022810Y022202D03*
X022810Y022399D03*
X022810Y022596D03*
X022810Y022793D03*
X016510Y022793D03*
X016510Y022596D03*
X016510Y022399D03*
X016510Y022202D03*
X016510Y022005D03*
X016510Y021808D03*
X016510Y021611D03*
X016510Y021415D03*
X016510Y021218D03*
X016510Y021021D03*
X016510Y020824D03*
X016510Y020627D03*
X016510Y020430D03*
X016510Y020234D03*
X016510Y020037D03*
X016510Y019840D03*
X016510Y019643D03*
X016510Y019446D03*
X016510Y019249D03*
X016510Y019052D03*
X016510Y018856D03*
X016510Y018659D03*
X016510Y018462D03*
X016510Y018265D03*
X016510Y018068D03*
D17*
X017298Y017281D03*
X017495Y017281D03*
X017691Y017281D03*
X017888Y017281D03*
X018085Y017281D03*
X018282Y017281D03*
X018479Y017281D03*
X018676Y017281D03*
X018873Y017281D03*
X019069Y017281D03*
X019266Y017281D03*
X019463Y017281D03*
X019660Y017281D03*
X019857Y017281D03*
X020054Y017281D03*
X020251Y017281D03*
X020447Y017281D03*
X020644Y017281D03*
X020841Y017281D03*
X021038Y017281D03*
X021235Y017281D03*
X021432Y017281D03*
X021629Y017281D03*
X021825Y017281D03*
X022022Y017281D03*
X022022Y023580D03*
X021825Y023580D03*
X021629Y023580D03*
X021432Y023580D03*
X021235Y023580D03*
X021038Y023580D03*
X020841Y023580D03*
X020644Y023580D03*
X020447Y023580D03*
X020251Y023580D03*
X020054Y023580D03*
X019857Y023580D03*
X019660Y023580D03*
X019463Y023580D03*
X019266Y023580D03*
X019069Y023580D03*
X018873Y023580D03*
X018676Y023580D03*
X018479Y023580D03*
X018282Y023580D03*
X018085Y023580D03*
X017888Y023580D03*
X017691Y023580D03*
X017495Y023580D03*
X017298Y023580D03*
D18*
X022810Y022005D03*
X022810Y020037D03*
D19*
X032660Y027430D03*
X032660Y029430D03*
X036660Y029430D03*
X036660Y027430D03*
X037660Y018430D03*
X037660Y016930D03*
X033660Y016930D03*
X033660Y018430D03*
X033660Y007430D03*
X033660Y005930D03*
X037660Y005930D03*
X037660Y007430D03*
M02*
