G75*
G70*
%OFA0B0*%
%FSLAX24Y24*%
%IPPOS*%
%LPD*%
%AMOC8*
5,1,8,0,0,1.08239X$1,22.5*
%
%ADD10C,0.0000*%
%ADD11R,0.0591X0.0118*%
%ADD12R,0.0118X0.0591*%
%ADD13R,0.0591X0.0138*%
D10*
X000160Y000930D02*
X000160Y039800D01*
X039152Y039800D01*
X039152Y000930D01*
X000160Y000930D01*
D11*
X016510Y018068D03*
X016510Y018265D03*
X016510Y018462D03*
X016510Y018659D03*
X016510Y018856D03*
X016510Y019052D03*
X016510Y019249D03*
X016510Y019446D03*
X016510Y019643D03*
X016510Y019840D03*
X016510Y020037D03*
X016510Y020234D03*
X016510Y020430D03*
X016510Y020627D03*
X016510Y020824D03*
X016510Y021021D03*
X016510Y021218D03*
X016510Y021415D03*
X016510Y021611D03*
X016510Y021808D03*
X016510Y022005D03*
X016510Y022202D03*
X016510Y022399D03*
X016510Y022596D03*
X016510Y022793D03*
X022810Y022793D03*
X022810Y022596D03*
X022810Y022399D03*
X022810Y022202D03*
X022810Y021808D03*
X022810Y021611D03*
X022810Y021415D03*
X022810Y021218D03*
X022810Y021021D03*
X022810Y020824D03*
X022810Y020627D03*
X022810Y020430D03*
X022810Y020234D03*
X022810Y019840D03*
X022810Y019643D03*
X022810Y019446D03*
X022810Y019249D03*
X022810Y019052D03*
X022810Y018856D03*
X022810Y018659D03*
X022810Y018462D03*
X022810Y018265D03*
X022810Y018068D03*
D12*
X022022Y017281D03*
X021825Y017281D03*
X021629Y017281D03*
X021432Y017281D03*
X021235Y017281D03*
X021038Y017281D03*
X020841Y017281D03*
X020644Y017281D03*
X020447Y017281D03*
X020251Y017281D03*
X020054Y017281D03*
X019857Y017281D03*
X019660Y017281D03*
X019463Y017281D03*
X019266Y017281D03*
X019069Y017281D03*
X018873Y017281D03*
X018676Y017281D03*
X018479Y017281D03*
X018282Y017281D03*
X018085Y017281D03*
X017888Y017281D03*
X017691Y017281D03*
X017495Y017281D03*
X017298Y017281D03*
X017298Y023580D03*
X017495Y023580D03*
X017691Y023580D03*
X017888Y023580D03*
X018085Y023580D03*
X018282Y023580D03*
X018479Y023580D03*
X018676Y023580D03*
X018873Y023580D03*
X019069Y023580D03*
X019266Y023580D03*
X019463Y023580D03*
X019660Y023580D03*
X019857Y023580D03*
X020054Y023580D03*
X020251Y023580D03*
X020447Y023580D03*
X020644Y023580D03*
X020841Y023580D03*
X021038Y023580D03*
X021235Y023580D03*
X021432Y023580D03*
X021629Y023580D03*
X021825Y023580D03*
X022022Y023580D03*
D13*
X022810Y022005D03*
X022810Y020037D03*
M02*
