G75*
G70*
%OFA0B0*%
%FSLAX24Y24*%
%IPPOS*%
%LPD*%
%AMOC8*
5,1,8,0,0,1.08239X$1,22.5*
%
%ADD10C,0.0000*%
%ADD11C,0.0060*%
%ADD12C,0.0040*%
%ADD13C,0.0050*%
%ADD14C,0.0100*%
%ADD15C,0.0080*%
%ADD16C,0.0010*%
%ADD17R,0.0340X0.0240*%
%ADD18R,0.0200X0.0200*%
%ADD19R,0.0200X0.1000*%
%ADD20R,0.0750X0.0300*%
D10*
X000160Y000930D02*
X000160Y039800D01*
X039152Y039800D01*
X039152Y000930D01*
X000160Y000930D01*
D11*
X001660Y002180D02*
X001660Y002680D01*
X001910Y002930D01*
X001660Y003180D01*
X001660Y003680D01*
X001910Y003930D01*
X002410Y003930D01*
X002660Y003680D01*
X002660Y003180D01*
X002410Y002930D01*
X002660Y002680D01*
X002660Y002180D01*
X002410Y001930D01*
X001910Y001930D01*
X001660Y002180D01*
X001910Y002930D02*
X002410Y002930D01*
X003065Y003117D02*
X003172Y003010D01*
X003385Y003010D01*
X003492Y003117D01*
X003492Y003331D01*
X003385Y003437D01*
X003279Y003437D01*
X003065Y003331D01*
X003065Y003651D01*
X003492Y003651D01*
X003385Y004060D02*
X003172Y004060D01*
X003065Y004167D01*
X003279Y004381D02*
X003385Y004381D01*
X003492Y004274D01*
X003492Y004167D01*
X003385Y004060D01*
X003385Y004381D02*
X003492Y004487D01*
X003492Y004594D01*
X003385Y004701D01*
X003172Y004701D01*
X003065Y004594D01*
X002660Y004680D02*
X002660Y004180D01*
X002410Y003930D01*
X001910Y003930D02*
X001660Y004180D01*
X001660Y004680D01*
X001910Y004930D01*
X001660Y005180D01*
X001660Y005680D01*
X001910Y005930D01*
X002410Y005930D01*
X002660Y005680D01*
X002660Y005180D01*
X002410Y004930D01*
X002660Y004680D01*
X002410Y004930D02*
X001910Y004930D01*
X003065Y005217D02*
X003172Y005110D01*
X003385Y005110D01*
X003492Y005217D01*
X003492Y005431D01*
X003279Y005431D01*
X003492Y005644D02*
X003385Y005751D01*
X003172Y005751D01*
X003065Y005644D01*
X003065Y005217D01*
X003710Y005110D02*
X003710Y005751D01*
X004137Y005110D01*
X004137Y005751D01*
X004354Y005751D02*
X004674Y005751D01*
X004781Y005644D01*
X004781Y005217D01*
X004674Y005110D01*
X004354Y005110D01*
X004354Y005751D01*
X004352Y004701D02*
X004139Y004701D01*
X004032Y004594D01*
X004245Y004381D02*
X004352Y004381D01*
X004459Y004274D01*
X004459Y004167D01*
X004352Y004060D01*
X004139Y004060D01*
X004032Y004167D01*
X003816Y004167D02*
X003816Y004060D01*
X003710Y004060D01*
X003710Y004167D01*
X003816Y004167D01*
X004352Y004381D02*
X004459Y004487D01*
X004459Y004594D01*
X004352Y004701D01*
X004461Y002601D02*
X004354Y002494D01*
X004354Y002067D01*
X004461Y001960D01*
X004674Y001960D01*
X004781Y002067D01*
X004781Y002494D02*
X004674Y002601D01*
X004461Y002601D01*
X004137Y002494D02*
X004030Y002601D01*
X003816Y002601D01*
X003710Y002494D01*
X003710Y002067D01*
X003816Y001960D01*
X004030Y001960D01*
X004137Y002067D01*
X003492Y002174D02*
X003279Y001960D01*
X003065Y002174D01*
X003065Y002601D01*
X003492Y002601D02*
X003492Y002174D01*
X006160Y001930D02*
X006410Y001680D01*
X006910Y001680D01*
X007160Y001930D01*
X007410Y001680D01*
X007910Y001680D01*
X008160Y001930D01*
X008410Y001680D01*
X008910Y001680D01*
X009160Y001930D01*
X009160Y002430D01*
X008910Y002680D01*
X008410Y002680D01*
X008160Y002430D01*
X008160Y001930D01*
X008160Y002430D02*
X007910Y002680D01*
X007410Y002680D01*
X007160Y002430D01*
X007160Y001930D01*
X007160Y002430D02*
X006910Y002680D01*
X006410Y002680D01*
X006160Y002430D01*
X006160Y001930D01*
X009410Y004680D02*
X009410Y005180D01*
X009660Y005430D01*
X010160Y005430D01*
X010410Y005180D01*
X010660Y005430D01*
X011160Y005430D01*
X011410Y005180D01*
X011410Y004680D01*
X011160Y004430D01*
X010660Y004430D01*
X010410Y004680D01*
X010160Y004430D01*
X009660Y004430D01*
X009410Y004680D01*
X010410Y004680D02*
X010410Y005180D01*
X011410Y005180D02*
X011660Y005430D01*
X012160Y005430D01*
X012410Y005180D01*
X012660Y005430D01*
X013160Y005430D01*
X013410Y005180D01*
X013660Y005430D01*
X014160Y005430D01*
X014410Y005180D01*
X014660Y005430D01*
X015160Y005430D01*
X015410Y005180D01*
X015410Y004680D01*
X015160Y004430D01*
X014660Y004430D01*
X014410Y004680D01*
X014160Y004430D01*
X013660Y004430D01*
X013410Y004680D01*
X013160Y004430D01*
X012660Y004430D01*
X012410Y004680D01*
X012160Y004430D01*
X011660Y004430D01*
X011410Y004680D01*
X012410Y004680D02*
X012410Y005180D01*
X013410Y005180D02*
X013410Y004680D01*
X014410Y004680D02*
X014410Y005180D01*
X015160Y002555D02*
X014910Y002305D01*
X014910Y001805D01*
X015160Y001555D01*
X015660Y001555D01*
X015910Y001805D01*
X016160Y001555D01*
X016660Y001555D01*
X016910Y001805D01*
X017160Y001555D01*
X017660Y001555D01*
X017910Y001805D01*
X017910Y002305D01*
X017660Y002555D01*
X017160Y002555D01*
X016910Y002305D01*
X016910Y001805D01*
X016910Y002305D02*
X016660Y002555D01*
X016160Y002555D01*
X015910Y002305D01*
X015910Y001805D01*
X015910Y002305D02*
X015660Y002555D01*
X015160Y002555D01*
X013535Y002305D02*
X013535Y001805D01*
X013285Y001555D01*
X012785Y001555D01*
X012535Y001805D01*
X012285Y001555D01*
X011785Y001555D01*
X011535Y001805D01*
X011285Y001555D01*
X010785Y001555D01*
X010535Y001805D01*
X010535Y002305D01*
X010785Y002555D01*
X011285Y002555D01*
X011535Y002305D01*
X011785Y002555D01*
X012285Y002555D01*
X012535Y002305D01*
X012785Y002555D01*
X013285Y002555D01*
X013535Y002305D01*
X012535Y002305D02*
X012535Y001805D01*
X011535Y001805D02*
X011535Y002305D01*
X012910Y009430D02*
X013410Y009430D01*
X013660Y009680D01*
X013660Y011180D01*
X013910Y011430D01*
X014410Y011430D01*
X014660Y011180D01*
X014660Y009680D01*
X014910Y009430D01*
X015410Y009430D01*
X015660Y009680D01*
X015660Y011180D01*
X015910Y011430D01*
X016410Y011430D01*
X016660Y011180D01*
X016660Y009680D01*
X016910Y009430D01*
X017410Y009430D01*
X017660Y009680D01*
X017660Y011180D01*
X017910Y011430D01*
X018410Y011430D01*
X018660Y011180D01*
X018660Y009680D01*
X018910Y009430D01*
X019410Y009430D01*
X019660Y009680D01*
X019660Y011180D01*
X019910Y011430D01*
X020410Y011430D01*
X020660Y011180D01*
X020660Y009680D01*
X020410Y009430D01*
X019910Y009430D01*
X019660Y009680D01*
X020660Y009680D02*
X020910Y009430D01*
X021410Y009430D01*
X021660Y009680D01*
X021660Y011180D01*
X021910Y011430D01*
X022410Y011430D01*
X022660Y011180D01*
X022660Y009680D01*
X022410Y009430D01*
X021910Y009430D01*
X021660Y009680D01*
X022660Y009680D02*
X022910Y009430D01*
X023410Y009430D01*
X023660Y009680D01*
X023660Y011180D01*
X023910Y011430D01*
X024410Y011430D01*
X024660Y011180D01*
X024910Y011430D01*
X025410Y011430D01*
X025660Y011180D01*
X025660Y009680D01*
X025410Y009430D01*
X024910Y009430D01*
X024660Y009680D01*
X024660Y011180D01*
X023660Y011180D02*
X023410Y011430D01*
X022910Y011430D01*
X022660Y011180D01*
X021660Y011180D02*
X021410Y011430D01*
X020910Y011430D01*
X020660Y011180D01*
X019660Y011180D02*
X019410Y011430D01*
X018910Y011430D01*
X018660Y011180D01*
X017660Y011180D02*
X017410Y011430D01*
X016910Y011430D01*
X016660Y011180D01*
X015660Y011180D02*
X015410Y011430D01*
X014910Y011430D01*
X014660Y011180D01*
X013660Y011180D02*
X013410Y011430D01*
X012910Y011430D01*
X012660Y011180D01*
X012660Y009680D01*
X012910Y009430D01*
X013660Y009680D02*
X013910Y009430D01*
X014410Y009430D01*
X014660Y009680D01*
X015660Y009680D02*
X015910Y009430D01*
X016410Y009430D01*
X016660Y009680D01*
X017660Y009680D02*
X017910Y009430D01*
X018410Y009430D01*
X018660Y009680D01*
X015510Y013430D02*
X013810Y013430D01*
X013793Y013432D01*
X013776Y013436D01*
X013760Y013443D01*
X013746Y013453D01*
X013733Y013466D01*
X013723Y013480D01*
X013716Y013496D01*
X013712Y013513D01*
X013710Y013530D01*
X013710Y014330D01*
X013712Y014347D01*
X013716Y014364D01*
X013723Y014380D01*
X013733Y014394D01*
X013746Y014407D01*
X013760Y014417D01*
X013776Y014424D01*
X013793Y014428D01*
X013810Y014430D01*
X015510Y014430D01*
X015527Y014428D01*
X015544Y014424D01*
X015560Y014417D01*
X015574Y014407D01*
X015587Y014394D01*
X015597Y014380D01*
X015604Y014364D01*
X015608Y014347D01*
X015610Y014330D01*
X015610Y013530D01*
X015608Y013513D01*
X015604Y013496D01*
X015597Y013480D01*
X015587Y013466D01*
X015574Y013453D01*
X015560Y013443D01*
X015544Y013436D01*
X015527Y013432D01*
X015510Y013430D01*
X014810Y013930D02*
X014760Y013930D01*
X014560Y013930D02*
X014510Y013930D01*
X013510Y015930D02*
X011810Y015930D01*
X011793Y015932D01*
X011776Y015936D01*
X011760Y015943D01*
X011746Y015953D01*
X011733Y015966D01*
X011723Y015980D01*
X011716Y015996D01*
X011712Y016013D01*
X011710Y016030D01*
X011710Y016830D01*
X011712Y016847D01*
X011716Y016864D01*
X011723Y016880D01*
X011733Y016894D01*
X011746Y016907D01*
X011760Y016917D01*
X011776Y016924D01*
X011793Y016928D01*
X011810Y016930D01*
X013510Y016930D01*
X013527Y016928D01*
X013544Y016924D01*
X013560Y016917D01*
X013574Y016907D01*
X013587Y016894D01*
X013597Y016880D01*
X013604Y016864D01*
X013608Y016847D01*
X013610Y016830D01*
X013610Y016030D01*
X013608Y016013D01*
X013604Y015996D01*
X013597Y015980D01*
X013587Y015966D01*
X013574Y015953D01*
X013560Y015943D01*
X013544Y015936D01*
X013527Y015932D01*
X013510Y015930D01*
X012810Y016430D02*
X012760Y016430D01*
X012560Y016430D02*
X012510Y016430D01*
X012350Y018250D02*
X014050Y018250D01*
X014067Y018252D01*
X014084Y018256D01*
X014100Y018263D01*
X014114Y018273D01*
X014127Y018286D01*
X014137Y018300D01*
X014144Y018316D01*
X014148Y018333D01*
X014150Y018350D01*
X014150Y019150D01*
X014148Y019167D01*
X014144Y019184D01*
X014137Y019200D01*
X014127Y019214D01*
X014114Y019227D01*
X014100Y019237D01*
X014084Y019244D01*
X014067Y019248D01*
X014050Y019250D01*
X012350Y019250D01*
X012333Y019248D01*
X012316Y019244D01*
X012300Y019237D01*
X012286Y019227D01*
X012273Y019214D01*
X012263Y019200D01*
X012256Y019184D01*
X012252Y019167D01*
X012250Y019150D01*
X012250Y018350D01*
X012252Y018333D01*
X012256Y018316D01*
X012263Y018300D01*
X012273Y018286D01*
X012286Y018273D01*
X012300Y018263D01*
X012316Y018256D01*
X012333Y018252D01*
X012350Y018250D01*
X013050Y018750D02*
X013100Y018750D01*
X013300Y018750D02*
X013350Y018750D01*
X013930Y020930D02*
X012230Y020930D01*
X012213Y020932D01*
X012196Y020936D01*
X012180Y020943D01*
X012166Y020953D01*
X012153Y020966D01*
X012143Y020980D01*
X012136Y020996D01*
X012132Y021013D01*
X012130Y021030D01*
X012130Y021830D01*
X012132Y021847D01*
X012136Y021864D01*
X012143Y021880D01*
X012153Y021894D01*
X012166Y021907D01*
X012180Y021917D01*
X012196Y021924D01*
X012213Y021928D01*
X012230Y021930D01*
X013930Y021930D01*
X013947Y021928D01*
X013964Y021924D01*
X013980Y021917D01*
X013994Y021907D01*
X014007Y021894D01*
X014017Y021880D01*
X014024Y021864D01*
X014028Y021847D01*
X014030Y021830D01*
X014030Y021030D01*
X014028Y021013D01*
X014024Y020996D01*
X014017Y020980D01*
X014007Y020966D01*
X013994Y020953D01*
X013980Y020943D01*
X013964Y020936D01*
X013947Y020932D01*
X013930Y020930D01*
X013230Y021430D02*
X013180Y021430D01*
X012980Y021430D02*
X012930Y021430D01*
X010160Y021180D02*
X009910Y020930D01*
X008410Y020930D01*
X008160Y020680D01*
X008160Y020180D01*
X008410Y019930D01*
X009910Y019930D01*
X010160Y019680D01*
X010160Y019180D01*
X009910Y018930D01*
X008410Y018930D01*
X008160Y019180D01*
X008160Y019680D01*
X008410Y019930D01*
X008410Y018930D02*
X008160Y018680D01*
X008160Y018180D01*
X008410Y017930D01*
X009910Y017930D01*
X010160Y017680D01*
X010160Y017180D01*
X009910Y016930D01*
X008410Y016930D01*
X008160Y017180D01*
X008160Y017680D01*
X008410Y017930D01*
X008410Y016930D02*
X008160Y016680D01*
X008160Y016180D01*
X008410Y015930D01*
X009910Y015930D01*
X010160Y015680D01*
X010160Y015180D01*
X009910Y014930D01*
X010160Y014680D01*
X010160Y014180D01*
X009910Y013930D01*
X008410Y013930D01*
X008160Y014180D01*
X008160Y014680D01*
X008410Y014930D01*
X009910Y014930D01*
X009910Y015930D02*
X010160Y016180D01*
X010160Y016680D01*
X009910Y016930D01*
X009910Y017930D02*
X010160Y018180D01*
X010160Y018680D01*
X009910Y018930D01*
X009910Y019930D02*
X010160Y020180D01*
X010160Y020680D01*
X009910Y020930D01*
X010160Y021180D02*
X010160Y021680D01*
X009910Y021930D01*
X008410Y021930D01*
X008160Y021680D01*
X008160Y021180D01*
X008410Y020930D01*
X008410Y021930D02*
X008160Y022180D01*
X008160Y022680D01*
X008410Y022930D01*
X009910Y022930D01*
X010160Y022680D01*
X010160Y022180D01*
X009910Y021930D01*
X009910Y022930D02*
X010160Y023180D01*
X010160Y023680D01*
X009910Y023930D01*
X008410Y023930D01*
X008160Y023680D01*
X008160Y023180D01*
X008410Y022930D01*
X008410Y023930D02*
X008160Y024180D01*
X008160Y024680D01*
X008410Y024930D01*
X009910Y024930D01*
X010160Y024680D01*
X010160Y024180D01*
X009910Y023930D01*
X009910Y024930D02*
X010160Y025180D01*
X010160Y025680D01*
X009910Y025930D01*
X008410Y025930D01*
X008160Y025680D01*
X008160Y025180D01*
X008410Y024930D01*
X008410Y025930D02*
X008160Y026180D01*
X008160Y026680D01*
X008410Y026930D01*
X009910Y026930D01*
X010160Y026680D01*
X010160Y026180D01*
X009910Y025930D01*
X012710Y026530D02*
X012710Y027330D01*
X012712Y027347D01*
X012716Y027364D01*
X012723Y027380D01*
X012733Y027394D01*
X012746Y027407D01*
X012760Y027417D01*
X012776Y027424D01*
X012793Y027428D01*
X012810Y027430D01*
X014510Y027430D01*
X014527Y027428D01*
X014544Y027424D01*
X014560Y027417D01*
X014574Y027407D01*
X014587Y027394D01*
X014597Y027380D01*
X014604Y027364D01*
X014608Y027347D01*
X014610Y027330D01*
X014610Y026530D01*
X014608Y026513D01*
X014604Y026496D01*
X014597Y026480D01*
X014587Y026466D01*
X014574Y026453D01*
X014560Y026443D01*
X014544Y026436D01*
X014527Y026432D01*
X014510Y026430D01*
X012810Y026430D01*
X012793Y026432D01*
X012776Y026436D01*
X012760Y026443D01*
X012746Y026453D01*
X012733Y026466D01*
X012723Y026480D01*
X012716Y026496D01*
X012712Y026513D01*
X012710Y026530D01*
X013510Y026930D02*
X013560Y026930D01*
X013760Y026930D02*
X013810Y026930D01*
X013910Y029430D02*
X013660Y029680D01*
X013410Y029430D01*
X012910Y029430D01*
X012660Y029680D01*
X012660Y031180D01*
X012910Y031430D01*
X013410Y031430D01*
X013660Y031180D01*
X013660Y029680D01*
X013910Y029430D02*
X014410Y029430D01*
X014660Y029680D01*
X014660Y031180D01*
X014910Y031430D01*
X015410Y031430D01*
X015660Y031180D01*
X015660Y029680D01*
X015410Y029430D01*
X014910Y029430D01*
X014660Y029680D01*
X015660Y029680D02*
X015910Y029430D01*
X016410Y029430D01*
X016660Y029680D01*
X016660Y031180D01*
X016910Y031430D01*
X017410Y031430D01*
X017660Y031180D01*
X017660Y029680D01*
X017410Y029430D01*
X016910Y029430D01*
X016660Y029680D01*
X017660Y029680D02*
X017910Y029430D01*
X018410Y029430D01*
X018660Y029680D01*
X018660Y031180D01*
X018910Y031430D01*
X019410Y031430D01*
X019660Y031180D01*
X019660Y029680D01*
X019410Y029430D01*
X018910Y029430D01*
X018660Y029680D01*
X019660Y029680D02*
X019910Y029430D01*
X020410Y029430D01*
X020660Y029680D01*
X020660Y031180D01*
X020410Y031430D01*
X019910Y031430D01*
X019660Y031180D01*
X020660Y031180D02*
X020910Y031430D01*
X021410Y031430D01*
X021660Y031180D01*
X021660Y029680D01*
X021410Y029430D01*
X020910Y029430D01*
X020660Y029680D01*
X021660Y029680D02*
X021910Y029430D01*
X022410Y029430D01*
X022660Y029680D01*
X022660Y031180D01*
X022410Y031430D01*
X021910Y031430D01*
X021660Y031180D01*
X022660Y031180D02*
X022910Y031430D01*
X023410Y031430D01*
X023660Y031180D01*
X023660Y029680D01*
X023410Y029430D01*
X022910Y029430D01*
X022660Y029680D01*
X023660Y029680D02*
X023910Y029430D01*
X024410Y029430D01*
X024660Y029680D01*
X024660Y031180D01*
X024410Y031430D01*
X023910Y031430D01*
X023660Y031180D01*
X024660Y031180D02*
X024910Y031430D01*
X025410Y031430D01*
X025660Y031180D01*
X025660Y029680D01*
X025410Y029430D01*
X024910Y029430D01*
X024660Y029680D01*
X024810Y027680D02*
X026510Y027680D01*
X026527Y027678D01*
X026544Y027674D01*
X026560Y027667D01*
X026574Y027657D01*
X026587Y027644D01*
X026597Y027630D01*
X026604Y027614D01*
X026608Y027597D01*
X026610Y027580D01*
X026610Y026780D01*
X026608Y026763D01*
X026604Y026746D01*
X026597Y026730D01*
X026587Y026716D01*
X026574Y026703D01*
X026560Y026693D01*
X026544Y026686D01*
X026527Y026682D01*
X026510Y026680D01*
X024810Y026680D01*
X024793Y026682D01*
X024776Y026686D01*
X024760Y026693D01*
X024746Y026703D01*
X024733Y026716D01*
X024723Y026730D01*
X024716Y026746D01*
X024712Y026763D01*
X024710Y026780D01*
X024710Y027580D01*
X024712Y027597D01*
X024716Y027614D01*
X024723Y027630D01*
X024733Y027644D01*
X024746Y027657D01*
X024760Y027667D01*
X024776Y027674D01*
X024793Y027678D01*
X024810Y027680D01*
X025510Y027180D02*
X025560Y027180D01*
X025760Y027180D02*
X025810Y027180D01*
X026510Y025430D02*
X024810Y025430D01*
X024793Y025428D01*
X024776Y025424D01*
X024760Y025417D01*
X024746Y025407D01*
X024733Y025394D01*
X024723Y025380D01*
X024716Y025364D01*
X024712Y025347D01*
X024710Y025330D01*
X024710Y024530D01*
X024712Y024513D01*
X024716Y024496D01*
X024723Y024480D01*
X024733Y024466D01*
X024746Y024453D01*
X024760Y024443D01*
X024776Y024436D01*
X024793Y024432D01*
X024810Y024430D01*
X026510Y024430D01*
X026527Y024432D01*
X026544Y024436D01*
X026560Y024443D01*
X026574Y024453D01*
X026587Y024466D01*
X026597Y024480D01*
X026604Y024496D01*
X026608Y024513D01*
X026610Y024530D01*
X026610Y025330D01*
X026608Y025347D01*
X026604Y025364D01*
X026597Y025380D01*
X026587Y025394D01*
X026574Y025407D01*
X026560Y025417D01*
X026544Y025424D01*
X026527Y025428D01*
X026510Y025430D01*
X025810Y024930D02*
X025760Y024930D01*
X025560Y024930D02*
X025510Y024930D01*
X028660Y024680D02*
X028660Y024180D01*
X028910Y023930D01*
X030410Y023930D01*
X030660Y023680D01*
X030660Y023180D01*
X030410Y022930D01*
X028910Y022930D01*
X028660Y023180D01*
X028660Y023680D01*
X028910Y023930D01*
X028660Y024680D02*
X028910Y024930D01*
X030410Y024930D01*
X030660Y024680D01*
X030660Y024180D01*
X030410Y023930D01*
X030410Y022930D02*
X030660Y022680D01*
X030660Y022180D01*
X030410Y021930D01*
X028910Y021930D01*
X028660Y022180D01*
X028660Y022680D01*
X028910Y022930D01*
X028910Y021930D02*
X028660Y021680D01*
X028660Y021180D01*
X028910Y020930D01*
X030410Y020930D01*
X030660Y020680D01*
X030660Y020180D01*
X030410Y019930D01*
X028910Y019930D01*
X028660Y020180D01*
X028660Y020680D01*
X028910Y020930D01*
X028910Y019930D02*
X028660Y019680D01*
X028660Y019180D01*
X028910Y018930D01*
X030410Y018930D01*
X030660Y019180D01*
X030660Y019680D01*
X030410Y019930D01*
X030410Y018930D02*
X030660Y018680D01*
X030660Y018180D01*
X030410Y017930D01*
X028910Y017930D01*
X028660Y018180D01*
X028660Y018680D01*
X028910Y018930D01*
X028910Y017930D02*
X028660Y017680D01*
X028660Y017180D01*
X028910Y016930D01*
X030410Y016930D01*
X030660Y017180D01*
X030660Y017680D01*
X030410Y017930D01*
X030410Y016930D02*
X030660Y016680D01*
X030660Y016180D01*
X030410Y015930D01*
X028910Y015930D01*
X028660Y016180D01*
X028660Y016680D01*
X028910Y016930D01*
X028910Y015930D02*
X028660Y015680D01*
X028660Y015180D01*
X028910Y014930D01*
X030410Y014930D01*
X030660Y015180D01*
X030660Y015680D01*
X030410Y015930D01*
X030410Y014930D02*
X030660Y014680D01*
X030660Y014180D01*
X030410Y013930D01*
X028910Y013930D01*
X028660Y014180D01*
X028660Y014680D01*
X028910Y014930D01*
X026610Y015530D02*
X026610Y016330D01*
X026608Y016347D01*
X026604Y016364D01*
X026597Y016380D01*
X026587Y016394D01*
X026574Y016407D01*
X026560Y016417D01*
X026544Y016424D01*
X026527Y016428D01*
X026510Y016430D01*
X024810Y016430D01*
X024793Y016428D01*
X024776Y016424D01*
X024760Y016417D01*
X024746Y016407D01*
X024733Y016394D01*
X024723Y016380D01*
X024716Y016364D01*
X024712Y016347D01*
X024710Y016330D01*
X024710Y015530D01*
X024712Y015513D01*
X024716Y015496D01*
X024723Y015480D01*
X024733Y015466D01*
X024746Y015453D01*
X024760Y015443D01*
X024776Y015436D01*
X024793Y015432D01*
X024810Y015430D01*
X026510Y015430D01*
X026527Y015432D01*
X026544Y015436D01*
X026560Y015443D01*
X026574Y015453D01*
X026587Y015466D01*
X026597Y015480D01*
X026604Y015496D01*
X026608Y015513D01*
X026610Y015530D01*
X025810Y015930D02*
X025760Y015930D01*
X025560Y015930D02*
X025510Y015930D01*
X024510Y014430D02*
X022810Y014430D01*
X022793Y014428D01*
X022776Y014424D01*
X022760Y014417D01*
X022746Y014407D01*
X022733Y014394D01*
X022723Y014380D01*
X022716Y014364D01*
X022712Y014347D01*
X022710Y014330D01*
X022710Y013530D01*
X022712Y013513D01*
X022716Y013496D01*
X022723Y013480D01*
X022733Y013466D01*
X022746Y013453D01*
X022760Y013443D01*
X022776Y013436D01*
X022793Y013432D01*
X022810Y013430D01*
X024510Y013430D01*
X024527Y013432D01*
X024544Y013436D01*
X024560Y013443D01*
X024574Y013453D01*
X024587Y013466D01*
X024597Y013480D01*
X024604Y013496D01*
X024608Y013513D01*
X024610Y013530D01*
X024610Y014330D01*
X024608Y014347D01*
X024604Y014364D01*
X024597Y014380D01*
X024587Y014394D01*
X024574Y014407D01*
X024560Y014417D01*
X024544Y014424D01*
X024527Y014428D01*
X024510Y014430D01*
X023810Y013930D02*
X023760Y013930D01*
X023560Y013930D02*
X023510Y013930D01*
X023660Y009680D02*
X023910Y009430D01*
X024410Y009430D01*
X024660Y009680D01*
X024060Y003880D02*
X023910Y003880D01*
X023860Y003830D01*
X021960Y003830D01*
X021910Y003880D01*
X021760Y003880D01*
X021743Y003878D01*
X021726Y003874D01*
X021710Y003867D01*
X021696Y003857D01*
X021683Y003844D01*
X021673Y003830D01*
X021666Y003814D01*
X021662Y003797D01*
X021660Y003780D01*
X021660Y003080D01*
X021662Y003063D01*
X021666Y003046D01*
X021673Y003030D01*
X021683Y003016D01*
X021696Y003003D01*
X021710Y002993D01*
X021726Y002986D01*
X021743Y002982D01*
X021760Y002980D01*
X021910Y002980D01*
X021960Y003030D01*
X023860Y003030D01*
X023910Y002980D01*
X024060Y002980D01*
X024077Y002982D01*
X024094Y002986D01*
X024110Y002993D01*
X024124Y003003D01*
X024137Y003016D01*
X024147Y003030D01*
X024154Y003046D01*
X024158Y003063D01*
X024160Y003080D01*
X024160Y003780D01*
X024158Y003797D01*
X024154Y003814D01*
X024147Y003830D01*
X024137Y003844D01*
X024124Y003857D01*
X024110Y003867D01*
X024094Y003874D01*
X024077Y003878D01*
X024060Y003880D01*
X026410Y003305D02*
X026412Y003368D01*
X026418Y003430D01*
X026428Y003492D01*
X026441Y003554D01*
X026459Y003614D01*
X026480Y003673D01*
X026505Y003731D01*
X026534Y003787D01*
X026566Y003841D01*
X026601Y003893D01*
X026639Y003942D01*
X026681Y003990D01*
X026725Y004034D01*
X026773Y004076D01*
X026822Y004114D01*
X026874Y004149D01*
X026928Y004181D01*
X026984Y004210D01*
X027042Y004235D01*
X027101Y004256D01*
X027161Y004274D01*
X027223Y004287D01*
X027285Y004297D01*
X027347Y004303D01*
X027410Y004305D01*
X027473Y004303D01*
X027535Y004297D01*
X027597Y004287D01*
X027659Y004274D01*
X027719Y004256D01*
X027778Y004235D01*
X027836Y004210D01*
X027892Y004181D01*
X027946Y004149D01*
X027998Y004114D01*
X028047Y004076D01*
X028095Y004034D01*
X028139Y003990D01*
X028181Y003942D01*
X028219Y003893D01*
X028254Y003841D01*
X028286Y003787D01*
X028315Y003731D01*
X028340Y003673D01*
X028361Y003614D01*
X028379Y003554D01*
X028392Y003492D01*
X028402Y003430D01*
X028408Y003368D01*
X028410Y003305D01*
X028408Y003242D01*
X028402Y003180D01*
X028392Y003118D01*
X028379Y003056D01*
X028361Y002996D01*
X028340Y002937D01*
X028315Y002879D01*
X028286Y002823D01*
X028254Y002769D01*
X028219Y002717D01*
X028181Y002668D01*
X028139Y002620D01*
X028095Y002576D01*
X028047Y002534D01*
X027998Y002496D01*
X027946Y002461D01*
X027892Y002429D01*
X027836Y002400D01*
X027778Y002375D01*
X027719Y002354D01*
X027659Y002336D01*
X027597Y002323D01*
X027535Y002313D01*
X027473Y002307D01*
X027410Y002305D01*
X027347Y002307D01*
X027285Y002313D01*
X027223Y002323D01*
X027161Y002336D01*
X027101Y002354D01*
X027042Y002375D01*
X026984Y002400D01*
X026928Y002429D01*
X026874Y002461D01*
X026822Y002496D01*
X026773Y002534D01*
X026725Y002576D01*
X026681Y002620D01*
X026639Y002668D01*
X026601Y002717D01*
X026566Y002769D01*
X026534Y002823D01*
X026505Y002879D01*
X026480Y002937D01*
X026459Y002996D01*
X026441Y003056D01*
X026428Y003118D01*
X026418Y003180D01*
X026412Y003242D01*
X026410Y003305D01*
X034410Y003580D02*
X034410Y004280D01*
X034412Y004297D01*
X034416Y004314D01*
X034423Y004330D01*
X034433Y004344D01*
X034446Y004357D01*
X034460Y004367D01*
X034476Y004374D01*
X034493Y004378D01*
X034510Y004380D01*
X034660Y004380D01*
X034710Y004330D01*
X036610Y004330D01*
X036660Y004380D01*
X036810Y004380D01*
X036827Y004378D01*
X036844Y004374D01*
X036860Y004367D01*
X036874Y004357D01*
X036887Y004344D01*
X036897Y004330D01*
X036904Y004314D01*
X036908Y004297D01*
X036910Y004280D01*
X036910Y003580D01*
X036908Y003563D01*
X036904Y003546D01*
X036897Y003530D01*
X036887Y003516D01*
X036874Y003503D01*
X036860Y003493D01*
X036844Y003486D01*
X036827Y003482D01*
X036810Y003480D01*
X036660Y003480D01*
X036610Y003530D01*
X034710Y003530D01*
X034660Y003480D01*
X034510Y003480D01*
X034493Y003482D01*
X034476Y003486D01*
X034460Y003493D01*
X034446Y003503D01*
X034433Y003516D01*
X034423Y003530D01*
X034416Y003546D01*
X034412Y003563D01*
X034410Y003580D01*
X034510Y002880D02*
X034660Y002880D01*
X034710Y002830D01*
X036610Y002830D01*
X036660Y002880D01*
X036810Y002880D01*
X036827Y002878D01*
X036844Y002874D01*
X036860Y002867D01*
X036874Y002857D01*
X036887Y002844D01*
X036897Y002830D01*
X036904Y002814D01*
X036908Y002797D01*
X036910Y002780D01*
X036910Y002080D01*
X036908Y002063D01*
X036904Y002046D01*
X036897Y002030D01*
X036887Y002016D01*
X036874Y002003D01*
X036860Y001993D01*
X036844Y001986D01*
X036827Y001982D01*
X036810Y001980D01*
X036660Y001980D01*
X036610Y002030D01*
X034710Y002030D01*
X034660Y001980D01*
X034510Y001980D01*
X034493Y001982D01*
X034476Y001986D01*
X034460Y001993D01*
X034446Y002003D01*
X034433Y002016D01*
X034423Y002030D01*
X034416Y002046D01*
X034412Y002063D01*
X034410Y002080D01*
X034410Y002780D01*
X034412Y002797D01*
X034416Y002814D01*
X034423Y002830D01*
X034433Y002844D01*
X034446Y002857D01*
X034460Y002867D01*
X034476Y002874D01*
X034493Y002878D01*
X034510Y002880D01*
X034860Y005430D02*
X036460Y005430D01*
X036460Y006430D01*
X034860Y006430D01*
X034860Y005430D01*
X035260Y005680D02*
X035660Y005930D01*
X035660Y006180D01*
X035660Y005930D02*
X035060Y005930D01*
X035260Y005680D02*
X035260Y006180D01*
X035660Y005930D01*
X035660Y005680D01*
X035660Y005930D02*
X035910Y005930D01*
X036460Y006930D02*
X034860Y006930D01*
X034860Y007930D01*
X036460Y007930D01*
X036460Y006930D01*
X035910Y007430D02*
X035660Y007430D01*
X035660Y007680D01*
X035660Y007430D02*
X035060Y007430D01*
X035260Y007180D02*
X035660Y007430D01*
X035660Y007180D01*
X035660Y007430D02*
X035260Y007680D01*
X035260Y007180D01*
X034660Y008980D02*
X034510Y008980D01*
X034493Y008982D01*
X034476Y008986D01*
X034460Y008993D01*
X034446Y009003D01*
X034433Y009016D01*
X034423Y009030D01*
X034416Y009046D01*
X034412Y009063D01*
X034410Y009080D01*
X034410Y009780D01*
X034412Y009797D01*
X034416Y009814D01*
X034423Y009830D01*
X034433Y009844D01*
X034446Y009857D01*
X034460Y009867D01*
X034476Y009874D01*
X034493Y009878D01*
X034510Y009880D01*
X034660Y009880D01*
X034710Y009830D01*
X036610Y009830D01*
X036660Y009880D01*
X036810Y009880D01*
X036827Y009878D01*
X036844Y009874D01*
X036860Y009867D01*
X036874Y009857D01*
X036887Y009844D01*
X036897Y009830D01*
X036904Y009814D01*
X036908Y009797D01*
X036910Y009780D01*
X036910Y009080D01*
X036908Y009063D01*
X036904Y009046D01*
X036897Y009030D01*
X036887Y009016D01*
X036874Y009003D01*
X036860Y008993D01*
X036844Y008986D01*
X036827Y008982D01*
X036810Y008980D01*
X036660Y008980D01*
X036610Y009030D01*
X034710Y009030D01*
X034660Y008980D01*
X034660Y010480D02*
X034510Y010480D01*
X034493Y010482D01*
X034476Y010486D01*
X034460Y010493D01*
X034446Y010503D01*
X034433Y010516D01*
X034423Y010530D01*
X034416Y010546D01*
X034412Y010563D01*
X034410Y010580D01*
X034410Y011280D01*
X034412Y011297D01*
X034416Y011314D01*
X034423Y011330D01*
X034433Y011344D01*
X034446Y011357D01*
X034460Y011367D01*
X034476Y011374D01*
X034493Y011378D01*
X034510Y011380D01*
X034660Y011380D01*
X034710Y011330D01*
X036610Y011330D01*
X036660Y011380D01*
X036810Y011380D01*
X036827Y011378D01*
X036844Y011374D01*
X036860Y011367D01*
X036874Y011357D01*
X036887Y011344D01*
X036897Y011330D01*
X036904Y011314D01*
X036908Y011297D01*
X036910Y011280D01*
X036910Y010580D01*
X036908Y010563D01*
X036904Y010546D01*
X036897Y010530D01*
X036887Y010516D01*
X036874Y010503D01*
X036860Y010493D01*
X036844Y010486D01*
X036827Y010482D01*
X036810Y010480D01*
X036660Y010480D01*
X036610Y010530D01*
X034710Y010530D01*
X034660Y010480D01*
X034660Y012980D02*
X034510Y012980D01*
X034493Y012982D01*
X034476Y012986D01*
X034460Y012993D01*
X034446Y013003D01*
X034433Y013016D01*
X034423Y013030D01*
X034416Y013046D01*
X034412Y013063D01*
X034410Y013080D01*
X034410Y013780D01*
X034412Y013797D01*
X034416Y013814D01*
X034423Y013830D01*
X034433Y013844D01*
X034446Y013857D01*
X034460Y013867D01*
X034476Y013874D01*
X034493Y013878D01*
X034510Y013880D01*
X034660Y013880D01*
X034710Y013830D01*
X036610Y013830D01*
X036660Y013880D01*
X036810Y013880D01*
X036827Y013878D01*
X036844Y013874D01*
X036860Y013867D01*
X036874Y013857D01*
X036887Y013844D01*
X036897Y013830D01*
X036904Y013814D01*
X036908Y013797D01*
X036910Y013780D01*
X036910Y013080D01*
X036908Y013063D01*
X036904Y013046D01*
X036897Y013030D01*
X036887Y013016D01*
X036874Y013003D01*
X036860Y012993D01*
X036844Y012986D01*
X036827Y012982D01*
X036810Y012980D01*
X036660Y012980D01*
X036610Y013030D01*
X034710Y013030D01*
X034660Y012980D01*
X034660Y014480D02*
X034510Y014480D01*
X034493Y014482D01*
X034476Y014486D01*
X034460Y014493D01*
X034446Y014503D01*
X034433Y014516D01*
X034423Y014530D01*
X034416Y014546D01*
X034412Y014563D01*
X034410Y014580D01*
X034410Y015280D01*
X034412Y015297D01*
X034416Y015314D01*
X034423Y015330D01*
X034433Y015344D01*
X034446Y015357D01*
X034460Y015367D01*
X034476Y015374D01*
X034493Y015378D01*
X034510Y015380D01*
X034660Y015380D01*
X034710Y015330D01*
X036610Y015330D01*
X036660Y015380D01*
X036810Y015380D01*
X036827Y015378D01*
X036844Y015374D01*
X036860Y015367D01*
X036874Y015357D01*
X036887Y015344D01*
X036897Y015330D01*
X036904Y015314D01*
X036908Y015297D01*
X036910Y015280D01*
X036910Y014580D01*
X036908Y014563D01*
X036904Y014546D01*
X036897Y014530D01*
X036887Y014516D01*
X036874Y014503D01*
X036860Y014493D01*
X036844Y014486D01*
X036827Y014482D01*
X036810Y014480D01*
X036660Y014480D01*
X036610Y014530D01*
X034710Y014530D01*
X034660Y014480D01*
X034860Y016430D02*
X036460Y016430D01*
X036460Y017430D01*
X034860Y017430D01*
X034860Y016430D01*
X035260Y016680D02*
X035260Y017180D01*
X035660Y016930D01*
X035660Y017180D01*
X035660Y016930D02*
X035660Y016680D01*
X035660Y016930D02*
X035060Y016930D01*
X035260Y016680D02*
X035660Y016930D01*
X035910Y016930D01*
X036460Y017930D02*
X036460Y018930D01*
X034860Y018930D01*
X034860Y017930D01*
X036460Y017930D01*
X035910Y018430D02*
X035660Y018430D01*
X035660Y018680D01*
X035660Y018430D02*
X035660Y018180D01*
X035660Y018430D02*
X035060Y018430D01*
X035260Y018180D02*
X035260Y018680D01*
X035660Y018430D01*
X035260Y018180D01*
X034660Y019980D02*
X034510Y019980D01*
X034493Y019982D01*
X034476Y019986D01*
X034460Y019993D01*
X034446Y020003D01*
X034433Y020016D01*
X034423Y020030D01*
X034416Y020046D01*
X034412Y020063D01*
X034410Y020080D01*
X034410Y020780D01*
X034412Y020797D01*
X034416Y020814D01*
X034423Y020830D01*
X034433Y020844D01*
X034446Y020857D01*
X034460Y020867D01*
X034476Y020874D01*
X034493Y020878D01*
X034510Y020880D01*
X034660Y020880D01*
X034710Y020830D01*
X036610Y020830D01*
X036660Y020880D01*
X036810Y020880D01*
X036827Y020878D01*
X036844Y020874D01*
X036860Y020867D01*
X036874Y020857D01*
X036887Y020844D01*
X036897Y020830D01*
X036904Y020814D01*
X036908Y020797D01*
X036910Y020780D01*
X036910Y020080D01*
X036908Y020063D01*
X036904Y020046D01*
X036897Y020030D01*
X036887Y020016D01*
X036874Y020003D01*
X036860Y019993D01*
X036844Y019986D01*
X036827Y019982D01*
X036810Y019980D01*
X036660Y019980D01*
X036610Y020030D01*
X034710Y020030D01*
X034660Y019980D01*
X034660Y021480D02*
X034510Y021480D01*
X034493Y021482D01*
X034476Y021486D01*
X034460Y021493D01*
X034446Y021503D01*
X034433Y021516D01*
X034423Y021530D01*
X034416Y021546D01*
X034412Y021563D01*
X034410Y021580D01*
X034410Y022280D01*
X034412Y022297D01*
X034416Y022314D01*
X034423Y022330D01*
X034433Y022344D01*
X034446Y022357D01*
X034460Y022367D01*
X034476Y022374D01*
X034493Y022378D01*
X034510Y022380D01*
X034660Y022380D01*
X034710Y022330D01*
X036610Y022330D01*
X036660Y022380D01*
X036810Y022380D01*
X036827Y022378D01*
X036844Y022374D01*
X036860Y022367D01*
X036874Y022357D01*
X036887Y022344D01*
X036897Y022330D01*
X036904Y022314D01*
X036908Y022297D01*
X036910Y022280D01*
X036910Y021580D01*
X036908Y021563D01*
X036904Y021546D01*
X036897Y021530D01*
X036887Y021516D01*
X036874Y021503D01*
X036860Y021493D01*
X036844Y021486D01*
X036827Y021482D01*
X036810Y021480D01*
X036660Y021480D01*
X036610Y021530D01*
X034710Y021530D01*
X034660Y021480D01*
X034660Y023980D02*
X034510Y023980D01*
X034493Y023982D01*
X034476Y023986D01*
X034460Y023993D01*
X034446Y024003D01*
X034433Y024016D01*
X034423Y024030D01*
X034416Y024046D01*
X034412Y024063D01*
X034410Y024080D01*
X034410Y024780D01*
X034412Y024797D01*
X034416Y024814D01*
X034423Y024830D01*
X034433Y024844D01*
X034446Y024857D01*
X034460Y024867D01*
X034476Y024874D01*
X034493Y024878D01*
X034510Y024880D01*
X034660Y024880D01*
X034710Y024830D01*
X036610Y024830D01*
X036660Y024880D01*
X036810Y024880D01*
X036827Y024878D01*
X036844Y024874D01*
X036860Y024867D01*
X036874Y024857D01*
X036887Y024844D01*
X036897Y024830D01*
X036904Y024814D01*
X036908Y024797D01*
X036910Y024780D01*
X036910Y024080D01*
X036908Y024063D01*
X036904Y024046D01*
X036897Y024030D01*
X036887Y024016D01*
X036874Y024003D01*
X036860Y023993D01*
X036844Y023986D01*
X036827Y023982D01*
X036810Y023980D01*
X036660Y023980D01*
X036610Y024030D01*
X034710Y024030D01*
X034660Y023980D01*
X034660Y025480D02*
X034510Y025480D01*
X034493Y025482D01*
X034476Y025486D01*
X034460Y025493D01*
X034446Y025503D01*
X034433Y025516D01*
X034423Y025530D01*
X034416Y025546D01*
X034412Y025563D01*
X034410Y025580D01*
X034410Y026280D01*
X034412Y026297D01*
X034416Y026314D01*
X034423Y026330D01*
X034433Y026344D01*
X034446Y026357D01*
X034460Y026367D01*
X034476Y026374D01*
X034493Y026378D01*
X034510Y026380D01*
X034660Y026380D01*
X034710Y026330D01*
X036610Y026330D01*
X036660Y026380D01*
X036810Y026380D01*
X036827Y026378D01*
X036844Y026374D01*
X036860Y026367D01*
X036874Y026357D01*
X036887Y026344D01*
X036897Y026330D01*
X036904Y026314D01*
X036908Y026297D01*
X036910Y026280D01*
X036910Y025580D01*
X036908Y025563D01*
X036904Y025546D01*
X036897Y025530D01*
X036887Y025516D01*
X036874Y025503D01*
X036860Y025493D01*
X036844Y025486D01*
X036827Y025482D01*
X036810Y025480D01*
X036660Y025480D01*
X036610Y025530D01*
X034710Y025530D01*
X034660Y025480D01*
X035460Y026930D02*
X033860Y026930D01*
X033860Y027930D01*
X035460Y027930D01*
X035460Y026930D01*
X034910Y027430D02*
X034660Y027430D01*
X034660Y027680D01*
X034660Y027430D02*
X034260Y027180D01*
X034260Y027680D01*
X034660Y027430D01*
X034660Y027180D01*
X034660Y027430D02*
X034060Y027430D01*
X033860Y028930D02*
X035460Y028930D01*
X035460Y029930D01*
X033860Y029930D01*
X033860Y028930D01*
X034260Y029180D02*
X034660Y029430D01*
X034660Y029680D01*
X034660Y029430D02*
X034660Y029180D01*
X034660Y029430D02*
X034060Y029430D01*
X034260Y029180D02*
X034260Y029680D01*
X034660Y029430D01*
X034910Y029430D01*
X034310Y030480D02*
X034160Y030480D01*
X034110Y030530D01*
X032210Y030530D01*
X032160Y030480D01*
X032010Y030480D01*
X031993Y030482D01*
X031976Y030486D01*
X031960Y030493D01*
X031946Y030503D01*
X031933Y030516D01*
X031923Y030530D01*
X031916Y030546D01*
X031912Y030563D01*
X031910Y030580D01*
X031910Y031280D01*
X031912Y031297D01*
X031916Y031314D01*
X031923Y031330D01*
X031933Y031344D01*
X031946Y031357D01*
X031960Y031367D01*
X031976Y031374D01*
X031993Y031378D01*
X032010Y031380D01*
X032160Y031380D01*
X032210Y031330D01*
X034110Y031330D01*
X034160Y031380D01*
X034310Y031380D01*
X034327Y031378D01*
X034344Y031374D01*
X034360Y031367D01*
X034374Y031357D01*
X034387Y031344D01*
X034397Y031330D01*
X034404Y031314D01*
X034408Y031297D01*
X034410Y031280D01*
X034410Y030580D01*
X034408Y030563D01*
X034404Y030546D01*
X034397Y030530D01*
X034387Y030516D01*
X034374Y030503D01*
X034360Y030493D01*
X034344Y030486D01*
X034327Y030482D01*
X034310Y030480D01*
X034285Y031980D02*
X034435Y031980D01*
X034452Y031982D01*
X034469Y031986D01*
X034485Y031993D01*
X034499Y032003D01*
X034512Y032016D01*
X034522Y032030D01*
X034529Y032046D01*
X034533Y032063D01*
X034535Y032080D01*
X034535Y032780D01*
X034533Y032797D01*
X034529Y032814D01*
X034522Y032830D01*
X034512Y032844D01*
X034499Y032857D01*
X034485Y032867D01*
X034469Y032874D01*
X034452Y032878D01*
X034435Y032880D01*
X034285Y032880D01*
X034235Y032830D01*
X032335Y032830D01*
X032285Y032880D01*
X032135Y032880D01*
X032118Y032878D01*
X032101Y032874D01*
X032085Y032867D01*
X032071Y032857D01*
X032058Y032844D01*
X032048Y032830D01*
X032041Y032814D01*
X032037Y032797D01*
X032035Y032780D01*
X032035Y032080D01*
X032037Y032063D01*
X032041Y032046D01*
X032048Y032030D01*
X032058Y032016D01*
X032071Y032003D01*
X032085Y031993D01*
X032101Y031986D01*
X032118Y031982D01*
X032135Y031980D01*
X032285Y031980D01*
X032335Y032030D01*
X034235Y032030D01*
X034285Y031980D01*
X036660Y032680D02*
X036660Y033180D01*
X036910Y033430D01*
X036660Y033680D01*
X036660Y034180D01*
X036910Y034430D01*
X036660Y034680D01*
X036660Y035180D01*
X036910Y035430D01*
X036660Y035680D01*
X036660Y036180D01*
X036910Y036430D01*
X036660Y036680D01*
X036660Y037180D01*
X036910Y037430D01*
X036660Y037680D01*
X036660Y038180D01*
X036910Y038430D01*
X037410Y038430D01*
X037660Y038180D01*
X037660Y037680D01*
X037410Y037430D01*
X037660Y037180D01*
X037660Y036680D01*
X037410Y036430D01*
X036910Y036430D01*
X037410Y036430D02*
X037660Y036180D01*
X037660Y035680D01*
X037410Y035430D01*
X037660Y035180D01*
X037660Y034680D01*
X037410Y034430D01*
X037660Y034180D01*
X037660Y033680D01*
X037410Y033430D01*
X037660Y033180D01*
X037660Y032680D01*
X037410Y032430D01*
X036910Y032430D01*
X036660Y032680D01*
X036910Y033430D02*
X037410Y033430D01*
X037410Y034430D02*
X036910Y034430D01*
X036910Y035430D02*
X037410Y035430D01*
X037410Y037430D02*
X036910Y037430D01*
X034154Y035226D02*
X034154Y034585D01*
X034367Y034585D02*
X033940Y034585D01*
X033940Y035012D02*
X034154Y035226D01*
X033660Y035055D02*
X033410Y034805D01*
X032910Y034805D01*
X032660Y035055D01*
X032410Y034805D01*
X031910Y034805D01*
X031660Y035055D01*
X031660Y035555D01*
X031910Y035805D01*
X032410Y035805D01*
X032660Y035555D01*
X032910Y035805D01*
X033410Y035805D01*
X033660Y035555D01*
X033660Y035055D01*
X032660Y035055D02*
X032660Y035555D01*
X031660Y035555D02*
X031410Y035805D01*
X030910Y035805D01*
X030660Y035555D01*
X030410Y035805D01*
X029910Y035805D01*
X029660Y035555D01*
X029410Y035805D01*
X028910Y035805D01*
X028660Y035555D01*
X028660Y035055D01*
X028910Y034805D01*
X029410Y034805D01*
X029660Y035055D01*
X029660Y035555D01*
X029660Y035055D02*
X029910Y034805D01*
X030410Y034805D01*
X030660Y035055D01*
X030660Y035555D01*
X030660Y035055D02*
X030910Y034805D01*
X031410Y034805D01*
X031660Y035055D01*
X031410Y037430D02*
X030910Y037430D01*
X030660Y037680D01*
X030410Y037430D01*
X029910Y037430D01*
X029660Y037680D01*
X029410Y037430D01*
X028910Y037430D01*
X028660Y037680D01*
X028660Y038180D01*
X028910Y038430D01*
X029410Y038430D01*
X029660Y038180D01*
X029910Y038430D01*
X030410Y038430D01*
X030660Y038180D01*
X030910Y038430D01*
X031410Y038430D01*
X031660Y038180D01*
X031910Y038430D01*
X032410Y038430D01*
X032660Y038180D01*
X032910Y038430D01*
X033410Y038430D01*
X033660Y038180D01*
X033660Y037680D01*
X033410Y037430D01*
X032910Y037430D01*
X032660Y037680D01*
X032410Y037430D01*
X031910Y037430D01*
X031660Y037680D01*
X031660Y038180D01*
X031660Y037680D02*
X031410Y037430D01*
X030660Y037680D02*
X030660Y038180D01*
X029660Y038180D02*
X029660Y037680D01*
X028660Y037680D02*
X028410Y037430D01*
X027910Y037430D01*
X027660Y037680D01*
X027410Y037430D01*
X026910Y037430D01*
X026660Y037680D01*
X026410Y037430D01*
X025910Y037430D01*
X025660Y037680D01*
X025660Y038180D01*
X025910Y038430D01*
X026410Y038430D01*
X026660Y038180D01*
X026910Y038430D01*
X027410Y038430D01*
X027660Y038180D01*
X027910Y038430D01*
X028410Y038430D01*
X028660Y038180D01*
X027660Y038180D02*
X027660Y037680D01*
X026660Y037680D02*
X026660Y038180D01*
X026410Y035805D02*
X025910Y035805D01*
X025660Y035555D01*
X025660Y035055D01*
X025910Y034805D01*
X026410Y034805D01*
X026660Y035055D01*
X026660Y035555D01*
X026410Y035805D01*
X026660Y035555D02*
X026910Y035805D01*
X027410Y035805D01*
X027660Y035555D01*
X027910Y035805D01*
X028410Y035805D01*
X028660Y035555D01*
X028660Y035055D02*
X028410Y034805D01*
X027910Y034805D01*
X027660Y035055D01*
X027410Y034805D01*
X026910Y034805D01*
X026660Y035055D01*
X027660Y035055D02*
X027660Y035555D01*
X032660Y037680D02*
X032660Y038180D01*
X022117Y038085D02*
X021690Y038085D01*
X021660Y038180D02*
X021660Y036680D01*
X021410Y036430D01*
X020910Y036430D01*
X020660Y036680D01*
X020660Y038180D01*
X020410Y038430D01*
X019910Y038430D01*
X019660Y038180D01*
X019660Y036680D01*
X019410Y036430D01*
X018910Y036430D01*
X018660Y036680D01*
X018660Y038180D01*
X018410Y038430D01*
X017910Y038430D01*
X017660Y038180D01*
X017660Y036680D01*
X017410Y036430D01*
X016910Y036430D01*
X016660Y036680D01*
X016660Y038180D01*
X016410Y038430D01*
X015910Y038430D01*
X015660Y038180D01*
X015660Y036680D01*
X015410Y036430D01*
X014910Y036430D01*
X014660Y036680D01*
X014660Y038180D01*
X014910Y038430D01*
X015410Y038430D01*
X015660Y038180D01*
X014660Y038180D02*
X014410Y038430D01*
X013910Y038430D01*
X013660Y038180D01*
X013660Y036680D01*
X013410Y036430D01*
X012910Y036430D01*
X012660Y036680D01*
X012410Y036430D01*
X011910Y036430D01*
X011660Y036680D01*
X011660Y038180D01*
X011910Y038430D01*
X012410Y038430D01*
X012660Y038180D01*
X012660Y036680D01*
X013660Y036680D02*
X013910Y036430D01*
X014410Y036430D01*
X014660Y036680D01*
X015660Y036680D02*
X015910Y036430D01*
X016410Y036430D01*
X016660Y036680D01*
X017660Y036680D02*
X017910Y036430D01*
X018410Y036430D01*
X018660Y036680D01*
X019660Y036680D02*
X019910Y036430D01*
X020410Y036430D01*
X020660Y036680D01*
X020660Y038180D02*
X020910Y038430D01*
X021410Y038430D01*
X021660Y038180D01*
X021904Y038085D02*
X021904Y038726D01*
X021690Y038512D01*
X019660Y038180D02*
X019410Y038430D01*
X018910Y038430D01*
X018660Y038180D01*
X017660Y038180D02*
X017410Y038430D01*
X016910Y038430D01*
X016660Y038180D01*
X015310Y035505D02*
X015160Y035505D01*
X015110Y035455D01*
X013210Y035455D01*
X013160Y035505D01*
X013010Y035505D01*
X012993Y035503D01*
X012976Y035499D01*
X012960Y035492D01*
X012946Y035482D01*
X012933Y035469D01*
X012923Y035455D01*
X012916Y035439D01*
X012912Y035422D01*
X012910Y035405D01*
X012910Y034705D01*
X012912Y034688D01*
X012916Y034671D01*
X012923Y034655D01*
X012933Y034641D01*
X012946Y034628D01*
X012960Y034618D01*
X012976Y034611D01*
X012993Y034607D01*
X013010Y034605D01*
X013160Y034605D01*
X013210Y034655D01*
X015110Y034655D01*
X015160Y034605D01*
X015310Y034605D01*
X015327Y034607D01*
X015344Y034611D01*
X015360Y034618D01*
X015374Y034628D01*
X015387Y034641D01*
X015397Y034655D01*
X015404Y034671D01*
X015408Y034688D01*
X015410Y034705D01*
X015410Y035405D01*
X015408Y035422D01*
X015404Y035439D01*
X015397Y035455D01*
X015387Y035469D01*
X015374Y035482D01*
X015360Y035492D01*
X015344Y035499D01*
X015327Y035503D01*
X015310Y035505D01*
X013660Y038180D02*
X013410Y038430D01*
X012910Y038430D01*
X012660Y038180D01*
X007160Y037280D02*
X007160Y035580D01*
X007158Y035563D01*
X007154Y035546D01*
X007147Y035530D01*
X007137Y035516D01*
X007124Y035503D01*
X007110Y035493D01*
X007094Y035486D01*
X007077Y035482D01*
X007060Y035480D01*
X006260Y035480D01*
X006243Y035482D01*
X006226Y035486D01*
X006210Y035493D01*
X006196Y035503D01*
X006183Y035516D01*
X006173Y035530D01*
X006166Y035546D01*
X006162Y035563D01*
X006160Y035580D01*
X006160Y037280D01*
X006162Y037297D01*
X006166Y037314D01*
X006173Y037330D01*
X006183Y037344D01*
X006196Y037357D01*
X006210Y037367D01*
X006226Y037374D01*
X006243Y037378D01*
X006260Y037380D01*
X007060Y037380D01*
X007077Y037378D01*
X007094Y037374D01*
X007110Y037367D01*
X007124Y037357D01*
X007137Y037344D01*
X007147Y037330D01*
X007154Y037314D01*
X007158Y037297D01*
X007160Y037280D01*
X006660Y036580D02*
X006660Y036530D01*
X006660Y036330D02*
X006660Y036280D01*
X006410Y033930D02*
X006160Y033680D01*
X006160Y033180D01*
X006410Y032930D01*
X006910Y032930D01*
X007160Y033180D01*
X007160Y033680D01*
X006910Y033930D01*
X006410Y033930D01*
X006410Y032930D02*
X006160Y032680D01*
X006160Y032180D01*
X006410Y031930D01*
X006910Y031930D01*
X007160Y032180D01*
X007160Y032680D01*
X006910Y032930D01*
X003410Y028430D02*
X001910Y028430D01*
X001660Y028180D01*
X001660Y027680D01*
X001910Y027430D01*
X003410Y027430D01*
X003660Y027680D01*
X003660Y028180D01*
X003410Y028430D01*
X003410Y027430D02*
X003660Y027180D01*
X003660Y026680D01*
X003410Y026430D01*
X001910Y026430D01*
X001660Y026680D01*
X001660Y027180D01*
X001910Y027430D01*
X001910Y026430D02*
X001660Y026180D01*
X001660Y025680D01*
X001910Y025430D01*
X003410Y025430D01*
X003660Y025680D01*
X003660Y026180D01*
X003410Y026430D01*
X003410Y025430D02*
X003660Y025180D01*
X003660Y024680D01*
X003410Y024430D01*
X001910Y024430D01*
X001660Y024680D01*
X001660Y025180D01*
X001910Y025430D01*
X001910Y024430D02*
X001660Y024180D01*
X001660Y023680D01*
X001910Y023430D01*
X003410Y023430D01*
X003660Y023680D01*
X003660Y024180D01*
X003410Y024430D01*
X003410Y023430D02*
X003660Y023180D01*
X003660Y022680D01*
X003410Y022430D01*
X001910Y022430D01*
X001660Y022680D01*
X001660Y023180D01*
X001910Y023430D01*
X001910Y022430D02*
X001660Y022180D01*
X001660Y021680D01*
X001910Y021430D01*
X003410Y021430D01*
X003660Y021680D01*
X003660Y022180D01*
X003410Y022430D01*
X003410Y021430D02*
X003660Y021180D01*
X003660Y020680D01*
X003410Y020430D01*
X001910Y020430D01*
X001660Y020680D01*
X001660Y021180D01*
X001910Y021430D01*
X001755Y020262D02*
X001755Y019835D01*
X001755Y020049D02*
X001114Y020049D01*
X001328Y019835D01*
X001910Y018930D02*
X003410Y018930D01*
X003660Y018680D01*
X003660Y018180D01*
X003410Y017930D01*
X001910Y017930D01*
X001660Y017680D01*
X001660Y017180D01*
X001910Y016930D01*
X003410Y016930D01*
X003660Y016680D01*
X003660Y016180D01*
X003410Y015930D01*
X001910Y015930D01*
X001660Y015680D01*
X001660Y015180D01*
X001910Y014930D01*
X003410Y014930D01*
X003660Y014680D01*
X003660Y014180D01*
X003410Y013930D01*
X001910Y013930D01*
X001660Y013680D01*
X001660Y013180D01*
X001910Y012930D01*
X003410Y012930D01*
X003660Y012680D01*
X003660Y012180D01*
X003410Y011930D01*
X001910Y011930D01*
X001660Y012180D01*
X001660Y012680D01*
X001910Y012930D01*
X001910Y013930D02*
X001660Y014180D01*
X001660Y014680D01*
X001910Y014930D01*
X001910Y015930D02*
X001660Y016180D01*
X001660Y016680D01*
X001910Y016930D01*
X001910Y017930D02*
X001660Y018180D01*
X001660Y018680D01*
X001910Y018930D01*
X001380Y018637D02*
X001380Y018210D01*
X001380Y018424D02*
X000739Y018424D01*
X000953Y018210D01*
X003410Y017930D02*
X003660Y017680D01*
X003660Y017180D01*
X003410Y016930D01*
X003410Y015930D02*
X003660Y015680D01*
X003660Y015180D01*
X003410Y014930D01*
X003410Y013930D02*
X003660Y013680D01*
X003660Y013180D01*
X003410Y012930D01*
X003410Y011930D02*
X003660Y011680D01*
X003660Y011180D01*
X003410Y010930D01*
X001910Y010930D01*
X001660Y011180D01*
X001660Y011680D01*
X001910Y011930D01*
X001910Y010930D02*
X001660Y010680D01*
X001660Y010180D01*
X001910Y009930D01*
X003410Y009930D01*
X003660Y009680D01*
X003660Y009180D01*
X003410Y008930D01*
X003660Y008680D01*
X003660Y008180D01*
X003410Y007930D01*
X001910Y007930D01*
X001660Y008180D01*
X001660Y008680D01*
X001910Y008930D01*
X003410Y008930D01*
X003410Y009930D02*
X003660Y010180D01*
X003660Y010680D01*
X003410Y010930D01*
X001910Y009930D02*
X001660Y009680D01*
X001660Y009180D01*
X001910Y008930D01*
X005760Y012980D02*
X006560Y012980D01*
X006577Y012982D01*
X006594Y012986D01*
X006610Y012993D01*
X006624Y013003D01*
X006637Y013016D01*
X006647Y013030D01*
X006654Y013046D01*
X006658Y013063D01*
X006660Y013080D01*
X006660Y014780D01*
X006658Y014797D01*
X006654Y014814D01*
X006647Y014830D01*
X006637Y014844D01*
X006624Y014857D01*
X006610Y014867D01*
X006594Y014874D01*
X006577Y014878D01*
X006560Y014880D01*
X005760Y014880D01*
X005743Y014878D01*
X005726Y014874D01*
X005710Y014867D01*
X005696Y014857D01*
X005683Y014844D01*
X005673Y014830D01*
X005666Y014814D01*
X005662Y014797D01*
X005660Y014780D01*
X005660Y013080D01*
X005662Y013063D01*
X005666Y013046D01*
X005673Y013030D01*
X005683Y013016D01*
X005696Y013003D01*
X005710Y012993D01*
X005726Y012986D01*
X005743Y012982D01*
X005760Y012980D01*
X006160Y013780D02*
X006160Y013830D01*
X006160Y014030D02*
X006160Y014080D01*
X008160Y015180D02*
X008160Y015680D01*
X008410Y015930D01*
X008160Y015180D02*
X008410Y014930D01*
X006560Y022480D02*
X005760Y022480D01*
X005743Y022482D01*
X005726Y022486D01*
X005710Y022493D01*
X005696Y022503D01*
X005683Y022516D01*
X005673Y022530D01*
X005666Y022546D01*
X005662Y022563D01*
X005660Y022580D01*
X005660Y024280D01*
X005662Y024297D01*
X005666Y024314D01*
X005673Y024330D01*
X005683Y024344D01*
X005696Y024357D01*
X005710Y024367D01*
X005726Y024374D01*
X005743Y024378D01*
X005760Y024380D01*
X006560Y024380D01*
X006577Y024378D01*
X006594Y024374D01*
X006610Y024367D01*
X006624Y024357D01*
X006637Y024344D01*
X006647Y024330D01*
X006654Y024314D01*
X006658Y024297D01*
X006660Y024280D01*
X006660Y022580D01*
X006658Y022563D01*
X006654Y022546D01*
X006647Y022530D01*
X006637Y022516D01*
X006624Y022503D01*
X006610Y022493D01*
X006594Y022486D01*
X006577Y022482D01*
X006560Y022480D01*
X006160Y023280D02*
X006160Y023330D01*
X006160Y023530D02*
X006160Y023580D01*
X013660Y031180D02*
X013910Y031430D01*
X014410Y031430D01*
X014660Y031180D01*
X015660Y031180D02*
X015910Y031430D01*
X016410Y031430D01*
X016660Y031180D01*
X017660Y031180D02*
X017910Y031430D01*
X018410Y031430D01*
X018660Y031180D01*
X028660Y026680D02*
X028660Y026180D01*
X028910Y025930D01*
X030410Y025930D01*
X030660Y026180D01*
X030660Y026680D01*
X030410Y026930D01*
X028910Y026930D01*
X028660Y026680D01*
X028910Y025930D02*
X028660Y025680D01*
X028660Y025180D01*
X028910Y024930D01*
X030410Y024930D02*
X030660Y025180D01*
X030660Y025680D01*
X030410Y025930D01*
X030410Y021930D02*
X030660Y021680D01*
X030660Y021180D01*
X030410Y020930D01*
D12*
X030311Y013661D02*
X030311Y013431D01*
X030465Y013507D01*
X030541Y013507D01*
X030618Y013431D01*
X030618Y013277D01*
X030541Y013200D01*
X030388Y013200D01*
X030311Y013277D01*
X030311Y013661D02*
X030618Y013661D01*
X030772Y013507D02*
X030925Y013661D01*
X030925Y013200D01*
X030772Y013200D02*
X031078Y013200D01*
X029697Y013200D02*
X029390Y013200D01*
X029697Y013507D01*
X029697Y013584D01*
X029621Y013661D01*
X029467Y013661D01*
X029390Y013584D01*
X029237Y013661D02*
X028930Y013661D01*
X028930Y013431D01*
X029083Y013507D01*
X029160Y013507D01*
X029237Y013431D01*
X029237Y013277D01*
X029160Y013200D01*
X029007Y013200D01*
X028930Y013277D01*
X028127Y012286D02*
X028127Y011825D01*
X027973Y011825D02*
X027743Y011825D01*
X027666Y011902D01*
X027743Y011979D01*
X027973Y011979D01*
X027973Y012056D02*
X027973Y011825D01*
X028127Y011979D02*
X028357Y012132D01*
X028127Y011979D02*
X028357Y011825D01*
X028203Y011612D02*
X028203Y011536D01*
X028203Y011382D02*
X028203Y011075D01*
X028127Y011075D02*
X028280Y011075D01*
X028434Y011075D02*
X028434Y011536D01*
X028664Y011382D02*
X028434Y011229D01*
X028664Y011075D01*
X028817Y011075D02*
X029124Y011075D01*
X029278Y011152D02*
X029354Y011229D01*
X029585Y011229D01*
X029585Y011306D02*
X029585Y011075D01*
X029354Y011075D01*
X029278Y011152D01*
X029354Y011382D02*
X029508Y011382D01*
X029585Y011306D01*
X029738Y011229D02*
X029968Y011382D01*
X029738Y011229D02*
X029968Y011075D01*
X030122Y011075D02*
X030199Y011075D01*
X030199Y011152D01*
X030122Y011152D01*
X030122Y011075D01*
X030352Y011152D02*
X030352Y011306D01*
X030429Y011382D01*
X030659Y011382D01*
X030889Y011382D02*
X031043Y011382D01*
X031119Y011306D01*
X031119Y011075D01*
X030889Y011075D01*
X030812Y011152D01*
X030889Y011229D01*
X031119Y011229D01*
X030659Y011075D02*
X030429Y011075D01*
X030352Y011152D01*
X030505Y010786D02*
X030582Y010786D01*
X030582Y010325D01*
X030505Y010325D02*
X030659Y010325D01*
X030812Y010325D02*
X030966Y010325D01*
X030889Y010325D02*
X030889Y010786D01*
X030812Y010786D01*
X030352Y010556D02*
X030352Y010479D01*
X030045Y010479D01*
X030045Y010556D02*
X030122Y010632D01*
X030275Y010632D01*
X030352Y010556D01*
X030275Y010325D02*
X030122Y010325D01*
X030045Y010402D01*
X030045Y010556D01*
X029892Y010556D02*
X029892Y010325D01*
X029892Y010556D02*
X029815Y010632D01*
X029661Y010632D01*
X029585Y010556D01*
X029431Y010632D02*
X029201Y010632D01*
X029124Y010556D01*
X029124Y010402D01*
X029201Y010325D01*
X029431Y010325D01*
X029585Y010325D02*
X029585Y010786D01*
X029738Y011075D02*
X029738Y011536D01*
X029124Y011382D02*
X028817Y011075D01*
X028817Y011382D02*
X029124Y011382D01*
X028894Y010709D02*
X028894Y010402D01*
X028971Y010325D01*
X028664Y010325D02*
X028510Y010325D01*
X028587Y010325D02*
X028587Y010632D01*
X028510Y010632D01*
X028587Y010786D02*
X028587Y010862D01*
X028357Y010786D02*
X028203Y010632D01*
X028050Y010786D01*
X028050Y010325D01*
X028357Y010325D02*
X028357Y010786D01*
X027973Y011075D02*
X027666Y011075D01*
X027973Y011382D01*
X027666Y011382D01*
X027513Y011152D02*
X027513Y011075D01*
X027436Y011075D01*
X027436Y011152D01*
X027513Y011152D01*
X027283Y011152D02*
X027283Y011382D01*
X027283Y011152D02*
X027206Y011075D01*
X027129Y011152D01*
X027053Y011075D01*
X026976Y011152D01*
X026976Y011382D01*
X026822Y011382D02*
X026822Y011152D01*
X026746Y011075D01*
X026669Y011152D01*
X026592Y011075D01*
X026515Y011152D01*
X026515Y011382D01*
X026362Y011382D02*
X026362Y011152D01*
X026285Y011075D01*
X026208Y011152D01*
X026132Y011075D01*
X026055Y011152D01*
X026055Y011382D01*
X026055Y011825D02*
X026362Y011825D01*
X026515Y011825D02*
X026669Y011825D01*
X026592Y011825D02*
X026592Y012132D01*
X026515Y012132D01*
X026362Y012209D02*
X026055Y011902D01*
X026055Y011825D01*
X026055Y012286D02*
X026362Y012286D01*
X026362Y012209D01*
X026592Y012286D02*
X026592Y012362D01*
X026822Y012286D02*
X026822Y011825D01*
X026822Y011979D02*
X027053Y012132D01*
X027206Y012132D02*
X027513Y012132D01*
X027206Y011825D01*
X027513Y011825D01*
X027743Y012132D02*
X027897Y012132D01*
X027973Y012056D01*
X028127Y011382D02*
X028203Y011382D01*
X028817Y010632D02*
X028971Y010632D01*
X029048Y009882D02*
X028894Y009575D01*
X028741Y009882D01*
X028587Y009806D02*
X028587Y009729D01*
X028280Y009729D01*
X028280Y009806D02*
X028357Y009882D01*
X028510Y009882D01*
X028587Y009806D01*
X028510Y009575D02*
X028357Y009575D01*
X028280Y009652D01*
X028280Y009806D01*
X028127Y009882D02*
X028050Y009882D01*
X027897Y009729D01*
X027897Y009882D02*
X027897Y009575D01*
X027283Y009652D02*
X027283Y010036D01*
X027359Y010325D02*
X027359Y010709D01*
X027436Y010786D01*
X027436Y010556D02*
X027283Y010556D01*
X027129Y010556D02*
X026976Y010556D01*
X026822Y010556D02*
X026822Y010479D01*
X026515Y010479D01*
X026515Y010556D02*
X026592Y010632D01*
X026746Y010632D01*
X026822Y010556D01*
X026746Y010325D02*
X026592Y010325D01*
X026515Y010402D01*
X026515Y010556D01*
X026362Y010786D02*
X026208Y010786D01*
X026285Y010786D02*
X026285Y010402D01*
X026208Y010325D01*
X026132Y010325D01*
X026055Y010402D01*
X026132Y010036D02*
X026055Y009959D01*
X026055Y009652D01*
X026132Y009575D01*
X026285Y009575D01*
X026362Y009652D01*
X026362Y009806D01*
X026208Y009806D01*
X026362Y009959D02*
X026285Y010036D01*
X026132Y010036D01*
X026515Y010036D02*
X026746Y010036D01*
X026822Y009959D01*
X026822Y009806D01*
X026746Y009729D01*
X026515Y009729D01*
X026515Y009575D02*
X026515Y010036D01*
X026976Y010036D02*
X026976Y009652D01*
X027053Y009575D01*
X027206Y009575D01*
X027283Y009652D01*
X027053Y010325D02*
X027053Y010709D01*
X027129Y010786D01*
X027053Y011825D02*
X026822Y011979D01*
X029661Y009959D02*
X029738Y010036D01*
X029892Y010036D01*
X029968Y009959D01*
X029968Y009882D01*
X029661Y009575D01*
X029968Y009575D01*
X030582Y009652D02*
X030889Y009959D01*
X030889Y009652D01*
X030812Y009575D01*
X030659Y009575D01*
X030582Y009652D01*
X030582Y009959D01*
X030659Y010036D01*
X030812Y010036D01*
X030889Y009959D01*
X031043Y009806D02*
X031273Y009806D01*
X031350Y009729D01*
X031350Y009652D01*
X031273Y009575D01*
X031119Y009575D01*
X031043Y009652D01*
X031043Y009806D01*
X031196Y009959D01*
X031350Y010036D01*
X031503Y009806D02*
X031810Y009806D01*
X031963Y009959D02*
X032040Y010036D01*
X032194Y010036D01*
X032270Y009959D01*
X032270Y009882D01*
X031963Y009575D01*
X032270Y009575D01*
X032424Y009652D02*
X032500Y009575D01*
X032654Y009575D01*
X032731Y009652D01*
X032731Y009959D01*
X032424Y009652D01*
X032424Y009959D01*
X032500Y010036D01*
X032654Y010036D01*
X032731Y009959D01*
X032884Y009882D02*
X033038Y010036D01*
X033038Y009575D01*
X033191Y009575D02*
X032884Y009575D01*
X033345Y009806D02*
X033651Y009806D01*
X033575Y010036D02*
X033575Y009575D01*
X033345Y009806D02*
X033575Y010036D01*
X026081Y002632D02*
X026004Y002632D01*
X025851Y002479D01*
X025851Y002632D02*
X025851Y002325D01*
X025697Y002402D02*
X025621Y002325D01*
X025544Y002402D01*
X025467Y002325D01*
X025390Y002402D01*
X025390Y002632D01*
X025237Y002556D02*
X025160Y002479D01*
X024930Y002479D01*
X024930Y002325D02*
X024930Y002786D01*
X025160Y002786D01*
X025237Y002709D01*
X025237Y002556D01*
X025697Y002632D02*
X025697Y002402D01*
X014890Y005979D02*
X014737Y006132D01*
X014430Y006132D01*
X014430Y006286D02*
X014430Y006516D01*
X014506Y006593D01*
X014583Y006593D01*
X014660Y006516D01*
X014660Y006286D01*
X014660Y006516D02*
X014737Y006593D01*
X014813Y006593D01*
X014890Y006516D01*
X014890Y006286D01*
X014430Y006286D01*
X014063Y006286D02*
X013756Y006593D01*
X013756Y006439D02*
X014063Y006439D01*
X014063Y006593D02*
X013756Y006286D01*
X013756Y006132D02*
X013833Y006132D01*
X013910Y006056D01*
X013987Y006132D01*
X014063Y006132D01*
X014140Y006056D01*
X014140Y005902D01*
X014063Y005825D01*
X013910Y005979D02*
X013910Y006056D01*
X013756Y006132D02*
X013680Y006056D01*
X013680Y005902D01*
X013756Y005825D01*
X013390Y005825D02*
X012930Y005825D01*
X012930Y006056D01*
X013006Y006132D01*
X013160Y006132D01*
X013237Y006056D01*
X013237Y005825D01*
X013237Y005979D02*
X013390Y006132D01*
X013390Y006286D02*
X012930Y006593D01*
X012640Y006593D02*
X012180Y006286D01*
X012180Y006132D02*
X012180Y005825D01*
X012180Y005979D02*
X012640Y005979D01*
X012640Y006286D02*
X012180Y006593D01*
X012930Y006286D02*
X013390Y006593D01*
X013680Y006746D02*
X014140Y007053D01*
X013680Y007053D01*
X013756Y007207D02*
X014063Y007207D01*
X014140Y007283D01*
X014140Y007437D01*
X014063Y007513D01*
X013756Y007513D02*
X013680Y007437D01*
X013680Y007283D01*
X013756Y007207D01*
X013680Y006746D02*
X014140Y006746D01*
X013910Y006593D02*
X013910Y006286D01*
X014430Y006746D02*
X014890Y006746D01*
X014890Y007053D01*
X014890Y005979D02*
X014737Y005825D01*
X014430Y005825D01*
X012390Y009700D02*
X012083Y010007D01*
X012006Y010007D01*
X011930Y009931D01*
X011930Y009777D01*
X012006Y009700D01*
X012390Y009700D02*
X012390Y010007D01*
X012313Y010161D02*
X012390Y010237D01*
X012390Y010391D01*
X012313Y010468D01*
X012237Y010468D01*
X012160Y010391D01*
X012160Y010161D01*
X012313Y010161D01*
X012160Y010161D02*
X012006Y010314D01*
X011930Y010468D01*
X012006Y011082D02*
X011930Y011158D01*
X011930Y011312D01*
X012006Y011388D01*
X012083Y011388D01*
X012390Y011082D01*
X012390Y011388D01*
X012390Y011542D02*
X012313Y011542D01*
X012006Y011849D01*
X011930Y011849D01*
X011930Y011542D01*
X017489Y024090D02*
X017412Y024167D01*
X017489Y024090D02*
X017642Y024090D01*
X017719Y024167D01*
X017719Y024244D01*
X017642Y024320D01*
X017489Y024320D01*
X017412Y024397D01*
X017412Y024474D01*
X017489Y024551D01*
X017642Y024551D01*
X017719Y024474D01*
X017873Y024551D02*
X018180Y024551D01*
X018333Y024551D02*
X018487Y024397D01*
X018640Y024551D01*
X018640Y024090D01*
X018793Y024167D02*
X018870Y024090D01*
X019024Y024090D01*
X019100Y024167D01*
X019100Y024244D01*
X019024Y024320D01*
X018947Y024320D01*
X019024Y024320D02*
X019100Y024397D01*
X019100Y024474D01*
X019024Y024551D01*
X018870Y024551D01*
X018793Y024474D01*
X019254Y024474D02*
X019331Y024551D01*
X019484Y024551D01*
X019561Y024474D01*
X019561Y024397D01*
X019254Y024090D01*
X019561Y024090D01*
X019714Y024090D02*
X019714Y024551D01*
X020021Y024551D01*
X019868Y024320D02*
X019714Y024320D01*
X020175Y024320D02*
X020405Y024551D01*
X020405Y024090D01*
X020482Y024320D02*
X020175Y024320D01*
X018333Y024090D02*
X018333Y024551D01*
X018026Y024551D02*
X018026Y024090D01*
X010703Y027075D02*
X010397Y027075D01*
X010703Y027382D01*
X010703Y027459D01*
X010627Y027536D01*
X010473Y027536D01*
X010397Y027459D01*
X008862Y027075D02*
X008555Y027075D01*
X008708Y027075D02*
X008708Y027536D01*
X008555Y027382D01*
X003925Y038825D02*
X003925Y039286D01*
X003772Y039286D02*
X004078Y039286D01*
X003618Y039286D02*
X003311Y039286D01*
X003311Y038825D01*
X003618Y038825D01*
X003465Y039056D02*
X003311Y039056D01*
X003158Y038979D02*
X003158Y038902D01*
X003081Y038825D01*
X002928Y038825D01*
X002851Y038902D01*
X002928Y039056D02*
X003081Y039056D01*
X003158Y038979D01*
X003158Y039209D02*
X003081Y039286D01*
X002928Y039286D01*
X002851Y039209D01*
X002851Y039132D01*
X002928Y039056D01*
X002697Y039286D02*
X002390Y039286D01*
X002390Y038825D01*
X002697Y038825D01*
X002544Y039056D02*
X002390Y039056D01*
X002237Y039056D02*
X002237Y039209D01*
X002160Y039286D01*
X001930Y039286D01*
X001930Y038825D01*
X001930Y038979D02*
X002160Y038979D01*
X002237Y039056D01*
X002083Y038979D02*
X002237Y038825D01*
X024055Y038902D02*
X024132Y038825D01*
X024285Y038825D01*
X024362Y038902D01*
X024362Y038979D01*
X024285Y039056D01*
X024132Y039056D01*
X024055Y039132D01*
X024055Y039209D01*
X024132Y039286D01*
X024285Y039286D01*
X024362Y039209D01*
X024515Y039286D02*
X024515Y038825D01*
X024746Y038825D01*
X024822Y038902D01*
X024822Y039209D01*
X024746Y039286D01*
X024515Y039286D01*
X024976Y039132D02*
X025129Y039286D01*
X025283Y039132D01*
X025283Y038825D01*
X025283Y039056D02*
X024976Y039056D01*
X024976Y039132D02*
X024976Y038825D01*
X025897Y038902D02*
X025973Y038825D01*
X026127Y038825D01*
X026203Y038902D01*
X026203Y038979D01*
X026127Y039056D01*
X025973Y039056D01*
X025897Y039132D01*
X025897Y039209D01*
X025973Y039286D01*
X026127Y039286D01*
X026203Y039209D01*
X026357Y039209D02*
X026357Y038902D01*
X026434Y038825D01*
X026587Y038825D01*
X026664Y038902D01*
X026817Y038825D02*
X026817Y039286D01*
X026664Y039209D02*
X026587Y039286D01*
X026434Y039286D01*
X026357Y039209D01*
X026817Y038825D02*
X027124Y038825D01*
X027738Y038825D02*
X027738Y039286D01*
X028045Y038825D01*
X028045Y039286D01*
X028199Y039209D02*
X028199Y038902D01*
X028275Y038825D01*
X028429Y038825D01*
X028505Y038902D01*
X028505Y039209D02*
X028429Y039286D01*
X028275Y039286D01*
X028199Y039209D01*
X029119Y039286D02*
X029119Y038825D01*
X029119Y038979D02*
X029350Y038979D01*
X029426Y039056D01*
X029426Y039209D01*
X029350Y039286D01*
X029119Y039286D01*
X029273Y038979D02*
X029426Y038825D01*
X029733Y038825D02*
X029733Y039286D01*
X029580Y039286D02*
X029887Y039286D01*
X030040Y039209D02*
X030040Y039132D01*
X030117Y039056D01*
X030270Y039056D01*
X030347Y038979D01*
X030347Y038902D01*
X030270Y038825D01*
X030117Y038825D01*
X030040Y038902D01*
X030040Y039209D02*
X030117Y039286D01*
X030270Y039286D01*
X030347Y039209D01*
X030961Y039209D02*
X030961Y038902D01*
X031038Y038825D01*
X031191Y038825D01*
X031268Y038902D01*
X031268Y039209D02*
X031191Y039286D01*
X031038Y039286D01*
X030961Y039209D01*
X031421Y039286D02*
X031728Y039286D01*
X031575Y039286D02*
X031575Y038825D01*
X031882Y038902D02*
X031958Y038825D01*
X032112Y038825D01*
X032189Y038902D01*
X032189Y038979D01*
X032112Y039056D01*
X031958Y039056D01*
X031882Y039132D01*
X031882Y039209D01*
X031958Y039286D01*
X032112Y039286D01*
X032189Y039209D01*
X032802Y039286D02*
X032802Y038825D01*
X032802Y038979D02*
X033033Y038979D01*
X033109Y039056D01*
X033109Y039209D01*
X033033Y039286D01*
X032802Y039286D01*
X032956Y038979D02*
X033109Y038825D01*
X033263Y038825D02*
X033570Y039286D01*
X033263Y039286D02*
X033570Y038825D01*
X034184Y039286D02*
X034491Y039286D01*
X034644Y039286D02*
X034951Y038825D01*
X034644Y038825D02*
X034951Y039286D01*
X034337Y039286D02*
X034337Y038825D01*
X034415Y038257D02*
X034645Y038257D01*
X034799Y038257D02*
X034799Y038027D01*
X034876Y037950D01*
X035106Y037950D01*
X035106Y037874D02*
X035029Y037797D01*
X034952Y037797D01*
X035106Y037874D02*
X035106Y038257D01*
X035259Y038257D02*
X035489Y038257D01*
X035566Y038181D01*
X035566Y037950D01*
X035720Y038027D02*
X035796Y037950D01*
X036027Y037950D01*
X036027Y038257D02*
X035796Y038257D01*
X035720Y038181D01*
X035720Y038027D01*
X035259Y037950D02*
X035259Y038257D01*
X034645Y038027D02*
X034569Y038104D01*
X034415Y038104D01*
X034338Y038181D01*
X034415Y038257D01*
X034185Y038257D02*
X034031Y037950D01*
X033878Y038257D01*
X034338Y037950D02*
X034569Y037950D01*
X034645Y038027D01*
X034645Y037507D02*
X034415Y037507D01*
X034338Y037431D01*
X034415Y037354D01*
X034569Y037354D01*
X034645Y037277D01*
X034569Y037200D01*
X034338Y037200D01*
X034185Y037200D02*
X034185Y037431D01*
X034108Y037507D01*
X033955Y037507D01*
X033878Y037431D01*
X033878Y037661D02*
X033878Y037200D01*
X034799Y037277D02*
X034876Y037200D01*
X035106Y037200D01*
X035106Y037124D02*
X035106Y037507D01*
X035259Y037507D02*
X035489Y037507D01*
X035566Y037431D01*
X035566Y037200D01*
X035720Y037277D02*
X035796Y037200D01*
X036027Y037200D01*
X035950Y036911D02*
X035720Y036911D01*
X035720Y036450D01*
X035950Y036450D01*
X036027Y036527D01*
X036027Y036834D01*
X035950Y036911D01*
X035566Y036911D02*
X035566Y036450D01*
X035259Y036911D01*
X035259Y036450D01*
X035106Y036527D02*
X035106Y036681D01*
X034952Y036681D01*
X034799Y036834D02*
X034799Y036527D01*
X034876Y036450D01*
X035029Y036450D01*
X035106Y036527D01*
X035106Y036834D02*
X035029Y036911D01*
X034876Y036911D01*
X034799Y036834D01*
X034952Y037047D02*
X035029Y037047D01*
X035106Y037124D01*
X035259Y037200D02*
X035259Y037507D01*
X034799Y037507D02*
X034799Y037277D01*
X035720Y037277D02*
X035720Y037431D01*
X035796Y037507D01*
X036027Y037507D01*
X035950Y036161D02*
X035720Y036161D01*
X035720Y035700D01*
X035720Y035854D02*
X035950Y035854D01*
X036027Y035931D01*
X036027Y036084D01*
X035950Y036161D01*
X035873Y035854D02*
X036027Y035700D01*
X035950Y035411D02*
X035796Y035411D01*
X035720Y035334D01*
X035720Y035027D01*
X035796Y034950D01*
X035950Y034950D01*
X036027Y035027D01*
X036027Y035181D01*
X035873Y035181D01*
X036027Y035334D02*
X035950Y035411D01*
X035950Y034661D02*
X035720Y034661D01*
X035720Y034200D01*
X035950Y034200D01*
X036027Y034277D01*
X036027Y034354D01*
X035950Y034431D01*
X035720Y034431D01*
X035950Y034431D02*
X036027Y034507D01*
X036027Y034584D01*
X035950Y034661D01*
X036025Y038825D02*
X036025Y039286D01*
X035872Y039209D02*
X035795Y039286D01*
X035642Y039286D01*
X035565Y039209D01*
X035565Y038902D01*
X035642Y038825D01*
X035795Y038825D01*
X035872Y038902D01*
X036025Y038979D02*
X036332Y039286D01*
X036102Y039056D02*
X036332Y038825D01*
X026265Y031522D02*
X026188Y031599D01*
X026112Y031599D01*
X026035Y031522D01*
X026035Y031292D01*
X026188Y031292D01*
X026265Y031369D01*
X026265Y031522D01*
X026035Y031292D02*
X025881Y031445D01*
X025805Y031599D01*
X025805Y031138D02*
X025881Y031138D01*
X026188Y030832D01*
X026265Y030832D01*
X025805Y030832D02*
X025805Y031138D01*
X025805Y030218D02*
X025881Y030218D01*
X026188Y029911D01*
X026265Y029911D01*
X025881Y029757D02*
X026188Y029450D01*
X026265Y029450D01*
X025805Y029450D02*
X025805Y029757D01*
X025881Y029757D01*
X025805Y029911D02*
X025805Y030218D01*
D13*
X025450Y029156D02*
X025525Y029081D01*
X025225Y028780D01*
X025300Y028705D01*
X025450Y028705D01*
X025525Y028780D01*
X025525Y029081D01*
X025450Y029156D02*
X025300Y029156D01*
X025225Y029081D01*
X025225Y028780D01*
X025064Y028780D02*
X024989Y028705D01*
X024839Y028705D01*
X024764Y028780D01*
X025064Y029081D01*
X025064Y028780D01*
X024764Y028780D02*
X024764Y029081D01*
X024839Y029156D01*
X024989Y029156D01*
X025064Y029081D01*
X024604Y028705D02*
X024304Y028705D01*
X024454Y028705D02*
X024454Y029156D01*
X024304Y029006D01*
X024144Y028931D02*
X023843Y028931D01*
X023683Y028855D02*
X023608Y028931D01*
X023383Y028931D01*
X023383Y028780D01*
X023458Y028705D01*
X023608Y028705D01*
X023683Y028780D01*
X023683Y028855D01*
X023533Y029081D02*
X023683Y029156D01*
X023533Y029081D02*
X023383Y028931D01*
X023223Y029081D02*
X022923Y028780D01*
X022923Y028705D01*
X022923Y029156D02*
X023223Y029156D01*
X023223Y029081D01*
X024785Y028181D02*
X024785Y027880D01*
X024860Y027805D01*
X025010Y027805D01*
X025085Y027880D01*
X025245Y027880D02*
X025320Y027805D01*
X025471Y027805D01*
X025546Y027880D01*
X025546Y027955D01*
X025471Y028031D01*
X025396Y028031D01*
X025471Y028031D02*
X025546Y028106D01*
X025546Y028181D01*
X025471Y028256D01*
X025320Y028256D01*
X025245Y028181D01*
X025085Y028181D02*
X025010Y028256D01*
X024860Y028256D01*
X024785Y028181D01*
X025739Y024306D02*
X025664Y024231D01*
X025664Y023930D01*
X025739Y023855D01*
X025889Y023855D01*
X025964Y023930D01*
X026125Y023930D02*
X026125Y024005D01*
X026200Y024081D01*
X026350Y024081D01*
X026425Y024005D01*
X026425Y023930D01*
X026350Y023855D01*
X026200Y023855D01*
X026125Y023930D01*
X026200Y024081D02*
X026125Y024156D01*
X026125Y024231D01*
X026200Y024306D01*
X026350Y024306D01*
X026425Y024231D01*
X026425Y024156D01*
X026350Y024081D01*
X025964Y024231D02*
X025889Y024306D01*
X025739Y024306D01*
X025471Y017006D02*
X025245Y016781D01*
X025546Y016781D01*
X025471Y017006D02*
X025471Y016555D01*
X025085Y016630D02*
X025010Y016555D01*
X024860Y016555D01*
X024785Y016630D01*
X024785Y016931D01*
X024860Y017006D01*
X025010Y017006D01*
X025085Y016931D01*
X023471Y015006D02*
X023320Y015006D01*
X023245Y014931D01*
X023245Y014856D01*
X023320Y014781D01*
X023546Y014781D01*
X023546Y014931D02*
X023546Y014630D01*
X023471Y014555D01*
X023320Y014555D01*
X023245Y014630D01*
X023085Y014630D02*
X023010Y014555D01*
X022860Y014555D01*
X022785Y014630D01*
X022785Y014931D01*
X022860Y015006D01*
X023010Y015006D01*
X023085Y014931D01*
X023471Y015006D02*
X023546Y014931D01*
X027935Y014566D02*
X028385Y014566D01*
X028385Y014416D02*
X028385Y014716D01*
X028160Y014876D02*
X028160Y015176D01*
X028310Y015337D02*
X028385Y015337D01*
X028310Y015337D02*
X028010Y015637D01*
X027935Y015637D01*
X027935Y015337D01*
X027935Y015797D02*
X028160Y015797D01*
X028085Y015947D01*
X028085Y016022D01*
X028160Y016097D01*
X028310Y016097D01*
X028385Y016022D01*
X028385Y015872D01*
X028310Y015797D01*
X027935Y015797D02*
X027935Y016097D01*
X027935Y014566D02*
X028085Y014416D01*
X028160Y014256D02*
X028310Y014256D01*
X028385Y014181D01*
X028385Y014030D01*
X028310Y013955D01*
X028160Y013955D02*
X028085Y014105D01*
X028085Y014181D01*
X028160Y014256D01*
X027935Y014256D02*
X027935Y013955D01*
X028160Y013955D01*
X034485Y014055D02*
X034485Y014506D01*
X034710Y014506D01*
X034785Y014431D01*
X034785Y014281D01*
X034710Y014205D01*
X034485Y014205D01*
X034635Y014205D02*
X034785Y014055D01*
X034945Y014055D02*
X035246Y014055D01*
X035096Y014055D02*
X035096Y014506D01*
X034945Y014356D01*
X035406Y014431D02*
X035481Y014506D01*
X035631Y014506D01*
X035706Y014431D01*
X035706Y014356D01*
X035406Y014055D01*
X035706Y014055D01*
X035706Y015555D02*
X035406Y015555D01*
X035556Y015555D02*
X035556Y016006D01*
X035406Y015856D01*
X035404Y015880D02*
X035404Y016181D01*
X035329Y016256D01*
X035104Y016256D01*
X035104Y015805D01*
X035329Y015805D01*
X035404Y015880D01*
X035564Y015805D02*
X035864Y015805D01*
X035714Y015805D02*
X035714Y016256D01*
X035564Y016106D01*
X036025Y016181D02*
X036025Y015880D01*
X036325Y016181D01*
X036325Y015880D01*
X036250Y015805D01*
X036100Y015805D01*
X036025Y015880D01*
X036025Y016181D02*
X036100Y016256D01*
X036250Y016256D01*
X036325Y016181D01*
X036250Y017305D02*
X036100Y017305D01*
X036025Y017380D01*
X035864Y017380D02*
X035864Y017681D01*
X035789Y017756D01*
X035564Y017756D01*
X035564Y017305D01*
X035789Y017305D01*
X035864Y017380D01*
X036025Y017606D02*
X036100Y017531D01*
X036325Y017531D01*
X036325Y017681D02*
X036325Y017380D01*
X036250Y017305D01*
X036025Y017606D02*
X036025Y017681D01*
X036100Y017756D01*
X036250Y017756D01*
X036325Y017681D01*
X035096Y016006D02*
X035096Y015555D01*
X035246Y015555D02*
X034945Y015555D01*
X034785Y015555D02*
X034635Y015705D01*
X034710Y015705D02*
X034485Y015705D01*
X034485Y015555D02*
X034485Y016006D01*
X034710Y016006D01*
X034785Y015931D01*
X034785Y015781D01*
X034710Y015705D01*
X034945Y015856D02*
X035096Y016006D01*
X034945Y012006D02*
X035246Y012006D01*
X035246Y011931D01*
X034945Y011630D01*
X034945Y011555D01*
X034785Y011555D02*
X034635Y011705D01*
X034710Y011705D02*
X034485Y011705D01*
X034485Y011555D02*
X034485Y012006D01*
X034710Y012006D01*
X034785Y011931D01*
X034785Y011781D01*
X034710Y011705D01*
X034710Y010506D02*
X034485Y010506D01*
X034485Y010055D01*
X034485Y010205D02*
X034710Y010205D01*
X034785Y010281D01*
X034785Y010431D01*
X034710Y010506D01*
X034635Y010205D02*
X034785Y010055D01*
X034945Y010130D02*
X035020Y010055D01*
X035171Y010055D01*
X035246Y010130D01*
X035246Y010205D01*
X035171Y010281D01*
X034945Y010281D01*
X034945Y010130D01*
X034945Y010281D02*
X035096Y010431D01*
X035246Y010506D01*
X035564Y006756D02*
X035789Y006756D01*
X035864Y006681D01*
X035864Y006380D01*
X035789Y006305D01*
X035564Y006305D01*
X035564Y006756D01*
X036025Y006606D02*
X036175Y006756D01*
X036175Y006305D01*
X036025Y006305D02*
X036325Y006305D01*
X036250Y005256D02*
X036100Y005256D01*
X036025Y005181D01*
X035864Y005181D02*
X035789Y005256D01*
X035564Y005256D01*
X035564Y004805D01*
X035789Y004805D01*
X035864Y004880D01*
X035864Y005181D01*
X035631Y005006D02*
X035706Y004931D01*
X035706Y004856D01*
X035631Y004781D01*
X035706Y004705D01*
X035706Y004630D01*
X035631Y004555D01*
X035481Y004555D01*
X035406Y004630D01*
X035246Y004555D02*
X034945Y004555D01*
X035096Y004555D02*
X035096Y005006D01*
X034945Y004856D01*
X034785Y004931D02*
X034785Y004781D01*
X034710Y004705D01*
X034485Y004705D01*
X034485Y004555D02*
X034485Y005006D01*
X034710Y005006D01*
X034785Y004931D01*
X034635Y004705D02*
X034785Y004555D01*
X035406Y004931D02*
X035481Y005006D01*
X035631Y005006D01*
X035631Y004781D02*
X035556Y004781D01*
X036025Y004805D02*
X036325Y005106D01*
X036325Y005181D01*
X036250Y005256D01*
X036325Y004805D02*
X036025Y004805D01*
X035631Y003506D02*
X035406Y003281D01*
X035706Y003281D01*
X035631Y003506D02*
X035631Y003055D01*
X035246Y003055D02*
X034945Y003055D01*
X035096Y003055D02*
X035096Y003506D01*
X034945Y003356D01*
X034785Y003431D02*
X034785Y003281D01*
X034710Y003205D01*
X034485Y003205D01*
X034485Y003055D02*
X034485Y003506D01*
X034710Y003506D01*
X034785Y003431D01*
X034635Y003205D02*
X034785Y003055D01*
X028095Y001920D02*
X028095Y001620D01*
X028095Y001770D02*
X027645Y001770D01*
X027795Y001620D01*
X027720Y001460D02*
X027645Y001385D01*
X027645Y001160D01*
X028095Y001160D01*
X028095Y001385D01*
X028020Y001460D01*
X027720Y001460D01*
X027645Y000999D02*
X027645Y000699D01*
X028095Y000699D01*
X028095Y000999D01*
X027870Y000849D02*
X027870Y000699D01*
X028095Y000539D02*
X028095Y000239D01*
X027645Y000239D01*
X022496Y004055D02*
X022195Y004055D01*
X022346Y004055D02*
X022346Y004506D01*
X022195Y004356D01*
X022035Y004431D02*
X022035Y004281D01*
X021960Y004205D01*
X021735Y004205D01*
X021735Y004055D02*
X021735Y004506D01*
X021960Y004506D01*
X022035Y004431D01*
X021885Y004205D02*
X022035Y004055D01*
X017507Y003251D02*
X017207Y003251D01*
X017357Y003251D02*
X017357Y002800D01*
X017047Y002875D02*
X017047Y003251D01*
X016747Y003251D02*
X016747Y002875D01*
X016822Y002800D01*
X016972Y002800D01*
X017047Y002875D01*
X016586Y002875D02*
X016586Y003176D01*
X016511Y003251D01*
X016361Y003251D01*
X016286Y003176D01*
X016286Y002875D01*
X016361Y002800D01*
X016511Y002800D01*
X016586Y002875D01*
X016126Y002875D02*
X016126Y003176D01*
X016051Y003251D01*
X015826Y003251D01*
X015826Y002800D01*
X016051Y002800D01*
X016126Y002875D01*
X015666Y002800D02*
X015666Y003251D01*
X015365Y003251D02*
X015666Y002800D01*
X015365Y002800D02*
X015365Y003251D01*
X015205Y003176D02*
X015130Y003251D01*
X014980Y003251D01*
X014905Y003176D01*
X014905Y002875D01*
X014980Y002800D01*
X015130Y002800D01*
X015205Y002875D01*
X015205Y003026D01*
X015055Y003026D01*
X013593Y003251D02*
X013292Y003251D01*
X013442Y003251D02*
X013442Y002800D01*
X013132Y002875D02*
X013132Y003251D01*
X012832Y003251D02*
X012832Y002875D01*
X012907Y002800D01*
X013057Y002800D01*
X013132Y002875D01*
X012672Y002875D02*
X012672Y003176D01*
X012597Y003251D01*
X012447Y003251D01*
X012372Y003176D01*
X012372Y002875D01*
X012447Y002800D01*
X012597Y002800D01*
X012672Y002875D01*
X012211Y002875D02*
X012136Y002800D01*
X011986Y002800D01*
X011911Y002875D01*
X011751Y002950D02*
X011751Y003251D01*
X011911Y003176D02*
X011986Y003251D01*
X012136Y003251D01*
X012211Y003176D01*
X012211Y003101D01*
X012136Y003026D01*
X012211Y002950D01*
X012211Y002875D01*
X012136Y003026D02*
X012061Y003026D01*
X011751Y002950D02*
X011601Y002800D01*
X011451Y002950D01*
X011451Y003251D01*
X011291Y003176D02*
X011291Y003101D01*
X011216Y003026D01*
X011291Y002950D01*
X011291Y002875D01*
X011216Y002800D01*
X011065Y002800D01*
X010990Y002875D01*
X011141Y003026D02*
X011216Y003026D01*
X011291Y003176D02*
X011216Y003251D01*
X011065Y003251D01*
X010990Y003176D01*
X010830Y003026D02*
X010530Y003026D01*
X010680Y003176D02*
X010680Y002875D01*
X008297Y003376D02*
X007997Y003376D01*
X008147Y003376D02*
X008147Y002925D01*
X007836Y003000D02*
X007836Y003376D01*
X007536Y003376D02*
X007536Y003000D01*
X007611Y002925D01*
X007761Y002925D01*
X007836Y003000D01*
X007376Y003000D02*
X007376Y003301D01*
X007301Y003376D01*
X007151Y003376D01*
X007076Y003301D01*
X007076Y003000D01*
X007151Y002925D01*
X007301Y002925D01*
X007376Y003000D01*
X006916Y003000D02*
X006841Y002925D01*
X006690Y002925D01*
X006615Y003000D01*
X006615Y003151D02*
X006766Y003226D01*
X006841Y003226D01*
X006916Y003151D01*
X006916Y003000D01*
X006615Y003151D02*
X006615Y003376D01*
X006916Y003376D01*
X006455Y003151D02*
X006155Y003151D01*
X006305Y003301D02*
X006305Y003000D01*
X009405Y005675D02*
X009555Y005675D01*
X009480Y005675D02*
X009480Y006126D01*
X009405Y006126D02*
X009555Y006126D01*
X009712Y006051D02*
X009712Y005750D01*
X009787Y005675D01*
X009937Y005675D01*
X010012Y005750D01*
X010012Y006051D01*
X009937Y006126D01*
X009787Y006126D01*
X009712Y006051D01*
X010172Y006126D02*
X010172Y005675D01*
X010172Y005901D02*
X010473Y005901D01*
X010473Y006126D02*
X010473Y005675D01*
X010633Y005675D02*
X010633Y006126D01*
X010858Y006126D01*
X010933Y006051D01*
X010933Y005750D01*
X010858Y005675D01*
X010633Y005675D01*
X011093Y005675D02*
X011093Y006126D01*
X011318Y006126D01*
X011393Y006051D01*
X011393Y005901D01*
X011318Y005825D01*
X011093Y005825D01*
X011243Y005825D02*
X011393Y005675D01*
X012685Y011705D02*
X012985Y012006D01*
X012985Y012081D01*
X012910Y012156D01*
X012760Y012156D01*
X012685Y012081D01*
X012685Y011705D02*
X012985Y011705D01*
X013145Y011780D02*
X013220Y011705D01*
X013371Y011705D01*
X013446Y011780D01*
X013446Y011855D01*
X013371Y011931D01*
X013145Y011931D01*
X013145Y011780D01*
X013145Y011931D02*
X013296Y012081D01*
X013446Y012156D01*
X013606Y011931D02*
X013906Y011931D01*
X014066Y011931D02*
X014216Y012006D01*
X014291Y012006D01*
X014366Y011931D01*
X014366Y011780D01*
X014291Y011705D01*
X014141Y011705D01*
X014066Y011780D01*
X014066Y011931D02*
X014066Y012156D01*
X014366Y012156D01*
X014527Y012081D02*
X014602Y012156D01*
X014752Y012156D01*
X014827Y012081D01*
X014527Y011780D01*
X014602Y011705D01*
X014752Y011705D01*
X014827Y011780D01*
X014827Y012081D01*
X014527Y012081D02*
X014527Y011780D01*
X014471Y014555D02*
X014546Y014630D01*
X014546Y014705D01*
X014471Y014781D01*
X014245Y014781D01*
X014245Y014630D01*
X014320Y014555D01*
X014471Y014555D01*
X014245Y014781D02*
X014396Y014931D01*
X014546Y015006D01*
X014085Y014931D02*
X014010Y015006D01*
X013860Y015006D01*
X013785Y014931D01*
X013785Y014630D01*
X013860Y014555D01*
X014010Y014555D01*
X014085Y014630D01*
X012245Y017055D02*
X012245Y017130D01*
X012546Y017431D01*
X012546Y017506D01*
X012245Y017506D01*
X012085Y017431D02*
X012010Y017506D01*
X011860Y017506D01*
X011785Y017431D01*
X011785Y017130D01*
X011860Y017055D01*
X012010Y017055D01*
X012085Y017130D01*
X012400Y019375D02*
X012550Y019375D01*
X012625Y019450D01*
X012785Y019375D02*
X013086Y019375D01*
X012936Y019375D02*
X012936Y019826D01*
X012785Y019676D01*
X012625Y019751D02*
X012550Y019826D01*
X012400Y019826D01*
X012325Y019751D01*
X012325Y019450D01*
X012400Y019375D01*
X013246Y019375D02*
X013546Y019375D01*
X013396Y019375D02*
X013396Y019826D01*
X013246Y019676D01*
X013126Y022055D02*
X013426Y022356D01*
X013426Y022431D01*
X013351Y022506D01*
X013201Y022506D01*
X013126Y022431D01*
X012816Y022506D02*
X012816Y022055D01*
X012966Y022055D02*
X012665Y022055D01*
X012505Y022130D02*
X012430Y022055D01*
X012280Y022055D01*
X012205Y022130D01*
X012205Y022431D01*
X012280Y022506D01*
X012430Y022506D01*
X012505Y022431D01*
X012665Y022356D02*
X012816Y022506D01*
X013126Y022055D02*
X013426Y022055D01*
X010885Y025114D02*
X010885Y025414D01*
X010885Y025264D02*
X010435Y025264D01*
X010585Y025114D01*
X010660Y025574D02*
X010660Y025874D01*
X010510Y026035D02*
X010435Y026110D01*
X010435Y026260D01*
X010510Y026335D01*
X010585Y026335D01*
X010885Y026035D01*
X010885Y026335D01*
X010810Y026495D02*
X010885Y026570D01*
X010885Y026720D01*
X010810Y026795D01*
X010660Y026795D01*
X010585Y026720D01*
X010585Y026645D01*
X010660Y026495D01*
X010435Y026495D01*
X010435Y026795D01*
X012785Y027630D02*
X012860Y027555D01*
X013010Y027555D01*
X013085Y027630D01*
X013245Y027555D02*
X013546Y027555D01*
X013396Y027555D02*
X013396Y028006D01*
X013245Y027856D01*
X013085Y027931D02*
X013010Y028006D01*
X012860Y028006D01*
X012785Y027931D01*
X012785Y027630D01*
X005915Y032075D02*
X005765Y032226D01*
X005465Y032226D01*
X005465Y032386D02*
X005465Y032611D01*
X005540Y032686D01*
X005615Y032686D01*
X005690Y032611D01*
X005690Y032386D01*
X005690Y032611D02*
X005765Y032686D01*
X005840Y032686D01*
X005915Y032611D01*
X005915Y032386D01*
X005465Y032386D01*
X005615Y032846D02*
X005465Y032996D01*
X005615Y033146D01*
X005915Y033146D01*
X005690Y033146D02*
X005690Y032846D01*
X005615Y032846D02*
X005915Y032846D01*
X005915Y033457D02*
X005465Y033457D01*
X005465Y033307D02*
X005465Y033607D01*
X005465Y033767D02*
X005465Y033992D01*
X005540Y034067D01*
X005690Y034067D01*
X005765Y033992D01*
X005765Y033767D01*
X005915Y033767D02*
X005465Y033767D01*
X005465Y034227D02*
X005915Y034227D01*
X005765Y034377D01*
X005915Y034528D01*
X005465Y034528D01*
X005465Y034688D02*
X005465Y034913D01*
X005540Y034988D01*
X005690Y034988D01*
X005765Y034913D01*
X005765Y034688D01*
X005765Y034838D02*
X005915Y034988D01*
X005840Y035148D02*
X005915Y035223D01*
X005915Y035298D01*
X005840Y035373D01*
X005465Y035373D01*
X005465Y035298D02*
X005465Y035448D01*
X005465Y035608D02*
X005465Y035834D01*
X005540Y035909D01*
X005690Y035909D01*
X005765Y035834D01*
X005765Y035608D01*
X005660Y035555D02*
X005585Y035630D01*
X005585Y035781D01*
X005660Y035856D01*
X005735Y036016D02*
X005585Y036166D01*
X006035Y036166D01*
X006035Y036016D02*
X006035Y036316D01*
X005960Y036476D02*
X005660Y036476D01*
X005585Y036551D01*
X005585Y036701D01*
X005660Y036776D01*
X005960Y036476D01*
X006035Y036551D01*
X006035Y036701D01*
X005960Y036776D01*
X005660Y036776D01*
X005960Y035856D02*
X006035Y035781D01*
X006035Y035630D01*
X005960Y035555D01*
X005660Y035555D01*
X005465Y035608D02*
X005915Y035608D01*
X005915Y034688D02*
X005465Y034688D01*
X003900Y035205D02*
X003600Y035205D01*
X003750Y035205D02*
X003750Y035656D01*
X003600Y035506D01*
X003439Y035581D02*
X003364Y035656D01*
X003214Y035656D01*
X003139Y035581D01*
X003139Y035506D01*
X003214Y035431D01*
X003364Y035431D01*
X003439Y035355D01*
X003439Y035280D01*
X003364Y035205D01*
X003214Y035205D01*
X003139Y035280D01*
X005915Y032075D02*
X005765Y031925D01*
X005465Y031925D01*
X012985Y035680D02*
X012985Y036131D01*
X013210Y036131D01*
X013285Y036056D01*
X013285Y035906D01*
X013210Y035830D01*
X012985Y035830D01*
X013135Y035830D02*
X013285Y035680D01*
X013445Y035755D02*
X013445Y035830D01*
X013520Y035906D01*
X013671Y035906D01*
X013746Y035830D01*
X013746Y035755D01*
X013671Y035680D01*
X013520Y035680D01*
X013445Y035755D01*
X013520Y035906D02*
X013445Y035981D01*
X013445Y036056D01*
X013520Y036131D01*
X013671Y036131D01*
X013746Y036056D01*
X013746Y035981D01*
X013671Y035906D01*
X018616Y035705D02*
X018766Y035705D01*
X018691Y035705D02*
X018691Y036156D01*
X018616Y036156D02*
X018766Y036156D01*
X018923Y036081D02*
X018923Y036006D01*
X018998Y035931D01*
X019148Y035931D01*
X019223Y035855D01*
X019223Y035780D01*
X019148Y035705D01*
X018998Y035705D01*
X018923Y035780D01*
X018923Y036081D02*
X018998Y036156D01*
X019148Y036156D01*
X019223Y036081D01*
X019383Y036156D02*
X019383Y035705D01*
X019383Y035855D02*
X019608Y035855D01*
X019683Y035931D01*
X019683Y036081D01*
X019608Y036156D01*
X019383Y036156D01*
X019843Y035780D02*
X019918Y035705D01*
X019994Y035705D01*
X020069Y035780D01*
X020069Y036156D01*
X019994Y036156D02*
X020144Y036156D01*
X020304Y036156D02*
X020604Y036156D01*
X020454Y036156D02*
X020454Y035705D01*
X020764Y035705D02*
X020764Y036006D01*
X020914Y036156D01*
X021064Y036006D01*
X021064Y035705D01*
X021225Y035780D02*
X021300Y035705D01*
X021450Y035705D01*
X021525Y035780D01*
X021525Y035931D01*
X021375Y035931D01*
X021525Y036081D02*
X021450Y036156D01*
X021300Y036156D01*
X021225Y036081D01*
X021225Y035780D01*
X021064Y035931D02*
X020764Y035931D01*
X030032Y034561D02*
X030032Y034110D01*
X030257Y034110D01*
X030332Y034185D01*
X030332Y034486D01*
X030257Y034561D01*
X030032Y034561D01*
X030492Y034411D02*
X030492Y034110D01*
X030492Y034336D02*
X030793Y034336D01*
X030793Y034411D02*
X030793Y034110D01*
X030793Y034411D02*
X030642Y034561D01*
X030492Y034411D01*
X030953Y034561D02*
X031253Y034561D01*
X031103Y034561D02*
X031103Y034110D01*
X031413Y034110D02*
X031413Y034411D01*
X031563Y034561D01*
X031713Y034411D01*
X031713Y034110D01*
X031873Y034035D02*
X032174Y034035D01*
X032334Y034110D02*
X032334Y034561D01*
X032559Y034561D01*
X032634Y034486D01*
X032634Y034411D01*
X032559Y034336D01*
X032334Y034336D01*
X032559Y034336D02*
X032634Y034260D01*
X032634Y034185D01*
X032559Y034110D01*
X032334Y034110D01*
X032794Y034185D02*
X032794Y034561D01*
X033094Y034561D02*
X033094Y034185D01*
X033019Y034110D01*
X032869Y034110D01*
X032794Y034185D01*
X033255Y034185D02*
X033330Y034110D01*
X033480Y034110D01*
X033555Y034185D01*
X033555Y034260D01*
X033480Y034336D01*
X033330Y034336D01*
X033255Y034411D01*
X033255Y034486D01*
X033330Y034561D01*
X033480Y034561D01*
X033555Y034486D01*
X032796Y033506D02*
X032871Y033431D01*
X032871Y033356D01*
X032796Y033281D01*
X032871Y033205D01*
X032871Y033130D01*
X032796Y033055D01*
X032645Y033055D01*
X032570Y033130D01*
X032410Y033055D02*
X032260Y033205D01*
X032335Y033205D02*
X032110Y033205D01*
X032110Y033055D02*
X032110Y033506D01*
X032335Y033506D01*
X032410Y033431D01*
X032410Y033281D01*
X032335Y033205D01*
X032570Y033431D02*
X032645Y033506D01*
X032796Y033506D01*
X032796Y033281D02*
X032721Y033281D01*
X032671Y032006D02*
X032520Y032006D01*
X032445Y031931D01*
X032285Y031931D02*
X032285Y031781D01*
X032210Y031705D01*
X031985Y031705D01*
X031985Y031555D02*
X031985Y032006D01*
X032210Y032006D01*
X032285Y031931D01*
X032135Y031705D02*
X032285Y031555D01*
X032445Y031555D02*
X032746Y031856D01*
X032746Y031931D01*
X032671Y032006D01*
X032746Y031555D02*
X032445Y031555D01*
X031713Y034336D02*
X031413Y034336D01*
X031413Y036735D02*
X031413Y037186D01*
X031638Y037186D01*
X031713Y037111D01*
X031713Y036961D01*
X031638Y036885D01*
X031413Y036885D01*
X031253Y036810D02*
X031253Y036961D01*
X031103Y036961D01*
X031253Y037111D02*
X031178Y037186D01*
X031028Y037186D01*
X030953Y037111D01*
X030953Y036810D01*
X031028Y036735D01*
X031178Y036735D01*
X031253Y036810D01*
X031873Y036810D02*
X031948Y036735D01*
X032099Y036735D01*
X032174Y036810D01*
X032174Y037186D01*
X032334Y037186D02*
X032334Y036735D01*
X032334Y036961D02*
X032634Y036961D01*
X032634Y037186D02*
X032634Y036735D01*
X032794Y036735D02*
X033019Y036735D01*
X033094Y036810D01*
X033094Y037111D01*
X033019Y037186D01*
X032794Y037186D01*
X032794Y036735D01*
X033255Y036735D02*
X033255Y037186D01*
X033480Y037186D01*
X033555Y037111D01*
X033555Y036961D01*
X033480Y036885D01*
X033255Y036885D01*
X033405Y036885D02*
X033555Y036735D01*
X031873Y036810D02*
X031873Y037186D01*
X037905Y037104D02*
X038355Y037104D01*
X038355Y036944D02*
X038055Y036944D01*
X037905Y036794D01*
X038055Y036644D01*
X038355Y036644D01*
X038280Y036484D02*
X038130Y036484D01*
X038130Y036334D01*
X038280Y036484D02*
X038355Y036409D01*
X038355Y036258D01*
X038280Y036183D01*
X037980Y036183D01*
X037905Y036258D01*
X037905Y036409D01*
X037980Y036484D01*
X038130Y036644D02*
X038130Y036944D01*
X038130Y037104D02*
X038130Y037404D01*
X037905Y037404D02*
X038355Y037404D01*
X038355Y037565D02*
X038355Y037790D01*
X038280Y037865D01*
X037980Y037865D01*
X037905Y037790D01*
X037905Y037565D01*
X038355Y037565D01*
X038355Y038025D02*
X037905Y038025D01*
X037905Y038250D01*
X037980Y038325D01*
X038130Y038325D01*
X038205Y038250D01*
X038205Y038025D01*
X038205Y038175D02*
X038355Y038325D01*
X038205Y036023D02*
X037905Y036023D01*
X038205Y036023D02*
X038355Y035873D01*
X038205Y035723D01*
X037905Y035723D01*
X035325Y028756D02*
X035325Y028681D01*
X035025Y028380D01*
X035025Y028305D01*
X034864Y028380D02*
X034864Y028681D01*
X034789Y028756D01*
X034564Y028756D01*
X034564Y028305D01*
X034789Y028305D01*
X034864Y028380D01*
X035025Y028756D02*
X035325Y028756D01*
X035171Y027006D02*
X035020Y027006D01*
X034945Y026931D01*
X034945Y026856D01*
X035020Y026781D01*
X035246Y026781D01*
X035250Y026756D02*
X035325Y026681D01*
X035325Y026606D01*
X035250Y026531D01*
X035100Y026531D01*
X035025Y026606D01*
X035025Y026681D01*
X035100Y026756D01*
X035250Y026756D01*
X035246Y026630D02*
X035246Y026931D01*
X035171Y027006D01*
X035246Y026630D02*
X035171Y026555D01*
X035020Y026555D01*
X034945Y026630D01*
X034864Y026681D02*
X034789Y026756D01*
X034564Y026756D01*
X034564Y026305D01*
X034789Y026305D01*
X034864Y026380D01*
X034864Y026681D01*
X034785Y026781D02*
X034710Y026705D01*
X034485Y026705D01*
X034485Y026555D02*
X034485Y027006D01*
X034710Y027006D01*
X034785Y026931D01*
X034785Y026781D01*
X034635Y026705D02*
X034785Y026555D01*
X035025Y026455D02*
X035100Y026531D01*
X035025Y026455D02*
X035025Y026380D01*
X035100Y026305D01*
X035250Y026305D01*
X035325Y026380D01*
X035325Y026455D01*
X035250Y026531D01*
X035096Y025506D02*
X034945Y025356D01*
X034785Y025431D02*
X034785Y025281D01*
X034710Y025205D01*
X034485Y025205D01*
X034485Y025055D02*
X034485Y025506D01*
X034710Y025506D01*
X034785Y025431D01*
X034635Y025205D02*
X034785Y025055D01*
X034945Y025055D02*
X035246Y025055D01*
X035096Y025055D02*
X035096Y025506D01*
X035406Y025431D02*
X035406Y025130D01*
X035706Y025431D01*
X035706Y025130D01*
X035631Y025055D01*
X035481Y025055D01*
X035406Y025130D01*
X035406Y025431D02*
X035481Y025506D01*
X035631Y025506D01*
X035706Y025431D01*
X035246Y023006D02*
X034945Y023006D01*
X034945Y022781D01*
X035096Y022856D01*
X035171Y022856D01*
X035246Y022781D01*
X035246Y022630D01*
X035171Y022555D01*
X035020Y022555D01*
X034945Y022630D01*
X034785Y022555D02*
X034635Y022705D01*
X034710Y022705D02*
X034485Y022705D01*
X034485Y022555D02*
X034485Y023006D01*
X034710Y023006D01*
X034785Y022931D01*
X034785Y022781D01*
X034710Y022705D01*
X034710Y021506D02*
X034485Y021506D01*
X034485Y021055D01*
X034485Y021205D02*
X034710Y021205D01*
X034785Y021281D01*
X034785Y021431D01*
X034710Y021506D01*
X034635Y021205D02*
X034785Y021055D01*
X034945Y021281D02*
X035246Y021281D01*
X035171Y021506D02*
X034945Y021281D01*
X035171Y021506D02*
X035171Y021055D01*
X007235Y014620D02*
X007235Y014470D01*
X007160Y014395D01*
X007010Y014395D02*
X006935Y014545D01*
X006935Y014620D01*
X007010Y014695D01*
X007160Y014695D01*
X007235Y014620D01*
X007010Y014395D02*
X006785Y014395D01*
X006785Y014695D01*
X006860Y014235D02*
X006785Y014160D01*
X006785Y014010D01*
X006860Y013935D01*
X007160Y013935D01*
X007235Y014010D01*
X007235Y014160D01*
X007160Y014235D01*
X004385Y014191D02*
X004085Y014191D01*
X003935Y014041D01*
X004085Y013891D01*
X004385Y013891D01*
X004160Y013891D02*
X004160Y014191D01*
X003935Y014351D02*
X004385Y014351D01*
X004385Y014577D01*
X004310Y014652D01*
X004010Y014652D01*
X003935Y014577D01*
X003935Y014351D01*
X003935Y014812D02*
X003935Y015037D01*
X004010Y015112D01*
X004310Y015112D01*
X004385Y015037D01*
X004385Y014812D01*
X003935Y014812D01*
X003935Y015272D02*
X003935Y015497D01*
X004010Y015572D01*
X004160Y015572D01*
X004235Y015497D01*
X004235Y015272D01*
X004385Y015272D02*
X003935Y015272D01*
X004235Y015422D02*
X004385Y015572D01*
X004385Y015733D02*
X003935Y015733D01*
X003935Y016033D01*
X004010Y016193D02*
X004085Y016193D01*
X004160Y016268D01*
X004160Y016418D01*
X004235Y016493D01*
X004310Y016493D01*
X004385Y016418D01*
X004385Y016268D01*
X004310Y016193D01*
X004385Y016033D02*
X004385Y015733D01*
X004160Y015733D02*
X004160Y015883D01*
X004010Y016193D02*
X003935Y016268D01*
X003935Y016418D01*
X004010Y016493D01*
X004010Y016653D02*
X004085Y016653D01*
X004160Y016728D01*
X004160Y016879D01*
X004235Y016954D01*
X004310Y016954D01*
X004385Y016879D01*
X004385Y016728D01*
X004310Y016653D01*
X004010Y016653D02*
X003935Y016728D01*
X003935Y016879D01*
X004010Y016954D01*
X004385Y017030D02*
X004460Y016955D01*
X004760Y016955D01*
X004835Y017030D01*
X004835Y017181D01*
X004760Y017256D01*
X004610Y017256D01*
X004610Y017105D01*
X004460Y017114D02*
X004460Y017414D01*
X004385Y017416D02*
X004385Y017641D01*
X004460Y017716D01*
X004610Y017716D01*
X004685Y017641D01*
X004685Y017416D01*
X004835Y017416D02*
X004385Y017416D01*
X004385Y017574D02*
X004385Y017799D01*
X004310Y017874D01*
X004235Y017874D01*
X004160Y017799D01*
X004160Y017574D01*
X004385Y017574D02*
X003935Y017574D01*
X003935Y017799D01*
X004010Y017874D01*
X004085Y017874D01*
X004160Y017799D01*
X004385Y017876D02*
X004760Y017876D01*
X004835Y017951D01*
X004835Y018101D01*
X004760Y018176D01*
X004385Y018176D01*
X004385Y018110D02*
X004385Y018260D01*
X004310Y018335D01*
X003935Y018335D01*
X004010Y018495D02*
X004085Y018495D01*
X004160Y018570D01*
X004160Y018720D01*
X004235Y018795D01*
X004310Y018795D01*
X004385Y018720D01*
X004385Y018570D01*
X004310Y018495D01*
X004385Y018562D02*
X004460Y018637D01*
X004760Y018637D01*
X004835Y018562D01*
X004835Y018412D01*
X004760Y018337D01*
X004460Y018337D01*
X004385Y018412D01*
X004385Y018562D01*
X004460Y018797D02*
X004535Y018797D01*
X004610Y018872D01*
X004610Y019022D01*
X004685Y019097D01*
X004760Y019097D01*
X004835Y019022D01*
X004835Y018872D01*
X004760Y018797D01*
X004460Y018797D02*
X004385Y018872D01*
X004385Y019022D01*
X004460Y019097D01*
X004460Y019257D02*
X004760Y019257D01*
X004835Y019332D01*
X004835Y019483D01*
X004760Y019558D01*
X004460Y019558D02*
X004385Y019483D01*
X004385Y019332D01*
X004460Y019257D01*
X004010Y018795D02*
X003935Y018720D01*
X003935Y018570D01*
X004010Y018495D01*
X003935Y018035D02*
X004310Y018035D01*
X004385Y018110D01*
X004460Y017256D02*
X004385Y017181D01*
X004385Y017030D01*
X001310Y020455D02*
X001010Y020455D01*
X000935Y020530D01*
X000935Y020681D01*
X001010Y020756D01*
X000935Y020916D02*
X000935Y021216D01*
X000935Y021066D02*
X001385Y021066D01*
X001385Y021376D02*
X000935Y021376D01*
X000935Y021601D01*
X001010Y021676D01*
X001160Y021676D01*
X001235Y021601D01*
X001235Y021376D01*
X001235Y021526D02*
X001385Y021676D01*
X001385Y021837D02*
X001385Y022137D01*
X001460Y022297D02*
X001460Y022597D01*
X001385Y022757D02*
X001385Y022983D01*
X001310Y023058D01*
X001235Y023058D01*
X001160Y022983D01*
X001160Y022757D01*
X001385Y022757D02*
X000935Y022757D01*
X000935Y022983D01*
X001010Y023058D01*
X001085Y023058D01*
X001160Y022983D01*
X001310Y023218D02*
X000935Y023218D01*
X000935Y023518D02*
X001310Y023518D01*
X001385Y023443D01*
X001385Y023293D01*
X001310Y023218D01*
X001310Y023678D02*
X001385Y023753D01*
X001385Y023903D01*
X001310Y023978D01*
X001235Y023978D01*
X001160Y023903D01*
X001160Y023753D01*
X001085Y023678D01*
X001010Y023678D01*
X000935Y023753D01*
X000935Y023903D01*
X001010Y023978D01*
X000935Y021837D02*
X001385Y021837D01*
X001310Y020756D02*
X001385Y020681D01*
X001385Y020530D01*
X001310Y020455D01*
X005085Y022630D02*
X005160Y022555D01*
X005460Y022555D01*
X005535Y022630D01*
X005535Y022781D01*
X005460Y022856D01*
X005535Y023016D02*
X005235Y023316D01*
X005160Y023316D01*
X005085Y023241D01*
X005085Y023091D01*
X005160Y023016D01*
X005160Y022856D02*
X005085Y022781D01*
X005085Y022630D01*
X005535Y023016D02*
X005535Y023316D01*
X001415Y003914D02*
X000965Y003914D01*
X000965Y003613D02*
X001415Y003914D01*
X001415Y003613D02*
X000965Y003613D01*
X000965Y003457D02*
X000965Y003307D01*
X000965Y003382D02*
X001415Y003382D01*
X001415Y003307D02*
X001415Y003457D01*
X001415Y003146D02*
X001265Y002996D01*
X001265Y003071D02*
X001265Y002846D01*
X001415Y002846D02*
X000965Y002846D01*
X000965Y003071D01*
X001040Y003146D01*
X001190Y003146D01*
X001265Y003071D01*
X001415Y002686D02*
X000965Y002686D01*
X000965Y002386D02*
X001415Y002386D01*
X001265Y002536D01*
X001415Y002686D01*
X001190Y002226D02*
X001040Y002226D01*
X000965Y002151D01*
X000965Y001925D01*
X001415Y001925D01*
X001265Y001925D02*
X001265Y002151D01*
X001190Y002226D01*
D14*
X005860Y013830D02*
X006160Y013830D01*
X006460Y013830D01*
X006460Y014030D02*
X006160Y014030D01*
X005860Y014030D01*
X012560Y016130D02*
X012560Y016430D01*
X012560Y016730D01*
X012760Y016730D02*
X012760Y016430D01*
X012760Y016130D01*
X014560Y014230D02*
X014560Y013930D01*
X014560Y013630D01*
X014760Y013630D02*
X014760Y013930D01*
X014760Y014230D01*
X017003Y017674D02*
X016904Y017773D01*
X016904Y022891D01*
X017199Y023186D01*
X022317Y023186D01*
X022416Y023088D01*
X022416Y017773D01*
X022317Y017674D01*
X017003Y017674D01*
X013300Y018450D02*
X013300Y018750D01*
X013300Y019050D01*
X013100Y019050D02*
X013100Y018750D01*
X013100Y018450D01*
X013180Y021130D02*
X013180Y021430D01*
X013180Y021730D01*
X012980Y021730D02*
X012980Y021430D01*
X012980Y021130D01*
X017200Y022793D02*
X017202Y022812D01*
X017207Y022831D01*
X017217Y022847D01*
X017229Y022862D01*
X017244Y022874D01*
X017260Y022884D01*
X017279Y022889D01*
X017298Y022891D01*
X017317Y022889D01*
X017336Y022884D01*
X017352Y022874D01*
X017367Y022862D01*
X017379Y022847D01*
X017389Y022831D01*
X017394Y022812D01*
X017396Y022793D01*
X017394Y022774D01*
X017389Y022755D01*
X017379Y022739D01*
X017367Y022724D01*
X017352Y022712D01*
X017336Y022702D01*
X017317Y022697D01*
X017298Y022695D01*
X017279Y022697D01*
X017260Y022702D01*
X017244Y022712D01*
X017229Y022724D01*
X017217Y022739D01*
X017207Y022755D01*
X017202Y022774D01*
X017200Y022793D01*
X013760Y026630D02*
X013760Y026930D01*
X013760Y027230D01*
X013560Y027230D02*
X013560Y026930D01*
X013560Y026630D01*
X006460Y023530D02*
X006160Y023530D01*
X005860Y023530D01*
X005860Y023330D02*
X006160Y023330D01*
X006460Y023330D01*
X006360Y036330D02*
X006660Y036330D01*
X006960Y036330D01*
X006960Y036530D02*
X006660Y036530D01*
X006360Y036530D01*
X025560Y027480D02*
X025560Y027180D01*
X025560Y026880D01*
X025760Y026880D02*
X025760Y027180D01*
X025760Y027480D01*
X025760Y025230D02*
X025760Y024930D01*
X025760Y024630D01*
X025560Y024630D02*
X025560Y024930D01*
X025560Y025230D01*
X025560Y016230D02*
X025560Y015930D01*
X025560Y015630D01*
X025760Y015630D02*
X025760Y015930D01*
X025760Y016230D01*
X023760Y014230D02*
X023760Y013930D01*
X023760Y013630D01*
X023560Y013630D02*
X023560Y013930D01*
X023560Y014230D01*
D15*
X026660Y002305D02*
X028160Y002305D01*
X006810Y017580D02*
X006810Y020280D01*
X006808Y020339D01*
X006802Y020397D01*
X006793Y020456D01*
X006779Y020513D01*
X006762Y020569D01*
X006741Y020624D01*
X006717Y020678D01*
X006689Y020730D01*
X006658Y020780D01*
X006624Y020828D01*
X006587Y020873D01*
X006546Y020916D01*
X006503Y020957D01*
X006458Y020994D01*
X006410Y021028D01*
X006360Y021059D01*
X006308Y021087D01*
X006254Y021111D01*
X006199Y021132D01*
X006143Y021149D01*
X006086Y021163D01*
X006027Y021172D01*
X005969Y021178D01*
X005910Y021180D01*
X005851Y021178D01*
X005793Y021172D01*
X005734Y021163D01*
X005677Y021149D01*
X005621Y021132D01*
X005566Y021111D01*
X005512Y021087D01*
X005460Y021059D01*
X005410Y021028D01*
X005362Y020994D01*
X005317Y020957D01*
X005274Y020916D01*
X005233Y020873D01*
X005196Y020828D01*
X005162Y020780D01*
X005131Y020730D01*
X005103Y020678D01*
X005079Y020624D01*
X005058Y020569D01*
X005041Y020513D01*
X005027Y020456D01*
X005018Y020397D01*
X005012Y020339D01*
X005010Y020280D01*
X005010Y017580D01*
X005012Y017521D01*
X005018Y017463D01*
X005027Y017404D01*
X005041Y017347D01*
X005058Y017291D01*
X005079Y017236D01*
X005103Y017182D01*
X005131Y017130D01*
X005162Y017080D01*
X005196Y017032D01*
X005233Y016987D01*
X005274Y016944D01*
X005317Y016903D01*
X005362Y016866D01*
X005410Y016832D01*
X005460Y016801D01*
X005512Y016773D01*
X005566Y016749D01*
X005621Y016728D01*
X005677Y016711D01*
X005734Y016697D01*
X005793Y016688D01*
X005851Y016682D01*
X005910Y016680D01*
X005969Y016682D01*
X006027Y016688D01*
X006086Y016697D01*
X006143Y016711D01*
X006199Y016728D01*
X006254Y016749D01*
X006308Y016773D01*
X006360Y016801D01*
X006410Y016832D01*
X006458Y016866D01*
X006503Y016903D01*
X006546Y016944D01*
X006587Y016987D01*
X006624Y017032D01*
X006658Y017080D01*
X006689Y017130D01*
X006717Y017182D01*
X006741Y017236D01*
X006762Y017291D01*
X006779Y017347D01*
X006793Y017404D01*
X006802Y017463D01*
X006808Y017521D01*
X006810Y017580D01*
X003885Y035980D02*
X002185Y035980D01*
X001835Y036787D02*
X001835Y037580D01*
X002185Y038380D02*
X003885Y038380D01*
X004235Y037580D02*
X004235Y036776D01*
X002335Y037180D02*
X002337Y037232D01*
X002343Y037284D01*
X002353Y037336D01*
X002366Y037386D01*
X002383Y037436D01*
X002404Y037484D01*
X002429Y037530D01*
X002457Y037574D01*
X002488Y037616D01*
X002522Y037656D01*
X002559Y037693D01*
X002599Y037727D01*
X002641Y037758D01*
X002685Y037786D01*
X002731Y037811D01*
X002779Y037832D01*
X002829Y037849D01*
X002879Y037862D01*
X002931Y037872D01*
X002983Y037878D01*
X003035Y037880D01*
X003087Y037878D01*
X003139Y037872D01*
X003191Y037862D01*
X003241Y037849D01*
X003291Y037832D01*
X003339Y037811D01*
X003385Y037786D01*
X003429Y037758D01*
X003471Y037727D01*
X003511Y037693D01*
X003548Y037656D01*
X003582Y037616D01*
X003613Y037574D01*
X003641Y037530D01*
X003666Y037484D01*
X003687Y037436D01*
X003704Y037386D01*
X003717Y037336D01*
X003727Y037284D01*
X003733Y037232D01*
X003735Y037180D01*
X003733Y037128D01*
X003727Y037076D01*
X003717Y037024D01*
X003704Y036974D01*
X003687Y036924D01*
X003666Y036876D01*
X003641Y036830D01*
X003613Y036786D01*
X003582Y036744D01*
X003548Y036704D01*
X003511Y036667D01*
X003471Y036633D01*
X003429Y036602D01*
X003385Y036574D01*
X003339Y036549D01*
X003291Y036528D01*
X003241Y036511D01*
X003191Y036498D01*
X003139Y036488D01*
X003087Y036482D01*
X003035Y036480D01*
X002983Y036482D01*
X002931Y036488D01*
X002879Y036498D01*
X002829Y036511D01*
X002779Y036528D01*
X002731Y036549D01*
X002685Y036574D01*
X002641Y036602D01*
X002599Y036633D01*
X002559Y036667D01*
X002522Y036704D01*
X002488Y036744D01*
X002457Y036786D01*
X002429Y036830D01*
X002404Y036876D01*
X002383Y036924D01*
X002366Y036974D01*
X002353Y037024D01*
X002343Y037076D01*
X002337Y037128D01*
X002335Y037180D01*
D16*
X028190Y002273D02*
X028136Y002345D01*
X028137Y002344D02*
X028190Y002387D01*
X028241Y002432D01*
X028289Y002481D01*
X028334Y002532D01*
X028377Y002586D01*
X028416Y002642D01*
X028452Y002700D01*
X028485Y002760D01*
X028514Y002821D01*
X028539Y002885D01*
X028561Y002949D01*
X028580Y003015D01*
X028594Y003082D01*
X028605Y003149D01*
X028612Y003217D01*
X028615Y003285D01*
X028614Y003354D01*
X028609Y003422D01*
X028601Y003490D01*
X028588Y003557D01*
X028572Y003623D01*
X028552Y003688D01*
X028529Y003753D01*
X028502Y003815D01*
X028471Y003876D01*
X028437Y003935D01*
X028400Y003993D01*
X028359Y004048D01*
X028315Y004100D01*
X028269Y004150D01*
X028220Y004197D01*
X028168Y004242D01*
X028114Y004283D01*
X028057Y004322D01*
X027998Y004357D01*
X027938Y004388D01*
X027876Y004416D01*
X027812Y004441D01*
X027747Y004462D01*
X027681Y004479D01*
X027614Y004493D01*
X027546Y004502D01*
X027478Y004508D01*
X027410Y004510D01*
X027342Y004508D01*
X027274Y004502D01*
X027206Y004493D01*
X027139Y004479D01*
X027073Y004462D01*
X027008Y004441D01*
X026944Y004416D01*
X026882Y004388D01*
X026822Y004357D01*
X026763Y004322D01*
X026706Y004283D01*
X026652Y004242D01*
X026600Y004197D01*
X026551Y004150D01*
X026505Y004100D01*
X026461Y004048D01*
X026420Y003993D01*
X026383Y003935D01*
X026349Y003876D01*
X026318Y003815D01*
X026291Y003753D01*
X026268Y003688D01*
X026248Y003623D01*
X026232Y003557D01*
X026219Y003490D01*
X026211Y003422D01*
X026206Y003354D01*
X026205Y003285D01*
X026208Y003217D01*
X026215Y003149D01*
X026226Y003082D01*
X026240Y003015D01*
X026259Y002949D01*
X026281Y002885D01*
X026306Y002821D01*
X026335Y002760D01*
X026368Y002700D01*
X026404Y002642D01*
X026443Y002586D01*
X026486Y002532D01*
X026531Y002481D01*
X026579Y002432D01*
X026630Y002387D01*
X026683Y002344D01*
X026630Y002273D01*
X026629Y002272D01*
X026574Y002316D01*
X026521Y002364D01*
X026470Y002414D01*
X026423Y002467D01*
X026379Y002522D01*
X026337Y002580D01*
X026299Y002640D01*
X026264Y002701D01*
X026233Y002765D01*
X026205Y002830D01*
X026181Y002897D01*
X026160Y002965D01*
X026144Y003034D01*
X026131Y003104D01*
X026122Y003174D01*
X026116Y003245D01*
X026115Y003316D01*
X026118Y003387D01*
X026124Y003458D01*
X026134Y003528D01*
X026148Y003597D01*
X026166Y003666D01*
X026188Y003734D01*
X026213Y003800D01*
X026242Y003865D01*
X026275Y003928D01*
X026311Y003989D01*
X026350Y004048D01*
X026392Y004105D01*
X026437Y004160D01*
X026486Y004212D01*
X026537Y004261D01*
X026590Y004308D01*
X026647Y004351D01*
X026705Y004391D01*
X026766Y004428D01*
X026828Y004462D01*
X026892Y004492D01*
X026958Y004519D01*
X027025Y004542D01*
X027094Y004561D01*
X027163Y004576D01*
X027233Y004588D01*
X027304Y004596D01*
X027375Y004600D01*
X027445Y004600D01*
X027516Y004596D01*
X027587Y004588D01*
X027657Y004576D01*
X027726Y004561D01*
X027795Y004542D01*
X027862Y004519D01*
X027928Y004492D01*
X027992Y004462D01*
X028054Y004428D01*
X028115Y004391D01*
X028173Y004351D01*
X028230Y004308D01*
X028283Y004261D01*
X028334Y004212D01*
X028383Y004160D01*
X028428Y004105D01*
X028470Y004048D01*
X028509Y003989D01*
X028545Y003928D01*
X028578Y003865D01*
X028607Y003800D01*
X028632Y003734D01*
X028654Y003666D01*
X028672Y003597D01*
X028686Y003528D01*
X028696Y003458D01*
X028702Y003387D01*
X028705Y003316D01*
X028704Y003245D01*
X028698Y003174D01*
X028689Y003104D01*
X028676Y003034D01*
X028660Y002965D01*
X028639Y002897D01*
X028615Y002830D01*
X028587Y002765D01*
X028556Y002701D01*
X028521Y002640D01*
X028483Y002580D01*
X028441Y002522D01*
X028397Y002467D01*
X028350Y002414D01*
X028299Y002364D01*
X028246Y002316D01*
X028191Y002272D01*
X028186Y002279D01*
X028241Y002324D01*
X028294Y002371D01*
X028345Y002422D01*
X028392Y002475D01*
X028437Y002531D01*
X028478Y002589D01*
X028516Y002649D01*
X028551Y002711D01*
X028582Y002775D01*
X028609Y002841D01*
X028633Y002908D01*
X028653Y002977D01*
X028670Y003046D01*
X028682Y003116D01*
X028691Y003187D01*
X028695Y003258D01*
X028696Y003329D01*
X028692Y003400D01*
X028685Y003471D01*
X028674Y003542D01*
X028659Y003611D01*
X028640Y003680D01*
X028617Y003748D01*
X028591Y003814D01*
X028561Y003879D01*
X028527Y003941D01*
X028491Y004002D01*
X028450Y004061D01*
X028407Y004118D01*
X028360Y004172D01*
X028311Y004223D01*
X028258Y004271D01*
X028204Y004317D01*
X028146Y004359D01*
X028087Y004398D01*
X028025Y004434D01*
X027962Y004467D01*
X027897Y004495D01*
X027830Y004521D01*
X027762Y004542D01*
X027693Y004560D01*
X027623Y004573D01*
X027552Y004583D01*
X027481Y004589D01*
X027410Y004591D01*
X027339Y004589D01*
X027268Y004583D01*
X027197Y004573D01*
X027127Y004560D01*
X027058Y004542D01*
X026990Y004521D01*
X026923Y004495D01*
X026858Y004467D01*
X026795Y004434D01*
X026733Y004398D01*
X026674Y004359D01*
X026616Y004317D01*
X026562Y004271D01*
X026509Y004223D01*
X026460Y004172D01*
X026413Y004118D01*
X026370Y004061D01*
X026329Y004002D01*
X026293Y003941D01*
X026259Y003879D01*
X026229Y003814D01*
X026203Y003748D01*
X026180Y003680D01*
X026161Y003611D01*
X026146Y003542D01*
X026135Y003471D01*
X026128Y003400D01*
X026124Y003329D01*
X026125Y003258D01*
X026129Y003187D01*
X026138Y003116D01*
X026150Y003046D01*
X026167Y002977D01*
X026187Y002908D01*
X026211Y002841D01*
X026238Y002775D01*
X026269Y002711D01*
X026304Y002649D01*
X026342Y002589D01*
X026383Y002531D01*
X026428Y002475D01*
X026475Y002422D01*
X026526Y002371D01*
X026579Y002324D01*
X026634Y002279D01*
X026640Y002286D01*
X026585Y002331D01*
X026532Y002378D01*
X026482Y002428D01*
X026435Y002481D01*
X026391Y002536D01*
X026349Y002594D01*
X026312Y002653D01*
X026277Y002715D01*
X026246Y002779D01*
X026219Y002844D01*
X026195Y002911D01*
X026175Y002979D01*
X026159Y003048D01*
X026147Y003117D01*
X026138Y003188D01*
X026134Y003258D01*
X026133Y003329D01*
X026137Y003400D01*
X026144Y003470D01*
X026155Y003540D01*
X026170Y003609D01*
X026189Y003677D01*
X026211Y003745D01*
X026237Y003810D01*
X026267Y003875D01*
X026300Y003937D01*
X026337Y003997D01*
X026377Y004056D01*
X026420Y004112D01*
X026466Y004166D01*
X026516Y004216D01*
X026567Y004265D01*
X026622Y004310D01*
X026679Y004352D01*
X026738Y004391D01*
X026799Y004426D01*
X026862Y004459D01*
X026927Y004487D01*
X026993Y004512D01*
X027061Y004533D01*
X027129Y004551D01*
X027199Y004564D01*
X027269Y004574D01*
X027339Y004580D01*
X027410Y004582D01*
X027481Y004580D01*
X027551Y004574D01*
X027621Y004564D01*
X027691Y004551D01*
X027759Y004533D01*
X027827Y004512D01*
X027893Y004487D01*
X027958Y004459D01*
X028021Y004426D01*
X028082Y004391D01*
X028141Y004352D01*
X028198Y004310D01*
X028253Y004265D01*
X028304Y004216D01*
X028354Y004166D01*
X028400Y004112D01*
X028443Y004056D01*
X028483Y003997D01*
X028520Y003937D01*
X028553Y003875D01*
X028583Y003810D01*
X028609Y003745D01*
X028631Y003677D01*
X028650Y003609D01*
X028665Y003540D01*
X028676Y003470D01*
X028683Y003400D01*
X028687Y003329D01*
X028686Y003258D01*
X028682Y003188D01*
X028673Y003117D01*
X028661Y003048D01*
X028645Y002979D01*
X028625Y002911D01*
X028601Y002844D01*
X028574Y002779D01*
X028543Y002715D01*
X028508Y002653D01*
X028471Y002594D01*
X028429Y002536D01*
X028385Y002481D01*
X028338Y002428D01*
X028288Y002378D01*
X028235Y002331D01*
X028180Y002286D01*
X028175Y002294D01*
X028230Y002338D01*
X028283Y002386D01*
X028333Y002436D01*
X028381Y002489D01*
X028425Y002545D01*
X028466Y002603D01*
X028503Y002663D01*
X028538Y002725D01*
X028568Y002789D01*
X028595Y002855D01*
X028619Y002922D01*
X028638Y002990D01*
X028654Y003060D01*
X028666Y003130D01*
X028674Y003200D01*
X028678Y003271D01*
X028677Y003342D01*
X028673Y003413D01*
X028665Y003484D01*
X028653Y003554D01*
X028637Y003623D01*
X028618Y003691D01*
X028594Y003759D01*
X028567Y003824D01*
X028536Y003888D01*
X028502Y003950D01*
X028464Y004010D01*
X028422Y004068D01*
X028378Y004124D01*
X028331Y004177D01*
X028280Y004227D01*
X028227Y004274D01*
X028172Y004319D01*
X028114Y004360D01*
X028054Y004397D01*
X027991Y004432D01*
X027927Y004463D01*
X027862Y004490D01*
X027795Y004513D01*
X027726Y004533D01*
X027657Y004549D01*
X027587Y004561D01*
X027516Y004569D01*
X027446Y004573D01*
X027374Y004573D01*
X027304Y004569D01*
X027233Y004561D01*
X027163Y004549D01*
X027094Y004533D01*
X027025Y004513D01*
X026958Y004490D01*
X026893Y004463D01*
X026829Y004432D01*
X026766Y004397D01*
X026706Y004360D01*
X026648Y004319D01*
X026593Y004274D01*
X026540Y004227D01*
X026489Y004177D01*
X026442Y004124D01*
X026398Y004068D01*
X026356Y004010D01*
X026318Y003950D01*
X026284Y003888D01*
X026253Y003824D01*
X026226Y003759D01*
X026202Y003691D01*
X026183Y003623D01*
X026167Y003554D01*
X026155Y003484D01*
X026147Y003413D01*
X026143Y003342D01*
X026142Y003271D01*
X026146Y003200D01*
X026154Y003130D01*
X026166Y003060D01*
X026182Y002990D01*
X026201Y002922D01*
X026225Y002855D01*
X026252Y002789D01*
X026282Y002725D01*
X026317Y002663D01*
X026354Y002603D01*
X026395Y002545D01*
X026439Y002489D01*
X026487Y002436D01*
X026537Y002386D01*
X026590Y002338D01*
X026645Y002294D01*
X026651Y002301D01*
X026596Y002345D01*
X026543Y002392D01*
X026493Y002442D01*
X026446Y002495D01*
X026402Y002550D01*
X026362Y002608D01*
X026324Y002667D01*
X026290Y002729D01*
X026260Y002793D01*
X026233Y002858D01*
X026210Y002925D01*
X026190Y002993D01*
X026175Y003061D01*
X026163Y003131D01*
X026155Y003201D01*
X026151Y003272D01*
X026152Y003342D01*
X026156Y003413D01*
X026164Y003483D01*
X026176Y003552D01*
X026191Y003621D01*
X026211Y003689D01*
X026234Y003755D01*
X026261Y003820D01*
X026292Y003884D01*
X026326Y003946D01*
X026364Y004005D01*
X026405Y004063D01*
X026449Y004118D01*
X026496Y004171D01*
X026546Y004220D01*
X026598Y004267D01*
X026654Y004311D01*
X026711Y004352D01*
X026771Y004390D01*
X026833Y004424D01*
X026896Y004454D01*
X026961Y004481D01*
X027028Y004505D01*
X027096Y004524D01*
X027165Y004540D01*
X027234Y004552D01*
X027304Y004560D01*
X027375Y004564D01*
X027445Y004564D01*
X027516Y004560D01*
X027586Y004552D01*
X027655Y004540D01*
X027724Y004524D01*
X027792Y004505D01*
X027859Y004481D01*
X027924Y004454D01*
X027987Y004424D01*
X028049Y004390D01*
X028109Y004352D01*
X028166Y004311D01*
X028222Y004267D01*
X028274Y004220D01*
X028324Y004171D01*
X028371Y004118D01*
X028415Y004063D01*
X028456Y004005D01*
X028494Y003946D01*
X028528Y003884D01*
X028559Y003820D01*
X028586Y003755D01*
X028609Y003689D01*
X028629Y003621D01*
X028644Y003552D01*
X028656Y003483D01*
X028664Y003413D01*
X028668Y003342D01*
X028669Y003272D01*
X028665Y003201D01*
X028657Y003131D01*
X028645Y003061D01*
X028630Y002993D01*
X028610Y002925D01*
X028587Y002858D01*
X028560Y002793D01*
X028530Y002729D01*
X028496Y002667D01*
X028458Y002608D01*
X028418Y002550D01*
X028374Y002495D01*
X028327Y002442D01*
X028277Y002392D01*
X028224Y002345D01*
X028169Y002301D01*
X028164Y002308D01*
X028219Y002352D01*
X028271Y002399D01*
X028320Y002448D01*
X028367Y002501D01*
X028410Y002555D01*
X028451Y002613D01*
X028488Y002672D01*
X028522Y002733D01*
X028552Y002797D01*
X028579Y002861D01*
X028602Y002928D01*
X028621Y002995D01*
X028636Y003063D01*
X028648Y003132D01*
X028656Y003202D01*
X028660Y003272D01*
X028659Y003342D01*
X028655Y003412D01*
X028647Y003481D01*
X028636Y003550D01*
X028620Y003619D01*
X028601Y003686D01*
X028577Y003752D01*
X028550Y003817D01*
X028520Y003880D01*
X028486Y003941D01*
X028449Y004000D01*
X028408Y004058D01*
X028364Y004112D01*
X028318Y004164D01*
X028268Y004214D01*
X028216Y004261D01*
X028161Y004304D01*
X028104Y004345D01*
X028045Y004382D01*
X027983Y004416D01*
X027920Y004446D01*
X027855Y004473D01*
X027789Y004496D01*
X027722Y004515D01*
X027654Y004531D01*
X027585Y004543D01*
X027515Y004551D01*
X027445Y004555D01*
X027375Y004555D01*
X027305Y004551D01*
X027235Y004543D01*
X027166Y004531D01*
X027098Y004515D01*
X027031Y004496D01*
X026965Y004473D01*
X026900Y004446D01*
X026837Y004416D01*
X026775Y004382D01*
X026716Y004345D01*
X026659Y004304D01*
X026604Y004261D01*
X026552Y004214D01*
X026502Y004164D01*
X026456Y004112D01*
X026412Y004058D01*
X026371Y004000D01*
X026334Y003941D01*
X026300Y003880D01*
X026270Y003817D01*
X026243Y003752D01*
X026219Y003686D01*
X026200Y003619D01*
X026184Y003550D01*
X026173Y003481D01*
X026165Y003412D01*
X026161Y003342D01*
X026160Y003272D01*
X026164Y003202D01*
X026172Y003132D01*
X026184Y003063D01*
X026199Y002995D01*
X026218Y002928D01*
X026241Y002861D01*
X026268Y002797D01*
X026298Y002733D01*
X026332Y002672D01*
X026369Y002613D01*
X026410Y002555D01*
X026453Y002501D01*
X026500Y002448D01*
X026549Y002399D01*
X026601Y002352D01*
X026656Y002308D01*
X026661Y002315D01*
X026607Y002359D01*
X026555Y002405D01*
X026506Y002454D01*
X026460Y002506D01*
X026417Y002561D01*
X026377Y002618D01*
X026340Y002677D01*
X026306Y002738D01*
X026276Y002800D01*
X026250Y002865D01*
X026227Y002930D01*
X026208Y002997D01*
X026192Y003065D01*
X026181Y003134D01*
X026173Y003203D01*
X026169Y003272D01*
X026170Y003342D01*
X026174Y003411D01*
X026181Y003480D01*
X026193Y003549D01*
X026209Y003616D01*
X026228Y003683D01*
X026251Y003749D01*
X026278Y003813D01*
X026308Y003876D01*
X026342Y003937D01*
X026379Y003995D01*
X026419Y004052D01*
X026462Y004106D01*
X026509Y004158D01*
X026558Y004207D01*
X026610Y004254D01*
X026664Y004297D01*
X026721Y004337D01*
X026780Y004374D01*
X026841Y004408D01*
X026904Y004438D01*
X026968Y004465D01*
X027033Y004488D01*
X027100Y004507D01*
X027168Y004522D01*
X027237Y004534D01*
X027306Y004542D01*
X027375Y004546D01*
X027445Y004546D01*
X027514Y004542D01*
X027583Y004534D01*
X027652Y004522D01*
X027720Y004507D01*
X027787Y004488D01*
X027852Y004465D01*
X027916Y004438D01*
X027979Y004408D01*
X028040Y004374D01*
X028099Y004337D01*
X028156Y004297D01*
X028210Y004254D01*
X028262Y004207D01*
X028311Y004158D01*
X028358Y004106D01*
X028401Y004052D01*
X028441Y003995D01*
X028478Y003937D01*
X028512Y003876D01*
X028542Y003813D01*
X028569Y003749D01*
X028592Y003683D01*
X028611Y003616D01*
X028627Y003549D01*
X028639Y003480D01*
X028646Y003411D01*
X028650Y003342D01*
X028651Y003272D01*
X028647Y003203D01*
X028639Y003134D01*
X028628Y003065D01*
X028612Y002997D01*
X028593Y002930D01*
X028570Y002865D01*
X028544Y002800D01*
X028514Y002738D01*
X028480Y002677D01*
X028443Y002618D01*
X028403Y002561D01*
X028360Y002506D01*
X028314Y002454D01*
X028265Y002405D01*
X028213Y002359D01*
X028159Y002315D01*
X028153Y002322D01*
X028207Y002366D01*
X028258Y002412D01*
X028307Y002461D01*
X028353Y002512D01*
X028396Y002566D01*
X028436Y002623D01*
X028472Y002681D01*
X028506Y002742D01*
X028536Y002804D01*
X028562Y002868D01*
X028584Y002933D01*
X028603Y002999D01*
X028619Y003067D01*
X028630Y003135D01*
X028638Y003203D01*
X028642Y003272D01*
X028641Y003341D01*
X028637Y003410D01*
X028630Y003479D01*
X028618Y003547D01*
X028603Y003614D01*
X028583Y003681D01*
X028560Y003746D01*
X028534Y003809D01*
X028504Y003872D01*
X028471Y003932D01*
X028434Y003990D01*
X028394Y004047D01*
X028351Y004101D01*
X028305Y004152D01*
X028256Y004201D01*
X028204Y004247D01*
X028150Y004290D01*
X028094Y004330D01*
X028035Y004366D01*
X027975Y004400D01*
X027913Y004430D01*
X027849Y004456D01*
X027784Y004479D01*
X027717Y004498D01*
X027650Y004513D01*
X027582Y004525D01*
X027513Y004533D01*
X027445Y004537D01*
X027375Y004537D01*
X027307Y004533D01*
X027238Y004525D01*
X027170Y004513D01*
X027103Y004498D01*
X027036Y004479D01*
X026971Y004456D01*
X026907Y004430D01*
X026845Y004400D01*
X026785Y004366D01*
X026726Y004330D01*
X026670Y004290D01*
X026616Y004247D01*
X026564Y004201D01*
X026515Y004152D01*
X026469Y004101D01*
X026426Y004047D01*
X026386Y003990D01*
X026349Y003932D01*
X026316Y003872D01*
X026286Y003809D01*
X026260Y003746D01*
X026237Y003681D01*
X026217Y003614D01*
X026202Y003547D01*
X026190Y003479D01*
X026183Y003410D01*
X026179Y003341D01*
X026178Y003272D01*
X026182Y003203D01*
X026190Y003135D01*
X026201Y003067D01*
X026217Y002999D01*
X026236Y002933D01*
X026258Y002868D01*
X026284Y002804D01*
X026314Y002742D01*
X026348Y002681D01*
X026384Y002623D01*
X026424Y002566D01*
X026467Y002512D01*
X026513Y002461D01*
X026562Y002412D01*
X026613Y002366D01*
X026667Y002322D01*
X026672Y002330D01*
X026618Y002373D01*
X026567Y002419D01*
X026518Y002469D01*
X026472Y002520D01*
X026429Y002575D01*
X026389Y002632D01*
X026353Y002690D01*
X026319Y002751D01*
X026290Y002814D01*
X026264Y002878D01*
X026242Y002944D01*
X026223Y003011D01*
X026208Y003078D01*
X026197Y003147D01*
X026190Y003216D01*
X026187Y003285D01*
X026188Y003354D01*
X026193Y003424D01*
X026201Y003492D01*
X026214Y003560D01*
X026230Y003628D01*
X026251Y003694D01*
X026274Y003759D01*
X026302Y003823D01*
X026333Y003885D01*
X026368Y003945D01*
X026406Y004003D01*
X026447Y004059D01*
X026491Y004112D01*
X026538Y004163D01*
X026588Y004211D01*
X026641Y004256D01*
X026696Y004298D01*
X026753Y004337D01*
X026813Y004372D01*
X026874Y004404D01*
X026937Y004433D01*
X027002Y004458D01*
X027068Y004479D01*
X027135Y004497D01*
X027203Y004510D01*
X027272Y004520D01*
X027341Y004526D01*
X027410Y004528D01*
X027479Y004526D01*
X027548Y004520D01*
X027617Y004510D01*
X027685Y004497D01*
X027752Y004479D01*
X027818Y004458D01*
X027883Y004433D01*
X027946Y004404D01*
X028007Y004372D01*
X028067Y004337D01*
X028124Y004298D01*
X028179Y004256D01*
X028232Y004211D01*
X028282Y004163D01*
X028329Y004112D01*
X028373Y004059D01*
X028414Y004003D01*
X028452Y003945D01*
X028487Y003885D01*
X028518Y003823D01*
X028546Y003759D01*
X028569Y003694D01*
X028590Y003628D01*
X028606Y003560D01*
X028619Y003492D01*
X028627Y003424D01*
X028632Y003354D01*
X028633Y003285D01*
X028630Y003216D01*
X028623Y003147D01*
X028612Y003078D01*
X028597Y003011D01*
X028578Y002944D01*
X028556Y002878D01*
X028530Y002814D01*
X028501Y002751D01*
X028467Y002690D01*
X028431Y002632D01*
X028391Y002575D01*
X028348Y002520D01*
X028302Y002469D01*
X028253Y002419D01*
X028202Y002373D01*
X028148Y002330D01*
X028142Y002337D01*
X028196Y002380D01*
X028247Y002426D01*
X028296Y002475D01*
X028341Y002526D01*
X028384Y002580D01*
X028423Y002637D01*
X028460Y002695D01*
X028493Y002755D01*
X028522Y002818D01*
X028548Y002881D01*
X028570Y002947D01*
X028588Y003013D01*
X028603Y003080D01*
X028614Y003148D01*
X028621Y003217D01*
X028624Y003285D01*
X028623Y003354D01*
X028618Y003423D01*
X028610Y003491D01*
X028597Y003559D01*
X028581Y003625D01*
X028561Y003691D01*
X028537Y003756D01*
X028510Y003819D01*
X028479Y003880D01*
X028445Y003940D01*
X028407Y003998D01*
X028366Y004053D01*
X028322Y004106D01*
X028275Y004156D01*
X028226Y004204D01*
X028174Y004249D01*
X028119Y004291D01*
X028062Y004329D01*
X028003Y004364D01*
X027942Y004396D01*
X027879Y004425D01*
X027815Y004449D01*
X027749Y004471D01*
X027683Y004488D01*
X027615Y004501D01*
X027547Y004511D01*
X027479Y004517D01*
X027410Y004519D01*
X027341Y004517D01*
X027273Y004511D01*
X027205Y004501D01*
X027137Y004488D01*
X027071Y004471D01*
X027005Y004449D01*
X026941Y004425D01*
X026878Y004396D01*
X026817Y004364D01*
X026758Y004329D01*
X026701Y004291D01*
X026646Y004249D01*
X026594Y004204D01*
X026545Y004156D01*
X026498Y004106D01*
X026454Y004053D01*
X026413Y003998D01*
X026375Y003940D01*
X026341Y003880D01*
X026310Y003819D01*
X026283Y003756D01*
X026259Y003691D01*
X026239Y003625D01*
X026223Y003559D01*
X026210Y003491D01*
X026202Y003423D01*
X026197Y003354D01*
X026196Y003285D01*
X026199Y003217D01*
X026206Y003148D01*
X026217Y003080D01*
X026232Y003013D01*
X026250Y002947D01*
X026272Y002881D01*
X026298Y002818D01*
X026327Y002755D01*
X026360Y002695D01*
X026397Y002637D01*
X026436Y002580D01*
X026479Y002526D01*
X026524Y002475D01*
X026573Y002426D01*
X026624Y002380D01*
X026678Y002337D01*
D17*
X024330Y003430D03*
X021490Y003430D03*
X034240Y003930D03*
X034240Y002430D03*
X037080Y002430D03*
X037080Y003930D03*
X037080Y009430D03*
X037080Y010930D03*
X037080Y013430D03*
X037080Y014930D03*
X034240Y014930D03*
X034240Y013430D03*
X034240Y010930D03*
X034240Y009430D03*
X034240Y020430D03*
X034240Y021930D03*
X034240Y024430D03*
X034240Y025930D03*
X037080Y025930D03*
X037080Y024430D03*
X037080Y021930D03*
X037080Y020430D03*
X034580Y030930D03*
X034705Y032430D03*
X031865Y032430D03*
X031740Y030930D03*
X015580Y035055D03*
X012740Y035055D03*
D18*
X013160Y030930D03*
X013160Y029930D03*
X014160Y029930D03*
X015160Y029930D03*
X016160Y029930D03*
X017160Y029930D03*
X018160Y029930D03*
X019160Y029930D03*
X020160Y029930D03*
X021160Y029930D03*
X022160Y029930D03*
X023160Y029930D03*
X024160Y029930D03*
X025160Y029930D03*
X025160Y030930D03*
X024160Y030930D03*
X023160Y030930D03*
X022160Y030930D03*
X021160Y030930D03*
X020160Y030930D03*
X019160Y030930D03*
X018160Y030930D03*
X017160Y030930D03*
X016160Y030930D03*
X015160Y030930D03*
X014160Y030930D03*
X009660Y026430D03*
X008660Y026430D03*
X008660Y025430D03*
X008660Y024430D03*
X009660Y024430D03*
X009660Y025430D03*
X009660Y023430D03*
X009660Y022430D03*
X008660Y022430D03*
X008660Y023430D03*
X008660Y021430D03*
X008660Y020430D03*
X009660Y020430D03*
X009660Y021430D03*
X009660Y019430D03*
X009660Y018430D03*
X008660Y018430D03*
X008660Y019430D03*
X008660Y017430D03*
X008660Y016430D03*
X009660Y016430D03*
X009660Y017430D03*
X009660Y015430D03*
X009660Y014430D03*
X008660Y014430D03*
X008660Y015430D03*
X013160Y010930D03*
X013160Y009930D03*
X014160Y009930D03*
X015160Y009930D03*
X016160Y009930D03*
X017160Y009930D03*
X018160Y009930D03*
X019160Y009930D03*
X020160Y009930D03*
X021160Y009930D03*
X022160Y009930D03*
X023160Y009930D03*
X024160Y009930D03*
X025160Y009930D03*
X025160Y010930D03*
X024160Y010930D03*
X023160Y010930D03*
X022160Y010930D03*
X021160Y010930D03*
X020160Y010930D03*
X019160Y010930D03*
X018160Y010930D03*
X017160Y010930D03*
X016160Y010930D03*
X015160Y010930D03*
X014160Y010930D03*
X029160Y014430D03*
X030160Y014430D03*
X030160Y015430D03*
X029160Y015430D03*
X029160Y016430D03*
X030160Y016430D03*
X030160Y017430D03*
X029160Y017430D03*
X029160Y018430D03*
X030160Y018430D03*
X030160Y019430D03*
X029160Y019430D03*
X029160Y020430D03*
X030160Y020430D03*
X030160Y021430D03*
X029160Y021430D03*
X029160Y022430D03*
X030160Y022430D03*
X030160Y023430D03*
X029160Y023430D03*
X029160Y024430D03*
X030160Y024430D03*
X030160Y025430D03*
X029160Y025430D03*
X029160Y026430D03*
X030160Y026430D03*
D19*
X035210Y027430D03*
X035210Y029430D03*
X036210Y018430D03*
X036210Y016930D03*
X036210Y007430D03*
X036210Y005930D03*
D20*
X036835Y005930D03*
X036835Y007430D03*
X034485Y007430D03*
X034485Y005930D03*
X034485Y016930D03*
X034485Y018430D03*
X036835Y018430D03*
X036835Y016930D03*
X035835Y027430D03*
X035835Y029430D03*
X033485Y029430D03*
X033485Y027430D03*
M02*
