%
M48
M72
T01C0.0236
T02C0.0276
T03C0.0320
T04C0.0400
T05C0.0440
%
T01
X5285Y5180
X5660Y5805
X3910Y5680
X10160Y11555
X9785Y12055
X8680Y12430
X10660Y12055
X11785Y12805
X11160Y13305
X11910Y13680
X13410Y13805
X13035Y12180
X11535Y11055
X11785Y10430
X12410Y9305
X12910Y8555
X12910Y7805
X13660Y7305
X13785Y8180
X13785Y8930
X14660Y8930
X14660Y8180
X14785Y7305
X15535Y6805
X15535Y7805
X15535Y8555
X16035Y9305
X12910Y6805
X16910Y5305
X18035Y5680
X18785Y5680
X20160Y7430
X21035Y7430
X21035Y6055
X23535Y7305
X23535Y8180
X24410Y7805
X24410Y6805
X25660Y6680
X25785Y7805
X26910Y8180
X26910Y7305
X29285Y7305
X29285Y8180
X30035Y7805
X30785Y7805
X31285Y8180
X31285Y7305
X30785Y6680
X31285Y6055
X30910Y5430
X30035Y6680
X29285Y6055
X29285Y5430
X30535Y3055
X30410Y2305
X32160Y2055
X36285Y2180
X35500Y13410
X35560Y14850
X31660Y17180
X31035Y17430
X31285Y15930
X33035Y19055
X32660Y20930
X31285Y22930
X30660Y27430
X29910Y27555
X27035Y29680
X27535Y31430
X28535Y33055
X25410Y32930
X25410Y31930
X23785Y32555
X22410Y32805
X21785Y33180
X21160Y33305
X20785Y33930
X20160Y34305
X21160Y34680
X22910Y36430
X23785Y35805
X20910Y38930
X18160Y35680
X14160Y33555
X11285Y32305
X10785Y33555
X9160Y31555
X8535Y31930
X7660Y32430
X7785Y31055
X7285Y30430
X6035Y29180
X6035Y28180
X6035Y27180
X7285Y25930
X7785Y25305
X6785Y24805
X5910Y25305
X3910Y23305
X5160Y21180
X3660Y19930
X3785Y19180
X4785Y18680
X5785Y18930
X6785Y18180
X7660Y19055
X10660Y21555
X12285Y24305
X13410Y24555
X12660Y25930
X11535Y26555
X17149Y21021
X18285Y19680
X18275Y19180
X17800Y18990
X17140Y19050
X17410Y18120
X17910Y17930
X18660Y18055
X19285Y18680
X19535Y19180
X19035Y19680
X19660Y20680
X19160Y21055
X19535Y21680
X20200Y22170
X20285Y19555
X17350Y14930
X16285Y15055
X15035Y15430
X14260Y17250
X14785Y17555
X15660Y17555
X11035Y18305
X7035Y14180
X5660Y15180
X4535Y16305
X1535Y19180
X660Y19805
X2660Y19680
X1160Y33930
X5160Y34805
X6035Y34430
X25535Y22555
X36035Y31430
X36160Y33555
X38160Y31180
X21160Y8930
T02
X5910Y17930
X5910Y19930
T03
X6160Y22930
X6160Y23930
X12580Y21430
X13580Y21430
X13700Y18750
X12700Y18750
X13160Y16430
X12160Y16430
X14160Y13930
X15160Y13930
X23160Y13930
X24160Y13930
X25160Y15930
X26160Y15930
X33660Y14930
X33660Y13430
X33660Y10930
X33660Y9430
X37660Y9430
X37660Y10930
X37660Y13430
X37660Y14930
X37660Y20430
X37660Y21930
X37660Y24430
X37660Y25930
X33660Y25930
X33660Y24430
X33660Y21930
X33660Y20430
X26160Y24930
X25160Y24930
X25160Y27180
X26160Y27180
X31160Y30930
X31285Y32430
X35285Y32430
X35160Y30930
X16160Y35055
X12160Y35055
X6660Y35930
X6660Y36930
X13160Y26930
X14160Y26930
X6160Y14430
X6160Y13430
X20910Y3430
X24910Y3430
X27410Y3805
X27410Y2805
X33660Y2430
X33660Y3930
X37660Y3930
X37660Y2430
T04
X2160Y2430
X2160Y3430
X2160Y4430
X2160Y5430
X2160Y8430
X2160Y9430
X3160Y9430
X3160Y8430
X3160Y10430
X3160Y11430
X2160Y11430
X2160Y10430
X2160Y12430
X2160Y13430
X3160Y13430
X3160Y12430
X3160Y14430
X3160Y15430
X2160Y15430
X2160Y14430
X2160Y16430
X2160Y17430
X3160Y17430
X3160Y16430
X3160Y18430
X2160Y18430
X2160Y20930
X2160Y21930
X3160Y21930
X3160Y20930
X3160Y22930
X3160Y23930
X2160Y23930
X2160Y22930
X2160Y24930
X2160Y25930
X3160Y25930
X3160Y24930
X3160Y26930
X3160Y27930
X2160Y27930
X2160Y26930
X6660Y32430
X6660Y33430
X4315Y36290
X4315Y38070
X1755Y38070
X1755Y36290
X8660Y26430
X9660Y26430
X9660Y25430
X9660Y24430
X8660Y24430
X8660Y25430
X8660Y23430
X8660Y22430
X9660Y22430
X9660Y23430
X9660Y21430
X9660Y20430
X8660Y20430
X8660Y21430
X8660Y19430
X8660Y18430
X9660Y18430
X9660Y19430
X9660Y17430
X9660Y16430
X8660Y16430
X8660Y17430
X8660Y15430
X8660Y14430
X9660Y14430
X9660Y15430
X13160Y10930
X13160Y9930
X14160Y9930
X15160Y9930
X16160Y9930
X17160Y9930
X18160Y9930
X19160Y9930
X20160Y9930
X21160Y9930
X22160Y9930
X23160Y9930
X24160Y9930
X25160Y9930
X25160Y10930
X24160Y10930
X23160Y10930
X22160Y10930
X21160Y10930
X20160Y10930
X19160Y10930
X18160Y10930
X17160Y10930
X16160Y10930
X15160Y10930
X14160Y10930
X13910Y4930
X14910Y4930
X12910Y4930
X11910Y4930
X10910Y4930
X9910Y4930
X8660Y2180
X7660Y2180
X6660Y2180
X11035Y2055
X12035Y2055
X13035Y2055
X15410Y2055
X16410Y2055
X17410Y2055
X29160Y14430
X30160Y14430
X30160Y15430
X29160Y15430
X29160Y16430
X30160Y16430
X30160Y17430
X29160Y17430
X29160Y18430
X30160Y18430
X30160Y19430
X29160Y19430
X29160Y20430
X30160Y20430
X30160Y21430
X29160Y21430
X29160Y22430
X30160Y22430
X30160Y23430
X29160Y23430
X29160Y24430
X30160Y24430
X30160Y25430
X29160Y25430
X29160Y26430
X30160Y26430
X25160Y29930
X24160Y29930
X23160Y29930
X22160Y29930
X21160Y29930
X20160Y29930
X19160Y29930
X18160Y29930
X17160Y29930
X16160Y29930
X15160Y29930
X14160Y29930
X13160Y29930
X13160Y30930
X14160Y30930
X15160Y30930
X16160Y30930
X17160Y30930
X18160Y30930
X19160Y30930
X20160Y30930
X21160Y30930
X22160Y30930
X23160Y30930
X24160Y30930
X25160Y30930
X26160Y35305
X27160Y35305
X28160Y35305
X29160Y35305
X30160Y35305
X31160Y35305
X32160Y35305
X33160Y35305
X33160Y37930
X32160Y37930
X31160Y37930
X30160Y37930
X29160Y37930
X28160Y37930
X27160Y37930
X26160Y37930
X21160Y37930
X21160Y36930
X20160Y36930
X20160Y37930
X19160Y37930
X19160Y36930
X18160Y36930
X18160Y37930
X17160Y37930
X17160Y36930
X16160Y36930
X16160Y37930
X15160Y37930
X15160Y36930
X14160Y36930
X14160Y37930
X13160Y37930
X13160Y36930
X12160Y36930
X12160Y37930
X37160Y37930
X37160Y36930
X37160Y35930
X37160Y34930
X37160Y33930
X37160Y32930
T05
X36660Y29430
X36660Y27430
X32660Y27430
X32660Y29430
X33660Y18430
X33660Y16930
X37660Y16930
X37660Y18430
X37660Y7430
X37660Y5930
X33660Y5930
X33660Y7430
M30
