%
M48
M72
T01C0.0120
T02C0.0236
T03C0.0276
T04C0.0320
T05C0.0400
T06C0.0433
T07C0.0440
T08C0.1102
%
T01
X7780Y6280
X13380Y6180
X19180Y7580
X20380Y8780
X21280Y7880
X22180Y7280
X23480Y6180
X24880Y4780
X26080Y4780
X27080Y5080
X28480Y5280
X28980Y6180
X29280Y6180
X30280Y5480
X29980Y5180
X31780Y5880
X31480Y6680
X30480Y7880
X29580Y7880
X28680Y8480
X27880Y8180
X27080Y6980
X27380Y6380
X26580Y6180
X24480Y7780
X24680Y8880
X23480Y9980
X23180Y10180
X23680Y10680
X26765Y11305
X26765Y12030
X26080Y13180
X26735Y13965
X25180Y14180
X23180Y14680
X21880Y13280
X17480Y11980
X14880Y12780
X12080Y13680
X12080Y14880
X10780Y15580
X10580Y15080
X10580Y14780
X9980Y14380
X9880Y13480
X8880Y13680
X9880Y12280
X8080Y11880
X7580Y11780
X7280Y11780
X6580Y11080
X7980Y10380
X9280Y16580
X9580Y16580
X10080Y17680
X9780Y17980
X9480Y17980
X9380Y18680
X10680Y17918
X11580Y17980
X11580Y17680
X11443Y16580
X14880Y16880
X15118Y17455
X15180Y18380
X13780Y19980
X13780Y20280
X12580Y20880
X11780Y20880
X11343Y21230
X10880Y21580
X11680Y22405
X12580Y25480
X10980Y26680
X12280Y28280
X12580Y28980
X11380Y30180
X14568Y31605
X18880Y30180
X19480Y29880
X19280Y29580
X20280Y30480
X20780Y29780
X21280Y29780
X20780Y28680
X21780Y27380
X21380Y26880
X22280Y26880
X21780Y26080
X20680Y25780
X18180Y25480
X24480Y24780
X25180Y23680
X25780Y22080
X26080Y22080
X25780Y21780
X25480Y20480
X26843Y19880
X28380Y19180
X28680Y18880
X26180Y18780
X26380Y17780
X25180Y18080
X24580Y16780
X24880Y16280
X21680Y16680
X27980Y15680
X28680Y15280
X28880Y14980
X28880Y14380
X28880Y13280
X29280Y12780
X28680Y12180
X28680Y11180
X29880Y11280
X30980Y12280
X32080Y11980
X34280Y10480
X34880Y10780
X35455Y11543
X35080Y13480
X35080Y13780
X34280Y14480
X35580Y15480
X35880Y16080
X35580Y16480
X35330Y17030
X34380Y16780
X32680Y16880
X32680Y16580
X32480Y16080
X32480Y15080
X32380Y14280
X32080Y14280
X31980Y17280
X32580Y18080
X31980Y19080
X31480Y19880
X31780Y20480
X31818Y21068
X31580Y21280
X30980Y20780
X29380Y21080
X29080Y21080
X32680Y22080
X33980Y22080
X34380Y21680
X34880Y21480
X35280Y21480
X35280Y21880
X35280Y22480
X34680Y22480
X34380Y23480
X33680Y23280
X34780Y24180
X35980Y24080
X36280Y24080
X36080Y22480
X37880Y21780
X38080Y22680
X39380Y22980
X40068Y22168
X40980Y22980
X41580Y23280
X40980Y23780
X42180Y24280
X41818Y25218
X40093Y25005
X39568Y26668
X40718Y26768
X39080Y28180
X38980Y28480
X40480Y29080
X40680Y28780
X41080Y29080
X40480Y29680
X40180Y29680
X39980Y30280
X40780Y30580
X40280Y30880
X40180Y31180
X40280Y32080
X40280Y32380
X41080Y31780
X42280Y31180
X42880Y31780
X45480Y29680
X47180Y30280
X47680Y29980
X47380Y30980
X48580Y29380
X50680Y28480
X51280Y29080
X51580Y28780
X49880Y27280
X49968Y26205
X49280Y26280
X48118Y25418
X49855Y24880
X51380Y24980
X51680Y24380
X51780Y24080
X51680Y23780
X51080Y23680
X51180Y22980
X51480Y22280
X50780Y22080
X50380Y22080
X49780Y22080
X49480Y22280
X48730Y22880
X48130Y23618
X48330Y23905
X46580Y23880
X46580Y24480
X45380Y24180
X45180Y23780
X44880Y23880
X45380Y24780
X44780Y22780
X43218Y21930
X41293Y21693
X41580Y20480
X38980Y19880
X37180Y20480
X35880Y20180
X35080Y20080
X34880Y20480
X34380Y21080
X33980Y21280
X36180Y18880
X35330Y18230
X37980Y15480
X39380Y16580
X40680Y17580
X41980Y15780
X42980Y14580
X42680Y14180
X39980Y15480
X44680Y18180
X44780Y18580
X45480Y18380
X45880Y17880
X44980Y17880
X45880Y19380
X46155Y19705
X46480Y21380
X46518Y21843
X48143Y22055
X50180Y20780
X50580Y20980
X50980Y20980
X51880Y21180
X52780Y20580
X52980Y20180
X53280Y20180
X53580Y20180
X53580Y20580
X54780Y20080
X56480Y20080
X56980Y19480
X56980Y18880
X55980Y18380
X56180Y17580
X54980Y17780
X54780Y18080
X52480Y16680
X51480Y14780
X49780Y14780
X49280Y16380
X47080Y14180
X50980Y18680
X51780Y18880
X51680Y20280
X49580Y19280
X48680Y19780
X48480Y20280
X52980Y23580
X53580Y23680
X52880Y24380
X54780Y23480
X54780Y22080
X56580Y21280
X58480Y21580
X56580Y23180
X54880Y25880
X51780Y26580
X47580Y27280
X47280Y27280
X46480Y27680
X45880Y27680
X43780Y28780
X43280Y27880
X38680Y29980
X38980Y30780
X37680Y29980
X37380Y29980
X36580Y31280
X35080Y31080
X33180Y28880
X34180Y28180
X32080Y26880
X32380Y26280
X32080Y25280
X30380Y24780
X29880Y24780
X29880Y25080
X29180Y26480
X26680Y26880
X25280Y26880
X27380Y28680
X26080Y29880
X24880Y30180
X27480Y31280
X26280Y32780
X22580Y33380
X19780Y31980
X16180Y35180
X18280Y36480
X19380Y36380
X20380Y37880
X27180Y38080
X28780Y37780
X28280Y35880
X30580Y33680
X32280Y32280
X32280Y31980
X34280Y33480
X35280Y34380
X35780Y35080
X37380Y35580
X35880Y36480
X35880Y37580
X39280Y35880
X41580Y35080
X41880Y35080
X38680Y33080
X38680Y32680
X31593Y35643
X30580Y29780
X35580Y25980
X35880Y25980
X36180Y25980
X36480Y26580
X37880Y25980
X38280Y26480
X47280Y34780
X47280Y35380
X49080Y35380
X47280Y37180
X48880Y37980
X54980Y35680
X55080Y32980
X55480Y31980
X53680Y32380
X53280Y32580
X51780Y32680
X56870Y29860
X58580Y31580
X58880Y26480
X58880Y19380
X58680Y19080
X41580Y4280
X41280Y4280
X42980Y3080
X38880Y3780
X37980Y3680
X37280Y3780
X35180Y5880
X34780Y5980
X32680Y4680
X32780Y4280
X33580Y3780
X32180Y8480
X31780Y9680
X32980Y9480
X34180Y9780
X29880Y9080
X51180Y680
X6980Y21780
X5980Y21380
X6280Y21180
X7080Y27880
X6280Y29580
X2968Y31368
X1180Y33680
X8980Y33580
T02
X9230Y34180
X11443Y30943
X11880Y30305
X13018Y30318
X13068Y30943
X14805Y28930
X15468Y28943
X16643Y29455
X17355Y29980
X13930Y28180
X17318Y33043
X18368Y33068
X21768Y31930
X22380Y32680
X23380Y36180
X25068Y36205
X30255Y35130
X30980Y35018
X35093Y33068
X35155Y31968
X32268Y30080
X29755Y29480
X28255Y29418
X26418Y24068
X26560Y21100
X27650Y21100
X31543Y24055
X33480Y24093
X40055Y23893
X40068Y22855
X42318Y23218
X41780Y25680
X41730Y27043
X44018Y27143
X46730Y26543
X47405Y26905
X49155Y25605
X48543Y25193
X48755Y24505
X50218Y25280
X50780Y25930
X50555Y26580
X47080Y25505
X47355Y24555
X47855Y23243
X47805Y22580
X46880Y22605
X46893Y20268
X46343Y20280
X52155Y18755
X53855Y21343
X58143Y23193
X58568Y22518
X56570Y26680
X54418Y30568
X57918Y35193
X46880Y29768
X45968Y29868
X38468Y33918
X42993Y38368
X45130Y38355
X19355Y19855
X20218Y19318
X26693Y17180
X22980Y13630
X22843Y12655
X22793Y11543
X21930Y11730
X20655Y11693
X20618Y12718
X20680Y13680
X20655Y14693
X16730Y12518
X16130Y12505
X15430Y12493
X14930Y11693
X13730Y11993
X12955Y10318
X10918Y9293
X11680Y8968
X12743Y7568
X12193Y7068
X12743Y6593
X12218Y6193
X12768Y5868
X12230Y5493
X13943Y4905
X14768Y4380
X15530Y3918
X10193Y5093
X9643Y5480
X10193Y5868
X10218Y6580
X10230Y7055
X9655Y6443
X10268Y7655
X8580Y9318
X11643Y11880
X10855Y12680
X11043Y13230
X11693Y13605
X11618Y13993
X11543Y14855
X11630Y15555
X11930Y16280
X10555Y16255
X9918Y16230
X9818Y15318
X9080Y15130
X9180Y14093
X9255Y13093
X9030Y12255
X7980Y12255
X5918Y12730
X5380Y12730
X4855Y12730
X4218Y12755
X3630Y12805
X2955Y12818
X4693Y14080
X7555Y14180
X7618Y14968
X10630Y18580
X10543Y20893
X16130Y11380
X16855Y10593
X15505Y9080
X17030Y8980
X16093Y7980
X15530Y8168
X19018Y9655
X20668Y9193
X21880Y9180
X21880Y9655
X23155Y6705
X23005Y4080
X21480Y4093
X9605Y4680
X35893Y11455
X36693Y10093
X35970Y13990
X36550Y14360
X48380Y3155
X50280Y3143
X48555Y1330
X14668Y34593
T03
X4305Y20305
X2305Y20305
X38580Y23180
X38580Y25180
T04
X41280Y25580
X42280Y25580
X43380Y23880
X44380Y23880
X42580Y22380
X41580Y22380
X39580Y20180
X38580Y20180
X33655Y20218
X33655Y19218
X33655Y18218
X33655Y17218
X33655Y16218
X33655Y15218
X33655Y14218
X33655Y13218
X33655Y12218
X33655Y11218
X33655Y10218
X33655Y9218
X36680Y8680
X36680Y7180
X40180Y5180
X40680Y7180
X40680Y8680
X40680Y11180
X40680Y12680
X40680Y15180
X40680Y16680
X36680Y16680
X36680Y15180
X36680Y12680
X36680Y11180
X43180Y5180
X44180Y5180
X47180Y5180
X50680Y7180
X50680Y8680
X50680Y11180
X50680Y12680
X50680Y15180
X50680Y16680
X47530Y19168
X46530Y19168
X51180Y19680
X52180Y19680
X53380Y19680
X54380Y19680
X54680Y16680
X54680Y15180
X54680Y12680
X54680Y11180
X54680Y8680
X54680Y7180
X33680Y25180
X33680Y28180
X33180Y31180
X32180Y31180
X31180Y31180
X30180Y31180
X29180Y31180
X28180Y31180
X28180Y34180
X29180Y34180
X30180Y34180
X31180Y34180
X32180Y34180
X33180Y34180
X34180Y34180
X34180Y31180
X38580Y28180
X39580Y28180
X41380Y29980
X42380Y29980
X45880Y30680
X46880Y30680
X48380Y30580
X52380Y30580
X53980Y28980
X54980Y28980
X54480Y26680
X55480Y26680
X27680Y25180
X27680Y28180
X24180Y31180
X23180Y31180
X22180Y31180
X21180Y31180
X20180Y31180
X19180Y31180
X18180Y31180
X15180Y33680
X12180Y33680
X10680Y34680
X8180Y33680
X8680Y31680
X6680Y29305
X6680Y28305
X6680Y27305
X6680Y26305
X6680Y25305
X3680Y25305
X3680Y26305
X3680Y27305
X3680Y28305
X3680Y29305
X4680Y31680
X5180Y33680
X6318Y36693
X7318Y36693
X10680Y37680
X18180Y34180
X19180Y34180
X20180Y34180
X21180Y34180
X22180Y34180
X23180Y34180
X24180Y34180
X15680Y27680
X13930Y26180
X13930Y25180
X13930Y24180
X13930Y23180
X13930Y22180
X15680Y22680
X15680Y24680
X10930Y24180
X10930Y25180
X10930Y26180
X10930Y23180
X10930Y22180
X9430Y20680
X9430Y19680
X11180Y20180
X12180Y20180
X15680Y19680
X15680Y16180
X15680Y15180
X16118Y10655
X16118Y9655
X11718Y8180
X10718Y8180
X8180Y8180
X7180Y8180
X2680Y11418
X1680Y11418
X3443Y13380
X1805Y13430
X1805Y14430
X3443Y14380
X4180Y15680
X4180Y16930
X3305Y18430
X2305Y18430
X1180Y16930
X1180Y15680
X27655Y15218
X27655Y14218
X27655Y13218
X27655Y12218
X27655Y11218
X27655Y10218
X27655Y9218
X27655Y16218
X27655Y17218
X27655Y18218
X27655Y19218
X27655Y20218
T05
X2180Y2180
X3180Y2180
X4180Y2180
X5180Y2180
X6180Y2180
X7180Y2180
X8180Y2180
X9180Y2180
X1818Y6205
X1805Y9180
X2805Y9180
X14843Y9705
X9430Y22180
X9430Y23180
X9430Y24180
X9430Y25180
X9430Y26180
X9430Y27180
X9430Y28180
X9430Y29180
X2180Y29305
X2180Y28305
X2180Y27305
X2180Y26305
X2180Y25305
X2180Y24305
X2180Y23305
X2180Y22305
X2180Y30930
X2180Y31930
X2180Y32930
X2180Y33930
X1400Y35790
X3960Y35790
X3960Y37570
X1400Y37570
X12680Y37180
X13680Y37180
X14680Y37180
X14680Y36180
X13680Y36180
X12680Y36180
X17680Y37180
X18680Y37180
X19680Y37180
X20680Y37180
X21680Y37180
X22680Y37180
X23680Y37180
X24680Y37180
X27180Y37180
X28180Y37180
X29180Y37180
X30180Y37180
X31180Y37180
X32180Y37180
X33180Y37180
X34180Y37180
X37680Y37180
X38680Y37180
X39680Y37180
X40680Y37180
X41680Y37180
X42680Y37180
X43680Y37180
X44680Y37180
X45680Y37180
X46680Y37180
X46680Y36180
X45680Y36180
X44680Y36180
X43680Y36180
X42680Y36180
X41680Y36180
X40680Y36180
X39680Y36180
X38680Y36180
X37680Y36180
X36900Y33570
X39460Y33570
X41680Y33680
X42680Y33680
X43680Y33680
X44680Y33680
X45680Y33680
X46680Y33680
X47680Y33680
X48680Y33680
X50680Y33680
X51680Y33680
X52680Y33680
X53680Y33680
X54680Y33680
X55680Y33680
X56680Y33680
X57680Y33680
X57680Y36680
X56680Y36680
X55680Y36680
X54680Y36680
X52180Y36680
X51180Y36680
X50180Y36680
X49180Y36680
X39460Y31790
X36900Y31790
X41380Y27880
X42380Y27880
X57680Y27680
X57680Y28680
X57680Y29680
X57680Y26680
X57680Y25680
X57680Y24680
X57680Y22180
X57680Y21180
X57680Y20180
X57680Y19180
X57680Y18180
X57680Y17180
X57680Y16180
X57680Y15180
X57680Y14180
X57680Y13180
X57680Y12180
X57680Y11180
X57680Y10180
X57680Y9180
X57680Y8180
X57680Y7180
X57680Y4180
X56680Y4180
X55680Y4180
X52680Y4180
X51680Y4180
X50680Y4180
X50180Y1680
X51180Y1680
X52180Y1680
X53180Y1680
X55680Y1680
X56680Y1680
X57680Y1680
T06
X42190Y1670
X40630Y1670
X39070Y1670
X37510Y1670
X35950Y1670
X34390Y1670
X32830Y1670
X31270Y1670
X29710Y1670
X28150Y1670
X26590Y1670
X25030Y1670
X23470Y1670
X21910Y1670
X20350Y1670
X18790Y1670
X17230Y1670
X15670Y1670
X15700Y3190
X17260Y3190
X18820Y3190
X20380Y3190
X21940Y3190
X23500Y3190
X25060Y3190
X26620Y3190
X28180Y3190
X29740Y3190
X31300Y3190
X32860Y3190
X34420Y3190
X35980Y3190
X37540Y3190
X39100Y3190
X40660Y3190
X42220Y3190
T07
X44680Y7180
X44680Y8680
X44680Y11180
X44680Y12680
X44680Y15180
X44680Y16680
X48680Y16680
X48680Y15180
X48680Y12680
X48680Y11180
X48680Y8680
X48680Y7180
X24180Y9180
X24180Y10180
X24180Y11180
X24180Y12180
X24180Y13180
X24180Y14180
X24180Y15180
X24180Y16180
X24180Y17180
X24180Y18180
X24180Y19180
X24180Y20180
X24180Y21180
X24180Y22180
X24180Y23180
X24180Y24180
X18180Y24180
X18180Y23180
X18180Y22180
X18180Y21180
X18180Y20180
X18180Y19180
X18180Y18180
X18180Y17180
X18180Y16180
X18180Y15180
X18180Y14180
X18180Y13180
X18180Y12180
X18180Y11180
X18180Y10180
X18180Y9180
T08
X1218Y4193
X19768Y27605
X9168Y37043
X58193Y38093
X54230Y3105
M30
