G75*
G70*
%OFA0B0*%
%FSLAX24Y24*%
%IPPOS*%
%LPD*%
%AMOC8*
5,1,8,0,0,1.08239X$1,22.5*
%
%ADD10C,0.0000*%
%ADD11C,0.0060*%
%ADD12C,0.0040*%
%ADD13C,0.0050*%
%ADD14C,0.0100*%
%ADD15C,0.0080*%
%ADD16R,0.0472X0.0079*%
%ADD17R,0.0079X0.0472*%
%ADD18C,0.0010*%
%ADD19R,0.0340X0.0240*%
%ADD20R,0.0300X0.2200*%
%ADD21R,0.0350X0.0500*%
D10*
X000180Y000180D02*
X000180Y039050D01*
X039172Y039050D01*
X039172Y000180D01*
X000180Y000180D01*
X002029Y008880D02*
X002031Y008927D01*
X002037Y008973D01*
X002047Y009019D01*
X002060Y009064D01*
X002078Y009107D01*
X002099Y009149D01*
X002123Y009189D01*
X002151Y009226D01*
X002182Y009261D01*
X002216Y009294D01*
X002252Y009323D01*
X002291Y009349D01*
X002332Y009372D01*
X002375Y009391D01*
X002419Y009407D01*
X002464Y009419D01*
X002510Y009427D01*
X002557Y009431D01*
X002603Y009431D01*
X002650Y009427D01*
X002696Y009419D01*
X002741Y009407D01*
X002785Y009391D01*
X002828Y009372D01*
X002869Y009349D01*
X002908Y009323D01*
X002944Y009294D01*
X002978Y009261D01*
X003009Y009226D01*
X003037Y009189D01*
X003061Y009149D01*
X003082Y009107D01*
X003100Y009064D01*
X003113Y009019D01*
X003123Y008973D01*
X003129Y008927D01*
X003131Y008880D01*
X003129Y008833D01*
X003123Y008787D01*
X003113Y008741D01*
X003100Y008696D01*
X003082Y008653D01*
X003061Y008611D01*
X003037Y008571D01*
X003009Y008534D01*
X002978Y008499D01*
X002944Y008466D01*
X002908Y008437D01*
X002869Y008411D01*
X002828Y008388D01*
X002785Y008369D01*
X002741Y008353D01*
X002696Y008341D01*
X002650Y008333D01*
X002603Y008329D01*
X002557Y008329D01*
X002510Y008333D01*
X002464Y008341D01*
X002419Y008353D01*
X002375Y008369D01*
X002332Y008388D01*
X002291Y008411D01*
X002252Y008437D01*
X002216Y008466D01*
X002182Y008499D01*
X002151Y008534D01*
X002123Y008571D01*
X002099Y008611D01*
X002078Y008653D01*
X002060Y008696D01*
X002047Y008741D01*
X002037Y008787D01*
X002031Y008833D01*
X002029Y008880D01*
X023229Y029380D02*
X023231Y029427D01*
X023237Y029473D01*
X023247Y029519D01*
X023260Y029564D01*
X023278Y029607D01*
X023299Y029649D01*
X023323Y029689D01*
X023351Y029726D01*
X023382Y029761D01*
X023416Y029794D01*
X023452Y029823D01*
X023491Y029849D01*
X023532Y029872D01*
X023575Y029891D01*
X023619Y029907D01*
X023664Y029919D01*
X023710Y029927D01*
X023757Y029931D01*
X023803Y029931D01*
X023850Y029927D01*
X023896Y029919D01*
X023941Y029907D01*
X023985Y029891D01*
X024028Y029872D01*
X024069Y029849D01*
X024108Y029823D01*
X024144Y029794D01*
X024178Y029761D01*
X024209Y029726D01*
X024237Y029689D01*
X024261Y029649D01*
X024282Y029607D01*
X024300Y029564D01*
X024313Y029519D01*
X024323Y029473D01*
X024329Y029427D01*
X024331Y029380D01*
X024329Y029333D01*
X024323Y029287D01*
X024313Y029241D01*
X024300Y029196D01*
X024282Y029153D01*
X024261Y029111D01*
X024237Y029071D01*
X024209Y029034D01*
X024178Y028999D01*
X024144Y028966D01*
X024108Y028937D01*
X024069Y028911D01*
X024028Y028888D01*
X023985Y028869D01*
X023941Y028853D01*
X023896Y028841D01*
X023850Y028833D01*
X023803Y028829D01*
X023757Y028829D01*
X023710Y028833D01*
X023664Y028841D01*
X023619Y028853D01*
X023575Y028869D01*
X023532Y028888D01*
X023491Y028911D01*
X023452Y028937D01*
X023416Y028966D01*
X023382Y028999D01*
X023351Y029034D01*
X023323Y029071D01*
X023299Y029111D01*
X023278Y029153D01*
X023260Y029196D01*
X023247Y029241D01*
X023237Y029287D01*
X023231Y029333D01*
X023229Y029380D01*
X037329Y037880D02*
X037331Y037927D01*
X037337Y037973D01*
X037347Y038019D01*
X037360Y038064D01*
X037378Y038107D01*
X037399Y038149D01*
X037423Y038189D01*
X037451Y038226D01*
X037482Y038261D01*
X037516Y038294D01*
X037552Y038323D01*
X037591Y038349D01*
X037632Y038372D01*
X037675Y038391D01*
X037719Y038407D01*
X037764Y038419D01*
X037810Y038427D01*
X037857Y038431D01*
X037903Y038431D01*
X037950Y038427D01*
X037996Y038419D01*
X038041Y038407D01*
X038085Y038391D01*
X038128Y038372D01*
X038169Y038349D01*
X038208Y038323D01*
X038244Y038294D01*
X038278Y038261D01*
X038309Y038226D01*
X038337Y038189D01*
X038361Y038149D01*
X038382Y038107D01*
X038400Y038064D01*
X038413Y038019D01*
X038423Y037973D01*
X038429Y037927D01*
X038431Y037880D01*
X038429Y037833D01*
X038423Y037787D01*
X038413Y037741D01*
X038400Y037696D01*
X038382Y037653D01*
X038361Y037611D01*
X038337Y037571D01*
X038309Y037534D01*
X038278Y037499D01*
X038244Y037466D01*
X038208Y037437D01*
X038169Y037411D01*
X038128Y037388D01*
X038085Y037369D01*
X038041Y037353D01*
X037996Y037341D01*
X037950Y037333D01*
X037903Y037329D01*
X037857Y037329D01*
X037810Y037333D01*
X037764Y037341D01*
X037719Y037353D01*
X037675Y037369D01*
X037632Y037388D01*
X037591Y037411D01*
X037552Y037437D01*
X037516Y037466D01*
X037482Y037499D01*
X037451Y037534D01*
X037423Y037571D01*
X037399Y037611D01*
X037378Y037653D01*
X037360Y037696D01*
X037347Y037741D01*
X037337Y037787D01*
X037331Y037833D01*
X037329Y037880D01*
X000829Y037880D02*
X000831Y037927D01*
X000837Y037973D01*
X000847Y038019D01*
X000860Y038064D01*
X000878Y038107D01*
X000899Y038149D01*
X000923Y038189D01*
X000951Y038226D01*
X000982Y038261D01*
X001016Y038294D01*
X001052Y038323D01*
X001091Y038349D01*
X001132Y038372D01*
X001175Y038391D01*
X001219Y038407D01*
X001264Y038419D01*
X001310Y038427D01*
X001357Y038431D01*
X001403Y038431D01*
X001450Y038427D01*
X001496Y038419D01*
X001541Y038407D01*
X001585Y038391D01*
X001628Y038372D01*
X001669Y038349D01*
X001708Y038323D01*
X001744Y038294D01*
X001778Y038261D01*
X001809Y038226D01*
X001837Y038189D01*
X001861Y038149D01*
X001882Y038107D01*
X001900Y038064D01*
X001913Y038019D01*
X001923Y037973D01*
X001929Y037927D01*
X001931Y037880D01*
X001929Y037833D01*
X001923Y037787D01*
X001913Y037741D01*
X001900Y037696D01*
X001882Y037653D01*
X001861Y037611D01*
X001837Y037571D01*
X001809Y037534D01*
X001778Y037499D01*
X001744Y037466D01*
X001708Y037437D01*
X001669Y037411D01*
X001628Y037388D01*
X001585Y037369D01*
X001541Y037353D01*
X001496Y037341D01*
X001450Y037333D01*
X001403Y037329D01*
X001357Y037329D01*
X001310Y037333D01*
X001264Y037341D01*
X001219Y037353D01*
X001175Y037369D01*
X001132Y037388D01*
X001091Y037411D01*
X001052Y037437D01*
X001016Y037466D01*
X000982Y037499D01*
X000951Y037534D01*
X000923Y037571D01*
X000899Y037611D01*
X000878Y037653D01*
X000860Y037696D01*
X000847Y037741D01*
X000837Y037787D01*
X000831Y037833D01*
X000829Y037880D01*
X037129Y001580D02*
X037131Y001627D01*
X037137Y001673D01*
X037147Y001719D01*
X037160Y001764D01*
X037178Y001807D01*
X037199Y001849D01*
X037223Y001889D01*
X037251Y001926D01*
X037282Y001961D01*
X037316Y001994D01*
X037352Y002023D01*
X037391Y002049D01*
X037432Y002072D01*
X037475Y002091D01*
X037519Y002107D01*
X037564Y002119D01*
X037610Y002127D01*
X037657Y002131D01*
X037703Y002131D01*
X037750Y002127D01*
X037796Y002119D01*
X037841Y002107D01*
X037885Y002091D01*
X037928Y002072D01*
X037969Y002049D01*
X038008Y002023D01*
X038044Y001994D01*
X038078Y001961D01*
X038109Y001926D01*
X038137Y001889D01*
X038161Y001849D01*
X038182Y001807D01*
X038200Y001764D01*
X038213Y001719D01*
X038223Y001673D01*
X038229Y001627D01*
X038231Y001580D01*
X038229Y001533D01*
X038223Y001487D01*
X038213Y001441D01*
X038200Y001396D01*
X038182Y001353D01*
X038161Y001311D01*
X038137Y001271D01*
X038109Y001234D01*
X038078Y001199D01*
X038044Y001166D01*
X038008Y001137D01*
X037969Y001111D01*
X037928Y001088D01*
X037885Y001069D01*
X037841Y001053D01*
X037796Y001041D01*
X037750Y001033D01*
X037703Y001029D01*
X037657Y001029D01*
X037610Y001033D01*
X037564Y001041D01*
X037519Y001053D01*
X037475Y001069D01*
X037432Y001088D01*
X037391Y001111D01*
X037352Y001137D01*
X037316Y001166D01*
X037282Y001199D01*
X037251Y001234D01*
X037223Y001271D01*
X037199Y001311D01*
X037178Y001353D01*
X037160Y001396D01*
X037147Y001441D01*
X037137Y001487D01*
X037131Y001533D01*
X037129Y001580D01*
D11*
X036942Y001430D02*
X036515Y001430D01*
X036836Y001751D01*
X036836Y001110D01*
X036298Y001110D02*
X035871Y001110D01*
X036084Y001110D02*
X036084Y001751D01*
X035871Y001537D01*
X035653Y001644D02*
X035226Y001217D01*
X035333Y001110D01*
X035547Y001110D01*
X035653Y001217D01*
X035653Y001644D01*
X035547Y001751D01*
X035333Y001751D01*
X035226Y001644D01*
X035226Y001217D01*
X035009Y001110D02*
X034582Y001110D01*
X035009Y001537D01*
X035009Y001644D01*
X034902Y001751D01*
X034688Y001751D01*
X034582Y001644D01*
X034364Y001430D02*
X033937Y001430D01*
X033720Y001430D02*
X033720Y001217D01*
X033613Y001110D01*
X033399Y001110D01*
X033293Y001217D01*
X033293Y001430D02*
X033506Y001537D01*
X033613Y001537D01*
X033720Y001430D01*
X033720Y001751D02*
X033293Y001751D01*
X033293Y001430D01*
X033075Y001217D02*
X032968Y001110D01*
X032755Y001110D01*
X032648Y001217D01*
X033075Y001644D01*
X033075Y001217D01*
X033075Y001644D02*
X032968Y001751D01*
X032755Y001751D01*
X032648Y001644D01*
X032648Y001217D01*
X031786Y001110D02*
X031359Y001110D01*
X031572Y001110D02*
X031572Y001751D01*
X031359Y001537D01*
X031252Y002160D02*
X031252Y002801D01*
X031358Y002587D02*
X031572Y002587D01*
X031679Y002480D01*
X031679Y002160D01*
X031896Y002267D02*
X031896Y002480D01*
X032003Y002587D01*
X032216Y002587D01*
X032323Y002480D01*
X032323Y002374D01*
X031896Y002374D01*
X031896Y002267D02*
X032003Y002160D01*
X032216Y002160D01*
X032541Y002160D02*
X032754Y002160D01*
X032647Y002160D02*
X032647Y002801D01*
X032541Y002801D01*
X032433Y003210D02*
X032753Y003210D01*
X032970Y003317D02*
X033077Y003424D01*
X033397Y003424D01*
X033397Y003530D02*
X033397Y003210D01*
X033077Y003210D01*
X032970Y003317D01*
X033077Y003637D02*
X033291Y003637D01*
X033397Y003530D01*
X032753Y003637D02*
X032433Y003637D01*
X032326Y003530D01*
X032326Y003317D01*
X032433Y003210D01*
X032110Y003210D02*
X032004Y003210D01*
X032004Y003317D01*
X032110Y003317D01*
X032110Y003210D01*
X031787Y003210D02*
X031466Y003424D01*
X031787Y003637D01*
X031466Y003851D02*
X031466Y003210D01*
X031249Y003210D02*
X030929Y003210D01*
X030822Y003317D01*
X030929Y003424D01*
X031249Y003424D01*
X031249Y003530D02*
X031249Y003210D01*
X031249Y003530D02*
X031142Y003637D01*
X030929Y003637D01*
X030604Y003637D02*
X030177Y003210D01*
X030604Y003210D01*
X030604Y003637D02*
X030177Y003637D01*
X029960Y003637D02*
X029640Y003424D01*
X029960Y003210D01*
X029640Y003210D02*
X029640Y003851D01*
X029317Y003851D02*
X029317Y003957D01*
X029317Y003637D02*
X029317Y003210D01*
X029210Y003210D02*
X029424Y003210D01*
X029530Y002801D02*
X029530Y002160D01*
X029748Y002160D02*
X029961Y002160D01*
X029854Y002160D02*
X029854Y002587D01*
X029748Y002587D01*
X029854Y002801D02*
X029854Y002907D01*
X029530Y002801D02*
X029317Y002587D01*
X029103Y002801D01*
X029103Y002160D01*
X029102Y001537D02*
X029208Y001537D01*
X029102Y001537D02*
X028888Y001324D01*
X028888Y001537D02*
X028888Y001110D01*
X029425Y001217D02*
X029425Y001430D01*
X029532Y001537D01*
X029746Y001537D01*
X029852Y001430D01*
X029852Y001324D01*
X029425Y001324D01*
X029425Y001217D02*
X029532Y001110D01*
X029746Y001110D01*
X030070Y001537D02*
X030283Y001110D01*
X030497Y001537D01*
X030391Y002160D02*
X030284Y002267D01*
X030284Y002694D01*
X030177Y002587D02*
X030391Y002587D01*
X030607Y002480D02*
X030607Y002267D01*
X030714Y002160D01*
X031034Y002160D01*
X031252Y002480D02*
X031358Y002587D01*
X031034Y002587D02*
X030714Y002587D01*
X030607Y002480D01*
X029317Y003637D02*
X029210Y003637D01*
X028993Y003637D02*
X028566Y003210D01*
X028993Y003210D01*
X028993Y003637D02*
X028566Y003637D01*
X028350Y003317D02*
X028244Y003317D01*
X028244Y003210D01*
X028350Y003210D01*
X028350Y003317D01*
X028026Y003317D02*
X028026Y003637D01*
X028026Y003317D02*
X027919Y003210D01*
X027813Y003317D01*
X027706Y003210D01*
X027599Y003317D01*
X027599Y003637D01*
X027382Y003637D02*
X027382Y003317D01*
X027275Y003210D01*
X027168Y003317D01*
X027061Y003210D01*
X026955Y003317D01*
X026955Y003637D01*
X026737Y003637D02*
X026737Y003317D01*
X026630Y003210D01*
X026524Y003317D01*
X026417Y003210D01*
X026310Y003317D01*
X026310Y003637D01*
X026310Y004260D02*
X026737Y004260D01*
X026955Y004260D02*
X027168Y004260D01*
X027061Y004260D02*
X027061Y004687D01*
X026955Y004687D01*
X027061Y004901D02*
X027061Y005007D01*
X027384Y004901D02*
X027384Y004260D01*
X027384Y004474D02*
X027705Y004687D01*
X027921Y004687D02*
X028348Y004687D01*
X027921Y004260D01*
X028348Y004260D01*
X028566Y004367D02*
X028673Y004260D01*
X028993Y004260D01*
X028993Y004580D01*
X028886Y004687D01*
X028673Y004687D01*
X028673Y004474D02*
X028993Y004474D01*
X029210Y004474D02*
X029531Y004687D01*
X029210Y004474D02*
X029531Y004260D01*
X029210Y004260D02*
X029210Y004901D01*
X028673Y004474D02*
X028566Y004367D01*
X027705Y004260D02*
X027384Y004474D01*
X026737Y004794D02*
X026310Y004367D01*
X026310Y004260D01*
X026310Y004901D02*
X026737Y004901D01*
X026737Y004794D01*
X028180Y006080D02*
X024180Y006080D01*
X024180Y008280D01*
X028180Y008280D01*
X028180Y006080D01*
X026680Y007180D02*
X026180Y007180D01*
X026180Y007410D01*
X026180Y007180D02*
X025280Y007180D01*
X025730Y006950D02*
X025730Y007410D01*
X026180Y007180D01*
X025730Y006950D01*
X026180Y006950D02*
X026180Y007180D01*
X028180Y009080D02*
X024180Y009080D01*
X024180Y011280D01*
X028180Y011280D01*
X028180Y009080D01*
X026680Y010180D02*
X026180Y010180D01*
X026180Y010410D01*
X026180Y010180D02*
X025730Y009950D01*
X025730Y010410D01*
X026180Y010180D01*
X025280Y010180D01*
X026180Y010180D02*
X026180Y009950D01*
X022930Y005180D02*
X022430Y005180D01*
X022180Y004930D01*
X022180Y004430D01*
X022430Y004180D01*
X022930Y004180D01*
X023180Y004430D01*
X023180Y004930D01*
X022930Y005180D01*
X022180Y004930D02*
X021930Y005180D01*
X021430Y005180D01*
X021180Y004930D01*
X021180Y004430D01*
X021430Y004180D01*
X021930Y004180D01*
X022180Y004430D01*
X021180Y004430D02*
X020930Y004180D01*
X020430Y004180D01*
X020180Y004430D01*
X020180Y004930D01*
X020430Y005180D01*
X020930Y005180D01*
X021180Y004930D01*
X020930Y002680D02*
X020430Y002680D01*
X020180Y002430D01*
X020180Y001930D01*
X020430Y001680D01*
X020930Y001680D01*
X021180Y001930D01*
X021430Y001680D01*
X021930Y001680D01*
X022180Y001930D01*
X022430Y001680D01*
X022930Y001680D01*
X023180Y001930D01*
X023180Y002430D01*
X022930Y002680D01*
X022430Y002680D01*
X022180Y002430D01*
X022180Y001930D01*
X022180Y002430D02*
X021930Y002680D01*
X021430Y002680D01*
X021180Y002430D01*
X021180Y001930D01*
X021180Y002430D02*
X020930Y002680D01*
X018680Y002430D02*
X018680Y001930D01*
X018430Y001680D01*
X017930Y001680D01*
X017680Y001930D01*
X017430Y001680D01*
X016930Y001680D01*
X016680Y001930D01*
X016430Y001680D01*
X015930Y001680D01*
X015680Y001930D01*
X015680Y002430D01*
X015930Y002680D01*
X016430Y002680D01*
X016680Y002430D01*
X016930Y002680D01*
X017430Y002680D01*
X017680Y002430D01*
X017930Y002680D01*
X018430Y002680D01*
X018680Y002430D01*
X017680Y002430D02*
X017680Y001930D01*
X016680Y001930D02*
X016680Y002430D01*
X016430Y004180D02*
X015930Y004180D01*
X015680Y004430D01*
X015680Y004930D01*
X015930Y005180D01*
X016430Y005180D01*
X016680Y004930D01*
X016930Y005180D01*
X017430Y005180D01*
X017680Y004930D01*
X017930Y005180D01*
X018430Y005180D01*
X018680Y004930D01*
X018680Y004430D01*
X018430Y004180D01*
X017930Y004180D01*
X017680Y004430D01*
X017430Y004180D01*
X016930Y004180D01*
X016680Y004430D01*
X016430Y004180D01*
X016680Y004430D02*
X016680Y004930D01*
X017680Y004930D02*
X017680Y004430D01*
X016430Y007680D02*
X015930Y007680D01*
X015680Y007930D01*
X015430Y007680D01*
X014930Y007680D01*
X014680Y007930D01*
X014430Y007680D01*
X013930Y007680D01*
X013680Y007930D01*
X013430Y007680D01*
X012930Y007680D01*
X012680Y007930D01*
X012430Y007680D01*
X011930Y007680D01*
X011680Y007930D01*
X011430Y007680D01*
X010930Y007680D01*
X010680Y007930D01*
X010680Y008430D01*
X010930Y008680D01*
X011430Y008680D01*
X011680Y008430D01*
X011930Y008680D01*
X012430Y008680D01*
X012680Y008430D01*
X012680Y007930D01*
X012680Y008430D02*
X012930Y008680D01*
X013430Y008680D01*
X013680Y008430D01*
X013930Y008680D01*
X014430Y008680D01*
X014680Y008430D01*
X014930Y008680D01*
X015430Y008680D01*
X015680Y008430D01*
X015930Y008680D01*
X016430Y008680D01*
X016680Y008430D01*
X016680Y007930D01*
X016430Y007680D01*
X015680Y007930D02*
X015680Y008430D01*
X014680Y008430D02*
X014680Y007930D01*
X013680Y007930D02*
X013680Y008430D01*
X011680Y008430D02*
X011680Y007930D01*
X011430Y010680D02*
X011180Y010930D01*
X010930Y010680D01*
X010430Y010680D01*
X010180Y010930D01*
X009930Y010680D01*
X009430Y010680D01*
X009180Y010930D01*
X008930Y010680D01*
X008430Y010680D01*
X008180Y010930D01*
X007930Y010680D01*
X007430Y010680D01*
X007180Y010930D01*
X006930Y010680D01*
X006430Y010680D01*
X006180Y010930D01*
X005930Y010680D01*
X005430Y010680D01*
X005180Y010930D01*
X005180Y011430D01*
X005430Y011680D01*
X005930Y011680D01*
X006180Y011430D01*
X006430Y011680D01*
X006930Y011680D01*
X007180Y011430D01*
X007180Y010930D01*
X007180Y011430D02*
X007430Y011680D01*
X007930Y011680D01*
X008180Y011430D01*
X008430Y011680D01*
X008930Y011680D01*
X009180Y011430D01*
X009430Y011680D01*
X009930Y011680D01*
X010180Y011430D01*
X010180Y010930D01*
X010180Y011430D02*
X010430Y011680D01*
X010930Y011680D01*
X011180Y011430D01*
X011430Y011680D01*
X011930Y011680D01*
X012180Y011430D01*
X012430Y011680D01*
X012930Y011680D01*
X013180Y011430D01*
X013180Y010930D01*
X012930Y010680D01*
X012430Y010680D01*
X012180Y010930D01*
X011930Y010680D01*
X011430Y010680D01*
X011180Y010930D02*
X011180Y011430D01*
X012180Y011430D02*
X012180Y010930D01*
X013180Y010930D02*
X013430Y010680D01*
X013930Y010680D01*
X014180Y010930D01*
X014430Y010680D01*
X014930Y010680D01*
X015180Y010930D01*
X015430Y010680D01*
X015930Y010680D01*
X016180Y010930D01*
X016180Y011430D01*
X015930Y011680D01*
X015430Y011680D01*
X015180Y011430D01*
X015180Y010930D01*
X015180Y011430D02*
X014930Y011680D01*
X014430Y011680D01*
X014180Y011430D01*
X014180Y010930D01*
X014180Y011430D02*
X013930Y011680D01*
X013430Y011680D01*
X013180Y011430D01*
X016180Y011430D02*
X016430Y011680D01*
X016930Y011680D01*
X017180Y011430D01*
X017430Y011680D01*
X017930Y011680D01*
X018180Y011430D01*
X018430Y011680D01*
X018930Y011680D01*
X019180Y011430D01*
X019180Y010930D01*
X018930Y010680D01*
X018430Y010680D01*
X018180Y010930D01*
X017930Y010680D01*
X017430Y010680D01*
X017180Y010930D01*
X016930Y010680D01*
X016430Y010680D01*
X016180Y010930D01*
X017180Y010930D02*
X017180Y011430D01*
X018180Y011430D02*
X018180Y010930D01*
X019180Y010930D02*
X019430Y010680D01*
X019930Y010680D01*
X020180Y010930D01*
X020430Y010680D01*
X020930Y010680D01*
X021180Y010930D01*
X021180Y011430D01*
X020930Y011680D01*
X020430Y011680D01*
X020180Y011430D01*
X020180Y010930D01*
X020180Y011430D02*
X019930Y011680D01*
X019430Y011680D01*
X019180Y011430D01*
X020430Y012680D02*
X020180Y012930D01*
X020180Y013430D01*
X020430Y013680D01*
X020180Y013930D01*
X020180Y014430D01*
X020430Y014680D01*
X020930Y014680D01*
X021180Y014430D01*
X021180Y013930D01*
X020930Y013680D01*
X021180Y013430D01*
X021180Y012930D01*
X020930Y012680D01*
X020430Y012680D01*
X020430Y013680D02*
X020930Y013680D01*
X020930Y014680D02*
X021180Y014930D01*
X021180Y015430D01*
X020930Y015680D01*
X021180Y015930D01*
X021180Y016430D01*
X020930Y016680D01*
X021180Y016930D01*
X021180Y017430D01*
X020930Y017680D01*
X020430Y017680D01*
X020180Y017430D01*
X020180Y016930D01*
X020430Y016680D01*
X020930Y016680D01*
X020430Y016680D02*
X020180Y016430D01*
X020180Y015930D01*
X020430Y015680D01*
X020930Y015680D01*
X020430Y015680D02*
X020180Y015430D01*
X020180Y014930D01*
X020430Y014680D01*
X020430Y017680D02*
X020180Y017930D01*
X020180Y018430D01*
X020430Y018680D01*
X020180Y018930D01*
X020180Y019430D01*
X020430Y019680D01*
X020180Y019930D01*
X020180Y020430D01*
X020430Y020680D01*
X020930Y020680D01*
X021180Y020430D01*
X021180Y019930D01*
X020930Y019680D01*
X021180Y019430D01*
X021180Y018930D01*
X020930Y018680D01*
X021180Y018430D01*
X021180Y017930D01*
X020930Y017680D01*
X020930Y018680D02*
X020430Y018680D01*
X020430Y019680D02*
X020930Y019680D01*
X020930Y020680D02*
X021180Y020930D01*
X021180Y021430D01*
X020930Y021680D01*
X021180Y021930D01*
X021180Y022430D01*
X020930Y022680D01*
X021180Y022930D01*
X021180Y023430D01*
X020930Y023680D01*
X020430Y023680D01*
X020180Y023430D01*
X020180Y022930D01*
X020430Y022680D01*
X020930Y022680D01*
X020430Y022680D02*
X020180Y022430D01*
X020180Y021930D01*
X020430Y021680D01*
X020930Y021680D01*
X020430Y021680D02*
X020180Y021430D01*
X020180Y020930D01*
X020430Y020680D01*
X017880Y021780D02*
X017880Y022580D01*
X017878Y022597D01*
X017874Y022614D01*
X017867Y022630D01*
X017857Y022644D01*
X017844Y022657D01*
X017830Y022667D01*
X017814Y022674D01*
X017797Y022678D01*
X017780Y022680D01*
X016080Y022680D01*
X016063Y022678D01*
X016046Y022674D01*
X016030Y022667D01*
X016016Y022657D01*
X016003Y022644D01*
X015993Y022630D01*
X015986Y022614D01*
X015982Y022597D01*
X015980Y022580D01*
X015980Y021780D01*
X015982Y021763D01*
X015986Y021746D01*
X015993Y021730D01*
X016003Y021716D01*
X016016Y021703D01*
X016030Y021693D01*
X016046Y021686D01*
X016063Y021682D01*
X016080Y021680D01*
X017780Y021680D01*
X017797Y021682D01*
X017814Y021686D01*
X017830Y021693D01*
X017844Y021703D01*
X017857Y021716D01*
X017867Y021730D01*
X017874Y021746D01*
X017878Y021763D01*
X017880Y021780D01*
X017080Y022180D02*
X017030Y022180D01*
X016830Y022180D02*
X016780Y022180D01*
X017280Y024680D02*
X015580Y024680D01*
X015563Y024682D01*
X015546Y024686D01*
X015530Y024693D01*
X015516Y024703D01*
X015503Y024716D01*
X015493Y024730D01*
X015486Y024746D01*
X015482Y024763D01*
X015480Y024780D01*
X015480Y025580D01*
X015482Y025597D01*
X015486Y025614D01*
X015493Y025630D01*
X015503Y025644D01*
X015516Y025657D01*
X015530Y025667D01*
X015546Y025674D01*
X015563Y025678D01*
X015580Y025680D01*
X017280Y025680D01*
X017297Y025678D01*
X017314Y025674D01*
X017330Y025667D01*
X017344Y025657D01*
X017357Y025644D01*
X017367Y025630D01*
X017374Y025614D01*
X017378Y025597D01*
X017380Y025580D01*
X017380Y024780D01*
X017378Y024763D01*
X017374Y024746D01*
X017367Y024730D01*
X017357Y024716D01*
X017344Y024703D01*
X017330Y024693D01*
X017314Y024686D01*
X017297Y024682D01*
X017280Y024680D01*
X016580Y025180D02*
X016530Y025180D01*
X016330Y025180D02*
X016280Y025180D01*
X014880Y026030D02*
X014880Y026830D01*
X014878Y026847D01*
X014874Y026864D01*
X014867Y026880D01*
X014857Y026894D01*
X014844Y026907D01*
X014830Y026917D01*
X014814Y026924D01*
X014797Y026928D01*
X014780Y026930D01*
X013080Y026930D01*
X013063Y026928D01*
X013046Y026924D01*
X013030Y026917D01*
X013016Y026907D01*
X013003Y026894D01*
X012993Y026880D01*
X012986Y026864D01*
X012982Y026847D01*
X012980Y026830D01*
X012980Y026030D01*
X012982Y026013D01*
X012986Y025996D01*
X012993Y025980D01*
X013003Y025966D01*
X013016Y025953D01*
X013030Y025943D01*
X013046Y025936D01*
X013063Y025932D01*
X013080Y025930D01*
X014780Y025930D01*
X014797Y025932D01*
X014814Y025936D01*
X014830Y025943D01*
X014844Y025953D01*
X014857Y025966D01*
X014867Y025980D01*
X014874Y025996D01*
X014878Y026013D01*
X014880Y026030D01*
X014080Y026430D02*
X014030Y026430D01*
X013830Y026430D02*
X013780Y026430D01*
X011713Y023951D02*
X011713Y023310D01*
X011926Y023310D02*
X011499Y023310D01*
X011282Y023417D02*
X011282Y023524D01*
X011175Y023630D01*
X010961Y023630D01*
X010855Y023737D01*
X010855Y023844D01*
X010961Y023951D01*
X011175Y023951D01*
X011282Y023844D01*
X011499Y023737D02*
X011713Y023951D01*
X011068Y024057D02*
X011068Y023203D01*
X010961Y023310D02*
X011175Y023310D01*
X011282Y023417D01*
X010961Y023310D02*
X010855Y023417D01*
X010637Y023417D02*
X010637Y023951D01*
X010637Y023417D02*
X010530Y023310D01*
X010317Y023310D01*
X010210Y023417D01*
X010210Y023951D01*
X010030Y025180D02*
X008330Y025180D01*
X008313Y025182D01*
X008296Y025186D01*
X008280Y025193D01*
X008266Y025203D01*
X008253Y025216D01*
X008243Y025230D01*
X008236Y025246D01*
X008232Y025263D01*
X008230Y025280D01*
X008230Y026080D01*
X008232Y026097D01*
X008236Y026114D01*
X008243Y026130D01*
X008253Y026144D01*
X008266Y026157D01*
X008280Y026167D01*
X008296Y026174D01*
X008313Y026178D01*
X008330Y026180D01*
X010030Y026180D01*
X010047Y026178D01*
X010064Y026174D01*
X010080Y026167D01*
X010094Y026157D01*
X010107Y026144D01*
X010117Y026130D01*
X010124Y026114D01*
X010128Y026097D01*
X010130Y026080D01*
X010130Y025280D01*
X010128Y025263D01*
X010124Y025246D01*
X010117Y025230D01*
X010107Y025216D01*
X010094Y025203D01*
X010080Y025193D01*
X010064Y025186D01*
X010047Y025182D01*
X010030Y025180D01*
X009330Y025680D02*
X009280Y025680D01*
X009080Y025680D02*
X009030Y025680D01*
X006180Y025430D02*
X006180Y024930D01*
X005930Y024680D01*
X006180Y024430D01*
X006180Y023930D01*
X005930Y023680D01*
X005430Y023680D01*
X005180Y023930D01*
X005180Y024430D01*
X005430Y024680D01*
X005180Y024930D01*
X005180Y025430D01*
X005430Y025680D01*
X005180Y025930D01*
X005180Y026430D01*
X005430Y026680D01*
X005180Y026930D01*
X005180Y027430D01*
X005430Y027680D01*
X005180Y027930D01*
X005180Y028430D01*
X005430Y028680D01*
X005930Y028680D01*
X006180Y028430D01*
X006180Y027930D01*
X005930Y027680D01*
X006180Y027430D01*
X006180Y026930D01*
X005930Y026680D01*
X005430Y026680D01*
X005930Y026680D02*
X006180Y026430D01*
X006180Y025930D01*
X005930Y025680D01*
X006180Y025430D01*
X005930Y025680D02*
X005430Y025680D01*
X005430Y024680D02*
X005930Y024680D01*
X005930Y023680D02*
X006180Y023430D01*
X006180Y022930D01*
X005930Y022680D01*
X006180Y022430D01*
X006180Y021930D01*
X005930Y021680D01*
X006180Y021430D01*
X006180Y020930D01*
X005930Y020680D01*
X005430Y020680D01*
X005180Y020930D01*
X005180Y021430D01*
X005430Y021680D01*
X005180Y021930D01*
X005180Y022430D01*
X005430Y022680D01*
X005180Y022930D01*
X005180Y023430D01*
X005430Y023680D01*
X005430Y022680D02*
X005930Y022680D01*
X005930Y021680D02*
X005430Y021680D01*
X005430Y020680D02*
X005180Y020430D01*
X005180Y019930D01*
X005430Y019680D01*
X005180Y019430D01*
X005180Y018930D01*
X005430Y018680D01*
X005180Y018430D01*
X005180Y017930D01*
X005430Y017680D01*
X005930Y017680D01*
X006180Y017930D01*
X006180Y018430D01*
X005930Y018680D01*
X005430Y018680D01*
X005930Y018680D02*
X006180Y018930D01*
X006180Y019430D01*
X005930Y019680D01*
X005430Y019680D01*
X005930Y019680D02*
X006180Y019930D01*
X006180Y020430D01*
X005930Y020680D01*
X007180Y019780D02*
X007180Y018080D01*
X007182Y018063D01*
X007186Y018046D01*
X007193Y018030D01*
X007203Y018016D01*
X007216Y018003D01*
X007230Y017993D01*
X007246Y017986D01*
X007263Y017982D01*
X007280Y017980D01*
X008080Y017980D01*
X008097Y017982D01*
X008114Y017986D01*
X008130Y017993D01*
X008144Y018003D01*
X008157Y018016D01*
X008167Y018030D01*
X008174Y018046D01*
X008178Y018063D01*
X008180Y018080D01*
X008180Y019780D01*
X008178Y019797D01*
X008174Y019814D01*
X008167Y019830D01*
X008157Y019844D01*
X008144Y019857D01*
X008130Y019867D01*
X008114Y019874D01*
X008097Y019878D01*
X008080Y019880D01*
X007280Y019880D01*
X007263Y019878D01*
X007246Y019874D01*
X007230Y019867D01*
X007216Y019857D01*
X007203Y019844D01*
X007193Y019830D01*
X007186Y019814D01*
X007182Y019797D01*
X007180Y019780D01*
X007680Y019080D02*
X007680Y019030D01*
X007680Y018830D02*
X007680Y018780D01*
X006180Y017430D02*
X006180Y016930D01*
X005930Y016680D01*
X006180Y016430D01*
X006180Y015930D01*
X005930Y015680D01*
X006180Y015430D01*
X006180Y014930D01*
X005930Y014680D01*
X005430Y014680D01*
X005180Y014930D01*
X005180Y015430D01*
X005430Y015680D01*
X005180Y015930D01*
X005180Y016430D01*
X005430Y016680D01*
X005180Y016930D01*
X005180Y017430D01*
X005430Y017680D01*
X005930Y017680D02*
X006180Y017430D01*
X005930Y016680D02*
X005430Y016680D01*
X005430Y015680D02*
X005930Y015680D01*
X005930Y014680D02*
X006180Y014430D01*
X006180Y013930D01*
X005930Y013680D01*
X006180Y013430D01*
X006180Y012930D01*
X005930Y012680D01*
X005430Y012680D01*
X005180Y012930D01*
X005180Y013430D01*
X005430Y013680D01*
X005180Y013930D01*
X005180Y014430D01*
X005430Y014680D01*
X005430Y013680D02*
X005930Y013680D01*
X006180Y011430D02*
X006180Y010930D01*
X008180Y010930D02*
X008180Y011430D01*
X009180Y011430D02*
X009180Y010930D01*
X007530Y008180D02*
X005830Y008180D01*
X005813Y008178D01*
X005796Y008174D01*
X005780Y008167D01*
X005766Y008157D01*
X005753Y008144D01*
X005743Y008130D01*
X005736Y008114D01*
X005732Y008097D01*
X005730Y008080D01*
X005730Y007280D01*
X005732Y007263D01*
X005736Y007246D01*
X005743Y007230D01*
X005753Y007216D01*
X005766Y007203D01*
X005780Y007193D01*
X005796Y007186D01*
X005813Y007182D01*
X005830Y007180D01*
X007530Y007180D01*
X007547Y007182D01*
X007564Y007186D01*
X007580Y007193D01*
X007594Y007203D01*
X007607Y007216D01*
X007617Y007230D01*
X007624Y007246D01*
X007628Y007263D01*
X007630Y007280D01*
X007630Y008080D01*
X007628Y008097D01*
X007624Y008114D01*
X007617Y008130D01*
X007607Y008144D01*
X007594Y008157D01*
X007580Y008167D01*
X007564Y008174D01*
X007547Y008178D01*
X007530Y008180D01*
X006830Y007680D02*
X006780Y007680D01*
X006580Y007680D02*
X006530Y007680D01*
X005219Y005601D02*
X004899Y005601D01*
X004899Y004960D01*
X005219Y004960D01*
X005326Y005067D01*
X005326Y005494D01*
X005219Y005601D01*
X004682Y005601D02*
X004682Y004960D01*
X004255Y005601D01*
X004255Y004960D01*
X004037Y005067D02*
X004037Y005280D01*
X003824Y005280D01*
X004037Y005067D02*
X003930Y004960D01*
X003717Y004960D01*
X003610Y005067D01*
X003610Y005494D01*
X003717Y005601D01*
X003930Y005601D01*
X004037Y005494D01*
X003180Y005430D02*
X003180Y004930D01*
X002930Y004680D01*
X003180Y004430D01*
X003180Y003930D01*
X002930Y003680D01*
X003180Y003430D01*
X003180Y002930D01*
X002930Y002680D01*
X003180Y002430D01*
X003180Y001930D01*
X002930Y001680D01*
X002430Y001680D01*
X002180Y001930D01*
X002180Y002430D01*
X002430Y002680D01*
X002180Y002930D01*
X002180Y003430D01*
X002430Y003680D01*
X002930Y003680D01*
X002430Y003680D02*
X002180Y003930D01*
X002180Y004430D01*
X002430Y004680D01*
X002180Y004930D01*
X002180Y005430D01*
X002430Y005680D01*
X002930Y005680D01*
X003180Y005430D01*
X002930Y004680D02*
X002430Y004680D01*
X003610Y004230D02*
X004037Y004230D01*
X003824Y004444D02*
X003824Y004017D01*
X004255Y004017D02*
X004361Y003910D01*
X004575Y003910D01*
X004682Y004017D01*
X004682Y004124D01*
X004575Y004230D01*
X004468Y004230D01*
X004575Y004230D02*
X004682Y004337D01*
X004682Y004444D01*
X004575Y004551D01*
X004361Y004551D01*
X004255Y004444D01*
X004899Y004017D02*
X004899Y003910D01*
X005006Y003910D01*
X005006Y004017D01*
X004899Y004017D01*
X005221Y004017D02*
X005328Y003910D01*
X005542Y003910D01*
X005648Y004017D01*
X005648Y004124D01*
X005542Y004230D01*
X005435Y004230D01*
X005542Y004230D02*
X005648Y004337D01*
X005648Y004444D01*
X005542Y004551D01*
X005328Y004551D01*
X005221Y004444D01*
X004682Y003501D02*
X004255Y003501D01*
X004255Y003180D01*
X004468Y003287D01*
X004575Y003287D01*
X004682Y003180D01*
X004682Y002967D01*
X004575Y002860D01*
X004361Y002860D01*
X004255Y002967D01*
X004037Y003180D02*
X003610Y003180D01*
X003824Y002967D02*
X003824Y003394D01*
X004037Y002451D02*
X004037Y002024D01*
X003824Y001810D01*
X003610Y002024D01*
X003610Y002451D01*
X004255Y002344D02*
X004255Y001917D01*
X004361Y001810D01*
X004575Y001810D01*
X004682Y001917D01*
X004899Y001917D02*
X004899Y002344D01*
X005006Y002451D01*
X005219Y002451D01*
X005326Y002344D01*
X005326Y001917D02*
X005219Y001810D01*
X005006Y001810D01*
X004899Y001917D01*
X004682Y002344D02*
X004575Y002451D01*
X004361Y002451D01*
X004255Y002344D01*
X002930Y002680D02*
X002430Y002680D01*
X007930Y002830D02*
X007930Y003530D01*
X007932Y003547D01*
X007936Y003564D01*
X007943Y003580D01*
X007953Y003594D01*
X007966Y003607D01*
X007980Y003617D01*
X007996Y003624D01*
X008013Y003628D01*
X008030Y003630D01*
X008180Y003630D01*
X008230Y003580D01*
X010130Y003580D01*
X010180Y003630D01*
X010330Y003630D01*
X010347Y003628D01*
X010364Y003624D01*
X010380Y003617D01*
X010394Y003607D01*
X010407Y003594D01*
X010417Y003580D01*
X010424Y003564D01*
X010428Y003547D01*
X010430Y003530D01*
X010430Y002830D01*
X010428Y002813D01*
X010424Y002796D01*
X010417Y002780D01*
X010407Y002766D01*
X010394Y002753D01*
X010380Y002743D01*
X010364Y002736D01*
X010347Y002732D01*
X010330Y002730D01*
X010180Y002730D01*
X010130Y002780D01*
X008230Y002780D01*
X008180Y002730D01*
X008030Y002730D01*
X008013Y002732D01*
X007996Y002736D01*
X007980Y002743D01*
X007966Y002753D01*
X007953Y002766D01*
X007943Y002780D01*
X007936Y002796D01*
X007932Y002813D01*
X007930Y002830D01*
X012680Y003680D02*
X012682Y003743D01*
X012688Y003805D01*
X012698Y003867D01*
X012711Y003929D01*
X012729Y003989D01*
X012750Y004048D01*
X012775Y004106D01*
X012804Y004162D01*
X012836Y004216D01*
X012871Y004268D01*
X012909Y004317D01*
X012951Y004365D01*
X012995Y004409D01*
X013043Y004451D01*
X013092Y004489D01*
X013144Y004524D01*
X013198Y004556D01*
X013254Y004585D01*
X013312Y004610D01*
X013371Y004631D01*
X013431Y004649D01*
X013493Y004662D01*
X013555Y004672D01*
X013617Y004678D01*
X013680Y004680D01*
X013743Y004678D01*
X013805Y004672D01*
X013867Y004662D01*
X013929Y004649D01*
X013989Y004631D01*
X014048Y004610D01*
X014106Y004585D01*
X014162Y004556D01*
X014216Y004524D01*
X014268Y004489D01*
X014317Y004451D01*
X014365Y004409D01*
X014409Y004365D01*
X014451Y004317D01*
X014489Y004268D01*
X014524Y004216D01*
X014556Y004162D01*
X014585Y004106D01*
X014610Y004048D01*
X014631Y003989D01*
X014649Y003929D01*
X014662Y003867D01*
X014672Y003805D01*
X014678Y003743D01*
X014680Y003680D01*
X014678Y003617D01*
X014672Y003555D01*
X014662Y003493D01*
X014649Y003431D01*
X014631Y003371D01*
X014610Y003312D01*
X014585Y003254D01*
X014556Y003198D01*
X014524Y003144D01*
X014489Y003092D01*
X014451Y003043D01*
X014409Y002995D01*
X014365Y002951D01*
X014317Y002909D01*
X014268Y002871D01*
X014216Y002836D01*
X014162Y002804D01*
X014106Y002775D01*
X014048Y002750D01*
X013989Y002729D01*
X013929Y002711D01*
X013867Y002698D01*
X013805Y002688D01*
X013743Y002682D01*
X013680Y002680D01*
X013617Y002682D01*
X013555Y002688D01*
X013493Y002698D01*
X013431Y002711D01*
X013371Y002729D01*
X013312Y002750D01*
X013254Y002775D01*
X013198Y002804D01*
X013144Y002836D01*
X013092Y002871D01*
X013043Y002909D01*
X012995Y002951D01*
X012951Y002995D01*
X012909Y003043D01*
X012871Y003092D01*
X012836Y003144D01*
X012804Y003198D01*
X012775Y003254D01*
X012750Y003312D01*
X012729Y003371D01*
X012711Y003431D01*
X012698Y003493D01*
X012688Y003555D01*
X012682Y003617D01*
X012680Y003680D01*
X010330Y014730D02*
X009530Y014730D01*
X009513Y014732D01*
X009496Y014736D01*
X009480Y014743D01*
X009466Y014753D01*
X009453Y014766D01*
X009443Y014780D01*
X009436Y014796D01*
X009432Y014813D01*
X009430Y014830D01*
X009430Y016530D01*
X009432Y016547D01*
X009436Y016564D01*
X009443Y016580D01*
X009453Y016594D01*
X009466Y016607D01*
X009480Y016617D01*
X009496Y016624D01*
X009513Y016628D01*
X009530Y016630D01*
X010330Y016630D01*
X010347Y016628D01*
X010364Y016624D01*
X010380Y016617D01*
X010394Y016607D01*
X010407Y016594D01*
X010417Y016580D01*
X010424Y016564D01*
X010428Y016547D01*
X010430Y016530D01*
X010430Y014830D01*
X010428Y014813D01*
X010424Y014796D01*
X010417Y014780D01*
X010407Y014766D01*
X010394Y014753D01*
X010380Y014743D01*
X010364Y014736D01*
X010347Y014732D01*
X010330Y014730D01*
X009930Y015530D02*
X009930Y015580D01*
X009930Y015780D02*
X009930Y015830D01*
X013480Y016280D02*
X013480Y017080D01*
X013482Y017097D01*
X013486Y017114D01*
X013493Y017130D01*
X013503Y017144D01*
X013516Y017157D01*
X013530Y017167D01*
X013546Y017174D01*
X013563Y017178D01*
X013580Y017180D01*
X015280Y017180D01*
X015297Y017178D01*
X015314Y017174D01*
X015330Y017167D01*
X015344Y017157D01*
X015357Y017144D01*
X015367Y017130D01*
X015374Y017114D01*
X015378Y017097D01*
X015380Y017080D01*
X015380Y016280D01*
X015378Y016263D01*
X015374Y016246D01*
X015367Y016230D01*
X015357Y016216D01*
X015344Y016203D01*
X015330Y016193D01*
X015314Y016186D01*
X015297Y016182D01*
X015280Y016180D01*
X013580Y016180D01*
X013563Y016182D01*
X013546Y016186D01*
X013530Y016193D01*
X013516Y016203D01*
X013503Y016216D01*
X013493Y016230D01*
X013486Y016246D01*
X013482Y016263D01*
X013480Y016280D01*
X014280Y016680D02*
X014330Y016680D01*
X014530Y016680D02*
X014580Y016680D01*
X020430Y023680D02*
X020180Y023930D01*
X020180Y024430D01*
X020430Y024680D01*
X020180Y024930D01*
X020180Y025430D01*
X020430Y025680D01*
X020180Y025930D01*
X020180Y026430D01*
X020430Y026680D01*
X020930Y026680D01*
X021180Y026430D01*
X021180Y025930D01*
X020930Y025680D01*
X021180Y025430D01*
X021180Y024930D01*
X020930Y024680D01*
X021180Y024430D01*
X021180Y023930D01*
X020930Y023680D01*
X020930Y024680D02*
X020430Y024680D01*
X020430Y025680D02*
X020930Y025680D01*
X020930Y026680D02*
X021180Y026930D01*
X021180Y027430D01*
X020930Y027680D01*
X021180Y027930D01*
X021180Y028430D01*
X020930Y028680D01*
X020430Y028680D01*
X020180Y028430D01*
X020180Y027930D01*
X020430Y027680D01*
X020930Y027680D01*
X020430Y027680D02*
X020180Y027430D01*
X020180Y026930D01*
X020430Y026680D01*
X020430Y029680D02*
X020180Y029930D01*
X019930Y029680D01*
X019430Y029680D01*
X019180Y029930D01*
X019180Y030430D01*
X019430Y030680D01*
X019930Y030680D01*
X020180Y030430D01*
X020430Y030680D01*
X020930Y030680D01*
X021180Y030430D01*
X021180Y029930D01*
X020930Y029680D01*
X020430Y029680D01*
X020180Y029930D02*
X020180Y030430D01*
X019180Y030430D02*
X018930Y030680D01*
X018430Y030680D01*
X018180Y030430D01*
X017930Y030680D01*
X017430Y030680D01*
X017180Y030430D01*
X016930Y030680D01*
X016430Y030680D01*
X016180Y030430D01*
X016180Y029930D01*
X016430Y029680D01*
X016930Y029680D01*
X017180Y029930D01*
X017180Y030430D01*
X017180Y029930D02*
X017430Y029680D01*
X017930Y029680D01*
X018180Y029930D01*
X018180Y030430D01*
X018180Y029930D02*
X018430Y029680D01*
X018930Y029680D01*
X019180Y029930D01*
X016180Y029930D02*
X015930Y029680D01*
X015430Y029680D01*
X015180Y029930D01*
X014930Y029680D01*
X014430Y029680D01*
X014180Y029930D01*
X013930Y029680D01*
X013430Y029680D01*
X013180Y029930D01*
X013180Y030430D01*
X013430Y030680D01*
X013930Y030680D01*
X014180Y030430D01*
X014430Y030680D01*
X014930Y030680D01*
X015180Y030430D01*
X015430Y030680D01*
X015930Y030680D01*
X016180Y030430D01*
X015180Y030430D02*
X015180Y029930D01*
X014180Y029930D02*
X014180Y030430D01*
X013180Y030430D02*
X012930Y030680D01*
X012430Y030680D01*
X012180Y030430D01*
X011930Y030680D01*
X011430Y030680D01*
X011180Y030430D01*
X010930Y030680D01*
X010430Y030680D01*
X010180Y030430D01*
X010180Y029930D01*
X010430Y029680D01*
X010930Y029680D01*
X011180Y029930D01*
X011180Y030430D01*
X011180Y029930D02*
X011430Y029680D01*
X011930Y029680D01*
X012180Y029930D01*
X012180Y030430D01*
X012180Y029930D02*
X012430Y029680D01*
X012930Y029680D01*
X013180Y029930D01*
X010830Y032230D02*
X010680Y032230D01*
X010630Y032280D01*
X008730Y032280D01*
X008680Y032230D01*
X008530Y032230D01*
X008513Y032232D01*
X008496Y032236D01*
X008480Y032243D01*
X008466Y032253D01*
X008453Y032266D01*
X008443Y032280D01*
X008436Y032296D01*
X008432Y032313D01*
X008430Y032330D01*
X008430Y033030D01*
X008432Y033047D01*
X008436Y033064D01*
X008443Y033080D01*
X008453Y033094D01*
X008466Y033107D01*
X008480Y033117D01*
X008496Y033124D01*
X008513Y033128D01*
X008530Y033130D01*
X008680Y033130D01*
X008730Y033080D01*
X010630Y033080D01*
X010680Y033130D01*
X010830Y033130D01*
X010847Y033128D01*
X010864Y033124D01*
X010880Y033117D01*
X010894Y033107D01*
X010907Y033094D01*
X010917Y033080D01*
X010924Y033064D01*
X010928Y033047D01*
X010930Y033030D01*
X010930Y032330D01*
X010928Y032313D01*
X010924Y032296D01*
X010917Y032280D01*
X010907Y032266D01*
X010894Y032253D01*
X010880Y032243D01*
X010864Y032236D01*
X010847Y032232D01*
X010830Y032230D01*
X009930Y030680D02*
X009430Y030680D01*
X009180Y030430D01*
X008930Y030680D01*
X008430Y030680D01*
X008180Y030430D01*
X007930Y030680D01*
X007430Y030680D01*
X007180Y030430D01*
X007180Y029930D01*
X007430Y029680D01*
X007930Y029680D01*
X008180Y029930D01*
X008180Y030430D01*
X008180Y029930D02*
X008430Y029680D01*
X008930Y029680D01*
X009180Y029930D01*
X009180Y030430D01*
X009180Y029930D02*
X009430Y029680D01*
X009930Y029680D01*
X010180Y029930D01*
X010180Y030430D02*
X009930Y030680D01*
X007180Y030430D02*
X006930Y030680D01*
X006430Y030680D01*
X006180Y030430D01*
X005930Y030680D01*
X005430Y030680D01*
X005180Y030430D01*
X005180Y029930D01*
X005430Y029680D01*
X005930Y029680D01*
X006180Y029930D01*
X006180Y030430D01*
X006180Y029930D02*
X006430Y029680D01*
X006930Y029680D01*
X007180Y029930D01*
X005930Y027680D02*
X005430Y027680D01*
X003180Y028530D02*
X003180Y026830D01*
X003178Y026813D01*
X003174Y026796D01*
X003167Y026780D01*
X003157Y026766D01*
X003144Y026753D01*
X003130Y026743D01*
X003114Y026736D01*
X003097Y026732D01*
X003080Y026730D01*
X002280Y026730D01*
X002263Y026732D01*
X002246Y026736D01*
X002230Y026743D01*
X002216Y026753D01*
X002203Y026766D01*
X002193Y026780D01*
X002186Y026796D01*
X002182Y026813D01*
X002180Y026830D01*
X002180Y028530D01*
X002182Y028547D01*
X002186Y028564D01*
X002193Y028580D01*
X002203Y028594D01*
X002216Y028607D01*
X002230Y028617D01*
X002246Y028624D01*
X002263Y028628D01*
X002280Y028630D01*
X003080Y028630D01*
X003097Y028628D01*
X003114Y028624D01*
X003130Y028617D01*
X003144Y028607D01*
X003157Y028594D01*
X003167Y028580D01*
X003174Y028564D01*
X003178Y028547D01*
X003180Y028530D01*
X002680Y027830D02*
X002680Y027780D01*
X002680Y027580D02*
X002680Y027530D01*
X005430Y033930D02*
X005180Y034180D01*
X005180Y034680D01*
X005430Y034930D01*
X005180Y035180D01*
X005180Y035680D01*
X005430Y035930D01*
X005930Y035930D01*
X006180Y035680D01*
X006180Y035180D01*
X005930Y034930D01*
X006180Y034680D01*
X006180Y034180D01*
X005930Y033930D01*
X005430Y033930D01*
X005430Y034930D02*
X005930Y034930D01*
X009680Y034930D02*
X009680Y036430D01*
X009930Y036680D01*
X010430Y036680D01*
X010680Y036430D01*
X010680Y034930D01*
X010430Y034680D01*
X009930Y034680D01*
X009680Y034930D01*
X010680Y034930D02*
X010930Y034680D01*
X011430Y034680D01*
X011680Y034930D01*
X011680Y036430D01*
X011930Y036680D01*
X012430Y036680D01*
X012680Y036430D01*
X012680Y034930D01*
X012430Y034680D01*
X011930Y034680D01*
X011680Y034930D01*
X012680Y034930D02*
X012930Y034680D01*
X013430Y034680D01*
X013680Y034930D01*
X013680Y036430D01*
X013430Y036680D01*
X012930Y036680D01*
X012680Y036430D01*
X013680Y036430D02*
X013930Y036680D01*
X014430Y036680D01*
X014680Y036430D01*
X014680Y034930D01*
X014430Y034680D01*
X013930Y034680D01*
X013680Y034930D01*
X014680Y034930D02*
X014930Y034680D01*
X015430Y034680D01*
X015680Y034930D01*
X015680Y036430D01*
X015430Y036680D01*
X014930Y036680D01*
X014680Y036430D01*
X015680Y036430D02*
X015930Y036680D01*
X016430Y036680D01*
X016680Y036430D01*
X016680Y034930D01*
X016430Y034680D01*
X015930Y034680D01*
X015680Y034930D01*
X016680Y034930D02*
X016930Y034680D01*
X017430Y034680D01*
X017680Y034930D01*
X017680Y036430D01*
X017430Y036680D01*
X016930Y036680D01*
X016680Y036430D01*
X017680Y036430D02*
X017930Y036680D01*
X018430Y036680D01*
X018680Y036430D01*
X018680Y034930D01*
X018430Y034680D01*
X017930Y034680D01*
X017680Y034930D01*
X018680Y034930D02*
X018930Y034680D01*
X019430Y034680D01*
X019680Y034930D01*
X019680Y036430D01*
X019430Y036680D01*
X018930Y036680D01*
X018680Y036430D01*
X019910Y036610D02*
X020337Y036610D01*
X020124Y036610D02*
X020124Y037251D01*
X019910Y037037D01*
X020017Y035351D02*
X019910Y035244D01*
X020017Y035351D02*
X020230Y035351D01*
X020337Y035244D01*
X020337Y035137D01*
X019910Y034710D01*
X020337Y034710D01*
X021930Y035930D02*
X021930Y036430D01*
X022180Y036680D01*
X022680Y036680D01*
X022930Y036430D01*
X023180Y036680D01*
X023680Y036680D01*
X023930Y036430D01*
X024180Y036680D01*
X024680Y036680D01*
X024930Y036430D01*
X025180Y036680D01*
X025680Y036680D01*
X025930Y036430D01*
X026180Y036680D01*
X026680Y036680D01*
X026930Y036430D01*
X027180Y036680D01*
X027680Y036680D01*
X027930Y036430D01*
X028180Y036680D01*
X028680Y036680D01*
X028930Y036430D01*
X029180Y036680D01*
X029680Y036680D01*
X029930Y036430D01*
X029930Y035930D01*
X029680Y035680D01*
X029180Y035680D01*
X028930Y035930D01*
X028680Y035680D01*
X028180Y035680D01*
X027930Y035930D01*
X027930Y036430D01*
X027930Y035930D02*
X027680Y035680D01*
X027180Y035680D01*
X026930Y035930D01*
X026680Y035680D01*
X026180Y035680D01*
X025930Y035930D01*
X025680Y035680D01*
X025180Y035680D01*
X024930Y035930D01*
X024930Y036430D01*
X024930Y035930D02*
X024680Y035680D01*
X024180Y035680D01*
X023930Y035930D01*
X023680Y035680D01*
X023180Y035680D01*
X022930Y035930D01*
X022680Y035680D01*
X022180Y035680D01*
X021930Y035930D01*
X022930Y035930D02*
X022930Y036430D01*
X023930Y036430D02*
X023930Y035930D01*
X025930Y035930D02*
X025930Y036430D01*
X026930Y036430D02*
X026930Y035930D01*
X028930Y035930D02*
X028930Y036430D01*
X029910Y036710D02*
X030337Y036710D01*
X030124Y036710D02*
X030124Y037351D01*
X029910Y037137D01*
X031530Y032630D02*
X031680Y032630D01*
X031730Y032580D01*
X033630Y032580D01*
X033680Y032630D01*
X033830Y032630D01*
X033847Y032628D01*
X033864Y032624D01*
X033880Y032617D01*
X033894Y032607D01*
X033907Y032594D01*
X033917Y032580D01*
X033924Y032564D01*
X033928Y032547D01*
X033930Y032530D01*
X033930Y031830D01*
X033928Y031813D01*
X033924Y031796D01*
X033917Y031780D01*
X033907Y031766D01*
X033894Y031753D01*
X033880Y031743D01*
X033864Y031736D01*
X033847Y031732D01*
X033830Y031730D01*
X033680Y031730D01*
X033630Y031780D01*
X031730Y031780D01*
X031680Y031730D01*
X031530Y031730D01*
X031513Y031732D01*
X031496Y031736D01*
X031480Y031743D01*
X031466Y031753D01*
X031453Y031766D01*
X031443Y031780D01*
X031436Y031796D01*
X031432Y031813D01*
X031430Y031830D01*
X031430Y032530D01*
X031432Y032547D01*
X031436Y032564D01*
X031443Y032580D01*
X031453Y032594D01*
X031466Y032607D01*
X031480Y032617D01*
X031496Y032624D01*
X031513Y032628D01*
X031530Y032630D01*
X031530Y031130D02*
X031680Y031130D01*
X031730Y031080D01*
X033630Y031080D01*
X033680Y031130D01*
X033830Y031130D01*
X033847Y031128D01*
X033864Y031124D01*
X033880Y031117D01*
X033894Y031107D01*
X033907Y031094D01*
X033917Y031080D01*
X033924Y031064D01*
X033928Y031047D01*
X033930Y031030D01*
X033930Y030330D01*
X033928Y030313D01*
X033924Y030296D01*
X033917Y030280D01*
X033907Y030266D01*
X033894Y030253D01*
X033880Y030243D01*
X033864Y030236D01*
X033847Y030232D01*
X033830Y030230D01*
X033680Y030230D01*
X033630Y030280D01*
X031730Y030280D01*
X031680Y030230D01*
X031530Y030230D01*
X031513Y030232D01*
X031496Y030236D01*
X031480Y030243D01*
X031466Y030253D01*
X031453Y030266D01*
X031443Y030280D01*
X031436Y030296D01*
X031432Y030313D01*
X031430Y030330D01*
X031430Y031030D01*
X031432Y031047D01*
X031436Y031064D01*
X031443Y031080D01*
X031453Y031094D01*
X031466Y031107D01*
X031480Y031117D01*
X031496Y031124D01*
X031513Y031128D01*
X031530Y031130D01*
X031530Y029130D02*
X031680Y029130D01*
X031730Y029080D01*
X033630Y029080D01*
X033680Y029130D01*
X033830Y029130D01*
X033847Y029128D01*
X033864Y029124D01*
X033880Y029117D01*
X033894Y029107D01*
X033907Y029094D01*
X033917Y029080D01*
X033924Y029064D01*
X033928Y029047D01*
X033930Y029030D01*
X033930Y028330D01*
X033928Y028313D01*
X033924Y028296D01*
X033917Y028280D01*
X033907Y028266D01*
X033894Y028253D01*
X033880Y028243D01*
X033864Y028236D01*
X033847Y028232D01*
X033830Y028230D01*
X033680Y028230D01*
X033630Y028280D01*
X031730Y028280D01*
X031680Y028230D01*
X031530Y028230D01*
X031513Y028232D01*
X031496Y028236D01*
X031480Y028243D01*
X031466Y028253D01*
X031453Y028266D01*
X031443Y028280D01*
X031436Y028296D01*
X031432Y028313D01*
X031430Y028330D01*
X031430Y029030D01*
X031432Y029047D01*
X031436Y029064D01*
X031443Y029080D01*
X031453Y029094D01*
X031466Y029107D01*
X031480Y029117D01*
X031496Y029124D01*
X031513Y029128D01*
X031530Y029130D01*
X031530Y027630D02*
X031680Y027630D01*
X031730Y027580D01*
X033630Y027580D01*
X033680Y027630D01*
X033830Y027630D01*
X033847Y027628D01*
X033864Y027624D01*
X033880Y027617D01*
X033894Y027607D01*
X033907Y027594D01*
X033917Y027580D01*
X033924Y027564D01*
X033928Y027547D01*
X033930Y027530D01*
X033930Y026830D01*
X033928Y026813D01*
X033924Y026796D01*
X033917Y026780D01*
X033907Y026766D01*
X033894Y026753D01*
X033880Y026743D01*
X033864Y026736D01*
X033847Y026732D01*
X033830Y026730D01*
X033680Y026730D01*
X033630Y026780D01*
X031730Y026780D01*
X031680Y026730D01*
X031530Y026730D01*
X031513Y026732D01*
X031496Y026736D01*
X031480Y026743D01*
X031466Y026753D01*
X031453Y026766D01*
X031443Y026780D01*
X031436Y026796D01*
X031432Y026813D01*
X031430Y026830D01*
X031430Y027530D01*
X031432Y027547D01*
X031436Y027564D01*
X031443Y027580D01*
X031453Y027594D01*
X031466Y027607D01*
X031480Y027617D01*
X031496Y027624D01*
X031513Y027628D01*
X031530Y027630D01*
X032587Y025887D02*
X032801Y025460D01*
X033014Y025887D01*
X033232Y025780D02*
X033339Y025887D01*
X033659Y025887D01*
X033876Y025887D02*
X033876Y025567D01*
X033983Y025460D01*
X034303Y025460D01*
X034303Y025353D02*
X034197Y025246D01*
X034090Y025246D01*
X034303Y025353D02*
X034303Y025887D01*
X034521Y025887D02*
X034841Y025887D01*
X034948Y025780D01*
X034948Y025460D01*
X035165Y025567D02*
X035165Y025780D01*
X035272Y025887D01*
X035592Y025887D01*
X035592Y025460D02*
X035272Y025460D01*
X035165Y025567D01*
X035272Y024837D02*
X035165Y024730D01*
X035165Y024517D01*
X035272Y024410D01*
X035592Y024410D01*
X035592Y024837D02*
X035272Y024837D01*
X034948Y024730D02*
X034948Y024410D01*
X034948Y024730D02*
X034841Y024837D01*
X034521Y024837D01*
X034521Y024410D01*
X034303Y024410D02*
X033983Y024410D01*
X033876Y024517D01*
X033876Y024837D01*
X033659Y024837D02*
X033339Y024837D01*
X033232Y024730D01*
X033339Y024624D01*
X033552Y024624D01*
X033659Y024517D01*
X033552Y024410D01*
X033232Y024410D01*
X033014Y024410D02*
X033014Y024730D01*
X032908Y024837D01*
X032694Y024837D01*
X032587Y024730D01*
X032587Y024410D02*
X032587Y025051D01*
X033232Y025460D02*
X033552Y025460D01*
X033659Y025567D01*
X033552Y025674D01*
X033339Y025674D01*
X033232Y025780D01*
X034521Y025887D02*
X034521Y025460D01*
X034303Y024837D02*
X034303Y024303D01*
X034197Y024196D01*
X034090Y024196D01*
X034197Y024001D02*
X033983Y024001D01*
X033876Y023894D01*
X033876Y023467D01*
X033983Y023360D01*
X034197Y023360D01*
X034303Y023467D01*
X034303Y023680D01*
X034090Y023680D01*
X034303Y023894D02*
X034197Y024001D01*
X034521Y024001D02*
X034521Y023360D01*
X034948Y023360D02*
X034521Y024001D01*
X034948Y024001D02*
X034948Y023360D01*
X035165Y023360D02*
X035165Y024001D01*
X035486Y024001D01*
X035592Y023894D01*
X035592Y023467D01*
X035486Y023360D01*
X035165Y023360D01*
X035165Y022951D02*
X035486Y022951D01*
X035592Y022844D01*
X035592Y022630D01*
X035486Y022524D01*
X035165Y022524D01*
X035379Y022524D02*
X035592Y022310D01*
X035486Y021901D02*
X035272Y021901D01*
X035165Y021794D01*
X035165Y021367D01*
X035272Y021260D01*
X035486Y021260D01*
X035592Y021367D01*
X035592Y021580D01*
X035379Y021580D01*
X035592Y021794D02*
X035486Y021901D01*
X035165Y022310D02*
X035165Y022951D01*
X036180Y022930D02*
X036180Y022430D01*
X036430Y022180D01*
X036180Y021930D01*
X036180Y021430D01*
X036430Y021180D01*
X036180Y020930D01*
X036180Y020430D01*
X036430Y020180D01*
X036930Y020180D01*
X037180Y020430D01*
X037180Y020930D01*
X036930Y021180D01*
X036430Y021180D01*
X036930Y021180D02*
X037180Y021430D01*
X037180Y021930D01*
X036930Y022180D01*
X036430Y022180D01*
X036930Y022180D02*
X037180Y022430D01*
X037180Y022930D01*
X036930Y023180D01*
X036430Y023180D01*
X036180Y022930D01*
X036430Y023180D02*
X036180Y023430D01*
X036180Y023930D01*
X036430Y024180D01*
X036180Y024430D01*
X036180Y024930D01*
X036430Y025180D01*
X036180Y025430D01*
X036180Y025930D01*
X036430Y026180D01*
X036930Y026180D01*
X037180Y025930D01*
X037180Y025430D01*
X036930Y025180D01*
X037180Y024930D01*
X037180Y024430D01*
X036930Y024180D01*
X036430Y024180D01*
X036930Y024180D02*
X037180Y023930D01*
X037180Y023430D01*
X036930Y023180D01*
X036930Y025180D02*
X036430Y025180D01*
X033830Y022130D02*
X033680Y022130D01*
X033630Y022080D01*
X031730Y022080D01*
X031680Y022130D01*
X031530Y022130D01*
X031513Y022128D01*
X031496Y022124D01*
X031480Y022117D01*
X031466Y022107D01*
X031453Y022094D01*
X031443Y022080D01*
X031436Y022064D01*
X031432Y022047D01*
X031430Y022030D01*
X031430Y021330D01*
X031432Y021313D01*
X031436Y021296D01*
X031443Y021280D01*
X031453Y021266D01*
X031466Y021253D01*
X031480Y021243D01*
X031496Y021236D01*
X031513Y021232D01*
X031530Y021230D01*
X031680Y021230D01*
X031730Y021280D01*
X033630Y021280D01*
X033680Y021230D01*
X033830Y021230D01*
X033847Y021232D01*
X033864Y021236D01*
X033880Y021243D01*
X033894Y021253D01*
X033907Y021266D01*
X033917Y021280D01*
X033924Y021296D01*
X033928Y021313D01*
X033930Y021330D01*
X033930Y022030D01*
X033928Y022047D01*
X033924Y022064D01*
X033917Y022080D01*
X033907Y022094D01*
X033894Y022107D01*
X033880Y022117D01*
X033864Y022124D01*
X033847Y022128D01*
X033830Y022130D01*
X033830Y020630D02*
X033680Y020630D01*
X033630Y020580D01*
X031730Y020580D01*
X031680Y020630D01*
X031530Y020630D01*
X031513Y020628D01*
X031496Y020624D01*
X031480Y020617D01*
X031466Y020607D01*
X031453Y020594D01*
X031443Y020580D01*
X031436Y020564D01*
X031432Y020547D01*
X031430Y020530D01*
X031430Y019830D01*
X031432Y019813D01*
X031436Y019796D01*
X031443Y019780D01*
X031453Y019766D01*
X031466Y019753D01*
X031480Y019743D01*
X031496Y019736D01*
X031513Y019732D01*
X031530Y019730D01*
X031680Y019730D01*
X031730Y019780D01*
X033630Y019780D01*
X033680Y019730D01*
X033830Y019730D01*
X033847Y019732D01*
X033864Y019736D01*
X033880Y019743D01*
X033894Y019753D01*
X033907Y019766D01*
X033917Y019780D01*
X033924Y019796D01*
X033928Y019813D01*
X033930Y019830D01*
X033930Y020530D01*
X033928Y020547D01*
X033924Y020564D01*
X033917Y020580D01*
X033907Y020594D01*
X033894Y020607D01*
X033880Y020617D01*
X033864Y020624D01*
X033847Y020628D01*
X033830Y020630D01*
X035165Y020530D02*
X035486Y020530D01*
X035592Y020424D01*
X035592Y020317D01*
X035486Y020210D01*
X035165Y020210D01*
X035165Y020851D01*
X035486Y020851D01*
X035592Y020744D01*
X035592Y020637D01*
X035486Y020530D01*
X033830Y018130D02*
X033680Y018130D01*
X033630Y018080D01*
X031730Y018080D01*
X031680Y018130D01*
X031530Y018130D01*
X031513Y018128D01*
X031496Y018124D01*
X031480Y018117D01*
X031466Y018107D01*
X031453Y018094D01*
X031443Y018080D01*
X031436Y018064D01*
X031432Y018047D01*
X031430Y018030D01*
X031430Y017330D01*
X031432Y017313D01*
X031436Y017296D01*
X031443Y017280D01*
X031453Y017266D01*
X031466Y017253D01*
X031480Y017243D01*
X031496Y017236D01*
X031513Y017232D01*
X031530Y017230D01*
X031680Y017230D01*
X031730Y017280D01*
X033630Y017280D01*
X033680Y017230D01*
X033830Y017230D01*
X033847Y017232D01*
X033864Y017236D01*
X033880Y017243D01*
X033894Y017253D01*
X033907Y017266D01*
X033917Y017280D01*
X033924Y017296D01*
X033928Y017313D01*
X033930Y017330D01*
X033930Y018030D01*
X033928Y018047D01*
X033924Y018064D01*
X033917Y018080D01*
X033907Y018094D01*
X033894Y018107D01*
X033880Y018117D01*
X033864Y018124D01*
X033847Y018128D01*
X033830Y018130D01*
X033830Y016630D02*
X033680Y016630D01*
X033630Y016580D01*
X031730Y016580D01*
X031680Y016630D01*
X031530Y016630D01*
X031513Y016628D01*
X031496Y016624D01*
X031480Y016617D01*
X031466Y016607D01*
X031453Y016594D01*
X031443Y016580D01*
X031436Y016564D01*
X031432Y016547D01*
X031430Y016530D01*
X031430Y015830D01*
X031432Y015813D01*
X031436Y015796D01*
X031443Y015780D01*
X031453Y015766D01*
X031466Y015753D01*
X031480Y015743D01*
X031496Y015736D01*
X031513Y015732D01*
X031530Y015730D01*
X031680Y015730D01*
X031730Y015780D01*
X033630Y015780D01*
X033680Y015730D01*
X033830Y015730D01*
X033847Y015732D01*
X033864Y015736D01*
X033880Y015743D01*
X033894Y015753D01*
X033907Y015766D01*
X033917Y015780D01*
X033924Y015796D01*
X033928Y015813D01*
X033930Y015830D01*
X033930Y016530D01*
X033928Y016547D01*
X033924Y016564D01*
X033917Y016580D01*
X033907Y016594D01*
X033894Y016607D01*
X033880Y016617D01*
X033864Y016624D01*
X033847Y016628D01*
X033830Y016630D01*
X033830Y013130D02*
X033680Y013130D01*
X033630Y013080D01*
X031730Y013080D01*
X031680Y013130D01*
X031530Y013130D01*
X031513Y013128D01*
X031496Y013124D01*
X031480Y013117D01*
X031466Y013107D01*
X031453Y013094D01*
X031443Y013080D01*
X031436Y013064D01*
X031432Y013047D01*
X031430Y013030D01*
X031430Y012330D01*
X031432Y012313D01*
X031436Y012296D01*
X031443Y012280D01*
X031453Y012266D01*
X031466Y012253D01*
X031480Y012243D01*
X031496Y012236D01*
X031513Y012232D01*
X031530Y012230D01*
X031680Y012230D01*
X031730Y012280D01*
X033630Y012280D01*
X033680Y012230D01*
X033830Y012230D01*
X033847Y012232D01*
X033864Y012236D01*
X033880Y012243D01*
X033894Y012253D01*
X033907Y012266D01*
X033917Y012280D01*
X033924Y012296D01*
X033928Y012313D01*
X033930Y012330D01*
X033930Y013030D01*
X033928Y013047D01*
X033924Y013064D01*
X033917Y013080D01*
X033907Y013094D01*
X033894Y013107D01*
X033880Y013117D01*
X033864Y013124D01*
X033847Y013128D01*
X033830Y013130D01*
X033830Y011630D02*
X033680Y011630D01*
X033630Y011580D01*
X031730Y011580D01*
X031680Y011630D01*
X031530Y011630D01*
X031513Y011628D01*
X031496Y011624D01*
X031480Y011617D01*
X031466Y011607D01*
X031453Y011594D01*
X031443Y011580D01*
X031436Y011564D01*
X031432Y011547D01*
X031430Y011530D01*
X031430Y010830D01*
X031432Y010813D01*
X031436Y010796D01*
X031443Y010780D01*
X031453Y010766D01*
X031466Y010753D01*
X031480Y010743D01*
X031496Y010736D01*
X031513Y010732D01*
X031530Y010730D01*
X031680Y010730D01*
X031730Y010780D01*
X033630Y010780D01*
X033680Y010730D01*
X033830Y010730D01*
X033847Y010732D01*
X033864Y010736D01*
X033880Y010743D01*
X033894Y010753D01*
X033907Y010766D01*
X033917Y010780D01*
X033924Y010796D01*
X033928Y010813D01*
X033930Y010830D01*
X033930Y011530D01*
X033928Y011547D01*
X033924Y011564D01*
X033917Y011580D01*
X033907Y011594D01*
X033894Y011607D01*
X033880Y011617D01*
X033864Y011624D01*
X033847Y011628D01*
X033830Y011630D01*
X033830Y009130D02*
X033680Y009130D01*
X033630Y009080D01*
X031730Y009080D01*
X031680Y009130D01*
X031530Y009130D01*
X031513Y009128D01*
X031496Y009124D01*
X031480Y009117D01*
X031466Y009107D01*
X031453Y009094D01*
X031443Y009080D01*
X031436Y009064D01*
X031432Y009047D01*
X031430Y009030D01*
X031430Y008330D01*
X031432Y008313D01*
X031436Y008296D01*
X031443Y008280D01*
X031453Y008266D01*
X031466Y008253D01*
X031480Y008243D01*
X031496Y008236D01*
X031513Y008232D01*
X031530Y008230D01*
X031680Y008230D01*
X031730Y008280D01*
X033630Y008280D01*
X033680Y008230D01*
X033830Y008230D01*
X033847Y008232D01*
X033864Y008236D01*
X033880Y008243D01*
X033894Y008253D01*
X033907Y008266D01*
X033917Y008280D01*
X033924Y008296D01*
X033928Y008313D01*
X033930Y008330D01*
X033930Y009030D01*
X033928Y009047D01*
X033924Y009064D01*
X033917Y009080D01*
X033907Y009094D01*
X033894Y009107D01*
X033880Y009117D01*
X033864Y009124D01*
X033847Y009128D01*
X033830Y009130D01*
X033830Y007630D02*
X033680Y007630D01*
X033630Y007580D01*
X031730Y007580D01*
X031680Y007630D01*
X031530Y007630D01*
X031513Y007628D01*
X031496Y007624D01*
X031480Y007617D01*
X031466Y007607D01*
X031453Y007594D01*
X031443Y007580D01*
X031436Y007564D01*
X031432Y007547D01*
X031430Y007530D01*
X031430Y006830D01*
X031432Y006813D01*
X031436Y006796D01*
X031443Y006780D01*
X031453Y006766D01*
X031466Y006753D01*
X031480Y006743D01*
X031496Y006736D01*
X031513Y006732D01*
X031530Y006730D01*
X031680Y006730D01*
X031730Y006780D01*
X033630Y006780D01*
X033680Y006730D01*
X033830Y006730D01*
X033847Y006732D01*
X033864Y006736D01*
X033880Y006743D01*
X033894Y006753D01*
X033907Y006766D01*
X033917Y006780D01*
X033924Y006796D01*
X033928Y006813D01*
X033930Y006830D01*
X033930Y007530D01*
X033928Y007547D01*
X033924Y007564D01*
X033917Y007580D01*
X033907Y007594D01*
X033894Y007607D01*
X033880Y007617D01*
X033864Y007624D01*
X033847Y007628D01*
X033830Y007630D01*
X033077Y002801D02*
X032970Y002801D01*
X033077Y002801D02*
X033077Y002160D01*
X032970Y002160D02*
X033184Y002160D01*
X028242Y002480D02*
X028029Y002480D01*
X027813Y002480D02*
X027599Y002480D01*
X027382Y002480D02*
X027382Y002374D01*
X026955Y002374D01*
X026955Y002480D02*
X027061Y002587D01*
X027275Y002587D01*
X027382Y002480D01*
X027275Y002160D02*
X027061Y002160D01*
X026955Y002267D01*
X026955Y002480D01*
X026737Y002801D02*
X026524Y002801D01*
X026630Y002801D02*
X026630Y002267D01*
X026524Y002160D01*
X026417Y002160D01*
X026310Y002267D01*
X026417Y001751D02*
X026310Y001644D01*
X026310Y001217D01*
X026417Y001110D01*
X026630Y001110D01*
X026737Y001217D01*
X026737Y001430D01*
X026524Y001430D01*
X026737Y001644D02*
X026630Y001751D01*
X026417Y001751D01*
X026955Y001751D02*
X027275Y001751D01*
X027382Y001644D01*
X027382Y001430D01*
X027275Y001324D01*
X026955Y001324D01*
X026955Y001110D02*
X026955Y001751D01*
X027599Y001751D02*
X027599Y001217D01*
X027706Y001110D01*
X027919Y001110D01*
X028026Y001217D01*
X028026Y001751D01*
X028136Y002160D02*
X028136Y002694D01*
X028242Y002801D01*
X027813Y002801D02*
X027706Y002694D01*
X027706Y002160D01*
X028180Y015080D02*
X024180Y015080D01*
X024180Y017280D01*
X028180Y017280D01*
X028180Y015080D01*
X026680Y016180D02*
X026180Y016180D01*
X026180Y016410D01*
X026180Y016180D02*
X025280Y016180D01*
X025730Y015950D02*
X025730Y016410D01*
X026180Y016180D01*
X025730Y015950D01*
X026180Y015950D02*
X026180Y016180D01*
X028180Y018080D02*
X024180Y018080D01*
X024180Y020280D01*
X028180Y020280D01*
X028180Y018080D01*
X026680Y019180D02*
X026180Y019180D01*
X026180Y019410D01*
X026180Y019180D02*
X025730Y018950D01*
X025730Y019410D01*
X026180Y019180D01*
X025280Y019180D01*
X026180Y019180D02*
X026180Y018950D01*
X028180Y022580D02*
X024180Y022580D01*
X024180Y024780D01*
X028180Y024780D01*
X028180Y022580D01*
X026680Y023680D02*
X026180Y023680D01*
X026180Y023910D01*
X026180Y023680D02*
X025280Y023680D01*
X025730Y023450D02*
X025730Y023910D01*
X026180Y023680D01*
X025730Y023450D01*
X026180Y023450D02*
X026180Y023680D01*
X028180Y025580D02*
X024180Y025580D01*
X024180Y027780D01*
X028180Y027780D01*
X028180Y025580D01*
X026680Y026680D02*
X026180Y026680D01*
X026180Y026910D01*
X026180Y026680D02*
X025730Y026450D01*
X025730Y026910D01*
X026180Y026680D01*
X025280Y026680D01*
X026180Y026680D02*
X026180Y026450D01*
X011680Y036430D02*
X011430Y036680D01*
X010930Y036680D01*
X010680Y036430D01*
X003080Y019630D02*
X002280Y019630D01*
X002263Y019628D01*
X002246Y019624D01*
X002230Y019617D01*
X002216Y019607D01*
X002203Y019594D01*
X002193Y019580D01*
X002186Y019564D01*
X002182Y019547D01*
X002180Y019530D01*
X002180Y017830D01*
X002182Y017813D01*
X002186Y017796D01*
X002193Y017780D01*
X002203Y017766D01*
X002216Y017753D01*
X002230Y017743D01*
X002246Y017736D01*
X002263Y017732D01*
X002280Y017730D01*
X003080Y017730D01*
X003097Y017732D01*
X003114Y017736D01*
X003130Y017743D01*
X003144Y017753D01*
X003157Y017766D01*
X003167Y017780D01*
X003174Y017796D01*
X003178Y017813D01*
X003180Y017830D01*
X003180Y019530D01*
X003178Y019547D01*
X003174Y019564D01*
X003167Y019580D01*
X003157Y019594D01*
X003144Y019607D01*
X003130Y019617D01*
X003114Y019624D01*
X003097Y019628D01*
X003080Y019630D01*
X002680Y018830D02*
X002680Y018780D01*
X002680Y018580D02*
X002680Y018530D01*
D12*
X002688Y015860D02*
X002381Y015860D01*
X002381Y015400D01*
X002688Y015400D01*
X002535Y015630D02*
X002381Y015630D01*
X002228Y015553D02*
X002228Y015477D01*
X002151Y015400D01*
X001998Y015400D01*
X001921Y015477D01*
X001998Y015630D02*
X001921Y015707D01*
X001921Y015784D01*
X001998Y015860D01*
X002151Y015860D01*
X002228Y015784D01*
X002151Y015630D02*
X002228Y015553D01*
X002151Y015630D02*
X001998Y015630D01*
X001767Y015400D02*
X001460Y015400D01*
X001460Y015860D01*
X001767Y015860D01*
X001614Y015630D02*
X001460Y015630D01*
X001307Y015630D02*
X001230Y015553D01*
X001000Y015553D01*
X001000Y015400D02*
X001000Y015860D01*
X001230Y015860D01*
X001307Y015784D01*
X001307Y015630D01*
X001153Y015553D02*
X001307Y015400D01*
X002842Y015860D02*
X003148Y015860D01*
X002995Y015860D02*
X002995Y015400D01*
X006600Y020100D02*
X006600Y020560D01*
X006830Y020560D01*
X006907Y020484D01*
X006907Y020330D01*
X006830Y020253D01*
X006600Y020253D01*
X006600Y020650D02*
X006600Y021110D01*
X006830Y021110D01*
X006907Y021034D01*
X006907Y020880D01*
X006830Y020803D01*
X006600Y020803D01*
X006600Y021200D02*
X006600Y021660D01*
X006830Y021660D01*
X006907Y021584D01*
X006907Y021430D01*
X006830Y021353D01*
X006600Y021353D01*
X006753Y021750D02*
X006600Y021903D01*
X006600Y022210D01*
X006753Y022300D02*
X006600Y022453D01*
X006600Y022760D01*
X006600Y022850D02*
X006600Y023310D01*
X006830Y023310D01*
X006907Y023234D01*
X006907Y023080D01*
X006830Y023003D01*
X006600Y023003D01*
X006907Y022760D02*
X006907Y022453D01*
X006753Y022300D01*
X006907Y022210D02*
X006907Y021903D01*
X006753Y021750D01*
X007060Y021827D02*
X007060Y021980D01*
X007137Y022057D01*
X007367Y022057D01*
X007367Y022210D02*
X007367Y021750D01*
X007137Y021750D01*
X007060Y021827D01*
X007214Y021660D02*
X007060Y021507D01*
X007060Y021200D01*
X007214Y021110D02*
X007060Y020957D01*
X007060Y020650D01*
X007214Y020560D02*
X007060Y020407D01*
X007060Y020100D01*
X007060Y020330D02*
X007367Y020330D01*
X007367Y020407D02*
X007367Y020100D01*
X007521Y020100D02*
X007828Y020407D01*
X007828Y020484D01*
X007751Y020560D01*
X007598Y020560D01*
X007521Y020484D01*
X007521Y020650D02*
X007828Y020650D01*
X007674Y020650D02*
X007674Y021110D01*
X007521Y020957D01*
X007367Y020957D02*
X007367Y020650D01*
X007214Y020560D02*
X007367Y020407D01*
X007521Y020100D02*
X007828Y020100D01*
X007367Y020880D02*
X007060Y020880D01*
X007214Y021110D02*
X007367Y020957D01*
X007367Y021200D02*
X007367Y021507D01*
X007214Y021660D01*
X007060Y021430D02*
X007367Y021430D01*
X007521Y021277D02*
X007598Y021200D01*
X007751Y021200D01*
X007828Y021277D01*
X007828Y021584D01*
X007521Y021277D01*
X007521Y021584D01*
X007598Y021660D01*
X007751Y021660D01*
X007828Y021584D01*
X007828Y021750D02*
X007598Y021750D01*
X007521Y021827D01*
X007521Y021980D01*
X007598Y022057D01*
X007828Y022057D01*
X007981Y022057D02*
X007981Y021750D01*
X007828Y021750D02*
X007828Y022210D01*
X007751Y022300D02*
X007828Y022377D01*
X007751Y022453D01*
X007598Y022453D01*
X007521Y022530D01*
X007598Y022607D01*
X007828Y022607D01*
X007981Y022607D02*
X007981Y022300D01*
X008135Y022210D02*
X008288Y022057D01*
X008288Y021750D01*
X008288Y021980D02*
X007981Y021980D01*
X007981Y022057D02*
X008135Y022210D01*
X008288Y022300D02*
X008288Y022607D01*
X008135Y022760D01*
X007981Y022607D01*
X007981Y022530D02*
X008288Y022530D01*
X007751Y022300D02*
X007521Y022300D01*
X007367Y022377D02*
X007291Y022453D01*
X007137Y022453D01*
X007060Y022530D01*
X007137Y022607D01*
X007367Y022607D01*
X007367Y022377D02*
X007291Y022300D01*
X007060Y022300D01*
X007137Y022850D02*
X007060Y022927D01*
X007060Y023234D01*
X007137Y023310D01*
X007291Y023310D01*
X007367Y023234D01*
X007521Y023234D02*
X007598Y023310D01*
X007751Y023310D01*
X007828Y023234D01*
X007828Y023157D01*
X007751Y023080D01*
X007828Y023003D01*
X007828Y022927D01*
X007751Y022850D01*
X007598Y022850D01*
X007521Y022927D01*
X007367Y022927D02*
X007291Y022850D01*
X007137Y022850D01*
X007137Y023400D02*
X007060Y023477D01*
X007060Y023784D01*
X007137Y023860D01*
X007291Y023860D01*
X007367Y023784D01*
X007521Y023784D02*
X007598Y023860D01*
X007751Y023860D01*
X007828Y023784D01*
X007828Y023707D01*
X007521Y023400D01*
X007828Y023400D01*
X007751Y023080D02*
X007674Y023080D01*
X007291Y023400D02*
X007367Y023477D01*
X007291Y023400D02*
X007137Y023400D01*
X006907Y023630D02*
X006830Y023553D01*
X006600Y023553D01*
X006600Y023400D02*
X006600Y023860D01*
X006830Y023860D01*
X006907Y023784D01*
X006907Y023630D01*
X007137Y023950D02*
X007060Y024027D01*
X007060Y024334D01*
X007137Y024410D01*
X007291Y024410D01*
X007367Y024334D01*
X007521Y024257D02*
X007674Y024410D01*
X007674Y023950D01*
X007521Y023950D02*
X007828Y023950D01*
X007367Y024027D02*
X007291Y023950D01*
X007137Y023950D01*
X006907Y024180D02*
X006830Y024103D01*
X006600Y024103D01*
X006600Y023950D02*
X006600Y024410D01*
X006830Y024410D01*
X006907Y024334D01*
X006907Y024180D01*
X007137Y024500D02*
X007060Y024577D01*
X007060Y024884D01*
X007137Y024960D01*
X007291Y024960D01*
X007367Y024884D01*
X007521Y024884D02*
X007521Y024577D01*
X007828Y024884D01*
X007828Y024577D01*
X007751Y024500D01*
X007598Y024500D01*
X007521Y024577D01*
X007367Y024577D02*
X007291Y024500D01*
X007137Y024500D01*
X006907Y024730D02*
X006907Y024884D01*
X006830Y024960D01*
X006600Y024960D01*
X006600Y024500D01*
X006600Y024653D02*
X006830Y024653D01*
X006907Y024730D01*
X006907Y025050D02*
X006907Y025510D01*
X007060Y025510D02*
X007291Y025510D01*
X007367Y025434D01*
X007367Y025280D01*
X007291Y025203D01*
X007060Y025203D01*
X007060Y025050D02*
X007060Y025510D01*
X007060Y025600D02*
X007060Y026060D01*
X007060Y026150D02*
X007060Y026610D01*
X007137Y026700D02*
X007060Y026777D01*
X007060Y027084D01*
X007137Y027160D01*
X007291Y027160D01*
X007367Y027084D01*
X007521Y027007D02*
X007674Y027160D01*
X007674Y026700D01*
X007598Y026610D02*
X007751Y026610D01*
X007828Y026534D01*
X007521Y026227D01*
X007598Y026150D01*
X007751Y026150D01*
X007828Y026227D01*
X007828Y026534D01*
X007828Y026700D02*
X007521Y026700D01*
X007598Y026610D02*
X007521Y026534D01*
X007521Y026227D01*
X007367Y026150D02*
X007367Y026610D01*
X007291Y026700D02*
X007367Y026777D01*
X007291Y026700D02*
X007137Y026700D01*
X006907Y026534D02*
X006907Y026380D01*
X006830Y026303D01*
X006600Y026303D01*
X006600Y026150D02*
X006600Y026610D01*
X006830Y026610D01*
X006907Y026534D01*
X007060Y026380D02*
X007367Y026380D01*
X007367Y026060D02*
X007367Y025600D01*
X007521Y025600D02*
X007828Y025600D01*
X007751Y025510D02*
X007598Y025510D01*
X007521Y025434D01*
X007521Y025357D01*
X007598Y025280D01*
X007751Y025280D01*
X007828Y025203D01*
X007828Y025127D01*
X007751Y025050D01*
X007598Y025050D01*
X007521Y025127D01*
X007367Y025050D02*
X007214Y025203D01*
X006907Y025050D02*
X006600Y025510D01*
X006600Y025050D01*
X006600Y025600D02*
X006600Y026060D01*
X006830Y026060D01*
X006907Y025984D01*
X006907Y025830D01*
X006830Y025753D01*
X006600Y025753D01*
X007060Y025830D02*
X007367Y025830D01*
X007521Y025907D02*
X007674Y026060D01*
X007674Y025600D01*
X007751Y025510D02*
X007828Y025434D01*
X007981Y025510D02*
X008288Y025510D01*
X008135Y025510D02*
X008135Y025050D01*
X007828Y024884D02*
X007751Y024960D01*
X007598Y024960D01*
X007521Y024884D01*
X008058Y026700D02*
X007981Y026777D01*
X008058Y026700D02*
X008211Y026700D01*
X008288Y026777D01*
X008288Y026930D01*
X008211Y027007D01*
X008135Y027007D01*
X007981Y026930D01*
X007981Y027160D01*
X008288Y027160D01*
X008211Y027250D02*
X008211Y027710D01*
X007981Y027480D01*
X008288Y027480D01*
X008211Y027800D02*
X008058Y027800D01*
X007981Y027877D01*
X007828Y027800D02*
X007521Y027800D01*
X007674Y027800D02*
X007674Y028260D01*
X007521Y028107D01*
X007367Y028184D02*
X007291Y028260D01*
X007137Y028260D01*
X007060Y028184D01*
X007060Y027877D01*
X007137Y027800D01*
X007291Y027800D01*
X007367Y027877D01*
X007291Y027710D02*
X007137Y027710D01*
X007060Y027634D01*
X007060Y027327D01*
X007137Y027250D01*
X007291Y027250D01*
X007367Y027327D01*
X007521Y027250D02*
X007828Y027250D01*
X007674Y027250D02*
X007674Y027710D01*
X007521Y027557D01*
X007367Y027634D02*
X007291Y027710D01*
X006907Y027634D02*
X006907Y027480D01*
X006830Y027403D01*
X006600Y027403D01*
X006600Y027250D02*
X006600Y027710D01*
X006830Y027710D01*
X006907Y027634D01*
X006830Y027953D02*
X006600Y027953D01*
X006600Y027800D02*
X006600Y028260D01*
X006830Y028260D01*
X006907Y028184D01*
X006907Y028030D01*
X006830Y027953D01*
X006753Y028350D02*
X006600Y028503D01*
X006600Y028810D01*
X006907Y028810D02*
X006907Y028503D01*
X006753Y028350D01*
X007060Y028350D02*
X007291Y028350D01*
X007367Y028427D01*
X007367Y028503D01*
X007291Y028580D01*
X007060Y028580D01*
X007060Y028350D02*
X007060Y028810D01*
X007291Y028810D01*
X007367Y028734D01*
X007367Y028657D01*
X007291Y028580D01*
X007521Y028580D02*
X007828Y028580D01*
X007828Y028657D02*
X007828Y028350D01*
X007981Y028184D02*
X008058Y028260D01*
X008211Y028260D01*
X008288Y028184D01*
X008288Y028107D01*
X008211Y028030D01*
X008288Y027953D01*
X008288Y027877D01*
X008211Y027800D01*
X008211Y028030D02*
X008135Y028030D01*
X008135Y028350D02*
X008135Y028810D01*
X008288Y028810D02*
X007981Y028810D01*
X007828Y028657D02*
X007674Y028810D01*
X007521Y028657D01*
X007521Y028350D01*
X006830Y027160D02*
X006600Y027160D01*
X006600Y026700D01*
X006600Y026853D02*
X006830Y026853D01*
X006907Y026930D01*
X006907Y027084D01*
X006830Y027160D01*
X009050Y027400D02*
X009357Y027400D01*
X009510Y027553D01*
X009357Y027707D01*
X009050Y027707D01*
X009280Y027860D02*
X009203Y027937D01*
X009203Y028167D01*
X009050Y028167D02*
X009510Y028167D01*
X009510Y027937D01*
X009433Y027860D01*
X009280Y027860D01*
X009600Y027707D02*
X009907Y027707D01*
X010060Y027553D01*
X009907Y027400D01*
X009600Y027400D01*
X009830Y027860D02*
X009753Y027937D01*
X009753Y028167D01*
X009907Y028091D02*
X009907Y027937D01*
X009830Y027860D01*
X010060Y027860D02*
X010060Y028091D01*
X009983Y028167D01*
X009907Y028091D01*
X009830Y028321D02*
X009753Y028398D01*
X009753Y028628D01*
X009907Y028551D02*
X009907Y028398D01*
X009830Y028321D01*
X010060Y028321D02*
X010060Y028551D01*
X009983Y028628D01*
X009907Y028551D01*
X010150Y028551D02*
X010150Y028398D01*
X010226Y028321D01*
X010303Y028321D01*
X010380Y028398D01*
X010380Y028628D01*
X010533Y028628D02*
X010226Y028628D01*
X010150Y028551D01*
X010533Y028628D02*
X010610Y028551D01*
X010610Y028398D01*
X010533Y028321D01*
X010533Y028167D02*
X010610Y028091D01*
X010610Y027860D01*
X010150Y027860D01*
X010150Y028091D01*
X010226Y028167D01*
X010303Y028167D01*
X010380Y028091D01*
X010380Y027860D01*
X010380Y027707D02*
X010457Y027630D01*
X010457Y027400D01*
X010610Y027400D02*
X010150Y027400D01*
X010150Y027630D01*
X010226Y027707D01*
X010380Y027707D01*
X010700Y027630D02*
X010700Y027400D01*
X011160Y027400D01*
X011250Y027400D02*
X011250Y027630D01*
X011326Y027707D01*
X011403Y027707D01*
X011480Y027630D01*
X011480Y027400D01*
X011710Y027400D02*
X011710Y027630D01*
X011633Y027707D01*
X011557Y027707D01*
X011480Y027630D01*
X011633Y027860D02*
X011710Y027937D01*
X011710Y028091D01*
X011633Y028167D01*
X011326Y028167D01*
X011250Y028091D01*
X011250Y027937D01*
X011326Y027860D01*
X011633Y027860D01*
X011800Y027860D02*
X011800Y028091D01*
X011876Y028167D01*
X011953Y028167D01*
X012030Y028091D01*
X012030Y027860D01*
X012030Y027707D02*
X012107Y027630D01*
X012107Y027400D01*
X012260Y027400D02*
X011800Y027400D01*
X011800Y027630D01*
X011876Y027707D01*
X012030Y027707D01*
X012260Y027860D02*
X012260Y028091D01*
X012183Y028167D01*
X012107Y028167D01*
X012030Y028091D01*
X012183Y028321D02*
X012260Y028321D01*
X012183Y028321D02*
X011876Y028628D01*
X011800Y028628D01*
X011800Y028321D01*
X011710Y028398D02*
X011633Y028321D01*
X011326Y028321D01*
X011250Y028398D01*
X011250Y028551D01*
X011326Y028628D01*
X011633Y028628D01*
X011710Y028551D01*
X011710Y028398D01*
X011710Y028935D02*
X011250Y028935D01*
X011250Y029088D02*
X011250Y028781D01*
X011083Y028628D02*
X011007Y028628D01*
X010930Y028551D01*
X010930Y028398D01*
X010853Y028321D01*
X010776Y028321D01*
X010700Y028398D01*
X010700Y028551D01*
X010776Y028628D01*
X010853Y028628D01*
X010930Y028551D01*
X010930Y028398D02*
X011007Y028321D01*
X011083Y028321D01*
X011160Y028398D01*
X011160Y028551D01*
X011083Y028628D01*
X011083Y028167D02*
X011007Y028167D01*
X010930Y028091D01*
X010930Y027860D01*
X010930Y027707D02*
X011007Y027630D01*
X011007Y027400D01*
X011250Y027400D02*
X011710Y027400D01*
X011800Y027860D02*
X012260Y027860D01*
X012350Y027860D02*
X012350Y028091D01*
X012426Y028167D01*
X012503Y028167D01*
X012580Y028091D01*
X012580Y027860D01*
X012580Y027707D02*
X012657Y027630D01*
X012657Y027400D01*
X012810Y027400D02*
X012350Y027400D01*
X012350Y027630D01*
X012426Y027707D01*
X012580Y027707D01*
X012810Y027860D02*
X012350Y027860D01*
X012580Y028091D02*
X012657Y028167D01*
X012733Y028167D01*
X012810Y028091D01*
X012810Y027860D01*
X012900Y027860D02*
X012900Y028091D01*
X012976Y028167D01*
X013053Y028167D01*
X013130Y028091D01*
X013130Y027860D01*
X013130Y027707D02*
X013207Y027630D01*
X013207Y027400D01*
X013360Y027400D02*
X012900Y027400D01*
X012900Y027630D01*
X012976Y027707D01*
X013130Y027707D01*
X013360Y027860D02*
X013360Y028091D01*
X013283Y028167D01*
X013207Y028167D01*
X013130Y028091D01*
X013130Y028321D02*
X013053Y028474D01*
X013053Y028551D01*
X013130Y028628D01*
X013283Y028628D01*
X013360Y028551D01*
X013360Y028398D01*
X013283Y028321D01*
X013130Y028321D02*
X012900Y028321D01*
X012900Y028628D01*
X012810Y028551D02*
X012733Y028628D01*
X012657Y028628D01*
X012580Y028551D01*
X012580Y028321D01*
X012733Y028321D01*
X012810Y028398D01*
X012810Y028551D01*
X012580Y028321D02*
X012426Y028474D01*
X012350Y028628D01*
X011710Y029318D02*
X011633Y029242D01*
X011326Y029548D01*
X011633Y029548D01*
X011710Y029472D01*
X011710Y029318D01*
X011633Y029242D02*
X011326Y029242D01*
X011250Y029318D01*
X011250Y029472D01*
X011326Y029548D01*
X011083Y028167D02*
X011160Y028091D01*
X011160Y027860D01*
X010700Y027860D01*
X010700Y028091D01*
X010776Y028167D01*
X010853Y028167D01*
X010930Y028091D01*
X010930Y027707D02*
X010776Y027707D01*
X010700Y027630D01*
X010380Y028091D02*
X010457Y028167D01*
X010533Y028167D01*
X009510Y028398D02*
X009433Y028321D01*
X009280Y028321D01*
X009203Y028398D01*
X009203Y028628D01*
X009050Y028628D02*
X009510Y028628D01*
X009510Y028398D01*
X012900Y027860D02*
X013360Y027860D01*
X013450Y027860D02*
X013450Y028091D01*
X013526Y028167D01*
X013603Y028167D01*
X013680Y028091D01*
X013680Y027860D01*
X013680Y027707D02*
X013757Y027630D01*
X013757Y027400D01*
X013910Y027400D02*
X013450Y027400D01*
X013450Y027630D01*
X013526Y027707D01*
X013680Y027707D01*
X013910Y027860D02*
X013450Y027860D01*
X013680Y028091D02*
X013757Y028167D01*
X013833Y028167D01*
X013910Y028091D01*
X013910Y027860D01*
X014000Y027860D02*
X014000Y028091D01*
X014076Y028167D01*
X014153Y028167D01*
X014230Y028091D01*
X014230Y027860D01*
X014230Y027707D02*
X014307Y027630D01*
X014307Y027400D01*
X014460Y027400D02*
X014000Y027400D01*
X014000Y027630D01*
X014076Y027707D01*
X014230Y027707D01*
X014460Y027860D02*
X014460Y028091D01*
X014383Y028167D01*
X014307Y028167D01*
X014230Y028091D01*
X014383Y028321D02*
X014460Y028398D01*
X014460Y028551D01*
X014383Y028628D01*
X014307Y028628D01*
X014230Y028551D01*
X014230Y028474D01*
X014230Y028551D02*
X014153Y028628D01*
X014076Y028628D01*
X014000Y028551D01*
X014000Y028398D01*
X014076Y028321D01*
X013910Y028551D02*
X013450Y028551D01*
X013680Y028321D01*
X013680Y028628D01*
X014000Y027860D02*
X014460Y027860D01*
X014550Y027860D02*
X014550Y028091D01*
X014626Y028167D01*
X014933Y028167D01*
X015010Y028091D01*
X015010Y027860D01*
X014550Y027860D01*
X014626Y027707D02*
X014550Y027630D01*
X014550Y027400D01*
X015010Y027400D01*
X015100Y027400D02*
X015100Y027630D01*
X015176Y027707D01*
X015330Y027707D01*
X015407Y027630D01*
X015407Y027400D01*
X015560Y027400D02*
X015100Y027400D01*
X014857Y027400D02*
X014857Y027630D01*
X014780Y027707D01*
X014626Y027707D01*
X015100Y027937D02*
X015100Y028091D01*
X015176Y028167D01*
X015253Y028321D02*
X015100Y028474D01*
X015560Y028474D01*
X015650Y028474D02*
X016110Y028474D01*
X016200Y028474D02*
X016353Y028321D01*
X016276Y028167D02*
X016200Y028091D01*
X016200Y027937D01*
X016276Y027860D01*
X016583Y027860D01*
X016660Y027937D01*
X016660Y028091D01*
X016583Y028167D01*
X016660Y028321D02*
X016660Y028628D01*
X016660Y028474D02*
X016200Y028474D01*
X016110Y028321D02*
X016110Y028628D01*
X016110Y028781D02*
X016110Y029088D01*
X016200Y029011D02*
X016276Y029088D01*
X016583Y028781D01*
X016660Y028858D01*
X016660Y029011D01*
X016583Y029088D01*
X016276Y029088D01*
X016200Y029011D02*
X016200Y028858D01*
X016276Y028781D01*
X016583Y028781D01*
X016750Y028781D02*
X016980Y028781D01*
X016903Y028935D01*
X016903Y029011D01*
X016980Y029088D01*
X017133Y029088D01*
X017210Y029011D01*
X017210Y028858D01*
X017133Y028781D01*
X017210Y028628D02*
X017210Y028321D01*
X017210Y028474D02*
X016750Y028474D01*
X016903Y028321D01*
X016903Y028167D02*
X017210Y028167D01*
X017300Y028014D02*
X017453Y028167D01*
X017760Y028167D01*
X017760Y028321D02*
X017760Y028628D01*
X017760Y028474D02*
X017300Y028474D01*
X017453Y028321D01*
X017530Y028167D02*
X017530Y027860D01*
X017453Y027860D02*
X017300Y028014D01*
X017210Y027860D02*
X016903Y027860D01*
X016750Y028014D01*
X016903Y028167D01*
X016980Y028167D02*
X016980Y027860D01*
X016980Y027707D02*
X017057Y027630D01*
X017057Y027400D01*
X017210Y027400D02*
X016750Y027400D01*
X016750Y027630D01*
X016826Y027707D01*
X016980Y027707D01*
X017300Y027630D02*
X017376Y027707D01*
X017530Y027707D01*
X017607Y027630D01*
X017607Y027400D01*
X017760Y027400D02*
X017300Y027400D01*
X017300Y027630D01*
X017453Y027860D02*
X017760Y027860D01*
X017530Y028781D02*
X017300Y029011D01*
X017760Y029011D01*
X017530Y029088D02*
X017530Y028781D01*
X016750Y028781D02*
X016750Y029088D01*
X016110Y028935D02*
X015650Y028935D01*
X015803Y028781D01*
X015560Y028781D02*
X015253Y029088D01*
X015176Y029088D01*
X015100Y029011D01*
X015100Y028858D01*
X015176Y028781D01*
X015010Y028628D02*
X015010Y028321D01*
X014703Y028628D01*
X014626Y028628D01*
X014550Y028551D01*
X014550Y028398D01*
X014626Y028321D01*
X015100Y027937D02*
X015176Y027860D01*
X015483Y027860D01*
X015560Y027937D01*
X015560Y028091D01*
X015483Y028167D01*
X015560Y028321D02*
X015560Y028628D01*
X015560Y028781D02*
X015560Y029088D01*
X015650Y028474D02*
X015803Y028321D01*
X015726Y028167D02*
X015650Y028091D01*
X015650Y027937D01*
X015726Y027860D01*
X016033Y027860D01*
X016110Y027937D01*
X016110Y028091D01*
X016033Y028167D01*
X015880Y027707D02*
X015726Y027707D01*
X015650Y027630D01*
X015650Y027400D01*
X016110Y027400D01*
X016200Y027400D02*
X016200Y027630D01*
X016276Y027707D01*
X016430Y027707D01*
X016507Y027630D01*
X016507Y027400D01*
X016660Y027400D02*
X016200Y027400D01*
X015957Y027400D02*
X015957Y027630D01*
X015880Y027707D01*
X018100Y023610D02*
X018100Y023303D01*
X018253Y023150D01*
X018407Y023303D01*
X018407Y023610D01*
X018560Y023380D02*
X018637Y023457D01*
X018867Y023457D01*
X018867Y023610D02*
X018867Y023150D01*
X018637Y023150D01*
X018560Y023227D01*
X018560Y023380D01*
X018407Y023060D02*
X018407Y022753D01*
X018253Y022600D01*
X018100Y022753D01*
X018100Y023060D01*
X018100Y022510D02*
X018330Y022510D01*
X018407Y022434D01*
X018407Y022280D01*
X018330Y022203D01*
X018100Y022203D01*
X018100Y022050D02*
X018100Y022510D01*
X018560Y022357D02*
X018714Y022510D01*
X018867Y022357D01*
X018867Y022050D01*
X019021Y022050D02*
X019328Y022050D01*
X019174Y022050D02*
X019174Y022510D01*
X019021Y022357D01*
X018867Y022280D02*
X018560Y022280D01*
X018560Y022357D02*
X018560Y022050D01*
X018714Y021960D02*
X018867Y021807D01*
X018867Y021500D01*
X019021Y021500D02*
X019328Y021500D01*
X019481Y021500D02*
X019788Y021807D01*
X019788Y021884D01*
X019711Y021960D01*
X019558Y021960D01*
X019481Y021884D01*
X019558Y022050D02*
X019481Y022127D01*
X019558Y022050D02*
X019711Y022050D01*
X019788Y022127D01*
X019788Y022203D01*
X019711Y022280D01*
X019635Y022280D01*
X019711Y022280D02*
X019788Y022357D01*
X019788Y022434D01*
X019711Y022510D01*
X019558Y022510D01*
X019481Y022434D01*
X019481Y022447D02*
X019481Y022907D01*
X019711Y022907D01*
X019788Y022830D01*
X019788Y022677D01*
X019711Y022600D01*
X019481Y022600D01*
X019328Y022600D02*
X019098Y022600D01*
X019021Y022677D01*
X019098Y022753D01*
X019328Y022753D01*
X019328Y022830D02*
X019328Y022600D01*
X019328Y022830D02*
X019251Y022907D01*
X019098Y022907D01*
X018867Y022907D02*
X018637Y022907D01*
X018560Y022830D01*
X018560Y022677D01*
X018637Y022600D01*
X018867Y022600D01*
X019098Y023150D02*
X019021Y023227D01*
X019021Y023380D01*
X019098Y023457D01*
X019328Y023457D01*
X019328Y023610D02*
X019328Y023150D01*
X019098Y023150D01*
X019942Y022984D02*
X020018Y023060D01*
X020172Y023060D01*
X020248Y022984D01*
X020248Y022907D01*
X019942Y022600D01*
X020248Y022600D01*
X019788Y021500D02*
X019481Y021500D01*
X019635Y021410D02*
X019635Y020950D01*
X019711Y020860D02*
X019558Y020860D01*
X019481Y020784D01*
X019481Y020477D01*
X019788Y020784D01*
X019788Y020477D01*
X019711Y020400D01*
X019558Y020400D01*
X019481Y020477D01*
X019328Y020400D02*
X019021Y020400D01*
X019098Y020310D02*
X019021Y020234D01*
X019021Y020157D01*
X019098Y020080D01*
X019328Y020080D01*
X019328Y019927D02*
X019328Y020234D01*
X019251Y020310D01*
X019098Y020310D01*
X019174Y020400D02*
X019174Y020860D01*
X019021Y020707D01*
X018867Y020707D02*
X018867Y020400D01*
X018714Y020310D02*
X018867Y020157D01*
X018867Y019850D01*
X019021Y019927D02*
X019098Y019850D01*
X019251Y019850D01*
X019328Y019927D01*
X019251Y019760D02*
X019328Y019684D01*
X019328Y019607D01*
X019251Y019530D01*
X019098Y019530D01*
X019021Y019607D01*
X019021Y019684D01*
X019098Y019760D01*
X019251Y019760D01*
X019251Y019530D02*
X019328Y019453D01*
X019328Y019377D01*
X019251Y019300D01*
X019098Y019300D01*
X019021Y019377D01*
X019021Y019453D01*
X019098Y019530D01*
X018867Y019530D02*
X018560Y019530D01*
X018560Y019607D02*
X018714Y019760D01*
X018867Y019607D01*
X018867Y019300D01*
X018791Y019210D02*
X018637Y019210D01*
X018560Y019134D01*
X018560Y018827D01*
X018637Y018750D01*
X018791Y018750D01*
X018867Y018827D01*
X019021Y018827D02*
X019098Y018750D01*
X019251Y018750D01*
X019328Y018827D01*
X019328Y019134D01*
X019251Y019210D01*
X019098Y019210D01*
X019021Y019134D01*
X019021Y019057D01*
X019098Y018980D01*
X019328Y018980D01*
X019251Y018660D02*
X019328Y018584D01*
X019328Y018507D01*
X019251Y018430D01*
X019098Y018430D01*
X019021Y018507D01*
X019021Y018584D01*
X019098Y018660D01*
X019251Y018660D01*
X019251Y018430D02*
X019328Y018353D01*
X019328Y018277D01*
X019251Y018200D01*
X019098Y018200D01*
X019021Y018277D01*
X019021Y018353D01*
X019098Y018430D01*
X018867Y018277D02*
X018791Y018200D01*
X018637Y018200D01*
X018560Y018277D01*
X018560Y018584D01*
X018637Y018660D01*
X018791Y018660D01*
X018867Y018584D01*
X018407Y018584D02*
X018407Y018430D01*
X018330Y018353D01*
X018100Y018353D01*
X018100Y018200D02*
X018100Y018660D01*
X018330Y018660D01*
X018407Y018584D01*
X018330Y018903D02*
X018100Y018903D01*
X018100Y018750D02*
X018100Y019210D01*
X018330Y019210D01*
X018407Y019134D01*
X018407Y018980D01*
X018330Y018903D01*
X018100Y019300D02*
X018100Y019760D01*
X018330Y019760D01*
X018407Y019684D01*
X018407Y019530D01*
X018330Y019453D01*
X018100Y019453D01*
X018100Y019850D02*
X018100Y020310D01*
X018330Y020310D01*
X018407Y020234D01*
X018407Y020080D01*
X018330Y020003D01*
X018100Y020003D01*
X018100Y020400D02*
X018100Y020860D01*
X018330Y020860D01*
X018407Y020784D01*
X018407Y020630D01*
X018330Y020553D01*
X018100Y020553D01*
X018100Y020950D02*
X018100Y021410D01*
X018330Y021410D01*
X018407Y021334D01*
X018407Y021180D01*
X018330Y021103D01*
X018100Y021103D01*
X018100Y021500D02*
X018100Y021960D01*
X018330Y021960D01*
X018407Y021884D01*
X018407Y021730D01*
X018330Y021653D01*
X018100Y021653D01*
X018560Y021730D02*
X018867Y021730D01*
X019021Y021807D02*
X019174Y021960D01*
X019174Y021500D01*
X019174Y021410D02*
X019174Y020950D01*
X019021Y020950D02*
X019328Y020950D01*
X019481Y020950D02*
X019788Y020950D01*
X019711Y020860D02*
X019788Y020784D01*
X019481Y021257D02*
X019635Y021410D01*
X019174Y021410D02*
X019021Y021257D01*
X018867Y021257D02*
X018867Y020950D01*
X018714Y020860D02*
X018867Y020707D01*
X018867Y020630D02*
X018560Y020630D01*
X018560Y020707D02*
X018714Y020860D01*
X018560Y020950D02*
X018560Y021257D01*
X018714Y021410D01*
X018867Y021257D01*
X018867Y021180D02*
X018560Y021180D01*
X018560Y021500D02*
X018560Y021807D01*
X018714Y021960D01*
X018560Y020707D02*
X018560Y020400D01*
X018714Y020310D02*
X018560Y020157D01*
X018560Y019850D01*
X018560Y020080D02*
X018867Y020080D01*
X018560Y019607D02*
X018560Y019300D01*
X018791Y019210D02*
X018867Y019134D01*
X018791Y018110D02*
X018637Y018110D01*
X018560Y018034D01*
X018560Y017727D01*
X018637Y017650D01*
X018791Y017650D01*
X018867Y017727D01*
X019021Y017727D02*
X019021Y017650D01*
X019021Y017727D02*
X019328Y018034D01*
X019328Y018110D01*
X019021Y018110D01*
X018867Y018034D02*
X018791Y018110D01*
X018407Y018034D02*
X018407Y017880D01*
X018330Y017803D01*
X018100Y017803D01*
X018100Y017650D02*
X018100Y018110D01*
X018330Y018110D01*
X018407Y018034D01*
X018330Y017560D02*
X018100Y017560D01*
X018100Y017100D01*
X018100Y017010D02*
X018330Y017010D01*
X018407Y016934D01*
X018407Y016780D01*
X018330Y016703D01*
X018100Y016703D01*
X018100Y016550D02*
X018100Y017010D01*
X018100Y017253D02*
X018330Y017253D01*
X018407Y017330D01*
X018407Y017484D01*
X018330Y017560D01*
X018560Y017484D02*
X018560Y017177D01*
X018637Y017100D01*
X018791Y017100D01*
X018867Y017177D01*
X019021Y017177D02*
X019021Y017330D01*
X019251Y017330D01*
X019328Y017253D01*
X019328Y017177D01*
X019251Y017100D01*
X019098Y017100D01*
X019021Y017177D01*
X019021Y017330D02*
X019174Y017484D01*
X019328Y017560D01*
X019481Y017010D02*
X019481Y016780D01*
X019635Y016857D01*
X019711Y016857D01*
X019788Y016780D01*
X019788Y016627D01*
X019711Y016550D01*
X019558Y016550D01*
X019481Y016627D01*
X019328Y016550D02*
X019021Y016550D01*
X019174Y016550D02*
X019174Y017010D01*
X019021Y016857D01*
X018867Y016857D02*
X018867Y016934D01*
X018791Y017010D01*
X018560Y017010D01*
X018560Y016550D01*
X018791Y016550D01*
X018867Y016627D01*
X018867Y016703D01*
X018791Y016780D01*
X018560Y016780D01*
X018791Y016780D02*
X018867Y016857D01*
X018791Y016460D02*
X018867Y016384D01*
X018867Y016307D01*
X018791Y016230D01*
X018560Y016230D01*
X018407Y016230D02*
X018330Y016153D01*
X018100Y016153D01*
X018100Y016000D02*
X018100Y016460D01*
X018330Y016460D01*
X018407Y016384D01*
X018407Y016230D01*
X018560Y016000D02*
X018791Y016000D01*
X018867Y016077D01*
X018867Y016153D01*
X018791Y016230D01*
X018791Y016460D02*
X018560Y016460D01*
X018560Y016000D01*
X018560Y015910D02*
X018791Y015910D01*
X018867Y015834D01*
X018867Y015757D01*
X018791Y015680D01*
X018560Y015680D01*
X018407Y015680D02*
X018407Y015834D01*
X018330Y015910D01*
X018100Y015910D01*
X018100Y015450D01*
X018100Y015360D02*
X018330Y015360D01*
X018407Y015284D01*
X018407Y015130D01*
X018330Y015053D01*
X018100Y015053D01*
X018100Y014900D02*
X018100Y015360D01*
X018100Y015603D02*
X018330Y015603D01*
X018407Y015680D01*
X018560Y015450D02*
X018560Y015910D01*
X018791Y015680D02*
X018867Y015603D01*
X018867Y015527D01*
X018791Y015450D01*
X018560Y015450D01*
X018560Y015360D02*
X018791Y015360D01*
X018867Y015284D01*
X018867Y015207D01*
X018791Y015130D01*
X018560Y015130D01*
X018560Y014900D02*
X018791Y014900D01*
X018867Y014977D01*
X018867Y015053D01*
X018791Y015130D01*
X019021Y015207D02*
X019174Y015360D01*
X019174Y014900D01*
X019021Y014900D02*
X019328Y014900D01*
X019481Y014900D02*
X019788Y015207D01*
X019788Y015284D01*
X019711Y015360D01*
X019558Y015360D01*
X019481Y015284D01*
X019558Y015450D02*
X019481Y015527D01*
X019558Y015450D02*
X019711Y015450D01*
X019788Y015527D01*
X019788Y015603D01*
X019711Y015680D01*
X019635Y015680D01*
X019711Y015680D02*
X019788Y015757D01*
X019788Y015834D01*
X019711Y015910D01*
X019558Y015910D01*
X019481Y015834D01*
X019328Y016000D02*
X019021Y016000D01*
X019174Y016000D02*
X019174Y016460D01*
X019021Y016307D01*
X019174Y015910D02*
X019174Y015450D01*
X019021Y015450D02*
X019328Y015450D01*
X019021Y015757D02*
X019174Y015910D01*
X019481Y016230D02*
X019788Y016230D01*
X019711Y016000D02*
X019711Y016460D01*
X019481Y016230D01*
X019481Y017010D02*
X019788Y017010D01*
X018867Y017484D02*
X018791Y017560D01*
X018637Y017560D01*
X018560Y017484D01*
X018560Y015360D02*
X018560Y014900D01*
X019481Y014900D02*
X019788Y014900D01*
X016960Y013828D02*
X016960Y013598D01*
X016883Y013521D01*
X016730Y013521D01*
X016653Y013598D01*
X016653Y013828D01*
X016500Y013828D02*
X016960Y013828D01*
X016563Y013981D02*
X016103Y013981D01*
X016103Y014211D01*
X016180Y014288D01*
X016333Y014288D01*
X016410Y014211D01*
X016410Y013981D01*
X016410Y013828D02*
X016410Y013598D01*
X016333Y013521D01*
X016257Y013598D01*
X016257Y013828D01*
X016180Y013828D02*
X016410Y013828D01*
X016180Y013828D02*
X016103Y013751D01*
X016103Y013598D01*
X016103Y013367D02*
X016103Y013137D01*
X016180Y013060D01*
X016333Y013060D01*
X016410Y013137D01*
X016410Y013367D01*
X016500Y013367D02*
X016960Y013367D01*
X016960Y013137D01*
X016883Y013060D01*
X016730Y013060D01*
X016653Y013137D01*
X016653Y013367D01*
X016500Y012907D02*
X016807Y012907D01*
X016960Y012753D01*
X016807Y012600D01*
X016500Y012600D01*
X016410Y012753D02*
X016257Y012907D01*
X015950Y012907D01*
X015860Y013060D02*
X015400Y013060D01*
X015400Y013291D01*
X015476Y013367D01*
X015553Y013367D01*
X015630Y013291D01*
X015630Y013060D01*
X015630Y012907D02*
X015707Y012830D01*
X015707Y012600D01*
X015860Y012600D02*
X015400Y012600D01*
X015400Y012830D01*
X015476Y012907D01*
X015630Y012907D01*
X015860Y013060D02*
X015860Y013291D01*
X015783Y013367D01*
X015707Y013367D01*
X015630Y013291D01*
X015553Y013521D02*
X015400Y013674D01*
X015860Y013674D01*
X015860Y013521D02*
X015860Y013828D01*
X015860Y013981D02*
X015860Y014288D01*
X015860Y014135D02*
X015400Y014135D01*
X015553Y013981D01*
X015310Y014058D02*
X015310Y014211D01*
X015233Y014288D01*
X014926Y014288D01*
X015233Y013981D01*
X015310Y014058D01*
X015233Y013981D02*
X014926Y013981D01*
X014850Y014058D01*
X014850Y014211D01*
X014926Y014288D01*
X014760Y013828D02*
X014760Y013521D01*
X014453Y013828D01*
X014376Y013828D01*
X014300Y013751D01*
X014300Y013598D01*
X014376Y013521D01*
X014376Y013367D02*
X014453Y013367D01*
X014530Y013291D01*
X014530Y013060D01*
X014530Y012907D02*
X014607Y012830D01*
X014607Y012600D01*
X014760Y012600D02*
X014300Y012600D01*
X014300Y012830D01*
X014376Y012907D01*
X014530Y012907D01*
X014760Y013060D02*
X014300Y013060D01*
X014300Y013291D01*
X014376Y013367D01*
X014530Y013291D02*
X014607Y013367D01*
X014683Y013367D01*
X014760Y013291D01*
X014760Y013060D01*
X014850Y013060D02*
X014850Y013291D01*
X014926Y013367D01*
X015003Y013367D01*
X015080Y013291D01*
X015080Y013060D01*
X015080Y012907D02*
X014926Y012907D01*
X014850Y012830D01*
X014850Y012600D01*
X015310Y012600D01*
X015157Y012600D02*
X015157Y012830D01*
X015080Y012907D01*
X015310Y013060D02*
X014850Y013060D01*
X015080Y013291D02*
X015157Y013367D01*
X015233Y013367D01*
X015310Y013291D01*
X015310Y013060D01*
X015310Y013521D02*
X015310Y013828D01*
X015310Y013674D02*
X014850Y013674D01*
X015003Y013521D01*
X014210Y013521D02*
X014210Y013828D01*
X014210Y013674D02*
X013750Y013674D01*
X013903Y013521D01*
X013903Y013367D02*
X013980Y013291D01*
X013980Y013060D01*
X013980Y012907D02*
X014057Y012830D01*
X014057Y012600D01*
X014210Y012600D02*
X013750Y012600D01*
X013750Y012830D01*
X013826Y012907D01*
X013980Y012907D01*
X014210Y013060D02*
X013750Y013060D01*
X013750Y013291D01*
X013826Y013367D01*
X013903Y013367D01*
X013980Y013291D02*
X014057Y013367D01*
X014133Y013367D01*
X014210Y013291D01*
X014210Y013060D01*
X013660Y013060D02*
X013660Y013291D01*
X013583Y013367D01*
X013507Y013367D01*
X013430Y013291D01*
X013430Y013060D01*
X013430Y012907D02*
X013276Y012907D01*
X013200Y012830D01*
X013200Y012600D01*
X013660Y012600D01*
X013507Y012600D02*
X013507Y012830D01*
X013430Y012907D01*
X013660Y013060D02*
X013200Y013060D01*
X013200Y013291D01*
X013276Y013367D01*
X013353Y013367D01*
X013430Y013291D01*
X013583Y013521D02*
X013276Y013521D01*
X013200Y013598D01*
X013200Y013751D01*
X013276Y013828D01*
X013583Y013521D01*
X013660Y013598D01*
X013660Y013751D01*
X013583Y013828D01*
X013276Y013828D01*
X013110Y013751D02*
X013033Y013828D01*
X012880Y013828D01*
X012803Y013751D01*
X012803Y013674D01*
X012880Y013521D01*
X012650Y013521D01*
X012650Y013828D01*
X012560Y013751D02*
X012100Y013751D01*
X012330Y013521D01*
X012330Y013828D01*
X012010Y013521D02*
X011933Y013521D01*
X011626Y013828D01*
X011550Y013828D01*
X011550Y013521D01*
X011460Y013598D02*
X011460Y013751D01*
X011383Y013828D01*
X011307Y013828D01*
X011230Y013751D01*
X011230Y013521D01*
X011383Y013521D01*
X011460Y013598D01*
X011460Y013367D02*
X011153Y013367D01*
X011000Y013214D01*
X011153Y013060D01*
X011460Y013060D01*
X011550Y013214D02*
X011703Y013367D01*
X012010Y013367D01*
X012100Y013291D02*
X012100Y013137D01*
X012176Y013060D01*
X012483Y013060D01*
X012560Y013137D01*
X012560Y013291D01*
X012483Y013367D01*
X012650Y013291D02*
X012650Y013137D01*
X012726Y013060D01*
X013033Y013060D01*
X013110Y013137D01*
X013110Y013291D01*
X013033Y013367D01*
X013033Y013521D02*
X013110Y013598D01*
X013110Y013751D01*
X012726Y013367D02*
X012650Y013291D01*
X012726Y012907D02*
X012880Y012907D01*
X012957Y012830D01*
X012957Y012600D01*
X013110Y012600D02*
X012650Y012600D01*
X012650Y012830D01*
X012726Y012907D01*
X012407Y012830D02*
X012407Y012600D01*
X012560Y012600D02*
X012100Y012600D01*
X012100Y012830D01*
X012176Y012907D01*
X012330Y012907D01*
X012407Y012830D01*
X012010Y012600D02*
X011550Y012600D01*
X011550Y012830D01*
X011626Y012907D01*
X011780Y012907D01*
X011857Y012830D01*
X011857Y012600D01*
X011460Y012600D02*
X011000Y012600D01*
X011000Y012830D01*
X011076Y012907D01*
X011230Y012907D01*
X011307Y012830D01*
X011307Y012600D01*
X010910Y012600D02*
X010450Y012600D01*
X010450Y012830D01*
X010526Y012907D01*
X010680Y012907D01*
X010757Y012830D01*
X010757Y012600D01*
X010360Y012600D02*
X009900Y012600D01*
X009900Y012830D01*
X009976Y012907D01*
X010130Y012907D01*
X010207Y012830D01*
X010207Y012600D01*
X009810Y012753D02*
X009657Y012907D01*
X009350Y012907D01*
X009260Y013060D02*
X009260Y013291D01*
X009183Y013367D01*
X009107Y013291D01*
X009107Y013137D01*
X009030Y013060D01*
X008953Y013137D01*
X008953Y013367D01*
X009030Y013521D02*
X008953Y013598D01*
X008953Y013828D01*
X009107Y013751D02*
X009107Y013598D01*
X009030Y013521D01*
X009260Y013521D02*
X009260Y013751D01*
X009183Y013828D01*
X009107Y013751D01*
X009350Y013828D02*
X009810Y013828D01*
X009810Y013598D01*
X009733Y013521D01*
X009580Y013521D01*
X009503Y013598D01*
X009503Y013828D01*
X009900Y013751D02*
X010130Y013521D01*
X010130Y013828D01*
X010360Y013751D02*
X009900Y013751D01*
X009810Y013367D02*
X009810Y013137D01*
X009733Y013060D01*
X009580Y013060D01*
X009503Y013137D01*
X009503Y013367D01*
X009350Y013367D02*
X009810Y013367D01*
X009900Y013214D02*
X010053Y013367D01*
X010360Y013367D01*
X010450Y013214D02*
X010603Y013367D01*
X010910Y013367D01*
X010833Y013521D02*
X010910Y013598D01*
X010910Y013751D01*
X010833Y013828D01*
X010680Y013828D01*
X010603Y013751D01*
X010603Y013674D01*
X010680Y013521D01*
X010450Y013521D01*
X010450Y013828D01*
X011000Y013828D02*
X011076Y013674D01*
X011230Y013521D01*
X011230Y013367D02*
X011230Y013060D01*
X010910Y013060D02*
X010603Y013060D01*
X010450Y013214D01*
X010360Y013060D02*
X010053Y013060D01*
X009900Y013214D01*
X010130Y013060D02*
X010130Y013367D01*
X009810Y012753D02*
X009657Y012600D01*
X009350Y012600D01*
X009260Y012753D02*
X009107Y012907D01*
X008800Y012907D01*
X008710Y013060D02*
X008403Y013060D01*
X008250Y013214D01*
X008403Y013367D01*
X008710Y013367D01*
X008633Y013521D02*
X008710Y013598D01*
X008710Y013751D01*
X008633Y013828D01*
X008557Y013828D01*
X008480Y013751D01*
X008480Y013674D01*
X008480Y013751D02*
X008403Y013828D01*
X008326Y013828D01*
X008250Y013751D01*
X008250Y013598D01*
X008326Y013521D01*
X008480Y013367D02*
X008480Y013060D01*
X008480Y012907D02*
X008557Y012830D01*
X008557Y012600D01*
X008710Y012600D02*
X008250Y012600D01*
X008250Y012830D01*
X008326Y012907D01*
X008480Y012907D01*
X008800Y012600D02*
X009107Y012600D01*
X009260Y012753D01*
X010680Y013060D02*
X010680Y013367D01*
X011550Y013214D02*
X011703Y013060D01*
X012010Y013060D01*
X011780Y013060D02*
X011780Y013367D01*
X012100Y013291D02*
X012176Y013367D01*
X014950Y010611D02*
X014950Y010458D01*
X015026Y010381D01*
X015333Y010381D01*
X015410Y010458D01*
X015410Y010611D01*
X015333Y010688D01*
X015026Y010688D02*
X014950Y010611D01*
X014950Y010228D02*
X015410Y010228D01*
X014950Y009921D01*
X015410Y009921D01*
X015333Y009767D02*
X015026Y009460D01*
X015026Y009307D02*
X014950Y009230D01*
X014950Y009077D01*
X015026Y009000D01*
X015180Y009153D02*
X015180Y009230D01*
X015257Y009307D01*
X015333Y009307D01*
X015410Y009230D01*
X015410Y009077D01*
X015333Y009000D01*
X015180Y009230D02*
X015103Y009307D01*
X015026Y009307D01*
X015180Y009460D02*
X015180Y009767D01*
X015026Y009767D02*
X015333Y009460D01*
X015333Y009614D02*
X015026Y009614D01*
X014660Y009767D02*
X014200Y009460D01*
X014276Y009307D02*
X014430Y009307D01*
X014507Y009230D01*
X014507Y009000D01*
X014660Y009000D02*
X014200Y009000D01*
X014200Y009230D01*
X014276Y009307D01*
X014507Y009153D02*
X014660Y009307D01*
X014660Y009460D02*
X014200Y009767D01*
X013910Y009767D02*
X013450Y009460D01*
X013450Y009307D02*
X013450Y009000D01*
X013450Y009153D02*
X013910Y009153D01*
X013910Y009460D02*
X013450Y009767D01*
X015700Y009691D02*
X015776Y009767D01*
X015853Y009767D01*
X015930Y009691D01*
X015930Y009460D01*
X016007Y009307D02*
X015700Y009307D01*
X015700Y009460D02*
X015700Y009691D01*
X015700Y009921D02*
X016160Y009921D01*
X016160Y010228D01*
X016083Y009767D02*
X016160Y009691D01*
X016160Y009460D01*
X015700Y009460D01*
X015930Y009691D02*
X016007Y009767D01*
X016083Y009767D01*
X016007Y009307D02*
X016160Y009153D01*
X016007Y009000D01*
X015700Y009000D01*
X017253Y005784D02*
X017253Y005477D01*
X017100Y005630D02*
X017407Y005630D01*
X017560Y005630D02*
X017714Y005707D01*
X017791Y005707D01*
X017867Y005630D01*
X017867Y005477D01*
X017791Y005400D01*
X017637Y005400D01*
X017560Y005477D01*
X017560Y005630D02*
X017560Y005860D01*
X017867Y005860D01*
X018481Y005784D02*
X018481Y005477D01*
X018558Y005400D01*
X018711Y005400D01*
X018788Y005477D01*
X018788Y005784D01*
X018711Y005860D01*
X018558Y005860D01*
X018481Y005784D01*
X018942Y005860D02*
X018942Y005477D01*
X019018Y005400D01*
X019172Y005400D01*
X019248Y005477D01*
X019248Y005860D01*
X019402Y005860D02*
X019709Y005860D01*
X019555Y005860D02*
X019555Y005400D01*
X021600Y005477D02*
X021677Y005400D01*
X021830Y005400D01*
X021907Y005477D01*
X021907Y005630D01*
X021753Y005630D01*
X021600Y005477D02*
X021600Y005784D01*
X021677Y005860D01*
X021830Y005860D01*
X021907Y005784D01*
X022060Y005860D02*
X022367Y005400D01*
X022367Y005860D01*
X022521Y005860D02*
X022521Y005400D01*
X022751Y005400D01*
X022828Y005477D01*
X022828Y005784D01*
X022751Y005860D01*
X022521Y005860D01*
X022060Y005860D02*
X022060Y005400D01*
X023442Y005477D02*
X023518Y005400D01*
X023672Y005400D01*
X023748Y005477D01*
X023748Y005784D01*
X023672Y005860D01*
X023518Y005860D01*
X023442Y005784D01*
X023442Y005477D01*
X023902Y005477D02*
X023902Y005860D01*
X024209Y005860D02*
X024209Y005477D01*
X024132Y005400D01*
X023979Y005400D01*
X023902Y005477D01*
X024362Y005860D02*
X024669Y005860D01*
X024516Y005860D02*
X024516Y005400D01*
X023499Y001360D02*
X023193Y001360D01*
X023346Y001360D02*
X023346Y000900D01*
X023039Y000977D02*
X023039Y001360D01*
X022732Y001360D02*
X022732Y000977D01*
X022809Y000900D01*
X022962Y000900D01*
X023039Y000977D01*
X022579Y000977D02*
X022579Y001284D01*
X022502Y001360D01*
X022348Y001360D01*
X022272Y001284D01*
X022272Y000977D01*
X022348Y000900D01*
X022502Y000900D01*
X022579Y000977D01*
X021658Y000977D02*
X021581Y000900D01*
X021428Y000900D01*
X021351Y000977D01*
X021198Y000977D02*
X021198Y000900D01*
X021121Y000900D01*
X021121Y000977D01*
X021198Y000977D01*
X020967Y000977D02*
X020891Y000900D01*
X020737Y000900D01*
X020660Y000977D01*
X020507Y001130D02*
X020200Y001130D01*
X020353Y000977D02*
X020353Y001284D01*
X020660Y001284D02*
X020737Y001360D01*
X020891Y001360D01*
X020967Y001284D01*
X020967Y001207D01*
X020891Y001130D01*
X020967Y001053D01*
X020967Y000977D01*
X020891Y001130D02*
X020814Y001130D01*
X021351Y001284D02*
X021428Y001360D01*
X021581Y001360D01*
X021658Y001284D01*
X021658Y001207D01*
X021581Y001130D01*
X021658Y001053D01*
X021658Y000977D01*
X021581Y001130D02*
X021504Y001130D01*
X018769Y001260D02*
X018462Y001260D01*
X018309Y001260D02*
X018309Y000877D01*
X018232Y000800D01*
X018079Y000800D01*
X018002Y000877D01*
X018002Y001260D01*
X017848Y001184D02*
X017772Y001260D01*
X017618Y001260D01*
X017542Y001184D01*
X017542Y000877D01*
X017618Y000800D01*
X017772Y000800D01*
X017848Y000877D01*
X017848Y001184D01*
X018616Y001260D02*
X018616Y000800D01*
X016928Y000877D02*
X016851Y000800D01*
X016698Y000800D01*
X016621Y000877D01*
X016621Y001184D01*
X016698Y001260D01*
X016851Y001260D01*
X016928Y001184D01*
X016467Y001184D02*
X016391Y001260D01*
X016237Y001260D01*
X016160Y001184D01*
X016160Y000877D01*
X016237Y000800D01*
X016391Y000800D01*
X016467Y000877D01*
X016007Y000953D02*
X016007Y001260D01*
X016007Y000953D02*
X015853Y000800D01*
X015700Y000953D01*
X015700Y001260D01*
X015950Y012600D02*
X016257Y012600D01*
X016410Y012753D01*
X016410Y014442D02*
X016410Y014748D01*
X016410Y014595D02*
X015950Y014595D01*
X016103Y014442D01*
X022276Y036900D02*
X022353Y036900D01*
X022430Y036977D01*
X022430Y037130D01*
X022507Y037207D01*
X022583Y037207D01*
X022660Y037130D01*
X022660Y036977D01*
X022583Y036900D01*
X022276Y036900D02*
X022200Y036977D01*
X022200Y037130D01*
X022276Y037207D01*
X022200Y037360D02*
X022200Y037591D01*
X022276Y037667D01*
X022583Y037667D01*
X022660Y037591D01*
X022660Y037360D01*
X022200Y037360D01*
X022353Y037821D02*
X022200Y037974D01*
X022353Y038128D01*
X022660Y038128D01*
X022430Y038128D02*
X022430Y037821D01*
X022353Y037821D02*
X022660Y037821D01*
X023200Y037921D02*
X023660Y037921D01*
X023660Y038228D01*
X023583Y037767D02*
X023660Y037691D01*
X023660Y037537D01*
X023583Y037460D01*
X023276Y037460D01*
X023200Y037537D01*
X023200Y037691D01*
X023276Y037767D01*
X023276Y037307D02*
X023200Y037230D01*
X023200Y037077D01*
X023276Y037000D01*
X023353Y037000D01*
X023430Y037077D01*
X023430Y037230D01*
X023507Y037307D01*
X023583Y037307D01*
X023660Y037230D01*
X023660Y037077D01*
X023583Y037000D01*
X025200Y037000D02*
X025200Y037230D01*
X025276Y037307D01*
X025430Y037307D01*
X025507Y037230D01*
X025507Y037000D01*
X025660Y037000D02*
X025200Y037000D01*
X025507Y037153D02*
X025660Y037307D01*
X025660Y037614D02*
X025200Y037614D01*
X025200Y037767D02*
X025200Y037460D01*
X025276Y037921D02*
X025353Y037921D01*
X025430Y037998D01*
X025430Y038151D01*
X025507Y038228D01*
X025583Y038228D01*
X025660Y038151D01*
X025660Y037998D01*
X025583Y037921D01*
X025276Y037921D02*
X025200Y037998D01*
X025200Y038151D01*
X025276Y038228D01*
X026200Y038151D02*
X026200Y037998D01*
X026276Y037921D01*
X026353Y037921D01*
X026430Y037998D01*
X026430Y038151D01*
X026507Y038228D01*
X026583Y038228D01*
X026660Y038151D01*
X026660Y037998D01*
X026583Y037921D01*
X026660Y037614D02*
X026200Y037614D01*
X026200Y037767D02*
X026200Y037460D01*
X026276Y037307D02*
X026200Y037230D01*
X026200Y037077D01*
X026276Y037000D01*
X026583Y037000D01*
X026660Y037077D01*
X026660Y037230D01*
X026583Y037307D01*
X027200Y037230D02*
X027276Y037307D01*
X027430Y037307D01*
X027507Y037230D01*
X027507Y037000D01*
X027660Y037000D02*
X027200Y037000D01*
X027200Y037230D01*
X027200Y037460D02*
X027660Y037767D01*
X027660Y037460D02*
X027200Y037767D01*
X027660Y037307D02*
X027507Y037153D01*
X028200Y037153D02*
X028660Y037153D01*
X028660Y037460D02*
X028200Y037767D01*
X028200Y037460D02*
X028660Y037767D01*
X028200Y037307D02*
X028200Y037000D01*
X029200Y037077D02*
X029276Y037000D01*
X029583Y037000D01*
X029660Y037077D01*
X029660Y037230D01*
X029583Y037307D01*
X029507Y037460D02*
X029200Y037767D01*
X029200Y037460D02*
X029660Y037460D01*
X029430Y037537D02*
X029660Y037767D01*
X029276Y037307D02*
X029200Y037230D01*
X029200Y037077D01*
X026276Y038228D02*
X026200Y038151D01*
D13*
X027298Y035435D02*
X027223Y035360D01*
X027223Y035060D01*
X027298Y034985D01*
X027448Y034985D01*
X027523Y035060D01*
X027523Y035210D01*
X027373Y035210D01*
X027523Y035360D02*
X027448Y035435D01*
X027298Y035435D01*
X027683Y035435D02*
X027908Y035435D01*
X027983Y035360D01*
X027983Y035210D01*
X027908Y035135D01*
X027683Y035135D01*
X027683Y034985D02*
X027683Y035435D01*
X028143Y035435D02*
X028143Y035060D01*
X028218Y034985D01*
X028369Y034985D01*
X028444Y035060D01*
X028444Y035435D01*
X028604Y035435D02*
X028604Y034985D01*
X028604Y035210D02*
X028904Y035210D01*
X028904Y035435D02*
X028904Y034985D01*
X029064Y034985D02*
X029289Y034985D01*
X029364Y035060D01*
X029364Y035360D01*
X029289Y035435D01*
X029064Y035435D01*
X029064Y034985D01*
X029525Y034985D02*
X029525Y035435D01*
X029750Y035435D01*
X029825Y035360D01*
X029825Y035210D01*
X029750Y035135D01*
X029525Y035135D01*
X029675Y035135D02*
X029825Y034985D01*
X031505Y033255D02*
X031505Y032805D01*
X031505Y032955D02*
X031730Y032955D01*
X031805Y033030D01*
X031805Y033180D01*
X031730Y033255D01*
X031505Y033255D01*
X031655Y032955D02*
X031805Y032805D01*
X031965Y032880D02*
X032040Y032805D01*
X032191Y032805D01*
X032266Y032880D01*
X032266Y032955D01*
X032191Y033030D01*
X032116Y033030D01*
X032191Y033030D02*
X032266Y033105D01*
X032266Y033180D01*
X032191Y033255D01*
X032040Y033255D01*
X031965Y033180D01*
X032040Y031755D02*
X031965Y031680D01*
X032040Y031755D02*
X032191Y031755D01*
X032266Y031680D01*
X032266Y031605D01*
X031965Y031305D01*
X032266Y031305D01*
X031805Y031305D02*
X031655Y031455D01*
X031730Y031455D02*
X031505Y031455D01*
X031505Y031305D02*
X031505Y031755D01*
X031730Y031755D01*
X031805Y031680D01*
X031805Y031530D01*
X031730Y031455D01*
X031730Y029755D02*
X031805Y029680D01*
X031805Y029530D01*
X031730Y029455D01*
X031505Y029455D01*
X031505Y029305D02*
X031505Y029755D01*
X031730Y029755D01*
X031965Y029680D02*
X031965Y029605D01*
X032040Y029530D01*
X032266Y029530D01*
X032266Y029380D02*
X032266Y029680D01*
X032191Y029755D01*
X032040Y029755D01*
X031965Y029680D01*
X031965Y029380D02*
X032040Y029305D01*
X032191Y029305D01*
X032266Y029380D01*
X031805Y029305D02*
X031655Y029455D01*
X031730Y028255D02*
X031805Y028180D01*
X031805Y028030D01*
X031730Y027955D01*
X031505Y027955D01*
X031505Y027805D02*
X031505Y028255D01*
X031730Y028255D01*
X031965Y028105D02*
X032116Y028255D01*
X032116Y027805D01*
X032266Y027805D02*
X031965Y027805D01*
X031805Y027805D02*
X031655Y027955D01*
X032426Y027880D02*
X032726Y028180D01*
X032726Y027880D01*
X032651Y027805D01*
X032501Y027805D01*
X032426Y027880D01*
X032426Y028180D01*
X032501Y028255D01*
X032651Y028255D01*
X032726Y028180D01*
X037425Y026000D02*
X037425Y025775D01*
X037875Y025775D01*
X037725Y025775D02*
X037725Y026000D01*
X037650Y026075D01*
X037500Y026075D01*
X037425Y026000D01*
X037725Y025925D02*
X037875Y026075D01*
X037800Y025614D02*
X037500Y025614D01*
X037425Y025539D01*
X037425Y025314D01*
X037875Y025314D01*
X037875Y025539D01*
X037800Y025614D01*
X037875Y025154D02*
X037425Y025154D01*
X037650Y025154D02*
X037650Y024854D01*
X037650Y024694D02*
X037650Y024393D01*
X037575Y024393D02*
X037425Y024544D01*
X037575Y024694D01*
X037875Y024694D01*
X037875Y024854D02*
X037425Y024854D01*
X037575Y024393D02*
X037875Y024393D01*
X037800Y024233D02*
X037650Y024233D01*
X037650Y024083D01*
X037500Y023933D02*
X037800Y023933D01*
X037875Y024008D01*
X037875Y024158D01*
X037800Y024233D01*
X037500Y024233D02*
X037425Y024158D01*
X037425Y024008D01*
X037500Y023933D01*
X037425Y023773D02*
X037725Y023773D01*
X037875Y023623D01*
X037725Y023473D01*
X037425Y023473D01*
X032576Y018755D02*
X032576Y018305D01*
X032426Y018305D02*
X032726Y018305D01*
X032426Y018605D02*
X032576Y018755D01*
X032116Y018755D02*
X032116Y018305D01*
X032266Y018305D02*
X031965Y018305D01*
X031805Y018305D02*
X031655Y018455D01*
X031730Y018455D02*
X031505Y018455D01*
X031505Y018305D02*
X031505Y018755D01*
X031730Y018755D01*
X031805Y018680D01*
X031805Y018530D01*
X031730Y018455D01*
X031965Y018605D02*
X032116Y018755D01*
X032116Y017255D02*
X032116Y016805D01*
X032266Y016805D02*
X031965Y016805D01*
X031805Y016805D02*
X031655Y016955D01*
X031730Y016955D02*
X031505Y016955D01*
X031505Y016805D02*
X031505Y017255D01*
X031730Y017255D01*
X031805Y017180D01*
X031805Y017030D01*
X031730Y016955D01*
X031965Y017105D02*
X032116Y017255D01*
X032426Y017180D02*
X032501Y017255D01*
X032651Y017255D01*
X032726Y017180D01*
X032726Y017105D01*
X032426Y016805D01*
X032726Y016805D01*
X032266Y013755D02*
X032266Y013680D01*
X031965Y013380D01*
X031965Y013305D01*
X031805Y013305D02*
X031655Y013455D01*
X031730Y013455D02*
X031505Y013455D01*
X031505Y013305D02*
X031505Y013755D01*
X031730Y013755D01*
X031805Y013680D01*
X031805Y013530D01*
X031730Y013455D01*
X031965Y013755D02*
X032266Y013755D01*
X032266Y012255D02*
X032116Y012180D01*
X031965Y012030D01*
X032191Y012030D01*
X032266Y011955D01*
X032266Y011880D01*
X032191Y011805D01*
X032040Y011805D01*
X031965Y011880D01*
X031965Y012030D01*
X031805Y012030D02*
X031730Y011955D01*
X031505Y011955D01*
X031505Y011805D02*
X031505Y012255D01*
X031730Y012255D01*
X031805Y012180D01*
X031805Y012030D01*
X031655Y011955D02*
X031805Y011805D01*
X031730Y009755D02*
X031805Y009680D01*
X031805Y009530D01*
X031730Y009455D01*
X031505Y009455D01*
X031505Y009305D02*
X031505Y009755D01*
X031730Y009755D01*
X031965Y009605D02*
X032116Y009755D01*
X032116Y009305D01*
X032266Y009305D02*
X031965Y009305D01*
X031805Y009305D02*
X031655Y009455D01*
X032426Y009380D02*
X032501Y009305D01*
X032651Y009305D01*
X032726Y009380D01*
X032726Y009455D01*
X032651Y009530D01*
X032576Y009530D01*
X032651Y009530D02*
X032726Y009605D01*
X032726Y009680D01*
X032651Y009755D01*
X032501Y009755D01*
X032426Y009680D01*
X032651Y008255D02*
X032426Y008030D01*
X032726Y008030D01*
X032651Y007805D02*
X032651Y008255D01*
X032116Y008255D02*
X032116Y007805D01*
X032266Y007805D02*
X031965Y007805D01*
X031805Y007805D02*
X031655Y007955D01*
X031730Y007955D02*
X031505Y007955D01*
X031505Y007805D02*
X031505Y008255D01*
X031730Y008255D01*
X031805Y008180D01*
X031805Y008030D01*
X031730Y007955D01*
X031965Y008105D02*
X032116Y008255D01*
X028045Y008530D02*
X027970Y008455D01*
X027820Y008455D01*
X027745Y008530D01*
X027745Y008680D02*
X027895Y008755D01*
X027970Y008755D01*
X028045Y008680D01*
X028045Y008530D01*
X027745Y008680D02*
X027745Y008905D01*
X028045Y008905D01*
X027584Y008830D02*
X027584Y008530D01*
X027509Y008455D01*
X027284Y008455D01*
X027284Y008905D01*
X027509Y008905D01*
X027584Y008830D01*
X027509Y005905D02*
X027284Y005905D01*
X027284Y005455D01*
X027509Y005455D01*
X027584Y005530D01*
X027584Y005830D01*
X027509Y005905D01*
X027745Y005680D02*
X027970Y005680D01*
X028045Y005605D01*
X028045Y005530D01*
X027970Y005455D01*
X027820Y005455D01*
X027745Y005530D01*
X027745Y005680D01*
X027895Y005830D01*
X028045Y005905D01*
X021396Y005800D02*
X021396Y005725D01*
X021321Y005650D01*
X021171Y005650D01*
X021096Y005725D01*
X021096Y005800D01*
X021171Y005875D01*
X021321Y005875D01*
X021396Y005800D01*
X021321Y005650D02*
X021396Y005575D01*
X021396Y005500D01*
X021321Y005425D01*
X021171Y005425D01*
X021096Y005500D01*
X021096Y005575D01*
X021171Y005650D01*
X020936Y005650D02*
X020861Y005575D01*
X020635Y005575D01*
X020635Y005425D02*
X020635Y005875D01*
X020861Y005875D01*
X020936Y005800D01*
X020936Y005650D01*
X020475Y005875D02*
X020325Y005875D01*
X020400Y005875D02*
X020400Y005500D01*
X020325Y005425D01*
X020250Y005425D01*
X020175Y005500D01*
X020325Y003375D02*
X020475Y003375D01*
X020400Y003375D02*
X020400Y003000D01*
X020325Y002925D01*
X020250Y002925D01*
X020175Y003000D01*
X020635Y002925D02*
X020635Y003375D01*
X020861Y003375D01*
X020936Y003300D01*
X020936Y003150D01*
X020861Y003075D01*
X020635Y003075D01*
X021096Y003000D02*
X021096Y002925D01*
X021096Y003000D02*
X021396Y003300D01*
X021396Y003375D01*
X021096Y003375D01*
X016896Y003300D02*
X016896Y003000D01*
X016821Y002925D01*
X016671Y002925D01*
X016596Y003000D01*
X016671Y003150D02*
X016896Y003150D01*
X016896Y003300D02*
X016821Y003375D01*
X016671Y003375D01*
X016596Y003300D01*
X016596Y003225D01*
X016671Y003150D01*
X016436Y003150D02*
X016361Y003075D01*
X016135Y003075D01*
X016135Y002925D02*
X016135Y003375D01*
X016361Y003375D01*
X016436Y003300D01*
X016436Y003150D01*
X015975Y003375D02*
X015825Y003375D01*
X015900Y003375D02*
X015900Y003000D01*
X015825Y002925D01*
X015750Y002925D01*
X015675Y003000D01*
X013445Y004955D02*
X013445Y005255D01*
X013445Y005415D02*
X013445Y005716D01*
X013445Y005876D02*
X013445Y006101D01*
X013370Y006176D01*
X013070Y006176D01*
X012995Y006101D01*
X012995Y005876D01*
X013445Y005876D01*
X013220Y005566D02*
X013220Y005415D01*
X012995Y005415D02*
X013445Y005415D01*
X012995Y005415D02*
X012995Y005716D01*
X013145Y006336D02*
X012995Y006486D01*
X013445Y006486D01*
X013445Y006336D02*
X013445Y006636D01*
X013445Y004955D02*
X012995Y004955D01*
X015675Y005500D02*
X015750Y005425D01*
X015825Y005425D01*
X015900Y005500D01*
X015900Y005875D01*
X015825Y005875D02*
X015975Y005875D01*
X016135Y005875D02*
X016361Y005875D01*
X016436Y005800D01*
X016436Y005650D01*
X016361Y005575D01*
X016135Y005575D01*
X016135Y005425D02*
X016135Y005875D01*
X016596Y005650D02*
X016596Y005500D01*
X016671Y005425D01*
X016821Y005425D01*
X016896Y005500D01*
X016896Y005575D01*
X016821Y005650D01*
X016596Y005650D01*
X016746Y005800D01*
X016896Y005875D01*
X012663Y008925D02*
X012513Y009075D01*
X012588Y009075D02*
X012363Y009075D01*
X012363Y008925D02*
X012363Y009375D01*
X012588Y009375D01*
X012663Y009300D01*
X012663Y009150D01*
X012588Y009075D01*
X012203Y009000D02*
X012203Y009300D01*
X012128Y009375D01*
X011903Y009375D01*
X011903Y008925D01*
X012128Y008925D01*
X012203Y009000D01*
X011743Y008925D02*
X011743Y009375D01*
X011743Y009150D02*
X011442Y009150D01*
X011282Y009000D02*
X011282Y009300D01*
X011207Y009375D01*
X011057Y009375D01*
X010982Y009300D01*
X010982Y009000D01*
X011057Y008925D01*
X011207Y008925D01*
X011282Y009000D01*
X011442Y008925D02*
X011442Y009375D01*
X010825Y009375D02*
X010675Y009375D01*
X010750Y009375D02*
X010750Y008925D01*
X010675Y008925D02*
X010825Y008925D01*
X007445Y006980D02*
X007145Y006680D01*
X007220Y006605D01*
X007370Y006605D01*
X007445Y006680D01*
X007445Y006980D01*
X007370Y007055D01*
X007220Y007055D01*
X007145Y006980D01*
X007145Y006680D01*
X006984Y006605D02*
X006684Y006605D01*
X006834Y006605D02*
X006834Y007055D01*
X006684Y006905D01*
X006524Y006980D02*
X006449Y007055D01*
X006299Y007055D01*
X006224Y006980D01*
X006224Y006680D01*
X006299Y006605D01*
X006449Y006605D01*
X006524Y006680D01*
X008005Y004255D02*
X008230Y004255D01*
X008305Y004180D01*
X008305Y004030D01*
X008230Y003955D01*
X008005Y003955D01*
X008005Y003805D02*
X008005Y004255D01*
X008155Y003955D02*
X008305Y003805D01*
X008465Y003805D02*
X008766Y003805D01*
X008616Y003805D02*
X008616Y004255D01*
X008465Y004105D01*
X001935Y003663D02*
X001485Y003663D01*
X001485Y003363D02*
X001935Y003663D01*
X001935Y003363D02*
X001485Y003363D01*
X001485Y003206D02*
X001485Y003056D01*
X001485Y003131D02*
X001935Y003131D01*
X001935Y003056D02*
X001935Y003206D01*
X001935Y002896D02*
X001785Y002746D01*
X001785Y002821D02*
X001785Y002596D01*
X001935Y002596D02*
X001485Y002596D01*
X001485Y002821D01*
X001560Y002896D01*
X001710Y002896D01*
X001785Y002821D01*
X001935Y002436D02*
X001485Y002436D01*
X001485Y002135D02*
X001935Y002135D01*
X001785Y002286D01*
X001935Y002436D01*
X001710Y001975D02*
X001560Y001975D01*
X001485Y001900D01*
X001485Y001675D01*
X001935Y001675D01*
X001785Y001675D02*
X001785Y001900D01*
X001710Y001975D01*
X002359Y011955D02*
X002284Y012030D01*
X002359Y011955D02*
X002509Y011955D01*
X002584Y012030D01*
X002584Y012105D01*
X002509Y012180D01*
X002359Y012180D01*
X002284Y012255D01*
X002284Y012330D01*
X002359Y012405D01*
X002509Y012405D01*
X002584Y012330D01*
X002745Y012255D02*
X002895Y012405D01*
X002895Y011955D01*
X002745Y011955D02*
X003045Y011955D01*
X005175Y012000D02*
X005250Y011925D01*
X005325Y011925D01*
X005400Y012000D01*
X005400Y012375D01*
X005325Y012375D02*
X005475Y012375D01*
X005635Y012375D02*
X005635Y011925D01*
X005635Y012075D02*
X005861Y012075D01*
X005936Y012150D01*
X005936Y012300D01*
X005861Y012375D01*
X005635Y012375D01*
X006096Y012300D02*
X006171Y012375D01*
X006321Y012375D01*
X006396Y012300D01*
X006396Y012225D01*
X006096Y011925D01*
X006396Y011925D01*
X010555Y015759D02*
X010630Y015684D01*
X010930Y015684D01*
X011005Y015759D01*
X011005Y015909D01*
X010930Y015984D01*
X010930Y016145D02*
X011005Y016220D01*
X011005Y016370D01*
X010930Y016445D01*
X010855Y016445D01*
X010780Y016370D01*
X010780Y016145D01*
X010930Y016145D01*
X010780Y016145D02*
X010630Y016295D01*
X010555Y016445D01*
X010630Y015984D02*
X010555Y015909D01*
X010555Y015759D01*
X013555Y017380D02*
X013630Y017305D01*
X013780Y017305D01*
X013855Y017380D01*
X014015Y017530D02*
X014316Y017530D01*
X014241Y017305D02*
X014241Y017755D01*
X014015Y017530D01*
X013855Y017680D02*
X013780Y017755D01*
X013630Y017755D01*
X013555Y017680D01*
X013555Y017380D01*
X016130Y022805D02*
X016280Y022805D01*
X016355Y022880D01*
X016515Y022880D02*
X016590Y022805D01*
X016741Y022805D01*
X016816Y022880D01*
X016816Y023180D01*
X016741Y023255D01*
X016590Y023255D01*
X016515Y023180D01*
X016515Y023105D01*
X016590Y023030D01*
X016816Y023030D01*
X016355Y023180D02*
X016280Y023255D01*
X016130Y023255D01*
X016055Y023180D01*
X016055Y022880D01*
X016130Y022805D01*
X016090Y025805D02*
X016015Y025880D01*
X016090Y025805D02*
X016241Y025805D01*
X016316Y025880D01*
X016316Y025955D01*
X016241Y026030D01*
X016166Y026030D01*
X016241Y026030D02*
X016316Y026105D01*
X016316Y026180D01*
X016241Y026255D01*
X016090Y026255D01*
X016015Y026180D01*
X015855Y026180D02*
X015780Y026255D01*
X015630Y026255D01*
X015555Y026180D01*
X015555Y025880D01*
X015630Y025805D01*
X015780Y025805D01*
X015855Y025880D01*
X013816Y027130D02*
X013741Y027055D01*
X013590Y027055D01*
X013515Y027130D01*
X013515Y027205D01*
X013590Y027280D01*
X013741Y027280D01*
X013816Y027205D01*
X013816Y027130D01*
X013741Y027280D02*
X013816Y027355D01*
X013816Y027430D01*
X013741Y027505D01*
X013590Y027505D01*
X013515Y027430D01*
X013515Y027355D01*
X013590Y027280D01*
X013355Y027130D02*
X013280Y027055D01*
X013130Y027055D01*
X013055Y027130D01*
X013055Y027430D01*
X013130Y027505D01*
X013280Y027505D01*
X013355Y027430D01*
X009066Y026305D02*
X008765Y026305D01*
X008916Y026305D02*
X008916Y026755D01*
X008765Y026605D01*
X008605Y026680D02*
X008530Y026755D01*
X008380Y026755D01*
X008305Y026680D01*
X008305Y026380D01*
X008380Y026305D01*
X008530Y026305D01*
X008605Y026380D01*
X006875Y027429D02*
X006875Y027504D01*
X006800Y027579D01*
X006425Y027579D01*
X006425Y027504D02*
X006425Y027654D01*
X006425Y027814D02*
X006425Y028039D01*
X006500Y028114D01*
X006650Y028114D01*
X006725Y028039D01*
X006725Y027814D01*
X006875Y027814D02*
X006425Y027814D01*
X006575Y028275D02*
X006425Y028425D01*
X006875Y028425D01*
X006875Y028275D02*
X006875Y028575D01*
X006875Y027429D02*
X006800Y027354D01*
X009984Y031605D02*
X009984Y032055D01*
X010209Y032055D01*
X010284Y031980D01*
X010284Y031830D01*
X010209Y031755D01*
X009984Y031755D01*
X010134Y031755D02*
X010284Y031605D01*
X010445Y031680D02*
X010445Y031755D01*
X010520Y031830D01*
X010670Y031830D01*
X010745Y031755D01*
X010745Y031680D01*
X010670Y031605D01*
X010520Y031605D01*
X010445Y031680D01*
X010520Y031830D02*
X010445Y031905D01*
X010445Y031980D01*
X010520Y032055D01*
X010670Y032055D01*
X010745Y031980D01*
X010745Y031905D01*
X010670Y031830D01*
X004935Y034075D02*
X004785Y034225D01*
X004485Y034225D01*
X004485Y034385D02*
X004485Y034611D01*
X004560Y034686D01*
X004635Y034686D01*
X004710Y034611D01*
X004710Y034385D01*
X004935Y034385D02*
X004485Y034385D01*
X004710Y034611D02*
X004785Y034686D01*
X004860Y034686D01*
X004935Y034611D01*
X004935Y034385D01*
X004935Y034075D02*
X004785Y033925D01*
X004485Y033925D01*
X004635Y034846D02*
X004485Y034996D01*
X004635Y035146D01*
X004935Y035146D01*
X004710Y035146D02*
X004710Y034846D01*
X004635Y034846D02*
X004935Y034846D01*
X004485Y035306D02*
X004485Y035606D01*
X004485Y035456D02*
X004935Y035456D01*
X004935Y035767D02*
X004485Y035767D01*
X004485Y035992D01*
X004560Y036067D01*
X004710Y036067D01*
X004785Y035992D01*
X004785Y035767D01*
X004935Y036227D02*
X004485Y036227D01*
X004485Y036527D02*
X004935Y036527D01*
X004785Y036377D01*
X004935Y036227D01*
X004935Y036687D02*
X004485Y036687D01*
X004485Y036913D01*
X004560Y036988D01*
X004710Y036988D01*
X004785Y036913D01*
X004785Y036687D01*
X004785Y036837D02*
X004935Y036988D01*
X004860Y037148D02*
X004935Y037223D01*
X004935Y037298D01*
X004860Y037373D01*
X004485Y037373D01*
X004485Y037298D02*
X004485Y037448D01*
X004485Y037608D02*
X004485Y037833D01*
X004560Y037908D01*
X004710Y037908D01*
X004785Y037833D01*
X004785Y037608D01*
X004935Y037608D02*
X004485Y037608D01*
X002055Y027566D02*
X002055Y027265D01*
X001755Y027566D01*
X001680Y027566D01*
X001605Y027491D01*
X001605Y027340D01*
X001680Y027265D01*
X001680Y027105D02*
X001605Y027030D01*
X001605Y026880D01*
X001680Y026805D01*
X001980Y026805D01*
X002055Y026880D01*
X002055Y027030D01*
X001980Y027105D01*
X001530Y023807D02*
X001605Y023732D01*
X001605Y023582D01*
X001530Y023507D01*
X001230Y023507D01*
X001155Y023582D01*
X001155Y023732D01*
X001230Y023807D01*
X001230Y023347D02*
X001155Y023272D01*
X001155Y023122D01*
X001230Y023047D01*
X001305Y023047D01*
X001380Y023122D01*
X001380Y023272D01*
X001455Y023347D01*
X001530Y023347D01*
X001605Y023272D01*
X001605Y023122D01*
X001530Y023047D01*
X001530Y022886D02*
X001230Y022886D01*
X001155Y022811D01*
X001155Y022661D01*
X001230Y022586D01*
X001530Y022586D01*
X001605Y022661D01*
X001605Y022811D01*
X001530Y022886D01*
X001530Y022426D02*
X001155Y022426D01*
X001155Y022126D02*
X001530Y022126D01*
X001605Y022201D01*
X001605Y022351D01*
X001530Y022426D01*
X001380Y021966D02*
X001455Y021891D01*
X001455Y021665D01*
X001605Y021665D02*
X001155Y021665D01*
X001155Y021891D01*
X001230Y021966D01*
X001380Y021966D01*
X001380Y021505D02*
X001380Y021355D01*
X001380Y021505D02*
X001530Y021505D01*
X001605Y021430D01*
X001605Y021280D01*
X001530Y021205D01*
X001230Y021205D01*
X001155Y021280D01*
X001155Y021430D01*
X001230Y021505D01*
X003305Y019445D02*
X003305Y019145D01*
X003530Y019145D01*
X003455Y019295D01*
X003455Y019370D01*
X003530Y019445D01*
X003680Y019445D01*
X003755Y019370D01*
X003755Y019220D01*
X003680Y019145D01*
X003680Y018984D02*
X003755Y018909D01*
X003755Y018759D01*
X003680Y018684D01*
X003380Y018684D01*
X003305Y018759D01*
X003305Y018909D01*
X003380Y018984D01*
X006605Y018816D02*
X006680Y018816D01*
X006980Y018515D01*
X007055Y018515D01*
X006980Y018355D02*
X007055Y018280D01*
X007055Y018130D01*
X006980Y018055D01*
X006680Y018055D01*
X006605Y018130D01*
X006605Y018280D01*
X006680Y018355D01*
X006605Y018515D02*
X006605Y018816D01*
X019485Y013821D02*
X019485Y013671D01*
X019560Y013596D01*
X019560Y013436D02*
X019710Y013436D01*
X019785Y013361D01*
X019785Y013135D01*
X019935Y013135D02*
X019485Y013135D01*
X019485Y013361D01*
X019560Y013436D01*
X019860Y013596D02*
X019935Y013671D01*
X019935Y013821D01*
X019860Y013896D01*
X019785Y013896D01*
X019710Y013821D01*
X019710Y013746D01*
X019710Y013821D02*
X019635Y013896D01*
X019560Y013896D01*
X019485Y013821D01*
X019485Y012975D02*
X019485Y012825D01*
X019485Y012900D02*
X019860Y012900D01*
X019935Y012825D01*
X019935Y012750D01*
X019860Y012675D01*
X027284Y014455D02*
X027509Y014455D01*
X027584Y014530D01*
X027584Y014830D01*
X027509Y014905D01*
X027284Y014905D01*
X027284Y014455D01*
X027745Y014680D02*
X028045Y014680D01*
X027970Y014455D02*
X027970Y014905D01*
X027745Y014680D01*
X027820Y017455D02*
X027745Y017530D01*
X027820Y017455D02*
X027970Y017455D01*
X028045Y017530D01*
X028045Y017605D01*
X027970Y017680D01*
X027895Y017680D01*
X027970Y017680D02*
X028045Y017755D01*
X028045Y017830D01*
X027970Y017905D01*
X027820Y017905D01*
X027745Y017830D01*
X027584Y017830D02*
X027509Y017905D01*
X027284Y017905D01*
X027284Y017455D01*
X027509Y017455D01*
X027584Y017530D01*
X027584Y017830D01*
X027509Y021955D02*
X027584Y022030D01*
X027584Y022330D01*
X027509Y022405D01*
X027284Y022405D01*
X027284Y021955D01*
X027509Y021955D01*
X027745Y021955D02*
X028045Y022255D01*
X028045Y022330D01*
X027970Y022405D01*
X027820Y022405D01*
X027745Y022330D01*
X027745Y021955D02*
X028045Y021955D01*
X028045Y024955D02*
X027745Y024955D01*
X027895Y024955D02*
X027895Y025405D01*
X027745Y025255D01*
X027584Y025330D02*
X027509Y025405D01*
X027284Y025405D01*
X027284Y024955D01*
X027509Y024955D01*
X027584Y025030D01*
X027584Y025330D01*
X031505Y022755D02*
X031505Y022305D01*
X031505Y022455D02*
X031730Y022455D01*
X031805Y022530D01*
X031805Y022680D01*
X031730Y022755D01*
X031505Y022755D01*
X031655Y022455D02*
X031805Y022305D01*
X031965Y022380D02*
X032040Y022305D01*
X032191Y022305D01*
X032266Y022380D01*
X032266Y022530D01*
X032191Y022605D01*
X032116Y022605D01*
X031965Y022530D01*
X031965Y022755D01*
X032266Y022755D01*
X032191Y021255D02*
X031965Y021030D01*
X032266Y021030D01*
X032191Y020805D02*
X032191Y021255D01*
X031805Y021180D02*
X031805Y021030D01*
X031730Y020955D01*
X031505Y020955D01*
X031505Y020805D02*
X031505Y021255D01*
X031730Y021255D01*
X031805Y021180D01*
X031655Y020955D02*
X031805Y020805D01*
X021000Y028985D02*
X021000Y029435D01*
X020775Y029210D01*
X021075Y029210D01*
X020614Y029210D02*
X020539Y029135D01*
X020314Y029135D01*
X020314Y028985D02*
X020314Y029435D01*
X020539Y029435D01*
X020614Y029360D01*
X020614Y029210D01*
X020154Y029435D02*
X020004Y029435D01*
X020079Y029435D02*
X020079Y029060D01*
X020004Y028985D01*
X019929Y028985D01*
X019854Y029060D01*
X019470Y033955D02*
X019545Y034030D01*
X019545Y034180D01*
X019395Y034180D01*
X019545Y034330D02*
X019470Y034405D01*
X019320Y034405D01*
X019245Y034330D01*
X019245Y034030D01*
X019320Y033955D01*
X019470Y033955D01*
X019084Y033955D02*
X019084Y034255D01*
X018934Y034405D01*
X018784Y034255D01*
X018784Y033955D01*
X018784Y034180D02*
X019084Y034180D01*
X018624Y034405D02*
X018324Y034405D01*
X018474Y034405D02*
X018474Y033955D01*
X018089Y034030D02*
X018089Y034405D01*
X018014Y034405D02*
X018164Y034405D01*
X018089Y034030D02*
X018014Y033955D01*
X017938Y033955D01*
X017863Y034030D01*
X017703Y034180D02*
X017703Y034330D01*
X017628Y034405D01*
X017403Y034405D01*
X017403Y033955D01*
X017403Y034105D02*
X017628Y034105D01*
X017703Y034180D01*
X017243Y034105D02*
X017243Y034030D01*
X017168Y033955D01*
X017018Y033955D01*
X016943Y034030D01*
X017018Y034180D02*
X017168Y034180D01*
X017243Y034105D01*
X017243Y034330D02*
X017168Y034405D01*
X017018Y034405D01*
X016943Y034330D01*
X016943Y034255D01*
X017018Y034180D01*
X016786Y033955D02*
X016636Y033955D01*
X016711Y033955D02*
X016711Y034405D01*
X016636Y034405D02*
X016786Y034405D01*
D14*
X014030Y026730D02*
X014030Y026430D01*
X014030Y026130D01*
X013830Y026130D02*
X013830Y026430D01*
X013830Y026730D01*
X016330Y025480D02*
X016330Y025180D01*
X016330Y024880D01*
X016530Y024880D02*
X016530Y025180D01*
X016530Y025480D01*
X016830Y022480D02*
X016830Y022180D01*
X016830Y021880D01*
X017030Y021880D02*
X017030Y022180D01*
X017030Y022480D01*
X014530Y016980D02*
X014530Y016680D01*
X014530Y016380D01*
X014330Y016380D02*
X014330Y016680D01*
X014330Y016980D01*
X010230Y015780D02*
X009930Y015780D01*
X009630Y015780D01*
X009630Y015580D02*
X009930Y015580D01*
X010230Y015580D01*
X007980Y018830D02*
X007680Y018830D01*
X007380Y018830D01*
X007380Y019030D02*
X007680Y019030D01*
X007980Y019030D01*
X009994Y022255D02*
X009996Y022275D01*
X010001Y022295D01*
X010011Y022313D01*
X010023Y022330D01*
X010038Y022344D01*
X010056Y022354D01*
X010075Y022362D01*
X010095Y022366D01*
X010115Y022366D01*
X010135Y022362D01*
X010154Y022354D01*
X010172Y022344D01*
X010187Y022330D01*
X010199Y022313D01*
X010209Y022295D01*
X010214Y022275D01*
X010216Y022255D01*
X010214Y022235D01*
X010209Y022215D01*
X010199Y022197D01*
X010187Y022180D01*
X010172Y022166D01*
X010154Y022156D01*
X010135Y022148D01*
X010115Y022144D01*
X010095Y022144D01*
X010075Y022148D01*
X010056Y022156D01*
X010038Y022166D01*
X010023Y022180D01*
X010011Y022197D01*
X010001Y022215D01*
X009996Y022235D01*
X009994Y022255D01*
X009280Y025380D02*
X009280Y025680D01*
X009280Y025980D01*
X009080Y025980D02*
X009080Y025680D01*
X009080Y025380D01*
X002980Y027580D02*
X002680Y027580D01*
X002380Y027580D01*
X002380Y027780D02*
X002680Y027780D01*
X002980Y027780D01*
X002980Y018780D02*
X002680Y018780D01*
X002380Y018780D01*
X002380Y018580D02*
X002680Y018580D01*
X002980Y018580D01*
X006580Y007980D02*
X006580Y007680D01*
X006580Y007380D01*
X006780Y007380D02*
X006780Y007680D01*
X006780Y007980D01*
D15*
X003030Y012730D02*
X001330Y012730D01*
X000980Y013537D02*
X000980Y014330D01*
X001330Y015130D02*
X003030Y015130D01*
X003380Y014330D02*
X003380Y013525D01*
X001480Y013930D02*
X001482Y013982D01*
X001488Y014034D01*
X001498Y014086D01*
X001511Y014136D01*
X001528Y014186D01*
X001549Y014234D01*
X001574Y014280D01*
X001602Y014324D01*
X001633Y014366D01*
X001667Y014406D01*
X001704Y014443D01*
X001744Y014477D01*
X001786Y014508D01*
X001830Y014536D01*
X001876Y014561D01*
X001924Y014582D01*
X001974Y014599D01*
X002024Y014612D01*
X002076Y014622D01*
X002128Y014628D01*
X002180Y014630D01*
X002232Y014628D01*
X002284Y014622D01*
X002336Y014612D01*
X002386Y014599D01*
X002436Y014582D01*
X002484Y014561D01*
X002530Y014536D01*
X002574Y014508D01*
X002616Y014477D01*
X002656Y014443D01*
X002693Y014406D01*
X002727Y014366D01*
X002758Y014324D01*
X002786Y014280D01*
X002811Y014234D01*
X002832Y014186D01*
X002849Y014136D01*
X002862Y014086D01*
X002872Y014034D01*
X002878Y013982D01*
X002880Y013930D01*
X002878Y013878D01*
X002872Y013826D01*
X002862Y013774D01*
X002849Y013724D01*
X002832Y013674D01*
X002811Y013626D01*
X002786Y013580D01*
X002758Y013536D01*
X002727Y013494D01*
X002693Y013454D01*
X002656Y013417D01*
X002616Y013383D01*
X002574Y013352D01*
X002530Y013324D01*
X002484Y013299D01*
X002436Y013278D01*
X002386Y013261D01*
X002336Y013248D01*
X002284Y013238D01*
X002232Y013232D01*
X002180Y013230D01*
X002128Y013232D01*
X002076Y013238D01*
X002024Y013248D01*
X001974Y013261D01*
X001924Y013278D01*
X001876Y013299D01*
X001830Y013324D01*
X001786Y013352D01*
X001744Y013383D01*
X001704Y013417D01*
X001667Y013454D01*
X001633Y013494D01*
X001602Y013536D01*
X001574Y013580D01*
X001549Y013626D01*
X001528Y013674D01*
X001511Y013724D01*
X001498Y013774D01*
X001488Y013826D01*
X001482Y013878D01*
X001480Y013930D01*
X001780Y021830D02*
X001780Y024530D01*
X001782Y024589D01*
X001788Y024647D01*
X001797Y024706D01*
X001811Y024763D01*
X001828Y024819D01*
X001849Y024874D01*
X001873Y024928D01*
X001901Y024980D01*
X001932Y025030D01*
X001966Y025078D01*
X002003Y025123D01*
X002044Y025166D01*
X002087Y025207D01*
X002132Y025244D01*
X002180Y025278D01*
X002230Y025309D01*
X002282Y025337D01*
X002336Y025361D01*
X002391Y025382D01*
X002447Y025399D01*
X002504Y025413D01*
X002563Y025422D01*
X002621Y025428D01*
X002680Y025430D01*
X002739Y025428D01*
X002797Y025422D01*
X002856Y025413D01*
X002913Y025399D01*
X002969Y025382D01*
X003024Y025361D01*
X003078Y025337D01*
X003130Y025309D01*
X003180Y025278D01*
X003228Y025244D01*
X003273Y025207D01*
X003316Y025166D01*
X003357Y025123D01*
X003394Y025078D01*
X003428Y025030D01*
X003459Y024980D01*
X003487Y024928D01*
X003511Y024874D01*
X003532Y024819D01*
X003549Y024763D01*
X003563Y024706D01*
X003572Y024647D01*
X003578Y024589D01*
X003580Y024530D01*
X003580Y021830D01*
X003578Y021771D01*
X003572Y021713D01*
X003563Y021654D01*
X003549Y021597D01*
X003532Y021541D01*
X003511Y021486D01*
X003487Y021432D01*
X003459Y021380D01*
X003428Y021330D01*
X003394Y021282D01*
X003357Y021237D01*
X003316Y021194D01*
X003273Y021153D01*
X003228Y021116D01*
X003180Y021082D01*
X003130Y021051D01*
X003078Y021023D01*
X003024Y020999D01*
X002969Y020978D01*
X002913Y020961D01*
X002856Y020947D01*
X002797Y020938D01*
X002739Y020932D01*
X002680Y020930D01*
X002621Y020932D01*
X002563Y020938D01*
X002504Y020947D01*
X002447Y020961D01*
X002391Y020978D01*
X002336Y020999D01*
X002282Y021023D01*
X002230Y021051D01*
X002180Y021082D01*
X002132Y021116D01*
X002087Y021153D01*
X002044Y021194D01*
X002003Y021237D01*
X001966Y021282D01*
X001932Y021330D01*
X001901Y021380D01*
X001873Y021432D01*
X001849Y021486D01*
X001828Y021541D01*
X001811Y021597D01*
X001797Y021654D01*
X001788Y021713D01*
X001782Y021771D01*
X001780Y021830D01*
X009790Y022412D02*
X009790Y018948D01*
X009948Y018790D01*
X013412Y018790D01*
X013570Y018948D01*
X013570Y022412D01*
X013412Y022570D01*
X009948Y022570D01*
X009790Y022412D01*
X012930Y004680D02*
X014430Y004680D01*
D16*
X013806Y019204D03*
X013806Y019400D03*
X013806Y019597D03*
X013806Y019794D03*
X013806Y019991D03*
X013806Y020188D03*
X013806Y020385D03*
X013806Y020582D03*
X013806Y020778D03*
X013806Y020975D03*
X013806Y021172D03*
X013806Y021369D03*
X013806Y021566D03*
X013806Y021763D03*
X013806Y021960D03*
X013806Y022156D03*
X009554Y022156D03*
X009554Y021960D03*
X009554Y021763D03*
X009554Y021566D03*
X009554Y021369D03*
X009554Y021172D03*
X009554Y020975D03*
X009554Y020778D03*
X009554Y020582D03*
X009554Y020385D03*
X009554Y020188D03*
X009554Y019991D03*
X009554Y019794D03*
X009554Y019597D03*
X009554Y019400D03*
X009554Y019204D03*
D17*
X010204Y018554D03*
X010400Y018554D03*
X010597Y018554D03*
X010794Y018554D03*
X010991Y018554D03*
X011188Y018554D03*
X011385Y018554D03*
X011582Y018554D03*
X011778Y018554D03*
X011975Y018554D03*
X012172Y018554D03*
X012369Y018554D03*
X012566Y018554D03*
X012763Y018554D03*
X012960Y018554D03*
X013156Y018554D03*
X013156Y022806D03*
X012960Y022806D03*
X012763Y022806D03*
X012566Y022806D03*
X012369Y022806D03*
X012172Y022806D03*
X011975Y022806D03*
X011778Y022806D03*
X011582Y022806D03*
X011385Y022806D03*
X011188Y022806D03*
X010991Y022806D03*
X010794Y022806D03*
X010597Y022806D03*
X010400Y022806D03*
X010204Y022806D03*
D18*
X012900Y004712D02*
X012954Y004640D01*
X012953Y004641D02*
X012900Y004598D01*
X012849Y004553D01*
X012801Y004504D01*
X012756Y004453D01*
X012713Y004399D01*
X012674Y004343D01*
X012638Y004285D01*
X012605Y004225D01*
X012576Y004164D01*
X012551Y004100D01*
X012529Y004036D01*
X012510Y003970D01*
X012496Y003903D01*
X012485Y003836D01*
X012478Y003768D01*
X012475Y003700D01*
X012476Y003631D01*
X012481Y003563D01*
X012489Y003495D01*
X012502Y003428D01*
X012518Y003362D01*
X012538Y003297D01*
X012561Y003232D01*
X012588Y003170D01*
X012619Y003109D01*
X012653Y003050D01*
X012690Y002992D01*
X012731Y002937D01*
X012775Y002885D01*
X012821Y002835D01*
X012870Y002788D01*
X012922Y002743D01*
X012976Y002702D01*
X013033Y002663D01*
X013092Y002628D01*
X013152Y002597D01*
X013214Y002569D01*
X013278Y002544D01*
X013343Y002523D01*
X013409Y002506D01*
X013476Y002492D01*
X013544Y002483D01*
X013612Y002477D01*
X013680Y002475D01*
X013748Y002477D01*
X013816Y002483D01*
X013884Y002492D01*
X013951Y002506D01*
X014017Y002523D01*
X014082Y002544D01*
X014146Y002569D01*
X014208Y002597D01*
X014268Y002628D01*
X014327Y002663D01*
X014384Y002702D01*
X014438Y002743D01*
X014490Y002788D01*
X014539Y002835D01*
X014585Y002885D01*
X014629Y002937D01*
X014670Y002992D01*
X014707Y003050D01*
X014741Y003109D01*
X014772Y003170D01*
X014799Y003232D01*
X014822Y003297D01*
X014842Y003362D01*
X014858Y003428D01*
X014871Y003495D01*
X014879Y003563D01*
X014884Y003631D01*
X014885Y003700D01*
X014882Y003768D01*
X014875Y003836D01*
X014864Y003903D01*
X014850Y003970D01*
X014831Y004036D01*
X014809Y004100D01*
X014784Y004164D01*
X014755Y004225D01*
X014722Y004285D01*
X014686Y004343D01*
X014647Y004399D01*
X014604Y004453D01*
X014559Y004504D01*
X014511Y004553D01*
X014460Y004598D01*
X014407Y004641D01*
X014460Y004712D01*
X014461Y004713D01*
X014516Y004669D01*
X014569Y004621D01*
X014620Y004571D01*
X014667Y004518D01*
X014711Y004463D01*
X014753Y004405D01*
X014791Y004345D01*
X014826Y004284D01*
X014857Y004220D01*
X014885Y004155D01*
X014909Y004088D01*
X014930Y004020D01*
X014946Y003951D01*
X014959Y003881D01*
X014968Y003811D01*
X014974Y003740D01*
X014975Y003669D01*
X014972Y003598D01*
X014966Y003527D01*
X014956Y003457D01*
X014942Y003388D01*
X014924Y003319D01*
X014902Y003251D01*
X014877Y003185D01*
X014848Y003120D01*
X014815Y003057D01*
X014779Y002996D01*
X014740Y002937D01*
X014698Y002880D01*
X014653Y002825D01*
X014604Y002773D01*
X014553Y002724D01*
X014500Y002677D01*
X014443Y002634D01*
X014385Y002594D01*
X014324Y002557D01*
X014262Y002523D01*
X014198Y002493D01*
X014132Y002466D01*
X014065Y002443D01*
X013996Y002424D01*
X013927Y002409D01*
X013857Y002397D01*
X013786Y002389D01*
X013715Y002385D01*
X013645Y002385D01*
X013574Y002389D01*
X013503Y002397D01*
X013433Y002409D01*
X013364Y002424D01*
X013295Y002443D01*
X013228Y002466D01*
X013162Y002493D01*
X013098Y002523D01*
X013036Y002557D01*
X012975Y002594D01*
X012917Y002634D01*
X012860Y002677D01*
X012807Y002724D01*
X012756Y002773D01*
X012707Y002825D01*
X012662Y002880D01*
X012620Y002937D01*
X012581Y002996D01*
X012545Y003057D01*
X012512Y003120D01*
X012483Y003185D01*
X012458Y003251D01*
X012436Y003319D01*
X012418Y003388D01*
X012404Y003457D01*
X012394Y003527D01*
X012388Y003598D01*
X012385Y003669D01*
X012386Y003740D01*
X012392Y003811D01*
X012401Y003881D01*
X012414Y003951D01*
X012430Y004020D01*
X012451Y004088D01*
X012475Y004155D01*
X012503Y004220D01*
X012534Y004284D01*
X012569Y004345D01*
X012607Y004405D01*
X012649Y004463D01*
X012693Y004518D01*
X012740Y004571D01*
X012791Y004621D01*
X012844Y004669D01*
X012899Y004713D01*
X012904Y004706D01*
X012849Y004661D01*
X012796Y004614D01*
X012745Y004563D01*
X012698Y004510D01*
X012653Y004454D01*
X012612Y004396D01*
X012574Y004336D01*
X012539Y004274D01*
X012508Y004210D01*
X012481Y004144D01*
X012457Y004077D01*
X012437Y004008D01*
X012420Y003939D01*
X012408Y003869D01*
X012399Y003798D01*
X012395Y003727D01*
X012394Y003656D01*
X012398Y003585D01*
X012405Y003514D01*
X012416Y003443D01*
X012431Y003374D01*
X012450Y003305D01*
X012473Y003237D01*
X012499Y003171D01*
X012529Y003106D01*
X012563Y003044D01*
X012599Y002983D01*
X012640Y002924D01*
X012683Y002867D01*
X012730Y002813D01*
X012779Y002762D01*
X012832Y002714D01*
X012886Y002668D01*
X012944Y002626D01*
X013003Y002587D01*
X013065Y002551D01*
X013128Y002518D01*
X013193Y002490D01*
X013260Y002464D01*
X013328Y002443D01*
X013397Y002425D01*
X013467Y002412D01*
X013538Y002402D01*
X013609Y002396D01*
X013680Y002394D01*
X013751Y002396D01*
X013822Y002402D01*
X013893Y002412D01*
X013963Y002425D01*
X014032Y002443D01*
X014100Y002464D01*
X014167Y002490D01*
X014232Y002518D01*
X014295Y002551D01*
X014357Y002587D01*
X014416Y002626D01*
X014474Y002668D01*
X014528Y002714D01*
X014581Y002762D01*
X014630Y002813D01*
X014677Y002867D01*
X014720Y002924D01*
X014761Y002983D01*
X014797Y003044D01*
X014831Y003106D01*
X014861Y003171D01*
X014887Y003237D01*
X014910Y003305D01*
X014929Y003374D01*
X014944Y003443D01*
X014955Y003514D01*
X014962Y003585D01*
X014966Y003656D01*
X014965Y003727D01*
X014961Y003798D01*
X014952Y003869D01*
X014940Y003939D01*
X014923Y004008D01*
X014903Y004077D01*
X014879Y004144D01*
X014852Y004210D01*
X014821Y004274D01*
X014786Y004336D01*
X014748Y004396D01*
X014707Y004454D01*
X014662Y004510D01*
X014615Y004563D01*
X014564Y004614D01*
X014511Y004661D01*
X014456Y004706D01*
X014450Y004699D01*
X014505Y004654D01*
X014558Y004607D01*
X014608Y004557D01*
X014655Y004504D01*
X014699Y004449D01*
X014741Y004391D01*
X014778Y004332D01*
X014813Y004270D01*
X014844Y004206D01*
X014871Y004141D01*
X014895Y004074D01*
X014915Y004006D01*
X014931Y003937D01*
X014943Y003868D01*
X014952Y003797D01*
X014956Y003727D01*
X014957Y003656D01*
X014953Y003585D01*
X014946Y003515D01*
X014935Y003445D01*
X014920Y003376D01*
X014901Y003308D01*
X014879Y003240D01*
X014853Y003175D01*
X014823Y003110D01*
X014790Y003048D01*
X014753Y002988D01*
X014713Y002929D01*
X014670Y002873D01*
X014624Y002819D01*
X014574Y002769D01*
X014523Y002720D01*
X014468Y002675D01*
X014411Y002633D01*
X014352Y002594D01*
X014291Y002559D01*
X014228Y002526D01*
X014163Y002498D01*
X014097Y002473D01*
X014029Y002452D01*
X013961Y002434D01*
X013891Y002421D01*
X013821Y002411D01*
X013751Y002405D01*
X013680Y002403D01*
X013609Y002405D01*
X013539Y002411D01*
X013469Y002421D01*
X013399Y002434D01*
X013331Y002452D01*
X013263Y002473D01*
X013197Y002498D01*
X013132Y002526D01*
X013069Y002559D01*
X013008Y002594D01*
X012949Y002633D01*
X012892Y002675D01*
X012837Y002720D01*
X012786Y002769D01*
X012736Y002819D01*
X012690Y002873D01*
X012647Y002929D01*
X012607Y002988D01*
X012570Y003048D01*
X012537Y003110D01*
X012507Y003175D01*
X012481Y003240D01*
X012459Y003308D01*
X012440Y003376D01*
X012425Y003445D01*
X012414Y003515D01*
X012407Y003585D01*
X012403Y003656D01*
X012404Y003727D01*
X012408Y003797D01*
X012417Y003868D01*
X012429Y003937D01*
X012445Y004006D01*
X012465Y004074D01*
X012489Y004141D01*
X012516Y004206D01*
X012547Y004270D01*
X012582Y004332D01*
X012619Y004391D01*
X012661Y004449D01*
X012705Y004504D01*
X012752Y004557D01*
X012802Y004607D01*
X012855Y004654D01*
X012910Y004699D01*
X012915Y004691D01*
X012860Y004647D01*
X012807Y004599D01*
X012757Y004549D01*
X012709Y004496D01*
X012665Y004440D01*
X012624Y004382D01*
X012587Y004322D01*
X012552Y004260D01*
X012522Y004196D01*
X012495Y004130D01*
X012471Y004063D01*
X012452Y003995D01*
X012436Y003925D01*
X012424Y003855D01*
X012416Y003785D01*
X012412Y003714D01*
X012413Y003643D01*
X012417Y003572D01*
X012425Y003501D01*
X012437Y003431D01*
X012453Y003362D01*
X012472Y003294D01*
X012496Y003226D01*
X012523Y003161D01*
X012554Y003097D01*
X012588Y003035D01*
X012626Y002975D01*
X012668Y002917D01*
X012712Y002861D01*
X012759Y002808D01*
X012810Y002758D01*
X012863Y002711D01*
X012918Y002666D01*
X012976Y002625D01*
X013036Y002588D01*
X013099Y002553D01*
X013163Y002522D01*
X013228Y002495D01*
X013295Y002472D01*
X013364Y002452D01*
X013433Y002436D01*
X013503Y002424D01*
X013574Y002416D01*
X013644Y002412D01*
X013716Y002412D01*
X013786Y002416D01*
X013857Y002424D01*
X013927Y002436D01*
X013996Y002452D01*
X014065Y002472D01*
X014132Y002495D01*
X014197Y002522D01*
X014261Y002553D01*
X014324Y002588D01*
X014384Y002625D01*
X014442Y002666D01*
X014497Y002711D01*
X014550Y002758D01*
X014601Y002808D01*
X014648Y002861D01*
X014692Y002917D01*
X014734Y002975D01*
X014772Y003035D01*
X014806Y003097D01*
X014837Y003161D01*
X014864Y003226D01*
X014888Y003294D01*
X014907Y003362D01*
X014923Y003431D01*
X014935Y003501D01*
X014943Y003572D01*
X014947Y003643D01*
X014948Y003714D01*
X014944Y003785D01*
X014936Y003855D01*
X014924Y003925D01*
X014908Y003995D01*
X014889Y004063D01*
X014865Y004130D01*
X014838Y004196D01*
X014808Y004260D01*
X014773Y004322D01*
X014736Y004382D01*
X014695Y004440D01*
X014651Y004496D01*
X014603Y004549D01*
X014553Y004599D01*
X014500Y004647D01*
X014445Y004691D01*
X014439Y004684D01*
X014494Y004640D01*
X014547Y004593D01*
X014597Y004543D01*
X014644Y004490D01*
X014688Y004435D01*
X014728Y004377D01*
X014766Y004318D01*
X014800Y004256D01*
X014830Y004192D01*
X014857Y004127D01*
X014880Y004060D01*
X014900Y003992D01*
X014915Y003924D01*
X014927Y003854D01*
X014935Y003784D01*
X014939Y003713D01*
X014938Y003643D01*
X014934Y003572D01*
X014926Y003502D01*
X014914Y003433D01*
X014899Y003364D01*
X014879Y003296D01*
X014856Y003230D01*
X014829Y003165D01*
X014798Y003101D01*
X014764Y003039D01*
X014726Y002980D01*
X014685Y002922D01*
X014641Y002867D01*
X014594Y002814D01*
X014544Y002765D01*
X014492Y002718D01*
X014436Y002674D01*
X014379Y002633D01*
X014319Y002595D01*
X014257Y002561D01*
X014194Y002531D01*
X014129Y002504D01*
X014062Y002480D01*
X013994Y002461D01*
X013925Y002445D01*
X013856Y002433D01*
X013786Y002425D01*
X013715Y002421D01*
X013645Y002421D01*
X013574Y002425D01*
X013504Y002433D01*
X013435Y002445D01*
X013366Y002461D01*
X013298Y002480D01*
X013231Y002504D01*
X013166Y002531D01*
X013103Y002561D01*
X013041Y002595D01*
X012981Y002633D01*
X012924Y002674D01*
X012868Y002718D01*
X012816Y002765D01*
X012766Y002814D01*
X012719Y002867D01*
X012675Y002922D01*
X012634Y002980D01*
X012596Y003039D01*
X012562Y003101D01*
X012531Y003165D01*
X012504Y003230D01*
X012481Y003296D01*
X012461Y003364D01*
X012446Y003433D01*
X012434Y003502D01*
X012426Y003572D01*
X012422Y003643D01*
X012421Y003713D01*
X012425Y003784D01*
X012433Y003854D01*
X012445Y003924D01*
X012460Y003992D01*
X012480Y004060D01*
X012503Y004127D01*
X012530Y004192D01*
X012560Y004256D01*
X012594Y004318D01*
X012632Y004377D01*
X012672Y004435D01*
X012716Y004490D01*
X012763Y004543D01*
X012813Y004593D01*
X012866Y004640D01*
X012921Y004684D01*
X012926Y004677D01*
X012871Y004633D01*
X012819Y004586D01*
X012770Y004537D01*
X012723Y004484D01*
X012680Y004430D01*
X012639Y004372D01*
X012602Y004313D01*
X012568Y004252D01*
X012538Y004188D01*
X012511Y004124D01*
X012488Y004057D01*
X012469Y003990D01*
X012454Y003922D01*
X012442Y003853D01*
X012434Y003783D01*
X012430Y003713D01*
X012431Y003643D01*
X012435Y003573D01*
X012443Y003504D01*
X012454Y003435D01*
X012470Y003366D01*
X012489Y003299D01*
X012513Y003233D01*
X012540Y003168D01*
X012570Y003105D01*
X012604Y003044D01*
X012641Y002985D01*
X012682Y002927D01*
X012726Y002873D01*
X012772Y002821D01*
X012822Y002771D01*
X012874Y002724D01*
X012929Y002681D01*
X012986Y002640D01*
X013045Y002603D01*
X013107Y002569D01*
X013170Y002539D01*
X013235Y002512D01*
X013301Y002489D01*
X013368Y002470D01*
X013436Y002454D01*
X013505Y002442D01*
X013575Y002434D01*
X013645Y002430D01*
X013715Y002430D01*
X013785Y002434D01*
X013855Y002442D01*
X013924Y002454D01*
X013992Y002470D01*
X014059Y002489D01*
X014125Y002512D01*
X014190Y002539D01*
X014253Y002569D01*
X014315Y002603D01*
X014374Y002640D01*
X014431Y002681D01*
X014486Y002724D01*
X014538Y002771D01*
X014588Y002821D01*
X014634Y002873D01*
X014678Y002927D01*
X014719Y002985D01*
X014756Y003044D01*
X014790Y003105D01*
X014820Y003168D01*
X014847Y003233D01*
X014871Y003299D01*
X014890Y003366D01*
X014906Y003435D01*
X014917Y003504D01*
X014925Y003573D01*
X014929Y003643D01*
X014930Y003713D01*
X014926Y003783D01*
X014918Y003853D01*
X014906Y003922D01*
X014891Y003990D01*
X014872Y004057D01*
X014849Y004124D01*
X014822Y004188D01*
X014792Y004252D01*
X014758Y004313D01*
X014721Y004372D01*
X014680Y004430D01*
X014637Y004484D01*
X014590Y004537D01*
X014541Y004586D01*
X014489Y004633D01*
X014434Y004677D01*
X014429Y004670D01*
X014483Y004626D01*
X014535Y004580D01*
X014584Y004531D01*
X014630Y004479D01*
X014673Y004424D01*
X014713Y004367D01*
X014750Y004308D01*
X014784Y004247D01*
X014814Y004185D01*
X014840Y004120D01*
X014863Y004055D01*
X014882Y003988D01*
X014898Y003920D01*
X014909Y003851D01*
X014917Y003782D01*
X014921Y003713D01*
X014920Y003643D01*
X014916Y003574D01*
X014909Y003505D01*
X014897Y003436D01*
X014881Y003369D01*
X014862Y003302D01*
X014839Y003236D01*
X014812Y003172D01*
X014782Y003109D01*
X014748Y003048D01*
X014711Y002990D01*
X014671Y002933D01*
X014628Y002879D01*
X014581Y002827D01*
X014532Y002778D01*
X014480Y002731D01*
X014426Y002688D01*
X014369Y002648D01*
X014310Y002611D01*
X014249Y002577D01*
X014186Y002547D01*
X014122Y002520D01*
X014057Y002497D01*
X013990Y002478D01*
X013922Y002463D01*
X013853Y002451D01*
X013784Y002443D01*
X013715Y002439D01*
X013645Y002439D01*
X013576Y002443D01*
X013507Y002451D01*
X013438Y002463D01*
X013370Y002478D01*
X013303Y002497D01*
X013238Y002520D01*
X013174Y002547D01*
X013111Y002577D01*
X013050Y002611D01*
X012991Y002648D01*
X012934Y002688D01*
X012880Y002731D01*
X012828Y002778D01*
X012779Y002827D01*
X012732Y002879D01*
X012689Y002933D01*
X012649Y002990D01*
X012612Y003048D01*
X012578Y003109D01*
X012548Y003172D01*
X012521Y003236D01*
X012498Y003302D01*
X012479Y003369D01*
X012463Y003436D01*
X012451Y003505D01*
X012444Y003574D01*
X012440Y003643D01*
X012439Y003713D01*
X012443Y003782D01*
X012451Y003851D01*
X012462Y003920D01*
X012478Y003988D01*
X012497Y004055D01*
X012520Y004120D01*
X012546Y004185D01*
X012576Y004247D01*
X012610Y004308D01*
X012647Y004367D01*
X012687Y004424D01*
X012730Y004479D01*
X012776Y004531D01*
X012825Y004580D01*
X012877Y004626D01*
X012931Y004670D01*
X012937Y004663D01*
X012883Y004619D01*
X012832Y004573D01*
X012783Y004524D01*
X012737Y004473D01*
X012694Y004419D01*
X012654Y004362D01*
X012618Y004304D01*
X012584Y004243D01*
X012554Y004181D01*
X012528Y004117D01*
X012506Y004052D01*
X012487Y003986D01*
X012471Y003918D01*
X012460Y003850D01*
X012452Y003782D01*
X012448Y003713D01*
X012449Y003644D01*
X012453Y003575D01*
X012460Y003506D01*
X012472Y003438D01*
X012487Y003371D01*
X012507Y003304D01*
X012530Y003239D01*
X012556Y003176D01*
X012586Y003113D01*
X012619Y003053D01*
X012656Y002995D01*
X012696Y002938D01*
X012739Y002884D01*
X012785Y002833D01*
X012834Y002784D01*
X012886Y002738D01*
X012940Y002695D01*
X012996Y002655D01*
X013055Y002619D01*
X013115Y002585D01*
X013177Y002555D01*
X013241Y002529D01*
X013306Y002506D01*
X013373Y002487D01*
X013440Y002472D01*
X013508Y002460D01*
X013577Y002452D01*
X013645Y002448D01*
X013715Y002448D01*
X013783Y002452D01*
X013852Y002460D01*
X013920Y002472D01*
X013987Y002487D01*
X014054Y002506D01*
X014119Y002529D01*
X014183Y002555D01*
X014245Y002585D01*
X014305Y002619D01*
X014364Y002655D01*
X014420Y002695D01*
X014474Y002738D01*
X014526Y002784D01*
X014575Y002833D01*
X014621Y002884D01*
X014664Y002938D01*
X014704Y002995D01*
X014741Y003053D01*
X014774Y003113D01*
X014804Y003176D01*
X014830Y003239D01*
X014853Y003304D01*
X014873Y003371D01*
X014888Y003438D01*
X014900Y003506D01*
X014907Y003575D01*
X014911Y003644D01*
X014912Y003713D01*
X014908Y003782D01*
X014900Y003850D01*
X014889Y003918D01*
X014873Y003986D01*
X014854Y004052D01*
X014832Y004117D01*
X014806Y004181D01*
X014776Y004243D01*
X014742Y004304D01*
X014706Y004362D01*
X014666Y004419D01*
X014623Y004473D01*
X014577Y004524D01*
X014528Y004573D01*
X014477Y004619D01*
X014423Y004663D01*
X014418Y004655D01*
X014472Y004612D01*
X014523Y004566D01*
X014572Y004516D01*
X014618Y004465D01*
X014661Y004410D01*
X014701Y004353D01*
X014737Y004295D01*
X014771Y004234D01*
X014800Y004171D01*
X014826Y004107D01*
X014848Y004041D01*
X014867Y003974D01*
X014882Y003907D01*
X014893Y003838D01*
X014900Y003769D01*
X014903Y003700D01*
X014902Y003631D01*
X014897Y003561D01*
X014889Y003493D01*
X014876Y003425D01*
X014860Y003357D01*
X014839Y003291D01*
X014816Y003226D01*
X014788Y003162D01*
X014757Y003100D01*
X014722Y003040D01*
X014684Y002982D01*
X014643Y002926D01*
X014599Y002873D01*
X014552Y002822D01*
X014502Y002774D01*
X014449Y002729D01*
X014394Y002687D01*
X014337Y002648D01*
X014277Y002613D01*
X014216Y002581D01*
X014153Y002552D01*
X014088Y002527D01*
X014022Y002506D01*
X013955Y002488D01*
X013887Y002475D01*
X013818Y002465D01*
X013749Y002459D01*
X013680Y002457D01*
X013611Y002459D01*
X013542Y002465D01*
X013473Y002475D01*
X013405Y002488D01*
X013338Y002506D01*
X013272Y002527D01*
X013207Y002552D01*
X013144Y002581D01*
X013083Y002613D01*
X013023Y002648D01*
X012966Y002687D01*
X012911Y002729D01*
X012858Y002774D01*
X012808Y002822D01*
X012761Y002873D01*
X012717Y002926D01*
X012676Y002982D01*
X012638Y003040D01*
X012603Y003100D01*
X012572Y003162D01*
X012544Y003226D01*
X012521Y003291D01*
X012500Y003357D01*
X012484Y003425D01*
X012471Y003493D01*
X012463Y003561D01*
X012458Y003631D01*
X012457Y003700D01*
X012460Y003769D01*
X012467Y003838D01*
X012478Y003907D01*
X012493Y003974D01*
X012512Y004041D01*
X012534Y004107D01*
X012560Y004171D01*
X012589Y004234D01*
X012623Y004295D01*
X012659Y004353D01*
X012699Y004410D01*
X012742Y004465D01*
X012788Y004516D01*
X012837Y004566D01*
X012888Y004612D01*
X012942Y004655D01*
X012948Y004648D01*
X012894Y004605D01*
X012843Y004559D01*
X012794Y004510D01*
X012749Y004459D01*
X012706Y004405D01*
X012667Y004348D01*
X012630Y004290D01*
X012597Y004230D01*
X012568Y004167D01*
X012542Y004104D01*
X012520Y004038D01*
X012502Y003972D01*
X012487Y003905D01*
X012476Y003837D01*
X012469Y003768D01*
X012466Y003700D01*
X012467Y003631D01*
X012472Y003562D01*
X012480Y003494D01*
X012493Y003426D01*
X012509Y003360D01*
X012529Y003294D01*
X012553Y003229D01*
X012580Y003166D01*
X012611Y003105D01*
X012645Y003045D01*
X012683Y002987D01*
X012724Y002932D01*
X012768Y002879D01*
X012815Y002829D01*
X012864Y002781D01*
X012916Y002736D01*
X012971Y002694D01*
X013028Y002656D01*
X013087Y002621D01*
X013148Y002589D01*
X013211Y002560D01*
X013275Y002536D01*
X013341Y002514D01*
X013407Y002497D01*
X013475Y002484D01*
X013543Y002474D01*
X013611Y002468D01*
X013680Y002466D01*
X013749Y002468D01*
X013817Y002474D01*
X013885Y002484D01*
X013953Y002497D01*
X014019Y002514D01*
X014085Y002536D01*
X014149Y002560D01*
X014212Y002589D01*
X014273Y002621D01*
X014332Y002656D01*
X014389Y002694D01*
X014444Y002736D01*
X014496Y002781D01*
X014545Y002829D01*
X014592Y002879D01*
X014636Y002932D01*
X014677Y002987D01*
X014715Y003045D01*
X014749Y003105D01*
X014780Y003166D01*
X014807Y003229D01*
X014831Y003294D01*
X014851Y003360D01*
X014867Y003426D01*
X014880Y003494D01*
X014888Y003562D01*
X014893Y003631D01*
X014894Y003700D01*
X014891Y003768D01*
X014884Y003837D01*
X014873Y003905D01*
X014858Y003972D01*
X014840Y004038D01*
X014818Y004104D01*
X014792Y004167D01*
X014763Y004230D01*
X014730Y004290D01*
X014693Y004348D01*
X014654Y004405D01*
X014611Y004459D01*
X014566Y004510D01*
X014517Y004559D01*
X014466Y004605D01*
X014412Y004648D01*
D19*
X010600Y003180D03*
X007760Y003180D03*
X031260Y007180D03*
X031260Y008680D03*
X031260Y011180D03*
X031260Y012680D03*
X034100Y012680D03*
X034100Y011180D03*
X034100Y008680D03*
X034100Y007180D03*
X034100Y016180D03*
X034100Y017680D03*
X034100Y020180D03*
X034100Y021680D03*
X031260Y021680D03*
X031260Y020180D03*
X031260Y017680D03*
X031260Y016180D03*
X031260Y027180D03*
X031260Y028680D03*
X031260Y030680D03*
X031260Y032180D03*
X034100Y032180D03*
X034100Y030680D03*
X034100Y028680D03*
X034100Y027180D03*
X011100Y032680D03*
X008260Y032680D03*
D20*
X027680Y026680D03*
X027680Y023680D03*
X027680Y019180D03*
X027680Y016180D03*
X027680Y010180D03*
X027680Y007180D03*
D21*
X028355Y007180D03*
X028355Y010180D03*
X024005Y010180D03*
X024005Y007180D03*
X024005Y016180D03*
X024005Y019180D03*
X028355Y019180D03*
X028355Y016180D03*
X028355Y023680D03*
X028355Y026680D03*
X024005Y026680D03*
X024005Y023680D03*
M02*
