G75*
G70*
%OFA0B0*%
%FSLAX24Y24*%
%IPPOS*%
%LPD*%
%AMOC8*
5,1,8,0,0,1.08239X$1,22.5*
%
%ADD10C,0.0000*%
%ADD11C,0.0600*%
%ADD12OC8,0.0520*%
%ADD13R,0.0472X0.0118*%
%ADD14R,0.0118X0.0472*%
%ADD15OC8,0.0600*%
%ADD16C,0.0650*%
%ADD17C,0.0740*%
%ADD18C,0.0885*%
%ADD19C,0.0160*%
%ADD20C,0.0120*%
%ADD21R,0.0356X0.0356*%
D10*
X000180Y000180D02*
X000180Y039050D01*
X039172Y039050D01*
X039172Y000180D01*
X000180Y000180D01*
X002029Y008880D02*
X002031Y008927D01*
X002037Y008973D01*
X002047Y009019D01*
X002060Y009064D01*
X002078Y009107D01*
X002099Y009149D01*
X002123Y009189D01*
X002151Y009226D01*
X002182Y009261D01*
X002216Y009294D01*
X002252Y009323D01*
X002291Y009349D01*
X002332Y009372D01*
X002375Y009391D01*
X002419Y009407D01*
X002464Y009419D01*
X002510Y009427D01*
X002557Y009431D01*
X002603Y009431D01*
X002650Y009427D01*
X002696Y009419D01*
X002741Y009407D01*
X002785Y009391D01*
X002828Y009372D01*
X002869Y009349D01*
X002908Y009323D01*
X002944Y009294D01*
X002978Y009261D01*
X003009Y009226D01*
X003037Y009189D01*
X003061Y009149D01*
X003082Y009107D01*
X003100Y009064D01*
X003113Y009019D01*
X003123Y008973D01*
X003129Y008927D01*
X003131Y008880D01*
X003129Y008833D01*
X003123Y008787D01*
X003113Y008741D01*
X003100Y008696D01*
X003082Y008653D01*
X003061Y008611D01*
X003037Y008571D01*
X003009Y008534D01*
X002978Y008499D01*
X002944Y008466D01*
X002908Y008437D01*
X002869Y008411D01*
X002828Y008388D01*
X002785Y008369D01*
X002741Y008353D01*
X002696Y008341D01*
X002650Y008333D01*
X002603Y008329D01*
X002557Y008329D01*
X002510Y008333D01*
X002464Y008341D01*
X002419Y008353D01*
X002375Y008369D01*
X002332Y008388D01*
X002291Y008411D01*
X002252Y008437D01*
X002216Y008466D01*
X002182Y008499D01*
X002151Y008534D01*
X002123Y008571D01*
X002099Y008611D01*
X002078Y008653D01*
X002060Y008696D01*
X002047Y008741D01*
X002037Y008787D01*
X002031Y008833D01*
X002029Y008880D01*
X023229Y029380D02*
X023231Y029427D01*
X023237Y029473D01*
X023247Y029519D01*
X023260Y029564D01*
X023278Y029607D01*
X023299Y029649D01*
X023323Y029689D01*
X023351Y029726D01*
X023382Y029761D01*
X023416Y029794D01*
X023452Y029823D01*
X023491Y029849D01*
X023532Y029872D01*
X023575Y029891D01*
X023619Y029907D01*
X023664Y029919D01*
X023710Y029927D01*
X023757Y029931D01*
X023803Y029931D01*
X023850Y029927D01*
X023896Y029919D01*
X023941Y029907D01*
X023985Y029891D01*
X024028Y029872D01*
X024069Y029849D01*
X024108Y029823D01*
X024144Y029794D01*
X024178Y029761D01*
X024209Y029726D01*
X024237Y029689D01*
X024261Y029649D01*
X024282Y029607D01*
X024300Y029564D01*
X024313Y029519D01*
X024323Y029473D01*
X024329Y029427D01*
X024331Y029380D01*
X024329Y029333D01*
X024323Y029287D01*
X024313Y029241D01*
X024300Y029196D01*
X024282Y029153D01*
X024261Y029111D01*
X024237Y029071D01*
X024209Y029034D01*
X024178Y028999D01*
X024144Y028966D01*
X024108Y028937D01*
X024069Y028911D01*
X024028Y028888D01*
X023985Y028869D01*
X023941Y028853D01*
X023896Y028841D01*
X023850Y028833D01*
X023803Y028829D01*
X023757Y028829D01*
X023710Y028833D01*
X023664Y028841D01*
X023619Y028853D01*
X023575Y028869D01*
X023532Y028888D01*
X023491Y028911D01*
X023452Y028937D01*
X023416Y028966D01*
X023382Y028999D01*
X023351Y029034D01*
X023323Y029071D01*
X023299Y029111D01*
X023278Y029153D01*
X023260Y029196D01*
X023247Y029241D01*
X023237Y029287D01*
X023231Y029333D01*
X023229Y029380D01*
X037329Y037880D02*
X037331Y037927D01*
X037337Y037973D01*
X037347Y038019D01*
X037360Y038064D01*
X037378Y038107D01*
X037399Y038149D01*
X037423Y038189D01*
X037451Y038226D01*
X037482Y038261D01*
X037516Y038294D01*
X037552Y038323D01*
X037591Y038349D01*
X037632Y038372D01*
X037675Y038391D01*
X037719Y038407D01*
X037764Y038419D01*
X037810Y038427D01*
X037857Y038431D01*
X037903Y038431D01*
X037950Y038427D01*
X037996Y038419D01*
X038041Y038407D01*
X038085Y038391D01*
X038128Y038372D01*
X038169Y038349D01*
X038208Y038323D01*
X038244Y038294D01*
X038278Y038261D01*
X038309Y038226D01*
X038337Y038189D01*
X038361Y038149D01*
X038382Y038107D01*
X038400Y038064D01*
X038413Y038019D01*
X038423Y037973D01*
X038429Y037927D01*
X038431Y037880D01*
X038429Y037833D01*
X038423Y037787D01*
X038413Y037741D01*
X038400Y037696D01*
X038382Y037653D01*
X038361Y037611D01*
X038337Y037571D01*
X038309Y037534D01*
X038278Y037499D01*
X038244Y037466D01*
X038208Y037437D01*
X038169Y037411D01*
X038128Y037388D01*
X038085Y037369D01*
X038041Y037353D01*
X037996Y037341D01*
X037950Y037333D01*
X037903Y037329D01*
X037857Y037329D01*
X037810Y037333D01*
X037764Y037341D01*
X037719Y037353D01*
X037675Y037369D01*
X037632Y037388D01*
X037591Y037411D01*
X037552Y037437D01*
X037516Y037466D01*
X037482Y037499D01*
X037451Y037534D01*
X037423Y037571D01*
X037399Y037611D01*
X037378Y037653D01*
X037360Y037696D01*
X037347Y037741D01*
X037337Y037787D01*
X037331Y037833D01*
X037329Y037880D01*
X000829Y037880D02*
X000831Y037927D01*
X000837Y037973D01*
X000847Y038019D01*
X000860Y038064D01*
X000878Y038107D01*
X000899Y038149D01*
X000923Y038189D01*
X000951Y038226D01*
X000982Y038261D01*
X001016Y038294D01*
X001052Y038323D01*
X001091Y038349D01*
X001132Y038372D01*
X001175Y038391D01*
X001219Y038407D01*
X001264Y038419D01*
X001310Y038427D01*
X001357Y038431D01*
X001403Y038431D01*
X001450Y038427D01*
X001496Y038419D01*
X001541Y038407D01*
X001585Y038391D01*
X001628Y038372D01*
X001669Y038349D01*
X001708Y038323D01*
X001744Y038294D01*
X001778Y038261D01*
X001809Y038226D01*
X001837Y038189D01*
X001861Y038149D01*
X001882Y038107D01*
X001900Y038064D01*
X001913Y038019D01*
X001923Y037973D01*
X001929Y037927D01*
X001931Y037880D01*
X001929Y037833D01*
X001923Y037787D01*
X001913Y037741D01*
X001900Y037696D01*
X001882Y037653D01*
X001861Y037611D01*
X001837Y037571D01*
X001809Y037534D01*
X001778Y037499D01*
X001744Y037466D01*
X001708Y037437D01*
X001669Y037411D01*
X001628Y037388D01*
X001585Y037369D01*
X001541Y037353D01*
X001496Y037341D01*
X001450Y037333D01*
X001403Y037329D01*
X001357Y037329D01*
X001310Y037333D01*
X001264Y037341D01*
X001219Y037353D01*
X001175Y037369D01*
X001132Y037388D01*
X001091Y037411D01*
X001052Y037437D01*
X001016Y037466D01*
X000982Y037499D01*
X000951Y037534D01*
X000923Y037571D01*
X000899Y037611D01*
X000878Y037653D01*
X000860Y037696D01*
X000847Y037741D01*
X000837Y037787D01*
X000831Y037833D01*
X000829Y037880D01*
X037129Y001580D02*
X037131Y001627D01*
X037137Y001673D01*
X037147Y001719D01*
X037160Y001764D01*
X037178Y001807D01*
X037199Y001849D01*
X037223Y001889D01*
X037251Y001926D01*
X037282Y001961D01*
X037316Y001994D01*
X037352Y002023D01*
X037391Y002049D01*
X037432Y002072D01*
X037475Y002091D01*
X037519Y002107D01*
X037564Y002119D01*
X037610Y002127D01*
X037657Y002131D01*
X037703Y002131D01*
X037750Y002127D01*
X037796Y002119D01*
X037841Y002107D01*
X037885Y002091D01*
X037928Y002072D01*
X037969Y002049D01*
X038008Y002023D01*
X038044Y001994D01*
X038078Y001961D01*
X038109Y001926D01*
X038137Y001889D01*
X038161Y001849D01*
X038182Y001807D01*
X038200Y001764D01*
X038213Y001719D01*
X038223Y001673D01*
X038229Y001627D01*
X038231Y001580D01*
X038229Y001533D01*
X038223Y001487D01*
X038213Y001441D01*
X038200Y001396D01*
X038182Y001353D01*
X038161Y001311D01*
X038137Y001271D01*
X038109Y001234D01*
X038078Y001199D01*
X038044Y001166D01*
X038008Y001137D01*
X037969Y001111D01*
X037928Y001088D01*
X037885Y001069D01*
X037841Y001053D01*
X037796Y001041D01*
X037750Y001033D01*
X037703Y001029D01*
X037657Y001029D01*
X037610Y001033D01*
X037564Y001041D01*
X037519Y001053D01*
X037475Y001069D01*
X037432Y001088D01*
X037391Y001111D01*
X037352Y001137D01*
X037316Y001166D01*
X037282Y001199D01*
X037251Y001234D01*
X037223Y001271D01*
X037199Y001311D01*
X037178Y001353D01*
X037160Y001396D01*
X037147Y001441D01*
X037137Y001487D01*
X037131Y001533D01*
X037129Y001580D01*
D11*
X022680Y001880D02*
X022680Y002480D01*
X021680Y002480D02*
X021680Y001880D01*
X020680Y001880D02*
X020680Y002480D01*
X020680Y004380D02*
X020680Y004980D01*
X021680Y004980D02*
X021680Y004380D01*
X022680Y004380D02*
X022680Y004980D01*
X018180Y004980D02*
X018180Y004380D01*
X017180Y004380D02*
X017180Y004980D01*
X016180Y004980D02*
X016180Y004380D01*
X016180Y002480D02*
X016180Y001880D01*
X017180Y001880D02*
X017180Y002480D01*
X018180Y002480D02*
X018180Y001880D01*
X016180Y007880D02*
X016180Y008480D01*
X015180Y008480D02*
X015180Y007880D01*
X014180Y007880D02*
X014180Y008480D01*
X013180Y008480D02*
X013180Y007880D01*
X012180Y007880D02*
X012180Y008480D01*
X011180Y008480D02*
X011180Y007880D01*
X010680Y010880D02*
X010680Y011480D01*
X011680Y011480D02*
X011680Y010880D01*
X012680Y010880D02*
X012680Y011480D01*
X013680Y011480D02*
X013680Y010880D01*
X014680Y010880D02*
X014680Y011480D01*
X015680Y011480D02*
X015680Y010880D01*
X016680Y010880D02*
X016680Y011480D01*
X017680Y011480D02*
X017680Y010880D01*
X018680Y010880D02*
X018680Y011480D01*
X019680Y011480D02*
X019680Y010880D01*
X020680Y010880D02*
X020680Y011480D01*
X020980Y013180D02*
X020380Y013180D01*
X020380Y014180D02*
X020980Y014180D01*
X020980Y015180D02*
X020380Y015180D01*
X020380Y016180D02*
X020980Y016180D01*
X020980Y017180D02*
X020380Y017180D01*
X020380Y018180D02*
X020980Y018180D01*
X020980Y019180D02*
X020380Y019180D01*
X020380Y020180D02*
X020980Y020180D01*
X020980Y021180D02*
X020380Y021180D01*
X020380Y022180D02*
X020980Y022180D01*
X020980Y023180D02*
X020380Y023180D01*
X020380Y024180D02*
X020980Y024180D01*
X020980Y025180D02*
X020380Y025180D01*
X020380Y026180D02*
X020980Y026180D01*
X020980Y027180D02*
X020380Y027180D01*
X020380Y028180D02*
X020980Y028180D01*
X020680Y029880D02*
X020680Y030480D01*
X019680Y030480D02*
X019680Y029880D01*
X018680Y029880D02*
X018680Y030480D01*
X017680Y030480D02*
X017680Y029880D01*
X016680Y029880D02*
X016680Y030480D01*
X015680Y030480D02*
X015680Y029880D01*
X014680Y029880D02*
X014680Y030480D01*
X013680Y030480D02*
X013680Y029880D01*
X012680Y029880D02*
X012680Y030480D01*
X011680Y030480D02*
X011680Y029880D01*
X010680Y029880D02*
X010680Y030480D01*
X009680Y030480D02*
X009680Y029880D01*
X008680Y029880D02*
X008680Y030480D01*
X007680Y030480D02*
X007680Y029880D01*
X006680Y029880D02*
X006680Y030480D01*
X005680Y030480D02*
X005680Y029880D01*
X005380Y028180D02*
X005980Y028180D01*
X005980Y027180D02*
X005380Y027180D01*
X005380Y026180D02*
X005980Y026180D01*
X005980Y025180D02*
X005380Y025180D01*
X005380Y024180D02*
X005980Y024180D01*
X005980Y023180D02*
X005380Y023180D01*
X005380Y022180D02*
X005980Y022180D01*
X005980Y021180D02*
X005380Y021180D01*
X005380Y020180D02*
X005980Y020180D01*
X005980Y019180D02*
X005380Y019180D01*
X005380Y018180D02*
X005980Y018180D01*
X005980Y017180D02*
X005380Y017180D01*
X005380Y016180D02*
X005980Y016180D01*
X005980Y015180D02*
X005380Y015180D01*
X005380Y014180D02*
X005980Y014180D01*
X005980Y013180D02*
X005380Y013180D01*
X005680Y011480D02*
X005680Y010880D01*
X006680Y010880D02*
X006680Y011480D01*
X007680Y011480D02*
X007680Y010880D01*
X008680Y010880D02*
X008680Y011480D01*
X009680Y011480D02*
X009680Y010880D01*
X002980Y005180D02*
X002380Y005180D01*
X002380Y004180D02*
X002980Y004180D01*
X002980Y003180D02*
X002380Y003180D01*
X002380Y002180D02*
X002980Y002180D01*
X005380Y034430D02*
X005980Y034430D01*
X005980Y035430D02*
X005380Y035430D01*
X022430Y035880D02*
X022430Y036480D01*
X023430Y036480D02*
X023430Y035880D01*
X024430Y035880D02*
X024430Y036480D01*
X025430Y036480D02*
X025430Y035880D01*
X026430Y035880D02*
X026430Y036480D01*
X027430Y036480D02*
X027430Y035880D01*
X028430Y035880D02*
X028430Y036480D01*
X029430Y036480D02*
X029430Y035880D01*
X036380Y025680D02*
X036980Y025680D01*
X036980Y024680D02*
X036380Y024680D01*
X036380Y023680D02*
X036980Y023680D01*
X036980Y022680D02*
X036380Y022680D01*
X036380Y021680D02*
X036980Y021680D01*
X036980Y020680D02*
X036380Y020680D01*
D12*
X034680Y020180D03*
X034680Y021680D03*
X034680Y017680D03*
X034680Y016180D03*
X034680Y012680D03*
X034680Y011180D03*
X034680Y008680D03*
X034680Y007180D03*
X030680Y007180D03*
X030680Y008680D03*
X030680Y011180D03*
X030680Y012680D03*
X030680Y016180D03*
X030680Y017680D03*
X030680Y020180D03*
X030680Y021680D03*
X030680Y027180D03*
X030680Y028680D03*
X030680Y030680D03*
X030680Y032180D03*
X034680Y032180D03*
X034680Y030680D03*
X034680Y028680D03*
X034680Y027180D03*
X017430Y022180D03*
X016430Y022180D03*
X015930Y025180D03*
X016930Y025180D03*
X014430Y026430D03*
X013430Y026430D03*
X009680Y025680D03*
X008680Y025680D03*
X002680Y027180D03*
X002680Y028180D03*
X007680Y032680D03*
X011680Y032680D03*
X007680Y019430D03*
X007680Y018430D03*
X009930Y016180D03*
X009930Y015180D03*
X013930Y016680D03*
X014930Y016680D03*
X007180Y007680D03*
X006180Y007680D03*
X007180Y003180D03*
X011180Y003180D03*
X002680Y018180D03*
X002680Y019180D03*
D13*
X009436Y019204D03*
X009436Y019400D03*
X009436Y019597D03*
X009436Y019794D03*
X009436Y019991D03*
X009436Y020188D03*
X009436Y020385D03*
X009436Y020582D03*
X009436Y020778D03*
X009436Y020975D03*
X009436Y021172D03*
X009436Y021369D03*
X009436Y021566D03*
X009436Y021763D03*
X009436Y021960D03*
X009436Y022156D03*
X013924Y022156D03*
X013924Y021960D03*
X013924Y021763D03*
X013924Y021566D03*
X013924Y021369D03*
X013924Y021172D03*
X013924Y020975D03*
X013924Y020778D03*
X013924Y020582D03*
X013924Y020385D03*
X013924Y020188D03*
X013924Y019991D03*
X013924Y019794D03*
X013924Y019597D03*
X013924Y019400D03*
X013924Y019204D03*
D14*
X013156Y018436D03*
X012960Y018436D03*
X012763Y018436D03*
X012566Y018436D03*
X012369Y018436D03*
X012172Y018436D03*
X011975Y018436D03*
X011778Y018436D03*
X011582Y018436D03*
X011385Y018436D03*
X011188Y018436D03*
X010991Y018436D03*
X010794Y018436D03*
X010597Y018436D03*
X010400Y018436D03*
X010204Y018436D03*
X010204Y022924D03*
X010400Y022924D03*
X010597Y022924D03*
X010794Y022924D03*
X010991Y022924D03*
X011188Y022924D03*
X011385Y022924D03*
X011582Y022924D03*
X011778Y022924D03*
X011975Y022924D03*
X012172Y022924D03*
X012369Y022924D03*
X012566Y022924D03*
X012763Y022924D03*
X012960Y022924D03*
X013156Y022924D03*
D15*
X013180Y035180D03*
X013180Y036180D03*
X012180Y036180D03*
X012180Y035180D03*
X011180Y035180D03*
X011180Y036180D03*
X010180Y036180D03*
X010180Y035180D03*
X014180Y035180D03*
X014180Y036180D03*
X015180Y036180D03*
X015180Y035180D03*
X016180Y035180D03*
X016180Y036180D03*
X017180Y036180D03*
X017180Y035180D03*
X018180Y035180D03*
X018180Y036180D03*
X019180Y036180D03*
X019180Y035180D03*
D16*
X002680Y024180D03*
X002680Y022180D03*
D17*
X003460Y014820D03*
X003460Y013040D03*
X000900Y013040D03*
X000900Y014820D03*
X013680Y004180D03*
X013680Y003180D03*
D18*
X022738Y007180D02*
X023623Y007180D01*
X023623Y010180D02*
X022738Y010180D01*
X028738Y010180D02*
X029623Y010180D01*
X029623Y007180D02*
X028738Y007180D01*
X028738Y016180D02*
X029623Y016180D01*
X029623Y019180D02*
X028738Y019180D01*
X028738Y023680D02*
X029623Y023680D01*
X029623Y026680D02*
X028738Y026680D01*
X023623Y026680D02*
X022738Y026680D01*
X022738Y023680D02*
X023623Y023680D01*
X023623Y019180D02*
X022738Y019180D01*
X022738Y016180D02*
X023623Y016180D01*
D19*
X023180Y016180D02*
X023680Y015680D01*
X024430Y013680D01*
X023930Y012680D02*
X025180Y012680D01*
X025680Y012180D02*
X024180Y012180D01*
X023930Y011930D01*
X023180Y010180D02*
X023180Y014430D01*
X021680Y012680D02*
X021180Y013180D01*
X020680Y013180D01*
X021680Y012680D02*
X021680Y009430D01*
X020430Y008180D01*
X019430Y008180D02*
X020680Y009430D01*
X020680Y011180D01*
X020180Y009930D02*
X018930Y009930D01*
X018680Y010180D01*
X018680Y011180D01*
X018430Y008180D02*
X016180Y008180D01*
X015430Y005430D02*
X016180Y004680D01*
X015430Y005430D02*
X010180Y005430D01*
X008930Y004180D01*
X007680Y004180D01*
X007180Y003680D01*
X007180Y003180D01*
X002680Y003180D01*
X002680Y004180D02*
X005680Y004180D01*
X007180Y005680D01*
X007180Y007680D01*
X007180Y009430D01*
X007680Y009930D01*
X007680Y011180D01*
X008430Y009930D02*
X011430Y009930D01*
X012180Y009180D01*
X012180Y008180D01*
X011180Y008180D02*
X010180Y008180D01*
X009180Y009180D01*
X008180Y009180D01*
X006430Y009930D02*
X005930Y009930D01*
X005680Y010180D01*
X005680Y011180D01*
X004180Y010430D02*
X004180Y012430D01*
X004930Y013180D01*
X005680Y013180D01*
X003460Y014820D02*
X003460Y020650D01*
X003430Y020930D01*
X004430Y022180D01*
X005680Y022180D01*
X005680Y023180D02*
X004180Y023180D01*
X002680Y022180D01*
X002680Y019180D01*
X001430Y018430D02*
X001480Y017280D01*
X001430Y018430D02*
X001430Y028680D01*
X002730Y029680D01*
X002730Y037380D01*
X003680Y038430D01*
X030680Y038430D01*
X031430Y037680D01*
X031430Y034180D01*
X032680Y032930D01*
X032680Y026180D01*
X031430Y024930D01*
X031430Y020930D01*
X030680Y020180D01*
X029180Y019180D02*
X030680Y017680D01*
X030680Y016180D02*
X029180Y016180D01*
X034680Y016180D02*
X034680Y017680D01*
X034680Y021680D01*
X034680Y020180D01*
X035680Y020180D02*
X036180Y020680D01*
X036680Y020680D01*
X036680Y021680D02*
X034680Y021680D01*
X035680Y020180D02*
X035680Y015180D01*
X034680Y014180D01*
X034680Y012680D01*
X034680Y008680D01*
X034680Y007180D01*
X033430Y006930D02*
X032680Y006180D01*
X022430Y006180D01*
X021680Y006930D01*
X021680Y008430D01*
X023180Y008180D02*
X023180Y007180D01*
X023180Y008180D02*
X024430Y009430D01*
X029180Y010180D02*
X030680Y008680D01*
X030680Y007180D02*
X029180Y007180D01*
X032680Y007180D02*
X032680Y023680D01*
X034680Y025680D01*
X036680Y025680D01*
X037680Y026430D02*
X038180Y025930D01*
X038180Y022930D01*
X037930Y022680D01*
X036680Y022680D01*
X036680Y024680D02*
X034430Y024680D01*
X033430Y023680D01*
X033430Y006930D01*
X034680Y011180D02*
X034680Y012680D01*
X030680Y021680D02*
X030680Y024930D01*
X031930Y026180D01*
X031930Y033180D01*
X031180Y033930D01*
X031180Y037430D01*
X030430Y038180D01*
X003930Y038180D01*
X003180Y037430D01*
X003180Y025930D01*
X004180Y026630D02*
X004130Y027680D01*
X004130Y037180D01*
X004430Y037680D01*
X029930Y037680D01*
X030230Y037280D01*
X030280Y033680D01*
X029980Y033380D01*
X029980Y031430D01*
X030430Y030930D01*
X030680Y030680D01*
X030680Y032180D02*
X030680Y037430D01*
X030180Y037930D01*
X004180Y037930D01*
X003680Y037430D01*
X003680Y028980D01*
X004680Y028930D02*
X004680Y032430D01*
X005680Y033430D01*
X005680Y034430D01*
X005680Y035430D02*
X007430Y035430D01*
X007680Y035180D01*
X007680Y034180D02*
X005680Y032180D01*
X005680Y030180D01*
X004680Y028930D02*
X005430Y028180D01*
X005680Y028180D01*
X002680Y027180D02*
X002680Y024180D01*
X005680Y024180D01*
X004680Y021680D02*
X004680Y020430D01*
X004930Y020180D01*
X005680Y020180D01*
X008680Y024930D02*
X008680Y025680D01*
X008680Y026680D01*
X009680Y030180D02*
X009680Y031430D01*
X009430Y031680D01*
X008180Y031680D01*
X007680Y032180D01*
X007680Y032680D01*
X010680Y030930D02*
X010680Y030180D01*
X010680Y030930D02*
X010930Y031180D01*
X011180Y031180D01*
X012430Y032430D01*
X020180Y032430D01*
X022430Y034680D01*
X022430Y036180D01*
X023430Y036180D02*
X023430Y034680D01*
X020680Y031930D01*
X012430Y031930D01*
X011680Y031180D01*
X011680Y030180D01*
X020680Y024180D02*
X021180Y024180D01*
X021680Y024680D01*
X021680Y032430D01*
X024180Y034930D01*
X025930Y034930D01*
X026430Y035430D01*
X026430Y036180D01*
X027430Y036180D02*
X027430Y035180D01*
X026680Y034430D01*
X024180Y034430D01*
X021930Y032180D01*
X021930Y024430D01*
X021430Y023680D01*
X021430Y023430D01*
X021180Y023180D01*
X020680Y023180D01*
X021930Y022430D02*
X023180Y023680D01*
X023180Y025180D02*
X023180Y026680D01*
X021930Y022430D02*
X021930Y018680D01*
X021430Y018180D01*
X021680Y017930D01*
X021430Y018180D02*
X020680Y018180D01*
X020680Y017180D02*
X021680Y017180D01*
X022180Y017680D01*
X022680Y017680D01*
X023180Y017180D01*
X022680Y017680D02*
X023180Y018180D01*
X023180Y019180D01*
X023180Y021680D01*
X022430Y017180D02*
X022430Y016430D01*
X022680Y016180D01*
X023180Y016180D01*
X029180Y023680D02*
X029180Y024680D01*
X030680Y026180D01*
X030680Y027180D01*
X030680Y028680D02*
X030180Y028680D01*
X029180Y027680D01*
X029180Y026680D01*
X034680Y026680D02*
X034930Y026430D01*
X037680Y026430D01*
X034680Y026680D02*
X034680Y027180D01*
X034680Y030680D01*
X034680Y032180D01*
X034680Y028680D02*
X034680Y027180D01*
X019430Y008180D02*
X019430Y002680D01*
X019930Y002180D01*
X020680Y002180D01*
X021680Y002180D01*
X022680Y002180D01*
X018180Y002180D02*
X017180Y002180D01*
X016180Y002180D01*
X002680Y002180D01*
X005430Y009180D02*
X004180Y010430D01*
X005430Y009180D02*
X006180Y009180D01*
X011180Y003180D02*
X013680Y003180D01*
D20*
X013680Y011180D02*
X013680Y011680D01*
X013180Y012180D01*
X012930Y012180D01*
X011778Y013332D01*
X011778Y018436D01*
X011582Y018436D02*
X011582Y012778D01*
X012680Y011680D01*
X012680Y011180D01*
X013680Y012180D02*
X014180Y012180D01*
X014680Y011680D01*
X014680Y011180D01*
X015680Y011180D02*
X015680Y011680D01*
X014680Y012680D01*
X013680Y012680D01*
X013180Y013180D01*
X012930Y013180D01*
X012172Y013938D01*
X012172Y018436D01*
X011975Y018436D02*
X011975Y013635D01*
X013180Y012430D01*
X013430Y012430D01*
X013680Y012180D01*
X013680Y013180D02*
X015180Y013180D01*
X016180Y012180D01*
X016430Y012180D01*
X016680Y011930D01*
X016680Y011180D01*
X016680Y011430D01*
X016930Y012180D02*
X017180Y012180D01*
X017680Y011680D01*
X017680Y011180D01*
X017930Y012180D02*
X018430Y012180D01*
X018680Y011930D01*
X018680Y011180D01*
X017930Y012180D02*
X017430Y012680D01*
X016930Y012680D01*
X015430Y014180D01*
X013680Y014180D01*
X012763Y015097D01*
X012763Y018436D01*
X012960Y018436D02*
X012960Y018466D01*
X012960Y019190D01*
X012480Y019380D01*
X013160Y019570D02*
X012030Y020730D01*
X011980Y020680D01*
X011780Y020680D01*
X011580Y020880D01*
X010580Y020880D01*
X010180Y021280D01*
X010180Y022680D01*
X010204Y022924D01*
X010204Y024406D01*
X009930Y024680D01*
X008930Y024680D01*
X008680Y024930D01*
X009680Y025680D02*
X010400Y024960D01*
X010400Y022924D01*
X010597Y022924D02*
X010597Y027763D01*
X009930Y028430D01*
X008180Y028430D01*
X007680Y028930D01*
X007680Y030180D01*
X008680Y030180D02*
X008680Y029180D01*
X009180Y028680D01*
X010180Y028680D01*
X010794Y028066D01*
X010794Y022924D01*
X010991Y022924D02*
X010991Y028369D01*
X010430Y028930D01*
X010180Y028930D01*
X009680Y029430D01*
X009680Y030180D01*
X010680Y030180D02*
X010680Y029180D01*
X011188Y028672D01*
X011188Y022924D01*
X011385Y022924D02*
X011385Y028885D01*
X011680Y029180D01*
X011680Y030180D01*
X012680Y030180D02*
X012680Y029180D01*
X012430Y028930D01*
X011930Y028930D01*
X011582Y028582D01*
X011582Y022924D01*
X011778Y022924D02*
X011778Y028278D01*
X012180Y028680D01*
X013180Y028680D01*
X013680Y029180D01*
X013680Y030180D01*
X014680Y030180D02*
X014680Y029180D01*
X013930Y028430D01*
X012430Y028430D01*
X011975Y027975D01*
X011975Y022924D01*
X012172Y022924D02*
X012172Y027672D01*
X012680Y028180D01*
X014680Y028180D01*
X015680Y029180D01*
X015680Y030180D01*
X016680Y030180D02*
X016680Y029180D01*
X015430Y027930D01*
X012930Y027930D01*
X012369Y027369D01*
X012369Y022924D01*
X012566Y022924D02*
X012566Y027066D01*
X013180Y027680D01*
X015680Y027680D01*
X017180Y029180D01*
X017430Y029180D01*
X017680Y029430D01*
X017680Y030180D01*
X018680Y030180D02*
X018680Y029430D01*
X017930Y028680D01*
X017180Y028680D01*
X015930Y027430D01*
X013430Y027430D01*
X012763Y026763D01*
X012763Y022924D01*
X012960Y022924D02*
X012960Y023960D01*
X013430Y024430D01*
X013430Y025180D01*
X013430Y024430D02*
X017180Y028180D01*
X018180Y028180D01*
X018680Y028680D01*
X018930Y028680D01*
X019680Y029430D01*
X019680Y030180D01*
X020680Y030180D02*
X020680Y029430D01*
X020430Y029180D01*
X019930Y029180D01*
X018180Y027430D01*
X017180Y027430D01*
X016930Y027430D01*
X013156Y023656D01*
X013156Y022924D01*
X013080Y022180D02*
X012580Y021680D01*
X012580Y021280D01*
X012030Y020730D01*
X011780Y020680D02*
X011780Y019480D01*
X011580Y019280D01*
X011080Y019180D01*
X010600Y018880D01*
X010597Y018436D01*
X010597Y017597D01*
X009930Y016930D01*
X009930Y016180D01*
X009430Y016180D01*
X008680Y015430D01*
X008680Y014180D01*
X007930Y013430D01*
X007930Y012930D01*
X007680Y012680D01*
X007680Y011180D01*
X008680Y011180D02*
X008680Y012180D01*
X008930Y012430D01*
X009680Y012430D01*
X010794Y013544D01*
X010794Y018436D01*
X010991Y018436D02*
X010991Y013241D01*
X009680Y011930D01*
X009680Y011180D01*
X010680Y011180D02*
X010680Y011930D01*
X011188Y012438D01*
X011188Y018436D01*
X011385Y018436D02*
X011385Y012475D01*
X011680Y012180D01*
X011680Y011180D01*
X013680Y013180D02*
X012369Y014491D01*
X012369Y018436D01*
X012566Y018436D02*
X012566Y014794D01*
X013680Y013680D01*
X015430Y013680D01*
X016930Y012180D01*
X017180Y012930D02*
X017930Y012930D01*
X018180Y012680D01*
X018930Y012680D01*
X019680Y011930D01*
X019680Y011180D01*
X020680Y011180D02*
X020680Y011680D01*
X019180Y013180D01*
X018430Y013180D01*
X018180Y013430D01*
X017430Y013430D01*
X015930Y014930D01*
X014180Y014930D01*
X013930Y015180D01*
X013930Y016680D01*
X013156Y017454D01*
X013156Y018436D01*
X013160Y018450D01*
X013160Y019570D01*
X013924Y019597D02*
X017513Y019597D01*
X019180Y017930D01*
X019180Y015930D01*
X019930Y015180D01*
X020680Y015180D01*
X020680Y014180D02*
X019930Y014180D01*
X018930Y015180D01*
X018930Y017680D01*
X017210Y019400D01*
X013924Y019400D01*
X013924Y019204D02*
X016906Y019204D01*
X018680Y017430D01*
X018680Y014430D01*
X019930Y013180D01*
X020680Y013180D01*
X020680Y016180D02*
X020180Y016180D01*
X019430Y016930D01*
X019430Y018180D01*
X017816Y019794D01*
X013924Y019794D01*
X013924Y019991D02*
X018119Y019991D01*
X019680Y018430D01*
X019680Y017680D01*
X020180Y017180D01*
X020680Y017180D01*
X020680Y018180D02*
X020180Y018180D01*
X020180Y018340D01*
X019830Y018700D01*
X019460Y019070D01*
X019450Y019070D01*
X018340Y020180D01*
X013932Y020180D01*
X013924Y020188D01*
X013924Y020385D02*
X018725Y020385D01*
X019930Y019180D01*
X020680Y019180D01*
X020680Y020180D02*
X019930Y020180D01*
X019528Y020582D01*
X013924Y020582D01*
X013924Y020778D02*
X019528Y020778D01*
X019930Y021180D01*
X020680Y021180D01*
X019680Y021430D02*
X019930Y021930D01*
X020180Y022180D01*
X020680Y022180D01*
X020680Y023180D02*
X019680Y023180D01*
X019430Y022930D01*
X019430Y021680D01*
X018672Y021172D01*
X013924Y021172D01*
X013924Y020975D02*
X018975Y020975D01*
X019680Y021430D01*
X018930Y021680D02*
X018930Y023180D01*
X020180Y024180D01*
X020680Y024180D01*
X020680Y025180D02*
X019930Y025180D01*
X019430Y024680D01*
X019430Y024180D01*
X018180Y022930D01*
X016180Y022930D01*
X014816Y021566D01*
X013924Y021566D01*
X013924Y021763D02*
X014683Y021763D01*
X016120Y023180D01*
X018010Y023180D01*
X018930Y024060D01*
X018930Y024930D01*
X020180Y026180D01*
X020680Y026180D01*
X020680Y027180D02*
X019930Y027180D01*
X019510Y026710D01*
X019510Y025880D01*
X018680Y025180D01*
X018680Y024180D01*
X018430Y023930D01*
X018180Y024180D01*
X017780Y024180D01*
X017330Y024480D02*
X018030Y025080D01*
X019180Y026010D01*
X019180Y027680D01*
X019680Y028180D01*
X020680Y028180D01*
X020180Y031180D02*
X018680Y031180D01*
X019180Y035180D02*
X019180Y036180D01*
X019180Y036930D01*
X018680Y037430D01*
X009930Y037430D01*
X007680Y035180D01*
X007680Y034180D01*
X007930Y034680D02*
X007930Y034930D01*
X010180Y037180D01*
X016930Y037180D01*
X017180Y036930D01*
X017180Y036180D01*
X013180Y032930D02*
X012680Y033430D01*
X009180Y033430D01*
X007930Y034680D01*
X005680Y030180D02*
X005680Y029180D01*
X005930Y028930D01*
X006430Y028930D01*
X008680Y026680D01*
X007430Y026930D02*
X006180Y028180D01*
X005680Y028180D01*
X005680Y027180D02*
X006180Y027180D01*
X007180Y026180D01*
X007180Y024430D01*
X008180Y023430D01*
X008180Y022180D01*
X008400Y021960D01*
X009436Y021960D01*
X009436Y022156D02*
X008704Y022156D01*
X008430Y022430D01*
X008430Y023680D01*
X007430Y024680D01*
X007430Y026930D01*
X006180Y026180D02*
X005680Y026180D01*
X006180Y026180D02*
X006930Y025430D01*
X006930Y024180D01*
X007930Y023180D01*
X007930Y021930D01*
X008097Y021763D01*
X009436Y021763D01*
X009436Y021566D02*
X007944Y021566D01*
X007680Y021830D01*
X007680Y022930D01*
X006680Y023930D01*
X006680Y024680D01*
X006180Y025180D01*
X005680Y025180D01*
X005680Y024180D02*
X005930Y024180D01*
X007430Y022680D01*
X007430Y021730D01*
X007691Y021369D01*
X009436Y021369D01*
X009436Y021172D02*
X007438Y021172D01*
X007180Y021430D01*
X007180Y022430D01*
X006430Y023180D01*
X005680Y023180D01*
X005680Y022180D02*
X006430Y022180D01*
X006930Y021680D01*
X006930Y021180D01*
X007135Y020975D01*
X009436Y020975D01*
X009436Y020778D02*
X006882Y020778D01*
X006480Y021180D01*
X005680Y021180D01*
X005680Y020180D02*
X006480Y020180D01*
X006882Y020582D01*
X009436Y020582D01*
X009436Y020385D02*
X007035Y020385D01*
X006580Y019930D01*
X006580Y019580D01*
X006180Y019180D01*
X005680Y019180D01*
X005680Y018180D02*
X006180Y018180D01*
X006930Y018930D01*
X006930Y019930D01*
X007188Y020188D01*
X009436Y020188D01*
X009436Y019991D02*
X009447Y019980D01*
X010080Y019980D01*
X010380Y020280D01*
X010880Y020380D02*
X010880Y019780D01*
X010080Y019780D01*
X010066Y019794D01*
X009436Y019794D01*
X009450Y019780D01*
X009436Y019794D02*
X008794Y019794D01*
X008430Y019430D01*
X008430Y019180D01*
X007680Y018430D01*
X007180Y018430D01*
X006680Y017930D01*
X006680Y016680D01*
X006180Y016180D01*
X005680Y016180D01*
X005680Y015180D02*
X006180Y015180D01*
X006930Y015930D01*
X006930Y016430D01*
X008680Y018180D01*
X008680Y019330D01*
X008947Y019597D01*
X009436Y019597D01*
X009436Y019400D02*
X009150Y019400D01*
X008930Y019280D01*
X008930Y017930D01*
X007180Y016180D01*
X007180Y015430D01*
X006430Y014680D01*
X006430Y014430D01*
X006180Y014180D01*
X005680Y014180D01*
X005680Y013180D02*
X006680Y013180D01*
X006930Y013430D01*
X006930Y014430D01*
X007680Y015180D01*
X007680Y016180D01*
X009180Y017680D01*
X009180Y019180D01*
X009204Y019204D01*
X009436Y019204D01*
X009436Y019991D02*
X008241Y019991D01*
X007680Y019430D01*
X010204Y018436D02*
X010204Y017954D01*
X008180Y015930D01*
X008180Y014680D01*
X007430Y013930D01*
X007430Y013180D01*
X006680Y012430D01*
X006180Y012430D01*
X005680Y011930D01*
X005680Y011180D01*
X012960Y015400D02*
X012960Y018436D01*
X010880Y020380D02*
X010580Y020880D01*
X010380Y019380D02*
X010400Y019360D01*
X010400Y018436D01*
X012960Y015400D02*
X013930Y014430D01*
X015680Y014430D01*
X017180Y012930D01*
X018369Y021369D02*
X013924Y021369D01*
X013924Y021960D02*
X014580Y021970D01*
X016060Y023430D01*
X017930Y023430D01*
X018430Y023930D01*
X017330Y024480D02*
X016830Y023680D01*
X016080Y023740D01*
X015930Y023930D01*
X015930Y025180D01*
X016080Y023740D02*
X014556Y022216D01*
X013924Y022156D01*
X013900Y022180D01*
X013080Y022180D01*
X018369Y021369D02*
X018930Y021680D01*
D21*
X017780Y024180D03*
X020180Y026180D03*
X023180Y025180D03*
X023180Y021680D03*
X021680Y017930D03*
X022430Y017180D03*
X023180Y017180D03*
X023180Y014430D03*
X024430Y013680D03*
X023930Y012680D03*
X023930Y011930D03*
X025180Y012680D03*
X025680Y012180D03*
X024430Y009430D03*
X021680Y008430D03*
X020430Y008180D03*
X020180Y009930D03*
X018430Y008180D03*
X008430Y009930D03*
X008180Y009180D03*
X006430Y009930D03*
X006180Y009180D03*
X001480Y017280D03*
X004680Y021680D03*
X003180Y025930D03*
X004180Y026630D03*
X003680Y028980D03*
X010380Y020280D03*
X010380Y019380D03*
X012480Y019380D03*
X013430Y025180D03*
X017180Y027430D03*
X018680Y031180D03*
X020180Y031180D03*
X013180Y032930D03*
X032680Y007180D03*
M02*
