G75*
G70*
%OFA0B0*%
%FSLAX24Y24*%
%IPPOS*%
%LPD*%
%AMOC8*
5,1,8,0,0,1.08239X$1,22.5*
%
%ADD10C,0.0000*%
%ADD11C,0.0060*%
%ADD12C,0.0040*%
D10*
X000180Y000180D02*
X000180Y039050D01*
X039172Y039050D01*
X039172Y000180D01*
X000180Y000180D01*
X002029Y008880D02*
X002031Y008927D01*
X002037Y008973D01*
X002047Y009019D01*
X002060Y009064D01*
X002078Y009107D01*
X002099Y009149D01*
X002123Y009189D01*
X002151Y009226D01*
X002182Y009261D01*
X002216Y009294D01*
X002252Y009323D01*
X002291Y009349D01*
X002332Y009372D01*
X002375Y009391D01*
X002419Y009407D01*
X002464Y009419D01*
X002510Y009427D01*
X002557Y009431D01*
X002603Y009431D01*
X002650Y009427D01*
X002696Y009419D01*
X002741Y009407D01*
X002785Y009391D01*
X002828Y009372D01*
X002869Y009349D01*
X002908Y009323D01*
X002944Y009294D01*
X002978Y009261D01*
X003009Y009226D01*
X003037Y009189D01*
X003061Y009149D01*
X003082Y009107D01*
X003100Y009064D01*
X003113Y009019D01*
X003123Y008973D01*
X003129Y008927D01*
X003131Y008880D01*
X003129Y008833D01*
X003123Y008787D01*
X003113Y008741D01*
X003100Y008696D01*
X003082Y008653D01*
X003061Y008611D01*
X003037Y008571D01*
X003009Y008534D01*
X002978Y008499D01*
X002944Y008466D01*
X002908Y008437D01*
X002869Y008411D01*
X002828Y008388D01*
X002785Y008369D01*
X002741Y008353D01*
X002696Y008341D01*
X002650Y008333D01*
X002603Y008329D01*
X002557Y008329D01*
X002510Y008333D01*
X002464Y008341D01*
X002419Y008353D01*
X002375Y008369D01*
X002332Y008388D01*
X002291Y008411D01*
X002252Y008437D01*
X002216Y008466D01*
X002182Y008499D01*
X002151Y008534D01*
X002123Y008571D01*
X002099Y008611D01*
X002078Y008653D01*
X002060Y008696D01*
X002047Y008741D01*
X002037Y008787D01*
X002031Y008833D01*
X002029Y008880D01*
X023229Y029380D02*
X023231Y029427D01*
X023237Y029473D01*
X023247Y029519D01*
X023260Y029564D01*
X023278Y029607D01*
X023299Y029649D01*
X023323Y029689D01*
X023351Y029726D01*
X023382Y029761D01*
X023416Y029794D01*
X023452Y029823D01*
X023491Y029849D01*
X023532Y029872D01*
X023575Y029891D01*
X023619Y029907D01*
X023664Y029919D01*
X023710Y029927D01*
X023757Y029931D01*
X023803Y029931D01*
X023850Y029927D01*
X023896Y029919D01*
X023941Y029907D01*
X023985Y029891D01*
X024028Y029872D01*
X024069Y029849D01*
X024108Y029823D01*
X024144Y029794D01*
X024178Y029761D01*
X024209Y029726D01*
X024237Y029689D01*
X024261Y029649D01*
X024282Y029607D01*
X024300Y029564D01*
X024313Y029519D01*
X024323Y029473D01*
X024329Y029427D01*
X024331Y029380D01*
X024329Y029333D01*
X024323Y029287D01*
X024313Y029241D01*
X024300Y029196D01*
X024282Y029153D01*
X024261Y029111D01*
X024237Y029071D01*
X024209Y029034D01*
X024178Y028999D01*
X024144Y028966D01*
X024108Y028937D01*
X024069Y028911D01*
X024028Y028888D01*
X023985Y028869D01*
X023941Y028853D01*
X023896Y028841D01*
X023850Y028833D01*
X023803Y028829D01*
X023757Y028829D01*
X023710Y028833D01*
X023664Y028841D01*
X023619Y028853D01*
X023575Y028869D01*
X023532Y028888D01*
X023491Y028911D01*
X023452Y028937D01*
X023416Y028966D01*
X023382Y028999D01*
X023351Y029034D01*
X023323Y029071D01*
X023299Y029111D01*
X023278Y029153D01*
X023260Y029196D01*
X023247Y029241D01*
X023237Y029287D01*
X023231Y029333D01*
X023229Y029380D01*
X037329Y037880D02*
X037331Y037927D01*
X037337Y037973D01*
X037347Y038019D01*
X037360Y038064D01*
X037378Y038107D01*
X037399Y038149D01*
X037423Y038189D01*
X037451Y038226D01*
X037482Y038261D01*
X037516Y038294D01*
X037552Y038323D01*
X037591Y038349D01*
X037632Y038372D01*
X037675Y038391D01*
X037719Y038407D01*
X037764Y038419D01*
X037810Y038427D01*
X037857Y038431D01*
X037903Y038431D01*
X037950Y038427D01*
X037996Y038419D01*
X038041Y038407D01*
X038085Y038391D01*
X038128Y038372D01*
X038169Y038349D01*
X038208Y038323D01*
X038244Y038294D01*
X038278Y038261D01*
X038309Y038226D01*
X038337Y038189D01*
X038361Y038149D01*
X038382Y038107D01*
X038400Y038064D01*
X038413Y038019D01*
X038423Y037973D01*
X038429Y037927D01*
X038431Y037880D01*
X038429Y037833D01*
X038423Y037787D01*
X038413Y037741D01*
X038400Y037696D01*
X038382Y037653D01*
X038361Y037611D01*
X038337Y037571D01*
X038309Y037534D01*
X038278Y037499D01*
X038244Y037466D01*
X038208Y037437D01*
X038169Y037411D01*
X038128Y037388D01*
X038085Y037369D01*
X038041Y037353D01*
X037996Y037341D01*
X037950Y037333D01*
X037903Y037329D01*
X037857Y037329D01*
X037810Y037333D01*
X037764Y037341D01*
X037719Y037353D01*
X037675Y037369D01*
X037632Y037388D01*
X037591Y037411D01*
X037552Y037437D01*
X037516Y037466D01*
X037482Y037499D01*
X037451Y037534D01*
X037423Y037571D01*
X037399Y037611D01*
X037378Y037653D01*
X037360Y037696D01*
X037347Y037741D01*
X037337Y037787D01*
X037331Y037833D01*
X037329Y037880D01*
X000829Y037880D02*
X000831Y037927D01*
X000837Y037973D01*
X000847Y038019D01*
X000860Y038064D01*
X000878Y038107D01*
X000899Y038149D01*
X000923Y038189D01*
X000951Y038226D01*
X000982Y038261D01*
X001016Y038294D01*
X001052Y038323D01*
X001091Y038349D01*
X001132Y038372D01*
X001175Y038391D01*
X001219Y038407D01*
X001264Y038419D01*
X001310Y038427D01*
X001357Y038431D01*
X001403Y038431D01*
X001450Y038427D01*
X001496Y038419D01*
X001541Y038407D01*
X001585Y038391D01*
X001628Y038372D01*
X001669Y038349D01*
X001708Y038323D01*
X001744Y038294D01*
X001778Y038261D01*
X001809Y038226D01*
X001837Y038189D01*
X001861Y038149D01*
X001882Y038107D01*
X001900Y038064D01*
X001913Y038019D01*
X001923Y037973D01*
X001929Y037927D01*
X001931Y037880D01*
X001929Y037833D01*
X001923Y037787D01*
X001913Y037741D01*
X001900Y037696D01*
X001882Y037653D01*
X001861Y037611D01*
X001837Y037571D01*
X001809Y037534D01*
X001778Y037499D01*
X001744Y037466D01*
X001708Y037437D01*
X001669Y037411D01*
X001628Y037388D01*
X001585Y037369D01*
X001541Y037353D01*
X001496Y037341D01*
X001450Y037333D01*
X001403Y037329D01*
X001357Y037329D01*
X001310Y037333D01*
X001264Y037341D01*
X001219Y037353D01*
X001175Y037369D01*
X001132Y037388D01*
X001091Y037411D01*
X001052Y037437D01*
X001016Y037466D01*
X000982Y037499D01*
X000951Y037534D01*
X000923Y037571D01*
X000899Y037611D01*
X000878Y037653D01*
X000860Y037696D01*
X000847Y037741D01*
X000837Y037787D01*
X000831Y037833D01*
X000829Y037880D01*
X037129Y001580D02*
X037131Y001627D01*
X037137Y001673D01*
X037147Y001719D01*
X037160Y001764D01*
X037178Y001807D01*
X037199Y001849D01*
X037223Y001889D01*
X037251Y001926D01*
X037282Y001961D01*
X037316Y001994D01*
X037352Y002023D01*
X037391Y002049D01*
X037432Y002072D01*
X037475Y002091D01*
X037519Y002107D01*
X037564Y002119D01*
X037610Y002127D01*
X037657Y002131D01*
X037703Y002131D01*
X037750Y002127D01*
X037796Y002119D01*
X037841Y002107D01*
X037885Y002091D01*
X037928Y002072D01*
X037969Y002049D01*
X038008Y002023D01*
X038044Y001994D01*
X038078Y001961D01*
X038109Y001926D01*
X038137Y001889D01*
X038161Y001849D01*
X038182Y001807D01*
X038200Y001764D01*
X038213Y001719D01*
X038223Y001673D01*
X038229Y001627D01*
X038231Y001580D01*
X038229Y001533D01*
X038223Y001487D01*
X038213Y001441D01*
X038200Y001396D01*
X038182Y001353D01*
X038161Y001311D01*
X038137Y001271D01*
X038109Y001234D01*
X038078Y001199D01*
X038044Y001166D01*
X038008Y001137D01*
X037969Y001111D01*
X037928Y001088D01*
X037885Y001069D01*
X037841Y001053D01*
X037796Y001041D01*
X037750Y001033D01*
X037703Y001029D01*
X037657Y001029D01*
X037610Y001033D01*
X037564Y001041D01*
X037519Y001053D01*
X037475Y001069D01*
X037432Y001088D01*
X037391Y001111D01*
X037352Y001137D01*
X037316Y001166D01*
X037282Y001199D01*
X037251Y001234D01*
X037223Y001271D01*
X037199Y001311D01*
X037178Y001353D01*
X037160Y001396D01*
X037147Y001441D01*
X037137Y001487D01*
X037131Y001533D01*
X037129Y001580D01*
D11*
X009051Y022179D02*
X008837Y021965D01*
X009051Y022179D02*
X008410Y022179D01*
X008410Y022392D02*
X008410Y021965D01*
D12*
X009500Y022516D02*
X009577Y022440D01*
X009730Y022440D01*
X009807Y022516D01*
X009807Y022670D01*
X009730Y022747D01*
X009577Y022747D01*
X009500Y022670D01*
X009500Y022516D01*
M02*
