%
M48
M72
T01C0.0236
T02C0.0276
T03C0.0320
T04C0.0400
T05C0.0590
T06C0.1102
%
T01
X6180Y9180
X6430Y9930
X8180Y9180
X8430Y9930
X1480Y17280
X4680Y21680
X3180Y25930
X4180Y26630
X3680Y28980
X10380Y20280
X10380Y19380
X12480Y19380
X13430Y25180
X17180Y27430
X20180Y26180
X17780Y24180
X23180Y25180
X23180Y21680
X21680Y17930
X22430Y17180
X23180Y17180
X23180Y14430
X24430Y13680
X23930Y12680
X23930Y11930
X25180Y12680
X25680Y12180
X24430Y9430
X21680Y8430
X20430Y8180
X20180Y9930
X18430Y8180
X32680Y7180
X20180Y31180
X18680Y31180
X13180Y32930
T02
X2680Y24180
X2680Y22180
T03
X2680Y19180
X2680Y18180
X7680Y18430
X7680Y19430
X9930Y16180
X9930Y15180
X13930Y16680
X14930Y16680
X16430Y22180
X17430Y22180
X16930Y25180
X15930Y25180
X14430Y26430
X13430Y26430
X9680Y25680
X8680Y25680
X2680Y27180
X2680Y28180
X7680Y32680
X11680Y32680
X30680Y32180
X30680Y30680
X30680Y28680
X30680Y27180
X34680Y27180
X34680Y28680
X34680Y30680
X34680Y32180
X34680Y21680
X34680Y20180
X34680Y17680
X34680Y16180
X34680Y12680
X34680Y11180
X34680Y8680
X34680Y7180
X30680Y7180
X30680Y8680
X30680Y11180
X30680Y12680
X30680Y16180
X30680Y17680
X30680Y20180
X30680Y21680
X13680Y4180
X13680Y3180
X11180Y3180
X7180Y3180
X7180Y7680
X6180Y7680
T04
X2680Y2180
X2680Y3180
X2680Y4180
X2680Y5180
X5680Y11180
X6680Y11180
X7680Y11180
X8680Y11180
X9680Y11180
X10680Y11180
X11680Y11180
X12680Y11180
X13680Y11180
X14680Y11180
X15680Y11180
X16680Y11180
X17680Y11180
X18680Y11180
X19680Y11180
X20680Y11180
X20680Y13180
X20680Y14180
X20680Y15180
X20680Y16180
X20680Y17180
X20680Y18180
X20680Y19180
X20680Y20180
X20680Y21180
X20680Y22180
X20680Y23180
X20680Y24180
X20680Y25180
X20680Y26180
X20680Y27180
X20680Y28180
X20680Y30180
X19680Y30180
X18680Y30180
X17680Y30180
X16680Y30180
X15680Y30180
X14680Y30180
X13680Y30180
X12680Y30180
X11680Y30180
X10680Y30180
X9680Y30180
X8680Y30180
X7680Y30180
X6680Y30180
X5680Y30180
X5680Y28180
X5680Y27180
X5680Y26180
X5680Y25180
X5680Y24180
X5680Y23180
X5680Y22180
X5680Y21180
X5680Y20180
X5680Y19180
X5680Y18180
X5680Y17180
X5680Y16180
X5680Y15180
X5680Y14180
X5680Y13180
X3460Y13040
X3460Y14820
X900Y14820
X900Y13040
X11180Y8180
X12180Y8180
X13180Y8180
X14180Y8180
X15180Y8180
X16180Y8180
X16180Y4680
X17180Y4680
X18180Y4680
X18180Y2180
X17180Y2180
X16180Y2180
X20680Y2180
X21680Y2180
X22680Y2180
X22680Y4680
X21680Y4680
X20680Y4680
X36680Y20680
X36680Y21680
X36680Y22680
X36680Y23680
X36680Y24680
X36680Y25680
X29430Y36180
X28430Y36180
X27430Y36180
X26430Y36180
X25430Y36180
X24430Y36180
X23430Y36180
X22430Y36180
X19180Y36180
X19180Y35180
X18180Y35180
X18180Y36180
X17180Y36180
X17180Y35180
X16180Y35180
X16180Y36180
X15180Y36180
X15180Y35180
X14180Y35180
X14180Y36180
X13180Y36180
X13180Y35180
X12180Y35180
X12180Y36180
X11180Y36180
X11180Y35180
X10180Y35180
X10180Y36180
X5680Y35430
X5680Y34430
T05
X23180Y26680
X23180Y23680
X23180Y19180
X23180Y16180
X23180Y10180
X23180Y7180
X29180Y7180
X29180Y10180
X29180Y16180
X29180Y19180
X29180Y23680
X29180Y26680
T06
X23780Y29380
X37880Y37880
X2580Y8880
X1380Y37880
X37680Y1580
M30
