G75*
G70*
%OFA0B0*%
%FSLAX24Y24*%
%IPPOS*%
%LPD*%
%AMOC8*
5,1,8,0,0,1.08239X$1,22.5*
%
%ADD10C,0.0000*%
%ADD11C,0.0600*%
%ADD12OC8,0.0520*%
%ADD13OC8,0.0600*%
%ADD14C,0.0650*%
%ADD15C,0.0740*%
%ADD16C,0.0885*%
%ADD17C,0.0160*%
%ADD18R,0.0356X0.0356*%
%ADD19C,0.0120*%
D10*
X000180Y000180D02*
X000180Y039050D01*
X039172Y039050D01*
X039172Y000180D01*
X000180Y000180D01*
X002029Y008880D02*
X002031Y008927D01*
X002037Y008973D01*
X002047Y009019D01*
X002060Y009064D01*
X002078Y009107D01*
X002099Y009149D01*
X002123Y009189D01*
X002151Y009226D01*
X002182Y009261D01*
X002216Y009294D01*
X002252Y009323D01*
X002291Y009349D01*
X002332Y009372D01*
X002375Y009391D01*
X002419Y009407D01*
X002464Y009419D01*
X002510Y009427D01*
X002557Y009431D01*
X002603Y009431D01*
X002650Y009427D01*
X002696Y009419D01*
X002741Y009407D01*
X002785Y009391D01*
X002828Y009372D01*
X002869Y009349D01*
X002908Y009323D01*
X002944Y009294D01*
X002978Y009261D01*
X003009Y009226D01*
X003037Y009189D01*
X003061Y009149D01*
X003082Y009107D01*
X003100Y009064D01*
X003113Y009019D01*
X003123Y008973D01*
X003129Y008927D01*
X003131Y008880D01*
X003129Y008833D01*
X003123Y008787D01*
X003113Y008741D01*
X003100Y008696D01*
X003082Y008653D01*
X003061Y008611D01*
X003037Y008571D01*
X003009Y008534D01*
X002978Y008499D01*
X002944Y008466D01*
X002908Y008437D01*
X002869Y008411D01*
X002828Y008388D01*
X002785Y008369D01*
X002741Y008353D01*
X002696Y008341D01*
X002650Y008333D01*
X002603Y008329D01*
X002557Y008329D01*
X002510Y008333D01*
X002464Y008341D01*
X002419Y008353D01*
X002375Y008369D01*
X002332Y008388D01*
X002291Y008411D01*
X002252Y008437D01*
X002216Y008466D01*
X002182Y008499D01*
X002151Y008534D01*
X002123Y008571D01*
X002099Y008611D01*
X002078Y008653D01*
X002060Y008696D01*
X002047Y008741D01*
X002037Y008787D01*
X002031Y008833D01*
X002029Y008880D01*
X023229Y029380D02*
X023231Y029427D01*
X023237Y029473D01*
X023247Y029519D01*
X023260Y029564D01*
X023278Y029607D01*
X023299Y029649D01*
X023323Y029689D01*
X023351Y029726D01*
X023382Y029761D01*
X023416Y029794D01*
X023452Y029823D01*
X023491Y029849D01*
X023532Y029872D01*
X023575Y029891D01*
X023619Y029907D01*
X023664Y029919D01*
X023710Y029927D01*
X023757Y029931D01*
X023803Y029931D01*
X023850Y029927D01*
X023896Y029919D01*
X023941Y029907D01*
X023985Y029891D01*
X024028Y029872D01*
X024069Y029849D01*
X024108Y029823D01*
X024144Y029794D01*
X024178Y029761D01*
X024209Y029726D01*
X024237Y029689D01*
X024261Y029649D01*
X024282Y029607D01*
X024300Y029564D01*
X024313Y029519D01*
X024323Y029473D01*
X024329Y029427D01*
X024331Y029380D01*
X024329Y029333D01*
X024323Y029287D01*
X024313Y029241D01*
X024300Y029196D01*
X024282Y029153D01*
X024261Y029111D01*
X024237Y029071D01*
X024209Y029034D01*
X024178Y028999D01*
X024144Y028966D01*
X024108Y028937D01*
X024069Y028911D01*
X024028Y028888D01*
X023985Y028869D01*
X023941Y028853D01*
X023896Y028841D01*
X023850Y028833D01*
X023803Y028829D01*
X023757Y028829D01*
X023710Y028833D01*
X023664Y028841D01*
X023619Y028853D01*
X023575Y028869D01*
X023532Y028888D01*
X023491Y028911D01*
X023452Y028937D01*
X023416Y028966D01*
X023382Y028999D01*
X023351Y029034D01*
X023323Y029071D01*
X023299Y029111D01*
X023278Y029153D01*
X023260Y029196D01*
X023247Y029241D01*
X023237Y029287D01*
X023231Y029333D01*
X023229Y029380D01*
X037329Y037880D02*
X037331Y037927D01*
X037337Y037973D01*
X037347Y038019D01*
X037360Y038064D01*
X037378Y038107D01*
X037399Y038149D01*
X037423Y038189D01*
X037451Y038226D01*
X037482Y038261D01*
X037516Y038294D01*
X037552Y038323D01*
X037591Y038349D01*
X037632Y038372D01*
X037675Y038391D01*
X037719Y038407D01*
X037764Y038419D01*
X037810Y038427D01*
X037857Y038431D01*
X037903Y038431D01*
X037950Y038427D01*
X037996Y038419D01*
X038041Y038407D01*
X038085Y038391D01*
X038128Y038372D01*
X038169Y038349D01*
X038208Y038323D01*
X038244Y038294D01*
X038278Y038261D01*
X038309Y038226D01*
X038337Y038189D01*
X038361Y038149D01*
X038382Y038107D01*
X038400Y038064D01*
X038413Y038019D01*
X038423Y037973D01*
X038429Y037927D01*
X038431Y037880D01*
X038429Y037833D01*
X038423Y037787D01*
X038413Y037741D01*
X038400Y037696D01*
X038382Y037653D01*
X038361Y037611D01*
X038337Y037571D01*
X038309Y037534D01*
X038278Y037499D01*
X038244Y037466D01*
X038208Y037437D01*
X038169Y037411D01*
X038128Y037388D01*
X038085Y037369D01*
X038041Y037353D01*
X037996Y037341D01*
X037950Y037333D01*
X037903Y037329D01*
X037857Y037329D01*
X037810Y037333D01*
X037764Y037341D01*
X037719Y037353D01*
X037675Y037369D01*
X037632Y037388D01*
X037591Y037411D01*
X037552Y037437D01*
X037516Y037466D01*
X037482Y037499D01*
X037451Y037534D01*
X037423Y037571D01*
X037399Y037611D01*
X037378Y037653D01*
X037360Y037696D01*
X037347Y037741D01*
X037337Y037787D01*
X037331Y037833D01*
X037329Y037880D01*
X000829Y037880D02*
X000831Y037927D01*
X000837Y037973D01*
X000847Y038019D01*
X000860Y038064D01*
X000878Y038107D01*
X000899Y038149D01*
X000923Y038189D01*
X000951Y038226D01*
X000982Y038261D01*
X001016Y038294D01*
X001052Y038323D01*
X001091Y038349D01*
X001132Y038372D01*
X001175Y038391D01*
X001219Y038407D01*
X001264Y038419D01*
X001310Y038427D01*
X001357Y038431D01*
X001403Y038431D01*
X001450Y038427D01*
X001496Y038419D01*
X001541Y038407D01*
X001585Y038391D01*
X001628Y038372D01*
X001669Y038349D01*
X001708Y038323D01*
X001744Y038294D01*
X001778Y038261D01*
X001809Y038226D01*
X001837Y038189D01*
X001861Y038149D01*
X001882Y038107D01*
X001900Y038064D01*
X001913Y038019D01*
X001923Y037973D01*
X001929Y037927D01*
X001931Y037880D01*
X001929Y037833D01*
X001923Y037787D01*
X001913Y037741D01*
X001900Y037696D01*
X001882Y037653D01*
X001861Y037611D01*
X001837Y037571D01*
X001809Y037534D01*
X001778Y037499D01*
X001744Y037466D01*
X001708Y037437D01*
X001669Y037411D01*
X001628Y037388D01*
X001585Y037369D01*
X001541Y037353D01*
X001496Y037341D01*
X001450Y037333D01*
X001403Y037329D01*
X001357Y037329D01*
X001310Y037333D01*
X001264Y037341D01*
X001219Y037353D01*
X001175Y037369D01*
X001132Y037388D01*
X001091Y037411D01*
X001052Y037437D01*
X001016Y037466D01*
X000982Y037499D01*
X000951Y037534D01*
X000923Y037571D01*
X000899Y037611D01*
X000878Y037653D01*
X000860Y037696D01*
X000847Y037741D01*
X000837Y037787D01*
X000831Y037833D01*
X000829Y037880D01*
X037129Y001580D02*
X037131Y001627D01*
X037137Y001673D01*
X037147Y001719D01*
X037160Y001764D01*
X037178Y001807D01*
X037199Y001849D01*
X037223Y001889D01*
X037251Y001926D01*
X037282Y001961D01*
X037316Y001994D01*
X037352Y002023D01*
X037391Y002049D01*
X037432Y002072D01*
X037475Y002091D01*
X037519Y002107D01*
X037564Y002119D01*
X037610Y002127D01*
X037657Y002131D01*
X037703Y002131D01*
X037750Y002127D01*
X037796Y002119D01*
X037841Y002107D01*
X037885Y002091D01*
X037928Y002072D01*
X037969Y002049D01*
X038008Y002023D01*
X038044Y001994D01*
X038078Y001961D01*
X038109Y001926D01*
X038137Y001889D01*
X038161Y001849D01*
X038182Y001807D01*
X038200Y001764D01*
X038213Y001719D01*
X038223Y001673D01*
X038229Y001627D01*
X038231Y001580D01*
X038229Y001533D01*
X038223Y001487D01*
X038213Y001441D01*
X038200Y001396D01*
X038182Y001353D01*
X038161Y001311D01*
X038137Y001271D01*
X038109Y001234D01*
X038078Y001199D01*
X038044Y001166D01*
X038008Y001137D01*
X037969Y001111D01*
X037928Y001088D01*
X037885Y001069D01*
X037841Y001053D01*
X037796Y001041D01*
X037750Y001033D01*
X037703Y001029D01*
X037657Y001029D01*
X037610Y001033D01*
X037564Y001041D01*
X037519Y001053D01*
X037475Y001069D01*
X037432Y001088D01*
X037391Y001111D01*
X037352Y001137D01*
X037316Y001166D01*
X037282Y001199D01*
X037251Y001234D01*
X037223Y001271D01*
X037199Y001311D01*
X037178Y001353D01*
X037160Y001396D01*
X037147Y001441D01*
X037137Y001487D01*
X037131Y001533D01*
X037129Y001580D01*
D11*
X022680Y001880D02*
X022680Y002480D01*
X021680Y002480D02*
X021680Y001880D01*
X020680Y001880D02*
X020680Y002480D01*
X020680Y004380D02*
X020680Y004980D01*
X021680Y004980D02*
X021680Y004380D01*
X022680Y004380D02*
X022680Y004980D01*
X018180Y004980D02*
X018180Y004380D01*
X017180Y004380D02*
X017180Y004980D01*
X016180Y004980D02*
X016180Y004380D01*
X016180Y002480D02*
X016180Y001880D01*
X017180Y001880D02*
X017180Y002480D01*
X018180Y002480D02*
X018180Y001880D01*
X016180Y007880D02*
X016180Y008480D01*
X015180Y008480D02*
X015180Y007880D01*
X014180Y007880D02*
X014180Y008480D01*
X013180Y008480D02*
X013180Y007880D01*
X012180Y007880D02*
X012180Y008480D01*
X011180Y008480D02*
X011180Y007880D01*
X010680Y010880D02*
X010680Y011480D01*
X011680Y011480D02*
X011680Y010880D01*
X012680Y010880D02*
X012680Y011480D01*
X013680Y011480D02*
X013680Y010880D01*
X014680Y010880D02*
X014680Y011480D01*
X015680Y011480D02*
X015680Y010880D01*
X016680Y010880D02*
X016680Y011480D01*
X017680Y011480D02*
X017680Y010880D01*
X018680Y010880D02*
X018680Y011480D01*
X019680Y011480D02*
X019680Y010880D01*
X020680Y010880D02*
X020680Y011480D01*
X020980Y013180D02*
X020380Y013180D01*
X020380Y014180D02*
X020980Y014180D01*
X020980Y015180D02*
X020380Y015180D01*
X020380Y016180D02*
X020980Y016180D01*
X020980Y017180D02*
X020380Y017180D01*
X020380Y018180D02*
X020980Y018180D01*
X020980Y019180D02*
X020380Y019180D01*
X020380Y020180D02*
X020980Y020180D01*
X020980Y021180D02*
X020380Y021180D01*
X020380Y022180D02*
X020980Y022180D01*
X020980Y023180D02*
X020380Y023180D01*
X020380Y024180D02*
X020980Y024180D01*
X020980Y025180D02*
X020380Y025180D01*
X020380Y026180D02*
X020980Y026180D01*
X020980Y027180D02*
X020380Y027180D01*
X020380Y028180D02*
X020980Y028180D01*
X020680Y029880D02*
X020680Y030480D01*
X019680Y030480D02*
X019680Y029880D01*
X018680Y029880D02*
X018680Y030480D01*
X017680Y030480D02*
X017680Y029880D01*
X016680Y029880D02*
X016680Y030480D01*
X015680Y030480D02*
X015680Y029880D01*
X014680Y029880D02*
X014680Y030480D01*
X013680Y030480D02*
X013680Y029880D01*
X012680Y029880D02*
X012680Y030480D01*
X011680Y030480D02*
X011680Y029880D01*
X010680Y029880D02*
X010680Y030480D01*
X009680Y030480D02*
X009680Y029880D01*
X008680Y029880D02*
X008680Y030480D01*
X007680Y030480D02*
X007680Y029880D01*
X006680Y029880D02*
X006680Y030480D01*
X005680Y030480D02*
X005680Y029880D01*
X005380Y028180D02*
X005980Y028180D01*
X005980Y027180D02*
X005380Y027180D01*
X005380Y026180D02*
X005980Y026180D01*
X005980Y025180D02*
X005380Y025180D01*
X005380Y024180D02*
X005980Y024180D01*
X005980Y023180D02*
X005380Y023180D01*
X005380Y022180D02*
X005980Y022180D01*
X005980Y021180D02*
X005380Y021180D01*
X005380Y020180D02*
X005980Y020180D01*
X005980Y019180D02*
X005380Y019180D01*
X005380Y018180D02*
X005980Y018180D01*
X005980Y017180D02*
X005380Y017180D01*
X005380Y016180D02*
X005980Y016180D01*
X005980Y015180D02*
X005380Y015180D01*
X005380Y014180D02*
X005980Y014180D01*
X005980Y013180D02*
X005380Y013180D01*
X005680Y011480D02*
X005680Y010880D01*
X006680Y010880D02*
X006680Y011480D01*
X007680Y011480D02*
X007680Y010880D01*
X008680Y010880D02*
X008680Y011480D01*
X009680Y011480D02*
X009680Y010880D01*
X002980Y005180D02*
X002380Y005180D01*
X002380Y004180D02*
X002980Y004180D01*
X002980Y003180D02*
X002380Y003180D01*
X002380Y002180D02*
X002980Y002180D01*
X005380Y034430D02*
X005980Y034430D01*
X005980Y035430D02*
X005380Y035430D01*
X022430Y035880D02*
X022430Y036480D01*
X023430Y036480D02*
X023430Y035880D01*
X024430Y035880D02*
X024430Y036480D01*
X025430Y036480D02*
X025430Y035880D01*
X026430Y035880D02*
X026430Y036480D01*
X027430Y036480D02*
X027430Y035880D01*
X028430Y035880D02*
X028430Y036480D01*
X029430Y036480D02*
X029430Y035880D01*
X036380Y025680D02*
X036980Y025680D01*
X036980Y024680D02*
X036380Y024680D01*
X036380Y023680D02*
X036980Y023680D01*
X036980Y022680D02*
X036380Y022680D01*
X036380Y021680D02*
X036980Y021680D01*
X036980Y020680D02*
X036380Y020680D01*
D12*
X034680Y020180D03*
X034680Y021680D03*
X034680Y017680D03*
X034680Y016180D03*
X034680Y012680D03*
X034680Y011180D03*
X034680Y008680D03*
X034680Y007180D03*
X030680Y007180D03*
X030680Y008680D03*
X030680Y011180D03*
X030680Y012680D03*
X030680Y016180D03*
X030680Y017680D03*
X030680Y020180D03*
X030680Y021680D03*
X030680Y027180D03*
X030680Y028680D03*
X030680Y030680D03*
X030680Y032180D03*
X034680Y032180D03*
X034680Y030680D03*
X034680Y028680D03*
X034680Y027180D03*
X017430Y022180D03*
X016430Y022180D03*
X015930Y025180D03*
X016930Y025180D03*
X014430Y026430D03*
X013430Y026430D03*
X009680Y025680D03*
X008680Y025680D03*
X002680Y027180D03*
X002680Y028180D03*
X007680Y032680D03*
X011680Y032680D03*
X007680Y019430D03*
X007680Y018430D03*
X009930Y016180D03*
X009930Y015180D03*
X013930Y016680D03*
X014930Y016680D03*
X007180Y007680D03*
X006180Y007680D03*
X007180Y003180D03*
X011180Y003180D03*
X002680Y018180D03*
X002680Y019180D03*
D13*
X010180Y035180D03*
X010180Y036180D03*
X011180Y036180D03*
X011180Y035180D03*
X012180Y035180D03*
X012180Y036180D03*
X013180Y036180D03*
X013180Y035180D03*
X014180Y035180D03*
X014180Y036180D03*
X015180Y036180D03*
X015180Y035180D03*
X016180Y035180D03*
X016180Y036180D03*
X017180Y036180D03*
X017180Y035180D03*
X018180Y035180D03*
X018180Y036180D03*
X019180Y036180D03*
X019180Y035180D03*
D14*
X002680Y024180D03*
X002680Y022180D03*
D15*
X003460Y014820D03*
X003460Y013040D03*
X000900Y013040D03*
X000900Y014820D03*
X013680Y004180D03*
X013680Y003180D03*
D16*
X022738Y007180D02*
X023623Y007180D01*
X023623Y010180D02*
X022738Y010180D01*
X028738Y010180D02*
X029623Y010180D01*
X029623Y007180D02*
X028738Y007180D01*
X028738Y016180D02*
X029623Y016180D01*
X029623Y019180D02*
X028738Y019180D01*
X028738Y023680D02*
X029623Y023680D01*
X029623Y026680D02*
X028738Y026680D01*
X023623Y026680D02*
X022738Y026680D01*
X022738Y023680D02*
X023623Y023680D01*
X023623Y019180D02*
X022738Y019180D01*
X022738Y016180D02*
X023623Y016180D01*
D17*
X024205Y016189D02*
X024860Y016189D01*
X024860Y016347D02*
X024184Y016347D01*
X024205Y016296D02*
X024116Y016510D01*
X023952Y016674D01*
X023738Y016762D01*
X022622Y016762D01*
X022408Y016674D01*
X022244Y016510D01*
X022155Y016296D01*
X022155Y016064D01*
X022244Y015850D01*
X022408Y015686D01*
X022622Y015598D01*
X023738Y015598D01*
X023952Y015686D01*
X024116Y015850D01*
X024205Y016064D01*
X024205Y016296D01*
X024118Y016506D02*
X024843Y016506D01*
X024860Y016489D02*
X024860Y015071D01*
X024392Y014604D01*
X023498Y014638D01*
X023498Y014666D01*
X023416Y014748D01*
X022944Y014748D01*
X022862Y014666D01*
X022862Y014194D01*
X022944Y014112D01*
X023416Y014112D01*
X023498Y014194D01*
X023498Y014198D01*
X024385Y014163D01*
X024389Y014160D01*
X024476Y014160D01*
X024563Y014157D01*
X024566Y014160D01*
X024571Y014160D01*
X024633Y014221D01*
X024696Y014280D01*
X024697Y014285D01*
X025171Y014760D01*
X025300Y014889D01*
X025300Y016671D01*
X024700Y017271D01*
X024571Y017400D01*
X023498Y017400D01*
X023498Y017416D01*
X023416Y017498D01*
X022944Y017498D01*
X022862Y017416D01*
X022862Y016944D01*
X022944Y016862D01*
X023416Y016862D01*
X023498Y016944D01*
X023498Y016960D01*
X024389Y016960D01*
X024860Y016489D01*
X025080Y016580D02*
X024480Y017180D01*
X023180Y017180D01*
X022862Y017140D02*
X022748Y017140D01*
X022748Y017298D02*
X022862Y017298D01*
X022902Y017457D02*
X022708Y017457D01*
X022748Y017416D02*
X022666Y017498D01*
X022423Y017498D01*
X021998Y017923D01*
X021998Y018166D01*
X021916Y018248D01*
X021444Y018248D01*
X021420Y018224D01*
X021420Y018268D01*
X021353Y018429D01*
X021229Y018553D01*
X021068Y018620D01*
X020292Y018620D01*
X020131Y018553D01*
X020007Y018429D01*
X019940Y018268D01*
X019940Y018092D01*
X020007Y017931D01*
X020131Y017807D01*
X020292Y017740D01*
X021068Y017740D01*
X021229Y017807D01*
X021353Y017931D01*
X021362Y017952D01*
X021362Y017694D01*
X021444Y017612D01*
X021687Y017612D01*
X022112Y017187D01*
X022112Y016944D01*
X022194Y016862D01*
X022666Y016862D01*
X022748Y016944D01*
X022748Y017416D01*
X022430Y017180D02*
X021680Y017930D01*
X021998Y017932D02*
X030366Y017932D01*
X030280Y017846D02*
X030514Y018080D01*
X030846Y018080D01*
X031080Y017846D01*
X031080Y017514D01*
X030846Y017280D01*
X030514Y017280D01*
X030280Y017514D01*
X030280Y017846D01*
X030280Y017774D02*
X022148Y017774D01*
X022306Y017615D02*
X030280Y017615D01*
X030338Y017457D02*
X023458Y017457D01*
X022862Y016981D02*
X022748Y016981D01*
X022398Y016664D02*
X015370Y016664D01*
X015370Y016680D02*
X014930Y016680D01*
X015370Y016680D01*
X015370Y016862D01*
X015112Y017120D01*
X014930Y017120D01*
X014930Y016680D01*
X014930Y016680D01*
X014930Y016680D01*
X014930Y016240D01*
X015112Y016240D01*
X015370Y016498D01*
X015370Y016680D01*
X015370Y016823D02*
X020115Y016823D01*
X020131Y016807D02*
X020292Y016740D01*
X021068Y016740D01*
X021229Y016807D01*
X021353Y016931D01*
X021420Y017092D01*
X021420Y017268D01*
X021353Y017429D01*
X021229Y017553D01*
X021068Y017620D01*
X020292Y017620D01*
X020131Y017553D01*
X020007Y017429D01*
X019940Y017268D01*
X019940Y017092D01*
X020007Y016931D01*
X020131Y016807D01*
X019986Y016981D02*
X015251Y016981D01*
X014930Y016981D02*
X014930Y016981D01*
X014930Y017120D02*
X014748Y017120D01*
X014490Y016862D01*
X014490Y016680D01*
X014930Y016680D01*
X014930Y016680D01*
X014930Y016680D01*
X014930Y017120D01*
X014930Y016823D02*
X014930Y016823D01*
X014930Y016680D02*
X014490Y016680D01*
X014490Y016498D01*
X014748Y016240D01*
X014930Y016240D01*
X014930Y016680D01*
X014930Y016664D02*
X014930Y016664D01*
X014930Y016506D02*
X014930Y016506D01*
X014930Y016347D02*
X014930Y016347D01*
X015219Y016347D02*
X019973Y016347D01*
X019940Y016268D02*
X019940Y016092D01*
X020007Y015931D01*
X020131Y015807D01*
X020292Y015740D01*
X021068Y015740D01*
X021229Y015807D01*
X021353Y015931D01*
X021420Y016092D01*
X021420Y016268D01*
X021353Y016429D01*
X021229Y016553D01*
X021068Y016620D01*
X020292Y016620D01*
X020131Y016553D01*
X020007Y016429D01*
X019940Y016268D01*
X019940Y016189D02*
X010330Y016189D01*
X010330Y016346D02*
X010096Y016580D01*
X009764Y016580D01*
X009530Y016346D01*
X009530Y016014D01*
X009764Y015780D01*
X010096Y015780D01*
X010330Y016014D01*
X010330Y016346D01*
X010329Y016347D02*
X013697Y016347D01*
X013764Y016280D02*
X014096Y016280D01*
X014330Y016514D01*
X014330Y016846D01*
X014096Y017080D01*
X013764Y017080D01*
X013530Y016846D01*
X013530Y016514D01*
X013764Y016280D01*
X013539Y016506D02*
X010170Y016506D01*
X009690Y016506D02*
X006277Y016506D01*
X006229Y016553D02*
X006068Y016620D01*
X005292Y016620D01*
X005131Y016553D01*
X005007Y016429D01*
X004940Y016268D01*
X004940Y016092D01*
X005007Y015931D01*
X005131Y015807D01*
X005292Y015740D01*
X006068Y015740D01*
X006229Y015807D01*
X006353Y015931D01*
X006420Y016092D01*
X006420Y016268D01*
X006353Y016429D01*
X006229Y016553D01*
X006164Y016735D02*
X006232Y016769D01*
X006293Y016814D01*
X006346Y016867D01*
X006391Y016928D01*
X006425Y016996D01*
X006448Y017068D01*
X006460Y017142D01*
X006460Y017160D01*
X005700Y017160D01*
X005700Y017200D01*
X005660Y017200D01*
X005660Y017660D01*
X005342Y017660D01*
X005268Y017648D01*
X005196Y017625D01*
X005128Y017591D01*
X005067Y017546D01*
X005014Y017493D01*
X004969Y017432D01*
X004935Y017364D01*
X004912Y017292D01*
X004900Y017218D01*
X004900Y017200D01*
X005660Y017200D01*
X005660Y017160D01*
X005700Y017160D01*
X005700Y016700D01*
X006018Y016700D01*
X006092Y016712D01*
X006164Y016735D01*
X006301Y016823D02*
X013530Y016823D01*
X013530Y016664D02*
X000360Y016664D01*
X000360Y016506D02*
X005083Y016506D01*
X004973Y016347D02*
X000360Y016347D01*
X000360Y016189D02*
X004940Y016189D01*
X004966Y016030D02*
X000360Y016030D01*
X000360Y015872D02*
X005066Y015872D01*
X005134Y015555D02*
X000360Y015555D01*
X000360Y015713D02*
X022381Y015713D01*
X022235Y015872D02*
X021294Y015872D01*
X021394Y016030D02*
X022169Y016030D01*
X022155Y016189D02*
X021420Y016189D01*
X021387Y016347D02*
X022176Y016347D01*
X022242Y016506D02*
X021277Y016506D01*
X021245Y016823D02*
X024526Y016823D01*
X024685Y016664D02*
X023962Y016664D01*
X024191Y016030D02*
X024860Y016030D01*
X024860Y015872D02*
X024125Y015872D01*
X023979Y015713D02*
X024860Y015713D01*
X024860Y015555D02*
X021226Y015555D01*
X021229Y015553D02*
X021068Y015620D01*
X020292Y015620D01*
X020131Y015553D01*
X020007Y015429D01*
X019940Y015268D01*
X019940Y015092D01*
X020007Y014931D01*
X020131Y014807D01*
X020292Y014740D01*
X021068Y014740D01*
X021229Y014807D01*
X021353Y014931D01*
X021420Y015092D01*
X021420Y015268D01*
X021353Y015429D01*
X021229Y015553D01*
X021367Y015396D02*
X024860Y015396D01*
X024860Y015238D02*
X021420Y015238D01*
X021414Y015079D02*
X024860Y015079D01*
X024709Y014921D02*
X021343Y014921D01*
X021121Y014762D02*
X024551Y014762D01*
X024480Y014380D02*
X025080Y014980D01*
X025080Y016580D01*
X025300Y016506D02*
X028242Y016506D01*
X028244Y016510D02*
X028155Y016296D01*
X028155Y016064D01*
X028244Y015850D01*
X028408Y015686D01*
X028622Y015598D01*
X029738Y015598D01*
X029952Y015686D01*
X030116Y015850D01*
X030205Y016064D01*
X030205Y016296D01*
X030116Y016510D01*
X029952Y016674D01*
X029738Y016762D01*
X028622Y016762D01*
X028408Y016674D01*
X028244Y016510D01*
X028176Y016347D02*
X025300Y016347D01*
X025300Y016189D02*
X028155Y016189D01*
X028169Y016030D02*
X025300Y016030D01*
X025300Y015872D02*
X028235Y015872D01*
X028381Y015713D02*
X025300Y015713D01*
X025300Y015555D02*
X038992Y015555D01*
X038992Y015713D02*
X029979Y015713D01*
X030125Y015872D02*
X030423Y015872D01*
X030514Y015780D02*
X030846Y015780D01*
X031080Y016014D01*
X031080Y016346D01*
X030846Y016580D01*
X030514Y016580D01*
X030280Y016346D01*
X030280Y016014D01*
X030514Y015780D01*
X030280Y016030D02*
X030191Y016030D01*
X030205Y016189D02*
X030280Y016189D01*
X030281Y016347D02*
X030184Y016347D01*
X030118Y016506D02*
X030440Y016506D01*
X030920Y016506D02*
X034440Y016506D01*
X034514Y016580D02*
X034280Y016346D01*
X034280Y016014D01*
X034514Y015780D01*
X034846Y015780D01*
X035080Y016014D01*
X035080Y016346D01*
X034846Y016580D01*
X034514Y016580D01*
X034281Y016347D02*
X031079Y016347D01*
X031080Y016189D02*
X034280Y016189D01*
X034280Y016030D02*
X031080Y016030D01*
X030937Y015872D02*
X034423Y015872D01*
X034937Y015872D02*
X038992Y015872D01*
X038992Y016030D02*
X035080Y016030D01*
X035080Y016189D02*
X038992Y016189D01*
X038992Y016347D02*
X035079Y016347D01*
X034920Y016506D02*
X038992Y016506D01*
X038992Y016664D02*
X029962Y016664D01*
X030496Y017298D02*
X024673Y017298D01*
X024832Y017140D02*
X038992Y017140D01*
X038992Y017298D02*
X034864Y017298D01*
X034846Y017280D02*
X035080Y017514D01*
X035080Y017846D01*
X034846Y018080D01*
X034514Y018080D01*
X034280Y017846D01*
X034280Y017514D01*
X034514Y017280D01*
X034846Y017280D01*
X035022Y017457D02*
X038992Y017457D01*
X038992Y017615D02*
X035080Y017615D01*
X035080Y017774D02*
X038992Y017774D01*
X038992Y017932D02*
X034994Y017932D01*
X034366Y017932D02*
X030994Y017932D01*
X031080Y017774D02*
X034280Y017774D01*
X034280Y017615D02*
X031080Y017615D01*
X031022Y017457D02*
X034338Y017457D01*
X034496Y017298D02*
X030864Y017298D01*
X029952Y018686D02*
X029738Y018598D01*
X028622Y018598D01*
X028408Y018686D01*
X028244Y018850D01*
X028155Y019064D01*
X028155Y019296D01*
X028244Y019510D01*
X028408Y019674D01*
X028622Y019762D01*
X029738Y019762D01*
X029952Y019674D01*
X030116Y019510D01*
X030205Y019296D01*
X030205Y019064D01*
X030116Y018850D01*
X029952Y018686D01*
X029991Y018725D02*
X038992Y018725D01*
X038992Y018883D02*
X030130Y018883D01*
X030196Y019042D02*
X038992Y019042D01*
X038992Y019200D02*
X030205Y019200D01*
X030179Y019359D02*
X038992Y019359D01*
X038992Y019517D02*
X030109Y019517D01*
X029948Y019676D02*
X038992Y019676D01*
X038992Y019834D02*
X034900Y019834D01*
X034846Y019780D02*
X035080Y020014D01*
X035080Y020346D01*
X034846Y020580D01*
X034514Y020580D01*
X034280Y020346D01*
X034280Y020014D01*
X034514Y019780D01*
X034846Y019780D01*
X035058Y019993D02*
X038992Y019993D01*
X038992Y020151D02*
X035080Y020151D01*
X035080Y020310D02*
X036128Y020310D01*
X036131Y020307D02*
X036292Y020240D01*
X037068Y020240D01*
X037229Y020307D01*
X037353Y020431D01*
X037420Y020592D01*
X037420Y020768D01*
X037353Y020929D01*
X037229Y021053D01*
X037068Y021120D01*
X036292Y021120D01*
X036131Y021053D01*
X036007Y020929D01*
X035940Y020768D01*
X035940Y020592D01*
X036007Y020431D01*
X036131Y020307D01*
X035992Y020468D02*
X034958Y020468D01*
X034402Y020468D02*
X030958Y020468D01*
X030846Y020580D02*
X030514Y020580D01*
X030280Y020346D01*
X030280Y020014D01*
X030514Y019780D01*
X030846Y019780D01*
X031080Y020014D01*
X031080Y020346D01*
X030846Y020580D01*
X031080Y020310D02*
X034280Y020310D01*
X034280Y020151D02*
X031080Y020151D01*
X031058Y019993D02*
X034302Y019993D01*
X034460Y019834D02*
X030900Y019834D01*
X030460Y019834D02*
X021256Y019834D01*
X021229Y019807D02*
X021353Y019931D01*
X021420Y020092D01*
X021420Y020268D01*
X021353Y020429D01*
X021229Y020553D01*
X021068Y020620D01*
X020292Y020620D01*
X020131Y020553D01*
X020007Y020429D01*
X019940Y020268D01*
X019940Y020092D01*
X020007Y019931D01*
X020131Y019807D01*
X020292Y019740D01*
X021068Y019740D01*
X021229Y019807D01*
X021379Y019993D02*
X030302Y019993D01*
X030280Y020151D02*
X021420Y020151D01*
X021403Y020310D02*
X030280Y020310D01*
X030402Y020468D02*
X021314Y020468D01*
X021176Y020785D02*
X035947Y020785D01*
X035940Y020627D02*
X012809Y020627D01*
X012774Y020591D02*
X014163Y021980D01*
X016064Y021980D01*
X016264Y021780D01*
X016596Y021780D01*
X016830Y022014D01*
X016830Y022346D01*
X016596Y022580D01*
X016264Y022580D01*
X016064Y022380D01*
X013997Y022380D01*
X013880Y022263D01*
X012444Y020827D01*
X012387Y020778D01*
X012386Y020769D01*
X012380Y020763D01*
X012380Y020688D01*
X012304Y019698D01*
X012244Y019698D01*
X012162Y019616D01*
X012162Y019144D01*
X012244Y019062D01*
X012716Y019062D01*
X012798Y019144D01*
X012798Y019616D01*
X012716Y019698D01*
X012705Y019698D01*
X012774Y020591D01*
X012764Y020468D02*
X020046Y020468D01*
X019957Y020310D02*
X012752Y020310D01*
X012740Y020151D02*
X019940Y020151D01*
X019981Y019993D02*
X012728Y019993D01*
X012716Y019834D02*
X020104Y019834D01*
X020131Y019553D02*
X020007Y019429D01*
X019940Y019268D01*
X019940Y019092D01*
X020007Y018931D01*
X020131Y018807D01*
X020292Y018740D01*
X021068Y018740D01*
X021229Y018807D01*
X021353Y018931D01*
X021420Y019092D01*
X021420Y019268D01*
X021353Y019429D01*
X021229Y019553D01*
X021068Y019620D01*
X020292Y019620D01*
X020131Y019553D01*
X020095Y019517D02*
X012798Y019517D01*
X012798Y019359D02*
X019978Y019359D01*
X019940Y019200D02*
X012798Y019200D01*
X012739Y019676D02*
X022412Y019676D01*
X022408Y019674D02*
X022244Y019510D01*
X022155Y019296D01*
X022155Y019064D01*
X022244Y018850D01*
X022408Y018686D01*
X022622Y018598D01*
X023738Y018598D01*
X023952Y018686D01*
X024116Y018850D01*
X024205Y019064D01*
X024205Y019296D01*
X024116Y019510D01*
X023952Y019674D01*
X023738Y019762D01*
X022622Y019762D01*
X022408Y019674D01*
X022251Y019517D02*
X021265Y019517D01*
X021382Y019359D02*
X022181Y019359D01*
X022155Y019200D02*
X021420Y019200D01*
X021399Y019042D02*
X022164Y019042D01*
X022230Y018883D02*
X021305Y018883D01*
X021198Y018566D02*
X038992Y018566D01*
X038992Y018408D02*
X021362Y018408D01*
X021420Y018249D02*
X038992Y018249D01*
X038992Y018091D02*
X021998Y018091D01*
X021842Y017457D02*
X021326Y017457D01*
X021407Y017298D02*
X022001Y017298D01*
X022112Y017140D02*
X021420Y017140D01*
X021374Y016981D02*
X022112Y016981D01*
X021441Y017615D02*
X021080Y017615D01*
X021148Y017774D02*
X021362Y017774D01*
X021354Y017932D02*
X021362Y017932D01*
X022369Y018725D02*
X007951Y018725D01*
X007846Y018830D02*
X008080Y018596D01*
X008080Y018264D01*
X007846Y018030D01*
X007514Y018030D01*
X007280Y018264D01*
X007280Y018596D01*
X007514Y018830D01*
X007846Y018830D01*
X007862Y018990D02*
X008120Y019248D01*
X008120Y019430D01*
X008120Y019612D01*
X007862Y019870D01*
X007680Y019870D01*
X007680Y019430D01*
X007680Y019430D01*
X008120Y019430D01*
X007680Y019430D01*
X007680Y019430D01*
X007680Y019430D01*
X007240Y019430D01*
X007240Y019612D01*
X007498Y019870D01*
X007680Y019870D01*
X007680Y019430D01*
X007680Y018990D01*
X007862Y018990D01*
X007914Y019042D02*
X019961Y019042D01*
X020055Y018883D02*
X006305Y018883D01*
X006353Y018931D02*
X006420Y019092D01*
X006420Y019268D01*
X006353Y019429D01*
X006229Y019553D01*
X006068Y019620D01*
X005292Y019620D01*
X005131Y019553D01*
X005007Y019429D01*
X004995Y019400D01*
X004521Y019400D01*
X003400Y020521D01*
X003400Y025612D01*
X003416Y025612D01*
X003460Y025656D01*
X003460Y021589D01*
X003960Y021089D01*
X004089Y020960D01*
X004995Y020960D01*
X005007Y020931D01*
X005131Y020807D01*
X005292Y020740D01*
X006068Y020740D01*
X006229Y020807D01*
X006353Y020931D01*
X006420Y021092D01*
X006420Y021268D01*
X006353Y021429D01*
X006229Y021553D01*
X006068Y021620D01*
X005292Y021620D01*
X005131Y021553D01*
X005007Y021429D01*
X004995Y021400D01*
X004954Y021400D01*
X004998Y021444D01*
X004998Y021916D01*
X004916Y021998D01*
X004673Y021998D01*
X004400Y022271D01*
X004400Y026312D01*
X004416Y026312D01*
X004498Y026394D01*
X004498Y026866D01*
X004416Y026948D01*
X003944Y026948D01*
X003900Y026904D01*
X003900Y028662D01*
X003916Y028662D01*
X003998Y028744D01*
X003998Y029216D01*
X003916Y029298D01*
X003444Y029298D01*
X003362Y029216D01*
X003362Y028744D01*
X003444Y028662D01*
X003460Y028662D01*
X003460Y026204D01*
X003416Y026248D01*
X002944Y026248D01*
X002862Y026166D01*
X002862Y025694D01*
X002944Y025612D01*
X002960Y025612D01*
X002960Y024558D01*
X002943Y024574D01*
X002772Y024645D01*
X002588Y024645D01*
X002417Y024574D01*
X002286Y024443D01*
X002215Y024272D01*
X000360Y024272D01*
X000360Y024114D02*
X002215Y024114D01*
X002215Y024088D02*
X002286Y023917D01*
X002417Y023786D01*
X002588Y023715D01*
X002772Y023715D01*
X002943Y023786D01*
X002960Y023802D01*
X002960Y022558D01*
X002943Y022574D01*
X002772Y022645D01*
X002588Y022645D01*
X002417Y022574D01*
X002286Y022443D01*
X002215Y022272D01*
X002215Y022088D01*
X002286Y021917D01*
X002417Y021786D01*
X002588Y021715D01*
X002772Y021715D01*
X002943Y021786D01*
X002960Y021802D01*
X002960Y020339D01*
X004210Y019089D01*
X004339Y018960D01*
X004995Y018960D01*
X005007Y018931D01*
X005131Y018807D01*
X005292Y018740D01*
X006068Y018740D01*
X006229Y018807D01*
X006353Y018931D01*
X006399Y019042D02*
X007446Y019042D01*
X007498Y018990D02*
X007240Y019248D01*
X007240Y019430D01*
X007680Y019430D01*
X007680Y019430D01*
X007680Y018990D01*
X007498Y018990D01*
X007680Y019042D02*
X007680Y019042D01*
X007680Y019200D02*
X007680Y019200D01*
X007680Y019359D02*
X007680Y019359D01*
X007680Y019517D02*
X007680Y019517D01*
X007680Y019676D02*
X007680Y019676D01*
X007680Y019834D02*
X007680Y019834D01*
X007898Y019834D02*
X012314Y019834D01*
X012327Y019993D02*
X006379Y019993D01*
X006353Y019931D02*
X006420Y020092D01*
X006420Y020268D01*
X006353Y020429D01*
X006229Y020553D01*
X006068Y020620D01*
X005292Y020620D01*
X005131Y020553D01*
X005007Y020429D01*
X004940Y020268D01*
X004940Y020092D01*
X005007Y019931D01*
X005131Y019807D01*
X005292Y019740D01*
X006068Y019740D01*
X006229Y019807D01*
X006353Y019931D01*
X006256Y019834D02*
X007462Y019834D01*
X007303Y019676D02*
X004246Y019676D01*
X004087Y019834D02*
X005104Y019834D01*
X004981Y019993D02*
X003929Y019993D01*
X003770Y020151D02*
X004940Y020151D01*
X004957Y020310D02*
X003612Y020310D01*
X003453Y020468D02*
X005046Y020468D01*
X005184Y020785D02*
X003400Y020785D01*
X003400Y020627D02*
X012375Y020627D01*
X012395Y020785D02*
X006176Y020785D01*
X006358Y020944D02*
X012561Y020944D01*
X012719Y021102D02*
X006420Y021102D01*
X006420Y021261D02*
X012878Y021261D01*
X013036Y021419D02*
X006357Y021419D01*
X006170Y021578D02*
X013195Y021578D01*
X013353Y021736D02*
X004998Y021736D01*
X005131Y021807D02*
X005007Y021931D01*
X004940Y022092D01*
X004940Y022268D01*
X005007Y022429D01*
X005131Y022553D01*
X005292Y022620D01*
X006068Y022620D01*
X006229Y022553D01*
X006353Y022429D01*
X006420Y022268D01*
X006420Y022092D01*
X006353Y021931D01*
X006229Y021807D01*
X006068Y021740D01*
X005292Y021740D01*
X005131Y021807D01*
X005043Y021895D02*
X004998Y021895D01*
X004956Y022053D02*
X004618Y022053D01*
X004460Y022212D02*
X004940Y022212D01*
X004982Y022370D02*
X004400Y022370D01*
X004400Y022529D02*
X005106Y022529D01*
X005131Y022807D02*
X005007Y022931D01*
X004940Y023092D01*
X004940Y023268D01*
X005007Y023429D01*
X005131Y023553D01*
X005292Y023620D01*
X006068Y023620D01*
X006229Y023553D01*
X006353Y023429D01*
X006420Y023268D01*
X006420Y023092D01*
X006353Y022931D01*
X006229Y022807D01*
X006068Y022740D01*
X005292Y022740D01*
X005131Y022807D01*
X005092Y022846D02*
X004400Y022846D01*
X004400Y023004D02*
X004977Y023004D01*
X004940Y023163D02*
X004400Y023163D01*
X004400Y023321D02*
X004962Y023321D01*
X005057Y023480D02*
X004400Y023480D01*
X004400Y023638D02*
X019210Y023638D01*
X019210Y023480D02*
X006303Y023480D01*
X006398Y023321D02*
X019210Y023321D01*
X019210Y023163D02*
X006420Y023163D01*
X006383Y023004D02*
X019210Y023004D01*
X019210Y022846D02*
X006268Y022846D01*
X006254Y022529D02*
X016213Y022529D01*
X016647Y022529D02*
X017156Y022529D01*
X017248Y022620D02*
X016990Y022362D01*
X016990Y022180D01*
X017430Y022180D01*
X017870Y022180D01*
X017870Y022362D01*
X017612Y022620D01*
X017430Y022620D01*
X017430Y022180D01*
X017430Y022180D01*
X017430Y022180D01*
X017870Y022180D01*
X017870Y021998D01*
X017612Y021740D01*
X017430Y021740D01*
X017430Y022180D01*
X017430Y022180D01*
X017430Y022180D01*
X017430Y022620D01*
X017248Y022620D01*
X017430Y022529D02*
X017430Y022529D01*
X017430Y022370D02*
X017430Y022370D01*
X017430Y022212D02*
X017430Y022212D01*
X017430Y022180D02*
X016990Y022180D01*
X016990Y021998D01*
X017248Y021740D01*
X017430Y021740D01*
X017430Y022180D01*
X017430Y022053D02*
X017430Y022053D01*
X017430Y021895D02*
X017430Y021895D01*
X017767Y021895D02*
X020043Y021895D01*
X020007Y021931D02*
X020131Y021807D01*
X020292Y021740D01*
X021068Y021740D01*
X021229Y021807D01*
X021353Y021931D01*
X021420Y022092D01*
X021420Y022268D01*
X021353Y022429D01*
X021229Y022553D01*
X021068Y022620D01*
X020292Y022620D01*
X020131Y022553D01*
X020124Y022547D01*
X019650Y023021D01*
X019650Y024089D01*
X020021Y024460D01*
X020038Y024460D01*
X020007Y024429D01*
X019940Y024268D01*
X019940Y024092D01*
X020007Y023931D01*
X020131Y023807D01*
X020292Y023740D01*
X021068Y023740D01*
X021229Y023807D01*
X021353Y023931D01*
X021420Y024092D01*
X021420Y024268D01*
X021353Y024429D01*
X021322Y024460D01*
X021394Y024460D01*
X021447Y024442D01*
X021482Y024460D01*
X021521Y024460D01*
X021560Y024499D01*
X021610Y024524D01*
X021622Y024561D01*
X021650Y024589D01*
X021710Y024589D01*
X021650Y024589D02*
X021650Y024644D01*
X021710Y024824D01*
X021710Y024521D01*
X021460Y024271D01*
X021460Y021771D01*
X021236Y021547D01*
X021229Y021553D01*
X021068Y021620D01*
X020292Y021620D01*
X020131Y021553D01*
X020007Y021429D01*
X019940Y021268D01*
X019940Y021092D01*
X020007Y020931D01*
X020131Y020807D01*
X020292Y020740D01*
X021068Y020740D01*
X021229Y020807D01*
X021353Y020931D01*
X021420Y021092D01*
X021420Y021109D01*
X021771Y021460D01*
X021900Y021589D01*
X021900Y024089D01*
X022021Y024210D01*
X022150Y024339D01*
X022150Y030839D01*
X024521Y033210D01*
X028021Y033210D01*
X029521Y034710D01*
X029650Y034839D01*
X029650Y035495D01*
X029679Y035507D01*
X029803Y035631D01*
X029870Y035792D01*
X029870Y036568D01*
X029803Y036729D01*
X029679Y036853D01*
X029518Y036920D01*
X029342Y036920D01*
X029181Y036853D01*
X029057Y036729D01*
X028990Y036568D01*
X028990Y035792D01*
X029057Y035631D01*
X029181Y035507D01*
X029210Y035495D01*
X029210Y035021D01*
X027839Y033650D01*
X024461Y033650D01*
X024521Y033710D01*
X027521Y033710D01*
X028521Y034710D01*
X028650Y034839D01*
X028650Y035495D01*
X028679Y035507D01*
X028803Y035631D01*
X028870Y035792D01*
X028870Y036568D01*
X028803Y036729D01*
X028679Y036853D01*
X028518Y036920D01*
X028342Y036920D01*
X028181Y036853D01*
X028057Y036729D01*
X027990Y036568D01*
X027990Y035792D01*
X028057Y035631D01*
X028181Y035507D01*
X028210Y035495D01*
X028210Y035021D01*
X027339Y034150D01*
X024339Y034150D01*
X024210Y034021D01*
X021460Y031271D01*
X021460Y025466D01*
X021406Y025302D01*
X021353Y025429D01*
X021229Y025553D01*
X021068Y025620D01*
X020292Y025620D01*
X020131Y025553D01*
X020007Y025429D01*
X019943Y025275D01*
X019896Y025275D01*
X019400Y025771D01*
X019400Y029538D01*
X019431Y029507D01*
X019592Y029440D01*
X019768Y029440D01*
X019929Y029507D01*
X019980Y029558D01*
X019980Y029513D01*
X019480Y029013D01*
X019480Y026597D01*
X019597Y026480D01*
X019862Y026215D01*
X019862Y025944D01*
X019944Y025862D01*
X020076Y025862D01*
X020131Y025807D01*
X020292Y025740D01*
X021068Y025740D01*
X021229Y025807D01*
X021353Y025931D01*
X021420Y026092D01*
X021420Y026268D01*
X021353Y026429D01*
X021229Y026553D01*
X021068Y026620D01*
X020292Y026620D01*
X020131Y026553D01*
X020110Y026533D01*
X019880Y026763D01*
X019880Y028847D01*
X020263Y029230D01*
X020380Y029347D01*
X020380Y029558D01*
X020431Y029507D01*
X020592Y029440D01*
X020768Y029440D01*
X020929Y029507D01*
X021053Y029631D01*
X021120Y029792D01*
X021120Y030568D01*
X021053Y030729D01*
X020929Y030853D01*
X020768Y030920D01*
X020592Y030920D01*
X020431Y030853D01*
X020380Y030802D01*
X020380Y030862D01*
X020416Y030862D01*
X020498Y030944D01*
X020498Y031416D01*
X020416Y031498D01*
X020059Y031498D01*
X023521Y034960D01*
X025271Y034960D01*
X025400Y035089D01*
X025650Y035339D01*
X025650Y035495D01*
X025679Y035507D01*
X025803Y035631D01*
X025870Y035792D01*
X025870Y036568D01*
X025803Y036729D01*
X025679Y036853D01*
X025518Y036920D01*
X025342Y036920D01*
X025181Y036853D01*
X025057Y036729D01*
X024990Y036568D01*
X024990Y035792D01*
X025057Y035631D01*
X025181Y035507D01*
X025191Y035503D01*
X025089Y035400D01*
X023339Y035400D01*
X019089Y031150D01*
X018998Y031059D01*
X018998Y031416D01*
X018916Y031498D01*
X018645Y031498D01*
X016880Y033263D01*
X016880Y034858D01*
X016998Y034740D01*
X017362Y034740D01*
X017620Y034998D01*
X017620Y035362D01*
X017362Y035620D01*
X016998Y035620D01*
X016880Y035502D01*
X016880Y035763D01*
X016620Y036023D01*
X016620Y036362D01*
X016362Y036620D01*
X015998Y036620D01*
X015740Y036362D01*
X015740Y035998D01*
X015998Y035740D01*
X016337Y035740D01*
X016480Y035597D01*
X016480Y035502D01*
X016362Y035620D01*
X015998Y035620D01*
X015880Y035502D01*
X015880Y035763D01*
X015620Y036023D01*
X015620Y036362D01*
X015362Y036620D01*
X014998Y036620D01*
X014740Y036362D01*
X014740Y035998D01*
X014998Y035740D01*
X015337Y035740D01*
X015480Y035597D01*
X015480Y035502D01*
X015362Y035620D01*
X014998Y035620D01*
X014740Y035362D01*
X014740Y034998D01*
X014998Y034740D01*
X015362Y034740D01*
X015480Y034858D01*
X015480Y032347D01*
X015597Y032230D01*
X016980Y030847D01*
X016980Y030802D01*
X016929Y030853D01*
X016768Y030920D01*
X016592Y030920D01*
X016431Y030853D01*
X016307Y030729D01*
X016240Y030568D01*
X016240Y029792D01*
X016307Y029631D01*
X016431Y029507D01*
X016592Y029440D01*
X016768Y029440D01*
X016929Y029507D01*
X016980Y029558D01*
X016980Y027748D01*
X016944Y027748D01*
X016862Y027666D01*
X016862Y027194D01*
X016944Y027112D01*
X017416Y027112D01*
X017498Y027194D01*
X017498Y027666D01*
X017416Y027748D01*
X017380Y027748D01*
X017380Y029558D01*
X017431Y029507D01*
X017592Y029440D01*
X017768Y029440D01*
X017929Y029507D01*
X018053Y029631D01*
X018120Y029792D01*
X018120Y030568D01*
X018053Y030729D01*
X017929Y030853D01*
X017768Y030920D01*
X017592Y030920D01*
X017431Y030853D01*
X017380Y030802D01*
X017380Y031013D01*
X015880Y032513D01*
X015880Y034858D01*
X015998Y034740D01*
X016362Y034740D01*
X016480Y034858D01*
X016480Y033097D01*
X018362Y031215D01*
X018362Y030944D01*
X018444Y030862D01*
X018452Y030862D01*
X018431Y030853D01*
X018307Y030729D01*
X018240Y030568D01*
X018240Y029792D01*
X018307Y029631D01*
X018431Y029507D01*
X018592Y029440D01*
X018768Y029440D01*
X018929Y029507D01*
X018960Y029538D01*
X018960Y025589D01*
X019585Y024964D01*
X019714Y024835D01*
X019774Y024835D01*
X019710Y024771D01*
X019210Y024271D01*
X019210Y022839D01*
X019339Y022710D01*
X019940Y022109D01*
X019940Y022092D01*
X020007Y021931D01*
X019956Y022053D02*
X017870Y022053D01*
X017870Y022212D02*
X019837Y022212D01*
X019679Y022370D02*
X017862Y022370D01*
X017704Y022529D02*
X019520Y022529D01*
X019362Y022687D02*
X004400Y022687D01*
X004180Y022180D02*
X004680Y021680D01*
X004998Y021578D02*
X005190Y021578D01*
X005003Y021419D02*
X004973Y021419D01*
X005002Y020944D02*
X003400Y020944D01*
X003400Y021102D02*
X003947Y021102D01*
X003788Y021261D02*
X003400Y021261D01*
X003400Y021419D02*
X003630Y021419D01*
X003471Y021578D02*
X003400Y021578D01*
X003400Y021736D02*
X003460Y021736D01*
X003460Y021895D02*
X003400Y021895D01*
X003400Y022053D02*
X003460Y022053D01*
X003460Y022212D02*
X003400Y022212D01*
X003400Y022370D02*
X003460Y022370D01*
X003460Y022529D02*
X003400Y022529D01*
X003400Y022687D02*
X003460Y022687D01*
X003460Y022846D02*
X003400Y022846D01*
X003400Y023004D02*
X003460Y023004D01*
X003460Y023163D02*
X003400Y023163D01*
X003400Y023321D02*
X003460Y023321D01*
X003460Y023480D02*
X003400Y023480D01*
X003400Y023638D02*
X003460Y023638D01*
X003460Y023797D02*
X003400Y023797D01*
X003400Y023955D02*
X003460Y023955D01*
X003460Y024114D02*
X003400Y024114D01*
X003400Y024272D02*
X003460Y024272D01*
X003460Y024431D02*
X003400Y024431D01*
X003400Y024589D02*
X003460Y024589D01*
X003460Y024748D02*
X003400Y024748D01*
X003400Y024906D02*
X003460Y024906D01*
X003460Y025065D02*
X003400Y025065D01*
X003400Y025223D02*
X003460Y025223D01*
X003460Y025382D02*
X003400Y025382D01*
X003400Y025540D02*
X003460Y025540D01*
X003180Y025930D02*
X003180Y020430D01*
X004430Y019180D01*
X005680Y019180D01*
X006265Y019517D02*
X007240Y019517D01*
X007240Y019359D02*
X006382Y019359D01*
X006420Y019200D02*
X007288Y019200D01*
X007409Y018725D02*
X000360Y018725D01*
X000360Y018883D02*
X002411Y018883D01*
X002514Y018780D02*
X002846Y018780D01*
X003080Y019014D01*
X003080Y019346D01*
X002846Y019580D01*
X002514Y019580D01*
X002280Y019346D01*
X002280Y019014D01*
X002514Y018780D01*
X002498Y018620D02*
X002240Y018362D01*
X002240Y018180D01*
X002680Y018180D01*
X002680Y018180D01*
X002680Y018620D01*
X002862Y018620D01*
X003120Y018362D01*
X003120Y018180D01*
X002680Y018180D01*
X002680Y018180D01*
X002680Y018180D01*
X002680Y018620D01*
X002498Y018620D01*
X002444Y018566D02*
X000360Y018566D01*
X000360Y018408D02*
X002285Y018408D01*
X002240Y018249D02*
X000360Y018249D01*
X000360Y018091D02*
X002240Y018091D01*
X002240Y018180D02*
X002240Y017998D01*
X002498Y017740D01*
X002680Y017740D01*
X002862Y017740D01*
X003120Y017998D01*
X003120Y018180D01*
X002680Y018180D01*
X002680Y017740D01*
X002680Y018180D01*
X002680Y018180D01*
X002240Y018180D01*
X002306Y017932D02*
X000360Y017932D01*
X000360Y017774D02*
X002464Y017774D01*
X002680Y017774D02*
X002680Y017774D01*
X002680Y017932D02*
X002680Y017932D01*
X002680Y018091D02*
X002680Y018091D01*
X002680Y018249D02*
X002680Y018249D01*
X002680Y018408D02*
X002680Y018408D01*
X002680Y018566D02*
X002680Y018566D01*
X002916Y018566D02*
X005162Y018566D01*
X005131Y018553D02*
X005007Y018429D01*
X004995Y018400D01*
X003989Y018400D01*
X003860Y018271D01*
X003089Y017500D01*
X001798Y017500D01*
X001798Y017516D01*
X001716Y017598D01*
X001244Y017598D01*
X001162Y017516D01*
X001162Y017044D01*
X001244Y016962D01*
X001716Y016962D01*
X001798Y017044D01*
X001798Y017060D01*
X003271Y017060D01*
X004171Y017960D01*
X004995Y017960D01*
X005007Y017931D01*
X005131Y017807D01*
X005292Y017740D01*
X006068Y017740D01*
X006229Y017807D01*
X006353Y017931D01*
X006420Y018092D01*
X006420Y018268D01*
X006353Y018429D01*
X006229Y018553D01*
X006068Y018620D01*
X005292Y018620D01*
X005131Y018553D01*
X004998Y018408D02*
X003075Y018408D01*
X003120Y018249D02*
X003838Y018249D01*
X003679Y018091D02*
X003120Y018091D01*
X003054Y017932D02*
X003521Y017932D01*
X003362Y017774D02*
X002896Y017774D01*
X003204Y017615D02*
X000360Y017615D01*
X000360Y017457D02*
X001162Y017457D01*
X001162Y017298D02*
X000360Y017298D01*
X000360Y017140D02*
X001162Y017140D01*
X001225Y016981D02*
X000360Y016981D01*
X000360Y016823D02*
X005059Y016823D01*
X005067Y016814D02*
X005128Y016769D01*
X005196Y016735D01*
X005268Y016712D01*
X005342Y016700D01*
X005660Y016700D01*
X005660Y017160D01*
X004900Y017160D01*
X004900Y017142D01*
X004912Y017068D01*
X004935Y016996D01*
X004969Y016928D01*
X005014Y016867D01*
X005067Y016814D01*
X004943Y016981D02*
X001735Y016981D01*
X001480Y017280D02*
X003180Y017280D01*
X004080Y018180D01*
X005680Y018180D01*
X006148Y017774D02*
X020212Y017774D01*
X020280Y017615D02*
X006184Y017615D01*
X006164Y017625D02*
X006092Y017648D01*
X006018Y017660D01*
X005700Y017660D01*
X005700Y017200D01*
X006460Y017200D01*
X006460Y017218D01*
X006448Y017292D01*
X006425Y017364D01*
X006391Y017432D01*
X006346Y017493D01*
X006293Y017546D01*
X006232Y017591D01*
X006164Y017625D01*
X006372Y017457D02*
X020034Y017457D01*
X019953Y017298D02*
X006446Y017298D01*
X006460Y017140D02*
X019940Y017140D01*
X020083Y016506D02*
X015370Y016506D01*
X014641Y016347D02*
X014163Y016347D01*
X014321Y016506D02*
X014490Y016506D01*
X014490Y016664D02*
X014330Y016664D01*
X014330Y016823D02*
X014490Y016823D01*
X014609Y016981D02*
X014195Y016981D01*
X013665Y016981D02*
X006417Y016981D01*
X006387Y016347D02*
X009531Y016347D01*
X009530Y016189D02*
X006420Y016189D01*
X006394Y016030D02*
X009530Y016030D01*
X009673Y015872D02*
X006294Y015872D01*
X006226Y015555D02*
X009682Y015555D01*
X009748Y015620D02*
X009490Y015362D01*
X009490Y015180D01*
X009930Y015180D01*
X009930Y015180D01*
X009930Y015620D01*
X010112Y015620D01*
X010370Y015362D01*
X010370Y015180D01*
X009930Y015180D01*
X009930Y015180D01*
X009930Y015180D01*
X009930Y015620D01*
X009748Y015620D01*
X009930Y015555D02*
X009930Y015555D01*
X009930Y015396D02*
X009930Y015396D01*
X009930Y015238D02*
X009930Y015238D01*
X009930Y015180D02*
X009490Y015180D01*
X009490Y014998D01*
X009748Y014740D01*
X009930Y014740D01*
X010112Y014740D01*
X010370Y014998D01*
X010370Y015180D01*
X009930Y015180D01*
X009930Y014740D01*
X009930Y015180D01*
X009930Y015180D01*
X009930Y015079D02*
X009930Y015079D01*
X009930Y014921D02*
X009930Y014921D01*
X009930Y014762D02*
X009930Y014762D01*
X010134Y014762D02*
X020239Y014762D01*
X020292Y014620D02*
X020131Y014553D01*
X020007Y014429D01*
X019940Y014268D01*
X019940Y014092D01*
X020007Y013931D01*
X020131Y013807D01*
X020292Y013740D01*
X021068Y013740D01*
X021229Y013807D01*
X021353Y013931D01*
X021420Y014092D01*
X021420Y014268D01*
X021353Y014429D01*
X021229Y014553D01*
X021068Y014620D01*
X020292Y014620D01*
X020253Y014604D02*
X006107Y014604D01*
X006068Y014620D02*
X006229Y014553D01*
X006353Y014429D01*
X006420Y014268D01*
X006420Y014092D01*
X006353Y013931D01*
X006229Y013807D01*
X006068Y013740D01*
X005292Y013740D01*
X005131Y013807D01*
X005007Y013931D01*
X004940Y014092D01*
X004940Y014268D01*
X005007Y014429D01*
X005131Y014553D01*
X005292Y014620D01*
X006068Y014620D01*
X006068Y014740D02*
X006229Y014807D01*
X006353Y014931D01*
X006420Y015092D01*
X006420Y015268D01*
X006353Y015429D01*
X006229Y015553D01*
X006068Y015620D01*
X005292Y015620D01*
X005131Y015553D01*
X005007Y015429D01*
X004940Y015268D01*
X004940Y015092D01*
X005007Y014931D01*
X005131Y014807D01*
X005292Y014740D01*
X006068Y014740D01*
X006121Y014762D02*
X009726Y014762D01*
X009567Y014921D02*
X006343Y014921D01*
X006414Y015079D02*
X009490Y015079D01*
X009490Y015238D02*
X006420Y015238D01*
X006367Y015396D02*
X009524Y015396D01*
X010178Y015555D02*
X020134Y015555D01*
X019993Y015396D02*
X010336Y015396D01*
X010370Y015238D02*
X019940Y015238D01*
X019946Y015079D02*
X010370Y015079D01*
X010293Y014921D02*
X020017Y014921D01*
X020023Y014445D02*
X006337Y014445D01*
X006412Y014287D02*
X019948Y014287D01*
X019940Y014128D02*
X006420Y014128D01*
X006369Y013970D02*
X019991Y013970D01*
X020127Y013811D02*
X006233Y013811D01*
X006068Y013620D02*
X006229Y013553D01*
X006353Y013429D01*
X006420Y013268D01*
X006420Y013092D01*
X006353Y012931D01*
X006229Y012807D01*
X006068Y012740D01*
X005292Y012740D01*
X005131Y012807D01*
X005007Y012931D01*
X004940Y013092D01*
X004940Y013268D01*
X005007Y013429D01*
X005131Y013553D01*
X005292Y013620D01*
X006068Y013620D01*
X006288Y013494D02*
X020072Y013494D01*
X020131Y013553D02*
X020007Y013429D01*
X019940Y013268D01*
X019940Y013092D01*
X020007Y012931D01*
X020038Y012900D01*
X013089Y012900D01*
X012589Y012400D01*
X012460Y012271D01*
X012460Y011865D01*
X012431Y011853D01*
X012307Y011729D01*
X012240Y011568D01*
X012240Y010792D01*
X012307Y010631D01*
X012431Y010507D01*
X012592Y010440D01*
X012768Y010440D01*
X012929Y010507D01*
X013053Y010631D01*
X013120Y010792D01*
X013120Y011568D01*
X013053Y011729D01*
X012929Y011853D01*
X012900Y011865D01*
X012900Y012089D01*
X013271Y012460D01*
X023612Y012460D01*
X023612Y012444D01*
X023694Y012362D01*
X024166Y012362D01*
X024210Y012406D01*
X024210Y012204D01*
X024166Y012248D01*
X023694Y012248D01*
X023612Y012166D01*
X023612Y012150D01*
X022771Y012150D01*
X022650Y012271D01*
X022521Y012400D01*
X013839Y012400D01*
X013589Y012150D01*
X013460Y012021D01*
X013460Y011865D01*
X013431Y011853D01*
X013307Y011729D01*
X013240Y011568D01*
X013240Y010792D01*
X013307Y010631D01*
X013431Y010507D01*
X013592Y010440D01*
X013768Y010440D01*
X013929Y010507D01*
X014053Y010631D01*
X014120Y010792D01*
X014120Y011568D01*
X014053Y011729D01*
X013929Y011853D01*
X013919Y011857D01*
X014021Y011960D01*
X022339Y011960D01*
X022589Y011710D01*
X023612Y011710D01*
X023612Y011694D01*
X023694Y011612D01*
X024166Y011612D01*
X024210Y011656D01*
X024210Y009748D01*
X024194Y009748D01*
X024112Y009666D01*
X024112Y009194D01*
X024194Y009112D01*
X024666Y009112D01*
X024748Y009194D01*
X024748Y009666D01*
X024666Y009748D01*
X024650Y009748D01*
X024650Y013362D01*
X024666Y013362D01*
X024748Y013444D01*
X024748Y013916D01*
X024666Y013998D01*
X024194Y013998D01*
X024112Y013916D01*
X024112Y013444D01*
X024194Y013362D01*
X024210Y013362D01*
X024210Y012954D01*
X024166Y012998D01*
X023694Y012998D01*
X023612Y012916D01*
X023612Y012900D01*
X021322Y012900D01*
X021353Y012931D01*
X021420Y013092D01*
X021420Y013268D01*
X021353Y013429D01*
X021229Y013553D01*
X021068Y013620D01*
X020292Y013620D01*
X020131Y013553D01*
X019968Y013336D02*
X006392Y013336D01*
X006420Y013177D02*
X019940Y013177D01*
X019971Y013019D02*
X006389Y013019D01*
X006282Y012860D02*
X013049Y012860D01*
X013180Y012680D02*
X012680Y012180D01*
X012680Y011180D01*
X013120Y011117D02*
X013240Y011117D01*
X013240Y011275D02*
X013120Y011275D01*
X013120Y011434D02*
X013240Y011434D01*
X013250Y011592D02*
X013110Y011592D01*
X013032Y011751D02*
X013328Y011751D01*
X013460Y011909D02*
X012900Y011909D01*
X012900Y012068D02*
X013506Y012068D01*
X013680Y011930D02*
X013680Y011180D01*
X014120Y011117D02*
X014240Y011117D01*
X014240Y011275D02*
X014120Y011275D01*
X014120Y011434D02*
X014240Y011434D01*
X014240Y011568D02*
X014307Y011729D01*
X014431Y011853D01*
X014592Y011920D01*
X014768Y011920D01*
X014929Y011853D01*
X015053Y011729D01*
X015120Y011568D01*
X015120Y010792D01*
X015053Y010631D01*
X014929Y010507D01*
X014768Y010440D01*
X014592Y010440D01*
X014431Y010507D01*
X014307Y010631D01*
X014240Y010792D01*
X014240Y011568D01*
X014250Y011592D02*
X014110Y011592D01*
X014032Y011751D02*
X014328Y011751D01*
X014566Y011909D02*
X013970Y011909D01*
X013930Y012180D02*
X013680Y011930D01*
X013665Y012226D02*
X013037Y012226D01*
X013196Y012385D02*
X013823Y012385D01*
X013930Y012180D02*
X022430Y012180D01*
X022680Y011930D01*
X023930Y011930D01*
X023672Y012226D02*
X022695Y012226D01*
X022537Y012385D02*
X023671Y012385D01*
X023930Y012680D02*
X013180Y012680D01*
X012890Y012702D02*
X003894Y012702D01*
X003880Y012682D02*
X003930Y012752D01*
X003970Y012829D01*
X003996Y012911D01*
X004010Y012997D01*
X004010Y013020D01*
X003480Y013020D01*
X003480Y013060D01*
X004010Y013060D01*
X004010Y013083D01*
X003996Y013169D01*
X003970Y013251D01*
X003930Y013328D01*
X003880Y013398D01*
X003818Y013460D01*
X003748Y013510D01*
X003671Y013550D01*
X003589Y013576D01*
X003503Y013590D01*
X003480Y013590D01*
X003480Y013060D01*
X003440Y013060D01*
X003440Y013590D01*
X003417Y013590D01*
X003331Y013576D01*
X003249Y013550D01*
X003172Y013510D01*
X003102Y013460D01*
X003040Y013398D01*
X002990Y013328D01*
X002950Y013251D01*
X002924Y013169D01*
X002910Y013083D01*
X002910Y013060D01*
X003440Y013060D01*
X003440Y013020D01*
X003480Y013020D01*
X003480Y012490D01*
X003503Y012490D01*
X003589Y012504D01*
X003671Y012530D01*
X003748Y012570D01*
X003818Y012620D01*
X003880Y012682D01*
X003980Y012860D02*
X005078Y012860D01*
X004971Y013019D02*
X004010Y013019D01*
X003994Y013177D02*
X004940Y013177D01*
X004968Y013336D02*
X003925Y013336D01*
X003771Y013494D02*
X005072Y013494D01*
X005127Y013811D02*
X000360Y013811D01*
X000360Y013653D02*
X024112Y013653D01*
X024112Y013811D02*
X021233Y013811D01*
X021369Y013970D02*
X024165Y013970D01*
X024430Y013680D02*
X024430Y009430D01*
X024748Y009373D02*
X038992Y009373D01*
X038992Y009215D02*
X024748Y009215D01*
X024748Y009532D02*
X038992Y009532D01*
X038992Y009690D02*
X029956Y009690D01*
X029952Y009686D02*
X030116Y009850D01*
X030205Y010064D01*
X030205Y010296D01*
X030116Y010510D01*
X029952Y010674D01*
X029738Y010762D01*
X028622Y010762D01*
X028408Y010674D01*
X028244Y010510D01*
X028155Y010296D01*
X028155Y010064D01*
X028244Y009850D01*
X028408Y009686D01*
X028622Y009598D01*
X029738Y009598D01*
X029952Y009686D01*
X030115Y009849D02*
X038992Y009849D01*
X038992Y010007D02*
X030181Y010007D01*
X030205Y010166D02*
X038992Y010166D01*
X038992Y010324D02*
X030193Y010324D01*
X030128Y010483D02*
X038992Y010483D01*
X038992Y010641D02*
X029985Y010641D01*
X030336Y010958D02*
X024650Y010958D01*
X024650Y010800D02*
X030495Y010800D01*
X030514Y010780D02*
X030846Y010780D01*
X031080Y011014D01*
X031080Y011346D01*
X030846Y011580D01*
X030591Y011580D01*
X029900Y012271D01*
X029771Y012400D01*
X025998Y012400D01*
X025998Y012416D01*
X025954Y012460D01*
X030334Y012460D01*
X030514Y012280D01*
X030846Y012280D01*
X031080Y012514D01*
X031080Y012846D01*
X030846Y013080D01*
X030514Y013080D01*
X030334Y012900D01*
X025498Y012900D01*
X025498Y012916D01*
X025416Y012998D01*
X024944Y012998D01*
X024862Y012916D01*
X024862Y012444D01*
X024944Y012362D01*
X025362Y012362D01*
X025362Y011944D01*
X025444Y011862D01*
X025916Y011862D01*
X025998Y011944D01*
X025998Y011960D01*
X029589Y011960D01*
X030280Y011269D01*
X030280Y011014D01*
X030514Y010780D01*
X030865Y010800D02*
X034495Y010800D01*
X034514Y010780D02*
X034846Y010780D01*
X035080Y011014D01*
X035080Y011346D01*
X034846Y011580D01*
X034514Y011580D01*
X034280Y011346D01*
X034280Y011014D01*
X034514Y010780D01*
X034336Y010958D02*
X031024Y010958D01*
X031080Y011117D02*
X034280Y011117D01*
X034280Y011275D02*
X031080Y011275D01*
X030992Y011434D02*
X034368Y011434D01*
X034992Y011434D02*
X038992Y011434D01*
X038992Y011592D02*
X030579Y011592D01*
X030421Y011751D02*
X038992Y011751D01*
X038992Y011909D02*
X030262Y011909D01*
X030104Y012068D02*
X038992Y012068D01*
X038992Y012226D02*
X029945Y012226D01*
X029787Y012385D02*
X030410Y012385D01*
X030680Y012680D02*
X025180Y012680D01*
X024862Y012702D02*
X024650Y012702D01*
X024650Y012860D02*
X024862Y012860D01*
X024650Y013019D02*
X030453Y013019D01*
X030907Y013019D02*
X034453Y013019D01*
X034514Y013080D02*
X034280Y012846D01*
X034280Y012514D01*
X034514Y012280D01*
X034846Y012280D01*
X035080Y012514D01*
X035080Y012846D01*
X034846Y013080D01*
X034514Y013080D01*
X034294Y012860D02*
X031066Y012860D01*
X031080Y012702D02*
X034280Y012702D01*
X034280Y012543D02*
X031080Y012543D01*
X030950Y012385D02*
X034410Y012385D01*
X034950Y012385D02*
X038992Y012385D01*
X038992Y012543D02*
X035080Y012543D01*
X035080Y012702D02*
X038992Y012702D01*
X038992Y012860D02*
X035066Y012860D01*
X034907Y013019D02*
X038992Y013019D01*
X038992Y013177D02*
X024650Y013177D01*
X024650Y013336D02*
X038992Y013336D01*
X038992Y013494D02*
X024748Y013494D01*
X024748Y013653D02*
X038992Y013653D01*
X038992Y013811D02*
X024748Y013811D01*
X024695Y013970D02*
X038992Y013970D01*
X038992Y014128D02*
X023432Y014128D01*
X023180Y014430D02*
X024480Y014380D01*
X024698Y014287D02*
X038992Y014287D01*
X038992Y014445D02*
X024856Y014445D01*
X025015Y014604D02*
X038992Y014604D01*
X038992Y014762D02*
X025173Y014762D01*
X025300Y014921D02*
X038992Y014921D01*
X038992Y015079D02*
X025300Y015079D01*
X025300Y015238D02*
X038992Y015238D01*
X038992Y015396D02*
X025300Y015396D01*
X025300Y016664D02*
X028398Y016664D01*
X028369Y018725D02*
X023991Y018725D01*
X024130Y018883D02*
X028230Y018883D01*
X028164Y019042D02*
X024196Y019042D01*
X024205Y019200D02*
X028155Y019200D01*
X028181Y019359D02*
X024179Y019359D01*
X024109Y019517D02*
X028251Y019517D01*
X028412Y019676D02*
X023948Y019676D01*
X023416Y021362D02*
X022944Y021362D01*
X022862Y021444D01*
X022862Y021916D01*
X022944Y021998D01*
X023416Y021998D01*
X023498Y021916D01*
X023498Y021900D01*
X023989Y021900D01*
X024660Y022571D01*
X024660Y024389D01*
X024089Y024960D01*
X023498Y024960D01*
X023498Y024944D01*
X023416Y024862D01*
X022944Y024862D01*
X022862Y024944D01*
X022862Y025416D01*
X022944Y025498D01*
X023416Y025498D01*
X023498Y025416D01*
X023498Y025400D01*
X024271Y025400D01*
X024400Y025271D01*
X024400Y025271D01*
X024971Y024700D01*
X024971Y024700D01*
X025100Y024571D01*
X025100Y022389D01*
X024971Y022260D01*
X024171Y021460D01*
X023498Y021460D01*
X023498Y021444D01*
X023416Y021362D01*
X023473Y021419D02*
X030375Y021419D01*
X030280Y021514D02*
X030514Y021280D01*
X030846Y021280D01*
X031080Y021514D01*
X031080Y021846D01*
X030846Y022080D01*
X030514Y022080D01*
X030280Y021846D01*
X030280Y021514D01*
X030280Y021578D02*
X024289Y021578D01*
X024447Y021736D02*
X030280Y021736D01*
X030329Y021895D02*
X024606Y021895D01*
X024764Y022053D02*
X030487Y022053D01*
X030873Y022053D02*
X034487Y022053D01*
X034514Y022080D02*
X034280Y021846D01*
X034280Y021514D01*
X034514Y021280D01*
X034846Y021280D01*
X035080Y021514D01*
X035080Y021846D01*
X034846Y022080D01*
X034514Y022080D01*
X034329Y021895D02*
X031031Y021895D01*
X031080Y021736D02*
X034280Y021736D01*
X034280Y021578D02*
X031080Y021578D01*
X030985Y021419D02*
X034375Y021419D01*
X034985Y021419D02*
X036019Y021419D01*
X036007Y021431D02*
X036131Y021307D01*
X036292Y021240D01*
X037068Y021240D01*
X037229Y021307D01*
X037353Y021431D01*
X037420Y021592D01*
X037420Y021768D01*
X037353Y021929D01*
X037229Y022053D01*
X038992Y022053D01*
X038992Y021895D02*
X037367Y021895D01*
X037420Y021736D02*
X038992Y021736D01*
X038992Y021578D02*
X037414Y021578D01*
X037341Y021419D02*
X038992Y021419D01*
X038992Y021261D02*
X037117Y021261D01*
X037111Y021102D02*
X038992Y021102D01*
X038992Y020944D02*
X037339Y020944D01*
X037413Y020785D02*
X038992Y020785D01*
X038992Y020627D02*
X037420Y020627D01*
X037368Y020468D02*
X038992Y020468D01*
X038992Y020310D02*
X037232Y020310D01*
X036249Y021102D02*
X021420Y021102D01*
X021358Y020944D02*
X036021Y020944D01*
X036243Y021261D02*
X021572Y021261D01*
X021730Y021419D02*
X022887Y021419D01*
X022862Y021578D02*
X021889Y021578D01*
X021900Y021736D02*
X022862Y021736D01*
X022862Y021895D02*
X021900Y021895D01*
X021900Y022053D02*
X024142Y022053D01*
X024300Y022212D02*
X021900Y022212D01*
X021900Y022370D02*
X024459Y022370D01*
X024617Y022529D02*
X021900Y022529D01*
X021900Y022687D02*
X024660Y022687D01*
X024660Y022846D02*
X021900Y022846D01*
X021900Y023004D02*
X024660Y023004D01*
X024660Y023163D02*
X023895Y023163D01*
X023952Y023186D02*
X024116Y023350D01*
X024205Y023564D01*
X024205Y023796D01*
X024116Y024010D01*
X023952Y024174D01*
X023738Y024262D01*
X022622Y024262D01*
X022408Y024174D01*
X022244Y024010D01*
X022155Y023796D01*
X022155Y023564D01*
X022244Y023350D01*
X022408Y023186D01*
X022622Y023098D01*
X023738Y023098D01*
X023952Y023186D01*
X024087Y023321D02*
X024660Y023321D01*
X024660Y023480D02*
X024170Y023480D01*
X024205Y023638D02*
X024660Y023638D01*
X024660Y023797D02*
X024205Y023797D01*
X024139Y023955D02*
X024660Y023955D01*
X024660Y024114D02*
X024013Y024114D01*
X024460Y024589D02*
X022150Y024589D01*
X022150Y024431D02*
X024618Y024431D01*
X024660Y024272D02*
X022083Y024272D01*
X021930Y024430D02*
X021930Y030930D01*
X024430Y033430D01*
X027930Y033430D01*
X029430Y034930D01*
X029430Y036180D01*
X029870Y036160D02*
X038992Y036160D01*
X038992Y036318D02*
X029870Y036318D01*
X029870Y036477D02*
X038992Y036477D01*
X038992Y036635D02*
X029842Y036635D01*
X029739Y036794D02*
X038992Y036794D01*
X038992Y036952D02*
X000360Y036952D01*
X000360Y036794D02*
X022121Y036794D01*
X022181Y036853D02*
X022057Y036729D01*
X021990Y036568D01*
X021990Y035792D01*
X022057Y035631D01*
X022181Y035507D01*
X022342Y035440D01*
X022518Y035440D01*
X022679Y035507D01*
X022803Y035631D01*
X022870Y035792D01*
X022870Y036568D01*
X022803Y036729D01*
X022679Y036853D01*
X022518Y036920D01*
X022342Y036920D01*
X022181Y036853D01*
X022018Y036635D02*
X018404Y036635D01*
X018379Y036660D02*
X018200Y036660D01*
X018200Y036200D01*
X018660Y036200D01*
X018660Y036379D01*
X018379Y036660D01*
X018200Y036635D02*
X018160Y036635D01*
X018160Y036660D02*
X017981Y036660D01*
X017700Y036379D01*
X017700Y036200D01*
X018160Y036200D01*
X018160Y036660D01*
X018160Y036477D02*
X018200Y036477D01*
X018200Y036318D02*
X018160Y036318D01*
X018160Y036200D02*
X018200Y036200D01*
X018200Y036160D01*
X018660Y036160D01*
X018660Y035981D01*
X018379Y035700D01*
X018200Y035700D01*
X018200Y036160D01*
X018160Y036160D01*
X018160Y035700D01*
X017981Y035700D01*
X017700Y035981D01*
X017700Y036160D01*
X018160Y036160D01*
X018160Y036200D01*
X018160Y036160D02*
X018200Y036160D01*
X018200Y036001D02*
X018160Y036001D01*
X018160Y035843D02*
X018200Y035843D01*
X018362Y035620D02*
X017998Y035620D01*
X017740Y035362D01*
X017740Y034998D01*
X017998Y034740D01*
X018362Y034740D01*
X018620Y034998D01*
X018620Y035362D01*
X018362Y035620D01*
X018457Y035526D02*
X018903Y035526D01*
X018998Y035620D02*
X018740Y035362D01*
X018740Y034998D01*
X018998Y034740D01*
X019362Y034740D01*
X019620Y034998D01*
X019620Y035362D01*
X019362Y035620D01*
X018998Y035620D01*
X018998Y035740D02*
X019362Y035740D01*
X019620Y035998D01*
X019620Y036362D01*
X019362Y036620D01*
X018998Y036620D01*
X018740Y036362D01*
X018740Y035998D01*
X018998Y035740D01*
X018895Y035843D02*
X018521Y035843D01*
X018660Y036001D02*
X018740Y036001D01*
X018740Y036160D02*
X018660Y036160D01*
X018660Y036318D02*
X018740Y036318D01*
X018854Y036477D02*
X018562Y036477D01*
X017956Y036635D02*
X000360Y036635D01*
X000360Y036477D02*
X009854Y036477D01*
X009740Y036362D02*
X009740Y035998D01*
X009998Y035740D01*
X010362Y035740D01*
X010620Y035998D01*
X010620Y036362D01*
X010362Y036620D01*
X009998Y036620D01*
X009740Y036362D01*
X009740Y036318D02*
X000360Y036318D01*
X000360Y036160D02*
X009740Y036160D01*
X009740Y036001D02*
X000360Y036001D01*
X000360Y035843D02*
X005226Y035843D01*
X005292Y035870D02*
X005131Y035803D01*
X005007Y035679D01*
X004940Y035518D01*
X004940Y035342D01*
X005007Y035181D01*
X005131Y035057D01*
X005292Y034990D01*
X006068Y034990D01*
X006229Y035057D01*
X006353Y035181D01*
X006420Y035342D01*
X006420Y035518D01*
X006353Y035679D01*
X006229Y035803D01*
X006068Y035870D01*
X005292Y035870D01*
X005012Y035684D02*
X000360Y035684D01*
X000360Y035526D02*
X004943Y035526D01*
X004940Y035367D02*
X000360Y035367D01*
X000360Y035209D02*
X004995Y035209D01*
X005147Y035050D02*
X000360Y035050D01*
X000360Y034892D02*
X009790Y034892D01*
X009700Y034981D02*
X009981Y034700D01*
X010160Y034700D01*
X010160Y035160D01*
X010200Y035160D01*
X010200Y035200D01*
X010660Y035200D01*
X010660Y035379D01*
X010379Y035660D01*
X010200Y035660D01*
X010200Y035200D01*
X010160Y035200D01*
X010160Y035660D01*
X009981Y035660D01*
X009700Y035379D01*
X009700Y035200D01*
X010160Y035200D01*
X010160Y035160D01*
X009700Y035160D01*
X009700Y034981D01*
X009700Y035050D02*
X006213Y035050D01*
X006365Y035209D02*
X009700Y035209D01*
X009700Y035367D02*
X006420Y035367D01*
X006417Y035526D02*
X009847Y035526D01*
X010160Y035526D02*
X010200Y035526D01*
X010200Y035367D02*
X010160Y035367D01*
X010160Y035209D02*
X010200Y035209D01*
X010200Y035160D02*
X010660Y035160D01*
X010660Y034981D01*
X010379Y034700D01*
X010200Y034700D01*
X010200Y035160D01*
X010200Y035050D02*
X010160Y035050D01*
X010160Y034892D02*
X010200Y034892D01*
X010200Y034733D02*
X010160Y034733D01*
X009948Y034733D02*
X006299Y034733D01*
X006353Y034679D02*
X006229Y034803D01*
X006068Y034870D01*
X005292Y034870D01*
X005131Y034803D01*
X005007Y034679D01*
X004940Y034518D01*
X004940Y034342D01*
X005007Y034181D01*
X005131Y034057D01*
X005292Y033990D01*
X006068Y033990D01*
X006229Y034057D01*
X006353Y034181D01*
X006420Y034342D01*
X006420Y034518D01*
X006353Y034679D01*
X006396Y034575D02*
X012480Y034575D01*
X012480Y034733D02*
X011412Y034733D01*
X011379Y034700D02*
X011660Y034981D01*
X011660Y035160D01*
X011200Y035160D01*
X011200Y035200D01*
X011660Y035200D01*
X011660Y035379D01*
X011379Y035660D01*
X011200Y035660D01*
X011200Y035200D01*
X011160Y035200D01*
X011160Y035660D01*
X010981Y035660D01*
X010700Y035379D01*
X010700Y035200D01*
X011160Y035200D01*
X011160Y035160D01*
X011200Y035160D01*
X011200Y034700D01*
X011379Y034700D01*
X011200Y034733D02*
X011160Y034733D01*
X011160Y034700D02*
X011160Y035160D01*
X010700Y035160D01*
X010700Y034981D01*
X010981Y034700D01*
X011160Y034700D01*
X011160Y034892D02*
X011200Y034892D01*
X011200Y035050D02*
X011160Y035050D01*
X011160Y035209D02*
X011200Y035209D01*
X011200Y035367D02*
X011160Y035367D01*
X011160Y035526D02*
X011200Y035526D01*
X011362Y035740D02*
X011620Y035998D01*
X011620Y036362D01*
X011362Y036620D01*
X010998Y036620D01*
X010740Y036362D01*
X010740Y035998D01*
X010998Y035740D01*
X011362Y035740D01*
X011465Y035843D02*
X011895Y035843D01*
X011998Y035740D02*
X012337Y035740D01*
X012480Y035597D01*
X012480Y035502D01*
X012362Y035620D01*
X011998Y035620D01*
X011740Y035362D01*
X011740Y034998D01*
X011998Y034740D01*
X012362Y034740D01*
X012480Y034858D01*
X012480Y034097D01*
X012597Y033980D01*
X012847Y033730D01*
X013097Y033730D01*
X013480Y033347D01*
X013480Y033184D01*
X013416Y033248D01*
X012944Y033248D01*
X012862Y033166D01*
X012862Y032694D01*
X012944Y032612D01*
X012960Y032612D01*
X012960Y030822D01*
X012929Y030853D01*
X012768Y030920D01*
X012592Y030920D01*
X012431Y030853D01*
X012307Y030729D01*
X012240Y030568D01*
X012240Y029792D01*
X012307Y029631D01*
X012431Y029507D01*
X012592Y029440D01*
X012768Y029440D01*
X012929Y029507D01*
X012960Y029538D01*
X012960Y028021D01*
X012089Y027150D01*
X011960Y027021D01*
X011960Y025722D01*
X011942Y025677D01*
X011960Y025635D01*
X011960Y025589D01*
X011994Y025554D01*
X012014Y025510D01*
X012056Y025493D01*
X012089Y025460D01*
X012138Y025460D01*
X013112Y025070D01*
X013112Y024944D01*
X013194Y024862D01*
X013666Y024862D01*
X013748Y024944D01*
X013748Y025416D01*
X013666Y025498D01*
X013227Y025498D01*
X012400Y025829D01*
X012400Y026839D01*
X013400Y027839D01*
X013400Y029538D01*
X013431Y029507D01*
X013592Y029440D01*
X013768Y029440D01*
X013929Y029507D01*
X014053Y029631D01*
X014120Y029792D01*
X014120Y030568D01*
X014053Y030729D01*
X013929Y030853D01*
X013880Y030873D01*
X013880Y033513D01*
X013380Y034013D01*
X013263Y034130D01*
X013013Y034130D01*
X012880Y034263D01*
X012880Y034801D01*
X012981Y034700D01*
X013160Y034700D01*
X013160Y035160D01*
X013200Y035160D01*
X013200Y034700D01*
X013379Y034700D01*
X013480Y034801D01*
X013480Y034347D01*
X013597Y034230D01*
X014480Y033347D01*
X014480Y030873D01*
X014431Y030853D01*
X014307Y030729D01*
X014240Y030568D01*
X014240Y029792D01*
X014307Y029631D01*
X014431Y029507D01*
X014592Y029440D01*
X014768Y029440D01*
X014929Y029507D01*
X015053Y029631D01*
X015120Y029792D01*
X015120Y030568D01*
X015053Y030729D01*
X014929Y030853D01*
X014880Y030873D01*
X014880Y033513D01*
X013880Y034513D01*
X013880Y034801D01*
X013981Y034700D01*
X014160Y034700D01*
X014160Y035160D01*
X014200Y035160D01*
X014200Y035200D01*
X014160Y035200D01*
X014160Y035660D01*
X013981Y035660D01*
X013880Y035559D01*
X013880Y035763D01*
X013620Y036023D01*
X013620Y036362D01*
X013362Y036620D01*
X012998Y036620D01*
X012740Y036362D01*
X012740Y035998D01*
X012998Y035740D01*
X013337Y035740D01*
X013480Y035597D01*
X013480Y035559D01*
X013379Y035660D01*
X013200Y035660D01*
X013200Y035200D01*
X013160Y035200D01*
X013160Y035660D01*
X012981Y035660D01*
X012880Y035559D01*
X012880Y035763D01*
X012620Y036023D01*
X012620Y036362D01*
X012362Y036620D01*
X011998Y036620D01*
X011740Y036362D01*
X011740Y035998D01*
X011998Y035740D01*
X011903Y035526D02*
X011513Y035526D01*
X011660Y035367D02*
X011745Y035367D01*
X011740Y035209D02*
X011660Y035209D01*
X011660Y035050D02*
X011740Y035050D01*
X011846Y034892D02*
X011570Y034892D01*
X010948Y034733D02*
X010412Y034733D01*
X010570Y034892D02*
X010790Y034892D01*
X010700Y035050D02*
X010660Y035050D01*
X010660Y035209D02*
X010700Y035209D01*
X010700Y035367D02*
X010660Y035367D01*
X010513Y035526D02*
X010847Y035526D01*
X010895Y035843D02*
X010465Y035843D01*
X010620Y036001D02*
X010740Y036001D01*
X010740Y036160D02*
X010620Y036160D01*
X010620Y036318D02*
X010740Y036318D01*
X010854Y036477D02*
X010506Y036477D01*
X009895Y035843D02*
X006134Y035843D01*
X006348Y035684D02*
X012393Y035684D01*
X012457Y035526D02*
X012480Y035526D01*
X012880Y035684D02*
X013393Y035684D01*
X013200Y035526D02*
X013160Y035526D01*
X013160Y035367D02*
X013200Y035367D01*
X013200Y035209D02*
X013160Y035209D01*
X013160Y035050D02*
X013200Y035050D01*
X013200Y034892D02*
X013160Y034892D01*
X013160Y034733D02*
X013200Y034733D01*
X013412Y034733D02*
X013480Y034733D01*
X013480Y034575D02*
X012880Y034575D01*
X012880Y034733D02*
X012948Y034733D01*
X012880Y034416D02*
X013480Y034416D01*
X013570Y034258D02*
X012885Y034258D01*
X012637Y033941D02*
X000360Y033941D01*
X000360Y034099D02*
X005089Y034099D01*
X004975Y034258D02*
X000360Y034258D01*
X000360Y034416D02*
X004940Y034416D01*
X004964Y034575D02*
X000360Y034575D01*
X000360Y034733D02*
X005061Y034733D01*
X006271Y034099D02*
X012480Y034099D01*
X012480Y034258D02*
X006385Y034258D01*
X006420Y034416D02*
X012480Y034416D01*
X012795Y033782D02*
X000360Y033782D01*
X000360Y033624D02*
X013204Y033624D01*
X013362Y033465D02*
X000360Y033465D01*
X000360Y033307D02*
X013480Y033307D01*
X013880Y033307D02*
X014480Y033307D01*
X014480Y033148D02*
X013880Y033148D01*
X013880Y032990D02*
X014480Y032990D01*
X014480Y032831D02*
X013880Y032831D01*
X013880Y032673D02*
X014480Y032673D01*
X014480Y032514D02*
X013880Y032514D01*
X013880Y032356D02*
X014480Y032356D01*
X014480Y032197D02*
X013880Y032197D01*
X013880Y032039D02*
X014480Y032039D01*
X014480Y031880D02*
X013880Y031880D01*
X013880Y031722D02*
X014480Y031722D01*
X014480Y031563D02*
X013880Y031563D01*
X013880Y031405D02*
X014480Y031405D01*
X014480Y031246D02*
X013880Y031246D01*
X013880Y031088D02*
X014480Y031088D01*
X014480Y030929D02*
X013880Y030929D01*
X014012Y030771D02*
X014348Y030771D01*
X014258Y030612D02*
X014102Y030612D01*
X014120Y030454D02*
X014240Y030454D01*
X014240Y030295D02*
X014120Y030295D01*
X014120Y030137D02*
X014240Y030137D01*
X014240Y029978D02*
X014120Y029978D01*
X014120Y029820D02*
X014240Y029820D01*
X014294Y029661D02*
X014066Y029661D01*
X013919Y029503D02*
X014441Y029503D01*
X014919Y029503D02*
X015441Y029503D01*
X015431Y029507D02*
X015592Y029440D01*
X015768Y029440D01*
X015929Y029507D01*
X016053Y029631D01*
X016120Y029792D01*
X016120Y030568D01*
X016053Y030729D01*
X015929Y030853D01*
X015768Y030920D01*
X015592Y030920D01*
X015431Y030853D01*
X015307Y030729D01*
X015240Y030568D01*
X015240Y029792D01*
X015307Y029631D01*
X015431Y029507D01*
X015294Y029661D02*
X015066Y029661D01*
X015120Y029820D02*
X015240Y029820D01*
X015240Y029978D02*
X015120Y029978D01*
X015120Y030137D02*
X015240Y030137D01*
X015240Y030295D02*
X015120Y030295D01*
X015120Y030454D02*
X015240Y030454D01*
X015258Y030612D02*
X015102Y030612D01*
X015012Y030771D02*
X015348Y030771D01*
X014880Y030929D02*
X016898Y030929D01*
X016740Y031088D02*
X014880Y031088D01*
X014880Y031246D02*
X016581Y031246D01*
X016423Y031405D02*
X014880Y031405D01*
X014880Y031563D02*
X016264Y031563D01*
X016106Y031722D02*
X014880Y031722D01*
X014880Y031880D02*
X015947Y031880D01*
X015789Y032039D02*
X014880Y032039D01*
X014880Y032197D02*
X015630Y032197D01*
X015480Y032356D02*
X014880Y032356D01*
X014880Y032514D02*
X015480Y032514D01*
X015480Y032673D02*
X014880Y032673D01*
X014880Y032831D02*
X015480Y032831D01*
X015480Y032990D02*
X014880Y032990D01*
X014880Y033148D02*
X015480Y033148D01*
X015480Y033307D02*
X014880Y033307D01*
X014880Y033465D02*
X015480Y033465D01*
X015480Y033624D02*
X014769Y033624D01*
X014611Y033782D02*
X015480Y033782D01*
X015480Y033941D02*
X014452Y033941D01*
X014294Y034099D02*
X015480Y034099D01*
X015480Y034258D02*
X014135Y034258D01*
X013977Y034416D02*
X015480Y034416D01*
X015480Y034575D02*
X013880Y034575D01*
X013880Y034733D02*
X013948Y034733D01*
X014160Y034733D02*
X014200Y034733D01*
X014200Y034700D02*
X014379Y034700D01*
X014660Y034981D01*
X014660Y035160D01*
X014200Y035160D01*
X014200Y034700D01*
X014200Y034892D02*
X014160Y034892D01*
X014160Y035050D02*
X014200Y035050D01*
X014200Y035200D02*
X014660Y035200D01*
X014660Y035379D01*
X014379Y035660D01*
X014200Y035660D01*
X014200Y035200D01*
X014200Y035209D02*
X014160Y035209D01*
X014160Y035367D02*
X014200Y035367D01*
X014200Y035526D02*
X014160Y035526D01*
X013998Y035740D02*
X014362Y035740D01*
X014620Y035998D01*
X014620Y036362D01*
X014362Y036620D01*
X013998Y036620D01*
X013740Y036362D01*
X013740Y035998D01*
X013998Y035740D01*
X013880Y035684D02*
X015393Y035684D01*
X015457Y035526D02*
X015480Y035526D01*
X015880Y035526D02*
X015903Y035526D01*
X015880Y035684D02*
X016393Y035684D01*
X016457Y035526D02*
X016480Y035526D01*
X016880Y035526D02*
X016903Y035526D01*
X016880Y035684D02*
X022035Y035684D01*
X021990Y035843D02*
X019465Y035843D01*
X019620Y036001D02*
X021990Y036001D01*
X021990Y036160D02*
X019620Y036160D01*
X019620Y036318D02*
X021990Y036318D01*
X021990Y036477D02*
X019506Y036477D01*
X019457Y035526D02*
X022162Y035526D01*
X022698Y035526D02*
X023162Y035526D01*
X023181Y035507D02*
X023342Y035440D01*
X023518Y035440D01*
X023679Y035507D01*
X023803Y035631D01*
X023870Y035792D01*
X023870Y036568D01*
X023803Y036729D01*
X023679Y036853D01*
X023518Y036920D01*
X023342Y036920D01*
X023181Y036853D01*
X023057Y036729D01*
X022990Y036568D01*
X022990Y035792D01*
X023057Y035631D01*
X023181Y035507D01*
X023306Y035367D02*
X019615Y035367D01*
X019620Y035209D02*
X023147Y035209D01*
X022989Y035050D02*
X019620Y035050D01*
X019514Y034892D02*
X022830Y034892D01*
X022672Y034733D02*
X016880Y034733D01*
X016880Y034575D02*
X022513Y034575D01*
X022355Y034416D02*
X016880Y034416D01*
X016880Y034258D02*
X022196Y034258D01*
X022038Y034099D02*
X016880Y034099D01*
X016880Y033941D02*
X021879Y033941D01*
X021721Y033782D02*
X016880Y033782D01*
X016880Y033624D02*
X021562Y033624D01*
X021404Y033465D02*
X016880Y033465D01*
X016880Y033307D02*
X021245Y033307D01*
X021087Y033148D02*
X016995Y033148D01*
X017153Y032990D02*
X020928Y032990D01*
X020770Y032831D02*
X017312Y032831D01*
X017470Y032673D02*
X020611Y032673D01*
X020453Y032514D02*
X017629Y032514D01*
X017787Y032356D02*
X020294Y032356D01*
X020136Y032197D02*
X017946Y032197D01*
X018104Y032039D02*
X019977Y032039D01*
X019819Y031880D02*
X018263Y031880D01*
X018421Y031722D02*
X019660Y031722D01*
X019502Y031563D02*
X018580Y031563D01*
X018331Y031246D02*
X017147Y031246D01*
X017305Y031088D02*
X018362Y031088D01*
X018377Y030929D02*
X017380Y030929D01*
X016988Y031405D02*
X018173Y031405D01*
X018014Y031563D02*
X016830Y031563D01*
X016671Y031722D02*
X017856Y031722D01*
X017697Y031880D02*
X016513Y031880D01*
X016354Y032039D02*
X017539Y032039D01*
X017380Y032197D02*
X016196Y032197D01*
X016037Y032356D02*
X017222Y032356D01*
X017063Y032514D02*
X015880Y032514D01*
X015880Y032673D02*
X016905Y032673D01*
X016746Y032831D02*
X015880Y032831D01*
X015880Y032990D02*
X016588Y032990D01*
X016480Y033148D02*
X015880Y033148D01*
X015880Y033307D02*
X016480Y033307D01*
X016480Y033465D02*
X015880Y033465D01*
X015880Y033624D02*
X016480Y033624D01*
X016480Y033782D02*
X015880Y033782D01*
X015880Y033941D02*
X016480Y033941D01*
X016480Y034099D02*
X015880Y034099D01*
X015880Y034258D02*
X016480Y034258D01*
X016480Y034416D02*
X015880Y034416D01*
X015880Y034575D02*
X016480Y034575D01*
X016480Y034733D02*
X015880Y034733D01*
X015480Y034733D02*
X014412Y034733D01*
X014570Y034892D02*
X014846Y034892D01*
X014740Y035050D02*
X014660Y035050D01*
X014660Y035209D02*
X014740Y035209D01*
X014745Y035367D02*
X014660Y035367D01*
X014513Y035526D02*
X014903Y035526D01*
X014895Y035843D02*
X014465Y035843D01*
X014620Y036001D02*
X014740Y036001D01*
X014740Y036160D02*
X014620Y036160D01*
X014620Y036318D02*
X014740Y036318D01*
X014854Y036477D02*
X014506Y036477D01*
X013854Y036477D02*
X013506Y036477D01*
X013620Y036318D02*
X013740Y036318D01*
X013740Y036160D02*
X013620Y036160D01*
X013642Y036001D02*
X013740Y036001D01*
X013800Y035843D02*
X013895Y035843D01*
X012895Y035843D02*
X012800Y035843D01*
X012740Y036001D02*
X012642Y036001D01*
X012620Y036160D02*
X012740Y036160D01*
X012740Y036318D02*
X012620Y036318D01*
X012506Y036477D02*
X012854Y036477D01*
X011854Y036477D02*
X011506Y036477D01*
X011620Y036318D02*
X011740Y036318D01*
X011740Y036160D02*
X011620Y036160D01*
X011620Y036001D02*
X011740Y036001D01*
X013294Y034099D02*
X013728Y034099D01*
X013887Y033941D02*
X013452Y033941D01*
X013611Y033782D02*
X014045Y033782D01*
X014204Y033624D02*
X013769Y033624D01*
X013880Y033465D02*
X014362Y033465D01*
X013180Y032680D02*
X013180Y027930D01*
X012180Y026930D01*
X012180Y025680D01*
X013430Y025180D01*
X013748Y025223D02*
X014354Y025223D01*
X014480Y025097D02*
X014480Y024397D01*
X014780Y024097D01*
X014897Y023980D01*
X017462Y023980D01*
X017462Y023944D01*
X017544Y023862D01*
X018016Y023862D01*
X018098Y023944D01*
X018098Y024416D01*
X018016Y024498D01*
X017544Y024498D01*
X017462Y024416D01*
X017462Y024380D01*
X015063Y024380D01*
X014880Y024563D01*
X014880Y025263D01*
X014763Y025380D01*
X013830Y026313D01*
X013830Y026596D01*
X013596Y026830D01*
X013264Y026830D01*
X013030Y026596D01*
X013030Y026264D01*
X013264Y026030D01*
X013547Y026030D01*
X014480Y025097D01*
X014480Y025065D02*
X013748Y025065D01*
X013710Y024906D02*
X014480Y024906D01*
X014480Y024748D02*
X006086Y024748D01*
X006068Y024740D02*
X006229Y024807D01*
X006353Y024931D01*
X006420Y025092D01*
X006420Y025268D01*
X006353Y025429D01*
X006229Y025553D01*
X006068Y025620D01*
X005292Y025620D01*
X005131Y025553D01*
X005007Y025429D01*
X004940Y025268D01*
X004940Y025092D01*
X005007Y024931D01*
X005131Y024807D01*
X005292Y024740D01*
X006068Y024740D01*
X006068Y024620D02*
X006229Y024553D01*
X006353Y024429D01*
X006420Y024268D01*
X006420Y024092D01*
X006353Y023931D01*
X006229Y023807D01*
X006068Y023740D01*
X005292Y023740D01*
X005131Y023807D01*
X005007Y023931D01*
X004940Y024092D01*
X004940Y024268D01*
X005007Y024429D01*
X005131Y024553D01*
X005292Y024620D01*
X006068Y024620D01*
X006142Y024589D02*
X014480Y024589D01*
X014480Y024431D02*
X006352Y024431D01*
X006418Y024272D02*
X014605Y024272D01*
X014764Y024114D02*
X006420Y024114D01*
X006363Y023955D02*
X017462Y023955D01*
X018098Y023955D02*
X019210Y023955D01*
X019210Y023797D02*
X006204Y023797D01*
X005156Y023797D02*
X004400Y023797D01*
X004400Y023955D02*
X004997Y023955D01*
X004940Y024114D02*
X004400Y024114D01*
X004400Y024272D02*
X004942Y024272D01*
X005008Y024431D02*
X004400Y024431D01*
X004400Y024589D02*
X005218Y024589D01*
X005274Y024748D02*
X004400Y024748D01*
X004400Y024906D02*
X005032Y024906D01*
X004952Y025065D02*
X004400Y025065D01*
X004400Y025223D02*
X004940Y025223D01*
X004987Y025382D02*
X004400Y025382D01*
X004400Y025540D02*
X005118Y025540D01*
X005292Y025740D02*
X006068Y025740D01*
X006229Y025807D01*
X006353Y025931D01*
X006420Y026092D01*
X006420Y026268D01*
X006353Y026429D01*
X006229Y026553D01*
X006068Y026620D01*
X005292Y026620D01*
X005131Y026553D01*
X005007Y026429D01*
X004940Y026268D01*
X004940Y026092D01*
X005007Y025931D01*
X005131Y025807D01*
X005292Y025740D01*
X005081Y025857D02*
X004400Y025857D01*
X004400Y025699D02*
X008280Y025699D01*
X008280Y025846D02*
X008280Y025514D01*
X008514Y025280D01*
X008846Y025280D01*
X009080Y025514D01*
X009080Y025846D01*
X008846Y026080D01*
X008514Y026080D01*
X008280Y025846D01*
X008291Y025857D02*
X006279Y025857D01*
X006388Y026016D02*
X008450Y026016D01*
X008910Y026016D02*
X009393Y026016D01*
X009498Y026120D02*
X009240Y025862D01*
X009240Y025680D01*
X009680Y025680D01*
X010120Y025680D01*
X010120Y025862D01*
X009862Y026120D01*
X009680Y026120D01*
X009680Y025680D01*
X009680Y025680D01*
X009680Y025680D01*
X010120Y025680D01*
X010120Y025498D01*
X009862Y025240D01*
X009680Y025240D01*
X009680Y025680D01*
X009680Y025680D01*
X009680Y025680D01*
X009680Y026120D01*
X009498Y026120D01*
X009680Y026016D02*
X009680Y026016D01*
X009680Y025857D02*
X009680Y025857D01*
X009680Y025699D02*
X009680Y025699D01*
X009680Y025680D02*
X009240Y025680D01*
X009240Y025498D01*
X009498Y025240D01*
X009680Y025240D01*
X009680Y025680D01*
X009680Y025540D02*
X009680Y025540D01*
X009680Y025382D02*
X009680Y025382D01*
X010004Y025382D02*
X012334Y025382D01*
X012001Y025540D02*
X010120Y025540D01*
X010120Y025699D02*
X011950Y025699D01*
X011960Y025857D02*
X010120Y025857D01*
X009967Y026016D02*
X011960Y026016D01*
X011960Y026174D02*
X006420Y026174D01*
X006393Y026333D02*
X011960Y026333D01*
X011960Y026491D02*
X006291Y026491D01*
X006229Y026807D02*
X006068Y026740D01*
X005292Y026740D01*
X005131Y026807D01*
X005007Y026931D01*
X004940Y027092D01*
X004940Y027268D01*
X005007Y027429D01*
X005131Y027553D01*
X005292Y027620D01*
X006068Y027620D01*
X006229Y027553D01*
X006353Y027429D01*
X006420Y027268D01*
X006420Y027092D01*
X006353Y026931D01*
X006229Y026807D01*
X006230Y026808D02*
X011960Y026808D01*
X011960Y026650D02*
X004498Y026650D01*
X004498Y026808D02*
X005130Y026808D01*
X004992Y026967D02*
X003900Y026967D01*
X003900Y027125D02*
X004940Y027125D01*
X004947Y027284D02*
X003900Y027284D01*
X003900Y027442D02*
X005020Y027442D01*
X005246Y027601D02*
X003900Y027601D01*
X003900Y027759D02*
X005247Y027759D01*
X005292Y027740D02*
X006068Y027740D01*
X006229Y027807D01*
X006353Y027931D01*
X006420Y028092D01*
X006420Y028268D01*
X006353Y028429D01*
X006229Y028553D01*
X006068Y028620D01*
X005292Y028620D01*
X005131Y028553D01*
X005007Y028429D01*
X004940Y028268D01*
X004940Y028092D01*
X005007Y027931D01*
X005131Y027807D01*
X005292Y027740D01*
X005020Y027918D02*
X003900Y027918D01*
X003900Y028076D02*
X004947Y028076D01*
X004940Y028235D02*
X003900Y028235D01*
X003900Y028393D02*
X004992Y028393D01*
X005129Y028552D02*
X003900Y028552D01*
X003964Y028710D02*
X012960Y028710D01*
X012960Y028552D02*
X006231Y028552D01*
X006368Y028393D02*
X012960Y028393D01*
X012960Y028235D02*
X006420Y028235D01*
X006413Y028076D02*
X012960Y028076D01*
X012856Y027918D02*
X006340Y027918D01*
X006113Y027759D02*
X012698Y027759D01*
X012539Y027601D02*
X006114Y027601D01*
X006340Y027442D02*
X012381Y027442D01*
X012222Y027284D02*
X006413Y027284D01*
X006420Y027125D02*
X012064Y027125D01*
X011960Y026967D02*
X006368Y026967D01*
X005069Y026491D02*
X004498Y026491D01*
X004437Y026333D02*
X004967Y026333D01*
X004940Y026174D02*
X004400Y026174D01*
X004400Y026016D02*
X004972Y026016D01*
X004180Y026630D02*
X004180Y022180D01*
X003680Y021680D02*
X004180Y021180D01*
X005680Y021180D01*
X006314Y020468D02*
X012363Y020468D01*
X012351Y020310D02*
X006403Y020310D01*
X006420Y020151D02*
X012339Y020151D01*
X012968Y020785D02*
X020184Y020785D01*
X020002Y020944D02*
X013126Y020944D01*
X013285Y021102D02*
X019940Y021102D01*
X019940Y021261D02*
X013443Y021261D01*
X013602Y021419D02*
X020003Y021419D01*
X020190Y021578D02*
X013760Y021578D01*
X013919Y021736D02*
X021425Y021736D01*
X021460Y021895D02*
X021317Y021895D01*
X021404Y022053D02*
X021460Y022053D01*
X021460Y022212D02*
X021420Y022212D01*
X021460Y022370D02*
X021378Y022370D01*
X021460Y022529D02*
X021254Y022529D01*
X021460Y022687D02*
X019984Y022687D01*
X020131Y022807D02*
X020007Y022931D01*
X019940Y023092D01*
X019940Y023268D01*
X020007Y023429D01*
X020131Y023553D01*
X020292Y023620D01*
X021068Y023620D01*
X021229Y023553D01*
X021353Y023429D01*
X021420Y023268D01*
X021420Y023092D01*
X021353Y022931D01*
X021229Y022807D01*
X021068Y022740D01*
X020292Y022740D01*
X020131Y022807D01*
X020092Y022846D02*
X019826Y022846D01*
X019977Y023004D02*
X019667Y023004D01*
X019650Y023163D02*
X019940Y023163D01*
X019962Y023321D02*
X019650Y023321D01*
X019650Y023480D02*
X020057Y023480D01*
X020156Y023797D02*
X019650Y023797D01*
X019650Y023955D02*
X019997Y023955D01*
X019940Y024114D02*
X019675Y024114D01*
X019833Y024272D02*
X019942Y024272D01*
X019992Y024431D02*
X020008Y024431D01*
X019930Y024680D02*
X021430Y024680D01*
X021680Y025430D01*
X021680Y031180D01*
X024430Y033930D01*
X027430Y033930D01*
X028430Y034930D01*
X028430Y036180D01*
X028870Y036160D02*
X028990Y036160D01*
X028990Y036318D02*
X028870Y036318D01*
X028870Y036477D02*
X028990Y036477D01*
X029018Y036635D02*
X028842Y036635D01*
X028739Y036794D02*
X029121Y036794D01*
X028990Y036001D02*
X028870Y036001D01*
X028870Y035843D02*
X028990Y035843D01*
X029035Y035684D02*
X028825Y035684D01*
X028698Y035526D02*
X029162Y035526D01*
X029210Y035367D02*
X028650Y035367D01*
X028650Y035209D02*
X029210Y035209D01*
X029210Y035050D02*
X028650Y035050D01*
X028650Y034892D02*
X029080Y034892D01*
X028922Y034733D02*
X028544Y034733D01*
X028386Y034575D02*
X028763Y034575D01*
X028605Y034416D02*
X028227Y034416D01*
X028069Y034258D02*
X028446Y034258D01*
X028288Y034099D02*
X027910Y034099D01*
X027752Y033941D02*
X028129Y033941D01*
X027971Y033782D02*
X027593Y033782D01*
X028118Y033307D02*
X038992Y033307D01*
X038992Y033465D02*
X028276Y033465D01*
X028435Y033624D02*
X038992Y033624D01*
X038992Y033782D02*
X028593Y033782D01*
X028752Y033941D02*
X038992Y033941D01*
X038992Y034099D02*
X028910Y034099D01*
X029069Y034258D02*
X038992Y034258D01*
X038992Y034416D02*
X029227Y034416D01*
X029386Y034575D02*
X038992Y034575D01*
X038992Y034733D02*
X029544Y034733D01*
X029650Y034892D02*
X038992Y034892D01*
X038992Y035050D02*
X029650Y035050D01*
X029650Y035209D02*
X038992Y035209D01*
X038992Y035367D02*
X029650Y035367D01*
X029698Y035526D02*
X038992Y035526D01*
X038992Y035684D02*
X029825Y035684D01*
X029870Y035843D02*
X038992Y035843D01*
X038992Y036001D02*
X029870Y036001D01*
X028162Y035526D02*
X027698Y035526D01*
X027679Y035507D02*
X027803Y035631D01*
X027870Y035792D01*
X027870Y036568D01*
X027803Y036729D01*
X027679Y036853D01*
X027518Y036920D01*
X027342Y036920D01*
X027181Y036853D01*
X027057Y036729D01*
X026990Y036568D01*
X026990Y035792D01*
X027057Y035631D01*
X027181Y035507D01*
X027342Y035440D01*
X027518Y035440D01*
X027679Y035507D01*
X027825Y035684D02*
X028035Y035684D01*
X027990Y035843D02*
X027870Y035843D01*
X027870Y036001D02*
X027990Y036001D01*
X027990Y036160D02*
X027870Y036160D01*
X027870Y036318D02*
X027990Y036318D01*
X027990Y036477D02*
X027870Y036477D01*
X027842Y036635D02*
X028018Y036635D01*
X028121Y036794D02*
X027739Y036794D01*
X027121Y036794D02*
X026739Y036794D01*
X026679Y036853D02*
X026518Y036920D01*
X026342Y036920D01*
X026181Y036853D01*
X026057Y036729D01*
X025990Y036568D01*
X025990Y035792D01*
X026057Y035631D01*
X026181Y035507D01*
X026342Y035440D01*
X026518Y035440D01*
X026679Y035507D01*
X026803Y035631D01*
X026870Y035792D01*
X026870Y036568D01*
X026803Y036729D01*
X026679Y036853D01*
X026842Y036635D02*
X027018Y036635D01*
X026990Y036477D02*
X026870Y036477D01*
X026870Y036318D02*
X026990Y036318D01*
X026990Y036160D02*
X026870Y036160D01*
X026870Y036001D02*
X026990Y036001D01*
X026990Y035843D02*
X026870Y035843D01*
X026825Y035684D02*
X027035Y035684D01*
X027162Y035526D02*
X026698Y035526D01*
X026162Y035526D02*
X025698Y035526D01*
X025650Y035367D02*
X028210Y035367D01*
X028210Y035209D02*
X025520Y035209D01*
X025400Y035089D02*
X025400Y035089D01*
X025361Y035050D02*
X028210Y035050D01*
X028080Y034892D02*
X023453Y034892D01*
X023294Y034733D02*
X027922Y034733D01*
X027763Y034575D02*
X023136Y034575D01*
X022977Y034416D02*
X027605Y034416D01*
X027446Y034258D02*
X022819Y034258D01*
X022660Y034099D02*
X024288Y034099D01*
X024129Y033941D02*
X022502Y033941D01*
X022343Y033782D02*
X023971Y033782D01*
X023812Y033624D02*
X022185Y033624D01*
X022026Y033465D02*
X023654Y033465D01*
X023495Y033307D02*
X021868Y033307D01*
X021709Y033148D02*
X023337Y033148D01*
X023178Y032990D02*
X021551Y032990D01*
X021392Y032831D02*
X023020Y032831D01*
X022861Y032673D02*
X021234Y032673D01*
X021075Y032514D02*
X022703Y032514D01*
X022544Y032356D02*
X020917Y032356D01*
X020758Y032197D02*
X022386Y032197D01*
X022227Y032039D02*
X020600Y032039D01*
X020441Y031880D02*
X022069Y031880D01*
X021910Y031722D02*
X020283Y031722D01*
X020124Y031563D02*
X021752Y031563D01*
X021593Y031405D02*
X020498Y031405D01*
X020498Y031246D02*
X021460Y031246D01*
X021460Y031088D02*
X020498Y031088D01*
X020483Y030929D02*
X021460Y030929D01*
X021460Y030771D02*
X021012Y030771D01*
X021102Y030612D02*
X021460Y030612D01*
X021460Y030454D02*
X021120Y030454D01*
X021120Y030295D02*
X021460Y030295D01*
X021460Y030137D02*
X021120Y030137D01*
X021120Y029978D02*
X021460Y029978D01*
X021460Y029820D02*
X021120Y029820D01*
X021066Y029661D02*
X021460Y029661D01*
X021460Y029503D02*
X020919Y029503D01*
X021460Y029344D02*
X020377Y029344D01*
X020380Y029503D02*
X020441Y029503D01*
X020218Y029186D02*
X021460Y029186D01*
X021460Y029027D02*
X020060Y029027D01*
X019901Y028869D02*
X021460Y028869D01*
X021460Y028710D02*
X019880Y028710D01*
X019880Y028552D02*
X020129Y028552D01*
X020131Y028553D02*
X020007Y028429D01*
X019940Y028268D01*
X019940Y028092D01*
X020007Y027931D01*
X020131Y027807D01*
X020292Y027740D01*
X021068Y027740D01*
X021229Y027807D01*
X021353Y027931D01*
X021420Y028092D01*
X021420Y028268D01*
X021353Y028429D01*
X021229Y028553D01*
X021068Y028620D01*
X020292Y028620D01*
X020131Y028553D01*
X019992Y028393D02*
X019880Y028393D01*
X019880Y028235D02*
X019940Y028235D01*
X019947Y028076D02*
X019880Y028076D01*
X019880Y027918D02*
X020020Y027918D01*
X019880Y027759D02*
X020247Y027759D01*
X020292Y027620D02*
X020131Y027553D01*
X020007Y027429D01*
X019940Y027268D01*
X019940Y027092D01*
X020007Y026931D01*
X020131Y026807D01*
X020292Y026740D01*
X021068Y026740D01*
X021229Y026807D01*
X021353Y026931D01*
X021420Y027092D01*
X021420Y027268D01*
X021353Y027429D01*
X021229Y027553D01*
X021068Y027620D01*
X020292Y027620D01*
X020246Y027601D02*
X019880Y027601D01*
X019880Y027442D02*
X020020Y027442D01*
X019947Y027284D02*
X019880Y027284D01*
X019880Y027125D02*
X019940Y027125D01*
X019992Y026967D02*
X019880Y026967D01*
X019880Y026808D02*
X020130Y026808D01*
X019993Y026650D02*
X021460Y026650D01*
X021460Y026808D02*
X021230Y026808D01*
X021368Y026967D02*
X021460Y026967D01*
X021460Y027125D02*
X021420Y027125D01*
X021413Y027284D02*
X021460Y027284D01*
X021460Y027442D02*
X021340Y027442D01*
X021460Y027601D02*
X021114Y027601D01*
X021113Y027759D02*
X021460Y027759D01*
X021460Y027918D02*
X021340Y027918D01*
X021413Y028076D02*
X021460Y028076D01*
X021460Y028235D02*
X021420Y028235D01*
X021460Y028393D02*
X021368Y028393D01*
X021460Y028552D02*
X021231Y028552D01*
X022150Y028552D02*
X030280Y028552D01*
X030280Y028514D02*
X030514Y028280D01*
X030846Y028280D01*
X031080Y028514D01*
X031080Y028846D01*
X030846Y029080D01*
X030514Y029080D01*
X030280Y028846D01*
X030280Y028514D01*
X030401Y028393D02*
X022150Y028393D01*
X022150Y028235D02*
X038992Y028235D01*
X038992Y028393D02*
X034959Y028393D01*
X034846Y028280D02*
X034514Y028280D01*
X034280Y028514D01*
X034280Y028846D01*
X034514Y029080D01*
X034846Y029080D01*
X035080Y028846D01*
X035080Y028514D01*
X034846Y028280D01*
X035080Y028552D02*
X038992Y028552D01*
X038992Y028710D02*
X035080Y028710D01*
X035057Y028869D02*
X038992Y028869D01*
X038992Y029027D02*
X034899Y029027D01*
X034461Y029027D02*
X030899Y029027D01*
X031057Y028869D02*
X034303Y028869D01*
X034280Y028710D02*
X031080Y028710D01*
X031080Y028552D02*
X034280Y028552D01*
X034401Y028393D02*
X030959Y028393D01*
X030461Y029027D02*
X024425Y029027D01*
X024400Y028966D02*
X024511Y029235D01*
X024511Y029525D01*
X024400Y029794D01*
X024194Y030000D01*
X023925Y030111D01*
X023635Y030111D01*
X023366Y030000D01*
X023160Y029794D01*
X023049Y029525D01*
X023049Y029235D01*
X023160Y028966D01*
X023366Y028760D01*
X023635Y028649D01*
X023925Y028649D01*
X024194Y028760D01*
X024400Y028966D01*
X024303Y028869D02*
X030303Y028869D01*
X030280Y028710D02*
X024073Y028710D01*
X023487Y028710D02*
X022150Y028710D01*
X022150Y028869D02*
X023257Y028869D01*
X023135Y029027D02*
X022150Y029027D01*
X022150Y029186D02*
X023069Y029186D01*
X023049Y029344D02*
X022150Y029344D01*
X022150Y029503D02*
X023049Y029503D01*
X023105Y029661D02*
X022150Y029661D01*
X022150Y029820D02*
X023185Y029820D01*
X023344Y029978D02*
X022150Y029978D01*
X022150Y030137D02*
X038992Y030137D01*
X038992Y030295D02*
X034861Y030295D01*
X034846Y030280D02*
X035080Y030514D01*
X035080Y030846D01*
X034846Y031080D01*
X034514Y031080D01*
X034280Y030846D01*
X034280Y030514D01*
X034514Y030280D01*
X034846Y030280D01*
X035019Y030454D02*
X038992Y030454D01*
X038992Y030612D02*
X035080Y030612D01*
X035080Y030771D02*
X038992Y030771D01*
X038992Y030929D02*
X034997Y030929D01*
X034363Y030929D02*
X030997Y030929D01*
X031080Y030846D02*
X030846Y031080D01*
X030514Y031080D01*
X030280Y030846D01*
X030280Y030514D01*
X030514Y030280D01*
X030846Y030280D01*
X031080Y030514D01*
X031080Y030846D01*
X031080Y030771D02*
X034280Y030771D01*
X034280Y030612D02*
X031080Y030612D01*
X031019Y030454D02*
X034341Y030454D01*
X034499Y030295D02*
X030861Y030295D01*
X030499Y030295D02*
X022150Y030295D01*
X022150Y030454D02*
X030341Y030454D01*
X030280Y030612D02*
X022150Y030612D01*
X022150Y030771D02*
X030280Y030771D01*
X030363Y030929D02*
X022240Y030929D01*
X022399Y031088D02*
X038992Y031088D01*
X038992Y031246D02*
X022557Y031246D01*
X022716Y031405D02*
X038992Y031405D01*
X038992Y031563D02*
X022874Y031563D01*
X023033Y031722D02*
X038992Y031722D01*
X038992Y031880D02*
X034946Y031880D01*
X034846Y031780D02*
X035080Y032014D01*
X035080Y032346D01*
X034846Y032580D01*
X034514Y032580D01*
X034280Y032346D01*
X034280Y032014D01*
X034514Y031780D01*
X034846Y031780D01*
X035080Y032039D02*
X038992Y032039D01*
X038992Y032197D02*
X035080Y032197D01*
X035070Y032356D02*
X038992Y032356D01*
X038992Y032514D02*
X034912Y032514D01*
X034448Y032514D02*
X030912Y032514D01*
X030846Y032580D02*
X030514Y032580D01*
X030280Y032346D01*
X030280Y032014D01*
X030514Y031780D01*
X030846Y031780D01*
X031080Y032014D01*
X031080Y032346D01*
X030846Y032580D01*
X031070Y032356D02*
X034290Y032356D01*
X034280Y032197D02*
X031080Y032197D01*
X031080Y032039D02*
X034280Y032039D01*
X034414Y031880D02*
X030946Y031880D01*
X030414Y031880D02*
X023191Y031880D01*
X023350Y032039D02*
X030280Y032039D01*
X030280Y032197D02*
X023508Y032197D01*
X023667Y032356D02*
X030290Y032356D01*
X030448Y032514D02*
X023825Y032514D01*
X023984Y032673D02*
X038992Y032673D01*
X038992Y032831D02*
X024142Y032831D01*
X024301Y032990D02*
X038992Y032990D01*
X038992Y033148D02*
X024459Y033148D01*
X025180Y035180D02*
X023430Y035180D01*
X019180Y030930D01*
X019180Y025680D01*
X019805Y025055D01*
X020555Y025055D01*
X020680Y025180D01*
X021242Y025540D02*
X021460Y025540D01*
X021460Y025699D02*
X019473Y025699D01*
X019400Y025857D02*
X020081Y025857D01*
X019862Y026016D02*
X019400Y026016D01*
X019400Y026174D02*
X019862Y026174D01*
X019745Y026333D02*
X019400Y026333D01*
X019400Y026491D02*
X019586Y026491D01*
X019480Y026650D02*
X019400Y026650D01*
X019400Y026808D02*
X019480Y026808D01*
X019480Y026967D02*
X019400Y026967D01*
X019400Y027125D02*
X019480Y027125D01*
X019480Y027284D02*
X019400Y027284D01*
X019400Y027442D02*
X019480Y027442D01*
X019480Y027601D02*
X019400Y027601D01*
X019400Y027759D02*
X019480Y027759D01*
X019480Y027918D02*
X019400Y027918D01*
X019400Y028076D02*
X019480Y028076D01*
X019480Y028235D02*
X019400Y028235D01*
X019400Y028393D02*
X019480Y028393D01*
X019480Y028552D02*
X019400Y028552D01*
X019400Y028710D02*
X019480Y028710D01*
X019480Y028869D02*
X019400Y028869D01*
X019400Y029027D02*
X019494Y029027D01*
X019400Y029186D02*
X019653Y029186D01*
X019811Y029344D02*
X019400Y029344D01*
X019400Y029503D02*
X019441Y029503D01*
X019919Y029503D02*
X019970Y029503D01*
X018960Y029503D02*
X018919Y029503D01*
X018960Y029344D02*
X017380Y029344D01*
X017380Y029186D02*
X018960Y029186D01*
X018960Y029027D02*
X017380Y029027D01*
X017380Y028869D02*
X018960Y028869D01*
X018960Y028710D02*
X017380Y028710D01*
X017380Y028552D02*
X018960Y028552D01*
X018960Y028393D02*
X017380Y028393D01*
X017380Y028235D02*
X018960Y028235D01*
X018960Y028076D02*
X017380Y028076D01*
X017380Y027918D02*
X018960Y027918D01*
X018960Y027759D02*
X017380Y027759D01*
X017498Y027601D02*
X018960Y027601D01*
X018960Y027442D02*
X017498Y027442D01*
X017498Y027284D02*
X018960Y027284D01*
X018960Y027125D02*
X017429Y027125D01*
X016931Y027125D02*
X012686Y027125D01*
X012528Y026967D02*
X018960Y026967D01*
X018960Y026808D02*
X014674Y026808D01*
X014612Y026870D02*
X014430Y026870D01*
X014430Y026430D01*
X014870Y026430D01*
X014870Y026612D01*
X014612Y026870D01*
X014430Y026870D02*
X014430Y026430D01*
X014430Y026430D01*
X014430Y026430D01*
X014870Y026430D01*
X014870Y026248D01*
X014612Y025990D01*
X014430Y025990D01*
X014430Y026430D01*
X014430Y026430D01*
X014430Y026430D01*
X013990Y026430D01*
X013990Y026612D01*
X014248Y026870D01*
X014430Y026870D01*
X014430Y026808D02*
X014430Y026808D01*
X014430Y026650D02*
X014430Y026650D01*
X014430Y026491D02*
X014430Y026491D01*
X014430Y026430D02*
X013990Y026430D01*
X013990Y026248D01*
X014248Y025990D01*
X014430Y025990D01*
X014430Y026430D01*
X014430Y026333D02*
X014430Y026333D01*
X014430Y026174D02*
X014430Y026174D01*
X014430Y026016D02*
X014430Y026016D01*
X014638Y026016D02*
X018960Y026016D01*
X018960Y026174D02*
X014796Y026174D01*
X014870Y026333D02*
X018960Y026333D01*
X018960Y026491D02*
X014870Y026491D01*
X014833Y026650D02*
X018960Y026650D01*
X018960Y025857D02*
X014286Y025857D01*
X014222Y026016D02*
X014127Y026016D01*
X014064Y026174D02*
X013969Y026174D01*
X013990Y026333D02*
X013830Y026333D01*
X013830Y026491D02*
X013990Y026491D01*
X014027Y026650D02*
X013776Y026650D01*
X013618Y026808D02*
X014186Y026808D01*
X013562Y026016D02*
X012400Y026016D01*
X012400Y026174D02*
X013120Y026174D01*
X013030Y026333D02*
X012400Y026333D01*
X012400Y026491D02*
X013030Y026491D01*
X013084Y026650D02*
X012400Y026650D01*
X012400Y026808D02*
X013242Y026808D01*
X012845Y027284D02*
X016862Y027284D01*
X016862Y027442D02*
X013003Y027442D01*
X013162Y027601D02*
X016862Y027601D01*
X016980Y027759D02*
X013320Y027759D01*
X013400Y027918D02*
X016980Y027918D01*
X016980Y028076D02*
X013400Y028076D01*
X013400Y028235D02*
X016980Y028235D01*
X016980Y028393D02*
X013400Y028393D01*
X013400Y028552D02*
X016980Y028552D01*
X016980Y028710D02*
X013400Y028710D01*
X013400Y028869D02*
X016980Y028869D01*
X016980Y029027D02*
X013400Y029027D01*
X013400Y029186D02*
X016980Y029186D01*
X016980Y029344D02*
X013400Y029344D01*
X013400Y029503D02*
X013441Y029503D01*
X012960Y029503D02*
X012919Y029503D01*
X012960Y029344D02*
X000360Y029344D01*
X000360Y029186D02*
X003362Y029186D01*
X003362Y029027D02*
X000360Y029027D01*
X000360Y028869D02*
X003362Y028869D01*
X003396Y028710D02*
X000360Y028710D01*
X000360Y028552D02*
X002429Y028552D01*
X002498Y028620D02*
X002240Y028362D01*
X002240Y028180D01*
X002680Y028180D01*
X002680Y028180D01*
X002680Y028620D01*
X002862Y028620D01*
X003120Y028362D01*
X003120Y028180D01*
X002680Y028180D01*
X002680Y028180D01*
X002680Y028180D01*
X002680Y028620D01*
X002498Y028620D01*
X002680Y028552D02*
X002680Y028552D01*
X002680Y028393D02*
X002680Y028393D01*
X002680Y028235D02*
X002680Y028235D01*
X002680Y028180D02*
X002240Y028180D01*
X002240Y027998D01*
X002498Y027740D01*
X002680Y027740D01*
X002862Y027740D01*
X003120Y027998D01*
X003120Y028180D01*
X002680Y028180D01*
X002680Y027740D01*
X002680Y028180D01*
X002680Y028180D01*
X002680Y028076D02*
X002680Y028076D01*
X002680Y027918D02*
X002680Y027918D01*
X002680Y027759D02*
X002680Y027759D01*
X002881Y027759D02*
X003460Y027759D01*
X003460Y027601D02*
X000360Y027601D01*
X000360Y027759D02*
X002479Y027759D01*
X002514Y027580D02*
X002280Y027346D01*
X002280Y027014D01*
X002514Y026780D01*
X002846Y026780D01*
X003080Y027014D01*
X003080Y027346D01*
X002846Y027580D01*
X002514Y027580D01*
X002376Y027442D02*
X000360Y027442D01*
X000360Y027284D02*
X002280Y027284D01*
X002280Y027125D02*
X000360Y027125D01*
X000360Y026967D02*
X002328Y026967D01*
X002486Y026808D02*
X000360Y026808D01*
X000360Y026650D02*
X003460Y026650D01*
X003460Y026808D02*
X002874Y026808D01*
X003032Y026967D02*
X003460Y026967D01*
X003460Y027125D02*
X003080Y027125D01*
X003080Y027284D02*
X003460Y027284D01*
X003460Y027442D02*
X002984Y027442D01*
X003040Y027918D02*
X003460Y027918D01*
X003460Y028076D02*
X003120Y028076D01*
X003120Y028235D02*
X003460Y028235D01*
X003460Y028393D02*
X003089Y028393D01*
X002931Y028552D02*
X003460Y028552D01*
X003680Y028980D02*
X003680Y021680D01*
X002960Y021736D02*
X002823Y021736D01*
X002960Y021578D02*
X000360Y021578D01*
X000360Y021736D02*
X002537Y021736D01*
X002308Y021895D02*
X000360Y021895D01*
X000360Y022053D02*
X002229Y022053D01*
X002215Y022212D02*
X000360Y022212D01*
X000360Y022370D02*
X002255Y022370D01*
X002371Y022529D02*
X000360Y022529D01*
X000360Y022687D02*
X002960Y022687D01*
X002960Y022846D02*
X000360Y022846D01*
X000360Y023004D02*
X002960Y023004D01*
X002960Y023163D02*
X000360Y023163D01*
X000360Y023321D02*
X002960Y023321D01*
X002960Y023480D02*
X000360Y023480D01*
X000360Y023638D02*
X002960Y023638D01*
X002954Y023797D02*
X002960Y023797D01*
X002406Y023797D02*
X000360Y023797D01*
X000360Y023955D02*
X002270Y023955D01*
X002215Y024088D02*
X002215Y024272D01*
X002280Y024431D02*
X000360Y024431D01*
X000360Y024589D02*
X002452Y024589D01*
X002908Y024589D02*
X002960Y024589D01*
X002960Y024748D02*
X000360Y024748D01*
X000360Y024906D02*
X002960Y024906D01*
X002960Y025065D02*
X000360Y025065D01*
X000360Y025223D02*
X002960Y025223D01*
X002960Y025382D02*
X000360Y025382D01*
X000360Y025540D02*
X002960Y025540D01*
X002862Y025699D02*
X000360Y025699D01*
X000360Y025857D02*
X002862Y025857D01*
X002862Y026016D02*
X000360Y026016D01*
X000360Y026174D02*
X002870Y026174D01*
X003460Y026333D02*
X000360Y026333D01*
X000360Y026491D02*
X003460Y026491D01*
X002320Y027918D02*
X000360Y027918D01*
X000360Y028076D02*
X002240Y028076D01*
X002240Y028235D02*
X000360Y028235D01*
X000360Y028393D02*
X002271Y028393D01*
X003998Y028869D02*
X012960Y028869D01*
X012960Y029027D02*
X003998Y029027D01*
X003998Y029186D02*
X012960Y029186D01*
X012441Y029503D02*
X011919Y029503D01*
X011929Y029507D02*
X012053Y029631D01*
X012120Y029792D01*
X012120Y030568D01*
X012053Y030729D01*
X011929Y030853D01*
X011768Y030920D01*
X011592Y030920D01*
X011431Y030853D01*
X011307Y030729D01*
X011240Y030568D01*
X011240Y029792D01*
X011307Y029631D01*
X011431Y029507D01*
X011592Y029440D01*
X011768Y029440D01*
X011929Y029507D01*
X012066Y029661D02*
X012294Y029661D01*
X012240Y029820D02*
X012120Y029820D01*
X012120Y029978D02*
X012240Y029978D01*
X012240Y030137D02*
X012120Y030137D01*
X012120Y030295D02*
X012240Y030295D01*
X012240Y030454D02*
X012120Y030454D01*
X012102Y030612D02*
X012258Y030612D01*
X012348Y030771D02*
X012012Y030771D01*
X011348Y030771D02*
X011012Y030771D01*
X011053Y030729D02*
X010929Y030853D01*
X010768Y030920D01*
X010592Y030920D01*
X010431Y030853D01*
X010307Y030729D01*
X010240Y030568D01*
X010240Y029792D01*
X010307Y029631D01*
X010431Y029507D01*
X010592Y029440D01*
X010768Y029440D01*
X010929Y029507D01*
X011053Y029631D01*
X011120Y029792D01*
X011120Y030568D01*
X011053Y030729D01*
X011102Y030612D02*
X011258Y030612D01*
X011240Y030454D02*
X011120Y030454D01*
X011120Y030295D02*
X011240Y030295D01*
X011240Y030137D02*
X011120Y030137D01*
X011120Y029978D02*
X011240Y029978D01*
X011240Y029820D02*
X011120Y029820D01*
X011066Y029661D02*
X011294Y029661D01*
X011441Y029503D02*
X010919Y029503D01*
X010441Y029503D02*
X009919Y029503D01*
X009929Y029507D02*
X010053Y029631D01*
X010120Y029792D01*
X010120Y030568D01*
X010053Y030729D01*
X009929Y030853D01*
X009768Y030920D01*
X009592Y030920D01*
X009431Y030853D01*
X009307Y030729D01*
X009240Y030568D01*
X009240Y029792D01*
X009307Y029631D01*
X009431Y029507D01*
X009592Y029440D01*
X009768Y029440D01*
X009929Y029507D01*
X010066Y029661D02*
X010294Y029661D01*
X010240Y029820D02*
X010120Y029820D01*
X010120Y029978D02*
X010240Y029978D01*
X010240Y030137D02*
X010120Y030137D01*
X010120Y030295D02*
X010240Y030295D01*
X010240Y030454D02*
X010120Y030454D01*
X010102Y030612D02*
X010258Y030612D01*
X010348Y030771D02*
X010012Y030771D01*
X009348Y030771D02*
X009012Y030771D01*
X009053Y030729D02*
X008929Y030853D01*
X008768Y030920D01*
X008592Y030920D01*
X008431Y030853D01*
X008307Y030729D01*
X008240Y030568D01*
X008240Y029792D01*
X008307Y029631D01*
X008431Y029507D01*
X008592Y029440D01*
X008768Y029440D01*
X008929Y029507D01*
X009053Y029631D01*
X009120Y029792D01*
X009120Y030568D01*
X009053Y030729D01*
X009102Y030612D02*
X009258Y030612D01*
X009240Y030454D02*
X009120Y030454D01*
X009120Y030295D02*
X009240Y030295D01*
X009240Y030137D02*
X009120Y030137D01*
X009120Y029978D02*
X009240Y029978D01*
X009240Y029820D02*
X009120Y029820D01*
X009066Y029661D02*
X009294Y029661D01*
X009441Y029503D02*
X008919Y029503D01*
X008441Y029503D02*
X007919Y029503D01*
X007929Y029507D02*
X008053Y029631D01*
X008120Y029792D01*
X008120Y030568D01*
X008053Y030729D01*
X007929Y030853D01*
X007768Y030920D01*
X007592Y030920D01*
X007431Y030853D01*
X007307Y030729D01*
X007240Y030568D01*
X007240Y029792D01*
X007307Y029631D01*
X007431Y029507D01*
X007592Y029440D01*
X007768Y029440D01*
X007929Y029507D01*
X008066Y029661D02*
X008294Y029661D01*
X008240Y029820D02*
X008120Y029820D01*
X008120Y029978D02*
X008240Y029978D01*
X008240Y030137D02*
X008120Y030137D01*
X008120Y030295D02*
X008240Y030295D01*
X008240Y030454D02*
X008120Y030454D01*
X008102Y030612D02*
X008258Y030612D01*
X008348Y030771D02*
X008012Y030771D01*
X007348Y030771D02*
X007062Y030771D01*
X007046Y030793D02*
X006993Y030846D01*
X006932Y030891D01*
X006864Y030925D01*
X006792Y030948D01*
X006718Y030960D01*
X006700Y030960D01*
X006700Y030200D01*
X006660Y030200D01*
X006660Y030960D01*
X006642Y030960D01*
X006568Y030948D01*
X006496Y030925D01*
X006428Y030891D01*
X006367Y030846D01*
X006314Y030793D01*
X006269Y030732D01*
X006235Y030664D01*
X006212Y030592D01*
X006200Y030518D01*
X006200Y030200D01*
X006660Y030200D01*
X006660Y030160D01*
X006200Y030160D01*
X006200Y029842D01*
X006212Y029768D01*
X006235Y029696D01*
X006269Y029628D01*
X006314Y029567D01*
X006367Y029514D01*
X006428Y029469D01*
X006496Y029435D01*
X006568Y029412D01*
X006642Y029400D01*
X006660Y029400D01*
X006660Y030160D01*
X006700Y030160D01*
X006700Y030200D01*
X007160Y030200D01*
X007160Y030518D01*
X007148Y030592D01*
X007125Y030664D01*
X007091Y030732D01*
X007046Y030793D01*
X007142Y030612D02*
X007258Y030612D01*
X007240Y030454D02*
X007160Y030454D01*
X007160Y030295D02*
X007240Y030295D01*
X007160Y030160D02*
X006700Y030160D01*
X006700Y029400D01*
X006718Y029400D01*
X006792Y029412D01*
X006864Y029435D01*
X006932Y029469D01*
X006993Y029514D01*
X007046Y029567D01*
X007091Y029628D01*
X007125Y029696D01*
X007148Y029768D01*
X007160Y029842D01*
X007160Y030160D01*
X007160Y030137D02*
X007240Y030137D01*
X007240Y029978D02*
X007160Y029978D01*
X007156Y029820D02*
X007240Y029820D01*
X007294Y029661D02*
X007107Y029661D01*
X006977Y029503D02*
X007441Y029503D01*
X006700Y029503D02*
X006660Y029503D01*
X006660Y029661D02*
X006700Y029661D01*
X006700Y029820D02*
X006660Y029820D01*
X006660Y029978D02*
X006700Y029978D01*
X006700Y030137D02*
X006660Y030137D01*
X006660Y030295D02*
X006700Y030295D01*
X006700Y030454D02*
X006660Y030454D01*
X006660Y030612D02*
X006700Y030612D01*
X006700Y030771D02*
X006660Y030771D01*
X006660Y030929D02*
X006700Y030929D01*
X006851Y030929D02*
X012960Y030929D01*
X012960Y031088D02*
X000360Y031088D01*
X000360Y031246D02*
X012960Y031246D01*
X012960Y031405D02*
X000360Y031405D01*
X000360Y031563D02*
X012960Y031563D01*
X012960Y031722D02*
X000360Y031722D01*
X000360Y031880D02*
X012960Y031880D01*
X012960Y032039D02*
X000360Y032039D01*
X000360Y032197D02*
X012960Y032197D01*
X012960Y032356D02*
X011978Y032356D01*
X011862Y032240D02*
X012120Y032498D01*
X012120Y032680D01*
X012120Y032862D01*
X011862Y033120D01*
X011680Y033120D01*
X011680Y032680D01*
X012120Y032680D01*
X011680Y032680D01*
X011680Y032680D01*
X011680Y032680D01*
X011680Y032240D01*
X011862Y032240D01*
X011680Y032240D02*
X011680Y032680D01*
X011680Y032680D01*
X011680Y032680D01*
X011240Y032680D01*
X011240Y032862D01*
X011498Y033120D01*
X011680Y033120D01*
X011680Y032680D01*
X011240Y032680D01*
X011240Y032498D01*
X011498Y032240D01*
X011680Y032240D01*
X011680Y032356D02*
X011680Y032356D01*
X011680Y032514D02*
X011680Y032514D01*
X011680Y032673D02*
X011680Y032673D01*
X011680Y032831D02*
X011680Y032831D01*
X011680Y032990D02*
X011680Y032990D01*
X011993Y032990D02*
X012862Y032990D01*
X012862Y033148D02*
X000360Y033148D01*
X000360Y032990D02*
X007424Y032990D01*
X007514Y033080D02*
X007280Y032846D01*
X007280Y032514D01*
X000360Y032514D01*
X000360Y032356D02*
X007439Y032356D01*
X007514Y032280D02*
X007280Y032514D01*
X007280Y032673D02*
X000360Y032673D01*
X000360Y032831D02*
X007280Y032831D01*
X007514Y033080D02*
X007846Y033080D01*
X008080Y032846D01*
X008080Y032514D01*
X011240Y032514D01*
X011240Y032673D02*
X008080Y032673D01*
X008080Y032831D02*
X011240Y032831D01*
X011367Y032990D02*
X007936Y032990D01*
X008080Y032514D02*
X007846Y032280D01*
X007514Y032280D01*
X007921Y032356D02*
X011382Y032356D01*
X012120Y032514D02*
X012960Y032514D01*
X012883Y032673D02*
X012120Y032673D01*
X012120Y032831D02*
X012862Y032831D01*
X016012Y030771D02*
X016348Y030771D01*
X016258Y030612D02*
X016102Y030612D01*
X016120Y030454D02*
X016240Y030454D01*
X016240Y030295D02*
X016120Y030295D01*
X016120Y030137D02*
X016240Y030137D01*
X016240Y029978D02*
X016120Y029978D01*
X016120Y029820D02*
X016240Y029820D01*
X016294Y029661D02*
X016066Y029661D01*
X015919Y029503D02*
X016441Y029503D01*
X016919Y029503D02*
X016980Y029503D01*
X017380Y029503D02*
X017441Y029503D01*
X017919Y029503D02*
X018441Y029503D01*
X018294Y029661D02*
X018066Y029661D01*
X018120Y029820D02*
X018240Y029820D01*
X018240Y029978D02*
X018120Y029978D01*
X018120Y030137D02*
X018240Y030137D01*
X018240Y030295D02*
X018120Y030295D01*
X018120Y030454D02*
X018240Y030454D01*
X018258Y030612D02*
X018102Y030612D01*
X018012Y030771D02*
X018348Y030771D01*
X018998Y031088D02*
X019026Y031088D01*
X018998Y031246D02*
X019185Y031246D01*
X019343Y031405D02*
X018998Y031405D01*
X022150Y028076D02*
X038992Y028076D01*
X038992Y027918D02*
X022150Y027918D01*
X022150Y027759D02*
X038992Y027759D01*
X038992Y027601D02*
X022150Y027601D01*
X022150Y027442D02*
X030376Y027442D01*
X030280Y027346D02*
X030280Y027014D01*
X030514Y026780D01*
X030846Y026780D01*
X031080Y027014D01*
X031080Y027346D01*
X030846Y027580D01*
X030514Y027580D01*
X030280Y027346D01*
X030280Y027284D02*
X022150Y027284D01*
X022150Y027125D02*
X022359Y027125D01*
X022408Y027174D02*
X022244Y027010D01*
X022155Y026796D01*
X022155Y026564D01*
X022244Y026350D01*
X022408Y026186D01*
X022622Y026098D01*
X023738Y026098D01*
X023952Y026186D01*
X024116Y026350D01*
X024205Y026564D01*
X024205Y026796D01*
X024116Y027010D01*
X023952Y027174D01*
X023738Y027262D01*
X022622Y027262D01*
X022408Y027174D01*
X022226Y026967D02*
X022150Y026967D01*
X022150Y026808D02*
X022160Y026808D01*
X022150Y026650D02*
X022155Y026650D01*
X022150Y026491D02*
X022185Y026491D01*
X022150Y026333D02*
X022261Y026333D01*
X022150Y026174D02*
X022437Y026174D01*
X022150Y026016D02*
X036093Y026016D01*
X036131Y026053D02*
X036007Y025929D01*
X035940Y025768D01*
X035940Y025592D01*
X036007Y025431D01*
X036131Y025307D01*
X036292Y025240D01*
X037068Y025240D01*
X037229Y025307D01*
X037353Y025431D01*
X037420Y025592D01*
X037420Y025768D01*
X037353Y025929D01*
X037229Y026053D01*
X037068Y026120D01*
X036292Y026120D01*
X036131Y026053D01*
X035977Y025857D02*
X022150Y025857D01*
X022150Y025699D02*
X035940Y025699D01*
X035962Y025540D02*
X022150Y025540D01*
X022150Y025382D02*
X022862Y025382D01*
X022862Y025223D02*
X022150Y025223D01*
X022150Y025065D02*
X022862Y025065D01*
X022900Y024906D02*
X022150Y024906D01*
X022150Y024748D02*
X024301Y024748D01*
X024143Y024906D02*
X023460Y024906D01*
X023180Y025180D02*
X024180Y025180D01*
X024880Y024480D01*
X024880Y022480D01*
X024080Y021680D01*
X023180Y021680D01*
X021680Y021680D02*
X021680Y024180D01*
X021930Y024430D01*
X021619Y024431D02*
X021352Y024431D01*
X021418Y024272D02*
X021461Y024272D01*
X021460Y024114D02*
X021420Y024114D01*
X021460Y023955D02*
X021363Y023955D01*
X021460Y023797D02*
X021204Y023797D01*
X021460Y023638D02*
X019650Y023638D01*
X019430Y024180D02*
X019930Y024680D01*
X019686Y024748D02*
X017120Y024748D01*
X017112Y024740D02*
X017370Y024998D01*
X017370Y025180D01*
X017370Y025362D01*
X017112Y025620D01*
X016930Y025620D01*
X016930Y025180D01*
X017370Y025180D01*
X016930Y025180D01*
X016930Y025180D01*
X016930Y025180D01*
X016930Y024740D01*
X017112Y024740D01*
X016930Y024740D02*
X016930Y025180D01*
X016930Y025180D01*
X016930Y025180D01*
X016490Y025180D01*
X016490Y025362D01*
X016748Y025620D01*
X016930Y025620D01*
X016930Y025180D01*
X016490Y025180D01*
X016490Y024998D01*
X016748Y024740D01*
X016930Y024740D01*
X016930Y024748D02*
X016930Y024748D01*
X016930Y024906D02*
X016930Y024906D01*
X016930Y025065D02*
X016930Y025065D01*
X016930Y025223D02*
X016930Y025223D01*
X016930Y025382D02*
X016930Y025382D01*
X016930Y025540D02*
X016930Y025540D01*
X017192Y025540D02*
X019009Y025540D01*
X018960Y025699D02*
X014444Y025699D01*
X014603Y025540D02*
X015724Y025540D01*
X015764Y025580D02*
X015530Y025346D01*
X015530Y025014D01*
X015764Y024780D01*
X016096Y024780D01*
X016330Y025014D01*
X016330Y025346D01*
X016096Y025580D01*
X015764Y025580D01*
X015566Y025382D02*
X014761Y025382D01*
X014880Y025223D02*
X015530Y025223D01*
X015530Y025065D02*
X014880Y025065D01*
X014880Y024906D02*
X015638Y024906D01*
X015012Y024431D02*
X017476Y024431D01*
X017278Y024906D02*
X019643Y024906D01*
X019484Y025065D02*
X017370Y025065D01*
X017370Y025223D02*
X019326Y025223D01*
X019167Y025382D02*
X017351Y025382D01*
X016668Y025540D02*
X016136Y025540D01*
X016294Y025382D02*
X016509Y025382D01*
X016490Y025223D02*
X016330Y025223D01*
X016330Y025065D02*
X016490Y025065D01*
X016582Y024906D02*
X016222Y024906D01*
X016740Y024748D02*
X014880Y024748D01*
X014880Y024589D02*
X019528Y024589D01*
X019369Y024431D02*
X018084Y024431D01*
X018098Y024272D02*
X019211Y024272D01*
X019210Y024114D02*
X018098Y024114D01*
X019430Y024180D02*
X019430Y022930D01*
X020180Y022180D01*
X020680Y022180D01*
X021170Y021578D02*
X021266Y021578D01*
X021180Y021180D02*
X021680Y021680D01*
X021180Y021180D02*
X020680Y021180D01*
X021268Y022846D02*
X021460Y022846D01*
X021460Y023004D02*
X021383Y023004D01*
X021420Y023163D02*
X021460Y023163D01*
X021460Y023321D02*
X021398Y023321D01*
X021460Y023480D02*
X021303Y023480D01*
X021900Y023480D02*
X022190Y023480D01*
X022155Y023638D02*
X021900Y023638D01*
X021900Y023797D02*
X022155Y023797D01*
X022221Y023955D02*
X021900Y023955D01*
X021925Y024114D02*
X022347Y024114D01*
X021710Y024748D02*
X021684Y024748D01*
X021432Y025382D02*
X021373Y025382D01*
X021460Y025857D02*
X021279Y025857D01*
X021388Y026016D02*
X021460Y026016D01*
X021460Y026174D02*
X021420Y026174D01*
X021393Y026333D02*
X021460Y026333D01*
X021460Y026491D02*
X021291Y026491D01*
X020118Y025540D02*
X019631Y025540D01*
X019790Y025382D02*
X019987Y025382D01*
X021900Y023321D02*
X022273Y023321D01*
X022465Y023163D02*
X021900Y023163D01*
X024290Y025382D02*
X036056Y025382D01*
X036159Y025065D02*
X024607Y025065D01*
X024448Y025223D02*
X038992Y025223D01*
X038992Y025065D02*
X037201Y025065D01*
X037229Y025053D02*
X037068Y025120D01*
X036292Y025120D01*
X036131Y025053D01*
X036007Y024929D01*
X035940Y024768D01*
X035940Y024592D01*
X036007Y024431D01*
X036131Y024307D01*
X036292Y024240D01*
X037068Y024240D01*
X037229Y024307D01*
X037353Y024431D01*
X037420Y024592D01*
X037420Y024768D01*
X037353Y024929D01*
X037229Y025053D01*
X037363Y024906D02*
X038992Y024906D01*
X038992Y024748D02*
X037420Y024748D01*
X037419Y024589D02*
X038992Y024589D01*
X038992Y024431D02*
X037353Y024431D01*
X037145Y024272D02*
X038992Y024272D01*
X038992Y024114D02*
X037186Y024114D01*
X037164Y024125D02*
X037092Y024148D01*
X037018Y024160D01*
X036700Y024160D01*
X036700Y023700D01*
X036660Y023700D01*
X036660Y024160D01*
X036342Y024160D01*
X036268Y024148D01*
X036196Y024125D01*
X036128Y024091D01*
X036067Y024046D01*
X036014Y023993D01*
X035969Y023932D01*
X035935Y023864D01*
X035912Y023792D01*
X035900Y023718D01*
X035900Y023700D01*
X036660Y023700D01*
X036660Y023660D01*
X036700Y023660D01*
X036700Y023700D01*
X037460Y023700D01*
X037460Y023718D01*
X037448Y023792D01*
X037425Y023864D01*
X037391Y023932D01*
X037346Y023993D01*
X037293Y024046D01*
X037232Y024091D01*
X037164Y024125D01*
X037373Y023955D02*
X038992Y023955D01*
X038992Y023797D02*
X037447Y023797D01*
X037460Y023660D02*
X036700Y023660D01*
X036700Y023200D01*
X037018Y023200D01*
X037092Y023212D01*
X037164Y023235D01*
X037232Y023269D01*
X037293Y023314D01*
X037346Y023367D01*
X037391Y023428D01*
X037425Y023496D01*
X037448Y023568D01*
X037460Y023642D01*
X037460Y023660D01*
X037459Y023638D02*
X038992Y023638D01*
X038992Y023480D02*
X037417Y023480D01*
X037300Y023321D02*
X038992Y023321D01*
X038992Y023163D02*
X029895Y023163D01*
X029952Y023186D02*
X029738Y023098D01*
X028622Y023098D01*
X028408Y023186D01*
X028244Y023350D01*
X028155Y023564D01*
X028155Y023796D01*
X028244Y024010D01*
X028408Y024174D01*
X028622Y024262D01*
X029738Y024262D01*
X029952Y024174D01*
X030116Y024010D01*
X030205Y023796D01*
X030205Y023564D01*
X030116Y023350D01*
X029952Y023186D01*
X030087Y023321D02*
X036060Y023321D01*
X036067Y023314D02*
X036128Y023269D01*
X036196Y023235D01*
X036268Y023212D01*
X036342Y023200D01*
X036660Y023200D01*
X036660Y023660D01*
X035900Y023660D01*
X035900Y023642D01*
X035912Y023568D01*
X035935Y023496D01*
X035969Y023428D01*
X036014Y023367D01*
X036067Y023314D01*
X035943Y023480D02*
X030170Y023480D01*
X030205Y023638D02*
X035901Y023638D01*
X035913Y023797D02*
X030205Y023797D01*
X030139Y023955D02*
X035987Y023955D01*
X036174Y024114D02*
X030013Y024114D01*
X028347Y024114D02*
X025100Y024114D01*
X025100Y024272D02*
X036215Y024272D01*
X036007Y024431D02*
X025100Y024431D01*
X025082Y024589D02*
X035941Y024589D01*
X035940Y024748D02*
X024924Y024748D01*
X024765Y024906D02*
X035997Y024906D01*
X036660Y024114D02*
X036700Y024114D01*
X036700Y023955D02*
X036660Y023955D01*
X036660Y023797D02*
X036700Y023797D01*
X036700Y023638D02*
X036660Y023638D01*
X036660Y023480D02*
X036700Y023480D01*
X036700Y023321D02*
X036660Y023321D01*
X036292Y023120D02*
X036131Y023053D01*
X036007Y022929D01*
X035940Y022768D01*
X035940Y022592D01*
X036007Y022431D01*
X036131Y022307D01*
X036292Y022240D01*
X037068Y022240D01*
X037229Y022307D01*
X037353Y022431D01*
X037420Y022592D01*
X037420Y022768D01*
X037353Y022929D01*
X037229Y023053D01*
X037068Y023120D01*
X036292Y023120D01*
X036082Y023004D02*
X025100Y023004D01*
X025100Y022846D02*
X035972Y022846D01*
X035940Y022687D02*
X025100Y022687D01*
X025100Y022529D02*
X035966Y022529D01*
X036068Y022370D02*
X025081Y022370D01*
X024923Y022212D02*
X038992Y022212D01*
X038992Y022370D02*
X037292Y022370D01*
X037394Y022529D02*
X038992Y022529D01*
X038992Y022687D02*
X037420Y022687D01*
X037388Y022846D02*
X038992Y022846D01*
X038992Y023004D02*
X037278Y023004D01*
X037068Y022120D02*
X036292Y022120D01*
X036131Y022053D01*
X034873Y022053D01*
X035031Y021895D02*
X035993Y021895D01*
X036007Y021929D02*
X035940Y021768D01*
X035940Y021592D01*
X036007Y021431D01*
X035946Y021578D02*
X035080Y021578D01*
X035080Y021736D02*
X035940Y021736D01*
X036007Y021929D02*
X036131Y022053D01*
X037068Y022120D02*
X037229Y022053D01*
X037304Y025382D02*
X038992Y025382D01*
X038992Y025540D02*
X037398Y025540D01*
X037420Y025699D02*
X038992Y025699D01*
X038992Y025857D02*
X037383Y025857D01*
X037267Y026016D02*
X038992Y026016D01*
X038992Y026174D02*
X029923Y026174D01*
X029952Y026186D02*
X030116Y026350D01*
X030205Y026564D01*
X030205Y026796D01*
X030116Y027010D01*
X029952Y027174D01*
X029738Y027262D01*
X028622Y027262D01*
X028408Y027174D01*
X028244Y027010D01*
X028155Y026796D01*
X028155Y026564D01*
X028244Y026350D01*
X028408Y026186D01*
X028622Y026098D01*
X029738Y026098D01*
X029952Y026186D01*
X030099Y026333D02*
X038992Y026333D01*
X038992Y026491D02*
X030175Y026491D01*
X030205Y026650D02*
X038992Y026650D01*
X038992Y026808D02*
X034874Y026808D01*
X034846Y026780D02*
X035080Y027014D01*
X035080Y027346D01*
X034846Y027580D01*
X034514Y027580D01*
X034280Y027346D01*
X034280Y027014D01*
X034514Y026780D01*
X034846Y026780D01*
X035032Y026967D02*
X038992Y026967D01*
X038992Y027125D02*
X035080Y027125D01*
X035080Y027284D02*
X038992Y027284D01*
X038992Y027442D02*
X034984Y027442D01*
X034376Y027442D02*
X030984Y027442D01*
X031080Y027284D02*
X034280Y027284D01*
X034280Y027125D02*
X031080Y027125D01*
X031032Y026967D02*
X034328Y026967D01*
X034486Y026808D02*
X030874Y026808D01*
X030486Y026808D02*
X030200Y026808D01*
X030134Y026967D02*
X030328Y026967D01*
X030280Y027125D02*
X030001Y027125D01*
X028359Y027125D02*
X024001Y027125D01*
X024134Y026967D02*
X028226Y026967D01*
X028160Y026808D02*
X024200Y026808D01*
X024205Y026650D02*
X028155Y026650D01*
X028185Y026491D02*
X024175Y026491D01*
X024099Y026333D02*
X028261Y026333D01*
X028437Y026174D02*
X023923Y026174D01*
X025100Y023955D02*
X028221Y023955D01*
X028155Y023797D02*
X025100Y023797D01*
X025100Y023638D02*
X028155Y023638D01*
X028190Y023480D02*
X025100Y023480D01*
X025100Y023321D02*
X028273Y023321D01*
X028465Y023163D02*
X025100Y023163D01*
X020162Y018566D02*
X008080Y018566D01*
X008080Y018408D02*
X019998Y018408D01*
X019940Y018249D02*
X008065Y018249D01*
X007906Y018091D02*
X019941Y018091D01*
X020006Y017932D02*
X006354Y017932D01*
X006419Y018091D02*
X007454Y018091D01*
X007295Y018249D02*
X006420Y018249D01*
X006362Y018408D02*
X007280Y018408D01*
X007280Y018566D02*
X006198Y018566D01*
X005212Y017774D02*
X003985Y017774D01*
X004143Y017932D02*
X005006Y017932D01*
X005176Y017615D02*
X003826Y017615D01*
X003668Y017457D02*
X004988Y017457D01*
X004914Y017298D02*
X003509Y017298D01*
X003351Y017140D02*
X004900Y017140D01*
X005660Y017140D02*
X005700Y017140D01*
X005700Y017298D02*
X005660Y017298D01*
X005660Y017457D02*
X005700Y017457D01*
X005700Y017615D02*
X005660Y017615D01*
X005660Y016981D02*
X005700Y016981D01*
X005700Y016823D02*
X005660Y016823D01*
X004993Y015396D02*
X000360Y015396D01*
X000360Y015238D02*
X000596Y015238D01*
X000611Y015252D02*
X000468Y015109D01*
X000390Y014921D01*
X000390Y014719D01*
X000468Y014531D01*
X000611Y014388D01*
X000799Y014310D01*
X001001Y014310D01*
X001189Y014388D01*
X001332Y014531D01*
X001410Y014719D01*
X001410Y014921D01*
X001332Y015109D01*
X001189Y015252D01*
X001001Y015330D01*
X000799Y015330D01*
X000611Y015252D01*
X000455Y015079D02*
X000360Y015079D01*
X000360Y014921D02*
X000390Y014921D01*
X000390Y014762D02*
X000360Y014762D01*
X000360Y014604D02*
X000438Y014604D01*
X000360Y014445D02*
X000554Y014445D01*
X000360Y014287D02*
X004948Y014287D01*
X004940Y014128D02*
X000360Y014128D01*
X000360Y013970D02*
X004991Y013970D01*
X005023Y014445D02*
X003806Y014445D01*
X003749Y014388D02*
X003892Y014531D01*
X003970Y014719D01*
X003970Y014921D01*
X003892Y015109D01*
X003749Y015252D01*
X003561Y015330D01*
X003359Y015330D01*
X003171Y015252D01*
X003028Y015109D01*
X002950Y014921D01*
X002950Y014719D01*
X003028Y014531D01*
X003171Y014388D01*
X003359Y014310D01*
X003561Y014310D01*
X003749Y014388D01*
X003922Y014604D02*
X005253Y014604D01*
X005239Y014762D02*
X003970Y014762D01*
X003970Y014921D02*
X005017Y014921D01*
X004946Y015079D02*
X003905Y015079D01*
X003764Y015238D02*
X004940Y015238D01*
X003156Y015238D02*
X001204Y015238D01*
X001345Y015079D02*
X003015Y015079D01*
X002950Y014921D02*
X001410Y014921D01*
X001410Y014762D02*
X002950Y014762D01*
X002998Y014604D02*
X001362Y014604D01*
X001246Y014445D02*
X003114Y014445D01*
X003149Y013494D02*
X001137Y013494D01*
X001189Y013472D02*
X001001Y013550D01*
X000799Y013550D01*
X000611Y013472D01*
X000468Y013329D01*
X000390Y013141D01*
X000390Y012939D01*
X000468Y012751D01*
X000611Y012608D01*
X000799Y012530D01*
X001001Y012530D01*
X001189Y012608D01*
X001332Y012751D01*
X001410Y012939D01*
X001410Y013141D01*
X001332Y013329D01*
X001189Y013472D01*
X001326Y013336D02*
X002995Y013336D01*
X002926Y013177D02*
X001395Y013177D01*
X001410Y013019D02*
X002910Y013019D01*
X002910Y013020D02*
X002910Y012997D01*
X002924Y012911D01*
X002950Y012829D01*
X002990Y012752D01*
X003040Y012682D01*
X003102Y012620D01*
X003172Y012570D01*
X003249Y012530D01*
X003331Y012504D01*
X003417Y012490D01*
X003440Y012490D01*
X003440Y013020D01*
X002910Y013020D01*
X002940Y012860D02*
X001377Y012860D01*
X001283Y012702D02*
X003026Y012702D01*
X003224Y012543D02*
X001033Y012543D01*
X000767Y012543D02*
X000360Y012543D01*
X000360Y012385D02*
X012573Y012385D01*
X012460Y012226D02*
X000360Y012226D01*
X000360Y012068D02*
X012460Y012068D01*
X012460Y011909D02*
X011794Y011909D01*
X011768Y011920D02*
X011592Y011920D01*
X011431Y011853D01*
X011307Y011729D01*
X011240Y011568D01*
X011240Y010792D01*
X011307Y010631D01*
X011431Y010507D01*
X011592Y010440D01*
X011768Y010440D01*
X011929Y010507D01*
X012053Y010631D01*
X012120Y010792D01*
X012120Y011568D01*
X012053Y011729D01*
X011929Y011853D01*
X011768Y011920D01*
X011566Y011909D02*
X010794Y011909D01*
X010768Y011920D02*
X010592Y011920D01*
X010431Y011853D01*
X010307Y011729D01*
X010240Y011568D01*
X010240Y010792D01*
X010307Y010631D01*
X010431Y010507D01*
X010592Y010440D01*
X010768Y010440D01*
X010929Y010507D01*
X011053Y010631D01*
X011120Y010792D01*
X011120Y011568D01*
X011053Y011729D01*
X010929Y011853D01*
X010768Y011920D01*
X010566Y011909D02*
X009794Y011909D01*
X009768Y011920D02*
X009592Y011920D01*
X009431Y011853D01*
X009307Y011729D01*
X009240Y011568D01*
X009240Y010792D01*
X009307Y010631D01*
X009431Y010507D01*
X009592Y010440D01*
X009768Y010440D01*
X009929Y010507D01*
X010053Y010631D01*
X010120Y010792D01*
X010120Y011568D01*
X010053Y011729D01*
X009929Y011853D01*
X009768Y011920D01*
X009566Y011909D02*
X008794Y011909D01*
X008768Y011920D02*
X008592Y011920D01*
X008431Y011853D01*
X008307Y011729D01*
X008240Y011568D01*
X008240Y010792D01*
X008307Y010631D01*
X008431Y010507D01*
X008592Y010440D01*
X008768Y010440D01*
X008929Y010507D01*
X009053Y010631D01*
X009120Y010792D01*
X009120Y011568D01*
X009053Y011729D01*
X008929Y011853D01*
X008768Y011920D01*
X008566Y011909D02*
X007794Y011909D01*
X007768Y011920D02*
X007592Y011920D01*
X007431Y011853D01*
X007307Y011729D01*
X007240Y011568D01*
X007240Y010792D01*
X007307Y010631D01*
X007431Y010507D01*
X007592Y010440D01*
X007768Y010440D01*
X007929Y010507D01*
X008053Y010631D01*
X008120Y010792D01*
X008120Y011568D01*
X008053Y011729D01*
X007929Y011853D01*
X007768Y011920D01*
X007566Y011909D02*
X006895Y011909D01*
X006864Y011925D02*
X006792Y011948D01*
X006718Y011960D01*
X006700Y011960D01*
X006700Y011200D01*
X007160Y011200D01*
X007160Y011518D01*
X007148Y011592D01*
X007250Y011592D01*
X007148Y011592D02*
X007125Y011664D01*
X007091Y011732D01*
X007046Y011793D01*
X006993Y011846D01*
X006932Y011891D01*
X006864Y011925D01*
X006700Y011909D02*
X006660Y011909D01*
X006660Y011960D02*
X006642Y011960D01*
X006568Y011948D01*
X006496Y011925D01*
X006428Y011891D01*
X006367Y011846D01*
X006314Y011793D01*
X006269Y011732D01*
X006235Y011664D01*
X006212Y011592D01*
X006110Y011592D01*
X006120Y011568D02*
X006053Y011729D01*
X005929Y011853D01*
X005768Y011920D01*
X005592Y011920D01*
X005431Y011853D01*
X005307Y011729D01*
X005240Y011568D01*
X005240Y010792D01*
X005307Y010631D01*
X005431Y010507D01*
X005592Y010440D01*
X005768Y010440D01*
X005929Y010507D01*
X006053Y010631D01*
X006120Y010792D01*
X006120Y011568D01*
X006200Y011518D02*
X006200Y011200D01*
X006660Y011200D01*
X006660Y011960D01*
X006465Y011909D02*
X005794Y011909D01*
X005566Y011909D02*
X000360Y011909D01*
X000360Y011751D02*
X005328Y011751D01*
X005250Y011592D02*
X000360Y011592D01*
X000360Y011434D02*
X005240Y011434D01*
X005240Y011275D02*
X000360Y011275D01*
X000360Y011117D02*
X005240Y011117D01*
X005240Y010958D02*
X000360Y010958D01*
X000360Y010800D02*
X005240Y010800D01*
X005303Y010641D02*
X000360Y010641D01*
X000360Y010483D02*
X005490Y010483D01*
X005870Y010483D02*
X006410Y010483D01*
X006428Y010469D02*
X006496Y010435D01*
X006568Y010412D01*
X006642Y010400D01*
X006660Y010400D01*
X006660Y011160D01*
X006700Y011160D01*
X006700Y011200D01*
X006660Y011200D01*
X006660Y011160D01*
X006200Y011160D01*
X006200Y010842D01*
X006212Y010768D01*
X006235Y010696D01*
X006269Y010628D01*
X006314Y010567D01*
X006367Y010514D01*
X006428Y010469D01*
X006660Y010483D02*
X006700Y010483D01*
X006700Y010400D02*
X006718Y010400D01*
X006792Y010412D01*
X006864Y010435D01*
X006932Y010469D01*
X006993Y010514D01*
X007046Y010567D01*
X007091Y010628D01*
X007125Y010696D01*
X007148Y010768D01*
X007160Y010842D01*
X007160Y011160D01*
X006700Y011160D01*
X006700Y010400D01*
X006666Y010248D02*
X006748Y010166D01*
X006748Y010150D01*
X008112Y010150D01*
X008112Y010166D01*
X008194Y010248D01*
X008666Y010248D01*
X008748Y010166D01*
X008748Y009694D01*
X008666Y009612D01*
X008194Y009612D01*
X008112Y009694D01*
X008112Y009710D01*
X006748Y009710D01*
X006748Y009694D01*
X006666Y009612D01*
X006194Y009612D01*
X006112Y009694D01*
X006112Y010166D01*
X006194Y010248D01*
X006666Y010248D01*
X006748Y010166D02*
X008112Y010166D01*
X008430Y009930D02*
X006430Y009930D01*
X006112Y010007D02*
X000360Y010007D01*
X000360Y009849D02*
X006112Y009849D01*
X006116Y009690D02*
X000360Y009690D01*
X000360Y009532D02*
X002242Y009532D01*
X002166Y009500D02*
X001960Y009294D01*
X001849Y009025D01*
X001849Y008735D01*
X001960Y008466D01*
X002166Y008260D01*
X002435Y008149D01*
X002725Y008149D01*
X002994Y008260D01*
X003200Y008466D01*
X003311Y008735D01*
X003311Y009025D01*
X003200Y009294D01*
X002994Y009500D01*
X002725Y009611D01*
X002435Y009611D01*
X002166Y009500D01*
X002039Y009373D02*
X000360Y009373D01*
X000360Y009215D02*
X001927Y009215D01*
X001861Y009056D02*
X000360Y009056D01*
X000360Y008898D02*
X001849Y008898D01*
X001849Y008739D02*
X000360Y008739D01*
X000360Y008581D02*
X001913Y008581D01*
X002004Y008422D02*
X000360Y008422D01*
X000360Y008264D02*
X002162Y008264D01*
X002998Y008264D02*
X010740Y008264D01*
X010740Y008422D02*
X003156Y008422D01*
X003247Y008581D02*
X010745Y008581D01*
X010740Y008568D02*
X010807Y008729D01*
X010931Y008853D01*
X011092Y008920D01*
X011268Y008920D01*
X011429Y008853D01*
X011553Y008729D01*
X011620Y008568D01*
X011620Y007792D01*
X011553Y007631D01*
X011429Y007507D01*
X011268Y007440D01*
X011092Y007440D01*
X010931Y007507D01*
X010807Y007631D01*
X010740Y007792D01*
X010740Y008568D01*
X010817Y008739D02*
X003311Y008739D01*
X003311Y008898D02*
X005908Y008898D01*
X005944Y008862D02*
X006416Y008862D01*
X006498Y008944D01*
X006498Y008960D01*
X007862Y008960D01*
X007862Y008944D01*
X007944Y008862D01*
X008416Y008862D01*
X008498Y008944D01*
X008498Y009416D01*
X008416Y009498D01*
X007944Y009498D01*
X007862Y009416D01*
X007862Y009400D01*
X006498Y009400D01*
X006498Y009416D01*
X006416Y009498D01*
X005944Y009498D01*
X005862Y009416D01*
X005862Y008944D01*
X005944Y008862D01*
X005862Y009056D02*
X003299Y009056D01*
X003233Y009215D02*
X005862Y009215D01*
X005862Y009373D02*
X003121Y009373D01*
X002918Y009532D02*
X017717Y009532D01*
X017589Y009660D02*
X018689Y008560D01*
X020589Y008560D01*
X020651Y008498D01*
X020194Y008498D01*
X020112Y008416D01*
X020112Y008400D01*
X018748Y008400D01*
X018748Y008416D01*
X018666Y008498D01*
X018194Y008498D01*
X018112Y008416D01*
X018112Y007944D01*
X018194Y007862D01*
X018666Y007862D01*
X018748Y007944D01*
X018748Y007960D01*
X020112Y007960D01*
X020112Y007944D01*
X020194Y007862D01*
X020666Y007862D01*
X020748Y007944D01*
X020748Y008256D01*
X021460Y005898D01*
X021460Y005839D01*
X021485Y005814D01*
X021496Y005779D01*
X021547Y005751D01*
X021589Y005710D01*
X021625Y005710D01*
X021656Y005693D01*
X021712Y005710D01*
X032021Y005710D01*
X032150Y005839D01*
X032900Y006589D01*
X032900Y006862D01*
X032916Y006862D01*
X032998Y006944D01*
X032998Y007416D01*
X032916Y007498D01*
X032444Y007498D01*
X032362Y007416D01*
X032362Y006944D01*
X032444Y006862D01*
X032460Y006862D01*
X032460Y006771D01*
X031839Y006150D01*
X021843Y006150D01*
X021100Y008612D01*
X021100Y008671D01*
X021075Y008696D01*
X021064Y008731D01*
X021013Y008759D01*
X020900Y008871D01*
X020771Y009000D01*
X018871Y009000D01*
X017900Y009971D01*
X017900Y010495D01*
X017929Y010507D01*
X018053Y010631D01*
X018120Y010792D01*
X018120Y011568D01*
X018053Y011729D01*
X017929Y011853D01*
X017768Y011920D01*
X017592Y011920D01*
X017431Y011853D01*
X017307Y011729D01*
X017240Y011568D01*
X017240Y010792D01*
X017307Y010631D01*
X017431Y010507D01*
X017460Y010495D01*
X017460Y009789D01*
X017589Y009660D01*
X017559Y009690D02*
X008744Y009690D01*
X008748Y009849D02*
X017460Y009849D01*
X017460Y010007D02*
X008748Y010007D01*
X008748Y010166D02*
X017460Y010166D01*
X017460Y010324D02*
X000360Y010324D01*
X000360Y010166D02*
X006112Y010166D01*
X006057Y010641D02*
X006263Y010641D01*
X006207Y010800D02*
X006120Y010800D01*
X006120Y010958D02*
X006200Y010958D01*
X006200Y011117D02*
X006120Y011117D01*
X006120Y011275D02*
X006200Y011275D01*
X006200Y011434D02*
X006120Y011434D01*
X006200Y011518D02*
X006212Y011592D01*
X006283Y011751D02*
X006032Y011751D01*
X006660Y011751D02*
X006700Y011751D01*
X006700Y011592D02*
X006660Y011592D01*
X006660Y011434D02*
X006700Y011434D01*
X006700Y011275D02*
X006660Y011275D01*
X006660Y011117D02*
X006700Y011117D01*
X006700Y010958D02*
X006660Y010958D01*
X006660Y010800D02*
X006700Y010800D01*
X006700Y010641D02*
X006660Y010641D01*
X006950Y010483D02*
X007490Y010483D01*
X007303Y010641D02*
X007097Y010641D01*
X007153Y010800D02*
X007240Y010800D01*
X007240Y010958D02*
X007160Y010958D01*
X007160Y011117D02*
X007240Y011117D01*
X007240Y011275D02*
X007160Y011275D01*
X007160Y011434D02*
X007240Y011434D01*
X007328Y011751D02*
X007077Y011751D01*
X008032Y011751D02*
X008328Y011751D01*
X008250Y011592D02*
X008110Y011592D01*
X008120Y011434D02*
X008240Y011434D01*
X008240Y011275D02*
X008120Y011275D01*
X008120Y011117D02*
X008240Y011117D01*
X008240Y010958D02*
X008120Y010958D01*
X008120Y010800D02*
X008240Y010800D01*
X008303Y010641D02*
X008057Y010641D01*
X007870Y010483D02*
X008490Y010483D01*
X008870Y010483D02*
X009490Y010483D01*
X009303Y010641D02*
X009057Y010641D01*
X009120Y010800D02*
X009240Y010800D01*
X009240Y010958D02*
X009120Y010958D01*
X009120Y011117D02*
X009240Y011117D01*
X009240Y011275D02*
X009120Y011275D01*
X009120Y011434D02*
X009240Y011434D01*
X009250Y011592D02*
X009110Y011592D01*
X009032Y011751D02*
X009328Y011751D01*
X010032Y011751D02*
X010328Y011751D01*
X010250Y011592D02*
X010110Y011592D01*
X010120Y011434D02*
X010240Y011434D01*
X010240Y011275D02*
X010120Y011275D01*
X010120Y011117D02*
X010240Y011117D01*
X010240Y010958D02*
X010120Y010958D01*
X010120Y010800D02*
X010240Y010800D01*
X010303Y010641D02*
X010057Y010641D01*
X009870Y010483D02*
X010490Y010483D01*
X010870Y010483D02*
X011490Y010483D01*
X011303Y010641D02*
X011057Y010641D01*
X011120Y010800D02*
X011240Y010800D01*
X011240Y010958D02*
X011120Y010958D01*
X011120Y011117D02*
X011240Y011117D01*
X011240Y011275D02*
X011120Y011275D01*
X011120Y011434D02*
X011240Y011434D01*
X011250Y011592D02*
X011110Y011592D01*
X011032Y011751D02*
X011328Y011751D01*
X012032Y011751D02*
X012328Y011751D01*
X012250Y011592D02*
X012110Y011592D01*
X012120Y011434D02*
X012240Y011434D01*
X012240Y011275D02*
X012120Y011275D01*
X012120Y011117D02*
X012240Y011117D01*
X012240Y010958D02*
X012120Y010958D01*
X012120Y010800D02*
X012240Y010800D01*
X012303Y010641D02*
X012057Y010641D01*
X011870Y010483D02*
X012490Y010483D01*
X012870Y010483D02*
X013490Y010483D01*
X013303Y010641D02*
X013057Y010641D01*
X013120Y010800D02*
X013240Y010800D01*
X013240Y010958D02*
X013120Y010958D01*
X013870Y010483D02*
X014490Y010483D01*
X014303Y010641D02*
X014057Y010641D01*
X014120Y010800D02*
X014240Y010800D01*
X014240Y010958D02*
X014120Y010958D01*
X014870Y010483D02*
X015490Y010483D01*
X015431Y010507D02*
X015592Y010440D01*
X015768Y010440D01*
X015929Y010507D01*
X016053Y010631D01*
X016120Y010792D01*
X016120Y011568D01*
X016053Y011729D01*
X015929Y011853D01*
X015768Y011920D01*
X015592Y011920D01*
X015431Y011853D01*
X015307Y011729D01*
X015240Y011568D01*
X015240Y010792D01*
X015307Y010631D01*
X015431Y010507D01*
X015303Y010641D02*
X015057Y010641D01*
X015120Y010800D02*
X015240Y010800D01*
X015240Y010958D02*
X015120Y010958D01*
X015120Y011117D02*
X015240Y011117D01*
X015240Y011275D02*
X015120Y011275D01*
X015120Y011434D02*
X015240Y011434D01*
X015250Y011592D02*
X015110Y011592D01*
X015032Y011751D02*
X015328Y011751D01*
X015566Y011909D02*
X014794Y011909D01*
X015794Y011909D02*
X016566Y011909D01*
X016592Y011920D02*
X016431Y011853D01*
X016307Y011729D01*
X016240Y011568D01*
X016240Y010792D01*
X016307Y010631D01*
X016431Y010507D01*
X016592Y010440D01*
X016768Y010440D01*
X016929Y010507D01*
X017053Y010631D01*
X017120Y010792D01*
X017120Y011568D01*
X017053Y011729D01*
X016929Y011853D01*
X016768Y011920D01*
X016592Y011920D01*
X016794Y011909D02*
X017566Y011909D01*
X017794Y011909D02*
X018566Y011909D01*
X018592Y011920D02*
X018431Y011853D01*
X018307Y011729D01*
X018240Y011568D01*
X018240Y010792D01*
X018307Y010631D01*
X018431Y010507D01*
X018592Y010440D01*
X018768Y010440D01*
X018929Y010507D01*
X019053Y010631D01*
X019120Y010792D01*
X019120Y011568D01*
X019053Y011729D01*
X018929Y011853D01*
X018768Y011920D01*
X018592Y011920D01*
X018794Y011909D02*
X019566Y011909D01*
X019592Y011920D02*
X019431Y011853D01*
X019307Y011729D01*
X019240Y011568D01*
X019240Y010792D01*
X019307Y010631D01*
X019431Y010507D01*
X019592Y010440D01*
X019768Y010440D01*
X019929Y010507D01*
X020053Y010631D01*
X020120Y010792D01*
X020120Y011568D01*
X020053Y011729D01*
X019929Y011853D01*
X019768Y011920D01*
X019592Y011920D01*
X019794Y011909D02*
X020566Y011909D01*
X020592Y011920D02*
X020431Y011853D01*
X020307Y011729D01*
X020240Y011568D01*
X020240Y010792D01*
X020307Y010631D01*
X020431Y010507D01*
X020592Y010440D01*
X020768Y010440D01*
X020929Y010507D01*
X021053Y010631D01*
X021120Y010792D01*
X021120Y011568D01*
X021053Y011729D01*
X020929Y011853D01*
X020768Y011920D01*
X020592Y011920D01*
X020794Y011909D02*
X022390Y011909D01*
X022548Y011751D02*
X021032Y011751D01*
X021110Y011592D02*
X024210Y011592D01*
X024210Y011434D02*
X021120Y011434D01*
X021120Y011275D02*
X024210Y011275D01*
X024210Y011117D02*
X021120Y011117D01*
X021120Y010958D02*
X024210Y010958D01*
X024210Y010800D02*
X021120Y010800D01*
X021057Y010641D02*
X022375Y010641D01*
X022408Y010674D02*
X022244Y010510D01*
X022155Y010296D01*
X022155Y010064D01*
X022244Y009850D01*
X022408Y009686D01*
X022622Y009598D01*
X023738Y009598D01*
X023952Y009686D01*
X024116Y009850D01*
X024205Y010064D01*
X024205Y010296D01*
X024116Y010510D01*
X023952Y010674D01*
X023738Y010762D01*
X022622Y010762D01*
X022408Y010674D01*
X022232Y010483D02*
X020870Y010483D01*
X020490Y010483D02*
X019870Y010483D01*
X020057Y010641D02*
X020303Y010641D01*
X020240Y010800D02*
X020120Y010800D01*
X020120Y010958D02*
X020240Y010958D01*
X020240Y011117D02*
X020120Y011117D01*
X020120Y011275D02*
X020240Y011275D01*
X020240Y011434D02*
X020120Y011434D01*
X020110Y011592D02*
X020250Y011592D01*
X020328Y011751D02*
X020032Y011751D01*
X019328Y011751D02*
X019032Y011751D01*
X019110Y011592D02*
X019250Y011592D01*
X019240Y011434D02*
X019120Y011434D01*
X019120Y011275D02*
X019240Y011275D01*
X019240Y011117D02*
X019120Y011117D01*
X019120Y010958D02*
X019240Y010958D01*
X019240Y010800D02*
X019120Y010800D01*
X019057Y010641D02*
X019303Y010641D01*
X019490Y010483D02*
X018870Y010483D01*
X018490Y010483D02*
X017900Y010483D01*
X017900Y010324D02*
X022167Y010324D01*
X022155Y010166D02*
X020498Y010166D01*
X020416Y010248D01*
X019944Y010248D01*
X019862Y010166D01*
X019862Y009694D01*
X019944Y009612D01*
X020187Y009612D01*
X021362Y008437D01*
X021362Y008194D01*
X021444Y008112D01*
X021916Y008112D01*
X021998Y008194D01*
X021998Y008666D01*
X021916Y008748D01*
X021673Y008748D01*
X020498Y009923D01*
X020498Y010166D01*
X020498Y010007D02*
X022179Y010007D01*
X022245Y009849D02*
X020573Y009849D01*
X020731Y009690D02*
X022404Y009690D01*
X021925Y008739D02*
X030280Y008739D01*
X030280Y008846D02*
X030280Y008514D01*
X030514Y008280D01*
X030846Y008280D01*
X031080Y008514D01*
X031080Y008846D01*
X030846Y009080D01*
X030514Y009080D01*
X030280Y008846D01*
X030332Y008898D02*
X021524Y008898D01*
X021365Y009056D02*
X030490Y009056D01*
X030870Y009056D02*
X034490Y009056D01*
X034514Y009080D02*
X034280Y008846D01*
X034280Y008514D01*
X034514Y008280D01*
X034846Y008280D01*
X035080Y008514D01*
X035080Y008846D01*
X034846Y009080D01*
X034514Y009080D01*
X034332Y008898D02*
X031028Y008898D01*
X031080Y008739D02*
X034280Y008739D01*
X034280Y008581D02*
X031080Y008581D01*
X030988Y008422D02*
X034372Y008422D01*
X034988Y008422D02*
X038992Y008422D01*
X038992Y008264D02*
X021998Y008264D01*
X021998Y008422D02*
X030372Y008422D01*
X030280Y008581D02*
X021998Y008581D01*
X021680Y008430D02*
X020180Y009930D01*
X019862Y010007D02*
X017900Y010007D01*
X017900Y010166D02*
X019862Y010166D01*
X019862Y009849D02*
X018023Y009849D01*
X018181Y009690D02*
X019866Y009690D01*
X020267Y009532D02*
X018340Y009532D01*
X018498Y009373D02*
X020426Y009373D01*
X020584Y009215D02*
X018657Y009215D01*
X018815Y009056D02*
X020743Y009056D01*
X020874Y008898D02*
X020901Y008898D01*
X021049Y008739D02*
X021060Y008739D01*
X021110Y008581D02*
X021218Y008581D01*
X021158Y008422D02*
X021362Y008422D01*
X021362Y008264D02*
X021205Y008264D01*
X021253Y008105D02*
X038992Y008105D01*
X038992Y007947D02*
X021301Y007947D01*
X021349Y007788D02*
X038992Y007788D01*
X038992Y007630D02*
X029997Y007630D01*
X029952Y007674D02*
X029738Y007762D01*
X028622Y007762D01*
X028408Y007674D01*
X028244Y007510D01*
X028155Y007296D01*
X028155Y007064D01*
X028244Y006850D01*
X028408Y006686D01*
X028622Y006598D01*
X029738Y006598D01*
X029952Y006686D01*
X030116Y006850D01*
X030205Y007064D01*
X030205Y007296D01*
X030116Y007510D01*
X029952Y007674D01*
X030132Y007471D02*
X030405Y007471D01*
X030514Y007580D02*
X030280Y007346D01*
X030280Y007014D01*
X030514Y006780D01*
X030846Y006780D01*
X031080Y007014D01*
X031080Y007346D01*
X030846Y007580D01*
X030514Y007580D01*
X030280Y007313D02*
X030198Y007313D01*
X030205Y007154D02*
X030280Y007154D01*
X030299Y006996D02*
X030177Y006996D01*
X030103Y006837D02*
X030457Y006837D01*
X030903Y006837D02*
X032460Y006837D01*
X032367Y006679D02*
X029934Y006679D01*
X031061Y006996D02*
X032362Y006996D01*
X032362Y007154D02*
X031080Y007154D01*
X031080Y007313D02*
X032362Y007313D01*
X032417Y007471D02*
X030955Y007471D01*
X032050Y006362D02*
X021780Y006362D01*
X021732Y006520D02*
X032209Y006520D01*
X032514Y006203D02*
X038992Y006203D01*
X038992Y006045D02*
X032356Y006045D01*
X032197Y005886D02*
X038992Y005886D01*
X038992Y005728D02*
X032039Y005728D01*
X031930Y005930D02*
X021680Y005930D01*
X020880Y008580D01*
X020680Y008780D01*
X018780Y008780D01*
X017680Y009880D01*
X017680Y011180D01*
X017240Y011117D02*
X017120Y011117D01*
X017120Y011275D02*
X017240Y011275D01*
X017240Y011434D02*
X017120Y011434D01*
X017110Y011592D02*
X017250Y011592D01*
X017328Y011751D02*
X017032Y011751D01*
X016328Y011751D02*
X016032Y011751D01*
X016110Y011592D02*
X016250Y011592D01*
X016240Y011434D02*
X016120Y011434D01*
X016120Y011275D02*
X016240Y011275D01*
X016240Y011117D02*
X016120Y011117D01*
X016120Y010958D02*
X016240Y010958D01*
X016240Y010800D02*
X016120Y010800D01*
X016057Y010641D02*
X016303Y010641D01*
X016490Y010483D02*
X015870Y010483D01*
X016870Y010483D02*
X017460Y010483D01*
X017303Y010641D02*
X017057Y010641D01*
X017120Y010800D02*
X017240Y010800D01*
X017240Y010958D02*
X017120Y010958D01*
X018057Y010641D02*
X018303Y010641D01*
X018240Y010800D02*
X018120Y010800D01*
X018120Y010958D02*
X018240Y010958D01*
X018240Y011117D02*
X018120Y011117D01*
X018120Y011275D02*
X018240Y011275D01*
X018240Y011434D02*
X018120Y011434D01*
X018110Y011592D02*
X018250Y011592D01*
X018328Y011751D02*
X018032Y011751D01*
X017876Y009373D02*
X008498Y009373D01*
X008498Y009215D02*
X018034Y009215D01*
X018193Y009056D02*
X008498Y009056D01*
X008452Y008898D02*
X011038Y008898D01*
X011322Y008898D02*
X012038Y008898D01*
X012092Y008920D02*
X011931Y008853D01*
X011807Y008729D01*
X011740Y008568D01*
X011740Y007792D01*
X011807Y007631D01*
X011931Y007507D01*
X012092Y007440D01*
X012268Y007440D01*
X012429Y007507D01*
X012553Y007631D01*
X012620Y007792D01*
X012620Y008568D01*
X012553Y008729D01*
X012429Y008853D01*
X012268Y008920D01*
X012092Y008920D01*
X012322Y008898D02*
X013038Y008898D01*
X013092Y008920D02*
X012931Y008853D01*
X012807Y008729D01*
X012740Y008568D01*
X012740Y007792D01*
X012807Y007631D01*
X012931Y007507D01*
X013092Y007440D01*
X013268Y007440D01*
X013429Y007507D01*
X013553Y007631D01*
X013620Y007792D01*
X013620Y008568D01*
X013553Y008729D01*
X013429Y008853D01*
X013268Y008920D01*
X013092Y008920D01*
X013322Y008898D02*
X014038Y008898D01*
X014092Y008920D02*
X013931Y008853D01*
X013807Y008729D01*
X013740Y008568D01*
X013740Y007792D01*
X013807Y007631D01*
X013931Y007507D01*
X014092Y007440D01*
X014268Y007440D01*
X014429Y007507D01*
X014553Y007631D01*
X014620Y007792D01*
X014620Y008568D01*
X014553Y008729D01*
X014429Y008853D01*
X014268Y008920D01*
X014092Y008920D01*
X014322Y008898D02*
X015038Y008898D01*
X015092Y008920D02*
X014931Y008853D01*
X014807Y008729D01*
X014740Y008568D01*
X014740Y007792D01*
X014807Y007631D01*
X014931Y007507D01*
X015092Y007440D01*
X015268Y007440D01*
X015429Y007507D01*
X015553Y007631D01*
X015620Y007792D01*
X015620Y008568D01*
X015553Y008729D01*
X015429Y008853D01*
X015268Y008920D01*
X015092Y008920D01*
X015322Y008898D02*
X016038Y008898D01*
X016092Y008920D02*
X015931Y008853D01*
X015807Y008729D01*
X015740Y008568D01*
X015740Y007792D01*
X015807Y007631D01*
X015931Y007507D01*
X016092Y007440D01*
X016268Y007440D01*
X016429Y007507D01*
X016553Y007631D01*
X016620Y007792D01*
X016620Y008568D01*
X016553Y008729D01*
X016429Y008853D01*
X016268Y008920D01*
X016092Y008920D01*
X016322Y008898D02*
X018351Y008898D01*
X018510Y008739D02*
X016543Y008739D01*
X016615Y008581D02*
X018668Y008581D01*
X018742Y008422D02*
X020118Y008422D01*
X020430Y008180D02*
X018430Y008180D01*
X018112Y008105D02*
X016620Y008105D01*
X016620Y007947D02*
X018112Y007947D01*
X018112Y008264D02*
X016620Y008264D01*
X016620Y008422D02*
X018118Y008422D01*
X018748Y007947D02*
X020112Y007947D01*
X020748Y007947D02*
X020841Y007947D01*
X020794Y008105D02*
X020748Y008105D01*
X020889Y007788D02*
X016618Y007788D01*
X016552Y007630D02*
X020937Y007630D01*
X020985Y007471D02*
X016342Y007471D01*
X016018Y007471D02*
X015342Y007471D01*
X015552Y007630D02*
X015808Y007630D01*
X015742Y007788D02*
X015618Y007788D01*
X015620Y007947D02*
X015740Y007947D01*
X015740Y008105D02*
X015620Y008105D01*
X015620Y008264D02*
X015740Y008264D01*
X015740Y008422D02*
X015620Y008422D01*
X015615Y008581D02*
X015745Y008581D01*
X015817Y008739D02*
X015543Y008739D01*
X014817Y008739D02*
X014543Y008739D01*
X014615Y008581D02*
X014745Y008581D01*
X014740Y008422D02*
X014620Y008422D01*
X014620Y008264D02*
X014740Y008264D01*
X014740Y008105D02*
X014620Y008105D01*
X014620Y007947D02*
X014740Y007947D01*
X014742Y007788D02*
X014618Y007788D01*
X014552Y007630D02*
X014808Y007630D01*
X015018Y007471D02*
X014342Y007471D01*
X014018Y007471D02*
X013342Y007471D01*
X013552Y007630D02*
X013808Y007630D01*
X013742Y007788D02*
X013618Y007788D01*
X013620Y007947D02*
X013740Y007947D01*
X013740Y008105D02*
X013620Y008105D01*
X013620Y008264D02*
X013740Y008264D01*
X013740Y008422D02*
X013620Y008422D01*
X013615Y008581D02*
X013745Y008581D01*
X013817Y008739D02*
X013543Y008739D01*
X012817Y008739D02*
X012543Y008739D01*
X012615Y008581D02*
X012745Y008581D01*
X012740Y008422D02*
X012620Y008422D01*
X012620Y008264D02*
X012740Y008264D01*
X012740Y008105D02*
X012620Y008105D01*
X012620Y007947D02*
X012740Y007947D01*
X012742Y007788D02*
X012618Y007788D01*
X012552Y007630D02*
X012808Y007630D01*
X013018Y007471D02*
X012342Y007471D01*
X012018Y007471D02*
X011342Y007471D01*
X011552Y007630D02*
X011808Y007630D01*
X011742Y007788D02*
X011618Y007788D01*
X011620Y007947D02*
X011740Y007947D01*
X011740Y008105D02*
X011620Y008105D01*
X011620Y008264D02*
X011740Y008264D01*
X011740Y008422D02*
X011620Y008422D01*
X011615Y008581D02*
X011745Y008581D01*
X011817Y008739D02*
X011543Y008739D01*
X010740Y008105D02*
X006377Y008105D01*
X006362Y008120D02*
X006180Y008120D01*
X006180Y007680D01*
X006620Y007680D01*
X006620Y007862D01*
X006362Y008120D01*
X006180Y008120D02*
X006180Y007680D01*
X006180Y007680D01*
X006180Y007680D01*
X006620Y007680D01*
X006620Y007498D01*
X006362Y007240D01*
X006180Y007240D01*
X006180Y007680D01*
X006180Y007680D01*
X006180Y007680D01*
X005740Y007680D01*
X005740Y007862D01*
X005998Y008120D01*
X006180Y008120D01*
X006180Y008105D02*
X006180Y008105D01*
X006180Y007947D02*
X006180Y007947D01*
X006180Y007788D02*
X006180Y007788D01*
X006180Y007680D02*
X005740Y007680D01*
X005740Y007498D01*
X005998Y007240D01*
X006180Y007240D01*
X006180Y007680D01*
X006180Y007630D02*
X006180Y007630D01*
X006180Y007471D02*
X006180Y007471D01*
X006180Y007313D02*
X006180Y007313D01*
X006435Y007313D02*
X006982Y007313D01*
X007014Y007280D02*
X007346Y007280D01*
X007580Y007514D01*
X007580Y007846D01*
X007346Y008080D01*
X007014Y008080D01*
X006780Y007846D01*
X006780Y007514D01*
X007014Y007280D01*
X006823Y007471D02*
X006593Y007471D01*
X006620Y007630D02*
X006780Y007630D01*
X006780Y007788D02*
X006620Y007788D01*
X006536Y007947D02*
X006881Y007947D01*
X007479Y007947D02*
X010740Y007947D01*
X010742Y007788D02*
X007580Y007788D01*
X007580Y007630D02*
X010808Y007630D01*
X011018Y007471D02*
X007537Y007471D01*
X007378Y007313D02*
X021033Y007313D01*
X021081Y007154D02*
X000360Y007154D01*
X000360Y006996D02*
X021129Y006996D01*
X021176Y006837D02*
X000360Y006837D01*
X000360Y006679D02*
X021224Y006679D01*
X021272Y006520D02*
X000360Y006520D01*
X000360Y006362D02*
X021320Y006362D01*
X021368Y006203D02*
X000360Y006203D01*
X000360Y006045D02*
X021416Y006045D01*
X021460Y005886D02*
X000360Y005886D01*
X000360Y005728D02*
X021571Y005728D01*
X021642Y005460D02*
X021568Y005448D01*
X021496Y005425D01*
X021428Y005391D01*
X021367Y005346D01*
X021314Y005293D01*
X021269Y005232D01*
X021235Y005164D01*
X021212Y005092D01*
X021200Y005018D01*
X021200Y004700D01*
X021660Y004700D01*
X021660Y005460D01*
X021642Y005460D01*
X021660Y005411D02*
X021700Y005411D01*
X021700Y005460D02*
X021700Y004700D01*
X022160Y004700D01*
X022160Y005018D01*
X022148Y005092D01*
X022125Y005164D01*
X022091Y005232D01*
X022046Y005293D01*
X021993Y005346D01*
X021932Y005391D01*
X021864Y005425D01*
X021792Y005448D01*
X021718Y005460D01*
X021700Y005460D01*
X021892Y005411D02*
X022468Y005411D01*
X022496Y005425D02*
X022428Y005391D01*
X022367Y005346D01*
X022314Y005293D01*
X022269Y005232D01*
X022235Y005164D01*
X022212Y005092D01*
X022200Y005018D01*
X022200Y004700D01*
X022660Y004700D01*
X022660Y005460D01*
X022642Y005460D01*
X022568Y005448D01*
X022496Y005425D01*
X022660Y005411D02*
X022700Y005411D01*
X022700Y005460D02*
X022700Y004700D01*
X023160Y004700D01*
X023160Y005018D01*
X023148Y005092D01*
X023125Y005164D01*
X023091Y005232D01*
X023046Y005293D01*
X022993Y005346D01*
X022932Y005391D01*
X022864Y005425D01*
X022792Y005448D01*
X022718Y005460D01*
X022700Y005460D01*
X022892Y005411D02*
X038992Y005411D01*
X038992Y005569D02*
X003261Y005569D01*
X003232Y005591D02*
X003164Y005625D01*
X003092Y005648D01*
X003018Y005660D01*
X002700Y005660D01*
X002700Y005200D01*
X002660Y005200D01*
X002660Y005660D01*
X002342Y005660D01*
X002268Y005648D01*
X002196Y005625D01*
X002128Y005591D01*
X002067Y005546D01*
X002014Y005493D01*
X001969Y005432D01*
X001935Y005364D01*
X001912Y005292D01*
X001900Y005218D01*
X001900Y005200D01*
X002660Y005200D01*
X002660Y005160D01*
X002700Y005160D01*
X002700Y005200D01*
X003460Y005200D01*
X003460Y005218D01*
X003448Y005292D01*
X003425Y005364D01*
X003391Y005432D01*
X003346Y005493D01*
X003293Y005546D01*
X003232Y005591D01*
X003401Y005411D02*
X016070Y005411D01*
X016092Y005420D02*
X015931Y005353D01*
X015807Y005229D01*
X015740Y005068D01*
X015740Y004292D01*
X015807Y004131D01*
X015931Y004007D01*
X016092Y003940D01*
X016268Y003940D01*
X016429Y004007D01*
X016553Y004131D01*
X016620Y004292D01*
X016620Y004460D01*
X016740Y004460D01*
X016740Y004292D01*
X016807Y004131D01*
X016931Y004007D01*
X017092Y003940D01*
X017268Y003940D01*
X017429Y004007D01*
X017553Y004131D01*
X017620Y004292D01*
X017620Y004460D01*
X017740Y004460D01*
X017740Y004292D01*
X017807Y004131D01*
X017931Y004007D01*
X018092Y003940D01*
X018268Y003940D01*
X018429Y004007D01*
X018553Y004131D01*
X018620Y004292D01*
X018620Y005068D01*
X018553Y005229D01*
X018429Y005353D01*
X018268Y005420D01*
X018092Y005420D01*
X017931Y005353D01*
X017807Y005229D01*
X017740Y005068D01*
X017740Y004900D01*
X017620Y004900D01*
X017620Y005068D01*
X017553Y005229D01*
X017429Y005353D01*
X017268Y005420D01*
X017092Y005420D01*
X016931Y005353D01*
X016807Y005229D01*
X016740Y005068D01*
X016740Y004900D01*
X016620Y004900D01*
X016620Y005068D01*
X016553Y005229D01*
X016429Y005353D01*
X016268Y005420D01*
X016092Y005420D01*
X016290Y005411D02*
X017070Y005411D01*
X017290Y005411D02*
X018070Y005411D01*
X018290Y005411D02*
X020468Y005411D01*
X020496Y005425D02*
X020428Y005391D01*
X020367Y005346D01*
X020314Y005293D01*
X020269Y005232D01*
X020235Y005164D01*
X020212Y005092D01*
X020200Y005018D01*
X020200Y004700D01*
X020660Y004700D01*
X020660Y005460D01*
X020642Y005460D01*
X020568Y005448D01*
X020496Y005425D01*
X020660Y005411D02*
X020700Y005411D01*
X020700Y005460D02*
X020700Y004700D01*
X021160Y004700D01*
X021160Y005018D01*
X021148Y005092D01*
X021125Y005164D01*
X021091Y005232D01*
X021046Y005293D01*
X020993Y005346D01*
X020932Y005391D01*
X020864Y005425D01*
X020792Y005448D01*
X020718Y005460D01*
X020700Y005460D01*
X020892Y005411D02*
X021468Y005411D01*
X021284Y005252D02*
X021076Y005252D01*
X021148Y005094D02*
X021212Y005094D01*
X021200Y004935D02*
X021160Y004935D01*
X021160Y004777D02*
X021200Y004777D01*
X021200Y004660D02*
X021200Y004342D01*
X021212Y004268D01*
X021235Y004196D01*
X021269Y004128D01*
X021314Y004067D01*
X021367Y004014D01*
X021428Y003969D01*
X021496Y003935D01*
X021568Y003912D01*
X021642Y003900D01*
X021660Y003900D01*
X021660Y004660D01*
X021700Y004660D01*
X021700Y004700D01*
X021660Y004700D01*
X021660Y004660D01*
X021200Y004660D01*
X021160Y004660D02*
X020700Y004660D01*
X020700Y004700D01*
X020660Y004700D01*
X020660Y004660D01*
X020700Y004660D01*
X020700Y003900D01*
X020718Y003900D01*
X020792Y003912D01*
X020864Y003935D01*
X020932Y003969D01*
X020993Y004014D01*
X021046Y004067D01*
X021091Y004128D01*
X021125Y004196D01*
X021148Y004268D01*
X021160Y004342D01*
X021160Y004660D01*
X021160Y004618D02*
X021200Y004618D01*
X021200Y004460D02*
X021160Y004460D01*
X021153Y004301D02*
X021207Y004301D01*
X021262Y004143D02*
X021098Y004143D01*
X020952Y003984D02*
X021408Y003984D01*
X021660Y003984D02*
X021700Y003984D01*
X021700Y003900D02*
X021718Y003900D01*
X021792Y003912D01*
X021864Y003935D01*
X021932Y003969D01*
X021993Y004014D01*
X022046Y004067D01*
X022091Y004128D01*
X022125Y004196D01*
X022148Y004268D01*
X022160Y004342D01*
X022160Y004660D01*
X021700Y004660D01*
X021700Y003900D01*
X021700Y004143D02*
X021660Y004143D01*
X021660Y004301D02*
X021700Y004301D01*
X021700Y004460D02*
X021660Y004460D01*
X021660Y004618D02*
X021700Y004618D01*
X021700Y004777D02*
X021660Y004777D01*
X021660Y004935D02*
X021700Y004935D01*
X021700Y005094D02*
X021660Y005094D01*
X021660Y005252D02*
X021700Y005252D01*
X022076Y005252D02*
X022284Y005252D01*
X022212Y005094D02*
X022148Y005094D01*
X022160Y004935D02*
X022200Y004935D01*
X022200Y004777D02*
X022160Y004777D01*
X022200Y004660D02*
X022200Y004342D01*
X022212Y004268D01*
X022235Y004196D01*
X022269Y004128D01*
X022314Y004067D01*
X022367Y004014D01*
X022428Y003969D01*
X022496Y003935D01*
X022568Y003912D01*
X022642Y003900D01*
X022660Y003900D01*
X022660Y004660D01*
X022700Y004660D01*
X022700Y004700D01*
X022660Y004700D01*
X022660Y004660D01*
X022200Y004660D01*
X022200Y004618D02*
X022160Y004618D01*
X022160Y004460D02*
X022200Y004460D01*
X022207Y004301D02*
X022153Y004301D01*
X022098Y004143D02*
X022262Y004143D01*
X022408Y003984D02*
X021952Y003984D01*
X022660Y003984D02*
X022700Y003984D01*
X022700Y003900D02*
X022718Y003900D01*
X022792Y003912D01*
X022864Y003935D01*
X022932Y003969D01*
X022993Y004014D01*
X023046Y004067D01*
X023091Y004128D01*
X023125Y004196D01*
X023148Y004268D01*
X023160Y004342D01*
X023160Y004660D01*
X022700Y004660D01*
X022700Y003900D01*
X022700Y004143D02*
X022660Y004143D01*
X022660Y004301D02*
X022700Y004301D01*
X022700Y004460D02*
X022660Y004460D01*
X022660Y004618D02*
X022700Y004618D01*
X022700Y004777D02*
X022660Y004777D01*
X022660Y004935D02*
X022700Y004935D01*
X022700Y005094D02*
X022660Y005094D01*
X022660Y005252D02*
X022700Y005252D01*
X023076Y005252D02*
X038992Y005252D01*
X038992Y005094D02*
X023148Y005094D01*
X023160Y004935D02*
X038992Y004935D01*
X038992Y004777D02*
X023160Y004777D01*
X023160Y004618D02*
X038992Y004618D01*
X038992Y004460D02*
X023160Y004460D01*
X023153Y004301D02*
X038992Y004301D01*
X038992Y004143D02*
X023098Y004143D01*
X022952Y003984D02*
X038992Y003984D01*
X038992Y003826D02*
X014102Y003826D01*
X014100Y003822D02*
X014150Y003892D01*
X014190Y003969D01*
X014216Y004051D01*
X014230Y004137D01*
X014230Y004180D01*
X014230Y004223D01*
X014216Y004309D01*
X014190Y004391D01*
X014150Y004468D01*
X014100Y004538D01*
X014038Y004600D01*
X013968Y004650D01*
X013891Y004690D01*
X013809Y004716D01*
X013723Y004730D01*
X013680Y004730D01*
X013680Y004180D01*
X014230Y004180D01*
X013680Y004180D01*
X013680Y004180D01*
X013680Y004180D01*
X013680Y004180D01*
X013130Y004180D01*
X013130Y004223D01*
X013144Y004309D01*
X013170Y004391D01*
X013210Y004468D01*
X013260Y004538D01*
X013322Y004600D01*
X013392Y004650D01*
X013469Y004690D01*
X013551Y004716D01*
X013637Y004730D01*
X013680Y004730D01*
X013680Y004180D01*
X013130Y004180D01*
X013130Y004137D01*
X013144Y004051D01*
X013170Y003969D01*
X013210Y003892D01*
X013260Y003822D01*
X013322Y003760D01*
X013392Y003710D01*
X013469Y003670D01*
X013504Y003659D01*
X013391Y003612D01*
X013248Y003469D01*
X013170Y003281D01*
X013170Y003079D01*
X013248Y002891D01*
X013391Y002748D01*
X013579Y002670D01*
X013781Y002670D01*
X013969Y002748D01*
X014112Y002891D01*
X014190Y003079D01*
X014190Y003281D01*
X014112Y003469D01*
X013969Y003612D01*
X013856Y003659D01*
X013891Y003670D01*
X013968Y003710D01*
X014038Y003760D01*
X014100Y003822D01*
X014195Y003984D02*
X015986Y003984D01*
X015802Y004143D02*
X014230Y004143D01*
X014218Y004301D02*
X015740Y004301D01*
X015740Y004460D02*
X014155Y004460D01*
X014013Y004618D02*
X015740Y004618D01*
X015740Y004777D02*
X003241Y004777D01*
X003232Y004769D02*
X003293Y004814D01*
X003346Y004867D01*
X003391Y004928D01*
X003425Y004996D01*
X003448Y005068D01*
X003460Y005142D01*
X003460Y005160D01*
X002700Y005160D01*
X002700Y004700D01*
X003018Y004700D01*
X003092Y004712D01*
X003164Y004735D01*
X003232Y004769D01*
X003229Y004553D02*
X003068Y004620D01*
X002292Y004620D01*
X002131Y004553D01*
X002007Y004429D01*
X001940Y004268D01*
X001940Y004092D01*
X002007Y003931D01*
X002131Y003807D01*
X002292Y003740D01*
X003068Y003740D01*
X003229Y003807D01*
X003353Y003931D01*
X003420Y004092D01*
X003420Y004268D01*
X003353Y004429D01*
X003229Y004553D01*
X003323Y004460D02*
X013205Y004460D01*
X013142Y004301D02*
X003406Y004301D01*
X003420Y004143D02*
X013130Y004143D01*
X013165Y003984D02*
X003375Y003984D01*
X003248Y003826D02*
X013258Y003826D01*
X013479Y003667D02*
X000360Y003667D01*
X000360Y003509D02*
X002086Y003509D01*
X002131Y003553D02*
X002007Y003429D01*
X001940Y003268D01*
X001940Y003092D01*
X002007Y002931D01*
X002131Y002807D01*
X002292Y002740D01*
X003068Y002740D01*
X003229Y002807D01*
X003353Y002931D01*
X003420Y003092D01*
X003420Y003268D01*
X003353Y003429D01*
X003229Y003553D01*
X003068Y003620D01*
X002292Y003620D01*
X002131Y003553D01*
X001974Y003350D02*
X000360Y003350D01*
X000360Y003192D02*
X001940Y003192D01*
X001965Y003033D02*
X000360Y003033D01*
X000360Y002875D02*
X002063Y002875D01*
X002142Y002558D02*
X000360Y002558D01*
X000360Y002716D02*
X013467Y002716D01*
X013264Y002875D02*
X011440Y002875D01*
X011346Y002780D02*
X011580Y003014D01*
X011580Y003346D01*
X011346Y003580D01*
X011014Y003580D01*
X010780Y003346D01*
X010780Y003014D01*
X011014Y002780D01*
X011346Y002780D01*
X011580Y003033D02*
X013189Y003033D01*
X013170Y003192D02*
X011580Y003192D01*
X011576Y003350D02*
X013198Y003350D01*
X013287Y003509D02*
X011417Y003509D01*
X010943Y003509D02*
X007417Y003509D01*
X007346Y003580D02*
X007014Y003580D01*
X006780Y003346D01*
X006780Y003014D01*
X007014Y002780D01*
X007346Y002780D01*
X007580Y003014D01*
X007580Y003346D01*
X007346Y003580D01*
X007576Y003350D02*
X010784Y003350D01*
X010780Y003192D02*
X007580Y003192D01*
X007580Y003033D02*
X010780Y003033D01*
X010920Y002875D02*
X007440Y002875D01*
X006920Y002875D02*
X003297Y002875D01*
X003395Y003033D02*
X006780Y003033D01*
X006780Y003192D02*
X003420Y003192D01*
X003386Y003350D02*
X006784Y003350D01*
X006943Y003509D02*
X003274Y003509D01*
X003068Y002620D02*
X002292Y002620D01*
X002131Y002553D01*
X002007Y002429D01*
X001940Y002268D01*
X001940Y002092D01*
X002007Y001931D01*
X002131Y001807D01*
X002292Y001740D01*
X003068Y001740D01*
X003229Y001807D01*
X003353Y001931D01*
X003420Y002092D01*
X003420Y002268D01*
X003353Y002429D01*
X003229Y002553D01*
X003068Y002620D01*
X003218Y002558D02*
X015740Y002558D01*
X015740Y002568D02*
X015807Y002729D01*
X015931Y002853D01*
X016092Y002920D01*
X016268Y002920D01*
X016429Y002853D01*
X016553Y002729D01*
X016620Y002568D01*
X016620Y001792D01*
X016553Y001631D01*
X016429Y001507D01*
X016268Y001440D01*
X016092Y001440D01*
X015931Y001507D01*
X015807Y001631D01*
X015740Y001792D01*
X015740Y002568D01*
X015802Y002716D02*
X013893Y002716D01*
X014096Y002875D02*
X015983Y002875D01*
X016377Y002875D02*
X016983Y002875D01*
X016931Y002853D02*
X016807Y002729D01*
X016740Y002568D01*
X016740Y001792D01*
X016807Y001631D01*
X016931Y001507D01*
X017092Y001440D01*
X017268Y001440D01*
X017429Y001507D01*
X017553Y001631D01*
X017620Y001792D01*
X017620Y002568D01*
X017553Y002729D01*
X017429Y002853D01*
X017268Y002920D01*
X017092Y002920D01*
X016931Y002853D01*
X016802Y002716D02*
X016558Y002716D01*
X016620Y002558D02*
X016740Y002558D01*
X016740Y002399D02*
X016620Y002399D01*
X016620Y002241D02*
X016740Y002241D01*
X016740Y002082D02*
X016620Y002082D01*
X016620Y001924D02*
X016740Y001924D01*
X016751Y001765D02*
X016609Y001765D01*
X016529Y001607D02*
X016831Y001607D01*
X017073Y001448D02*
X016287Y001448D01*
X016073Y001448D02*
X000360Y001448D01*
X000360Y001290D02*
X037009Y001290D01*
X037060Y001166D02*
X037266Y000960D01*
X037535Y000849D01*
X037825Y000849D01*
X038094Y000960D01*
X038300Y001166D01*
X038411Y001435D01*
X038411Y001725D01*
X038300Y001994D01*
X038094Y002200D01*
X037825Y002311D01*
X037535Y002311D01*
X037266Y002200D01*
X037060Y001994D01*
X036949Y001725D01*
X036949Y001435D01*
X037060Y001166D01*
X037095Y001131D02*
X000360Y001131D01*
X000360Y000973D02*
X037253Y000973D01*
X036949Y001448D02*
X022787Y001448D01*
X022768Y001440D02*
X022929Y001507D01*
X023053Y001631D01*
X023120Y001792D01*
X023120Y002568D01*
X023053Y002729D01*
X022929Y002853D01*
X022768Y002920D01*
X022592Y002920D01*
X022431Y002853D01*
X022307Y002729D01*
X022240Y002568D01*
X022240Y001792D01*
X022307Y001631D01*
X022431Y001507D01*
X022592Y001440D01*
X022768Y001440D01*
X022573Y001448D02*
X021787Y001448D01*
X021768Y001440D02*
X021929Y001507D01*
X022053Y001631D01*
X022120Y001792D01*
X022120Y002568D01*
X022053Y002729D01*
X021929Y002853D01*
X021768Y002920D01*
X021592Y002920D01*
X021431Y002853D01*
X021307Y002729D01*
X021240Y002568D01*
X021240Y001792D01*
X021307Y001631D01*
X021431Y001507D01*
X021592Y001440D01*
X021768Y001440D01*
X021573Y001448D02*
X020787Y001448D01*
X020768Y001440D02*
X020929Y001507D01*
X021053Y001631D01*
X021120Y001792D01*
X021120Y002568D01*
X021053Y002729D01*
X020929Y002853D01*
X020768Y002920D01*
X020592Y002920D01*
X020431Y002853D01*
X020307Y002729D01*
X020240Y002568D01*
X020240Y001792D01*
X020307Y001631D01*
X020431Y001507D01*
X020592Y001440D01*
X020768Y001440D01*
X020573Y001448D02*
X018287Y001448D01*
X018268Y001440D02*
X018429Y001507D01*
X018553Y001631D01*
X018620Y001792D01*
X018620Y002568D01*
X018553Y002729D01*
X018429Y002853D01*
X018268Y002920D01*
X018092Y002920D01*
X017931Y002853D01*
X017807Y002729D01*
X017740Y002568D01*
X017740Y001792D01*
X017807Y001631D01*
X017931Y001507D01*
X018092Y001440D01*
X018268Y001440D01*
X018073Y001448D02*
X017287Y001448D01*
X017529Y001607D02*
X017831Y001607D01*
X017751Y001765D02*
X017609Y001765D01*
X017620Y001924D02*
X017740Y001924D01*
X017740Y002082D02*
X017620Y002082D01*
X017620Y002241D02*
X017740Y002241D01*
X017740Y002399D02*
X017620Y002399D01*
X017620Y002558D02*
X017740Y002558D01*
X017802Y002716D02*
X017558Y002716D01*
X017377Y002875D02*
X017983Y002875D01*
X018377Y002875D02*
X020483Y002875D01*
X020302Y002716D02*
X018558Y002716D01*
X018620Y002558D02*
X020240Y002558D01*
X020240Y002399D02*
X018620Y002399D01*
X018620Y002241D02*
X020240Y002241D01*
X020240Y002082D02*
X018620Y002082D01*
X018620Y001924D02*
X020240Y001924D01*
X020251Y001765D02*
X018609Y001765D01*
X018529Y001607D02*
X020331Y001607D01*
X021029Y001607D02*
X021331Y001607D01*
X021251Y001765D02*
X021109Y001765D01*
X021120Y001924D02*
X021240Y001924D01*
X021240Y002082D02*
X021120Y002082D01*
X021120Y002241D02*
X021240Y002241D01*
X021240Y002399D02*
X021120Y002399D01*
X021120Y002558D02*
X021240Y002558D01*
X021302Y002716D02*
X021058Y002716D01*
X020877Y002875D02*
X021483Y002875D01*
X021877Y002875D02*
X022483Y002875D01*
X022302Y002716D02*
X022058Y002716D01*
X022120Y002558D02*
X022240Y002558D01*
X022240Y002399D02*
X022120Y002399D01*
X022120Y002241D02*
X022240Y002241D01*
X022240Y002082D02*
X022120Y002082D01*
X022120Y001924D02*
X022240Y001924D01*
X022251Y001765D02*
X022109Y001765D01*
X022029Y001607D02*
X022331Y001607D01*
X023029Y001607D02*
X036949Y001607D01*
X036965Y001765D02*
X023109Y001765D01*
X023120Y001924D02*
X037031Y001924D01*
X037148Y002082D02*
X023120Y002082D01*
X023120Y002241D02*
X037364Y002241D01*
X037996Y002241D02*
X038992Y002241D01*
X038992Y002399D02*
X023120Y002399D01*
X023120Y002558D02*
X038992Y002558D01*
X038992Y002716D02*
X023058Y002716D01*
X022877Y002875D02*
X038992Y002875D01*
X038992Y003033D02*
X014171Y003033D01*
X014190Y003192D02*
X038992Y003192D01*
X038992Y003350D02*
X014162Y003350D01*
X014073Y003509D02*
X038992Y003509D01*
X038992Y003667D02*
X013881Y003667D01*
X013680Y004301D02*
X013680Y004301D01*
X013680Y004460D02*
X013680Y004460D01*
X013680Y004618D02*
X013680Y004618D01*
X013347Y004618D02*
X003072Y004618D01*
X002700Y004777D02*
X002660Y004777D01*
X002660Y004700D02*
X002342Y004700D01*
X002268Y004712D01*
X002196Y004735D01*
X002128Y004769D01*
X002067Y004814D01*
X002014Y004867D01*
X001969Y004928D01*
X001935Y004996D01*
X001912Y005068D01*
X001900Y005142D01*
X001900Y005160D01*
X002660Y005160D01*
X002660Y004700D01*
X002660Y004935D02*
X002700Y004935D01*
X002700Y005094D02*
X002660Y005094D01*
X002660Y005252D02*
X002700Y005252D01*
X002700Y005411D02*
X002660Y005411D01*
X002660Y005569D02*
X002700Y005569D01*
X002099Y005569D02*
X000360Y005569D01*
X000360Y005411D02*
X001959Y005411D01*
X001905Y005252D02*
X000360Y005252D01*
X000360Y005094D02*
X001908Y005094D01*
X001966Y004935D02*
X000360Y004935D01*
X000360Y004777D02*
X002119Y004777D01*
X002288Y004618D02*
X000360Y004618D01*
X000360Y004460D02*
X002037Y004460D01*
X001954Y004301D02*
X000360Y004301D01*
X000360Y004143D02*
X001940Y004143D01*
X001985Y003984D02*
X000360Y003984D01*
X000360Y003826D02*
X002112Y003826D01*
X001994Y002399D02*
X000360Y002399D01*
X000360Y002241D02*
X001940Y002241D01*
X001944Y002082D02*
X000360Y002082D01*
X000360Y001924D02*
X002014Y001924D01*
X002232Y001765D02*
X000360Y001765D01*
X000360Y001607D02*
X015831Y001607D01*
X015751Y001765D02*
X003128Y001765D01*
X003346Y001924D02*
X015740Y001924D01*
X015740Y002082D02*
X003416Y002082D01*
X003420Y002241D02*
X015740Y002241D01*
X015740Y002399D02*
X003366Y002399D01*
X003394Y004935D02*
X015740Y004935D01*
X015751Y005094D02*
X003452Y005094D01*
X003455Y005252D02*
X015830Y005252D01*
X016530Y005252D02*
X016830Y005252D01*
X016751Y005094D02*
X016609Y005094D01*
X016620Y004935D02*
X016740Y004935D01*
X016740Y004460D02*
X016620Y004460D01*
X016620Y004301D02*
X016740Y004301D01*
X016802Y004143D02*
X016558Y004143D01*
X016374Y003984D02*
X016986Y003984D01*
X017374Y003984D02*
X017986Y003984D01*
X017802Y004143D02*
X017558Y004143D01*
X017620Y004301D02*
X017740Y004301D01*
X017740Y004460D02*
X017620Y004460D01*
X017620Y004935D02*
X017740Y004935D01*
X017751Y005094D02*
X017609Y005094D01*
X017530Y005252D02*
X017830Y005252D01*
X018180Y004680D02*
X017180Y004680D01*
X016180Y004680D01*
X018374Y003984D02*
X020408Y003984D01*
X020428Y003969D02*
X020496Y003935D01*
X020568Y003912D01*
X020642Y003900D01*
X020660Y003900D01*
X020660Y004660D01*
X020200Y004660D01*
X020200Y004342D01*
X020212Y004268D01*
X020235Y004196D01*
X020269Y004128D01*
X020314Y004067D01*
X020367Y004014D01*
X020428Y003969D01*
X020660Y003984D02*
X020700Y003984D01*
X020700Y004143D02*
X020660Y004143D01*
X020660Y004301D02*
X020700Y004301D01*
X020700Y004460D02*
X020660Y004460D01*
X020660Y004618D02*
X020700Y004618D01*
X020700Y004777D02*
X020660Y004777D01*
X020660Y004935D02*
X020700Y004935D01*
X020700Y005094D02*
X020660Y005094D01*
X020660Y005252D02*
X020700Y005252D01*
X020284Y005252D02*
X018530Y005252D01*
X018609Y005094D02*
X020212Y005094D01*
X020200Y004935D02*
X018620Y004935D01*
X018620Y004777D02*
X020200Y004777D01*
X020200Y004618D02*
X018620Y004618D01*
X018620Y004460D02*
X020200Y004460D01*
X020207Y004301D02*
X018620Y004301D01*
X018558Y004143D02*
X020262Y004143D01*
X021827Y006203D02*
X031892Y006203D01*
X031930Y005930D02*
X032680Y006680D01*
X032680Y007180D01*
X032998Y007154D02*
X034280Y007154D01*
X034280Y007014D02*
X034280Y007346D01*
X034514Y007580D01*
X034846Y007580D01*
X035080Y007346D01*
X035080Y007014D01*
X034846Y006780D01*
X034514Y006780D01*
X034280Y007014D01*
X034299Y006996D02*
X032998Y006996D01*
X032900Y006837D02*
X034457Y006837D01*
X034903Y006837D02*
X038992Y006837D01*
X038992Y006679D02*
X032900Y006679D01*
X032831Y006520D02*
X038992Y006520D01*
X038992Y006362D02*
X032673Y006362D01*
X032998Y007313D02*
X034280Y007313D01*
X034405Y007471D02*
X032943Y007471D01*
X034955Y007471D02*
X038992Y007471D01*
X038992Y007313D02*
X035080Y007313D01*
X035080Y007154D02*
X038992Y007154D01*
X038992Y006996D02*
X035061Y006996D01*
X035080Y008581D02*
X038992Y008581D01*
X038992Y008739D02*
X035080Y008739D01*
X035028Y008898D02*
X038992Y008898D01*
X038992Y009056D02*
X034870Y009056D01*
X034865Y010800D02*
X038992Y010800D01*
X038992Y010958D02*
X035024Y010958D01*
X035080Y011117D02*
X038992Y011117D01*
X038992Y011275D02*
X035080Y011275D01*
X030680Y011180D02*
X029680Y012180D01*
X025680Y012180D01*
X025362Y012226D02*
X024650Y012226D01*
X024650Y012068D02*
X025362Y012068D01*
X025397Y011909D02*
X024650Y011909D01*
X024650Y011751D02*
X029798Y011751D01*
X029640Y011909D02*
X025963Y011909D01*
X024921Y012385D02*
X024650Y012385D01*
X024650Y012543D02*
X024862Y012543D01*
X024210Y012385D02*
X024189Y012385D01*
X024188Y012226D02*
X024210Y012226D01*
X024650Y011592D02*
X029957Y011592D01*
X030115Y011434D02*
X024650Y011434D01*
X024650Y011275D02*
X030274Y011275D01*
X030280Y011117D02*
X024650Y011117D01*
X024650Y010641D02*
X028375Y010641D01*
X028232Y010483D02*
X024650Y010483D01*
X024650Y010324D02*
X028167Y010324D01*
X028155Y010166D02*
X024650Y010166D01*
X024650Y010007D02*
X028179Y010007D01*
X028245Y009849D02*
X024650Y009849D01*
X024724Y009690D02*
X028404Y009690D01*
X028363Y007630D02*
X023997Y007630D01*
X023952Y007674D02*
X023738Y007762D01*
X022622Y007762D01*
X022408Y007674D01*
X022244Y007510D01*
X022155Y007296D01*
X022155Y007064D01*
X022244Y006850D01*
X022408Y006686D01*
X022622Y006598D01*
X023738Y006598D01*
X023952Y006686D01*
X024116Y006850D01*
X024205Y007064D01*
X024205Y007296D01*
X024116Y007510D01*
X023952Y007674D01*
X024132Y007471D02*
X028228Y007471D01*
X028162Y007313D02*
X024198Y007313D01*
X024205Y007154D02*
X028155Y007154D01*
X028183Y006996D02*
X024177Y006996D01*
X024103Y006837D02*
X028257Y006837D01*
X028426Y006679D02*
X023934Y006679D01*
X022426Y006679D02*
X021684Y006679D01*
X021636Y006837D02*
X022257Y006837D01*
X022183Y006996D02*
X021588Y006996D01*
X021540Y007154D02*
X022155Y007154D01*
X022162Y007313D02*
X021492Y007313D01*
X021445Y007471D02*
X022228Y007471D01*
X022363Y007630D02*
X021397Y007630D01*
X021207Y009215D02*
X024112Y009215D01*
X024112Y009373D02*
X021048Y009373D01*
X020890Y009532D02*
X024112Y009532D01*
X024136Y009690D02*
X023956Y009690D01*
X024115Y009849D02*
X024210Y009849D01*
X024210Y010007D02*
X024181Y010007D01*
X024205Y010166D02*
X024210Y010166D01*
X024193Y010324D02*
X024210Y010324D01*
X024210Y010483D02*
X024128Y010483D01*
X024210Y010641D02*
X023985Y010641D01*
X024210Y013019D02*
X021389Y013019D01*
X021420Y013177D02*
X024210Y013177D01*
X024210Y013336D02*
X021392Y013336D01*
X021288Y013494D02*
X024112Y013494D01*
X022928Y014128D02*
X021420Y014128D01*
X021412Y014287D02*
X022862Y014287D01*
X022862Y014445D02*
X021337Y014445D01*
X021107Y014604D02*
X022862Y014604D01*
X025149Y016823D02*
X038992Y016823D01*
X038992Y016981D02*
X024990Y016981D01*
X020066Y015872D02*
X010187Y015872D01*
X010330Y016030D02*
X019966Y016030D01*
X017093Y021895D02*
X016710Y021895D01*
X016830Y022053D02*
X016990Y022053D01*
X016990Y022212D02*
X016830Y022212D01*
X016806Y022370D02*
X016998Y022370D01*
X016150Y021895D02*
X014077Y021895D01*
X013829Y022212D02*
X006420Y022212D01*
X006404Y022053D02*
X013670Y022053D01*
X013512Y021895D02*
X006317Y021895D01*
X006378Y022370D02*
X013987Y022370D01*
X013150Y024906D02*
X006328Y024906D01*
X006408Y025065D02*
X013112Y025065D01*
X012730Y025223D02*
X006420Y025223D01*
X006373Y025382D02*
X008413Y025382D01*
X008280Y025540D02*
X006242Y025540D01*
X008947Y025382D02*
X009356Y025382D01*
X009240Y025540D02*
X009080Y025540D01*
X009080Y025699D02*
X009240Y025699D01*
X009240Y025857D02*
X009069Y025857D01*
X012400Y025857D02*
X013720Y025857D01*
X013879Y025699D02*
X012726Y025699D01*
X013122Y025540D02*
X014037Y025540D01*
X014196Y025382D02*
X013748Y025382D01*
X012221Y019676D02*
X008057Y019676D01*
X008120Y019517D02*
X012162Y019517D01*
X012162Y019359D02*
X008120Y019359D01*
X008072Y019200D02*
X012162Y019200D01*
X012732Y012543D02*
X003696Y012543D01*
X003480Y012543D02*
X003440Y012543D01*
X003440Y012702D02*
X003480Y012702D01*
X003480Y012860D02*
X003440Y012860D01*
X003440Y013019D02*
X003480Y013019D01*
X003480Y013177D02*
X003440Y013177D01*
X003440Y013336D02*
X003480Y013336D01*
X003480Y013494D02*
X003440Y013494D01*
X000663Y013494D02*
X000360Y013494D01*
X000360Y013336D02*
X000474Y013336D01*
X000405Y013177D02*
X000360Y013177D01*
X000360Y013019D02*
X000390Y013019D01*
X000360Y012860D02*
X000423Y012860D01*
X000360Y012702D02*
X000517Y012702D01*
X000360Y008105D02*
X005983Y008105D01*
X005824Y007947D02*
X000360Y007947D01*
X000360Y007788D02*
X005740Y007788D01*
X005740Y007630D02*
X000360Y007630D01*
X000360Y007471D02*
X005767Y007471D01*
X005925Y007313D02*
X000360Y007313D01*
X006180Y009180D02*
X008180Y009180D01*
X007908Y008898D02*
X006452Y008898D01*
X006744Y009690D02*
X008116Y009690D01*
X000360Y000814D02*
X038992Y000814D01*
X038992Y000656D02*
X000360Y000656D01*
X000360Y000497D02*
X038992Y000497D01*
X038992Y000360D02*
X038992Y038870D01*
X000360Y038870D01*
X000360Y000360D01*
X038992Y000360D01*
X038992Y000973D02*
X038107Y000973D01*
X038265Y001131D02*
X038992Y001131D01*
X038992Y001290D02*
X038351Y001290D01*
X038411Y001448D02*
X038992Y001448D01*
X038992Y001607D02*
X038411Y001607D01*
X038395Y001765D02*
X038992Y001765D01*
X038992Y001924D02*
X038329Y001924D01*
X038212Y002082D02*
X038992Y002082D01*
X038992Y029186D02*
X024491Y029186D01*
X024511Y029344D02*
X038992Y029344D01*
X038992Y029503D02*
X024511Y029503D01*
X024455Y029661D02*
X038992Y029661D01*
X038992Y029820D02*
X024374Y029820D01*
X024216Y029978D02*
X038992Y029978D01*
X038992Y037111D02*
X000360Y037111D01*
X000360Y037269D02*
X000957Y037269D01*
X000966Y037260D02*
X001235Y037149D01*
X001525Y037149D01*
X001794Y037260D01*
X002000Y037466D01*
X002111Y037735D01*
X002111Y038025D01*
X002000Y038294D01*
X001794Y038500D01*
X001525Y038611D01*
X001235Y038611D01*
X000966Y038500D01*
X000760Y038294D01*
X000649Y038025D01*
X000649Y037735D01*
X000760Y037466D01*
X000966Y037260D01*
X000798Y037428D02*
X000360Y037428D01*
X000360Y037586D02*
X000710Y037586D01*
X000649Y037745D02*
X000360Y037745D01*
X000360Y037903D02*
X000649Y037903D01*
X000664Y038062D02*
X000360Y038062D01*
X000360Y038220D02*
X000729Y038220D01*
X000845Y038379D02*
X000360Y038379D01*
X000360Y038537D02*
X001056Y038537D01*
X001704Y038537D02*
X037556Y038537D01*
X037466Y038500D02*
X037260Y038294D01*
X037149Y038025D01*
X037149Y037735D01*
X037260Y037466D01*
X037466Y037260D01*
X037735Y037149D01*
X038025Y037149D01*
X038294Y037260D01*
X038500Y037466D01*
X038611Y037735D01*
X038611Y038025D01*
X038500Y038294D01*
X038294Y038500D01*
X038025Y038611D01*
X037735Y038611D01*
X037466Y038500D01*
X037345Y038379D02*
X001915Y038379D01*
X002031Y038220D02*
X037229Y038220D01*
X037164Y038062D02*
X002096Y038062D01*
X002111Y037903D02*
X037149Y037903D01*
X037149Y037745D02*
X002111Y037745D01*
X002050Y037586D02*
X037210Y037586D01*
X037298Y037428D02*
X001962Y037428D01*
X001803Y037269D02*
X037457Y037269D01*
X038303Y037269D02*
X038992Y037269D01*
X038992Y037428D02*
X038462Y037428D01*
X038550Y037586D02*
X038992Y037586D01*
X038992Y037745D02*
X038611Y037745D01*
X038611Y037903D02*
X038992Y037903D01*
X038992Y038062D02*
X038596Y038062D01*
X038531Y038220D02*
X038992Y038220D01*
X038992Y038379D02*
X038415Y038379D01*
X038204Y038537D02*
X038992Y038537D01*
X038992Y038696D02*
X000360Y038696D01*
X000360Y038854D02*
X038992Y038854D01*
X026121Y036794D02*
X025739Y036794D01*
X025842Y036635D02*
X026018Y036635D01*
X025990Y036477D02*
X025870Y036477D01*
X025870Y036318D02*
X025990Y036318D01*
X025990Y036160D02*
X025870Y036160D01*
X025870Y036001D02*
X025990Y036001D01*
X025990Y035843D02*
X025870Y035843D01*
X025825Y035684D02*
X026035Y035684D01*
X025430Y035430D02*
X025180Y035180D01*
X025162Y035526D02*
X024698Y035526D01*
X024679Y035507D02*
X024803Y035631D01*
X024870Y035792D01*
X024870Y036568D01*
X024803Y036729D01*
X024679Y036853D01*
X024518Y036920D01*
X024342Y036920D01*
X024181Y036853D01*
X024057Y036729D01*
X023990Y036568D01*
X023990Y035792D01*
X024057Y035631D01*
X024181Y035507D01*
X024342Y035440D01*
X024518Y035440D01*
X024679Y035507D01*
X024825Y035684D02*
X025035Y035684D01*
X024990Y035843D02*
X024870Y035843D01*
X024870Y036001D02*
X024990Y036001D01*
X024990Y036160D02*
X024870Y036160D01*
X024870Y036318D02*
X024990Y036318D01*
X024990Y036477D02*
X024870Y036477D01*
X024842Y036635D02*
X025018Y036635D01*
X025121Y036794D02*
X024739Y036794D01*
X024121Y036794D02*
X023739Y036794D01*
X023842Y036635D02*
X024018Y036635D01*
X023990Y036477D02*
X023870Y036477D01*
X023870Y036318D02*
X023990Y036318D01*
X023990Y036160D02*
X023870Y036160D01*
X023870Y036001D02*
X023990Y036001D01*
X023990Y035843D02*
X023870Y035843D01*
X023825Y035684D02*
X024035Y035684D01*
X024162Y035526D02*
X023698Y035526D01*
X023035Y035684D02*
X022825Y035684D01*
X022870Y035843D02*
X022990Y035843D01*
X022990Y036001D02*
X022870Y036001D01*
X022870Y036160D02*
X022990Y036160D01*
X022990Y036318D02*
X022870Y036318D01*
X022870Y036477D02*
X022990Y036477D01*
X023018Y036635D02*
X022842Y036635D01*
X022739Y036794D02*
X023121Y036794D01*
X025430Y036180D02*
X025430Y035430D01*
X018846Y034892D02*
X018514Y034892D01*
X018620Y035050D02*
X018740Y035050D01*
X018740Y035209D02*
X018620Y035209D01*
X018615Y035367D02*
X018745Y035367D01*
X017903Y035526D02*
X017457Y035526D01*
X017615Y035367D02*
X017745Y035367D01*
X017740Y035209D02*
X017620Y035209D01*
X017620Y035050D02*
X017740Y035050D01*
X017846Y034892D02*
X017514Y034892D01*
X017362Y035740D02*
X016998Y035740D01*
X016740Y035998D01*
X016740Y036362D01*
X016998Y036620D01*
X017362Y036620D01*
X017620Y036362D01*
X017620Y035998D01*
X017362Y035740D01*
X017465Y035843D02*
X017839Y035843D01*
X017700Y036001D02*
X017620Y036001D01*
X017620Y036160D02*
X017700Y036160D01*
X017700Y036318D02*
X017620Y036318D01*
X017506Y036477D02*
X017798Y036477D01*
X016854Y036477D02*
X016506Y036477D01*
X016620Y036318D02*
X016740Y036318D01*
X016740Y036160D02*
X016620Y036160D01*
X016642Y036001D02*
X016740Y036001D01*
X016800Y035843D02*
X016895Y035843D01*
X015895Y035843D02*
X015800Y035843D01*
X015740Y036001D02*
X015642Y036001D01*
X015620Y036160D02*
X015740Y036160D01*
X015740Y036318D02*
X015620Y036318D01*
X015506Y036477D02*
X015854Y036477D01*
X006509Y030929D02*
X000360Y030929D01*
X000360Y030771D02*
X005348Y030771D01*
X005307Y030729D02*
X005240Y030568D01*
X005240Y029792D01*
X005307Y029631D01*
X005431Y029507D01*
X005592Y029440D01*
X005768Y029440D01*
X005929Y029507D01*
X006053Y029631D01*
X006120Y029792D01*
X006120Y030568D01*
X006053Y030729D01*
X005929Y030853D01*
X005768Y030920D01*
X005592Y030920D01*
X005431Y030853D01*
X005307Y030729D01*
X005258Y030612D02*
X000360Y030612D01*
X000360Y030454D02*
X005240Y030454D01*
X005240Y030295D02*
X000360Y030295D01*
X000360Y030137D02*
X005240Y030137D01*
X005240Y029978D02*
X000360Y029978D01*
X000360Y029820D02*
X005240Y029820D01*
X005294Y029661D02*
X000360Y029661D01*
X000360Y029503D02*
X005441Y029503D01*
X005919Y029503D02*
X006383Y029503D01*
X006253Y029661D02*
X006066Y029661D01*
X006120Y029820D02*
X006204Y029820D01*
X006200Y029978D02*
X006120Y029978D01*
X006120Y030137D02*
X006200Y030137D01*
X006200Y030295D02*
X006120Y030295D01*
X006120Y030454D02*
X006200Y030454D01*
X006218Y030612D02*
X006102Y030612D01*
X006012Y030771D02*
X006298Y030771D01*
X002960Y021419D02*
X000360Y021419D01*
X000360Y021261D02*
X002960Y021261D01*
X002960Y021102D02*
X000360Y021102D01*
X000360Y020944D02*
X002960Y020944D01*
X002960Y020785D02*
X000360Y020785D01*
X000360Y020627D02*
X002960Y020627D01*
X002960Y020468D02*
X000360Y020468D01*
X000360Y020310D02*
X002989Y020310D01*
X003148Y020151D02*
X000360Y020151D01*
X000360Y019993D02*
X003306Y019993D01*
X003465Y019834D02*
X000360Y019834D01*
X000360Y019676D02*
X003623Y019676D01*
X003782Y019517D02*
X002909Y019517D01*
X003067Y019359D02*
X003940Y019359D01*
X004099Y019200D02*
X003080Y019200D01*
X003080Y019042D02*
X004257Y019042D01*
X004404Y019517D02*
X005095Y019517D01*
X005055Y018883D02*
X002949Y018883D01*
X002280Y019042D02*
X000360Y019042D01*
X000360Y019200D02*
X002280Y019200D01*
X002293Y019359D02*
X000360Y019359D01*
X000360Y019517D02*
X002451Y019517D01*
D18*
X001480Y017280D03*
X004680Y021680D03*
X003180Y025930D03*
X004180Y026630D03*
X003680Y028980D03*
X010380Y020280D03*
X010380Y019380D03*
X012480Y019380D03*
X013430Y025180D03*
X017180Y027430D03*
X020180Y026180D03*
X017780Y024180D03*
X023180Y025180D03*
X023180Y021680D03*
X021680Y017930D03*
X022430Y017180D03*
X023180Y017180D03*
X023180Y014430D03*
X024430Y013680D03*
X023930Y012680D03*
X023930Y011930D03*
X025180Y012680D03*
X025680Y012180D03*
X024430Y009430D03*
X021680Y008430D03*
X020430Y008180D03*
X020180Y009930D03*
X018430Y008180D03*
X008430Y009930D03*
X008180Y009180D03*
X006430Y009930D03*
X006180Y009180D03*
X018680Y031180D03*
X020180Y031180D03*
X013180Y032930D03*
X032680Y007180D03*
D19*
X016430Y022180D02*
X014080Y022180D01*
X012580Y020680D01*
X012480Y019380D01*
X010380Y019380D02*
X010380Y020280D01*
X014680Y024480D02*
X014980Y024180D01*
X017780Y024180D01*
X020180Y026180D02*
X019680Y026680D01*
X019680Y028930D01*
X020180Y029430D01*
X020180Y031180D01*
X018680Y031180D02*
X016680Y033180D01*
X016680Y035680D01*
X016180Y036180D01*
X015680Y035680D02*
X015180Y036180D01*
X015680Y035680D02*
X015680Y032430D01*
X017180Y030930D01*
X017180Y027430D01*
X014680Y025180D02*
X014680Y024480D01*
X014680Y025180D02*
X013430Y026430D01*
X013680Y030180D02*
X013680Y033430D01*
X013180Y033930D01*
X012930Y033930D01*
X012680Y034180D01*
X012680Y035680D01*
X012180Y036180D01*
X013180Y036180D02*
X013680Y035680D01*
X013680Y034430D01*
X014680Y033430D01*
X014680Y030180D01*
X013180Y032680D02*
X013180Y032930D01*
M02*
