%
M48
M72
T01C0.0120
T02C0.0236
T03C0.0276
T04C0.0315
T05C0.0320
T06C0.0400
T07C0.0440
T08C0.1102
%
T01
X5830Y3180
X6830Y9680
X4905Y10093
X3830Y11680
X8330Y12180
X9830Y12180
X11330Y10680
X12830Y10180
X13830Y9680
X15330Y8180
X13830Y7180
X12330Y4680
X13830Y2680
X12830Y1680
X16380Y2180
X17830Y2180
X22330Y4680
X24905Y4393
X18830Y15180
X29830Y25180
X34330Y28180
X34330Y20680
X20330Y32680
X18830Y30180
X11330Y33680
X10830Y35680
X11830Y38680
X3330Y23180
X5330Y21180
X4830Y17180
T02
X6205Y16305
X6955Y16305
X7830Y15930
X9955Y14680
X10955Y13630
X9955Y13205
X11830Y12793
X13580Y13630
X14830Y12805
X16930Y13180
X17580Y13180
X18205Y13243
X18793Y12780
X19455Y12780
X18830Y11305
X18330Y10805
X18868Y10243
X18455Y9430
X18330Y8180
X18330Y7430
X19205Y6930
X19580Y7555
X19455Y8180
X19830Y9430
X19830Y10555
X21455Y10055
X22330Y9555
X22705Y8930
X23330Y8680
X23830Y8430
X23380Y7693
X24405Y7593
X24293Y6855
X24830Y8430
X24705Y9430
X25330Y9430
X26230Y8943
X26455Y7680
X25943Y7593
X26705Y7180
X27330Y7180
X28580Y6555
X28455Y6055
X28955Y7180
X29330Y8680
X29705Y9430
X28205Y10930
X27905Y15143
X27780Y16630
X27805Y17555
X26318Y17155
X25343Y17855
X25205Y16680
X24455Y16680
X23205Y12930
X21830Y11305
X21205Y12805
X23455Y10430
X21330Y7805
X20830Y7430
X20330Y5555
X21205Y4305
X20868Y2955
X19830Y3430
X19480Y3905
X18730Y4905
X18405Y5543
X17955Y4680
X17418Y4693
X16330Y7055
X17330Y8180
X16955Y8805
X15830Y10805
X17955Y11430
X14330Y15055
X13793Y16493
X13005Y16730
X11793Y16093
X10955Y18055
X10955Y20930
X9955Y21305
X11705Y23805
X12630Y23405
X12818Y22918
X12843Y22330
X13393Y22168
X13455Y21055
X15780Y22530
X13955Y23805
X13330Y23805
X12580Y24680
X12830Y25180
X11830Y25430
X11043Y24680
X9580Y24180
X10768Y27330
X10593Y27780
X9980Y27943
X9530Y28043
X9043Y27955
X8918Y28493
X8405Y28505
X8355Y28993
X9730Y30393
X10143Y30830
X10180Y31505
X10705Y31430
X11080Y30680
X12955Y29930
X12705Y29305
X13918Y27955
X14005Y27280
X14843Y27605
X15380Y27080
X15893Y26430
X14830Y29305
X14455Y29930
X16268Y32655
X16955Y33305
X15080Y33380
X14780Y32943
X14455Y34155
X15080Y34180
X12880Y35180
X12580Y34680
X12405Y36405
X11330Y32930
X10330Y32930
X9893Y32480
X8830Y30830
X7793Y30780
X6580Y32805
X5580Y32805
X5743Y34330
X7443Y34105
X8043Y34018
X8005Y34930
X3205Y32805
X3330Y29555
X4455Y28430
X5205Y28305
X3955Y26430
X4230Y25343
X5330Y25305
X3705Y23555
X2330Y23555
X1180Y23130
X2580Y20518
X3593Y20830
X2418Y25818
X5330Y12055
X5330Y10680
X5043Y9343
X8330Y5055
X11330Y5055
X13005Y4680
X14080Y4430
X14080Y5055
X14830Y5055
X13655Y3230
X12768Y2943
X13955Y1430
X14818Y2268
X15380Y3018
X15255Y1055
X16755Y1168
X21055Y1205
X22705Y1355
X24293Y3130
X25005Y3130
X22955Y3930
X22780Y3280
X22830Y4930
X24455Y5180
X26955Y5805
X27955Y4555
X29205Y2930
X27705Y1555
X30968Y1155
X34080Y1555
X34455Y2555
X31330Y4555
X35330Y8680
X35830Y9180
X34455Y9180
X33830Y9180
X33205Y9180
X34830Y13055
X29830Y17680
X26743Y20818
X25905Y21093
X27305Y22543
X27293Y24093
X26205Y24130
X23718Y24105
X22580Y22693
X22430Y20930
X21205Y21055
X20555Y22518
X19205Y22468
X22830Y26805
X22705Y27305
X23943Y26105
X25330Y27680
X25705Y29305
X25205Y29805
X24330Y30055
X24455Y30555
X23330Y30305
X24705Y32555
X26080Y32680
X27330Y36180
X27330Y37180
X29005Y36430
X25068Y38230
X22280Y36193
X21755Y34718
X20955Y34680
X20955Y33930
X21780Y33818
X19530Y34230
X18955Y35805
X17955Y35805
X19130Y27380
X19955Y27305
X29268Y25468
X29430Y26193
X12168Y10305
X14830Y7305
X8330Y1055
X6668Y830
X37705Y7680
X38205Y5555
T03
X2830Y22180
X2830Y24180
T04
X6350Y3690
X6320Y2170
X7880Y2170
X7910Y3690
X9470Y3690
X9440Y2170
X11000Y2170
X11030Y3690
X12590Y3690
X12560Y2170
X14120Y2170
X14150Y3690
X15710Y3690
X15680Y2170
X17240Y2170
X17270Y3690
X18830Y3690
X18800Y2170
X20360Y2170
X20390Y3690
X21950Y3690
X21920Y2170
X23480Y2170
X23510Y3690
X25070Y3690
X25040Y2170
X26600Y2170
X26630Y3690
X28190Y3690
X28160Y2170
X29720Y2170
X29750Y3690
X31310Y3690
X31280Y2170
X32840Y2170
X32870Y3690
T05
X30830Y16680
X30830Y17680
X30830Y18680
X30830Y19680
X30830Y20680
X30830Y21680
X30830Y22680
X30830Y23680
X30830Y24680
X30830Y25680
X30830Y26680
X30830Y27680
X30830Y28680
X30830Y29680
X30830Y31180
X30830Y34180
X33580Y35180
X36580Y35180
X36830Y34180
X36830Y31180
X36830Y29680
X36830Y28680
X36830Y27680
X36830Y26680
X36830Y25680
X36830Y24680
X36830Y23680
X36830Y22680
X36830Y21680
X36830Y20680
X36830Y19680
X36830Y18680
X36830Y17680
X36830Y16680
X27830Y21880
X26830Y21880
X25830Y21880
X24830Y21880
X23830Y21880
X22830Y21880
X21830Y21880
X19743Y21693
X18743Y21693
X19330Y24555
X19330Y25555
X20780Y26755
X21830Y24880
X22830Y24880
X23830Y24880
X24830Y24880
X25830Y24880
X26830Y24880
X27830Y24880
X28580Y26755
X27830Y28430
X26830Y28430
X25830Y28430
X24830Y28430
X23830Y28430
X22830Y28430
X21830Y28430
X23780Y26755
X25580Y26755
X25830Y31430
X26830Y31430
X27830Y31430
X24830Y31430
X23830Y31430
X22830Y31430
X21830Y31430
X20330Y33680
X20330Y35180
X18830Y35180
X18830Y33680
X15830Y33680
X15830Y35180
X13830Y35180
X13830Y33680
X10830Y33680
X9830Y33680
X9830Y35180
X10830Y35180
X6830Y35180
X6830Y33680
X5330Y33680
X5330Y35180
X2330Y35180
X2330Y33680
X5330Y29180
X3330Y27180
X2330Y27180
X5330Y26180
X5330Y24180
X5330Y23180
X5330Y21680
X5330Y20680
X3455Y19180
X2455Y19180
X1205Y17680
X1205Y20680
X10330Y16805
X11330Y16805
X12580Y15055
X13580Y15055
X7580Y8430
X6580Y8430
X4580Y6180
X8580Y6180
X16705Y26680
X17705Y26680
X23330Y33680
X23330Y35180
X23830Y37180
X25330Y37180
X28330Y37180
X20830Y37180
X10168Y29668
X9168Y29668
T06
X9330Y31680
X8330Y31680
X7330Y31680
X6330Y31680
X5330Y31680
X4330Y31680
X3330Y31680
X2330Y31680
X2330Y37180
X3330Y37180
X4330Y37180
X5330Y37180
X6330Y37180
X7330Y37180
X8330Y37180
X9330Y37180
X11830Y37180
X12830Y37180
X13830Y37180
X14830Y37180
X15830Y37180
X16830Y37180
X17830Y37180
X18830Y37180
X18580Y31680
X17580Y31680
X16580Y31680
X15580Y31680
X14580Y31680
X13580Y31680
X12580Y31680
X11580Y31680
X17580Y21430
X21830Y19555
X21830Y18555
X22830Y18555
X22830Y19555
X23830Y19555
X23830Y18555
X24830Y18555
X24830Y19555
X25830Y19555
X25830Y18555
X26830Y18555
X26830Y19555
X27830Y19555
X27830Y18555
X28830Y18555
X28830Y19555
X25330Y14930
X25330Y13930
X24330Y13930
X24330Y14930
X23330Y14930
X23330Y13930
X22330Y13930
X22330Y14930
X21330Y14930
X21330Y13930
X20330Y13930
X20330Y14930
X19330Y14930
X19330Y13930
X18330Y13930
X18330Y14930
X17330Y14930
X17330Y13930
X16330Y13930
X16330Y14930
X15330Y14930
X15330Y13930
X8830Y12930
X7830Y12930
X7830Y14680
X6830Y14680
X5830Y14680
X4830Y14680
X3830Y14680
X2830Y14680
X1830Y14680
X830Y14680
X2330Y9180
X2330Y8180
X2330Y7180
X2330Y6180
X8130Y17918
X25300Y33540
X25300Y35320
X27860Y35320
X27860Y33540
X29830Y36180
X29830Y37180
X30830Y37180
X31830Y37180
X31830Y36180
X30830Y36180
X33730Y37193
X34730Y37193
X35730Y37193
X36730Y37193
X36830Y14180
X37830Y14180
X35830Y14180
X34830Y14180
X33830Y14180
X32830Y14180
X31830Y14180
X30830Y14180
X30330Y11180
X31330Y11180
X32330Y11180
X32330Y8680
X31330Y8680
X30330Y8680
X30330Y6180
X31330Y6180
X32330Y6180
X36830Y6180
X36830Y7180
X36830Y8180
X36830Y9180
X36830Y11180
X37830Y11180
X35830Y11180
X34830Y11180
T07
X26330Y12180
X25330Y12180
X24330Y12180
X23330Y12180
X22330Y12180
X21330Y12180
X20330Y12180
X19330Y12180
X18330Y12180
X17330Y12180
X16330Y12180
X15330Y12180
X14330Y12180
X13330Y12180
X12330Y12180
X11330Y12180
X11330Y6180
X12330Y6180
X13330Y6180
X14330Y6180
X15330Y6180
X16330Y6180
X17330Y6180
X18330Y6180
X19330Y6180
X20330Y6180
X21330Y6180
X22330Y6180
X23330Y6180
X24330Y6180
X25330Y6180
X26330Y6180
T08
X36705Y2955
X20055Y30293
X1618Y29393
X38268Y37993
M30
