G75*
%MOIN*%
%OFA0B0*%
%FSLAX24Y24*%
%IPPOS*%
%LPD*%
%AMOC8*
5,1,8,0,0,1.08239X$1,22.5*
%
%ADD10C,0.0000*%
D10*
X000330Y000180D02*
X000330Y039050D01*
X039322Y039050D01*
X039322Y000180D01*
X000330Y000180D01*
X001067Y029393D02*
X001069Y029440D01*
X001075Y029486D01*
X001085Y029532D01*
X001098Y029577D01*
X001116Y029620D01*
X001137Y029662D01*
X001161Y029702D01*
X001189Y029739D01*
X001220Y029774D01*
X001254Y029807D01*
X001290Y029836D01*
X001329Y029862D01*
X001370Y029885D01*
X001413Y029904D01*
X001457Y029920D01*
X001502Y029932D01*
X001548Y029940D01*
X001595Y029944D01*
X001641Y029944D01*
X001688Y029940D01*
X001734Y029932D01*
X001779Y029920D01*
X001823Y029904D01*
X001866Y029885D01*
X001907Y029862D01*
X001946Y029836D01*
X001982Y029807D01*
X002016Y029774D01*
X002047Y029739D01*
X002075Y029702D01*
X002099Y029662D01*
X002120Y029620D01*
X002138Y029577D01*
X002151Y029532D01*
X002161Y029486D01*
X002167Y029440D01*
X002169Y029393D01*
X002167Y029346D01*
X002161Y029300D01*
X002151Y029254D01*
X002138Y029209D01*
X002120Y029166D01*
X002099Y029124D01*
X002075Y029084D01*
X002047Y029047D01*
X002016Y029012D01*
X001982Y028979D01*
X001946Y028950D01*
X001907Y028924D01*
X001866Y028901D01*
X001823Y028882D01*
X001779Y028866D01*
X001734Y028854D01*
X001688Y028846D01*
X001641Y028842D01*
X001595Y028842D01*
X001548Y028846D01*
X001502Y028854D01*
X001457Y028866D01*
X001413Y028882D01*
X001370Y028901D01*
X001329Y028924D01*
X001290Y028950D01*
X001254Y028979D01*
X001220Y029012D01*
X001189Y029047D01*
X001161Y029084D01*
X001137Y029124D01*
X001116Y029166D01*
X001098Y029209D01*
X001085Y029254D01*
X001075Y029300D01*
X001069Y029346D01*
X001067Y029393D01*
X019504Y030293D02*
X019506Y030340D01*
X019512Y030386D01*
X019522Y030432D01*
X019535Y030477D01*
X019553Y030520D01*
X019574Y030562D01*
X019598Y030602D01*
X019626Y030639D01*
X019657Y030674D01*
X019691Y030707D01*
X019727Y030736D01*
X019766Y030762D01*
X019807Y030785D01*
X019850Y030804D01*
X019894Y030820D01*
X019939Y030832D01*
X019985Y030840D01*
X020032Y030844D01*
X020078Y030844D01*
X020125Y030840D01*
X020171Y030832D01*
X020216Y030820D01*
X020260Y030804D01*
X020303Y030785D01*
X020344Y030762D01*
X020383Y030736D01*
X020419Y030707D01*
X020453Y030674D01*
X020484Y030639D01*
X020512Y030602D01*
X020536Y030562D01*
X020557Y030520D01*
X020575Y030477D01*
X020588Y030432D01*
X020598Y030386D01*
X020604Y030340D01*
X020606Y030293D01*
X020604Y030246D01*
X020598Y030200D01*
X020588Y030154D01*
X020575Y030109D01*
X020557Y030066D01*
X020536Y030024D01*
X020512Y029984D01*
X020484Y029947D01*
X020453Y029912D01*
X020419Y029879D01*
X020383Y029850D01*
X020344Y029824D01*
X020303Y029801D01*
X020260Y029782D01*
X020216Y029766D01*
X020171Y029754D01*
X020125Y029746D01*
X020078Y029742D01*
X020032Y029742D01*
X019985Y029746D01*
X019939Y029754D01*
X019894Y029766D01*
X019850Y029782D01*
X019807Y029801D01*
X019766Y029824D01*
X019727Y029850D01*
X019691Y029879D01*
X019657Y029912D01*
X019626Y029947D01*
X019598Y029984D01*
X019574Y030024D01*
X019553Y030066D01*
X019535Y030109D01*
X019522Y030154D01*
X019512Y030200D01*
X019506Y030246D01*
X019504Y030293D01*
X037717Y037993D02*
X037719Y038040D01*
X037725Y038086D01*
X037735Y038132D01*
X037748Y038177D01*
X037766Y038220D01*
X037787Y038262D01*
X037811Y038302D01*
X037839Y038339D01*
X037870Y038374D01*
X037904Y038407D01*
X037940Y038436D01*
X037979Y038462D01*
X038020Y038485D01*
X038063Y038504D01*
X038107Y038520D01*
X038152Y038532D01*
X038198Y038540D01*
X038245Y038544D01*
X038291Y038544D01*
X038338Y038540D01*
X038384Y038532D01*
X038429Y038520D01*
X038473Y038504D01*
X038516Y038485D01*
X038557Y038462D01*
X038596Y038436D01*
X038632Y038407D01*
X038666Y038374D01*
X038697Y038339D01*
X038725Y038302D01*
X038749Y038262D01*
X038770Y038220D01*
X038788Y038177D01*
X038801Y038132D01*
X038811Y038086D01*
X038817Y038040D01*
X038819Y037993D01*
X038817Y037946D01*
X038811Y037900D01*
X038801Y037854D01*
X038788Y037809D01*
X038770Y037766D01*
X038749Y037724D01*
X038725Y037684D01*
X038697Y037647D01*
X038666Y037612D01*
X038632Y037579D01*
X038596Y037550D01*
X038557Y037524D01*
X038516Y037501D01*
X038473Y037482D01*
X038429Y037466D01*
X038384Y037454D01*
X038338Y037446D01*
X038291Y037442D01*
X038245Y037442D01*
X038198Y037446D01*
X038152Y037454D01*
X038107Y037466D01*
X038063Y037482D01*
X038020Y037501D01*
X037979Y037524D01*
X037940Y037550D01*
X037904Y037579D01*
X037870Y037612D01*
X037839Y037647D01*
X037811Y037684D01*
X037787Y037724D01*
X037766Y037766D01*
X037748Y037809D01*
X037735Y037854D01*
X037725Y037900D01*
X037719Y037946D01*
X037717Y037993D01*
X036154Y002955D02*
X036156Y003002D01*
X036162Y003048D01*
X036172Y003094D01*
X036185Y003139D01*
X036203Y003182D01*
X036224Y003224D01*
X036248Y003264D01*
X036276Y003301D01*
X036307Y003336D01*
X036341Y003369D01*
X036377Y003398D01*
X036416Y003424D01*
X036457Y003447D01*
X036500Y003466D01*
X036544Y003482D01*
X036589Y003494D01*
X036635Y003502D01*
X036682Y003506D01*
X036728Y003506D01*
X036775Y003502D01*
X036821Y003494D01*
X036866Y003482D01*
X036910Y003466D01*
X036953Y003447D01*
X036994Y003424D01*
X037033Y003398D01*
X037069Y003369D01*
X037103Y003336D01*
X037134Y003301D01*
X037162Y003264D01*
X037186Y003224D01*
X037207Y003182D01*
X037225Y003139D01*
X037238Y003094D01*
X037248Y003048D01*
X037254Y003002D01*
X037256Y002955D01*
X037254Y002908D01*
X037248Y002862D01*
X037238Y002816D01*
X037225Y002771D01*
X037207Y002728D01*
X037186Y002686D01*
X037162Y002646D01*
X037134Y002609D01*
X037103Y002574D01*
X037069Y002541D01*
X037033Y002512D01*
X036994Y002486D01*
X036953Y002463D01*
X036910Y002444D01*
X036866Y002428D01*
X036821Y002416D01*
X036775Y002408D01*
X036728Y002404D01*
X036682Y002404D01*
X036635Y002408D01*
X036589Y002416D01*
X036544Y002428D01*
X036500Y002444D01*
X036457Y002463D01*
X036416Y002486D01*
X036377Y002512D01*
X036341Y002541D01*
X036307Y002574D01*
X036276Y002609D01*
X036248Y002646D01*
X036224Y002686D01*
X036203Y002728D01*
X036185Y002771D01*
X036172Y002816D01*
X036162Y002862D01*
X036156Y002908D01*
X036154Y002955D01*
M02*
