G75*
%MOIN*%
%OFA0B0*%
%FSLAX24Y24*%
%IPPOS*%
%LPD*%
%AMOC8*
5,1,8,0,0,1.08239X$1,22.5*
%
%ADD10C,0.0000*%
%ADD11C,0.0040*%
%ADD12C,0.0060*%
%ADD13C,0.0050*%
%ADD14C,0.0120*%
%ADD15C,0.0070*%
%ADD16C,0.0080*%
%ADD17R,0.0150X0.0200*%
%ADD18R,0.0200X0.0150*%
%ADD19C,0.0100*%
%ADD20C,0.0010*%
%ADD21R,0.0340X0.0240*%
%ADD22C,0.0030*%
D10*
X000330Y000180D02*
X000330Y039050D01*
X039322Y039050D01*
X039322Y000180D01*
X000330Y000180D01*
X001067Y029393D02*
X001069Y029440D01*
X001075Y029486D01*
X001085Y029532D01*
X001098Y029577D01*
X001116Y029620D01*
X001137Y029662D01*
X001161Y029702D01*
X001189Y029739D01*
X001220Y029774D01*
X001254Y029807D01*
X001290Y029836D01*
X001329Y029862D01*
X001370Y029885D01*
X001413Y029904D01*
X001457Y029920D01*
X001502Y029932D01*
X001548Y029940D01*
X001595Y029944D01*
X001641Y029944D01*
X001688Y029940D01*
X001734Y029932D01*
X001779Y029920D01*
X001823Y029904D01*
X001866Y029885D01*
X001907Y029862D01*
X001946Y029836D01*
X001982Y029807D01*
X002016Y029774D01*
X002047Y029739D01*
X002075Y029702D01*
X002099Y029662D01*
X002120Y029620D01*
X002138Y029577D01*
X002151Y029532D01*
X002161Y029486D01*
X002167Y029440D01*
X002169Y029393D01*
X002167Y029346D01*
X002161Y029300D01*
X002151Y029254D01*
X002138Y029209D01*
X002120Y029166D01*
X002099Y029124D01*
X002075Y029084D01*
X002047Y029047D01*
X002016Y029012D01*
X001982Y028979D01*
X001946Y028950D01*
X001907Y028924D01*
X001866Y028901D01*
X001823Y028882D01*
X001779Y028866D01*
X001734Y028854D01*
X001688Y028846D01*
X001641Y028842D01*
X001595Y028842D01*
X001548Y028846D01*
X001502Y028854D01*
X001457Y028866D01*
X001413Y028882D01*
X001370Y028901D01*
X001329Y028924D01*
X001290Y028950D01*
X001254Y028979D01*
X001220Y029012D01*
X001189Y029047D01*
X001161Y029084D01*
X001137Y029124D01*
X001116Y029166D01*
X001098Y029209D01*
X001085Y029254D01*
X001075Y029300D01*
X001069Y029346D01*
X001067Y029393D01*
X019504Y030293D02*
X019506Y030340D01*
X019512Y030386D01*
X019522Y030432D01*
X019535Y030477D01*
X019553Y030520D01*
X019574Y030562D01*
X019598Y030602D01*
X019626Y030639D01*
X019657Y030674D01*
X019691Y030707D01*
X019727Y030736D01*
X019766Y030762D01*
X019807Y030785D01*
X019850Y030804D01*
X019894Y030820D01*
X019939Y030832D01*
X019985Y030840D01*
X020032Y030844D01*
X020078Y030844D01*
X020125Y030840D01*
X020171Y030832D01*
X020216Y030820D01*
X020260Y030804D01*
X020303Y030785D01*
X020344Y030762D01*
X020383Y030736D01*
X020419Y030707D01*
X020453Y030674D01*
X020484Y030639D01*
X020512Y030602D01*
X020536Y030562D01*
X020557Y030520D01*
X020575Y030477D01*
X020588Y030432D01*
X020598Y030386D01*
X020604Y030340D01*
X020606Y030293D01*
X020604Y030246D01*
X020598Y030200D01*
X020588Y030154D01*
X020575Y030109D01*
X020557Y030066D01*
X020536Y030024D01*
X020512Y029984D01*
X020484Y029947D01*
X020453Y029912D01*
X020419Y029879D01*
X020383Y029850D01*
X020344Y029824D01*
X020303Y029801D01*
X020260Y029782D01*
X020216Y029766D01*
X020171Y029754D01*
X020125Y029746D01*
X020078Y029742D01*
X020032Y029742D01*
X019985Y029746D01*
X019939Y029754D01*
X019894Y029766D01*
X019850Y029782D01*
X019807Y029801D01*
X019766Y029824D01*
X019727Y029850D01*
X019691Y029879D01*
X019657Y029912D01*
X019626Y029947D01*
X019598Y029984D01*
X019574Y030024D01*
X019553Y030066D01*
X019535Y030109D01*
X019522Y030154D01*
X019512Y030200D01*
X019506Y030246D01*
X019504Y030293D01*
X037717Y037993D02*
X037719Y038040D01*
X037725Y038086D01*
X037735Y038132D01*
X037748Y038177D01*
X037766Y038220D01*
X037787Y038262D01*
X037811Y038302D01*
X037839Y038339D01*
X037870Y038374D01*
X037904Y038407D01*
X037940Y038436D01*
X037979Y038462D01*
X038020Y038485D01*
X038063Y038504D01*
X038107Y038520D01*
X038152Y038532D01*
X038198Y038540D01*
X038245Y038544D01*
X038291Y038544D01*
X038338Y038540D01*
X038384Y038532D01*
X038429Y038520D01*
X038473Y038504D01*
X038516Y038485D01*
X038557Y038462D01*
X038596Y038436D01*
X038632Y038407D01*
X038666Y038374D01*
X038697Y038339D01*
X038725Y038302D01*
X038749Y038262D01*
X038770Y038220D01*
X038788Y038177D01*
X038801Y038132D01*
X038811Y038086D01*
X038817Y038040D01*
X038819Y037993D01*
X038817Y037946D01*
X038811Y037900D01*
X038801Y037854D01*
X038788Y037809D01*
X038770Y037766D01*
X038749Y037724D01*
X038725Y037684D01*
X038697Y037647D01*
X038666Y037612D01*
X038632Y037579D01*
X038596Y037550D01*
X038557Y037524D01*
X038516Y037501D01*
X038473Y037482D01*
X038429Y037466D01*
X038384Y037454D01*
X038338Y037446D01*
X038291Y037442D01*
X038245Y037442D01*
X038198Y037446D01*
X038152Y037454D01*
X038107Y037466D01*
X038063Y037482D01*
X038020Y037501D01*
X037979Y037524D01*
X037940Y037550D01*
X037904Y037579D01*
X037870Y037612D01*
X037839Y037647D01*
X037811Y037684D01*
X037787Y037724D01*
X037766Y037766D01*
X037748Y037809D01*
X037735Y037854D01*
X037725Y037900D01*
X037719Y037946D01*
X037717Y037993D01*
X036154Y002955D02*
X036156Y003002D01*
X036162Y003048D01*
X036172Y003094D01*
X036185Y003139D01*
X036203Y003182D01*
X036224Y003224D01*
X036248Y003264D01*
X036276Y003301D01*
X036307Y003336D01*
X036341Y003369D01*
X036377Y003398D01*
X036416Y003424D01*
X036457Y003447D01*
X036500Y003466D01*
X036544Y003482D01*
X036589Y003494D01*
X036635Y003502D01*
X036682Y003506D01*
X036728Y003506D01*
X036775Y003502D01*
X036821Y003494D01*
X036866Y003482D01*
X036910Y003466D01*
X036953Y003447D01*
X036994Y003424D01*
X037033Y003398D01*
X037069Y003369D01*
X037103Y003336D01*
X037134Y003301D01*
X037162Y003264D01*
X037186Y003224D01*
X037207Y003182D01*
X037225Y003139D01*
X037238Y003094D01*
X037248Y003048D01*
X037254Y003002D01*
X037256Y002955D01*
X037254Y002908D01*
X037248Y002862D01*
X037238Y002816D01*
X037225Y002771D01*
X037207Y002728D01*
X037186Y002686D01*
X037162Y002646D01*
X037134Y002609D01*
X037103Y002574D01*
X037069Y002541D01*
X037033Y002512D01*
X036994Y002486D01*
X036953Y002463D01*
X036910Y002444D01*
X036866Y002428D01*
X036821Y002416D01*
X036775Y002408D01*
X036728Y002404D01*
X036682Y002404D01*
X036635Y002408D01*
X036589Y002416D01*
X036544Y002428D01*
X036500Y002444D01*
X036457Y002463D01*
X036416Y002486D01*
X036377Y002512D01*
X036341Y002541D01*
X036307Y002574D01*
X036276Y002609D01*
X036248Y002646D01*
X036224Y002686D01*
X036203Y002728D01*
X036185Y002771D01*
X036172Y002816D01*
X036162Y002862D01*
X036156Y002908D01*
X036154Y002955D01*
D11*
X033578Y001584D02*
X033578Y001507D01*
X033501Y001430D01*
X033348Y001430D01*
X033271Y001507D01*
X033271Y001584D01*
X033348Y001660D01*
X033501Y001660D01*
X033578Y001584D01*
X033501Y001430D02*
X033578Y001353D01*
X033578Y001277D01*
X033501Y001200D01*
X033348Y001200D01*
X033271Y001277D01*
X033271Y001353D01*
X033348Y001430D01*
X033117Y001200D02*
X032810Y001200D01*
X032964Y001200D02*
X032964Y001660D01*
X032810Y001507D01*
X032657Y001584D02*
X032657Y001430D01*
X032580Y001353D01*
X032350Y001353D01*
X032350Y001200D02*
X032350Y001660D01*
X032580Y001660D01*
X032657Y001584D01*
X032810Y004200D02*
X032810Y004660D01*
X033041Y004660D01*
X033117Y004584D01*
X033117Y004430D01*
X033041Y004353D01*
X032810Y004353D01*
X032964Y004353D02*
X033117Y004200D01*
X032657Y004430D02*
X032580Y004353D01*
X032350Y004353D01*
X032350Y004200D02*
X032350Y004660D01*
X032580Y004660D01*
X032657Y004584D01*
X032657Y004430D01*
X027501Y001660D02*
X027271Y001430D01*
X027578Y001430D01*
X027501Y001200D02*
X027501Y001660D01*
X026964Y001660D02*
X026964Y001200D01*
X027117Y001200D02*
X026810Y001200D01*
X026580Y001353D02*
X026350Y001353D01*
X026350Y001200D02*
X026350Y001660D01*
X026580Y001660D01*
X026657Y001584D01*
X026657Y001430D01*
X026580Y001353D01*
X026810Y001507D02*
X026964Y001660D01*
X021078Y001584D02*
X021078Y001277D01*
X021001Y001200D01*
X020848Y001200D01*
X020771Y001277D01*
X021078Y001584D01*
X021001Y001660D01*
X020848Y001660D01*
X020771Y001584D01*
X020771Y001277D01*
X020617Y001200D02*
X020310Y001200D01*
X020464Y001200D02*
X020464Y001660D01*
X020310Y001507D01*
X020157Y001584D02*
X020157Y001430D01*
X020080Y001353D01*
X019850Y001353D01*
X019850Y001200D02*
X019850Y001660D01*
X020080Y001660D01*
X020157Y001584D01*
X013117Y001660D02*
X012810Y001660D01*
X012810Y001430D01*
X012964Y001507D01*
X013041Y001507D01*
X013117Y001430D01*
X013117Y001277D01*
X013041Y001200D01*
X012887Y001200D01*
X012810Y001277D01*
X012657Y001430D02*
X012580Y001353D01*
X012350Y001353D01*
X012350Y001200D02*
X012350Y001660D01*
X012580Y001660D01*
X012657Y001584D01*
X012657Y001430D01*
X006617Y001200D02*
X006310Y001200D01*
X006464Y001200D02*
X006464Y001660D01*
X006310Y001507D01*
X006157Y001584D02*
X006157Y001430D01*
X006080Y001353D01*
X005850Y001353D01*
X005850Y001200D02*
X005850Y001660D01*
X006080Y001660D01*
X006157Y001584D01*
X006310Y004200D02*
X006310Y004507D01*
X006464Y004660D01*
X006617Y004507D01*
X006617Y004200D01*
X006617Y004430D02*
X006310Y004430D01*
X006157Y004430D02*
X006080Y004353D01*
X005850Y004353D01*
X005850Y004200D02*
X005850Y004660D01*
X006080Y004660D01*
X006157Y004584D01*
X006157Y004430D01*
X006078Y010450D02*
X006078Y010970D01*
X005905Y010797D01*
X005905Y010450D02*
X006252Y010450D01*
X006936Y010537D02*
X007283Y010884D01*
X007283Y010537D01*
X007196Y010450D01*
X007023Y010450D01*
X006936Y010537D01*
X006936Y010884D01*
X007023Y010970D01*
X007196Y010970D01*
X007283Y010884D01*
X007452Y010710D02*
X007712Y010710D01*
X007799Y010623D01*
X007799Y010537D01*
X007712Y010450D01*
X007538Y010450D01*
X007452Y010537D01*
X007452Y010710D01*
X007625Y010884D01*
X007799Y010970D01*
X007967Y010710D02*
X008314Y010710D01*
X008483Y010884D02*
X008570Y010970D01*
X008743Y010970D01*
X008830Y010884D01*
X008830Y010797D01*
X008483Y010450D01*
X008830Y010450D01*
X008999Y010537D02*
X009346Y010884D01*
X009346Y010537D01*
X009259Y010450D01*
X009085Y010450D01*
X008999Y010537D01*
X008999Y010884D01*
X009085Y010970D01*
X009259Y010970D01*
X009346Y010884D01*
X009514Y010797D02*
X009688Y010970D01*
X009688Y010450D01*
X009861Y010450D02*
X009514Y010450D01*
X010030Y010710D02*
X010377Y010710D01*
X010290Y010450D02*
X010290Y010970D01*
X010030Y010710D01*
X006852Y011290D02*
X006678Y011290D01*
X006765Y011290D02*
X006765Y011810D01*
X006678Y011810D01*
X006421Y011810D02*
X006421Y011290D01*
X006335Y011290D02*
X006508Y011290D01*
X006166Y011463D02*
X005819Y011463D01*
X005819Y011377D02*
X005819Y011550D01*
X005906Y011637D01*
X006079Y011637D01*
X006166Y011550D01*
X006166Y011463D01*
X006079Y011290D02*
X005906Y011290D01*
X005819Y011377D01*
X005650Y011290D02*
X005650Y011550D01*
X005563Y011637D01*
X005390Y011637D01*
X005303Y011550D01*
X005135Y011637D02*
X004874Y011637D01*
X004788Y011550D01*
X004788Y011377D01*
X004874Y011290D01*
X005135Y011290D01*
X005303Y011290D02*
X005303Y011810D01*
X005306Y012130D02*
X005046Y012130D01*
X004959Y012217D01*
X005046Y012303D01*
X005306Y012303D01*
X005306Y012390D02*
X005306Y012130D01*
X005475Y012130D02*
X005475Y012650D01*
X005220Y012477D02*
X005046Y012477D01*
X005220Y012477D02*
X005306Y012390D01*
X005475Y012303D02*
X005735Y012477D01*
X005905Y012217D02*
X005992Y012217D01*
X005992Y012130D01*
X005905Y012130D01*
X005905Y012217D01*
X005735Y012130D02*
X005475Y012303D01*
X004791Y012130D02*
X004444Y012130D01*
X004791Y012477D01*
X004444Y012477D01*
X004274Y012477D02*
X004014Y012303D01*
X004274Y012130D01*
X004187Y011897D02*
X004187Y011810D01*
X004187Y011637D02*
X004187Y011290D01*
X004100Y011290D02*
X004274Y011290D01*
X004531Y011377D02*
X004531Y011724D01*
X004617Y011637D02*
X004444Y011637D01*
X004187Y011637D02*
X004100Y011637D01*
X003931Y011810D02*
X003931Y011290D01*
X003584Y011290D02*
X003584Y011810D01*
X003758Y011637D01*
X003931Y011810D01*
X004014Y012130D02*
X004014Y012650D01*
X003757Y012650D02*
X003757Y012737D01*
X003670Y012970D02*
X003670Y013490D01*
X003415Y013317D02*
X003502Y013230D01*
X003502Y012970D01*
X003241Y012970D01*
X003155Y013057D01*
X003241Y013143D01*
X003502Y013143D01*
X003670Y013143D02*
X003931Y012970D01*
X003670Y013143D02*
X003931Y013317D01*
X003415Y013317D02*
X003241Y013317D01*
X002986Y013317D02*
X002639Y012970D01*
X002986Y012970D01*
X002986Y013317D02*
X002639Y013317D01*
X002470Y013317D02*
X002209Y013143D01*
X002470Y012970D01*
X002209Y012970D02*
X002209Y013490D01*
X001952Y013490D02*
X001952Y013577D01*
X001952Y013317D02*
X001952Y012970D01*
X001866Y012970D02*
X002039Y012970D01*
X001697Y012970D02*
X001350Y012970D01*
X001350Y013057D01*
X001697Y013404D01*
X001697Y013490D01*
X001350Y013490D01*
X001866Y013317D02*
X001952Y013317D01*
X001866Y012477D02*
X001866Y012217D01*
X001952Y012130D01*
X002039Y012217D01*
X002126Y012130D01*
X002213Y012217D01*
X002213Y012477D01*
X002381Y012477D02*
X002381Y012217D01*
X002468Y012130D01*
X002555Y012217D01*
X002642Y012130D01*
X002728Y012217D01*
X002728Y012477D01*
X002897Y012217D02*
X002897Y012130D01*
X002984Y012130D01*
X002984Y012217D01*
X002897Y012217D01*
X003155Y012130D02*
X003502Y012130D01*
X003670Y012130D02*
X003844Y012130D01*
X003757Y012130D02*
X003757Y012477D01*
X003670Y012477D01*
X003502Y012477D02*
X003155Y012130D01*
X003155Y012477D02*
X003502Y012477D01*
X002899Y011810D02*
X002812Y011724D01*
X002812Y011290D01*
X002725Y011550D02*
X002899Y011550D01*
X002555Y011550D02*
X002381Y011550D01*
X002213Y011550D02*
X002213Y011463D01*
X001866Y011463D01*
X001866Y011377D02*
X001866Y011550D01*
X001952Y011637D01*
X002126Y011637D01*
X002213Y011550D01*
X002126Y011290D02*
X001952Y011290D01*
X001866Y011377D01*
X001610Y011377D02*
X001610Y011810D01*
X001523Y011810D02*
X001697Y011810D01*
X001610Y012130D02*
X001697Y012217D01*
X001697Y012477D01*
X001523Y012217D02*
X001437Y012130D01*
X001350Y012217D01*
X001350Y012477D01*
X001523Y012217D02*
X001610Y012130D01*
X001610Y011377D02*
X001523Y011290D01*
X001437Y011290D01*
X001350Y011377D01*
X001350Y010970D02*
X001610Y010970D01*
X001697Y010884D01*
X001697Y010797D01*
X001610Y010710D01*
X001350Y010710D01*
X001350Y010450D02*
X001350Y010970D01*
X001610Y010710D02*
X001697Y010623D01*
X001697Y010537D01*
X001610Y010450D01*
X001350Y010450D01*
X001866Y010537D02*
X001952Y010623D01*
X002213Y010623D01*
X002213Y010710D02*
X002213Y010450D01*
X001952Y010450D01*
X001866Y010537D01*
X001952Y010797D02*
X002126Y010797D01*
X002213Y010710D01*
X002381Y010710D02*
X002468Y010623D01*
X002642Y010623D01*
X002728Y010537D01*
X002642Y010450D01*
X002381Y010450D01*
X002381Y010710D02*
X002468Y010797D01*
X002728Y010797D01*
X002897Y010710D02*
X002897Y010537D01*
X002984Y010450D01*
X003157Y010450D01*
X003244Y010623D02*
X002897Y010623D01*
X002897Y010710D02*
X002984Y010797D01*
X003157Y010797D01*
X003244Y010710D01*
X003244Y010623D01*
X003928Y010623D02*
X004102Y010797D01*
X004188Y010797D01*
X004358Y010710D02*
X004358Y010537D01*
X004445Y010450D01*
X004618Y010450D01*
X004705Y010623D02*
X004358Y010623D01*
X004358Y010710D02*
X004445Y010797D01*
X004618Y010797D01*
X004705Y010710D01*
X004705Y010623D01*
X004874Y010797D02*
X005047Y010450D01*
X005221Y010797D01*
X004617Y011290D02*
X004531Y011377D01*
X003928Y010797D02*
X003928Y010450D01*
X002468Y011290D02*
X002468Y011724D01*
X002555Y011810D01*
X006163Y012217D02*
X006249Y012130D01*
X006510Y012130D01*
X006678Y012217D02*
X006765Y012303D01*
X007025Y012303D01*
X007025Y012390D02*
X007025Y012130D01*
X006765Y012130D01*
X006678Y012217D01*
X006765Y012477D02*
X006938Y012477D01*
X007025Y012390D01*
X006510Y012477D02*
X006249Y012477D01*
X006163Y012390D01*
X006163Y012217D01*
X006335Y011810D02*
X006421Y011810D01*
X002085Y019482D02*
X001735Y019482D01*
X001735Y019657D01*
X001793Y019715D01*
X001910Y019715D01*
X001968Y019657D01*
X001968Y019482D01*
X001968Y019599D02*
X002085Y019715D01*
X002085Y019841D02*
X001851Y020074D01*
X001793Y020074D01*
X001735Y020016D01*
X001735Y019899D01*
X001793Y019841D01*
X002085Y019841D02*
X002085Y020074D01*
X005860Y027982D02*
X005860Y028157D01*
X005918Y028215D01*
X006035Y028215D01*
X006093Y028157D01*
X006093Y027982D01*
X006093Y028099D02*
X006210Y028215D01*
X006035Y028341D02*
X005860Y028516D01*
X006210Y028516D01*
X006035Y028574D02*
X006035Y028341D01*
X006210Y027982D02*
X005860Y027982D01*
X007350Y034210D02*
X007350Y034560D01*
X007525Y034560D01*
X007584Y034502D01*
X007584Y034385D01*
X007525Y034327D01*
X007350Y034327D01*
X007467Y034327D02*
X007584Y034210D01*
X007709Y034210D02*
X007943Y034210D01*
X007826Y034210D02*
X007826Y034560D01*
X007709Y034444D01*
X008068Y034502D02*
X008127Y034560D01*
X008243Y034560D01*
X008302Y034502D01*
X008068Y034268D01*
X008127Y034210D01*
X008243Y034210D01*
X008302Y034268D01*
X008302Y034502D01*
X008068Y034502D02*
X008068Y034268D01*
X007884Y035710D02*
X007943Y035768D01*
X007943Y036002D01*
X007884Y036060D01*
X007767Y036060D01*
X007709Y036002D01*
X007709Y035944D01*
X007767Y035885D01*
X007943Y035885D01*
X007884Y035710D02*
X007767Y035710D01*
X007709Y035768D01*
X007584Y035710D02*
X007467Y035827D01*
X007525Y035827D02*
X007350Y035827D01*
X007350Y035710D02*
X007350Y036060D01*
X007525Y036060D01*
X007584Y036002D01*
X007584Y035885D01*
X007525Y035827D01*
X011350Y035827D02*
X011525Y035827D01*
X011584Y035885D01*
X011584Y036002D01*
X011525Y036060D01*
X011350Y036060D01*
X011350Y035710D01*
X011467Y035827D02*
X011584Y035710D01*
X011709Y035710D02*
X011943Y035944D01*
X011943Y036002D01*
X011884Y036060D01*
X011767Y036060D01*
X011709Y036002D01*
X011709Y035710D02*
X011943Y035710D01*
X012068Y035768D02*
X012302Y036002D01*
X012302Y035768D01*
X012243Y035710D01*
X012127Y035710D01*
X012068Y035768D01*
X012068Y036002D01*
X012127Y036060D01*
X012243Y036060D01*
X012302Y036002D01*
X012185Y034560D02*
X012185Y034210D01*
X012068Y034210D02*
X012302Y034210D01*
X012068Y034444D02*
X012185Y034560D01*
X011826Y034560D02*
X011826Y034210D01*
X011709Y034210D02*
X011943Y034210D01*
X011709Y034444D02*
X011826Y034560D01*
X011584Y034502D02*
X011584Y034385D01*
X011525Y034327D01*
X011350Y034327D01*
X011467Y034327D02*
X011584Y034210D01*
X011350Y034210D02*
X011350Y034560D01*
X011525Y034560D01*
X011584Y034502D01*
X016350Y035710D02*
X016350Y036060D01*
X016525Y036060D01*
X016584Y036002D01*
X016584Y035885D01*
X016525Y035827D01*
X016350Y035827D01*
X016467Y035827D02*
X016584Y035710D01*
X016709Y035710D02*
X016943Y035944D01*
X016943Y036002D01*
X016884Y036060D01*
X016767Y036060D01*
X016709Y036002D01*
X016709Y035710D02*
X016943Y035710D01*
X017068Y035710D02*
X017302Y035710D01*
X017185Y035710D02*
X017185Y036060D01*
X017068Y035944D01*
X017273Y033150D02*
X017448Y033150D01*
X017506Y033092D01*
X017506Y032975D01*
X017448Y032917D01*
X017273Y032917D01*
X017389Y032917D02*
X017506Y032800D01*
X017632Y032800D02*
X017865Y032800D01*
X017749Y032800D02*
X017749Y033150D01*
X017632Y033034D01*
X017991Y032975D02*
X018166Y033150D01*
X018166Y032800D01*
X018224Y032975D02*
X017991Y032975D01*
X017273Y032800D02*
X017273Y033150D01*
X020850Y034210D02*
X020850Y034560D01*
X021025Y034560D01*
X021084Y034502D01*
X021084Y034385D01*
X021025Y034327D01*
X020850Y034327D01*
X020967Y034327D02*
X021084Y034210D01*
X021209Y034210D02*
X021443Y034444D01*
X021443Y034502D01*
X021384Y034560D01*
X021267Y034560D01*
X021209Y034502D01*
X021209Y034210D02*
X021443Y034210D01*
X021568Y034268D02*
X021627Y034210D01*
X021743Y034210D01*
X021802Y034268D01*
X021802Y034327D01*
X021743Y034385D01*
X021685Y034385D01*
X021743Y034385D02*
X021802Y034444D01*
X021802Y034502D01*
X021743Y034560D01*
X021627Y034560D01*
X021568Y034502D01*
X021568Y035710D02*
X021802Y035944D01*
X021802Y036002D01*
X021743Y036060D01*
X021627Y036060D01*
X021568Y036002D01*
X021443Y036002D02*
X021384Y036060D01*
X021267Y036060D01*
X021209Y036002D01*
X021084Y036002D02*
X021084Y035885D01*
X021025Y035827D01*
X020850Y035827D01*
X020967Y035827D02*
X021084Y035710D01*
X021209Y035710D02*
X021443Y035944D01*
X021443Y036002D01*
X021443Y035710D02*
X021209Y035710D01*
X021084Y036002D02*
X021025Y036060D01*
X020850Y036060D01*
X020850Y035710D01*
X021568Y035710D02*
X021802Y035710D01*
X022632Y036300D02*
X022632Y036650D01*
X022807Y036650D01*
X022865Y036592D01*
X022865Y036475D01*
X022807Y036417D01*
X022632Y036417D01*
X022749Y036417D02*
X022865Y036300D01*
X022991Y036300D02*
X023224Y036300D01*
X023108Y036300D02*
X023108Y036650D01*
X022991Y036534D01*
X027132Y036650D02*
X027132Y036300D01*
X027132Y036417D02*
X027307Y036417D01*
X027365Y036475D01*
X027365Y036592D01*
X027307Y036650D01*
X027132Y036650D01*
X027249Y036417D02*
X027365Y036300D01*
X027491Y036358D02*
X027549Y036300D01*
X027666Y036300D01*
X027724Y036358D01*
X027724Y036417D01*
X027666Y036475D01*
X027491Y036475D01*
X027491Y036358D01*
X027491Y036475D02*
X027608Y036592D01*
X027724Y036650D01*
X034100Y036060D02*
X034100Y035710D01*
X034100Y035827D02*
X034275Y035827D01*
X034334Y035885D01*
X034334Y036002D01*
X034275Y036060D01*
X034100Y036060D01*
X034217Y035827D02*
X034334Y035710D01*
X034459Y035768D02*
X034517Y035710D01*
X034634Y035710D01*
X034693Y035768D01*
X034693Y035827D01*
X034634Y035885D01*
X034576Y035885D01*
X034634Y035885D02*
X034693Y035944D01*
X034693Y036002D01*
X034634Y036060D01*
X034517Y036060D01*
X034459Y036002D01*
X026993Y027635D02*
X026877Y027635D01*
X026818Y027577D01*
X026993Y027635D02*
X027052Y027577D01*
X027052Y027519D01*
X026818Y027285D01*
X027052Y027285D01*
X026693Y027285D02*
X026459Y027285D01*
X026576Y027285D02*
X026576Y027635D01*
X026459Y027519D01*
X026334Y027577D02*
X026334Y027460D01*
X026275Y027402D01*
X026100Y027402D01*
X026217Y027402D02*
X026334Y027285D01*
X026100Y027285D02*
X026100Y027635D01*
X026275Y027635D01*
X026334Y027577D01*
X023174Y026167D02*
X023174Y026109D01*
X023116Y026050D01*
X023174Y025992D01*
X023174Y025933D01*
X023116Y025875D01*
X022999Y025875D01*
X022941Y025933D01*
X022815Y025875D02*
X022582Y025875D01*
X022699Y025875D02*
X022699Y026225D01*
X022582Y026109D01*
X022456Y026167D02*
X022456Y026050D01*
X022398Y025992D01*
X022223Y025992D01*
X022339Y025992D02*
X022456Y025875D01*
X022223Y025875D02*
X022223Y026225D01*
X022398Y026225D01*
X022456Y026167D01*
X022941Y026167D02*
X022999Y026225D01*
X023116Y026225D01*
X023174Y026167D01*
X023116Y026050D02*
X023058Y026050D01*
X013419Y022334D02*
X013419Y022257D01*
X013343Y022180D01*
X013419Y022103D01*
X013419Y022027D01*
X013343Y021950D01*
X013189Y021950D01*
X013112Y022027D01*
X012959Y022027D02*
X012959Y022334D01*
X012882Y022410D01*
X012729Y022410D01*
X012652Y022334D01*
X012652Y022257D01*
X012729Y022180D01*
X012959Y022180D01*
X012959Y022027D02*
X012882Y021950D01*
X012729Y021950D01*
X012652Y022027D01*
X012345Y022180D02*
X012192Y022180D01*
X012038Y022334D02*
X012038Y022027D01*
X011961Y021950D01*
X011808Y021950D01*
X011731Y022027D01*
X012038Y022334D01*
X011961Y022410D01*
X011808Y022410D01*
X011731Y022334D01*
X011731Y022027D01*
X011578Y022027D02*
X011501Y021950D01*
X011348Y021950D01*
X011271Y022027D01*
X011271Y022103D01*
X011348Y022180D01*
X011501Y022180D01*
X011578Y022103D01*
X011578Y022027D01*
X011501Y022180D02*
X011578Y022257D01*
X011578Y022334D01*
X011501Y022410D01*
X011348Y022410D01*
X011271Y022334D01*
X011271Y022257D01*
X011348Y022180D01*
X011117Y022334D02*
X010810Y022027D01*
X010810Y021950D01*
X011117Y021950D01*
X011117Y022334D02*
X011117Y022410D01*
X010810Y022410D01*
X010657Y022410D02*
X010350Y022410D01*
X010350Y021950D01*
X010657Y021950D01*
X010503Y022180D02*
X010350Y022180D01*
X012192Y021950D02*
X012192Y022410D01*
X012498Y022410D01*
X013112Y022334D02*
X013189Y022410D01*
X013343Y022410D01*
X013419Y022334D01*
X013343Y022180D02*
X013266Y022180D01*
X003384Y034210D02*
X003267Y034210D01*
X003209Y034268D01*
X003209Y034327D01*
X003267Y034385D01*
X003384Y034385D01*
X003443Y034327D01*
X003443Y034268D01*
X003384Y034210D01*
X003384Y034385D02*
X003443Y034444D01*
X003443Y034502D01*
X003384Y034560D01*
X003267Y034560D01*
X003209Y034502D01*
X003209Y034444D01*
X003267Y034385D01*
X003084Y034385D02*
X003025Y034327D01*
X002850Y034327D01*
X002967Y034327D02*
X003084Y034210D01*
X003084Y034385D02*
X003084Y034502D01*
X003025Y034560D01*
X002850Y034560D01*
X002850Y034210D01*
X002850Y035710D02*
X002850Y036060D01*
X003025Y036060D01*
X003084Y036002D01*
X003084Y035885D01*
X003025Y035827D01*
X002850Y035827D01*
X002967Y035827D02*
X003084Y035710D01*
X003209Y035710D02*
X003209Y035768D01*
X003443Y036002D01*
X003443Y036060D01*
X003209Y036060D01*
D12*
X003080Y035580D02*
X003130Y035530D01*
X004530Y035530D01*
X004580Y035580D01*
X004730Y035580D01*
X004747Y035578D01*
X004764Y035574D01*
X004780Y035567D01*
X004794Y035557D01*
X004807Y035544D01*
X004817Y035530D01*
X004824Y035514D01*
X004828Y035497D01*
X004830Y035480D01*
X004830Y034880D01*
X004828Y034863D01*
X004824Y034846D01*
X004817Y034830D01*
X004807Y034816D01*
X004794Y034803D01*
X004780Y034793D01*
X004764Y034786D01*
X004747Y034782D01*
X004730Y034780D01*
X004580Y034780D01*
X004530Y034830D01*
X003130Y034830D01*
X003080Y034780D01*
X002930Y034780D01*
X002913Y034782D01*
X002896Y034786D01*
X002880Y034793D01*
X002866Y034803D01*
X002853Y034816D01*
X002843Y034830D01*
X002836Y034846D01*
X002832Y034863D01*
X002830Y034880D01*
X002830Y035480D01*
X002832Y035497D01*
X002836Y035514D01*
X002843Y035530D01*
X002853Y035544D01*
X002866Y035557D01*
X002880Y035567D01*
X002896Y035574D01*
X002913Y035578D01*
X002930Y035580D01*
X003080Y035580D01*
X003080Y036680D02*
X002830Y036930D01*
X002580Y036680D01*
X002080Y036680D01*
X001830Y036930D01*
X001830Y037430D01*
X002080Y037680D01*
X002580Y037680D01*
X002830Y037430D01*
X003080Y037680D01*
X003580Y037680D01*
X003830Y037430D01*
X004080Y037680D01*
X004580Y037680D01*
X004830Y037430D01*
X005080Y037680D01*
X005580Y037680D01*
X005830Y037430D01*
X006080Y037680D01*
X006580Y037680D01*
X006830Y037430D01*
X007080Y037680D01*
X007580Y037680D01*
X007830Y037430D01*
X008080Y037680D01*
X008580Y037680D01*
X008830Y037430D01*
X009080Y037680D01*
X009580Y037680D01*
X009830Y037430D01*
X009830Y036930D01*
X009580Y036680D01*
X009080Y036680D01*
X008830Y036930D01*
X008580Y036680D01*
X008080Y036680D01*
X007830Y036930D01*
X007830Y037430D01*
X007830Y036930D02*
X007580Y036680D01*
X007080Y036680D01*
X006830Y036930D01*
X006580Y036680D01*
X006080Y036680D01*
X005830Y036930D01*
X005580Y036680D01*
X005080Y036680D01*
X004830Y036930D01*
X004830Y037430D01*
X004830Y036930D02*
X004580Y036680D01*
X004080Y036680D01*
X003830Y036930D01*
X003580Y036680D01*
X003080Y036680D01*
X002830Y036930D02*
X002830Y037430D01*
X003830Y037430D02*
X003830Y036930D01*
X005830Y036930D02*
X005830Y037430D01*
X006830Y037430D02*
X006830Y036930D01*
X007430Y035580D02*
X007580Y035580D01*
X007630Y035530D01*
X009030Y035530D01*
X009080Y035580D01*
X009230Y035580D01*
X009247Y035578D01*
X009264Y035574D01*
X009280Y035567D01*
X009294Y035557D01*
X009307Y035544D01*
X009317Y035530D01*
X009324Y035514D01*
X009328Y035497D01*
X009330Y035480D01*
X009330Y034880D01*
X009328Y034863D01*
X009324Y034846D01*
X009317Y034830D01*
X009307Y034816D01*
X009294Y034803D01*
X009280Y034793D01*
X009264Y034786D01*
X009247Y034782D01*
X009230Y034780D01*
X009080Y034780D01*
X009030Y034830D01*
X007630Y034830D01*
X007580Y034780D01*
X007430Y034780D01*
X007413Y034782D01*
X007396Y034786D01*
X007380Y034793D01*
X007366Y034803D01*
X007353Y034816D01*
X007343Y034830D01*
X007336Y034846D01*
X007332Y034863D01*
X007330Y034880D01*
X007330Y035480D01*
X007332Y035497D01*
X007336Y035514D01*
X007343Y035530D01*
X007353Y035544D01*
X007366Y035557D01*
X007380Y035567D01*
X007396Y035574D01*
X007413Y035578D01*
X007430Y035580D01*
X007430Y034080D02*
X007580Y034080D01*
X007630Y034030D01*
X009030Y034030D01*
X009080Y034080D01*
X009230Y034080D01*
X009247Y034078D01*
X009264Y034074D01*
X009280Y034067D01*
X009294Y034057D01*
X009307Y034044D01*
X009317Y034030D01*
X009324Y034014D01*
X009328Y033997D01*
X009330Y033980D01*
X009330Y033380D01*
X009328Y033363D01*
X009324Y033346D01*
X009317Y033330D01*
X009307Y033316D01*
X009294Y033303D01*
X009280Y033293D01*
X009264Y033286D01*
X009247Y033282D01*
X009230Y033280D01*
X009080Y033280D01*
X009030Y033330D01*
X007630Y033330D01*
X007580Y033280D01*
X007430Y033280D01*
X007413Y033282D01*
X007396Y033286D01*
X007380Y033293D01*
X007366Y033303D01*
X007353Y033316D01*
X007343Y033330D01*
X007336Y033346D01*
X007332Y033363D01*
X007330Y033380D01*
X007330Y033980D01*
X007332Y033997D01*
X007336Y034014D01*
X007343Y034030D01*
X007353Y034044D01*
X007366Y034057D01*
X007380Y034067D01*
X007396Y034074D01*
X007413Y034078D01*
X007430Y034080D01*
X008873Y032925D02*
X009086Y033138D01*
X009086Y032498D01*
X008873Y032498D02*
X009300Y032498D01*
X009080Y032180D02*
X009580Y032180D01*
X009830Y031930D01*
X009830Y031430D01*
X009580Y031180D01*
X009080Y031180D01*
X008830Y031430D01*
X008580Y031180D01*
X008080Y031180D01*
X007830Y031430D01*
X007830Y031930D01*
X008080Y032180D01*
X008580Y032180D01*
X008830Y031930D01*
X009080Y032180D01*
X008830Y031930D02*
X008830Y031430D01*
X007830Y031430D02*
X007580Y031180D01*
X007080Y031180D01*
X006830Y031430D01*
X006580Y031180D01*
X006080Y031180D01*
X005830Y031430D01*
X005580Y031180D01*
X005080Y031180D01*
X004830Y031430D01*
X004830Y031930D01*
X005080Y032180D01*
X005580Y032180D01*
X005830Y031930D01*
X006080Y032180D01*
X006580Y032180D01*
X006830Y031930D01*
X007080Y032180D01*
X007580Y032180D01*
X007830Y031930D01*
X006830Y031930D02*
X006830Y031430D01*
X005830Y031430D02*
X005830Y031930D01*
X004830Y031930D02*
X004580Y032180D01*
X004080Y032180D01*
X003830Y031930D01*
X003580Y032180D01*
X003080Y032180D01*
X002830Y031930D01*
X002580Y032180D01*
X002080Y032180D01*
X001830Y031930D01*
X001830Y031430D01*
X002080Y031180D01*
X002580Y031180D01*
X002830Y031430D01*
X002830Y031930D01*
X002830Y031430D02*
X003080Y031180D01*
X003580Y031180D01*
X003830Y031430D01*
X003830Y031930D01*
X003830Y031430D02*
X004080Y031180D01*
X004580Y031180D01*
X004830Y031430D01*
X004730Y033280D02*
X004580Y033280D01*
X004530Y033330D01*
X003130Y033330D01*
X003080Y033280D01*
X002930Y033280D01*
X002913Y033282D01*
X002896Y033286D01*
X002880Y033293D01*
X002866Y033303D01*
X002853Y033316D01*
X002843Y033330D01*
X002836Y033346D01*
X002832Y033363D01*
X002830Y033380D01*
X002830Y033980D01*
X002832Y033997D01*
X002836Y034014D01*
X002843Y034030D01*
X002853Y034044D01*
X002866Y034057D01*
X002880Y034067D01*
X002896Y034074D01*
X002913Y034078D01*
X002930Y034080D01*
X003080Y034080D01*
X003130Y034030D01*
X004530Y034030D01*
X004580Y034080D01*
X004730Y034080D01*
X004747Y034078D01*
X004764Y034074D01*
X004780Y034067D01*
X004794Y034057D01*
X004807Y034044D01*
X004817Y034030D01*
X004824Y034014D01*
X004828Y033997D01*
X004830Y033980D01*
X004830Y033380D01*
X004828Y033363D01*
X004824Y033346D01*
X004817Y033330D01*
X004807Y033316D01*
X004794Y033303D01*
X004780Y033293D01*
X004764Y033286D01*
X004747Y033282D01*
X004730Y033280D01*
X008718Y030068D02*
X008718Y029268D01*
X008720Y029251D01*
X008724Y029234D01*
X008731Y029218D01*
X008741Y029204D01*
X008754Y029191D01*
X008768Y029181D01*
X008784Y029174D01*
X008801Y029170D01*
X008818Y029168D01*
X010518Y029168D01*
X010535Y029170D01*
X010552Y029174D01*
X010568Y029181D01*
X010582Y029191D01*
X010595Y029204D01*
X010605Y029218D01*
X010612Y029234D01*
X010616Y029251D01*
X010618Y029268D01*
X010618Y030068D01*
X010616Y030085D01*
X010612Y030102D01*
X010605Y030118D01*
X010595Y030132D01*
X010582Y030145D01*
X010568Y030155D01*
X010552Y030162D01*
X010535Y030166D01*
X010518Y030168D01*
X008818Y030168D01*
X008801Y030166D01*
X008784Y030162D01*
X008768Y030155D01*
X008754Y030145D01*
X008741Y030132D01*
X008731Y030118D01*
X008724Y030102D01*
X008720Y030085D01*
X008718Y030068D01*
X009518Y029668D02*
X009568Y029668D01*
X009768Y029668D02*
X009818Y029668D01*
X011330Y031180D02*
X011080Y031430D01*
X011080Y031930D01*
X011330Y032180D01*
X011830Y032180D01*
X012080Y031930D01*
X012330Y032180D01*
X012830Y032180D01*
X013080Y031930D01*
X013330Y032180D01*
X013830Y032180D01*
X014080Y031930D01*
X014330Y032180D01*
X014830Y032180D01*
X015080Y031930D01*
X015330Y032180D01*
X015830Y032180D01*
X016080Y031930D01*
X016330Y032180D01*
X016830Y032180D01*
X017080Y031930D01*
X017330Y032180D01*
X017830Y032180D01*
X018080Y031930D01*
X018330Y032180D01*
X018830Y032180D01*
X019080Y031930D01*
X019080Y031430D01*
X018830Y031180D01*
X018330Y031180D01*
X018080Y031430D01*
X017830Y031180D01*
X017330Y031180D01*
X017080Y031430D01*
X017080Y031930D01*
X017080Y031430D02*
X016830Y031180D01*
X016330Y031180D01*
X016080Y031430D01*
X015830Y031180D01*
X015330Y031180D01*
X015080Y031430D01*
X014830Y031180D01*
X014330Y031180D01*
X014080Y031430D01*
X014080Y031930D01*
X014080Y031430D02*
X013830Y031180D01*
X013330Y031180D01*
X013080Y031430D01*
X012830Y031180D01*
X012330Y031180D01*
X012080Y031430D01*
X011830Y031180D01*
X011330Y031180D01*
X012080Y031430D02*
X012080Y031930D01*
X013080Y031930D02*
X013080Y031430D01*
X013080Y033280D02*
X013030Y033330D01*
X011630Y033330D01*
X011580Y033280D01*
X011430Y033280D01*
X011413Y033282D01*
X011396Y033286D01*
X011380Y033293D01*
X011366Y033303D01*
X011353Y033316D01*
X011343Y033330D01*
X011336Y033346D01*
X011332Y033363D01*
X011330Y033380D01*
X011330Y033980D01*
X011332Y033997D01*
X011336Y034014D01*
X011343Y034030D01*
X011353Y034044D01*
X011366Y034057D01*
X011380Y034067D01*
X011396Y034074D01*
X011413Y034078D01*
X011430Y034080D01*
X011580Y034080D01*
X011630Y034030D01*
X013030Y034030D01*
X013080Y034080D01*
X013230Y034080D01*
X013247Y034078D01*
X013264Y034074D01*
X013280Y034067D01*
X013294Y034057D01*
X013307Y034044D01*
X013317Y034030D01*
X013324Y034014D01*
X013328Y033997D01*
X013330Y033980D01*
X013330Y033380D01*
X013328Y033363D01*
X013324Y033346D01*
X013317Y033330D01*
X013307Y033316D01*
X013294Y033303D01*
X013280Y033293D01*
X013264Y033286D01*
X013247Y033282D01*
X013230Y033280D01*
X013080Y033280D01*
X013080Y034780D02*
X013030Y034830D01*
X011630Y034830D01*
X011580Y034780D01*
X011430Y034780D01*
X011413Y034782D01*
X011396Y034786D01*
X011380Y034793D01*
X011366Y034803D01*
X011353Y034816D01*
X011343Y034830D01*
X011336Y034846D01*
X011332Y034863D01*
X011330Y034880D01*
X011330Y035480D01*
X011332Y035497D01*
X011336Y035514D01*
X011343Y035530D01*
X011353Y035544D01*
X011366Y035557D01*
X011380Y035567D01*
X011396Y035574D01*
X011413Y035578D01*
X011430Y035580D01*
X011580Y035580D01*
X011630Y035530D01*
X013030Y035530D01*
X013080Y035580D01*
X013230Y035580D01*
X013247Y035578D01*
X013264Y035574D01*
X013280Y035567D01*
X013294Y035557D01*
X013307Y035544D01*
X013317Y035530D01*
X013324Y035514D01*
X013328Y035497D01*
X013330Y035480D01*
X013330Y034880D01*
X013328Y034863D01*
X013324Y034846D01*
X013317Y034830D01*
X013307Y034816D01*
X013294Y034803D01*
X013280Y034793D01*
X013264Y034786D01*
X013247Y034782D01*
X013230Y034780D01*
X013080Y034780D01*
X013080Y036680D02*
X012580Y036680D01*
X012330Y036930D01*
X012080Y036680D01*
X011580Y036680D01*
X011330Y036930D01*
X011330Y037430D01*
X011580Y037680D01*
X012080Y037680D01*
X012330Y037430D01*
X012580Y037680D01*
X013080Y037680D01*
X013330Y037430D01*
X013330Y036930D01*
X013080Y036680D01*
X013330Y036930D02*
X013580Y036680D01*
X014080Y036680D01*
X014330Y036930D01*
X014580Y036680D01*
X015080Y036680D01*
X015330Y036930D01*
X015580Y036680D01*
X016080Y036680D01*
X016330Y036930D01*
X016330Y037430D01*
X016080Y037680D01*
X015580Y037680D01*
X015330Y037430D01*
X015330Y036930D01*
X015330Y037430D02*
X015080Y037680D01*
X014580Y037680D01*
X014330Y037430D01*
X014330Y036930D01*
X014330Y037430D02*
X014080Y037680D01*
X013580Y037680D01*
X013330Y037430D01*
X012330Y037430D02*
X012330Y036930D01*
X011262Y037123D02*
X010835Y037123D01*
X011049Y037123D02*
X011049Y037763D01*
X010835Y037550D01*
X010200Y037623D02*
X009773Y037623D01*
X009986Y037623D02*
X009986Y038263D01*
X009773Y038050D01*
X008830Y037430D02*
X008830Y036930D01*
X015080Y031930D02*
X015080Y031430D01*
X016080Y031430D02*
X016080Y031930D01*
X016430Y033280D02*
X016580Y033280D01*
X016630Y033330D01*
X018030Y033330D01*
X018080Y033280D01*
X018230Y033280D01*
X018247Y033282D01*
X018264Y033286D01*
X018280Y033293D01*
X018294Y033303D01*
X018307Y033316D01*
X018317Y033330D01*
X018324Y033346D01*
X018328Y033363D01*
X018330Y033380D01*
X018330Y033980D01*
X018328Y033997D01*
X018324Y034014D01*
X018317Y034030D01*
X018307Y034044D01*
X018294Y034057D01*
X018280Y034067D01*
X018264Y034074D01*
X018247Y034078D01*
X018230Y034080D01*
X018080Y034080D01*
X018030Y034030D01*
X016630Y034030D01*
X016580Y034080D01*
X016430Y034080D01*
X016413Y034078D01*
X016396Y034074D01*
X016380Y034067D01*
X016366Y034057D01*
X016353Y034044D01*
X016343Y034030D01*
X016336Y034014D01*
X016332Y033997D01*
X016330Y033980D01*
X016330Y033380D01*
X016332Y033363D01*
X016336Y033346D01*
X016343Y033330D01*
X016353Y033316D01*
X016366Y033303D01*
X016380Y033293D01*
X016396Y033286D01*
X016413Y033282D01*
X016430Y033280D01*
X016430Y034780D02*
X016580Y034780D01*
X016630Y034830D01*
X018030Y034830D01*
X018080Y034780D01*
X018230Y034780D01*
X018247Y034782D01*
X018264Y034786D01*
X018280Y034793D01*
X018294Y034803D01*
X018307Y034816D01*
X018317Y034830D01*
X018324Y034846D01*
X018328Y034863D01*
X018330Y034880D01*
X018330Y035480D01*
X018328Y035497D01*
X018324Y035514D01*
X018317Y035530D01*
X018307Y035544D01*
X018294Y035557D01*
X018280Y035567D01*
X018264Y035574D01*
X018247Y035578D01*
X018230Y035580D01*
X018080Y035580D01*
X018030Y035530D01*
X016630Y035530D01*
X016580Y035580D01*
X016430Y035580D01*
X016413Y035578D01*
X016396Y035574D01*
X016380Y035567D01*
X016366Y035557D01*
X016353Y035544D01*
X016343Y035530D01*
X016336Y035514D01*
X016332Y035497D01*
X016330Y035480D01*
X016330Y034880D01*
X016332Y034863D01*
X016336Y034846D01*
X016343Y034830D01*
X016353Y034816D01*
X016366Y034803D01*
X016380Y034793D01*
X016396Y034786D01*
X016413Y034782D01*
X016430Y034780D01*
X016580Y036680D02*
X016330Y036930D01*
X016580Y036680D02*
X017080Y036680D01*
X017330Y036930D01*
X017580Y036680D01*
X018080Y036680D01*
X018330Y036930D01*
X018580Y036680D01*
X019080Y036680D01*
X019330Y036930D01*
X019330Y037430D01*
X019080Y037680D01*
X018580Y037680D01*
X018330Y037430D01*
X018330Y036930D01*
X018330Y037430D02*
X018080Y037680D01*
X017580Y037680D01*
X017330Y037430D01*
X017330Y036930D01*
X017330Y037430D02*
X017080Y037680D01*
X016580Y037680D01*
X016330Y037430D01*
X020830Y035480D02*
X020830Y034880D01*
X020832Y034863D01*
X020836Y034846D01*
X020843Y034830D01*
X020853Y034816D01*
X020866Y034803D01*
X020880Y034793D01*
X020896Y034786D01*
X020913Y034782D01*
X020930Y034780D01*
X021080Y034780D01*
X021130Y034830D01*
X022530Y034830D01*
X022580Y034780D01*
X022730Y034780D01*
X022747Y034782D01*
X022764Y034786D01*
X022780Y034793D01*
X022794Y034803D01*
X022807Y034816D01*
X022817Y034830D01*
X022824Y034846D01*
X022828Y034863D01*
X022830Y034880D01*
X022830Y035480D01*
X022828Y035497D01*
X022824Y035514D01*
X022817Y035530D01*
X022807Y035544D01*
X022794Y035557D01*
X022780Y035567D01*
X022764Y035574D01*
X022747Y035578D01*
X022730Y035580D01*
X022580Y035580D01*
X022530Y035530D01*
X021130Y035530D01*
X021080Y035580D01*
X020930Y035580D01*
X020913Y035578D01*
X020896Y035574D01*
X020880Y035567D01*
X020866Y035557D01*
X020853Y035544D01*
X020843Y035530D01*
X020836Y035514D01*
X020832Y035497D01*
X020830Y035480D01*
X021430Y036780D02*
X021580Y036780D01*
X021630Y036830D01*
X023030Y036830D01*
X023080Y036780D01*
X023230Y036780D01*
X023247Y036782D01*
X023264Y036786D01*
X023280Y036793D01*
X023294Y036803D01*
X023307Y036816D01*
X023317Y036830D01*
X023324Y036846D01*
X023328Y036863D01*
X023330Y036880D01*
X023330Y037480D01*
X023328Y037497D01*
X023324Y037514D01*
X023317Y037530D01*
X023307Y037544D01*
X023294Y037557D01*
X023280Y037567D01*
X023264Y037574D01*
X023247Y037578D01*
X023230Y037580D01*
X023080Y037580D01*
X023030Y037530D01*
X021630Y037530D01*
X021580Y037580D01*
X021430Y037580D01*
X021413Y037578D01*
X021396Y037574D01*
X021380Y037567D01*
X021366Y037557D01*
X021353Y037544D01*
X021343Y037530D01*
X021336Y037514D01*
X021332Y037497D01*
X021330Y037480D01*
X021330Y036880D01*
X021332Y036863D01*
X021336Y036846D01*
X021343Y036830D01*
X021353Y036816D01*
X021366Y036803D01*
X021380Y036793D01*
X021396Y036786D01*
X021413Y036782D01*
X021430Y036780D01*
X021080Y034080D02*
X020930Y034080D01*
X020913Y034078D01*
X020896Y034074D01*
X020880Y034067D01*
X020866Y034057D01*
X020853Y034044D01*
X020843Y034030D01*
X020836Y034014D01*
X020832Y033997D01*
X020830Y033980D01*
X020830Y033380D01*
X020832Y033363D01*
X020836Y033346D01*
X020843Y033330D01*
X020853Y033316D01*
X020866Y033303D01*
X020880Y033293D01*
X020896Y033286D01*
X020913Y033282D01*
X020930Y033280D01*
X021080Y033280D01*
X021130Y033330D01*
X022530Y033330D01*
X022580Y033280D01*
X022730Y033280D01*
X022747Y033282D01*
X022764Y033286D01*
X022780Y033293D01*
X022794Y033303D01*
X022807Y033316D01*
X022817Y033330D01*
X022824Y033346D01*
X022828Y033363D01*
X022830Y033380D01*
X022830Y033980D01*
X022828Y033997D01*
X022824Y034014D01*
X022817Y034030D01*
X022807Y034044D01*
X022794Y034057D01*
X022780Y034067D01*
X022764Y034074D01*
X022747Y034078D01*
X022730Y034080D01*
X022580Y034080D01*
X022530Y034030D01*
X021130Y034030D01*
X021080Y034080D01*
X019162Y032410D02*
X018735Y032410D01*
X018949Y032410D02*
X018949Y033051D01*
X018735Y032837D01*
X018080Y031930D02*
X018080Y031430D01*
X021330Y031080D02*
X021330Y030330D01*
X021369Y030328D01*
X021408Y030322D01*
X021446Y030313D01*
X021483Y030300D01*
X021519Y030283D01*
X021552Y030263D01*
X021584Y030239D01*
X021613Y030213D01*
X021639Y030184D01*
X021663Y030152D01*
X021683Y030119D01*
X021700Y030083D01*
X021713Y030046D01*
X021722Y030008D01*
X021728Y029969D01*
X021730Y029930D01*
X021728Y029891D01*
X021722Y029852D01*
X021713Y029814D01*
X021700Y029777D01*
X021683Y029741D01*
X021663Y029708D01*
X021639Y029676D01*
X021613Y029647D01*
X021584Y029621D01*
X021552Y029597D01*
X021519Y029577D01*
X021483Y029560D01*
X021446Y029547D01*
X021408Y029538D01*
X021369Y029532D01*
X021330Y029530D01*
X021330Y028780D01*
X028330Y028780D01*
X028330Y031080D01*
X021330Y031080D01*
X018055Y027180D02*
X016355Y027180D01*
X016338Y027178D01*
X016321Y027174D01*
X016305Y027167D01*
X016291Y027157D01*
X016278Y027144D01*
X016268Y027130D01*
X016261Y027114D01*
X016257Y027097D01*
X016255Y027080D01*
X016255Y026280D01*
X016257Y026263D01*
X016261Y026246D01*
X016268Y026230D01*
X016278Y026216D01*
X016291Y026203D01*
X016305Y026193D01*
X016321Y026186D01*
X016338Y026182D01*
X016355Y026180D01*
X018055Y026180D01*
X018072Y026182D01*
X018089Y026186D01*
X018105Y026193D01*
X018119Y026203D01*
X018132Y026216D01*
X018142Y026230D01*
X018149Y026246D01*
X018153Y026263D01*
X018155Y026280D01*
X018155Y027080D01*
X018153Y027097D01*
X018149Y027114D01*
X018142Y027130D01*
X018132Y027144D01*
X018119Y027157D01*
X018105Y027167D01*
X018089Y027174D01*
X018072Y027178D01*
X018055Y027180D01*
X017355Y026680D02*
X017305Y026680D01*
X017105Y026680D02*
X017055Y026680D01*
X018830Y025905D02*
X018830Y024205D01*
X018832Y024188D01*
X018836Y024171D01*
X018843Y024155D01*
X018853Y024141D01*
X018866Y024128D01*
X018880Y024118D01*
X018896Y024111D01*
X018913Y024107D01*
X018930Y024105D01*
X019730Y024105D01*
X019747Y024107D01*
X019764Y024111D01*
X019780Y024118D01*
X019794Y024128D01*
X019807Y024141D01*
X019817Y024155D01*
X019824Y024171D01*
X019828Y024188D01*
X019830Y024205D01*
X019830Y025905D01*
X019828Y025922D01*
X019824Y025939D01*
X019817Y025955D01*
X019807Y025969D01*
X019794Y025982D01*
X019780Y025992D01*
X019764Y025999D01*
X019747Y026003D01*
X019730Y026005D01*
X018930Y026005D01*
X018913Y026003D01*
X018896Y025999D01*
X018880Y025992D01*
X018866Y025982D01*
X018853Y025969D01*
X018843Y025955D01*
X018836Y025939D01*
X018832Y025922D01*
X018830Y025905D01*
X019330Y025205D02*
X019330Y025155D01*
X019330Y024955D02*
X019330Y024905D01*
X021330Y024530D02*
X021330Y023780D01*
X021369Y023778D01*
X021408Y023772D01*
X021446Y023763D01*
X021483Y023750D01*
X021519Y023733D01*
X021552Y023713D01*
X021584Y023689D01*
X021613Y023663D01*
X021639Y023634D01*
X021663Y023602D01*
X021683Y023569D01*
X021700Y023533D01*
X021713Y023496D01*
X021722Y023458D01*
X021728Y023419D01*
X021730Y023380D01*
X021728Y023341D01*
X021722Y023302D01*
X021713Y023264D01*
X021700Y023227D01*
X021683Y023191D01*
X021663Y023158D01*
X021639Y023126D01*
X021613Y023097D01*
X021584Y023071D01*
X021552Y023047D01*
X021519Y023027D01*
X021483Y023010D01*
X021446Y022997D01*
X021408Y022988D01*
X021369Y022982D01*
X021330Y022980D01*
X021330Y022230D01*
X028330Y022230D01*
X028330Y024530D01*
X021330Y024530D01*
X021380Y026355D02*
X021530Y026355D01*
X021580Y026405D01*
X022980Y026405D01*
X023030Y026355D01*
X023180Y026355D01*
X023197Y026357D01*
X023214Y026361D01*
X023230Y026368D01*
X023244Y026378D01*
X023257Y026391D01*
X023267Y026405D01*
X023274Y026421D01*
X023278Y026438D01*
X023280Y026455D01*
X023280Y027055D01*
X023278Y027072D01*
X023274Y027089D01*
X023267Y027105D01*
X023257Y027119D01*
X023244Y027132D01*
X023230Y027142D01*
X023214Y027149D01*
X023197Y027153D01*
X023180Y027155D01*
X023030Y027155D01*
X022980Y027105D01*
X021580Y027105D01*
X021530Y027155D01*
X021380Y027155D01*
X021363Y027153D01*
X021346Y027149D01*
X021330Y027142D01*
X021316Y027132D01*
X021303Y027119D01*
X021293Y027105D01*
X021286Y027089D01*
X021282Y027072D01*
X021280Y027055D01*
X021280Y026455D01*
X021282Y026438D01*
X021286Y026421D01*
X021293Y026405D01*
X021303Y026391D01*
X021316Y026378D01*
X021330Y026368D01*
X021346Y026361D01*
X021363Y026357D01*
X021380Y026355D01*
X020093Y022193D02*
X018393Y022193D01*
X018376Y022191D01*
X018359Y022187D01*
X018343Y022180D01*
X018329Y022170D01*
X018316Y022157D01*
X018306Y022143D01*
X018299Y022127D01*
X018295Y022110D01*
X018293Y022093D01*
X018293Y021293D01*
X018295Y021276D01*
X018299Y021259D01*
X018306Y021243D01*
X018316Y021229D01*
X018329Y021216D01*
X018343Y021206D01*
X018359Y021199D01*
X018376Y021195D01*
X018393Y021193D01*
X020093Y021193D01*
X020110Y021195D01*
X020127Y021199D01*
X020143Y021206D01*
X020157Y021216D01*
X020170Y021229D01*
X020180Y021243D01*
X020187Y021259D01*
X020191Y021276D01*
X020193Y021293D01*
X020193Y022093D01*
X020191Y022110D01*
X020187Y022127D01*
X020180Y022143D01*
X020170Y022157D01*
X020157Y022170D01*
X020143Y022180D01*
X020127Y022187D01*
X020110Y022191D01*
X020093Y022193D01*
X019393Y021693D02*
X019343Y021693D01*
X019143Y021693D02*
X019093Y021693D01*
X018080Y021680D02*
X018080Y021180D01*
X017830Y020930D01*
X017330Y020930D01*
X017080Y021180D01*
X017080Y021680D01*
X017330Y021930D01*
X017830Y021930D01*
X018080Y021680D01*
X020773Y019500D02*
X020986Y019713D01*
X020986Y019073D01*
X020773Y019073D02*
X021200Y019073D01*
X021330Y019805D02*
X021330Y018305D01*
X021580Y018055D01*
X022080Y018055D01*
X022330Y018305D01*
X022330Y019805D01*
X022580Y020055D01*
X023080Y020055D01*
X023330Y019805D01*
X023330Y018305D01*
X023580Y018055D01*
X024080Y018055D01*
X024330Y018305D01*
X024330Y019805D01*
X024580Y020055D01*
X025080Y020055D01*
X025330Y019805D01*
X025330Y018305D01*
X025580Y018055D01*
X026080Y018055D01*
X026330Y018305D01*
X026330Y019805D01*
X026580Y020055D01*
X027080Y020055D01*
X027330Y019805D01*
X027330Y018305D01*
X027580Y018055D01*
X028080Y018055D01*
X028330Y018305D01*
X028580Y018055D01*
X029080Y018055D01*
X029330Y018305D01*
X029330Y019805D01*
X029080Y020055D01*
X028580Y020055D01*
X028330Y019805D01*
X028330Y018305D01*
X027330Y018305D02*
X027080Y018055D01*
X026580Y018055D01*
X026330Y018305D01*
X025330Y018305D02*
X025080Y018055D01*
X024580Y018055D01*
X024330Y018305D01*
X023330Y018305D02*
X023080Y018055D01*
X022580Y018055D01*
X022330Y018305D01*
X022330Y019805D02*
X022080Y020055D01*
X021580Y020055D01*
X021330Y019805D01*
X023330Y019805D02*
X023580Y020055D01*
X024080Y020055D01*
X024330Y019805D01*
X025330Y019805D02*
X025580Y020055D01*
X026080Y020055D01*
X026330Y019805D01*
X027330Y019805D02*
X027580Y020055D01*
X028080Y020055D01*
X028330Y019805D01*
X031180Y016180D02*
X033430Y016180D01*
X033432Y016219D01*
X033438Y016258D01*
X033447Y016296D01*
X033460Y016333D01*
X033477Y016369D01*
X033497Y016402D01*
X033521Y016434D01*
X033547Y016463D01*
X033576Y016489D01*
X033608Y016513D01*
X033641Y016533D01*
X033677Y016550D01*
X033714Y016563D01*
X033752Y016572D01*
X033791Y016578D01*
X033830Y016580D01*
X033869Y016578D01*
X033908Y016572D01*
X033946Y016563D01*
X033983Y016550D01*
X034019Y016533D01*
X034052Y016513D01*
X034084Y016489D01*
X034113Y016463D01*
X034139Y016434D01*
X034163Y016402D01*
X034183Y016369D01*
X034200Y016333D01*
X034213Y016296D01*
X034222Y016258D01*
X034228Y016219D01*
X034230Y016180D01*
X036480Y016180D01*
X036480Y030180D01*
X031180Y030180D01*
X031180Y016180D01*
X031080Y014680D02*
X030580Y014680D01*
X030330Y014430D01*
X030330Y013930D01*
X030580Y013680D01*
X031080Y013680D01*
X031330Y013930D01*
X031580Y013680D01*
X032080Y013680D01*
X032330Y013930D01*
X032330Y014430D01*
X032080Y014680D01*
X031580Y014680D01*
X031330Y014430D01*
X031330Y013930D01*
X031330Y014430D02*
X031080Y014680D01*
X030125Y014035D02*
X029698Y014035D01*
X029911Y014035D02*
X029911Y014676D01*
X029698Y014462D01*
X032330Y014430D02*
X032580Y014680D01*
X033080Y014680D01*
X033330Y014430D01*
X033580Y014680D01*
X034080Y014680D01*
X034330Y014430D01*
X034580Y014680D01*
X035080Y014680D01*
X035330Y014430D01*
X035330Y013930D01*
X035080Y013680D01*
X034580Y013680D01*
X034330Y013930D01*
X034080Y013680D01*
X033580Y013680D01*
X033330Y013930D01*
X033080Y013680D01*
X032580Y013680D01*
X032330Y013930D01*
X033330Y013930D02*
X033330Y014430D01*
X034330Y014430D02*
X034330Y013930D01*
X035330Y013930D02*
X035580Y013680D01*
X036080Y013680D01*
X036330Y013930D01*
X036580Y013680D01*
X037080Y013680D01*
X037330Y013930D01*
X037580Y013680D01*
X038080Y013680D01*
X038330Y013930D01*
X038330Y014430D01*
X038080Y014680D01*
X037580Y014680D01*
X037330Y014430D01*
X037330Y013930D01*
X037330Y014430D02*
X037080Y014680D01*
X036580Y014680D01*
X036330Y014430D01*
X036330Y013930D01*
X036330Y014430D02*
X036080Y014680D01*
X035580Y014680D01*
X035330Y014430D01*
X035080Y011680D02*
X034580Y011680D01*
X034330Y011430D01*
X034330Y010930D01*
X034580Y010680D01*
X035080Y010680D01*
X035330Y010930D01*
X035580Y010680D01*
X036080Y010680D01*
X036330Y010930D01*
X036330Y011430D01*
X036080Y011680D01*
X035580Y011680D01*
X035330Y011430D01*
X035330Y010930D01*
X034924Y010351D02*
X034924Y009710D01*
X035137Y009710D02*
X034710Y009710D01*
X034710Y010137D02*
X034924Y010351D01*
X035330Y011430D02*
X035080Y011680D01*
X036330Y011430D02*
X036580Y011680D01*
X037080Y011680D01*
X037330Y011430D01*
X037580Y011680D01*
X038080Y011680D01*
X038330Y011430D01*
X038330Y010930D01*
X038080Y010680D01*
X037580Y010680D01*
X037330Y010930D01*
X037080Y010680D01*
X036580Y010680D01*
X036330Y010930D01*
X037330Y010930D02*
X037330Y011430D01*
X037592Y009913D02*
X037485Y009806D01*
X037485Y009379D01*
X037592Y009273D01*
X037805Y009273D01*
X037912Y009379D01*
X037912Y009593D01*
X037699Y009593D01*
X037912Y009806D02*
X037805Y009913D01*
X037592Y009913D01*
X037330Y009430D02*
X037330Y008930D01*
X037080Y008680D01*
X037330Y008430D01*
X037330Y007930D01*
X037080Y007680D01*
X037330Y007430D01*
X037330Y006930D01*
X037080Y006680D01*
X037330Y006430D01*
X037330Y005930D01*
X037080Y005680D01*
X036580Y005680D01*
X036330Y005930D01*
X036330Y006430D01*
X036580Y006680D01*
X036330Y006930D01*
X036330Y007430D01*
X036580Y007680D01*
X037080Y007680D01*
X036580Y007680D02*
X036330Y007930D01*
X036330Y008430D01*
X036580Y008680D01*
X036330Y008930D01*
X036330Y009430D01*
X036580Y009680D01*
X037080Y009680D01*
X037330Y009430D01*
X037080Y008680D02*
X036580Y008680D01*
X036580Y006680D02*
X037080Y006680D01*
X032830Y006430D02*
X032830Y005930D01*
X032580Y005680D01*
X032080Y005680D01*
X031830Y005930D01*
X031580Y005680D01*
X031080Y005680D01*
X030830Y005930D01*
X030580Y005680D01*
X030080Y005680D01*
X029830Y005930D01*
X029830Y006430D01*
X030080Y006680D01*
X030580Y006680D01*
X030830Y006430D01*
X031080Y006680D01*
X031580Y006680D01*
X031830Y006430D01*
X032080Y006680D01*
X032580Y006680D01*
X032830Y006430D01*
X031830Y006430D02*
X031830Y005930D01*
X030830Y005930D02*
X030830Y006430D01*
X030580Y008180D02*
X030080Y008180D01*
X029830Y008430D01*
X029830Y008930D01*
X030080Y009180D01*
X030580Y009180D01*
X030830Y008930D01*
X031080Y009180D01*
X031580Y009180D01*
X031830Y008930D01*
X032080Y009180D01*
X032580Y009180D01*
X032830Y008930D01*
X032830Y008430D01*
X032580Y008180D01*
X032080Y008180D01*
X031830Y008430D01*
X031580Y008180D01*
X031080Y008180D01*
X030830Y008430D01*
X030580Y008180D01*
X030830Y008430D02*
X030830Y008930D01*
X031830Y008930D02*
X031830Y008430D01*
X031580Y010680D02*
X031080Y010680D01*
X030830Y010930D01*
X030580Y010680D01*
X030080Y010680D01*
X029830Y010930D01*
X029830Y011430D01*
X030080Y011680D01*
X030580Y011680D01*
X030830Y011430D01*
X031080Y011680D01*
X031580Y011680D01*
X031830Y011430D01*
X032080Y011680D01*
X032580Y011680D01*
X032830Y011430D01*
X032830Y010930D01*
X032580Y010680D01*
X032080Y010680D01*
X031830Y010930D01*
X031580Y010680D01*
X031830Y010930D02*
X031830Y011430D01*
X030830Y011430D02*
X030830Y010930D01*
X027080Y011900D02*
X027080Y009300D01*
X027080Y009060D01*
X027080Y006460D01*
X026760Y006460D01*
X025900Y006460D02*
X025760Y006460D01*
X024900Y006460D02*
X024760Y006460D01*
X023900Y006460D02*
X023760Y006460D01*
X022900Y006460D02*
X022760Y006460D01*
X021900Y006460D02*
X021760Y006460D01*
X020900Y006460D02*
X020760Y006460D01*
X019900Y006460D02*
X019760Y006460D01*
X018900Y006460D02*
X018760Y006460D01*
X017900Y006460D02*
X017760Y006460D01*
X016900Y006460D02*
X016760Y006460D01*
X015900Y006460D02*
X015760Y006460D01*
X014900Y006460D02*
X014760Y006460D01*
X013900Y006460D02*
X013760Y006460D01*
X012900Y006460D02*
X012760Y006460D01*
X011900Y006460D02*
X011760Y006460D01*
X010900Y006460D02*
X010580Y006460D01*
X010580Y011900D01*
X010900Y011900D01*
X011760Y011900D02*
X011900Y011900D01*
X012760Y011900D02*
X012900Y011900D01*
X013760Y011900D02*
X013900Y011900D01*
X014760Y011900D02*
X014900Y011900D01*
X015760Y011900D02*
X015900Y011900D01*
X016760Y011900D02*
X016900Y011900D01*
X017760Y011900D02*
X017900Y011900D01*
X018760Y011900D02*
X018900Y011900D01*
X019760Y011900D02*
X019900Y011900D01*
X020760Y011900D02*
X020900Y011900D01*
X021760Y011900D02*
X021900Y011900D01*
X022760Y011900D02*
X022900Y011900D01*
X023760Y011900D02*
X023900Y011900D01*
X024760Y011900D02*
X024900Y011900D01*
X025080Y013430D02*
X024830Y013680D01*
X024830Y015180D01*
X025080Y015430D01*
X025580Y015430D01*
X025830Y015180D01*
X025830Y013680D01*
X025580Y013430D01*
X025080Y013430D01*
X024830Y013680D02*
X024580Y013430D01*
X024080Y013430D01*
X023830Y013680D01*
X023830Y015180D01*
X024080Y015430D01*
X024580Y015430D01*
X024830Y015180D01*
X023830Y015180D02*
X023580Y015430D01*
X023080Y015430D01*
X022830Y015180D01*
X022830Y013680D01*
X022580Y013430D01*
X022080Y013430D01*
X021830Y013680D01*
X021830Y015180D01*
X022080Y015430D01*
X022580Y015430D01*
X022830Y015180D01*
X021830Y015180D02*
X021580Y015430D01*
X021080Y015430D01*
X020830Y015180D01*
X020830Y013680D01*
X021080Y013430D01*
X021580Y013430D01*
X021830Y013680D01*
X022830Y013680D02*
X023080Y013430D01*
X023580Y013430D01*
X023830Y013680D01*
X026850Y011900D02*
X027080Y011900D01*
X027080Y009300D02*
X027059Y009298D01*
X027039Y009293D01*
X027020Y009284D01*
X027003Y009272D01*
X026988Y009257D01*
X026976Y009240D01*
X026967Y009221D01*
X026962Y009201D01*
X026960Y009180D01*
X026962Y009159D01*
X026967Y009139D01*
X026976Y009120D01*
X026988Y009103D01*
X027003Y009088D01*
X027020Y009076D01*
X027039Y009067D01*
X027059Y009062D01*
X027080Y009060D01*
X020830Y013680D02*
X020580Y013430D01*
X020080Y013430D01*
X019830Y013680D01*
X019830Y015180D01*
X020080Y015430D01*
X020580Y015430D01*
X020830Y015180D01*
X019830Y015180D02*
X019580Y015430D01*
X019080Y015430D01*
X018830Y015180D01*
X018830Y013680D01*
X019080Y013430D01*
X019580Y013430D01*
X019830Y013680D01*
X018830Y013680D02*
X018580Y013430D01*
X018080Y013430D01*
X017830Y013680D01*
X017830Y015180D01*
X018080Y015430D01*
X018580Y015430D01*
X018830Y015180D01*
X017830Y015180D02*
X017580Y015430D01*
X017080Y015430D01*
X016830Y015180D01*
X016830Y013680D01*
X017080Y013430D01*
X017580Y013430D01*
X017830Y013680D01*
X016830Y013680D02*
X016580Y013430D01*
X016080Y013430D01*
X015830Y013680D01*
X015830Y015180D01*
X016080Y015430D01*
X016580Y015430D01*
X016830Y015180D01*
X015830Y015180D02*
X015580Y015430D01*
X015080Y015430D01*
X014830Y015180D01*
X014830Y013680D01*
X015080Y013430D01*
X015580Y013430D01*
X015830Y013680D01*
X014900Y013298D02*
X014473Y013298D01*
X014686Y013298D02*
X014686Y013938D01*
X014473Y013725D01*
X013930Y014555D02*
X012230Y014555D01*
X012213Y014557D01*
X012196Y014561D01*
X012180Y014568D01*
X012166Y014578D01*
X012153Y014591D01*
X012143Y014605D01*
X012136Y014621D01*
X012132Y014638D01*
X012130Y014655D01*
X012130Y015455D01*
X012132Y015472D01*
X012136Y015489D01*
X012143Y015505D01*
X012153Y015519D01*
X012166Y015532D01*
X012180Y015542D01*
X012196Y015549D01*
X012213Y015553D01*
X012230Y015555D01*
X013930Y015555D01*
X013947Y015553D01*
X013964Y015549D01*
X013980Y015542D01*
X013994Y015532D01*
X014007Y015519D01*
X014017Y015505D01*
X014024Y015489D01*
X014028Y015472D01*
X014030Y015455D01*
X014030Y014655D01*
X014028Y014638D01*
X014024Y014621D01*
X014017Y014605D01*
X014007Y014591D01*
X013994Y014578D01*
X013980Y014568D01*
X013964Y014561D01*
X013947Y014557D01*
X013930Y014555D01*
X013230Y015055D02*
X013180Y015055D01*
X012980Y015055D02*
X012930Y015055D01*
X011680Y016305D02*
X009980Y016305D01*
X009963Y016307D01*
X009946Y016311D01*
X009930Y016318D01*
X009916Y016328D01*
X009903Y016341D01*
X009893Y016355D01*
X009886Y016371D01*
X009882Y016388D01*
X009880Y016405D01*
X009880Y017205D01*
X009882Y017222D01*
X009886Y017239D01*
X009893Y017255D01*
X009903Y017269D01*
X009916Y017282D01*
X009930Y017292D01*
X009946Y017299D01*
X009963Y017303D01*
X009980Y017305D01*
X011680Y017305D01*
X011697Y017303D01*
X011714Y017299D01*
X011730Y017292D01*
X011744Y017282D01*
X011757Y017269D01*
X011767Y017255D01*
X011774Y017239D01*
X011778Y017222D01*
X011780Y017205D01*
X011780Y016405D01*
X011778Y016388D01*
X011774Y016371D01*
X011767Y016355D01*
X011757Y016341D01*
X011744Y016328D01*
X011730Y016318D01*
X011714Y016311D01*
X011697Y016307D01*
X011680Y016305D01*
X010980Y016805D02*
X010930Y016805D01*
X010730Y016805D02*
X010680Y016805D01*
X008630Y017668D02*
X008380Y017418D01*
X007880Y017418D01*
X007630Y017668D01*
X007630Y018168D01*
X007880Y018418D01*
X008380Y018418D01*
X008630Y018168D01*
X008630Y017668D01*
X008080Y015180D02*
X007580Y015180D01*
X007330Y014930D01*
X007330Y014430D01*
X007580Y014180D01*
X008080Y014180D01*
X008330Y014430D01*
X008330Y014930D01*
X008080Y015180D01*
X007330Y014930D02*
X007080Y015180D01*
X006580Y015180D01*
X006330Y014930D01*
X006330Y014430D01*
X006580Y014180D01*
X007080Y014180D01*
X007330Y014430D01*
X006330Y014430D02*
X006080Y014180D01*
X005580Y014180D01*
X005330Y014430D01*
X005080Y014180D01*
X004580Y014180D01*
X004330Y014430D01*
X004080Y014180D01*
X003580Y014180D01*
X003330Y014430D01*
X003080Y014180D01*
X002580Y014180D01*
X002330Y014430D01*
X002080Y014180D01*
X001580Y014180D01*
X001330Y014430D01*
X001080Y014180D01*
X000580Y014180D01*
X000330Y014430D01*
X000330Y014930D01*
X000580Y015180D01*
X001080Y015180D01*
X001330Y014930D01*
X001580Y015180D01*
X002080Y015180D01*
X002330Y014930D01*
X002330Y014430D01*
X002330Y014930D02*
X002580Y015180D01*
X003080Y015180D01*
X003330Y014930D01*
X003580Y015180D01*
X004080Y015180D01*
X004330Y014930D01*
X004580Y015180D01*
X005080Y015180D01*
X005330Y014930D01*
X005330Y014430D01*
X005330Y014930D02*
X005580Y015180D01*
X006080Y015180D01*
X006330Y014930D01*
X007580Y013430D02*
X008080Y013430D01*
X008330Y013180D01*
X008580Y013430D01*
X009080Y013430D01*
X009330Y013180D01*
X009330Y012680D01*
X009080Y012430D01*
X008580Y012430D01*
X008330Y012680D01*
X008080Y012430D01*
X007580Y012430D01*
X007330Y012680D01*
X007330Y013180D01*
X007580Y013430D01*
X008330Y013180D02*
X008330Y012680D01*
X009210Y013123D02*
X009637Y013123D01*
X009424Y013123D02*
X009424Y013763D01*
X009210Y013550D01*
X004330Y014430D02*
X004330Y014930D01*
X003330Y014930D02*
X003330Y014430D01*
X001330Y014430D02*
X001330Y014930D01*
X000836Y013913D02*
X000836Y013273D01*
X000623Y013273D02*
X001050Y013273D01*
X000623Y013700D02*
X000836Y013913D01*
X000905Y018180D02*
X001505Y018180D01*
X001522Y018182D01*
X001539Y018186D01*
X001555Y018193D01*
X001569Y018203D01*
X001582Y018216D01*
X001592Y018230D01*
X001599Y018246D01*
X001603Y018263D01*
X001605Y018280D01*
X001605Y018430D01*
X001555Y018480D01*
X001555Y019880D01*
X001605Y019930D01*
X001605Y020080D01*
X001603Y020097D01*
X001599Y020114D01*
X001592Y020130D01*
X001582Y020144D01*
X001569Y020157D01*
X001555Y020167D01*
X001539Y020174D01*
X001522Y020178D01*
X001505Y020180D01*
X000905Y020180D01*
X000888Y020178D01*
X000871Y020174D01*
X000855Y020167D01*
X000841Y020157D01*
X000828Y020144D01*
X000818Y020130D01*
X000811Y020114D01*
X000807Y020097D01*
X000805Y020080D01*
X000805Y019930D01*
X000855Y019880D01*
X000855Y018480D01*
X000805Y018430D01*
X000805Y018280D01*
X000807Y018263D01*
X000811Y018246D01*
X000818Y018230D01*
X000828Y018216D01*
X000841Y018203D01*
X000855Y018193D01*
X000871Y018186D01*
X000888Y018182D01*
X000905Y018180D01*
X002005Y018780D02*
X002005Y019580D01*
X002007Y019597D01*
X002011Y019614D01*
X002018Y019630D01*
X002028Y019644D01*
X002041Y019657D01*
X002055Y019667D01*
X002071Y019674D01*
X002088Y019678D01*
X002105Y019680D01*
X003805Y019680D01*
X003822Y019678D01*
X003839Y019674D01*
X003855Y019667D01*
X003869Y019657D01*
X003882Y019644D01*
X003892Y019630D01*
X003899Y019614D01*
X003903Y019597D01*
X003905Y019580D01*
X003905Y018780D01*
X003903Y018763D01*
X003899Y018746D01*
X003892Y018730D01*
X003882Y018716D01*
X003869Y018703D01*
X003855Y018693D01*
X003839Y018686D01*
X003822Y018682D01*
X003805Y018680D01*
X002105Y018680D01*
X002088Y018682D01*
X002071Y018686D01*
X002055Y018693D01*
X002041Y018703D01*
X002028Y018716D01*
X002018Y018730D01*
X002011Y018746D01*
X002007Y018763D01*
X002005Y018780D01*
X002805Y019180D02*
X002855Y019180D01*
X003055Y019180D02*
X003105Y019180D01*
X004830Y020330D02*
X004830Y022030D01*
X004832Y022047D01*
X004836Y022064D01*
X004843Y022080D01*
X004853Y022094D01*
X004866Y022107D01*
X004880Y022117D01*
X004896Y022124D01*
X004913Y022128D01*
X004930Y022130D01*
X005730Y022130D01*
X005747Y022128D01*
X005764Y022124D01*
X005780Y022117D01*
X005794Y022107D01*
X005807Y022094D01*
X005817Y022080D01*
X005824Y022064D01*
X005828Y022047D01*
X005830Y022030D01*
X005830Y020330D01*
X005828Y020313D01*
X005824Y020296D01*
X005817Y020280D01*
X005807Y020266D01*
X005794Y020253D01*
X005780Y020243D01*
X005764Y020236D01*
X005747Y020232D01*
X005730Y020230D01*
X004930Y020230D01*
X004913Y020232D01*
X004896Y020236D01*
X004880Y020243D01*
X004866Y020253D01*
X004853Y020266D01*
X004843Y020280D01*
X004836Y020296D01*
X004832Y020313D01*
X004830Y020330D01*
X005330Y021030D02*
X005330Y021080D01*
X005330Y021280D02*
X005330Y021330D01*
X004930Y022730D02*
X005730Y022730D01*
X005747Y022732D01*
X005764Y022736D01*
X005780Y022743D01*
X005794Y022753D01*
X005807Y022766D01*
X005817Y022780D01*
X005824Y022796D01*
X005828Y022813D01*
X005830Y022830D01*
X005830Y024530D01*
X005828Y024547D01*
X005824Y024564D01*
X005817Y024580D01*
X005807Y024594D01*
X005794Y024607D01*
X005780Y024617D01*
X005764Y024624D01*
X005747Y024628D01*
X005730Y024630D01*
X004930Y024630D01*
X004913Y024628D01*
X004896Y024624D01*
X004880Y024617D01*
X004866Y024607D01*
X004853Y024594D01*
X004843Y024580D01*
X004836Y024564D01*
X004832Y024547D01*
X004830Y024530D01*
X004830Y022830D01*
X004832Y022813D01*
X004836Y022796D01*
X004843Y022780D01*
X004853Y022766D01*
X004866Y022753D01*
X004880Y022743D01*
X004896Y022736D01*
X004913Y022732D01*
X004930Y022730D01*
X005330Y023530D02*
X005330Y023580D01*
X005330Y023780D02*
X005330Y023830D01*
X005030Y026680D02*
X005630Y026680D01*
X005647Y026682D01*
X005664Y026686D01*
X005680Y026693D01*
X005694Y026703D01*
X005707Y026716D01*
X005717Y026730D01*
X005724Y026746D01*
X005728Y026763D01*
X005730Y026780D01*
X005730Y026930D01*
X005680Y026980D01*
X005680Y028380D01*
X005730Y028430D01*
X005730Y028580D01*
X005728Y028597D01*
X005724Y028614D01*
X005717Y028630D01*
X005707Y028644D01*
X005694Y028657D01*
X005680Y028667D01*
X005664Y028674D01*
X005647Y028678D01*
X005630Y028680D01*
X005030Y028680D01*
X005013Y028678D01*
X004996Y028674D01*
X004980Y028667D01*
X004966Y028657D01*
X004953Y028644D01*
X004943Y028630D01*
X004936Y028614D01*
X004932Y028597D01*
X004930Y028580D01*
X004930Y028430D01*
X004980Y028380D01*
X004980Y026980D01*
X004930Y026930D01*
X004930Y026780D01*
X004932Y026763D01*
X004936Y026746D01*
X004943Y026730D01*
X004953Y026716D01*
X004966Y026703D01*
X004980Y026693D01*
X004996Y026686D01*
X005013Y026682D01*
X005030Y026680D01*
X003780Y026780D02*
X003780Y027580D01*
X003778Y027597D01*
X003774Y027614D01*
X003767Y027630D01*
X003757Y027644D01*
X003744Y027657D01*
X003730Y027667D01*
X003714Y027674D01*
X003697Y027678D01*
X003680Y027680D01*
X001980Y027680D01*
X001963Y027678D01*
X001946Y027674D01*
X001930Y027667D01*
X001916Y027657D01*
X001903Y027644D01*
X001893Y027630D01*
X001886Y027614D01*
X001882Y027597D01*
X001880Y027580D01*
X001880Y026780D01*
X001882Y026763D01*
X001886Y026746D01*
X001893Y026730D01*
X001903Y026716D01*
X001916Y026703D01*
X001930Y026693D01*
X001946Y026686D01*
X001963Y026682D01*
X001980Y026680D01*
X003680Y026680D01*
X003697Y026682D01*
X003714Y026686D01*
X003730Y026693D01*
X003744Y026703D01*
X003757Y026716D01*
X003767Y026730D01*
X003774Y026746D01*
X003778Y026763D01*
X003780Y026780D01*
X002980Y027180D02*
X002930Y027180D01*
X002730Y027180D02*
X002680Y027180D01*
X002580Y009680D02*
X002080Y009680D01*
X001830Y009430D01*
X001830Y008930D01*
X002080Y008680D01*
X002580Y008680D01*
X002830Y008930D01*
X002830Y009430D01*
X002580Y009680D01*
X003110Y009206D02*
X003110Y008779D01*
X003217Y008673D01*
X003430Y008673D01*
X003537Y008779D01*
X003537Y008993D01*
X003324Y008993D01*
X003537Y009206D02*
X003430Y009313D01*
X003217Y009313D01*
X003110Y009206D01*
X002580Y008680D02*
X002830Y008430D01*
X002830Y007930D01*
X002580Y007680D01*
X002830Y007430D01*
X002830Y006930D01*
X002580Y006680D01*
X002830Y006430D01*
X002830Y005930D01*
X002580Y005680D01*
X002080Y005680D01*
X001830Y005930D01*
X001830Y006430D01*
X002080Y006680D01*
X001830Y006930D01*
X001830Y007430D01*
X002080Y007680D01*
X002580Y007680D01*
X002080Y007680D02*
X001830Y007930D01*
X001830Y008430D01*
X002080Y008680D01*
X002080Y006680D02*
X002580Y006680D01*
X005330Y006530D02*
X005330Y005830D01*
X005332Y005813D01*
X005336Y005796D01*
X005343Y005780D01*
X005353Y005766D01*
X005366Y005753D01*
X005380Y005743D01*
X005396Y005736D01*
X005413Y005732D01*
X005430Y005730D01*
X005580Y005730D01*
X005630Y005780D01*
X007530Y005780D01*
X007580Y005730D01*
X007730Y005730D01*
X007747Y005732D01*
X007764Y005736D01*
X007780Y005743D01*
X007794Y005753D01*
X007807Y005766D01*
X007817Y005780D01*
X007824Y005796D01*
X007828Y005813D01*
X007830Y005830D01*
X007830Y006530D01*
X007828Y006547D01*
X007824Y006564D01*
X007817Y006580D01*
X007807Y006594D01*
X007794Y006607D01*
X007780Y006617D01*
X007764Y006624D01*
X007747Y006628D01*
X007730Y006630D01*
X007580Y006630D01*
X007530Y006580D01*
X005630Y006580D01*
X005580Y006630D01*
X005430Y006630D01*
X005413Y006628D01*
X005396Y006624D01*
X005380Y006617D01*
X005366Y006607D01*
X005353Y006594D01*
X005343Y006580D01*
X005336Y006564D01*
X005332Y006547D01*
X005330Y006530D01*
X006080Y008430D02*
X006082Y008493D01*
X006088Y008555D01*
X006098Y008617D01*
X006111Y008679D01*
X006129Y008739D01*
X006150Y008798D01*
X006175Y008856D01*
X006204Y008912D01*
X006236Y008966D01*
X006271Y009018D01*
X006309Y009067D01*
X006351Y009115D01*
X006395Y009159D01*
X006443Y009201D01*
X006492Y009239D01*
X006544Y009274D01*
X006598Y009306D01*
X006654Y009335D01*
X006712Y009360D01*
X006771Y009381D01*
X006831Y009399D01*
X006893Y009412D01*
X006955Y009422D01*
X007017Y009428D01*
X007080Y009430D01*
X007143Y009428D01*
X007205Y009422D01*
X007267Y009412D01*
X007329Y009399D01*
X007389Y009381D01*
X007448Y009360D01*
X007506Y009335D01*
X007562Y009306D01*
X007616Y009274D01*
X007668Y009239D01*
X007717Y009201D01*
X007765Y009159D01*
X007809Y009115D01*
X007851Y009067D01*
X007889Y009018D01*
X007924Y008966D01*
X007956Y008912D01*
X007985Y008856D01*
X008010Y008798D01*
X008031Y008739D01*
X008049Y008679D01*
X008062Y008617D01*
X008072Y008555D01*
X008078Y008493D01*
X008080Y008430D01*
X008078Y008367D01*
X008072Y008305D01*
X008062Y008243D01*
X008049Y008181D01*
X008031Y008121D01*
X008010Y008062D01*
X007985Y008004D01*
X007956Y007948D01*
X007924Y007894D01*
X007889Y007842D01*
X007851Y007793D01*
X007809Y007745D01*
X007765Y007701D01*
X007717Y007659D01*
X007668Y007621D01*
X007616Y007586D01*
X007562Y007554D01*
X007506Y007525D01*
X007448Y007500D01*
X007389Y007479D01*
X007329Y007461D01*
X007267Y007448D01*
X007205Y007438D01*
X007143Y007432D01*
X007080Y007430D01*
X007017Y007432D01*
X006955Y007438D01*
X006893Y007448D01*
X006831Y007461D01*
X006771Y007479D01*
X006712Y007500D01*
X006654Y007525D01*
X006598Y007554D01*
X006544Y007586D01*
X006492Y007621D01*
X006443Y007659D01*
X006395Y007701D01*
X006351Y007745D01*
X006309Y007793D01*
X006271Y007842D01*
X006236Y007894D01*
X006204Y007948D01*
X006175Y008004D01*
X006150Y008062D01*
X006129Y008121D01*
X006111Y008181D01*
X006098Y008243D01*
X006088Y008305D01*
X006082Y008367D01*
X006080Y008430D01*
X026080Y026455D02*
X026080Y027055D01*
X026082Y027072D01*
X026086Y027089D01*
X026093Y027105D01*
X026103Y027119D01*
X026116Y027132D01*
X026130Y027142D01*
X026146Y027149D01*
X026163Y027153D01*
X026180Y027155D01*
X026330Y027155D01*
X026380Y027105D01*
X027780Y027105D01*
X027830Y027155D01*
X027980Y027155D01*
X027997Y027153D01*
X028014Y027149D01*
X028030Y027142D01*
X028044Y027132D01*
X028057Y027119D01*
X028067Y027105D01*
X028074Y027089D01*
X028078Y027072D01*
X028080Y027055D01*
X028080Y026455D01*
X028078Y026438D01*
X028074Y026421D01*
X028067Y026405D01*
X028057Y026391D01*
X028044Y026378D01*
X028030Y026368D01*
X028014Y026361D01*
X027997Y026357D01*
X027980Y026355D01*
X027830Y026355D01*
X027780Y026405D01*
X026380Y026405D01*
X026330Y026355D01*
X026180Y026355D01*
X026163Y026357D01*
X026146Y026361D01*
X026130Y026368D01*
X026116Y026378D01*
X026103Y026391D01*
X026093Y026405D01*
X026086Y026421D01*
X026082Y026438D01*
X026080Y026455D01*
X029930Y031430D02*
X030580Y031430D01*
X031080Y031430D02*
X036580Y031430D01*
X037080Y031430D02*
X037730Y031430D01*
X037730Y033930D01*
X037080Y033930D01*
X036580Y033930D02*
X031080Y033930D01*
X030580Y033930D02*
X029930Y033930D01*
X029930Y031430D01*
X029600Y034985D02*
X029173Y034985D01*
X029386Y034985D02*
X029386Y035626D01*
X029173Y035412D01*
X029580Y035680D02*
X030080Y035680D01*
X030330Y035930D01*
X030330Y037430D01*
X030580Y037680D01*
X031080Y037680D01*
X031330Y037430D01*
X031580Y037680D01*
X032080Y037680D01*
X032330Y037430D01*
X032330Y035930D01*
X032080Y035680D01*
X031580Y035680D01*
X031330Y035930D01*
X031330Y037430D01*
X030330Y037430D02*
X030080Y037680D01*
X029580Y037680D01*
X029330Y037430D01*
X029330Y035930D01*
X029580Y035680D01*
X030330Y035930D02*
X030580Y035680D01*
X031080Y035680D01*
X031330Y035930D01*
X032973Y036298D02*
X033400Y036298D01*
X033186Y036298D02*
X033186Y036938D01*
X032973Y036725D01*
X033230Y036943D02*
X033480Y036693D01*
X033980Y036693D01*
X034230Y036943D01*
X034480Y036693D01*
X034980Y036693D01*
X035230Y036943D01*
X035230Y037443D01*
X034980Y037693D01*
X034480Y037693D01*
X034230Y037443D01*
X034230Y036943D01*
X034230Y037443D02*
X033980Y037693D01*
X033480Y037693D01*
X033230Y037443D01*
X033230Y036943D01*
X034180Y035580D02*
X034330Y035580D01*
X034380Y035530D01*
X035780Y035530D01*
X035830Y035580D01*
X035980Y035580D01*
X035997Y035578D01*
X036014Y035574D01*
X036030Y035567D01*
X036044Y035557D01*
X036057Y035544D01*
X036067Y035530D01*
X036074Y035514D01*
X036078Y035497D01*
X036080Y035480D01*
X036080Y034880D01*
X036078Y034863D01*
X036074Y034846D01*
X036067Y034830D01*
X036057Y034816D01*
X036044Y034803D01*
X036030Y034793D01*
X036014Y034786D01*
X035997Y034782D01*
X035980Y034780D01*
X035830Y034780D01*
X035780Y034830D01*
X034380Y034830D01*
X034330Y034780D01*
X034180Y034780D01*
X034163Y034782D01*
X034146Y034786D01*
X034130Y034793D01*
X034116Y034803D01*
X034103Y034816D01*
X034093Y034830D01*
X034086Y034846D01*
X034082Y034863D01*
X034080Y034880D01*
X034080Y035480D01*
X034082Y035497D01*
X034086Y035514D01*
X034093Y035530D01*
X034103Y035544D01*
X034116Y035557D01*
X034130Y035567D01*
X034146Y035574D01*
X034163Y035578D01*
X034180Y035580D01*
X035480Y036693D02*
X035230Y036943D01*
X035480Y036693D02*
X035980Y036693D01*
X036230Y036943D01*
X036480Y036693D01*
X036980Y036693D01*
X037230Y036943D01*
X037230Y037443D01*
X036980Y037693D01*
X036480Y037693D01*
X036230Y037443D01*
X036230Y036943D01*
X036230Y037443D02*
X035980Y037693D01*
X035480Y037693D01*
X035230Y037443D01*
X036530Y033330D02*
X036532Y033364D01*
X036538Y033398D01*
X036547Y033431D01*
X036561Y033462D01*
X036578Y033492D01*
X036598Y033520D01*
X036621Y033545D01*
X036647Y033568D01*
X036675Y033587D01*
X036705Y033603D01*
X036737Y033615D01*
X036770Y033624D01*
X036804Y033629D01*
X036839Y033630D01*
X036873Y033627D01*
X036906Y033620D01*
X036939Y033610D01*
X036970Y033595D01*
X036999Y033578D01*
X037026Y033557D01*
X037051Y033533D01*
X037073Y033506D01*
X037091Y033478D01*
X037106Y033447D01*
X037118Y033415D01*
X037126Y033381D01*
X037130Y033347D01*
X037130Y033313D01*
X037126Y033279D01*
X037118Y033245D01*
X037106Y033213D01*
X037091Y033182D01*
X037073Y033154D01*
X037051Y033127D01*
X037026Y033103D01*
X036999Y033082D01*
X036970Y033065D01*
X036939Y033050D01*
X036906Y033040D01*
X036873Y033033D01*
X036839Y033030D01*
X036804Y033031D01*
X036770Y033036D01*
X036737Y033045D01*
X036705Y033057D01*
X036675Y033073D01*
X036647Y033092D01*
X036621Y033115D01*
X036598Y033140D01*
X036578Y033168D01*
X036561Y033198D01*
X036547Y033229D01*
X036538Y033262D01*
X036532Y033296D01*
X036530Y033330D01*
X036580Y032680D02*
X036200Y032680D01*
X035460Y032680D02*
X035080Y032680D01*
X034900Y026372D02*
X034900Y025945D01*
X034473Y026372D01*
X034366Y026372D01*
X034259Y026265D01*
X034259Y026051D01*
X034366Y025945D01*
X034366Y025727D02*
X034259Y025620D01*
X034259Y025407D01*
X034366Y025300D01*
X034473Y025300D01*
X034580Y025407D01*
X034580Y025620D01*
X034686Y025727D01*
X034793Y025727D01*
X034900Y025620D01*
X034900Y025407D01*
X034793Y025300D01*
X034793Y025083D02*
X034900Y024976D01*
X034900Y024762D01*
X034793Y024655D01*
X034366Y024655D01*
X034259Y024762D01*
X034259Y024976D01*
X034366Y025083D01*
X034580Y024438D02*
X034580Y024011D01*
X034473Y023793D02*
X034366Y023793D01*
X034259Y023687D01*
X034259Y023473D01*
X034366Y023366D01*
X034473Y023793D02*
X034900Y023366D01*
X034900Y023793D01*
X034900Y023149D02*
X034900Y022722D01*
X034900Y022935D02*
X034259Y022935D01*
X034473Y022722D01*
X034580Y022504D02*
X034580Y022184D01*
X034473Y022077D01*
X034366Y022077D01*
X034259Y022184D01*
X034259Y022398D01*
X034366Y022504D01*
X034793Y022504D01*
X034900Y022398D01*
X034900Y022184D01*
X034793Y022077D01*
X034793Y021860D02*
X034686Y021860D01*
X034580Y021753D01*
X034580Y021540D01*
X034473Y021433D01*
X034366Y021433D01*
X034259Y021540D01*
X034259Y021753D01*
X034366Y021860D01*
X034473Y021860D01*
X034580Y021753D01*
X034580Y021540D02*
X034686Y021433D01*
X034793Y021433D01*
X034900Y021540D01*
X034900Y021753D01*
X034793Y021860D01*
X034580Y021215D02*
X034580Y020788D01*
X034686Y020571D02*
X034793Y020571D01*
X034900Y020464D01*
X034900Y020250D01*
X034793Y020144D01*
X034580Y020357D02*
X034580Y020464D01*
X034686Y020571D01*
X034580Y020464D02*
X034473Y020571D01*
X034366Y020571D01*
X034259Y020464D01*
X034259Y020250D01*
X034366Y020144D01*
X034580Y019926D02*
X034580Y019499D01*
X034366Y019282D02*
X034259Y019282D01*
X034366Y019282D02*
X034580Y019068D01*
X034900Y019068D01*
X034580Y019068D02*
X034366Y018855D01*
X034259Y018855D01*
X034473Y018637D02*
X034259Y018424D01*
X034473Y018210D01*
X034900Y018210D01*
X034580Y018210D02*
X034580Y018637D01*
X034473Y018637D02*
X034900Y018637D01*
X027730Y036780D02*
X027580Y036780D01*
X027530Y036830D01*
X026130Y036830D01*
X026080Y036780D01*
X025930Y036780D01*
X025913Y036782D01*
X025896Y036786D01*
X025880Y036793D01*
X025866Y036803D01*
X025853Y036816D01*
X025843Y036830D01*
X025836Y036846D01*
X025832Y036863D01*
X025830Y036880D01*
X025830Y037480D01*
X025832Y037497D01*
X025836Y037514D01*
X025843Y037530D01*
X025853Y037544D01*
X025866Y037557D01*
X025880Y037567D01*
X025896Y037574D01*
X025913Y037578D01*
X025930Y037580D01*
X026080Y037580D01*
X026130Y037530D01*
X027530Y037530D01*
X027580Y037580D01*
X027730Y037580D01*
X027747Y037578D01*
X027764Y037574D01*
X027780Y037567D01*
X027794Y037557D01*
X027807Y037544D01*
X027817Y037530D01*
X027824Y037514D01*
X027828Y037497D01*
X027830Y037480D01*
X027830Y036880D01*
X027828Y036863D01*
X027824Y036846D01*
X027817Y036830D01*
X027807Y036816D01*
X027794Y036803D01*
X027780Y036793D01*
X027764Y036786D01*
X027747Y036782D01*
X027730Y036780D01*
D13*
X026216Y036405D02*
X026216Y035955D01*
X026366Y035955D02*
X026065Y035955D01*
X025905Y036030D02*
X025830Y035955D01*
X025680Y035955D01*
X025605Y036030D01*
X025680Y036180D02*
X025830Y036180D01*
X025905Y036105D01*
X025905Y036030D01*
X025680Y036180D02*
X025605Y036255D01*
X025605Y036330D01*
X025680Y036405D01*
X025830Y036405D01*
X025905Y036330D01*
X026065Y036255D02*
X026216Y036405D01*
X029355Y037955D02*
X029505Y037955D01*
X029430Y037955D02*
X029430Y038405D01*
X029355Y038405D02*
X029505Y038405D01*
X029662Y038330D02*
X029662Y038255D01*
X029737Y038180D01*
X029887Y038180D01*
X029962Y038105D01*
X029962Y038030D01*
X029887Y037955D01*
X029737Y037955D01*
X029662Y038030D01*
X029662Y038330D02*
X029737Y038405D01*
X029887Y038405D01*
X029962Y038330D01*
X030122Y038405D02*
X030122Y037955D01*
X030122Y038105D02*
X030348Y038105D01*
X030423Y038180D01*
X030423Y038330D01*
X030348Y038405D01*
X030122Y038405D01*
X030583Y038405D02*
X030883Y038405D01*
X030883Y038330D01*
X030583Y038030D01*
X030583Y037955D01*
X030883Y037955D01*
X031043Y037955D02*
X031268Y037955D01*
X031343Y038030D01*
X031343Y038330D01*
X031268Y038405D01*
X031043Y038405D01*
X031043Y037955D01*
X031503Y037955D02*
X031654Y037955D01*
X031579Y037955D02*
X031579Y038405D01*
X031654Y038405D02*
X031503Y038405D01*
X033225Y038388D02*
X033225Y037938D01*
X033225Y038088D02*
X033450Y038088D01*
X033525Y038163D01*
X033525Y038313D01*
X033450Y038388D01*
X033225Y038388D01*
X033685Y038313D02*
X033685Y038238D01*
X033760Y038163D01*
X033911Y038163D01*
X033986Y038088D01*
X033986Y038013D01*
X033911Y037938D01*
X033760Y037938D01*
X033685Y038013D01*
X033685Y038313D02*
X033760Y038388D01*
X033911Y038388D01*
X033986Y038313D01*
X034146Y038313D02*
X034221Y038388D01*
X034371Y038388D01*
X034446Y038313D01*
X034446Y038238D01*
X034146Y037938D01*
X034446Y037938D01*
X034606Y037938D02*
X034606Y038388D01*
X034681Y038163D02*
X034906Y037938D01*
X035067Y037938D02*
X035367Y037938D01*
X035217Y038163D02*
X035067Y038163D01*
X035067Y038388D02*
X035067Y037938D01*
X035067Y038388D02*
X035367Y038388D01*
X035527Y038388D02*
X035527Y038313D01*
X035677Y038163D01*
X035677Y037938D01*
X035677Y038163D02*
X035827Y038313D01*
X035827Y038388D01*
X035987Y038388D02*
X035987Y037938D01*
X036213Y037938D01*
X036288Y038013D01*
X036288Y038088D01*
X036213Y038163D01*
X035987Y038163D01*
X035987Y038388D02*
X036213Y038388D01*
X036288Y038313D01*
X036288Y038238D01*
X036213Y038163D01*
X034906Y038388D02*
X034606Y038088D01*
X030825Y033595D02*
X030525Y033595D01*
X030825Y033595D02*
X030825Y033520D01*
X030525Y033220D01*
X030525Y033145D01*
X030600Y032285D02*
X030750Y032285D01*
X030825Y032210D01*
X030825Y032135D01*
X030750Y032060D01*
X030600Y032060D01*
X030525Y032135D01*
X030525Y032210D01*
X030600Y032285D01*
X030600Y032060D02*
X030525Y031985D01*
X030525Y031910D01*
X030600Y031835D01*
X030750Y031835D01*
X030825Y031910D01*
X030825Y031985D01*
X030750Y032060D01*
X036334Y032065D02*
X036484Y032215D01*
X036484Y031765D01*
X036334Y031765D02*
X036634Y031765D01*
X036795Y031990D02*
X037095Y031990D01*
X037020Y031765D02*
X037020Y032215D01*
X036795Y031990D01*
X024878Y020705D02*
X024803Y020780D01*
X024653Y020780D01*
X024578Y020705D01*
X024578Y020630D01*
X024653Y020555D01*
X024803Y020555D01*
X024878Y020480D01*
X024878Y020405D01*
X024803Y020330D01*
X024653Y020330D01*
X024578Y020405D01*
X024418Y020405D02*
X024418Y020780D01*
X024117Y020780D02*
X024117Y020405D01*
X024192Y020330D01*
X024343Y020330D01*
X024418Y020405D01*
X023957Y020405D02*
X023957Y020480D01*
X023882Y020555D01*
X023657Y020555D01*
X023657Y020330D02*
X023657Y020780D01*
X023882Y020780D01*
X023957Y020705D01*
X023957Y020630D01*
X023882Y020555D01*
X023957Y020405D02*
X023882Y020330D01*
X023657Y020330D01*
X023497Y020255D02*
X023197Y020255D01*
X023036Y020330D02*
X022736Y020330D01*
X022736Y020780D01*
X022576Y020705D02*
X022576Y020555D01*
X022501Y020480D01*
X022276Y020480D01*
X022426Y020480D02*
X022576Y020330D01*
X022276Y020330D02*
X022276Y020780D01*
X022501Y020780D01*
X022576Y020705D01*
X022116Y020780D02*
X021815Y020780D01*
X021966Y020780D02*
X021966Y020330D01*
X021655Y020405D02*
X021580Y020330D01*
X021430Y020330D01*
X021355Y020405D01*
X021355Y020705D01*
X021430Y020780D01*
X021580Y020780D01*
X021655Y020705D01*
X021155Y022205D02*
X021155Y022355D01*
X021155Y022280D02*
X020705Y022280D01*
X020705Y022205D02*
X020705Y022355D01*
X020780Y022512D02*
X021080Y022512D01*
X021155Y022587D01*
X021155Y022737D01*
X021080Y022812D01*
X021155Y022972D02*
X020855Y023273D01*
X020780Y023273D01*
X020705Y023198D01*
X020705Y023047D01*
X020780Y022972D01*
X020780Y022812D02*
X020705Y022737D01*
X020705Y022587D01*
X020780Y022512D01*
X021155Y022972D02*
X021155Y023273D01*
X019128Y022768D02*
X018828Y022768D01*
X018828Y022543D01*
X018978Y022618D01*
X019053Y022618D01*
X019128Y022543D01*
X019128Y022393D01*
X019053Y022318D01*
X018903Y022318D01*
X018828Y022393D01*
X018756Y022325D02*
X018756Y022250D01*
X018681Y022175D01*
X018531Y022175D01*
X018456Y022250D01*
X018443Y022318D02*
X018593Y022318D01*
X018668Y022393D01*
X018681Y022400D02*
X018756Y022325D01*
X018681Y022400D02*
X018606Y022400D01*
X018681Y022400D02*
X018756Y022475D01*
X018756Y022550D01*
X018681Y022625D01*
X018531Y022625D01*
X018456Y022550D01*
X018296Y022550D02*
X018221Y022625D01*
X018071Y022625D01*
X017996Y022550D01*
X017996Y022475D01*
X018071Y022400D01*
X018221Y022400D01*
X018296Y022325D01*
X018296Y022250D01*
X018221Y022175D01*
X018071Y022175D01*
X017996Y022250D01*
X017836Y022250D02*
X017761Y022175D01*
X017610Y022175D01*
X017535Y022250D01*
X017535Y022550D01*
X017610Y022625D01*
X017761Y022625D01*
X017836Y022550D01*
X018368Y022693D02*
X018368Y022393D01*
X018443Y022318D01*
X018368Y022693D02*
X018443Y022768D01*
X018593Y022768D01*
X018668Y022693D01*
X017375Y022625D02*
X017075Y022175D01*
X018330Y024180D02*
X018630Y024180D01*
X018705Y024255D01*
X018705Y024405D01*
X018630Y024480D01*
X018630Y024640D02*
X018705Y024715D01*
X018705Y024866D01*
X018630Y024941D01*
X018555Y024941D01*
X018480Y024866D01*
X018480Y024640D01*
X018630Y024640D01*
X018480Y024640D02*
X018330Y024791D01*
X018255Y024941D01*
X018330Y024480D02*
X018255Y024405D01*
X018255Y024255D01*
X018330Y024180D01*
X016790Y027305D02*
X016790Y027380D01*
X017091Y027680D01*
X017091Y027755D01*
X016790Y027755D01*
X016630Y027680D02*
X016555Y027755D01*
X016405Y027755D01*
X016330Y027680D01*
X016330Y027380D01*
X016405Y027305D01*
X016555Y027305D01*
X016630Y027380D01*
X016598Y030485D02*
X016373Y030485D01*
X016373Y030935D01*
X016598Y030935D01*
X016673Y030860D01*
X016673Y030560D01*
X016598Y030485D01*
X016833Y030710D02*
X017133Y030710D01*
X017293Y030560D02*
X017368Y030485D01*
X017444Y030485D01*
X017519Y030560D01*
X017519Y030935D01*
X017444Y030935D02*
X017594Y030935D01*
X017754Y030860D02*
X017754Y030560D01*
X017829Y030485D01*
X017979Y030485D01*
X018054Y030560D01*
X018054Y030860D01*
X017979Y030935D01*
X017829Y030935D01*
X017754Y030860D01*
X018214Y030860D02*
X018364Y030710D01*
X018364Y030485D01*
X018364Y030710D02*
X018514Y030860D01*
X018514Y030935D01*
X018675Y030785D02*
X018825Y030935D01*
X018825Y030485D01*
X018675Y030485D02*
X018975Y030485D01*
X018214Y030860D02*
X018214Y030935D01*
X016212Y030860D02*
X016212Y030560D01*
X016137Y030485D01*
X015987Y030485D01*
X015912Y030560D01*
X015912Y030860D01*
X015987Y030935D01*
X016137Y030935D01*
X016212Y030860D01*
X015755Y030935D02*
X015605Y030935D01*
X015680Y030935D02*
X015680Y030485D01*
X015605Y030485D02*
X015755Y030485D01*
X015445Y030710D02*
X015370Y030635D01*
X015145Y030635D01*
X015145Y030485D02*
X015145Y030935D01*
X015370Y030935D01*
X015445Y030860D01*
X015445Y030710D01*
X014985Y030710D02*
X014985Y030560D01*
X014910Y030485D01*
X014760Y030485D01*
X014685Y030560D01*
X014685Y030860D01*
X014760Y030935D01*
X014910Y030935D01*
X014985Y030860D01*
X014985Y030710D02*
X014835Y030710D01*
X010432Y028968D02*
X010432Y028893D01*
X010357Y028818D01*
X010207Y028818D01*
X010132Y028893D01*
X010132Y028968D01*
X010207Y029043D01*
X010357Y029043D01*
X010432Y028968D01*
X010357Y028818D02*
X010432Y028743D01*
X010432Y028668D01*
X010357Y028593D01*
X010207Y028593D01*
X010132Y028668D01*
X010132Y028743D01*
X010207Y028818D01*
X009972Y028968D02*
X009897Y029043D01*
X009747Y029043D01*
X009672Y028968D01*
X009672Y028668D01*
X009747Y028593D01*
X009897Y028593D01*
X009972Y028668D01*
X009650Y030485D02*
X009500Y030485D01*
X009425Y030560D01*
X009725Y030860D01*
X009725Y030560D01*
X009650Y030485D01*
X009425Y030560D02*
X009425Y030860D01*
X009500Y030935D01*
X009650Y030935D01*
X009725Y030860D01*
X009264Y030860D02*
X009264Y030935D01*
X009264Y030860D02*
X009114Y030710D01*
X009114Y030485D01*
X009114Y030710D02*
X008964Y030860D01*
X008964Y030935D01*
X008804Y030860D02*
X008729Y030935D01*
X008579Y030935D01*
X008504Y030860D01*
X008504Y030560D01*
X008579Y030485D01*
X008729Y030485D01*
X008804Y030560D01*
X008804Y030860D01*
X008344Y030935D02*
X008194Y030935D01*
X008269Y030935D02*
X008269Y030560D01*
X008194Y030485D01*
X008118Y030485D01*
X008043Y030560D01*
X007883Y030710D02*
X007583Y030710D01*
X007423Y030560D02*
X007348Y030485D01*
X007198Y030485D01*
X007123Y030560D01*
X007123Y030860D01*
X007198Y030935D01*
X007348Y030935D01*
X007423Y030860D01*
X006962Y030860D02*
X006962Y030560D01*
X006887Y030485D01*
X006737Y030485D01*
X006662Y030560D01*
X006662Y030860D01*
X006737Y030935D01*
X006887Y030935D01*
X006962Y030860D01*
X006505Y030935D02*
X006355Y030935D01*
X006430Y030935D02*
X006430Y030485D01*
X006355Y030485D02*
X006505Y030485D01*
X006195Y030710D02*
X006120Y030635D01*
X005895Y030635D01*
X005895Y030485D02*
X005895Y030935D01*
X006120Y030935D01*
X006195Y030860D01*
X006195Y030710D01*
X005735Y030710D02*
X005735Y030560D01*
X005660Y030485D01*
X005510Y030485D01*
X005435Y030560D01*
X005435Y030860D01*
X005510Y030935D01*
X005660Y030935D01*
X005735Y030860D01*
X005735Y030710D02*
X005585Y030710D01*
X003445Y026555D02*
X003445Y026105D01*
X003295Y026105D02*
X003595Y026105D01*
X003295Y026405D02*
X003445Y026555D01*
X003134Y026480D02*
X003059Y026555D01*
X002909Y026555D01*
X002834Y026480D01*
X002834Y026180D01*
X002909Y026105D01*
X003059Y026105D01*
X003134Y026180D01*
X003980Y025045D02*
X003905Y024970D01*
X003905Y024820D01*
X003980Y024745D01*
X004280Y024745D01*
X004355Y024820D01*
X004355Y024970D01*
X004280Y025045D01*
X004280Y024584D02*
X004355Y024509D01*
X004355Y024359D01*
X004280Y024284D01*
X004280Y024124D02*
X003980Y024124D01*
X003905Y024049D01*
X003905Y023899D01*
X003980Y023824D01*
X004280Y023824D01*
X004355Y023899D01*
X004355Y024049D01*
X004280Y024124D01*
X004055Y024284D02*
X004130Y024359D01*
X004130Y024509D01*
X004205Y024584D01*
X004280Y024584D01*
X003980Y024584D02*
X003905Y024509D01*
X003905Y024359D01*
X003980Y024284D01*
X004055Y024284D01*
X004130Y023664D02*
X004130Y023363D01*
X004255Y023340D02*
X004330Y023265D01*
X004405Y023265D01*
X004480Y023340D01*
X004480Y023566D01*
X004630Y023566D02*
X004330Y023566D01*
X004255Y023491D01*
X004255Y023340D01*
X004355Y023203D02*
X004355Y022903D01*
X004280Y022903D01*
X003980Y023203D01*
X003905Y023203D01*
X003905Y022903D01*
X004255Y022880D02*
X004330Y022805D01*
X004630Y022805D01*
X004705Y022880D01*
X004705Y023030D01*
X004630Y023105D01*
X004630Y023265D02*
X004705Y023340D01*
X004705Y023491D01*
X004630Y023566D01*
X004330Y023105D02*
X004255Y023030D01*
X004255Y022880D01*
X005955Y021870D02*
X006030Y021945D01*
X006330Y021645D01*
X006405Y021720D01*
X006405Y021870D01*
X006330Y021945D01*
X006030Y021945D01*
X005955Y021870D02*
X005955Y021720D01*
X006030Y021645D01*
X006330Y021645D01*
X006405Y021484D02*
X006405Y021184D01*
X006405Y021334D02*
X005955Y021334D01*
X006105Y021184D01*
X006030Y021024D02*
X005955Y020949D01*
X005955Y020799D01*
X006030Y020724D01*
X006330Y020724D01*
X006405Y020799D01*
X006405Y020949D01*
X006330Y021024D01*
X007625Y019113D02*
X007850Y019113D01*
X007925Y019038D01*
X007925Y018888D01*
X007850Y018813D01*
X007625Y018813D01*
X007625Y018663D02*
X007625Y019113D01*
X008085Y019113D02*
X008085Y018663D01*
X008085Y018888D02*
X008386Y018888D01*
X008386Y019113D02*
X008386Y018663D01*
X008546Y018663D02*
X008696Y018663D01*
X008621Y018663D02*
X008621Y019113D01*
X008546Y019113D02*
X008696Y019113D01*
X009955Y017805D02*
X009955Y017505D01*
X010030Y017430D01*
X010180Y017430D01*
X010255Y017505D01*
X010415Y017430D02*
X010716Y017730D01*
X010716Y017805D01*
X010641Y017880D01*
X010490Y017880D01*
X010415Y017805D01*
X010255Y017805D02*
X010180Y017880D01*
X010030Y017880D01*
X009955Y017805D01*
X010415Y017430D02*
X010716Y017430D01*
X012205Y016055D02*
X012205Y015755D01*
X012280Y015680D01*
X012430Y015680D01*
X012505Y015755D01*
X012665Y015905D02*
X012966Y015905D01*
X012891Y015680D02*
X012891Y016130D01*
X012665Y015905D01*
X012505Y016055D02*
X012430Y016130D01*
X012280Y016130D01*
X012205Y016055D01*
X014855Y016005D02*
X014855Y015705D01*
X014855Y015930D02*
X015155Y015930D01*
X015155Y016005D02*
X015155Y015705D01*
X015315Y015705D02*
X015541Y015705D01*
X015616Y015780D01*
X015616Y016080D01*
X015541Y016155D01*
X015315Y016155D01*
X015315Y015705D01*
X015155Y016005D02*
X015005Y016155D01*
X014855Y016005D01*
X015776Y016155D02*
X015776Y015705D01*
X016001Y015705D01*
X016076Y015780D01*
X016076Y016080D01*
X016001Y016155D01*
X015776Y016155D01*
X016236Y016155D02*
X016236Y015705D01*
X016236Y015855D02*
X016461Y015855D01*
X016536Y015930D01*
X016536Y016080D01*
X016461Y016155D01*
X016236Y016155D01*
X016386Y015855D02*
X016536Y015705D01*
X016697Y015705D02*
X016997Y015705D01*
X017157Y015780D02*
X017232Y015705D01*
X017382Y015705D01*
X017457Y015780D01*
X017457Y015855D01*
X017382Y015930D01*
X017232Y015930D01*
X017157Y016005D01*
X017157Y016080D01*
X017232Y016155D01*
X017382Y016155D01*
X017457Y016080D01*
X017617Y016080D02*
X017617Y016005D01*
X017692Y015930D01*
X017843Y015930D01*
X017918Y015855D01*
X017918Y015780D01*
X017843Y015705D01*
X017692Y015705D01*
X017617Y015780D01*
X017617Y016080D02*
X017692Y016155D01*
X017843Y016155D01*
X017918Y016080D01*
X018078Y015630D02*
X018378Y015630D01*
X018538Y015705D02*
X018763Y015705D01*
X018838Y015780D01*
X018838Y015855D01*
X018763Y015930D01*
X018538Y015930D01*
X018538Y015705D02*
X018538Y016155D01*
X018763Y016155D01*
X018838Y016080D01*
X018838Y016005D01*
X018763Y015930D01*
X018999Y015780D02*
X019074Y015705D01*
X019224Y015705D01*
X019299Y015780D01*
X019299Y016155D01*
X019459Y016080D02*
X019459Y016005D01*
X019534Y015930D01*
X019684Y015930D01*
X019759Y015855D01*
X019759Y015780D01*
X019684Y015705D01*
X019534Y015705D01*
X019459Y015780D01*
X019459Y016080D02*
X019534Y016155D01*
X019684Y016155D01*
X019759Y016080D01*
X018999Y016155D02*
X018999Y015780D01*
X016997Y016155D02*
X016697Y016155D01*
X016697Y015705D01*
X016697Y015930D02*
X016847Y015930D01*
X009225Y012110D02*
X009150Y012185D01*
X009000Y012185D01*
X008925Y012110D01*
X008925Y011810D01*
X009000Y011735D01*
X009150Y011735D01*
X009225Y011810D01*
X008764Y011735D02*
X008464Y011735D01*
X008764Y012035D01*
X008764Y012110D01*
X008689Y012185D01*
X008539Y012185D01*
X008464Y012110D01*
X008307Y012185D02*
X008157Y012185D01*
X008232Y012185D02*
X008232Y011735D01*
X008157Y011735D02*
X008307Y011735D01*
X007997Y011810D02*
X007922Y011735D01*
X007697Y011735D01*
X007697Y012185D01*
X007922Y012185D01*
X007997Y012110D01*
X007997Y012035D01*
X007922Y011960D01*
X007697Y011960D01*
X007537Y011810D02*
X007537Y012110D01*
X007462Y012185D01*
X007312Y012185D01*
X007236Y012110D01*
X007236Y011810D01*
X007312Y011735D01*
X007462Y011735D01*
X007537Y011810D01*
X007922Y011960D02*
X007997Y011885D01*
X007997Y011810D01*
X007076Y011810D02*
X007001Y011735D01*
X006776Y011735D01*
X006776Y012185D01*
X007001Y012185D01*
X007076Y012110D01*
X007076Y012035D01*
X007001Y011960D01*
X006776Y011960D01*
X007001Y011960D02*
X007076Y011885D01*
X007076Y011810D01*
X003619Y015425D02*
X003394Y015425D01*
X003394Y015875D01*
X003619Y015875D01*
X003695Y015800D01*
X003695Y015725D01*
X003619Y015650D01*
X003394Y015650D01*
X003234Y015500D02*
X003234Y015800D01*
X003159Y015875D01*
X003009Y015875D01*
X002934Y015800D01*
X002934Y015500D01*
X003009Y015425D01*
X003159Y015425D01*
X003234Y015500D01*
X003619Y015425D02*
X003695Y015500D01*
X003695Y015575D01*
X003619Y015650D01*
X002777Y015425D02*
X002627Y015425D01*
X002702Y015425D02*
X002702Y015875D01*
X002627Y015875D02*
X002777Y015875D01*
X002467Y015800D02*
X002467Y015650D01*
X002392Y015575D01*
X002167Y015575D01*
X002167Y015425D02*
X002167Y015875D01*
X002392Y015875D01*
X002467Y015800D01*
X002006Y015800D02*
X001931Y015875D01*
X001781Y015875D01*
X001706Y015800D01*
X001706Y015500D01*
X001781Y015425D01*
X001931Y015425D01*
X002006Y015500D01*
X002006Y015650D01*
X001856Y015650D01*
X001546Y015575D02*
X001546Y015500D01*
X001471Y015425D01*
X001246Y015425D01*
X001246Y015875D01*
X001471Y015875D01*
X001546Y015800D01*
X001546Y015725D01*
X001471Y015650D01*
X001246Y015650D01*
X001086Y015500D02*
X001086Y015800D01*
X001011Y015875D01*
X000860Y015875D01*
X000785Y015800D01*
X000785Y015500D01*
X000860Y015425D01*
X001011Y015425D01*
X001086Y015500D01*
X001471Y015650D02*
X001546Y015575D01*
X000625Y015575D02*
X000625Y015500D01*
X000550Y015425D01*
X000325Y015425D01*
X000325Y015875D01*
X000550Y015875D01*
X000625Y015800D01*
X000625Y015725D01*
X000550Y015650D01*
X000325Y015650D01*
X000550Y015650D02*
X000625Y015575D01*
X003034Y018105D02*
X003184Y018105D01*
X003259Y018180D01*
X003420Y018180D02*
X003495Y018105D01*
X003645Y018105D01*
X003720Y018180D01*
X003720Y018255D01*
X003645Y018330D01*
X003570Y018330D01*
X003645Y018330D02*
X003720Y018405D01*
X003720Y018480D01*
X003645Y018555D01*
X003495Y018555D01*
X003420Y018480D01*
X003259Y018480D02*
X003184Y018555D01*
X003034Y018555D01*
X002959Y018480D01*
X002959Y018180D01*
X003034Y018105D01*
X004013Y008195D02*
X004013Y007745D01*
X004314Y007745D01*
X004474Y007745D02*
X004474Y008195D01*
X004774Y008195D01*
X004934Y008195D02*
X005159Y008195D01*
X005234Y008120D01*
X005234Y007820D01*
X005159Y007745D01*
X004934Y007745D01*
X004934Y008195D01*
X004624Y007970D02*
X004474Y007970D01*
X004474Y007745D02*
X004774Y007745D01*
X005395Y007745D02*
X005695Y008045D01*
X005695Y008120D01*
X005620Y008195D01*
X005470Y008195D01*
X005395Y008120D01*
X005395Y007745D02*
X005695Y007745D01*
X005630Y007255D02*
X005405Y007255D01*
X005405Y006805D01*
X005405Y006955D02*
X005630Y006955D01*
X005705Y007030D01*
X005705Y007180D01*
X005630Y007255D01*
X005865Y007255D02*
X005865Y007030D01*
X006016Y007105D01*
X006091Y007105D01*
X006166Y007030D01*
X006166Y006880D01*
X006091Y006805D01*
X005940Y006805D01*
X005865Y006880D01*
X005705Y006805D02*
X005555Y006955D01*
X005865Y007255D02*
X006166Y007255D01*
X004330Y004680D02*
X004330Y001180D01*
X034830Y001180D01*
X034830Y004680D01*
X004330Y004680D01*
X001330Y004680D01*
X001330Y001180D01*
X004330Y001180D01*
X001585Y005675D02*
X001135Y005675D01*
X001135Y005900D01*
X001210Y005975D01*
X001360Y005975D01*
X001435Y005900D01*
X001435Y005675D01*
X001585Y006135D02*
X001135Y006135D01*
X001135Y006436D02*
X001585Y006436D01*
X001435Y006286D01*
X001585Y006135D01*
X001585Y006596D02*
X001135Y006596D01*
X001135Y006821D01*
X001210Y006896D01*
X001360Y006896D01*
X001435Y006821D01*
X001435Y006596D01*
X001435Y006746D02*
X001585Y006896D01*
X001585Y007056D02*
X001585Y007206D01*
X001585Y007131D02*
X001135Y007131D01*
X001135Y007056D02*
X001135Y007206D01*
X001135Y007363D02*
X001585Y007663D01*
X001135Y007663D01*
X001285Y007823D02*
X001135Y007974D01*
X001585Y007974D01*
X001585Y008124D02*
X001585Y007823D01*
X001585Y007363D02*
X001135Y007363D01*
X020705Y028755D02*
X020705Y028905D01*
X020705Y028830D02*
X021155Y028830D01*
X021155Y028755D02*
X021155Y028905D01*
X021080Y029062D02*
X021155Y029137D01*
X021155Y029287D01*
X021080Y029362D01*
X021155Y029522D02*
X021155Y029823D01*
X021155Y029672D02*
X020705Y029672D01*
X020855Y029522D01*
X020780Y029362D02*
X020705Y029287D01*
X020705Y029137D01*
X020780Y029062D01*
X021080Y029062D01*
X014159Y037925D02*
X014234Y038000D01*
X014159Y037925D02*
X014009Y037925D01*
X013934Y038000D01*
X013934Y038300D01*
X014009Y038375D01*
X014159Y038375D01*
X014234Y038300D01*
X013774Y038300D02*
X013699Y038375D01*
X013549Y038375D01*
X013473Y038300D01*
X013473Y038225D01*
X013549Y038150D01*
X013699Y038150D01*
X013774Y038075D01*
X013774Y038000D01*
X013699Y037925D01*
X013549Y037925D01*
X013473Y038000D01*
X013317Y037925D02*
X013167Y037925D01*
X013242Y037925D02*
X013242Y038375D01*
X013167Y038375D02*
X013317Y038375D01*
X013006Y038375D02*
X013006Y037925D01*
X012706Y037925D02*
X012706Y038375D01*
X012856Y038225D01*
X013006Y038375D01*
X012546Y038300D02*
X012546Y038225D01*
X012471Y038150D01*
X012246Y038150D01*
X012086Y038000D02*
X012086Y038300D01*
X012011Y038375D01*
X011860Y038375D01*
X011785Y038300D01*
X011785Y038000D01*
X011860Y037925D01*
X012011Y037925D01*
X012086Y038000D01*
X012246Y037925D02*
X012471Y037925D01*
X012546Y038000D01*
X012546Y038075D01*
X012471Y038150D01*
X012546Y038300D02*
X012471Y038375D01*
X012246Y038375D01*
X012246Y037925D01*
X011625Y038000D02*
X011550Y037925D01*
X011325Y037925D01*
X011325Y038375D01*
X011550Y038375D01*
X011625Y038300D01*
X011625Y038225D01*
X011550Y038150D01*
X011325Y038150D01*
X011550Y038150D02*
X011625Y038075D01*
X011625Y038000D01*
X009725Y036210D02*
X009425Y036210D01*
X009264Y036210D02*
X009114Y036210D01*
X009264Y036210D02*
X009264Y036060D01*
X009189Y035985D01*
X009039Y035985D01*
X008964Y036060D01*
X008964Y036360D01*
X009039Y036435D01*
X009189Y036435D01*
X009264Y036360D01*
X009575Y036360D02*
X009575Y036060D01*
X008804Y035985D02*
X008804Y036285D01*
X008654Y036435D01*
X008504Y036285D01*
X008504Y035985D01*
X008504Y036210D02*
X008804Y036210D01*
X008344Y036435D02*
X008043Y036435D01*
X008194Y036435D02*
X008194Y035985D01*
X007808Y036060D02*
X007808Y036435D01*
X007733Y036435D02*
X007883Y036435D01*
X007808Y036060D02*
X007733Y035985D01*
X007658Y035985D01*
X007583Y036060D01*
X007423Y036060D02*
X007348Y035985D01*
X007123Y035985D01*
X007123Y036435D01*
X007348Y036435D01*
X007423Y036360D01*
X007423Y036285D01*
X007348Y036210D01*
X007123Y036210D01*
X006963Y036060D02*
X006963Y036360D01*
X006887Y036435D01*
X006737Y036435D01*
X006662Y036360D01*
X006662Y036060D01*
X006737Y035985D01*
X006887Y035985D01*
X006963Y036060D01*
X007348Y036210D02*
X007423Y036135D01*
X007423Y036060D01*
X006502Y036060D02*
X006427Y035985D01*
X006202Y035985D01*
X006202Y036435D01*
X006427Y036435D01*
X006502Y036360D01*
X006502Y036285D01*
X006427Y036210D01*
X006202Y036210D01*
X006427Y036210D02*
X006502Y036135D01*
X006502Y036060D01*
X030325Y015375D02*
X030325Y014925D01*
X030550Y014925D01*
X030625Y015000D01*
X030625Y015300D01*
X030550Y015375D01*
X030325Y015375D01*
X030785Y015225D02*
X030936Y015375D01*
X031086Y015225D01*
X031086Y014925D01*
X031086Y015150D02*
X030785Y015150D01*
X030785Y015225D02*
X030785Y014925D01*
X031396Y014925D02*
X031396Y015375D01*
X031246Y015375D02*
X031546Y015375D01*
X031706Y015225D02*
X031856Y015375D01*
X032006Y015225D01*
X032006Y014925D01*
X032167Y014850D02*
X032467Y014850D01*
X032627Y014925D02*
X032852Y014925D01*
X032927Y015000D01*
X032927Y015075D01*
X032852Y015150D01*
X032627Y015150D01*
X032627Y014925D02*
X032627Y015375D01*
X032852Y015375D01*
X032927Y015300D01*
X032927Y015225D01*
X032852Y015150D01*
X033087Y015000D02*
X033162Y014925D01*
X033313Y014925D01*
X033388Y015000D01*
X033388Y015375D01*
X033548Y015300D02*
X033548Y015225D01*
X033623Y015150D01*
X033773Y015150D01*
X033848Y015075D01*
X033848Y015000D01*
X033773Y014925D01*
X033623Y014925D01*
X033548Y015000D01*
X033548Y015300D02*
X033623Y015375D01*
X033773Y015375D01*
X033848Y015300D01*
X033087Y015375D02*
X033087Y015000D01*
X032006Y015150D02*
X031706Y015150D01*
X031706Y015225D02*
X031706Y014925D01*
X031667Y012375D02*
X031667Y012000D01*
X031742Y011925D01*
X031892Y011925D01*
X031967Y012000D01*
X031967Y012375D01*
X032127Y012375D02*
X032427Y012375D01*
X032277Y012375D02*
X032277Y011925D01*
X031506Y012000D02*
X031506Y012300D01*
X031431Y012375D01*
X031281Y012375D01*
X031206Y012300D01*
X031206Y012000D01*
X031281Y011925D01*
X031431Y011925D01*
X031506Y012000D01*
X031046Y012000D02*
X031046Y012300D01*
X030971Y012375D01*
X030746Y012375D01*
X030746Y011925D01*
X030971Y011925D01*
X031046Y012000D01*
X030586Y011925D02*
X030586Y012375D01*
X030285Y012375D02*
X030285Y011925D01*
X030125Y012000D02*
X030125Y012150D01*
X029975Y012150D01*
X029825Y012000D02*
X029900Y011925D01*
X030050Y011925D01*
X030125Y012000D01*
X029825Y012000D02*
X029825Y012300D01*
X029900Y012375D01*
X030050Y012375D01*
X030125Y012300D01*
X030285Y012375D02*
X030586Y011925D01*
X030511Y009875D02*
X030360Y009875D01*
X030285Y009800D01*
X030436Y009650D02*
X030511Y009650D01*
X030586Y009575D01*
X030586Y009500D01*
X030511Y009425D01*
X030360Y009425D01*
X030285Y009500D01*
X030125Y009650D02*
X029825Y009650D01*
X029975Y009800D02*
X029975Y009500D01*
X030511Y009650D02*
X030586Y009725D01*
X030586Y009800D01*
X030511Y009875D01*
X030746Y009875D02*
X030746Y009575D01*
X030896Y009425D01*
X031046Y009575D01*
X031046Y009875D01*
X031206Y009800D02*
X031281Y009875D01*
X031431Y009875D01*
X031506Y009800D01*
X031506Y009725D01*
X031431Y009650D01*
X031506Y009575D01*
X031506Y009500D01*
X031431Y009425D01*
X031281Y009425D01*
X031206Y009500D01*
X031356Y009650D02*
X031431Y009650D01*
X031667Y009500D02*
X031742Y009425D01*
X031892Y009425D01*
X031967Y009500D01*
X031967Y009800D01*
X031892Y009875D01*
X031742Y009875D01*
X031667Y009800D01*
X031667Y009500D01*
X032127Y009500D02*
X032202Y009425D01*
X032352Y009425D01*
X032427Y009500D01*
X032427Y009875D01*
X032587Y009875D02*
X032888Y009875D01*
X032737Y009875D02*
X032737Y009425D01*
X032127Y009500D02*
X032127Y009875D01*
X034325Y012000D02*
X034400Y011925D01*
X034550Y011925D01*
X034625Y012000D01*
X034625Y012075D01*
X034550Y012150D01*
X034400Y012150D01*
X034325Y012225D01*
X034325Y012300D01*
X034400Y012375D01*
X034550Y012375D01*
X034625Y012300D01*
X034785Y012375D02*
X034785Y011925D01*
X034785Y012075D02*
X035011Y012075D01*
X035086Y012150D01*
X035086Y012300D01*
X035011Y012375D01*
X034785Y012375D01*
X035246Y012375D02*
X035246Y011925D01*
X035246Y012075D02*
X035546Y012375D01*
X035706Y012375D02*
X035706Y011925D01*
X035706Y012075D02*
X035931Y012075D01*
X036006Y012150D01*
X036006Y012300D01*
X035931Y012375D01*
X035706Y012375D01*
X035856Y012075D02*
X036006Y011925D01*
X035546Y011925D02*
X035321Y012150D01*
X036085Y008738D02*
X036085Y008437D01*
X036085Y008587D02*
X035635Y008587D01*
X035785Y008437D01*
X035635Y008277D02*
X035635Y007977D01*
X035635Y008127D02*
X036085Y008127D01*
X036010Y007817D02*
X035635Y007817D01*
X035635Y007517D02*
X036010Y007517D01*
X036085Y007592D01*
X036085Y007742D01*
X036010Y007817D01*
X036010Y007356D02*
X035710Y007356D01*
X035635Y007281D01*
X035635Y007131D01*
X035710Y007056D01*
X036010Y007056D01*
X036085Y007131D01*
X036085Y007281D01*
X036010Y007356D01*
X036085Y006896D02*
X035935Y006746D01*
X035935Y006821D02*
X035935Y006596D01*
X036085Y006596D02*
X035635Y006596D01*
X035635Y006821D01*
X035710Y006896D01*
X035860Y006896D01*
X035935Y006821D01*
X036085Y006436D02*
X035635Y006436D01*
X035635Y006135D02*
X036085Y006135D01*
X035935Y006286D01*
X036085Y006436D01*
X035860Y005975D02*
X035935Y005900D01*
X035935Y005675D01*
X036085Y005675D02*
X035635Y005675D01*
X035635Y005900D01*
X035710Y005975D01*
X035860Y005975D01*
X034830Y004680D02*
X037830Y004680D01*
X037830Y001180D01*
X034830Y001180D01*
X031817Y006925D02*
X031817Y007375D01*
X031667Y007375D02*
X031967Y007375D01*
X031506Y007375D02*
X031506Y007000D01*
X031431Y006925D01*
X031281Y006925D01*
X031206Y007000D01*
X031206Y007375D01*
X031046Y007300D02*
X030971Y007375D01*
X030821Y007375D01*
X030746Y007300D01*
X030746Y007000D01*
X030821Y006925D01*
X030971Y006925D01*
X031046Y007000D01*
X031046Y007300D01*
X030586Y007375D02*
X030285Y007375D01*
X030285Y007150D01*
X030436Y007225D01*
X030511Y007225D01*
X030586Y007150D01*
X030586Y007000D01*
X030511Y006925D01*
X030360Y006925D01*
X030285Y007000D01*
X030125Y007150D02*
X029825Y007150D01*
X029975Y007300D02*
X029975Y007000D01*
D14*
X035460Y032180D02*
X035460Y032680D01*
X035460Y033180D01*
X035710Y033180D02*
X035710Y032180D01*
X035960Y032180D01*
X035960Y033180D01*
X035710Y033180D01*
X036200Y033180D02*
X036200Y032680D01*
X036200Y032180D01*
D15*
X038074Y031781D02*
X038705Y031781D01*
X038705Y032202D01*
X038705Y032426D02*
X038705Y032846D01*
X038705Y032636D02*
X038074Y032636D01*
X038285Y032426D01*
X038390Y033070D02*
X038074Y033386D01*
X038705Y033386D01*
X038390Y033491D02*
X038390Y033070D01*
X038705Y031562D02*
X038705Y031352D01*
X038705Y031457D02*
X038074Y031457D01*
X038074Y031352D02*
X038074Y031562D01*
X038180Y031127D02*
X038074Y031022D01*
X038074Y030707D01*
X038705Y030707D01*
X038705Y031022D01*
X038600Y031127D01*
X038180Y031127D01*
X038180Y030483D02*
X038074Y030378D01*
X038074Y030168D01*
X038180Y030063D01*
X038600Y030063D01*
X038705Y030168D01*
X038705Y030378D01*
X038600Y030483D01*
X038600Y029838D02*
X038705Y029733D01*
X038705Y029523D01*
X038600Y029418D01*
X038600Y029194D02*
X038180Y029194D01*
X038074Y029089D01*
X038074Y028879D01*
X038180Y028773D01*
X038600Y028773D01*
X038705Y028879D01*
X038705Y029089D01*
X038600Y029194D01*
X038285Y029418D02*
X038390Y029523D01*
X038390Y029733D01*
X038495Y029838D01*
X038600Y029838D01*
X038180Y029838D02*
X038074Y029733D01*
X038074Y029523D01*
X038180Y029418D01*
X038285Y029418D01*
D16*
X027780Y034030D02*
X027780Y034823D01*
X027430Y035630D02*
X025730Y035630D01*
X025380Y034835D02*
X025380Y034030D01*
X025730Y033230D02*
X027430Y033230D01*
X025880Y034430D02*
X025882Y034482D01*
X025888Y034534D01*
X025898Y034586D01*
X025911Y034636D01*
X025928Y034686D01*
X025949Y034734D01*
X025974Y034780D01*
X026002Y034824D01*
X026033Y034866D01*
X026067Y034906D01*
X026104Y034943D01*
X026144Y034977D01*
X026186Y035008D01*
X026230Y035036D01*
X026276Y035061D01*
X026324Y035082D01*
X026374Y035099D01*
X026424Y035112D01*
X026476Y035122D01*
X026528Y035128D01*
X026580Y035130D01*
X026632Y035128D01*
X026684Y035122D01*
X026736Y035112D01*
X026786Y035099D01*
X026836Y035082D01*
X026884Y035061D01*
X026930Y035036D01*
X026974Y035008D01*
X027016Y034977D01*
X027056Y034943D01*
X027093Y034906D01*
X027127Y034866D01*
X027158Y034824D01*
X027186Y034780D01*
X027211Y034734D01*
X027232Y034686D01*
X027249Y034636D01*
X027262Y034586D01*
X027272Y034534D01*
X027278Y034482D01*
X027280Y034430D01*
X027278Y034378D01*
X027272Y034326D01*
X027262Y034274D01*
X027249Y034224D01*
X027232Y034174D01*
X027211Y034126D01*
X027186Y034080D01*
X027158Y034036D01*
X027127Y033994D01*
X027093Y033954D01*
X027056Y033917D01*
X027016Y033883D01*
X026974Y033852D01*
X026930Y033824D01*
X026884Y033799D01*
X026836Y033778D01*
X026786Y033761D01*
X026736Y033748D01*
X026684Y033738D01*
X026632Y033732D01*
X026580Y033730D01*
X026528Y033732D01*
X026476Y033738D01*
X026424Y033748D01*
X026374Y033761D01*
X026324Y033778D01*
X026276Y033799D01*
X026230Y033824D01*
X026186Y033852D01*
X026144Y033883D01*
X026104Y033917D01*
X026067Y033954D01*
X026033Y033994D01*
X026002Y034036D01*
X025974Y034080D01*
X025949Y034126D01*
X025928Y034174D01*
X025911Y034224D01*
X025898Y034274D01*
X025888Y034326D01*
X025882Y034378D01*
X025880Y034430D01*
X014472Y025822D02*
X014472Y020538D01*
X009184Y020538D01*
X009184Y025822D01*
X014472Y025822D01*
X003730Y024530D02*
X003730Y021830D01*
X003728Y021771D01*
X003722Y021713D01*
X003713Y021654D01*
X003699Y021597D01*
X003682Y021541D01*
X003661Y021486D01*
X003637Y021432D01*
X003609Y021380D01*
X003578Y021330D01*
X003544Y021282D01*
X003507Y021237D01*
X003466Y021194D01*
X003423Y021153D01*
X003378Y021116D01*
X003330Y021082D01*
X003280Y021051D01*
X003228Y021023D01*
X003174Y020999D01*
X003119Y020978D01*
X003063Y020961D01*
X003006Y020947D01*
X002947Y020938D01*
X002889Y020932D01*
X002830Y020930D01*
X002771Y020932D01*
X002713Y020938D01*
X002654Y020947D01*
X002597Y020961D01*
X002541Y020978D01*
X002486Y020999D01*
X002432Y021023D01*
X002380Y021051D01*
X002330Y021082D01*
X002282Y021116D01*
X002237Y021153D01*
X002194Y021194D01*
X002153Y021237D01*
X002116Y021282D01*
X002082Y021330D01*
X002051Y021380D01*
X002023Y021432D01*
X001999Y021486D01*
X001978Y021541D01*
X001961Y021597D01*
X001947Y021654D01*
X001938Y021713D01*
X001932Y021771D01*
X001930Y021830D01*
X001930Y024530D01*
X001932Y024589D01*
X001938Y024647D01*
X001947Y024706D01*
X001961Y024763D01*
X001978Y024819D01*
X001999Y024874D01*
X002023Y024928D01*
X002051Y024980D01*
X002082Y025030D01*
X002116Y025078D01*
X002153Y025123D01*
X002194Y025166D01*
X002237Y025207D01*
X002282Y025244D01*
X002330Y025278D01*
X002380Y025309D01*
X002432Y025337D01*
X002486Y025361D01*
X002541Y025382D01*
X002597Y025399D01*
X002654Y025413D01*
X002713Y025422D01*
X002771Y025428D01*
X002830Y025430D01*
X002889Y025428D01*
X002947Y025422D01*
X003006Y025413D01*
X003063Y025399D01*
X003119Y025382D01*
X003174Y025361D01*
X003228Y025337D01*
X003280Y025309D01*
X003330Y025278D01*
X003378Y025244D01*
X003423Y025207D01*
X003466Y025166D01*
X003507Y025123D01*
X003544Y025078D01*
X003578Y025030D01*
X003609Y024980D01*
X003637Y024928D01*
X003661Y024874D01*
X003682Y024819D01*
X003699Y024763D01*
X003713Y024706D01*
X003722Y024647D01*
X003728Y024589D01*
X003730Y024530D01*
X006080Y009180D02*
X006080Y007680D01*
X027870Y007601D02*
X027870Y007354D01*
X027993Y007231D01*
X028117Y007231D01*
X028240Y007354D01*
X028240Y007601D01*
X028364Y007725D01*
X028487Y007725D01*
X028611Y007601D01*
X028611Y007354D01*
X028487Y007231D01*
X028487Y006970D02*
X028611Y006846D01*
X028611Y006599D01*
X028487Y006476D01*
X027993Y006970D01*
X027870Y006846D01*
X027870Y006599D01*
X027993Y006476D01*
X028487Y006476D01*
X028487Y006970D02*
X027993Y006970D01*
X027870Y007601D02*
X027993Y007725D01*
X027993Y007986D02*
X027870Y008110D01*
X027870Y008356D01*
X027993Y008480D01*
X028487Y008480D01*
X028611Y008356D01*
X028611Y008110D01*
X028487Y007986D01*
X028240Y008741D02*
X028240Y009235D01*
X027870Y009496D02*
X028611Y009496D01*
X028364Y009743D01*
X028611Y009990D01*
X027870Y009990D01*
X027870Y010251D02*
X028364Y010251D01*
X028611Y010498D01*
X028364Y010745D01*
X027870Y010745D01*
X027870Y011006D02*
X028117Y011253D01*
X028117Y011130D02*
X028117Y011500D01*
X027870Y011500D02*
X028611Y011500D01*
X028611Y011130D01*
X028487Y011006D01*
X028240Y011006D01*
X028117Y011130D01*
X028240Y010745D02*
X028240Y010251D01*
D17*
X028155Y026755D03*
X026005Y026755D03*
X023355Y026755D03*
X021205Y026755D03*
X020755Y033680D03*
X020755Y035180D03*
X021255Y037180D03*
X022905Y035180D03*
X022905Y033680D03*
X023405Y037180D03*
X025755Y037180D03*
X027905Y037180D03*
X034005Y035180D03*
X036155Y035180D03*
X018405Y035180D03*
X018405Y033680D03*
X016255Y033680D03*
X016255Y035180D03*
X013405Y035180D03*
X013405Y033680D03*
X011255Y033680D03*
X011255Y035180D03*
X009405Y035180D03*
X009405Y033680D03*
X007255Y033680D03*
X007255Y035180D03*
X004905Y035180D03*
X004905Y033680D03*
X002755Y033680D03*
X002755Y035180D03*
D18*
X005330Y028755D03*
X005330Y026605D03*
X001205Y020255D03*
X001205Y018105D03*
D19*
X002855Y018880D02*
X002855Y019180D01*
X002855Y019480D01*
X003055Y019480D02*
X003055Y019180D01*
X003055Y018880D01*
X005030Y021080D02*
X005330Y021080D01*
X005630Y021080D01*
X005630Y021280D02*
X005330Y021280D01*
X005030Y021280D01*
X005030Y023580D02*
X005330Y023580D01*
X005630Y023580D01*
X005630Y023780D02*
X005330Y023780D01*
X005030Y023780D01*
X002930Y026880D02*
X002930Y027180D01*
X002930Y027480D01*
X002730Y027480D02*
X002730Y027180D01*
X002730Y026880D01*
X009568Y029368D02*
X009568Y029668D01*
X009568Y029968D01*
X009768Y029968D02*
X009768Y029668D01*
X009768Y029368D01*
X017105Y026980D02*
X017105Y026680D01*
X017105Y026380D01*
X017305Y026380D02*
X017305Y026680D01*
X017305Y026980D01*
X019030Y025155D02*
X019330Y025155D01*
X019630Y025155D01*
X019630Y024955D02*
X019330Y024955D01*
X019030Y024955D01*
X019143Y021993D02*
X019143Y021693D01*
X019143Y021393D01*
X019343Y021393D02*
X019343Y021693D01*
X019343Y021993D01*
X013180Y015355D02*
X013180Y015055D01*
X013180Y014755D01*
X012980Y014755D02*
X012980Y015055D01*
X012980Y015355D01*
X010930Y016505D02*
X010930Y016805D01*
X010930Y017105D01*
X010730Y017105D02*
X010730Y016805D01*
X010730Y016505D01*
X009370Y021015D02*
X009372Y021049D01*
X009378Y021083D01*
X009388Y021116D01*
X009401Y021147D01*
X009419Y021177D01*
X009439Y021205D01*
X009463Y021230D01*
X009489Y021252D01*
X009517Y021270D01*
X009548Y021286D01*
X009580Y021298D01*
X009614Y021306D01*
X009648Y021310D01*
X009682Y021310D01*
X009716Y021306D01*
X009750Y021298D01*
X009782Y021286D01*
X009812Y021270D01*
X009841Y021252D01*
X009867Y021230D01*
X009891Y021205D01*
X009911Y021177D01*
X009929Y021147D01*
X009942Y021116D01*
X009952Y021083D01*
X009958Y021049D01*
X009960Y021015D01*
X009958Y020981D01*
X009952Y020947D01*
X009942Y020914D01*
X009929Y020883D01*
X009911Y020853D01*
X009891Y020825D01*
X009867Y020800D01*
X009841Y020778D01*
X009813Y020760D01*
X009782Y020744D01*
X009750Y020732D01*
X009716Y020724D01*
X009682Y020720D01*
X009648Y020720D01*
X009614Y020724D01*
X009580Y020732D01*
X009548Y020744D01*
X009517Y020760D01*
X009489Y020778D01*
X009463Y020800D01*
X009439Y020825D01*
X009419Y020853D01*
X009401Y020883D01*
X009388Y020914D01*
X009378Y020947D01*
X009372Y020981D01*
X009370Y021015D01*
D20*
X006048Y007650D02*
X006120Y007704D01*
X006119Y007703D02*
X006162Y007650D01*
X006207Y007599D01*
X006256Y007551D01*
X006307Y007506D01*
X006361Y007463D01*
X006417Y007424D01*
X006475Y007388D01*
X006535Y007355D01*
X006596Y007326D01*
X006660Y007301D01*
X006724Y007279D01*
X006790Y007260D01*
X006857Y007246D01*
X006924Y007235D01*
X006992Y007228D01*
X007060Y007225D01*
X007129Y007226D01*
X007197Y007231D01*
X007265Y007239D01*
X007332Y007252D01*
X007398Y007268D01*
X007463Y007288D01*
X007528Y007311D01*
X007590Y007338D01*
X007651Y007369D01*
X007710Y007403D01*
X007768Y007440D01*
X007823Y007481D01*
X007875Y007525D01*
X007925Y007571D01*
X007972Y007620D01*
X008017Y007672D01*
X008058Y007726D01*
X008097Y007783D01*
X008132Y007842D01*
X008163Y007902D01*
X008191Y007964D01*
X008216Y008028D01*
X008237Y008093D01*
X008254Y008159D01*
X008268Y008226D01*
X008277Y008294D01*
X008283Y008362D01*
X008285Y008430D01*
X008283Y008498D01*
X008277Y008566D01*
X008268Y008634D01*
X008254Y008701D01*
X008237Y008767D01*
X008216Y008832D01*
X008191Y008896D01*
X008163Y008958D01*
X008132Y009018D01*
X008097Y009077D01*
X008058Y009134D01*
X008017Y009188D01*
X007972Y009240D01*
X007925Y009289D01*
X007875Y009335D01*
X007823Y009379D01*
X007768Y009420D01*
X007710Y009457D01*
X007651Y009491D01*
X007590Y009522D01*
X007528Y009549D01*
X007463Y009572D01*
X007398Y009592D01*
X007332Y009608D01*
X007265Y009621D01*
X007197Y009629D01*
X007129Y009634D01*
X007060Y009635D01*
X006992Y009632D01*
X006924Y009625D01*
X006857Y009614D01*
X006790Y009600D01*
X006724Y009581D01*
X006660Y009559D01*
X006596Y009534D01*
X006535Y009505D01*
X006475Y009472D01*
X006417Y009436D01*
X006361Y009397D01*
X006307Y009354D01*
X006256Y009309D01*
X006207Y009261D01*
X006162Y009210D01*
X006119Y009157D01*
X006048Y009210D01*
X006047Y009211D01*
X006091Y009266D01*
X006139Y009319D01*
X006189Y009370D01*
X006242Y009417D01*
X006297Y009461D01*
X006355Y009503D01*
X006415Y009541D01*
X006476Y009576D01*
X006540Y009607D01*
X006605Y009635D01*
X006672Y009659D01*
X006740Y009680D01*
X006809Y009696D01*
X006879Y009709D01*
X006949Y009718D01*
X007020Y009724D01*
X007091Y009725D01*
X007162Y009722D01*
X007233Y009716D01*
X007303Y009706D01*
X007372Y009692D01*
X007441Y009674D01*
X007509Y009652D01*
X007575Y009627D01*
X007640Y009598D01*
X007703Y009565D01*
X007764Y009529D01*
X007823Y009490D01*
X007880Y009448D01*
X007935Y009403D01*
X007987Y009354D01*
X008036Y009303D01*
X008083Y009250D01*
X008126Y009193D01*
X008166Y009135D01*
X008203Y009074D01*
X008237Y009012D01*
X008267Y008948D01*
X008294Y008882D01*
X008317Y008815D01*
X008336Y008746D01*
X008351Y008677D01*
X008363Y008607D01*
X008371Y008536D01*
X008375Y008465D01*
X008375Y008395D01*
X008371Y008324D01*
X008363Y008253D01*
X008351Y008183D01*
X008336Y008114D01*
X008317Y008045D01*
X008294Y007978D01*
X008267Y007912D01*
X008237Y007848D01*
X008203Y007786D01*
X008166Y007725D01*
X008126Y007667D01*
X008083Y007610D01*
X008036Y007557D01*
X007987Y007506D01*
X007935Y007457D01*
X007880Y007412D01*
X007823Y007370D01*
X007764Y007331D01*
X007703Y007295D01*
X007640Y007262D01*
X007575Y007233D01*
X007509Y007208D01*
X007441Y007186D01*
X007372Y007168D01*
X007303Y007154D01*
X007233Y007144D01*
X007162Y007138D01*
X007091Y007135D01*
X007020Y007136D01*
X006949Y007142D01*
X006879Y007151D01*
X006809Y007164D01*
X006740Y007180D01*
X006672Y007201D01*
X006605Y007225D01*
X006540Y007253D01*
X006476Y007284D01*
X006415Y007319D01*
X006355Y007357D01*
X006297Y007399D01*
X006242Y007443D01*
X006189Y007490D01*
X006139Y007541D01*
X006091Y007594D01*
X006047Y007649D01*
X006054Y007654D01*
X006099Y007599D01*
X006146Y007546D01*
X006197Y007495D01*
X006250Y007448D01*
X006306Y007403D01*
X006364Y007362D01*
X006424Y007324D01*
X006486Y007289D01*
X006550Y007258D01*
X006616Y007231D01*
X006683Y007207D01*
X006752Y007187D01*
X006821Y007170D01*
X006891Y007158D01*
X006962Y007149D01*
X007033Y007145D01*
X007104Y007144D01*
X007175Y007148D01*
X007246Y007155D01*
X007317Y007166D01*
X007386Y007181D01*
X007455Y007200D01*
X007523Y007223D01*
X007589Y007249D01*
X007654Y007279D01*
X007716Y007313D01*
X007777Y007349D01*
X007836Y007390D01*
X007893Y007433D01*
X007947Y007480D01*
X007998Y007529D01*
X008046Y007582D01*
X008092Y007636D01*
X008134Y007694D01*
X008173Y007753D01*
X008209Y007815D01*
X008242Y007878D01*
X008270Y007943D01*
X008296Y008010D01*
X008317Y008078D01*
X008335Y008147D01*
X008348Y008217D01*
X008358Y008288D01*
X008364Y008359D01*
X008366Y008430D01*
X008364Y008501D01*
X008358Y008572D01*
X008348Y008643D01*
X008335Y008713D01*
X008317Y008782D01*
X008296Y008850D01*
X008270Y008917D01*
X008242Y008982D01*
X008209Y009045D01*
X008173Y009107D01*
X008134Y009166D01*
X008092Y009224D01*
X008046Y009278D01*
X007998Y009331D01*
X007947Y009380D01*
X007893Y009427D01*
X007836Y009470D01*
X007777Y009511D01*
X007716Y009547D01*
X007654Y009581D01*
X007589Y009611D01*
X007523Y009637D01*
X007455Y009660D01*
X007386Y009679D01*
X007317Y009694D01*
X007246Y009705D01*
X007175Y009712D01*
X007104Y009716D01*
X007033Y009715D01*
X006962Y009711D01*
X006891Y009702D01*
X006821Y009690D01*
X006752Y009673D01*
X006683Y009653D01*
X006616Y009629D01*
X006550Y009602D01*
X006486Y009571D01*
X006424Y009536D01*
X006364Y009498D01*
X006306Y009457D01*
X006250Y009412D01*
X006197Y009365D01*
X006146Y009314D01*
X006099Y009261D01*
X006054Y009206D01*
X006061Y009200D01*
X006106Y009255D01*
X006153Y009308D01*
X006203Y009358D01*
X006256Y009405D01*
X006311Y009449D01*
X006369Y009491D01*
X006428Y009528D01*
X006490Y009563D01*
X006554Y009594D01*
X006619Y009621D01*
X006686Y009645D01*
X006754Y009665D01*
X006823Y009681D01*
X006892Y009693D01*
X006963Y009702D01*
X007033Y009706D01*
X007104Y009707D01*
X007175Y009703D01*
X007245Y009696D01*
X007315Y009685D01*
X007384Y009670D01*
X007452Y009651D01*
X007520Y009629D01*
X007585Y009603D01*
X007650Y009573D01*
X007712Y009540D01*
X007772Y009503D01*
X007831Y009463D01*
X007887Y009420D01*
X007941Y009374D01*
X007991Y009324D01*
X008040Y009273D01*
X008085Y009218D01*
X008127Y009161D01*
X008166Y009102D01*
X008201Y009041D01*
X008234Y008978D01*
X008262Y008913D01*
X008287Y008847D01*
X008308Y008779D01*
X008326Y008711D01*
X008339Y008641D01*
X008349Y008571D01*
X008355Y008501D01*
X008357Y008430D01*
X008355Y008359D01*
X008349Y008289D01*
X008339Y008219D01*
X008326Y008149D01*
X008308Y008081D01*
X008287Y008013D01*
X008262Y007947D01*
X008234Y007882D01*
X008201Y007819D01*
X008166Y007758D01*
X008127Y007699D01*
X008085Y007642D01*
X008040Y007587D01*
X007991Y007536D01*
X007941Y007486D01*
X007887Y007440D01*
X007831Y007397D01*
X007772Y007357D01*
X007712Y007320D01*
X007650Y007287D01*
X007585Y007257D01*
X007520Y007231D01*
X007452Y007209D01*
X007384Y007190D01*
X007315Y007175D01*
X007245Y007164D01*
X007175Y007157D01*
X007104Y007153D01*
X007033Y007154D01*
X006963Y007158D01*
X006892Y007167D01*
X006823Y007179D01*
X006754Y007195D01*
X006686Y007215D01*
X006619Y007239D01*
X006554Y007266D01*
X006490Y007297D01*
X006428Y007332D01*
X006369Y007369D01*
X006311Y007411D01*
X006256Y007455D01*
X006203Y007502D01*
X006153Y007552D01*
X006106Y007605D01*
X006061Y007660D01*
X006069Y007665D01*
X006113Y007610D01*
X006161Y007557D01*
X006211Y007507D01*
X006264Y007459D01*
X006320Y007415D01*
X006378Y007374D01*
X006438Y007337D01*
X006500Y007302D01*
X006564Y007272D01*
X006630Y007245D01*
X006697Y007221D01*
X006765Y007202D01*
X006835Y007186D01*
X006905Y007174D01*
X006975Y007166D01*
X007046Y007162D01*
X007117Y007163D01*
X007188Y007167D01*
X007259Y007175D01*
X007329Y007187D01*
X007398Y007203D01*
X007466Y007222D01*
X007534Y007246D01*
X007599Y007273D01*
X007663Y007304D01*
X007725Y007338D01*
X007785Y007376D01*
X007843Y007418D01*
X007899Y007462D01*
X007952Y007509D01*
X008002Y007560D01*
X008049Y007613D01*
X008094Y007668D01*
X008135Y007726D01*
X008172Y007786D01*
X008207Y007849D01*
X008238Y007913D01*
X008265Y007978D01*
X008288Y008045D01*
X008308Y008114D01*
X008324Y008183D01*
X008336Y008253D01*
X008344Y008324D01*
X008348Y008394D01*
X008348Y008466D01*
X008344Y008536D01*
X008336Y008607D01*
X008324Y008677D01*
X008308Y008746D01*
X008288Y008815D01*
X008265Y008882D01*
X008238Y008947D01*
X008207Y009011D01*
X008172Y009074D01*
X008135Y009134D01*
X008094Y009192D01*
X008049Y009247D01*
X008002Y009300D01*
X007952Y009351D01*
X007899Y009398D01*
X007843Y009442D01*
X007785Y009484D01*
X007725Y009522D01*
X007663Y009556D01*
X007599Y009587D01*
X007534Y009614D01*
X007466Y009638D01*
X007398Y009657D01*
X007329Y009673D01*
X007259Y009685D01*
X007188Y009693D01*
X007117Y009697D01*
X007046Y009698D01*
X006975Y009694D01*
X006905Y009686D01*
X006835Y009674D01*
X006765Y009658D01*
X006697Y009639D01*
X006630Y009615D01*
X006564Y009588D01*
X006500Y009558D01*
X006438Y009523D01*
X006378Y009486D01*
X006320Y009445D01*
X006264Y009401D01*
X006211Y009353D01*
X006161Y009303D01*
X006113Y009250D01*
X006069Y009195D01*
X006076Y009189D01*
X006120Y009244D01*
X006167Y009297D01*
X006217Y009347D01*
X006270Y009394D01*
X006325Y009438D01*
X006383Y009478D01*
X006442Y009516D01*
X006504Y009550D01*
X006568Y009580D01*
X006633Y009607D01*
X006700Y009630D01*
X006768Y009650D01*
X006836Y009665D01*
X006906Y009677D01*
X006976Y009685D01*
X007047Y009689D01*
X007117Y009688D01*
X007188Y009684D01*
X007258Y009676D01*
X007327Y009664D01*
X007396Y009649D01*
X007464Y009629D01*
X007530Y009606D01*
X007595Y009579D01*
X007659Y009548D01*
X007721Y009514D01*
X007780Y009476D01*
X007838Y009435D01*
X007893Y009391D01*
X007946Y009344D01*
X007995Y009294D01*
X008042Y009242D01*
X008086Y009186D01*
X008127Y009129D01*
X008165Y009069D01*
X008199Y009007D01*
X008229Y008944D01*
X008256Y008879D01*
X008280Y008812D01*
X008299Y008744D01*
X008315Y008675D01*
X008327Y008606D01*
X008335Y008536D01*
X008339Y008465D01*
X008339Y008395D01*
X008335Y008324D01*
X008327Y008254D01*
X008315Y008185D01*
X008299Y008116D01*
X008280Y008048D01*
X008256Y007981D01*
X008229Y007916D01*
X008199Y007853D01*
X008165Y007791D01*
X008127Y007731D01*
X008086Y007674D01*
X008042Y007618D01*
X007995Y007566D01*
X007946Y007516D01*
X007893Y007469D01*
X007838Y007425D01*
X007780Y007384D01*
X007721Y007346D01*
X007659Y007312D01*
X007595Y007281D01*
X007530Y007254D01*
X007464Y007231D01*
X007396Y007211D01*
X007327Y007196D01*
X007258Y007184D01*
X007188Y007176D01*
X007117Y007172D01*
X007047Y007171D01*
X006976Y007175D01*
X006906Y007183D01*
X006836Y007195D01*
X006768Y007210D01*
X006700Y007230D01*
X006633Y007253D01*
X006568Y007280D01*
X006504Y007310D01*
X006442Y007344D01*
X006383Y007382D01*
X006325Y007422D01*
X006270Y007466D01*
X006217Y007513D01*
X006167Y007563D01*
X006120Y007616D01*
X006076Y007671D01*
X006083Y007676D01*
X006127Y007621D01*
X006174Y007569D01*
X006223Y007520D01*
X006276Y007473D01*
X006330Y007430D01*
X006388Y007389D01*
X006447Y007352D01*
X006508Y007318D01*
X006572Y007288D01*
X006636Y007261D01*
X006703Y007238D01*
X006770Y007219D01*
X006838Y007204D01*
X006907Y007192D01*
X006977Y007184D01*
X007047Y007180D01*
X007117Y007181D01*
X007187Y007185D01*
X007256Y007193D01*
X007325Y007204D01*
X007394Y007220D01*
X007461Y007239D01*
X007527Y007263D01*
X007592Y007290D01*
X007655Y007320D01*
X007716Y007354D01*
X007775Y007391D01*
X007833Y007432D01*
X007887Y007476D01*
X007939Y007522D01*
X007989Y007572D01*
X008036Y007624D01*
X008079Y007679D01*
X008120Y007736D01*
X008157Y007795D01*
X008191Y007857D01*
X008221Y007920D01*
X008248Y007985D01*
X008271Y008051D01*
X008290Y008118D01*
X008306Y008186D01*
X008318Y008255D01*
X008326Y008325D01*
X008330Y008395D01*
X008330Y008465D01*
X008326Y008535D01*
X008318Y008605D01*
X008306Y008674D01*
X008290Y008742D01*
X008271Y008809D01*
X008248Y008875D01*
X008221Y008940D01*
X008191Y009003D01*
X008157Y009065D01*
X008120Y009124D01*
X008079Y009181D01*
X008036Y009236D01*
X007989Y009288D01*
X007939Y009338D01*
X007887Y009384D01*
X007833Y009428D01*
X007775Y009469D01*
X007716Y009506D01*
X007655Y009540D01*
X007592Y009570D01*
X007527Y009597D01*
X007461Y009621D01*
X007394Y009640D01*
X007325Y009656D01*
X007256Y009667D01*
X007187Y009675D01*
X007117Y009679D01*
X007047Y009680D01*
X006977Y009676D01*
X006907Y009668D01*
X006838Y009656D01*
X006770Y009641D01*
X006703Y009622D01*
X006636Y009599D01*
X006572Y009572D01*
X006508Y009542D01*
X006447Y009508D01*
X006388Y009471D01*
X006330Y009430D01*
X006276Y009387D01*
X006223Y009340D01*
X006174Y009291D01*
X006127Y009239D01*
X006083Y009184D01*
X006090Y009179D01*
X006134Y009233D01*
X006180Y009285D01*
X006229Y009334D01*
X006281Y009380D01*
X006336Y009423D01*
X006393Y009463D01*
X006452Y009500D01*
X006513Y009534D01*
X006575Y009564D01*
X006640Y009590D01*
X006705Y009613D01*
X006772Y009632D01*
X006840Y009648D01*
X006909Y009659D01*
X006978Y009667D01*
X007047Y009671D01*
X007117Y009670D01*
X007186Y009666D01*
X007255Y009659D01*
X007324Y009647D01*
X007391Y009631D01*
X007458Y009612D01*
X007524Y009589D01*
X007588Y009562D01*
X007651Y009532D01*
X007712Y009498D01*
X007770Y009461D01*
X007827Y009421D01*
X007881Y009378D01*
X007933Y009331D01*
X007982Y009282D01*
X008029Y009230D01*
X008072Y009176D01*
X008112Y009119D01*
X008149Y009060D01*
X008183Y008999D01*
X008213Y008936D01*
X008240Y008872D01*
X008263Y008807D01*
X008282Y008740D01*
X008297Y008672D01*
X008309Y008603D01*
X008317Y008534D01*
X008321Y008465D01*
X008321Y008395D01*
X008317Y008326D01*
X008309Y008257D01*
X008297Y008188D01*
X008282Y008120D01*
X008263Y008053D01*
X008240Y007988D01*
X008213Y007924D01*
X008183Y007861D01*
X008149Y007800D01*
X008112Y007741D01*
X008072Y007684D01*
X008029Y007630D01*
X007982Y007578D01*
X007933Y007529D01*
X007881Y007482D01*
X007827Y007439D01*
X007770Y007399D01*
X007712Y007362D01*
X007651Y007328D01*
X007588Y007298D01*
X007524Y007271D01*
X007458Y007248D01*
X007391Y007229D01*
X007324Y007213D01*
X007255Y007201D01*
X007186Y007194D01*
X007117Y007190D01*
X007047Y007189D01*
X006978Y007193D01*
X006909Y007201D01*
X006840Y007212D01*
X006772Y007228D01*
X006705Y007247D01*
X006640Y007270D01*
X006575Y007296D01*
X006513Y007326D01*
X006452Y007360D01*
X006393Y007397D01*
X006336Y007437D01*
X006281Y007480D01*
X006229Y007526D01*
X006180Y007575D01*
X006134Y007627D01*
X006090Y007681D01*
X006097Y007687D01*
X006141Y007633D01*
X006187Y007582D01*
X006236Y007533D01*
X006287Y007487D01*
X006341Y007444D01*
X006398Y007404D01*
X006456Y007368D01*
X006517Y007334D01*
X006579Y007304D01*
X006643Y007278D01*
X006708Y007256D01*
X006774Y007237D01*
X006842Y007221D01*
X006910Y007210D01*
X006978Y007202D01*
X007047Y007198D01*
X007116Y007199D01*
X007185Y007203D01*
X007254Y007210D01*
X007322Y007222D01*
X007389Y007237D01*
X007456Y007257D01*
X007521Y007280D01*
X007584Y007306D01*
X007647Y007336D01*
X007707Y007369D01*
X007765Y007406D01*
X007822Y007446D01*
X007876Y007489D01*
X007927Y007535D01*
X007976Y007584D01*
X008022Y007636D01*
X008065Y007690D01*
X008105Y007746D01*
X008141Y007805D01*
X008175Y007865D01*
X008205Y007927D01*
X008231Y007991D01*
X008254Y008056D01*
X008273Y008123D01*
X008288Y008190D01*
X008300Y008258D01*
X008308Y008327D01*
X008312Y008395D01*
X008312Y008465D01*
X008308Y008533D01*
X008300Y008602D01*
X008288Y008670D01*
X008273Y008737D01*
X008254Y008804D01*
X008231Y008869D01*
X008205Y008933D01*
X008175Y008995D01*
X008141Y009055D01*
X008105Y009114D01*
X008065Y009170D01*
X008022Y009224D01*
X007976Y009276D01*
X007927Y009325D01*
X007876Y009371D01*
X007822Y009414D01*
X007765Y009454D01*
X007707Y009491D01*
X007647Y009524D01*
X007584Y009554D01*
X007521Y009580D01*
X007456Y009603D01*
X007389Y009623D01*
X007322Y009638D01*
X007254Y009650D01*
X007185Y009657D01*
X007116Y009661D01*
X007047Y009662D01*
X006978Y009658D01*
X006910Y009650D01*
X006842Y009639D01*
X006774Y009623D01*
X006708Y009604D01*
X006643Y009582D01*
X006579Y009556D01*
X006517Y009526D01*
X006456Y009492D01*
X006398Y009456D01*
X006341Y009416D01*
X006287Y009373D01*
X006236Y009327D01*
X006187Y009278D01*
X006141Y009227D01*
X006097Y009173D01*
X006105Y009168D01*
X006148Y009222D01*
X006194Y009273D01*
X006244Y009322D01*
X006295Y009368D01*
X006350Y009411D01*
X006407Y009451D01*
X006465Y009487D01*
X006526Y009521D01*
X006589Y009550D01*
X006653Y009576D01*
X006719Y009598D01*
X006786Y009617D01*
X006853Y009632D01*
X006922Y009643D01*
X006991Y009650D01*
X007060Y009653D01*
X007129Y009652D01*
X007199Y009647D01*
X007267Y009639D01*
X007335Y009626D01*
X007403Y009610D01*
X007469Y009589D01*
X007534Y009566D01*
X007598Y009538D01*
X007660Y009507D01*
X007720Y009472D01*
X007778Y009434D01*
X007834Y009393D01*
X007887Y009349D01*
X007938Y009302D01*
X007986Y009252D01*
X008031Y009199D01*
X008073Y009144D01*
X008112Y009087D01*
X008147Y009027D01*
X008179Y008966D01*
X008208Y008903D01*
X008233Y008838D01*
X008254Y008772D01*
X008272Y008705D01*
X008285Y008637D01*
X008295Y008568D01*
X008301Y008499D01*
X008303Y008430D01*
X008301Y008361D01*
X008295Y008292D01*
X008285Y008223D01*
X008272Y008155D01*
X008254Y008088D01*
X008233Y008022D01*
X008208Y007957D01*
X008179Y007894D01*
X008147Y007833D01*
X008112Y007773D01*
X008073Y007716D01*
X008031Y007661D01*
X007986Y007608D01*
X007938Y007558D01*
X007887Y007511D01*
X007834Y007467D01*
X007778Y007426D01*
X007720Y007388D01*
X007660Y007353D01*
X007598Y007322D01*
X007534Y007294D01*
X007469Y007271D01*
X007403Y007250D01*
X007335Y007234D01*
X007267Y007221D01*
X007199Y007213D01*
X007129Y007208D01*
X007060Y007207D01*
X006991Y007210D01*
X006922Y007217D01*
X006853Y007228D01*
X006786Y007243D01*
X006719Y007262D01*
X006653Y007284D01*
X006589Y007310D01*
X006526Y007339D01*
X006465Y007373D01*
X006407Y007409D01*
X006350Y007449D01*
X006295Y007492D01*
X006244Y007538D01*
X006194Y007587D01*
X006148Y007638D01*
X006105Y007692D01*
X006112Y007698D01*
X006155Y007644D01*
X006201Y007593D01*
X006250Y007544D01*
X006301Y007499D01*
X006355Y007456D01*
X006412Y007417D01*
X006470Y007380D01*
X006530Y007347D01*
X006593Y007318D01*
X006656Y007292D01*
X006722Y007270D01*
X006788Y007252D01*
X006855Y007237D01*
X006923Y007226D01*
X006992Y007219D01*
X007060Y007216D01*
X007129Y007217D01*
X007198Y007222D01*
X007266Y007230D01*
X007334Y007243D01*
X007400Y007259D01*
X007466Y007279D01*
X007531Y007303D01*
X007594Y007330D01*
X007655Y007361D01*
X007715Y007395D01*
X007773Y007433D01*
X007828Y007474D01*
X007881Y007518D01*
X007931Y007565D01*
X007979Y007614D01*
X008024Y007666D01*
X008066Y007721D01*
X008104Y007778D01*
X008139Y007837D01*
X008171Y007898D01*
X008200Y007961D01*
X008224Y008025D01*
X008246Y008091D01*
X008263Y008157D01*
X008276Y008225D01*
X008286Y008293D01*
X008292Y008361D01*
X008294Y008430D01*
X008292Y008499D01*
X008286Y008567D01*
X008276Y008635D01*
X008263Y008703D01*
X008246Y008769D01*
X008224Y008835D01*
X008200Y008899D01*
X008171Y008962D01*
X008139Y009023D01*
X008104Y009082D01*
X008066Y009139D01*
X008024Y009194D01*
X007979Y009246D01*
X007931Y009295D01*
X007881Y009342D01*
X007828Y009386D01*
X007773Y009427D01*
X007715Y009465D01*
X007655Y009499D01*
X007594Y009530D01*
X007531Y009557D01*
X007466Y009581D01*
X007400Y009601D01*
X007334Y009617D01*
X007266Y009630D01*
X007198Y009638D01*
X007129Y009643D01*
X007060Y009644D01*
X006992Y009641D01*
X006923Y009634D01*
X006855Y009623D01*
X006788Y009608D01*
X006722Y009590D01*
X006656Y009568D01*
X006593Y009542D01*
X006530Y009513D01*
X006470Y009480D01*
X006412Y009443D01*
X006355Y009404D01*
X006301Y009361D01*
X006250Y009316D01*
X006201Y009267D01*
X006155Y009216D01*
X006112Y009162D01*
D21*
X005160Y006180D03*
X008000Y006180D03*
D22*
X026863Y012081D02*
X027177Y012395D01*
X027177Y012238D02*
X026863Y012238D01*
X026863Y012395D02*
X027177Y012081D01*
X027020Y012081D02*
X027020Y012395D01*
M02*
