G75*
G70*
%OFA0B0*%
%FSLAX24Y24*%
%IPPOS*%
%LPD*%
%AMOC8*
5,1,8,0,0,1.08239X$1,22.5*
%
%ADD10C,0.0000*%
%ADD11C,0.0520*%
%ADD12C,0.0600*%
%ADD13OC8,0.0520*%
%ADD14R,0.0515X0.0515*%
%ADD15C,0.0740*%
%ADD16C,0.0160*%
D10*
X000180Y000180D02*
X000180Y019050D01*
X038172Y019050D01*
X038172Y000180D01*
X000180Y000180D01*
X006629Y002180D02*
X006631Y002227D01*
X006637Y002273D01*
X006647Y002319D01*
X006660Y002364D01*
X006678Y002407D01*
X006699Y002449D01*
X006723Y002489D01*
X006751Y002526D01*
X006782Y002561D01*
X006816Y002594D01*
X006852Y002623D01*
X006891Y002649D01*
X006932Y002672D01*
X006975Y002691D01*
X007019Y002707D01*
X007064Y002719D01*
X007110Y002727D01*
X007157Y002731D01*
X007203Y002731D01*
X007250Y002727D01*
X007296Y002719D01*
X007341Y002707D01*
X007385Y002691D01*
X007428Y002672D01*
X007469Y002649D01*
X007508Y002623D01*
X007544Y002594D01*
X007578Y002561D01*
X007609Y002526D01*
X007637Y002489D01*
X007661Y002449D01*
X007682Y002407D01*
X007700Y002364D01*
X007713Y002319D01*
X007723Y002273D01*
X007729Y002227D01*
X007731Y002180D01*
X007729Y002133D01*
X007723Y002087D01*
X007713Y002041D01*
X007700Y001996D01*
X007682Y001953D01*
X007661Y001911D01*
X007637Y001871D01*
X007609Y001834D01*
X007578Y001799D01*
X007544Y001766D01*
X007508Y001737D01*
X007469Y001711D01*
X007428Y001688D01*
X007385Y001669D01*
X007341Y001653D01*
X007296Y001641D01*
X007250Y001633D01*
X007203Y001629D01*
X007157Y001629D01*
X007110Y001633D01*
X007064Y001641D01*
X007019Y001653D01*
X006975Y001669D01*
X006932Y001688D01*
X006891Y001711D01*
X006852Y001737D01*
X006816Y001766D01*
X006782Y001799D01*
X006751Y001834D01*
X006723Y001871D01*
X006699Y001911D01*
X006678Y001953D01*
X006660Y001996D01*
X006647Y002041D01*
X006637Y002087D01*
X006631Y002133D01*
X006629Y002180D01*
X034129Y008680D02*
X034131Y008727D01*
X034137Y008773D01*
X034147Y008819D01*
X034160Y008864D01*
X034178Y008907D01*
X034199Y008949D01*
X034223Y008989D01*
X034251Y009026D01*
X034282Y009061D01*
X034316Y009094D01*
X034352Y009123D01*
X034391Y009149D01*
X034432Y009172D01*
X034475Y009191D01*
X034519Y009207D01*
X034564Y009219D01*
X034610Y009227D01*
X034657Y009231D01*
X034703Y009231D01*
X034750Y009227D01*
X034796Y009219D01*
X034841Y009207D01*
X034885Y009191D01*
X034928Y009172D01*
X034969Y009149D01*
X035008Y009123D01*
X035044Y009094D01*
X035078Y009061D01*
X035109Y009026D01*
X035137Y008989D01*
X035161Y008949D01*
X035182Y008907D01*
X035200Y008864D01*
X035213Y008819D01*
X035223Y008773D01*
X035229Y008727D01*
X035231Y008680D01*
X035229Y008633D01*
X035223Y008587D01*
X035213Y008541D01*
X035200Y008496D01*
X035182Y008453D01*
X035161Y008411D01*
X035137Y008371D01*
X035109Y008334D01*
X035078Y008299D01*
X035044Y008266D01*
X035008Y008237D01*
X034969Y008211D01*
X034928Y008188D01*
X034885Y008169D01*
X034841Y008153D01*
X034796Y008141D01*
X034750Y008133D01*
X034703Y008129D01*
X034657Y008129D01*
X034610Y008133D01*
X034564Y008141D01*
X034519Y008153D01*
X034475Y008169D01*
X034432Y008188D01*
X034391Y008211D01*
X034352Y008237D01*
X034316Y008266D01*
X034282Y008299D01*
X034251Y008334D01*
X034223Y008371D01*
X034199Y008411D01*
X034178Y008453D01*
X034160Y008496D01*
X034147Y008541D01*
X034137Y008587D01*
X034131Y008633D01*
X034129Y008680D01*
X028629Y017180D02*
X028631Y017227D01*
X028637Y017273D01*
X028647Y017319D01*
X028660Y017364D01*
X028678Y017407D01*
X028699Y017449D01*
X028723Y017489D01*
X028751Y017526D01*
X028782Y017561D01*
X028816Y017594D01*
X028852Y017623D01*
X028891Y017649D01*
X028932Y017672D01*
X028975Y017691D01*
X029019Y017707D01*
X029064Y017719D01*
X029110Y017727D01*
X029157Y017731D01*
X029203Y017731D01*
X029250Y017727D01*
X029296Y017719D01*
X029341Y017707D01*
X029385Y017691D01*
X029428Y017672D01*
X029469Y017649D01*
X029508Y017623D01*
X029544Y017594D01*
X029578Y017561D01*
X029609Y017526D01*
X029637Y017489D01*
X029661Y017449D01*
X029682Y017407D01*
X029700Y017364D01*
X029713Y017319D01*
X029723Y017273D01*
X029729Y017227D01*
X029731Y017180D01*
X029729Y017133D01*
X029723Y017087D01*
X029713Y017041D01*
X029700Y016996D01*
X029682Y016953D01*
X029661Y016911D01*
X029637Y016871D01*
X029609Y016834D01*
X029578Y016799D01*
X029544Y016766D01*
X029508Y016737D01*
X029469Y016711D01*
X029428Y016688D01*
X029385Y016669D01*
X029341Y016653D01*
X029296Y016641D01*
X029250Y016633D01*
X029203Y016629D01*
X029157Y016629D01*
X029110Y016633D01*
X029064Y016641D01*
X029019Y016653D01*
X028975Y016669D01*
X028932Y016688D01*
X028891Y016711D01*
X028852Y016737D01*
X028816Y016766D01*
X028782Y016799D01*
X028751Y016834D01*
X028723Y016871D01*
X028699Y016911D01*
X028678Y016953D01*
X028660Y016996D01*
X028647Y017041D01*
X028637Y017087D01*
X028631Y017133D01*
X028629Y017180D01*
X001629Y017180D02*
X001631Y017227D01*
X001637Y017273D01*
X001647Y017319D01*
X001660Y017364D01*
X001678Y017407D01*
X001699Y017449D01*
X001723Y017489D01*
X001751Y017526D01*
X001782Y017561D01*
X001816Y017594D01*
X001852Y017623D01*
X001891Y017649D01*
X001932Y017672D01*
X001975Y017691D01*
X002019Y017707D01*
X002064Y017719D01*
X002110Y017727D01*
X002157Y017731D01*
X002203Y017731D01*
X002250Y017727D01*
X002296Y017719D01*
X002341Y017707D01*
X002385Y017691D01*
X002428Y017672D01*
X002469Y017649D01*
X002508Y017623D01*
X002544Y017594D01*
X002578Y017561D01*
X002609Y017526D01*
X002637Y017489D01*
X002661Y017449D01*
X002682Y017407D01*
X002700Y017364D01*
X002713Y017319D01*
X002723Y017273D01*
X002729Y017227D01*
X002731Y017180D01*
X002729Y017133D01*
X002723Y017087D01*
X002713Y017041D01*
X002700Y016996D01*
X002682Y016953D01*
X002661Y016911D01*
X002637Y016871D01*
X002609Y016834D01*
X002578Y016799D01*
X002544Y016766D01*
X002508Y016737D01*
X002469Y016711D01*
X002428Y016688D01*
X002385Y016669D01*
X002341Y016653D01*
X002296Y016641D01*
X002250Y016633D01*
X002203Y016629D01*
X002157Y016629D01*
X002110Y016633D01*
X002064Y016641D01*
X002019Y016653D01*
X001975Y016669D01*
X001932Y016688D01*
X001891Y016711D01*
X001852Y016737D01*
X001816Y016766D01*
X001782Y016799D01*
X001751Y016834D01*
X001723Y016871D01*
X001699Y016911D01*
X001678Y016953D01*
X001660Y016996D01*
X001647Y017041D01*
X001637Y017087D01*
X001631Y017133D01*
X001629Y017180D01*
D11*
X023920Y015680D02*
X024440Y015680D01*
X024440Y014680D02*
X023920Y014680D01*
X023920Y013680D02*
X024440Y013680D01*
X024440Y012680D02*
X023920Y012680D01*
X026920Y012680D02*
X027440Y012680D01*
X027440Y013680D02*
X026920Y013680D01*
X026920Y014680D02*
X027440Y014680D01*
X027440Y015680D02*
X026920Y015680D01*
X026920Y007680D02*
X027440Y007680D01*
X027440Y006680D02*
X026920Y006680D01*
X026920Y005680D02*
X027440Y005680D01*
X027440Y004680D02*
X026920Y004680D01*
X024440Y004680D02*
X023920Y004680D01*
X023920Y005680D02*
X024440Y005680D01*
X024440Y006680D02*
X023920Y006680D01*
X023920Y007680D02*
X024440Y007680D01*
D12*
X018480Y009180D02*
X017880Y009180D01*
X017880Y010180D02*
X018480Y010180D01*
X018480Y011180D02*
X017880Y011180D01*
X002980Y012680D02*
X002380Y012680D01*
X002380Y013680D02*
X002980Y013680D01*
X002980Y014680D02*
X002380Y014680D01*
X002380Y003680D02*
X002980Y003680D01*
X002980Y002680D02*
X002380Y002680D01*
X002380Y001680D02*
X002980Y001680D01*
X035380Y002680D02*
X035980Y002680D01*
X035980Y003680D02*
X035380Y003680D01*
X035380Y004680D02*
X035980Y004680D01*
X035980Y005680D02*
X035380Y005680D01*
X035380Y013680D02*
X035980Y013680D01*
X035980Y014680D02*
X035380Y014680D01*
X035380Y015680D02*
X035980Y015680D01*
X035980Y016680D02*
X035380Y016680D01*
D13*
X030680Y014680D03*
X030680Y013680D03*
X019180Y015180D03*
X018180Y015180D03*
X009680Y014180D03*
X005680Y014180D03*
X018180Y004680D03*
X019180Y004680D03*
X030680Y005680D03*
X030680Y006680D03*
D14*
X010180Y007180D03*
X010180Y008180D03*
X010180Y009180D03*
X008180Y009180D03*
X008180Y008180D03*
X008180Y007180D03*
X004180Y006880D03*
X004180Y006080D03*
X004180Y007680D03*
D15*
X009680Y016680D03*
X010680Y016680D03*
D16*
X011230Y016680D01*
X011230Y016723D01*
X011216Y016809D01*
X011190Y016891D01*
X011150Y016968D01*
X011100Y017038D01*
X011038Y017100D01*
X010968Y017150D01*
X010891Y017190D01*
X010809Y017216D01*
X010723Y017230D01*
X010680Y017230D01*
X010680Y016680D01*
X010680Y016680D01*
X010680Y016680D01*
X011230Y016680D01*
X011230Y016637D01*
X011216Y016551D01*
X011190Y016469D01*
X011150Y016392D01*
X011100Y016322D01*
X011038Y016260D01*
X010968Y016210D01*
X010891Y016170D01*
X010809Y016144D01*
X010723Y016130D01*
X010680Y016130D01*
X010680Y016680D01*
X010680Y016680D01*
X010680Y017230D01*
X010637Y017230D01*
X010551Y017216D01*
X010469Y017190D01*
X010392Y017150D01*
X010322Y017100D01*
X010260Y017038D01*
X010210Y016968D01*
X010170Y016891D01*
X010159Y016856D01*
X010112Y016969D01*
X009969Y017112D01*
X009781Y017190D01*
X009579Y017190D01*
X009391Y017112D01*
X009248Y016969D01*
X009170Y016781D01*
X009170Y016579D01*
X009248Y016391D01*
X009391Y016248D01*
X009579Y016170D01*
X009781Y016170D01*
X009969Y016248D01*
X010112Y016391D01*
X010159Y016504D01*
X010170Y016469D01*
X010210Y016392D01*
X010260Y016322D01*
X010322Y016260D01*
X010392Y016210D01*
X010469Y016170D01*
X010551Y016144D01*
X010637Y016130D01*
X010680Y016130D01*
X010680Y016680D01*
X010680Y016664D02*
X010680Y016664D01*
X010680Y016506D02*
X010680Y016506D01*
X010680Y016347D02*
X010680Y016347D01*
X010680Y016189D02*
X010680Y016189D01*
X010927Y016189D02*
X037992Y016189D01*
X037992Y016347D02*
X036326Y016347D01*
X036346Y016367D02*
X036391Y016428D01*
X036425Y016496D01*
X036448Y016568D01*
X036460Y016642D01*
X036460Y016660D01*
X035700Y016660D01*
X035700Y016700D01*
X035660Y016700D01*
X035660Y017160D01*
X035342Y017160D01*
X035268Y017148D01*
X035196Y017125D01*
X035128Y017091D01*
X035067Y017046D01*
X035014Y016993D01*
X034969Y016932D01*
X034935Y016864D01*
X034912Y016792D01*
X034900Y016718D01*
X034900Y016700D01*
X035660Y016700D01*
X035660Y016660D01*
X035700Y016660D01*
X035700Y016200D01*
X036018Y016200D01*
X036092Y016212D01*
X036164Y016235D01*
X036232Y016269D01*
X036293Y016314D01*
X036346Y016367D01*
X036428Y016506D02*
X037992Y016506D01*
X037992Y016664D02*
X035700Y016664D01*
X035700Y016700D02*
X036460Y016700D01*
X036460Y016718D01*
X036448Y016792D01*
X036425Y016864D01*
X036391Y016932D01*
X036346Y016993D01*
X036293Y017046D01*
X036232Y017091D01*
X036164Y017125D01*
X036092Y017148D01*
X036018Y017160D01*
X035700Y017160D01*
X035700Y016700D01*
X035660Y016664D02*
X029698Y016664D01*
X029800Y016766D02*
X029911Y017035D01*
X029911Y017325D01*
X029800Y017594D01*
X029594Y017800D01*
X029325Y017911D01*
X029035Y017911D01*
X028766Y017800D01*
X028560Y017594D01*
X028449Y017325D01*
X028449Y017035D01*
X028560Y016766D01*
X028766Y016560D01*
X029035Y016449D01*
X029325Y016449D01*
X029594Y016560D01*
X029800Y016766D01*
X029823Y016823D02*
X034922Y016823D01*
X034900Y016660D02*
X034900Y016642D01*
X034912Y016568D01*
X034935Y016496D01*
X034969Y016428D01*
X035014Y016367D01*
X035067Y016314D01*
X035128Y016269D01*
X035196Y016235D01*
X035268Y016212D01*
X035342Y016200D01*
X035660Y016200D01*
X035660Y016660D01*
X034900Y016660D01*
X034932Y016506D02*
X029462Y016506D01*
X028898Y016506D02*
X011202Y016506D01*
X011230Y016664D02*
X028662Y016664D01*
X028537Y016823D02*
X011212Y016823D01*
X011141Y016981D02*
X028471Y016981D01*
X028449Y017140D02*
X010983Y017140D01*
X010680Y017140D02*
X010680Y017140D01*
X010680Y016981D02*
X010680Y016981D01*
X010680Y016823D02*
X010680Y016823D01*
X010219Y016981D02*
X010100Y016981D01*
X009903Y017140D02*
X010377Y017140D01*
X009457Y017140D02*
X002911Y017140D01*
X002911Y017035D02*
X002800Y016766D01*
X002594Y016560D01*
X002325Y016449D01*
X002035Y016449D01*
X001766Y016560D01*
X001560Y016766D01*
X001449Y017035D01*
X001449Y017325D01*
X001560Y017594D01*
X001766Y017800D01*
X002035Y017911D01*
X002325Y017911D01*
X002594Y017800D01*
X002800Y017594D01*
X002911Y017325D01*
X002911Y017035D01*
X002889Y016981D02*
X009260Y016981D01*
X009187Y016823D02*
X002823Y016823D01*
X002698Y016664D02*
X009170Y016664D01*
X009200Y016506D02*
X002462Y016506D01*
X001898Y016506D02*
X000360Y016506D01*
X000360Y016664D02*
X001662Y016664D01*
X001537Y016823D02*
X000360Y016823D01*
X000360Y016981D02*
X001471Y016981D01*
X001449Y017140D02*
X000360Y017140D01*
X000360Y017298D02*
X001449Y017298D01*
X001503Y017457D02*
X000360Y017457D01*
X000360Y017615D02*
X001581Y017615D01*
X001739Y017774D02*
X000360Y017774D01*
X000360Y017932D02*
X037992Y017932D01*
X037992Y017774D02*
X029621Y017774D01*
X029779Y017615D02*
X037992Y017615D01*
X037992Y017457D02*
X029857Y017457D01*
X029911Y017298D02*
X037992Y017298D01*
X037992Y017140D02*
X036119Y017140D01*
X036355Y016981D02*
X037992Y016981D01*
X037992Y016823D02*
X036438Y016823D01*
X035700Y016823D02*
X035660Y016823D01*
X035660Y016981D02*
X035700Y016981D01*
X035700Y017140D02*
X035660Y017140D01*
X035241Y017140D02*
X029911Y017140D01*
X029889Y016981D02*
X035005Y016981D01*
X035660Y016506D02*
X035700Y016506D01*
X035700Y016347D02*
X035660Y016347D01*
X035292Y016120D02*
X035131Y016053D01*
X035007Y015929D01*
X034940Y015768D01*
X034940Y015592D01*
X035007Y015431D01*
X035131Y015307D01*
X035292Y015240D01*
X036068Y015240D01*
X036229Y015307D01*
X036353Y015431D01*
X036420Y015592D01*
X036420Y015768D01*
X036353Y015929D01*
X036229Y016053D01*
X036068Y016120D01*
X035292Y016120D01*
X035108Y016030D02*
X027640Y016030D01*
X027667Y016019D02*
X027520Y016080D01*
X026840Y016080D01*
X026693Y016019D01*
X026581Y015907D01*
X026520Y015760D01*
X026520Y015600D01*
X026581Y015453D01*
X026693Y015341D01*
X026840Y015280D01*
X027520Y015280D01*
X027667Y015341D01*
X027779Y015453D01*
X027840Y015600D01*
X027840Y015760D01*
X027779Y015907D01*
X027667Y016019D01*
X027794Y015872D02*
X034983Y015872D01*
X034940Y015713D02*
X027840Y015713D01*
X027821Y015555D02*
X034956Y015555D01*
X035042Y015396D02*
X027722Y015396D01*
X027522Y015079D02*
X030513Y015079D01*
X030514Y015080D02*
X030280Y014846D01*
X030280Y014514D01*
X030514Y014280D01*
X030846Y014280D01*
X031080Y014514D01*
X031080Y014846D01*
X030846Y015080D01*
X030514Y015080D01*
X030355Y014921D02*
X027765Y014921D01*
X027779Y014907D02*
X027667Y015019D01*
X027520Y015080D01*
X026840Y015080D01*
X026693Y015019D01*
X026581Y014907D01*
X026520Y014760D01*
X026520Y014600D01*
X026581Y014453D01*
X026693Y014341D01*
X026840Y014280D01*
X027520Y014280D01*
X027667Y014341D01*
X027779Y014453D01*
X027840Y014600D01*
X027840Y014760D01*
X027779Y014907D01*
X027839Y014762D02*
X030280Y014762D01*
X030280Y014604D02*
X027840Y014604D01*
X027771Y014445D02*
X030349Y014445D01*
X030508Y014287D02*
X027535Y014287D01*
X027520Y014080D02*
X027667Y014019D01*
X027779Y013907D01*
X027840Y013760D01*
X027840Y013600D01*
X027779Y013453D01*
X027667Y013341D01*
X027520Y013280D01*
X026840Y013280D01*
X026693Y013341D01*
X026581Y013453D01*
X026520Y013600D01*
X026520Y013760D01*
X026581Y013907D01*
X026693Y014019D01*
X026840Y014080D01*
X027520Y014080D01*
X027716Y013970D02*
X030347Y013970D01*
X030240Y013862D02*
X030498Y014120D01*
X030680Y014120D01*
X030680Y013680D01*
X030680Y013680D01*
X031120Y013680D01*
X031120Y013862D01*
X030862Y014120D01*
X030680Y014120D01*
X030680Y013680D01*
X030680Y013680D01*
X030680Y013680D01*
X030240Y013680D01*
X030240Y013862D01*
X030240Y013811D02*
X027819Y013811D01*
X027840Y013653D02*
X030240Y013653D01*
X030240Y013680D02*
X030240Y013498D01*
X030498Y013240D01*
X030680Y013240D01*
X030862Y013240D01*
X031120Y013498D01*
X031120Y013680D01*
X030680Y013680D01*
X030680Y013240D01*
X030680Y013680D01*
X030680Y013680D01*
X030240Y013680D01*
X030244Y013494D02*
X027796Y013494D01*
X027654Y013336D02*
X030402Y013336D01*
X030680Y013336D02*
X030680Y013336D01*
X030680Y013494D02*
X030680Y013494D01*
X030680Y013653D02*
X030680Y013653D01*
X030680Y013811D02*
X030680Y013811D01*
X030680Y013970D02*
X030680Y013970D01*
X031013Y013970D02*
X035047Y013970D01*
X035007Y013929D02*
X035131Y014053D01*
X035292Y014120D01*
X036068Y014120D01*
X036229Y014053D01*
X036353Y013929D01*
X036420Y013768D01*
X036420Y013592D01*
X036353Y013431D01*
X036229Y013307D01*
X036068Y013240D01*
X035292Y013240D01*
X035131Y013307D01*
X035007Y013431D01*
X034940Y013592D01*
X034940Y013768D01*
X035007Y013929D01*
X034958Y013811D02*
X031120Y013811D01*
X031120Y013653D02*
X034940Y013653D01*
X034981Y013494D02*
X031116Y013494D01*
X030958Y013336D02*
X035102Y013336D01*
X036258Y013336D02*
X037992Y013336D01*
X037992Y013494D02*
X036379Y013494D01*
X036420Y013653D02*
X037992Y013653D01*
X037992Y013811D02*
X036402Y013811D01*
X036313Y013970D02*
X037992Y013970D01*
X037992Y014128D02*
X010080Y014128D01*
X010080Y014014D02*
X009846Y013780D01*
X009514Y013780D01*
X009280Y014014D01*
X009280Y014346D01*
X009514Y014580D01*
X009846Y014580D01*
X010080Y014346D01*
X010080Y014014D01*
X010035Y013970D02*
X023644Y013970D01*
X023693Y014019D02*
X023581Y013907D01*
X023520Y013760D01*
X023520Y013600D01*
X023581Y013453D01*
X023693Y013341D01*
X023840Y013280D01*
X024520Y013280D01*
X024667Y013341D01*
X024779Y013453D01*
X024840Y013600D01*
X024840Y013760D01*
X024779Y013907D01*
X024667Y014019D01*
X024520Y014080D01*
X023840Y014080D01*
X023693Y014019D01*
X023541Y013811D02*
X009877Y013811D01*
X009483Y013811D02*
X005877Y013811D01*
X005846Y013780D02*
X006080Y014014D01*
X006080Y014346D01*
X005846Y014580D01*
X005514Y014580D01*
X005280Y014346D01*
X005280Y014014D01*
X005514Y013780D01*
X005846Y013780D01*
X006035Y013970D02*
X009325Y013970D01*
X009280Y014128D02*
X006080Y014128D01*
X006080Y014287D02*
X009280Y014287D01*
X009379Y014445D02*
X005981Y014445D01*
X005379Y014445D02*
X003399Y014445D01*
X003391Y014428D02*
X003425Y014496D01*
X003448Y014568D01*
X003460Y014642D01*
X003460Y014660D01*
X002700Y014660D01*
X002700Y014700D01*
X002660Y014700D01*
X002660Y015160D01*
X002342Y015160D01*
X002268Y015148D01*
X002196Y015125D01*
X002128Y015091D01*
X002067Y015046D01*
X002014Y014993D01*
X001969Y014932D01*
X001935Y014864D01*
X001912Y014792D01*
X001900Y014718D01*
X001900Y014700D01*
X002660Y014700D01*
X002660Y014660D01*
X002700Y014660D01*
X002700Y014200D01*
X003018Y014200D01*
X003092Y014212D01*
X003164Y014235D01*
X003232Y014269D01*
X003293Y014314D01*
X003346Y014367D01*
X003391Y014428D01*
X003454Y014604D02*
X023487Y014604D01*
X023491Y014577D02*
X023512Y014511D01*
X023544Y014449D01*
X023584Y014393D01*
X023633Y014344D01*
X023689Y014304D01*
X023751Y014272D01*
X023817Y014251D01*
X023885Y014240D01*
X024180Y014240D01*
X024475Y014240D01*
X024543Y014251D01*
X024609Y014272D01*
X024671Y014304D01*
X024727Y014344D01*
X024776Y014393D01*
X024816Y014449D01*
X024848Y014511D01*
X024869Y014577D01*
X024880Y014645D01*
X024880Y014680D01*
X024880Y014715D01*
X024869Y014783D01*
X024848Y014849D01*
X024816Y014911D01*
X024776Y014967D01*
X024727Y015016D01*
X024671Y015056D01*
X024609Y015088D01*
X024543Y015109D01*
X024475Y015120D01*
X024180Y015120D01*
X024180Y014680D01*
X024180Y014680D01*
X024880Y014680D01*
X024180Y014680D01*
X024180Y014680D01*
X024180Y014240D01*
X024180Y014680D01*
X024180Y014680D01*
X024180Y014680D01*
X023480Y014680D01*
X023480Y014715D01*
X023491Y014783D01*
X023512Y014849D01*
X023544Y014911D01*
X023584Y014967D01*
X023633Y015016D01*
X023689Y015056D01*
X023751Y015088D01*
X023817Y015109D01*
X023885Y015120D01*
X024180Y015120D01*
X024180Y014680D01*
X023480Y014680D01*
X023480Y014645D01*
X023491Y014577D01*
X023547Y014445D02*
X009981Y014445D01*
X010080Y014287D02*
X023723Y014287D01*
X024180Y014287D02*
X024180Y014287D01*
X024180Y014445D02*
X024180Y014445D01*
X024180Y014604D02*
X024180Y014604D01*
X024180Y014762D02*
X024180Y014762D01*
X024180Y014921D02*
X024180Y014921D01*
X024180Y015079D02*
X024180Y015079D01*
X024180Y015240D02*
X023885Y015240D01*
X023817Y015251D01*
X023751Y015272D01*
X023689Y015304D01*
X023633Y015344D01*
X023584Y015393D01*
X023544Y015449D01*
X023512Y015511D01*
X023491Y015577D01*
X023480Y015645D01*
X023480Y015680D01*
X024180Y015680D01*
X024180Y015680D01*
X024180Y016120D01*
X024475Y016120D01*
X024543Y016109D01*
X024609Y016088D01*
X024671Y016056D01*
X024727Y016016D01*
X024776Y015967D01*
X024816Y015911D01*
X024848Y015849D01*
X024869Y015783D01*
X024880Y015715D01*
X024880Y015680D01*
X024180Y015680D01*
X024180Y015680D01*
X024180Y015240D01*
X024475Y015240D01*
X024543Y015251D01*
X024609Y015272D01*
X024671Y015304D01*
X024727Y015344D01*
X024776Y015393D01*
X024816Y015449D01*
X024848Y015511D01*
X024869Y015577D01*
X024880Y015645D01*
X024880Y015680D01*
X024180Y015680D01*
X024180Y015680D01*
X024180Y015680D01*
X024180Y016120D01*
X023885Y016120D01*
X023817Y016109D01*
X023751Y016088D01*
X023689Y016056D01*
X023633Y016016D01*
X023584Y015967D01*
X023544Y015911D01*
X023512Y015849D01*
X023491Y015783D01*
X023480Y015715D01*
X023480Y015680D01*
X024180Y015680D01*
X024180Y015240D01*
X024180Y015396D02*
X024180Y015396D01*
X024180Y015555D02*
X024180Y015555D01*
X024180Y015713D02*
X024180Y015713D01*
X024180Y015872D02*
X024180Y015872D01*
X024180Y016030D02*
X024180Y016030D01*
X024707Y016030D02*
X026720Y016030D01*
X026566Y015872D02*
X024836Y015872D01*
X024880Y015713D02*
X026520Y015713D01*
X026539Y015555D02*
X024862Y015555D01*
X024778Y015396D02*
X026638Y015396D01*
X026838Y015079D02*
X024626Y015079D01*
X024809Y014921D02*
X026595Y014921D01*
X026521Y014762D02*
X024872Y014762D01*
X024873Y014604D02*
X026520Y014604D01*
X026589Y014445D02*
X024813Y014445D01*
X024637Y014287D02*
X026825Y014287D01*
X026644Y013970D02*
X024716Y013970D01*
X024819Y013811D02*
X026541Y013811D01*
X026520Y013653D02*
X024840Y013653D01*
X024796Y013494D02*
X026564Y013494D01*
X026706Y013336D02*
X024654Y013336D01*
X024520Y013080D02*
X024667Y013019D01*
X024779Y012907D01*
X024840Y012760D01*
X024840Y012600D01*
X024779Y012453D01*
X024667Y012341D01*
X024520Y012280D01*
X023840Y012280D01*
X023693Y012341D01*
X023581Y012453D01*
X023520Y012600D01*
X023520Y012760D01*
X023581Y012907D01*
X023693Y013019D01*
X023840Y013080D01*
X024520Y013080D01*
X024667Y013019D02*
X026693Y013019D01*
X026581Y012907D01*
X026520Y012760D01*
X026520Y012600D01*
X026581Y012453D01*
X026693Y012341D01*
X026840Y012280D01*
X027520Y012280D01*
X027667Y012341D01*
X027779Y012453D01*
X027840Y012600D01*
X027840Y012760D01*
X027779Y012907D01*
X027667Y013019D01*
X027520Y013080D01*
X026840Y013080D01*
X026693Y013019D01*
X026562Y012860D02*
X024798Y012860D01*
X024840Y012702D02*
X026520Y012702D01*
X026544Y012543D02*
X024816Y012543D01*
X024710Y012385D02*
X026650Y012385D01*
X027710Y012385D02*
X037992Y012385D01*
X037992Y012543D02*
X027816Y012543D01*
X027840Y012702D02*
X037992Y012702D01*
X037992Y012860D02*
X027798Y012860D01*
X027667Y013019D02*
X037992Y013019D01*
X037992Y013177D02*
X000360Y013177D01*
X000360Y013019D02*
X002096Y013019D01*
X002131Y013053D02*
X002007Y012929D01*
X001940Y012768D01*
X001940Y012592D01*
X002007Y012431D01*
X002131Y012307D01*
X002292Y012240D01*
X003068Y012240D01*
X003229Y012307D01*
X003353Y012431D01*
X003420Y012592D01*
X003420Y012768D01*
X003353Y012929D01*
X003229Y013053D01*
X003068Y013120D01*
X002292Y013120D01*
X002131Y013053D01*
X001978Y012860D02*
X000360Y012860D01*
X000360Y012702D02*
X001940Y012702D01*
X001960Y012543D02*
X000360Y012543D01*
X000360Y012385D02*
X002053Y012385D01*
X003307Y012385D02*
X023650Y012385D01*
X023544Y012543D02*
X003400Y012543D01*
X003420Y012702D02*
X023520Y012702D01*
X023562Y012860D02*
X003382Y012860D01*
X003264Y013019D02*
X023693Y013019D01*
X023706Y013336D02*
X003258Y013336D01*
X003229Y013307D02*
X003353Y013431D01*
X003420Y013592D01*
X003420Y013768D01*
X003353Y013929D01*
X003229Y014053D01*
X003068Y014120D01*
X002292Y014120D01*
X002131Y014053D01*
X002007Y013929D01*
X001940Y013768D01*
X001940Y013592D01*
X002007Y013431D01*
X002131Y013307D01*
X002292Y013240D01*
X003068Y013240D01*
X003229Y013307D01*
X003379Y013494D02*
X023564Y013494D01*
X023520Y013653D02*
X003420Y013653D01*
X003402Y013811D02*
X005483Y013811D01*
X005325Y013970D02*
X003313Y013970D01*
X003255Y014287D02*
X005280Y014287D01*
X005280Y014128D02*
X000360Y014128D01*
X000360Y013970D02*
X002047Y013970D01*
X001958Y013811D02*
X000360Y013811D01*
X000360Y013653D02*
X001940Y013653D01*
X001981Y013494D02*
X000360Y013494D01*
X000360Y013336D02*
X002102Y013336D01*
X002268Y014212D02*
X002342Y014200D01*
X002660Y014200D01*
X002660Y014660D01*
X001900Y014660D01*
X001900Y014642D01*
X001912Y014568D01*
X001935Y014496D01*
X001969Y014428D01*
X002014Y014367D01*
X002067Y014314D01*
X002128Y014269D01*
X002196Y014235D01*
X002268Y014212D01*
X002105Y014287D02*
X000360Y014287D01*
X000360Y014445D02*
X001961Y014445D01*
X001906Y014604D02*
X000360Y014604D01*
X000360Y014762D02*
X001907Y014762D01*
X001964Y014921D02*
X000360Y014921D01*
X000360Y015079D02*
X002113Y015079D01*
X002660Y015079D02*
X002700Y015079D01*
X002700Y015160D02*
X002700Y014700D01*
X003460Y014700D01*
X003460Y014718D01*
X003448Y014792D01*
X003425Y014864D01*
X003391Y014932D01*
X003346Y014993D01*
X003293Y015046D01*
X003232Y015091D01*
X003164Y015125D01*
X003092Y015148D01*
X003018Y015160D01*
X002700Y015160D01*
X002700Y014921D02*
X002660Y014921D01*
X002660Y014762D02*
X002700Y014762D01*
X002700Y014604D02*
X002660Y014604D01*
X002660Y014445D02*
X002700Y014445D01*
X002700Y014287D02*
X002660Y014287D01*
X003453Y014762D02*
X018976Y014762D01*
X018998Y014740D02*
X019180Y014740D01*
X019362Y014740D01*
X019620Y014998D01*
X019620Y015180D01*
X019620Y015362D01*
X019362Y015620D01*
X019180Y015620D01*
X019180Y015180D01*
X019620Y015180D01*
X019180Y015180D01*
X019180Y015180D01*
X019180Y015180D01*
X019180Y014740D01*
X019180Y015180D01*
X019180Y015180D01*
X019180Y015180D01*
X018740Y015180D01*
X018740Y015362D01*
X018998Y015620D01*
X019180Y015620D01*
X019180Y015180D01*
X018740Y015180D01*
X018740Y014998D01*
X018998Y014740D01*
X019180Y014762D02*
X019180Y014762D01*
X019180Y014921D02*
X019180Y014921D01*
X019180Y015079D02*
X019180Y015079D01*
X019180Y015238D02*
X019180Y015238D01*
X019180Y015396D02*
X019180Y015396D01*
X019180Y015555D02*
X019180Y015555D01*
X019428Y015555D02*
X023498Y015555D01*
X023480Y015713D02*
X000360Y015713D01*
X000360Y015555D02*
X017989Y015555D01*
X018014Y015580D02*
X017780Y015346D01*
X017780Y015014D01*
X018014Y014780D01*
X018346Y014780D01*
X018580Y015014D01*
X018580Y015346D01*
X018346Y015580D01*
X018014Y015580D01*
X017830Y015396D02*
X000360Y015396D01*
X000360Y015238D02*
X017780Y015238D01*
X017780Y015079D02*
X003247Y015079D01*
X003396Y014921D02*
X017874Y014921D01*
X018486Y014921D02*
X018817Y014921D01*
X018740Y015079D02*
X018580Y015079D01*
X018580Y015238D02*
X018740Y015238D01*
X018774Y015396D02*
X018530Y015396D01*
X018371Y015555D02*
X018932Y015555D01*
X019586Y015396D02*
X023582Y015396D01*
X023734Y015079D02*
X019620Y015079D01*
X019620Y015238D02*
X037992Y015238D01*
X037992Y015396D02*
X036318Y015396D01*
X036404Y015555D02*
X037992Y015555D01*
X037992Y015713D02*
X036420Y015713D01*
X036377Y015872D02*
X037992Y015872D01*
X037992Y016030D02*
X036252Y016030D01*
X035034Y016347D02*
X011118Y016347D01*
X010433Y016189D02*
X009826Y016189D01*
X010068Y016347D02*
X010242Y016347D01*
X009534Y016189D02*
X000360Y016189D01*
X000360Y016347D02*
X009292Y016347D01*
X002911Y017298D02*
X028449Y017298D01*
X028503Y017457D02*
X002857Y017457D01*
X002779Y017615D02*
X028581Y017615D01*
X028739Y017774D02*
X002621Y017774D01*
X000360Y018091D02*
X037992Y018091D01*
X037992Y018249D02*
X000360Y018249D01*
X000360Y018408D02*
X037992Y018408D01*
X037992Y018566D02*
X000360Y018566D01*
X000360Y018725D02*
X037992Y018725D01*
X037992Y018870D02*
X037992Y000360D01*
X000360Y000360D01*
X000360Y018870D01*
X037992Y018870D01*
X036229Y015053D02*
X036068Y015120D01*
X035292Y015120D01*
X035131Y015053D01*
X035007Y014929D01*
X034940Y014768D01*
X034940Y014592D01*
X035007Y014431D01*
X035131Y014307D01*
X035292Y014240D01*
X036068Y014240D01*
X036229Y014307D01*
X036353Y014431D01*
X036420Y014592D01*
X036420Y014768D01*
X036353Y014929D01*
X036229Y015053D01*
X036166Y015079D02*
X037992Y015079D01*
X037992Y014921D02*
X036357Y014921D01*
X036420Y014762D02*
X037992Y014762D01*
X037992Y014604D02*
X036420Y014604D01*
X036359Y014445D02*
X037992Y014445D01*
X037992Y014287D02*
X036180Y014287D01*
X035180Y014287D02*
X030852Y014287D01*
X031011Y014445D02*
X035001Y014445D01*
X034940Y014604D02*
X031080Y014604D01*
X031080Y014762D02*
X034940Y014762D01*
X035003Y014921D02*
X031005Y014921D01*
X030847Y015079D02*
X035194Y015079D01*
X037992Y012226D02*
X000360Y012226D01*
X000360Y012068D02*
X037992Y012068D01*
X037992Y011909D02*
X000360Y011909D01*
X000360Y011751D02*
X037992Y011751D01*
X037992Y011592D02*
X018635Y011592D01*
X018568Y011620D02*
X018729Y011553D01*
X018853Y011429D01*
X018920Y011268D01*
X018920Y011092D01*
X018853Y010931D01*
X018729Y010807D01*
X018568Y010740D01*
X017792Y010740D01*
X017631Y010807D01*
X017507Y010931D01*
X017440Y011092D01*
X017440Y011268D01*
X017507Y011429D01*
X017631Y011553D01*
X017792Y011620D01*
X018568Y011620D01*
X018849Y011434D02*
X037992Y011434D01*
X037992Y011275D02*
X018917Y011275D01*
X018920Y011117D02*
X037992Y011117D01*
X037992Y010958D02*
X018864Y010958D01*
X018711Y010800D02*
X037992Y010800D01*
X037992Y010641D02*
X018614Y010641D01*
X018592Y010648D02*
X018664Y010625D01*
X018732Y010591D01*
X018793Y010546D01*
X018846Y010493D01*
X018891Y010432D01*
X018925Y010364D01*
X018948Y010292D01*
X018960Y010218D01*
X018960Y010200D01*
X018200Y010200D01*
X018160Y010200D01*
X018160Y010660D01*
X017842Y010660D01*
X017768Y010648D01*
X017696Y010625D01*
X017628Y010591D01*
X017567Y010546D01*
X017514Y010493D01*
X017469Y010432D01*
X017435Y010364D01*
X017412Y010292D01*
X017400Y010218D01*
X017400Y010200D01*
X018160Y010200D01*
X018160Y010160D01*
X018200Y010160D01*
X018200Y010200D01*
X018200Y010660D01*
X018518Y010660D01*
X018592Y010648D01*
X018854Y010483D02*
X037992Y010483D01*
X037992Y010324D02*
X018938Y010324D01*
X018960Y010160D02*
X018200Y010160D01*
X018200Y009700D01*
X018518Y009700D01*
X018592Y009712D01*
X018664Y009735D01*
X018732Y009769D01*
X018793Y009814D01*
X018846Y009867D01*
X018891Y009928D01*
X018925Y009996D01*
X018948Y010068D01*
X018960Y010142D01*
X018960Y010160D01*
X018928Y010007D02*
X037992Y010007D01*
X037992Y009849D02*
X018827Y009849D01*
X018729Y009553D02*
X018568Y009620D01*
X017792Y009620D01*
X017631Y009553D01*
X017507Y009429D01*
X017440Y009268D01*
X017440Y009092D01*
X017507Y008931D01*
X017631Y008807D01*
X017792Y008740D01*
X018568Y008740D01*
X018729Y008807D01*
X018853Y008931D01*
X018920Y009092D01*
X018920Y009268D01*
X018853Y009429D01*
X018729Y009553D01*
X018751Y009532D02*
X037992Y009532D01*
X037992Y009690D02*
X000360Y009690D01*
X000360Y009532D02*
X007819Y009532D01*
X007783Y009495D02*
X007783Y008865D01*
X007865Y008783D01*
X008495Y008783D01*
X008577Y008865D01*
X008577Y009495D01*
X008495Y009577D01*
X007865Y009577D01*
X007783Y009495D01*
X007783Y009373D02*
X000360Y009373D01*
X000360Y009215D02*
X007783Y009215D01*
X007783Y009056D02*
X000360Y009056D01*
X000360Y008898D02*
X007783Y008898D01*
X007865Y008577D02*
X007783Y008495D01*
X007783Y007865D01*
X007865Y007783D01*
X008495Y007783D01*
X008577Y007865D01*
X008577Y008495D01*
X008495Y008577D01*
X007865Y008577D01*
X007783Y008422D02*
X000360Y008422D01*
X000360Y008264D02*
X007783Y008264D01*
X007783Y008105D02*
X000360Y008105D01*
X000360Y007947D02*
X003783Y007947D01*
X003783Y007995D02*
X003865Y008077D01*
X004495Y008077D01*
X004577Y007995D01*
X004577Y007365D01*
X004495Y007283D01*
X003865Y007283D01*
X003783Y007365D01*
X003783Y007995D01*
X003783Y007788D02*
X000360Y007788D01*
X000360Y007630D02*
X003783Y007630D01*
X003783Y007471D02*
X000360Y007471D01*
X000360Y007313D02*
X003835Y007313D01*
X003865Y007277D02*
X003783Y007195D01*
X003783Y006565D01*
X003846Y006501D01*
X003812Y006482D01*
X003778Y006448D01*
X003755Y006407D01*
X003743Y006361D01*
X003743Y006080D01*
X003743Y005799D01*
X003755Y005753D01*
X003778Y005712D01*
X003812Y005678D01*
X003853Y005655D01*
X003899Y005643D01*
X004180Y005643D01*
X004461Y005643D01*
X004507Y005655D01*
X004548Y005678D01*
X004582Y005712D01*
X004605Y005753D01*
X004617Y005799D01*
X004617Y006080D01*
X004180Y006080D01*
X004617Y006080D01*
X004617Y006361D01*
X004605Y006407D01*
X004582Y006448D01*
X004548Y006482D01*
X004514Y006501D01*
X004577Y006565D01*
X004577Y007195D01*
X004495Y007277D01*
X003865Y007277D01*
X003783Y007154D02*
X000360Y007154D01*
X000360Y006996D02*
X003783Y006996D01*
X003783Y006837D02*
X000360Y006837D01*
X000360Y006679D02*
X003783Y006679D01*
X003827Y006520D02*
X000360Y006520D01*
X000360Y006362D02*
X003743Y006362D01*
X003743Y006203D02*
X000360Y006203D01*
X000360Y006045D02*
X003743Y006045D01*
X003743Y006080D02*
X004180Y006080D01*
X004180Y006080D01*
X004180Y006080D01*
X003743Y006080D01*
X003743Y005886D02*
X000360Y005886D01*
X000360Y005728D02*
X003770Y005728D01*
X004180Y005728D02*
X004180Y005728D01*
X004180Y005643D02*
X004180Y006080D01*
X004180Y006080D01*
X004180Y005643D01*
X004180Y005886D02*
X004180Y005886D01*
X004180Y006045D02*
X004180Y006045D01*
X004617Y006045D02*
X023755Y006045D01*
X023693Y006019D02*
X023581Y005907D01*
X023520Y005760D01*
X023520Y005600D01*
X023581Y005453D01*
X023693Y005341D01*
X023840Y005280D01*
X024520Y005280D01*
X024667Y005341D01*
X024779Y005453D01*
X024840Y005600D01*
X024840Y005760D01*
X024779Y005907D01*
X024667Y006019D01*
X024520Y006080D01*
X023840Y006080D01*
X023693Y006019D01*
X023572Y005886D02*
X004617Y005886D01*
X004590Y005728D02*
X023520Y005728D01*
X023533Y005569D02*
X000360Y005569D01*
X000360Y005411D02*
X023624Y005411D01*
X023840Y005080D02*
X023693Y005019D01*
X023581Y004907D01*
X023520Y004760D01*
X023520Y004600D01*
X023581Y004453D01*
X023693Y004341D01*
X023840Y004280D01*
X024520Y004280D01*
X024667Y004341D01*
X024779Y004453D01*
X024840Y004600D01*
X024840Y004760D01*
X024779Y004907D01*
X024667Y005019D01*
X024520Y005080D01*
X023840Y005080D01*
X023609Y004935D02*
X019547Y004935D01*
X019620Y004862D02*
X019362Y005120D01*
X019180Y005120D01*
X019180Y004680D01*
X019620Y004680D01*
X019620Y004862D01*
X019620Y004777D02*
X023527Y004777D01*
X023520Y004618D02*
X019620Y004618D01*
X019620Y004680D02*
X019620Y004498D01*
X019362Y004240D01*
X019180Y004240D01*
X019180Y004680D01*
X019180Y004680D01*
X019180Y004680D01*
X019620Y004680D01*
X019582Y004460D02*
X023578Y004460D01*
X023790Y004301D02*
X019423Y004301D01*
X019180Y004301D02*
X019180Y004301D01*
X019180Y004240D02*
X019180Y004680D01*
X019180Y004680D01*
X019180Y004680D01*
X018740Y004680D01*
X018740Y004862D01*
X018998Y005120D01*
X019180Y005120D01*
X019180Y004680D01*
X018740Y004680D01*
X018740Y004498D01*
X018998Y004240D01*
X019180Y004240D01*
X018937Y004301D02*
X018367Y004301D01*
X018346Y004280D02*
X018580Y004514D01*
X018580Y004846D01*
X018346Y005080D01*
X018014Y005080D01*
X017780Y004846D01*
X017780Y004514D01*
X018014Y004280D01*
X018346Y004280D01*
X018525Y004460D02*
X018778Y004460D01*
X018740Y004618D02*
X018580Y004618D01*
X018580Y004777D02*
X018740Y004777D01*
X018813Y004935D02*
X018491Y004935D01*
X018971Y005094D02*
X000360Y005094D01*
X000360Y005252D02*
X030486Y005252D01*
X030498Y005240D02*
X030240Y005498D01*
X030240Y005680D01*
X030680Y005680D01*
X030680Y005680D01*
X030680Y006120D01*
X030862Y006120D01*
X031120Y005862D01*
X031120Y005680D01*
X030680Y005680D01*
X030680Y005680D01*
X030680Y005680D01*
X030680Y006120D01*
X030498Y006120D01*
X030240Y005862D01*
X030240Y005680D01*
X030680Y005680D01*
X031120Y005680D01*
X031120Y005498D01*
X030862Y005240D01*
X030680Y005240D01*
X030680Y005680D01*
X030680Y005680D01*
X030680Y005240D01*
X030498Y005240D01*
X030680Y005252D02*
X030680Y005252D01*
X030680Y005411D02*
X030680Y005411D01*
X030680Y005569D02*
X030680Y005569D01*
X030680Y005728D02*
X030680Y005728D01*
X030680Y005886D02*
X030680Y005886D01*
X030680Y006045D02*
X030680Y006045D01*
X030938Y006045D02*
X035066Y006045D01*
X035067Y006046D02*
X035014Y005993D01*
X034969Y005932D01*
X034935Y005864D01*
X034912Y005792D01*
X034900Y005718D01*
X034900Y005700D01*
X035660Y005700D01*
X035660Y006160D01*
X035342Y006160D01*
X035268Y006148D01*
X035196Y006125D01*
X035128Y006091D01*
X035067Y006046D01*
X034946Y005886D02*
X031096Y005886D01*
X031120Y005728D02*
X034902Y005728D01*
X034900Y005660D02*
X034900Y005642D01*
X034912Y005568D01*
X034935Y005496D01*
X034969Y005428D01*
X035014Y005367D01*
X035067Y005314D01*
X035128Y005269D01*
X035196Y005235D01*
X035268Y005212D01*
X035342Y005200D01*
X035660Y005200D01*
X035660Y005660D01*
X035700Y005660D01*
X035700Y005700D01*
X035660Y005700D01*
X035660Y005660D01*
X034900Y005660D01*
X034912Y005569D02*
X031120Y005569D01*
X031033Y005411D02*
X034982Y005411D01*
X035163Y005252D02*
X030874Y005252D01*
X030327Y005411D02*
X027736Y005411D01*
X027779Y005453D02*
X027667Y005341D01*
X027520Y005280D01*
X026840Y005280D01*
X026693Y005341D01*
X026581Y005453D01*
X026520Y005600D01*
X026520Y005760D01*
X026581Y005907D01*
X026693Y006019D01*
X026840Y006080D01*
X027520Y006080D01*
X027667Y006019D01*
X027779Y005907D01*
X027840Y005760D01*
X027840Y005600D01*
X027779Y005453D01*
X027827Y005569D02*
X030240Y005569D01*
X030240Y005728D02*
X027840Y005728D01*
X027788Y005886D02*
X030264Y005886D01*
X030422Y006045D02*
X027605Y006045D01*
X027520Y006280D02*
X027667Y006341D01*
X027779Y006453D01*
X027840Y006600D01*
X027840Y006760D01*
X027779Y006907D01*
X027667Y007019D01*
X027520Y007080D01*
X026840Y007080D01*
X026693Y007019D01*
X026581Y006907D01*
X026520Y006760D01*
X026520Y006600D01*
X026581Y006453D01*
X026693Y006341D01*
X026840Y006280D01*
X027520Y006280D01*
X027687Y006362D02*
X030433Y006362D01*
X030514Y006280D02*
X030846Y006280D01*
X031080Y006514D01*
X031080Y006846D01*
X030846Y007080D01*
X030514Y007080D01*
X030280Y006846D01*
X030280Y006514D01*
X030514Y006280D01*
X030280Y006520D02*
X027807Y006520D01*
X027840Y006679D02*
X030280Y006679D01*
X030280Y006837D02*
X027808Y006837D01*
X027690Y006996D02*
X030430Y006996D01*
X030930Y006996D02*
X037992Y006996D01*
X037992Y007154D02*
X010577Y007154D01*
X010577Y006996D02*
X023613Y006996D01*
X023633Y007016D02*
X023584Y006967D01*
X023544Y006911D01*
X023512Y006849D01*
X023491Y006783D01*
X023480Y006715D01*
X023480Y006680D01*
X024180Y006680D01*
X024180Y006680D01*
X024180Y007120D01*
X024475Y007120D01*
X024543Y007109D01*
X024609Y007088D01*
X024671Y007056D01*
X024727Y007016D01*
X024776Y006967D01*
X024816Y006911D01*
X024848Y006849D01*
X024869Y006783D01*
X024880Y006715D01*
X024880Y006680D01*
X024180Y006680D01*
X024180Y006680D01*
X024180Y006240D01*
X024475Y006240D01*
X024543Y006251D01*
X024609Y006272D01*
X024671Y006304D01*
X024727Y006344D01*
X024776Y006393D01*
X024816Y006449D01*
X024848Y006511D01*
X024869Y006577D01*
X024880Y006645D01*
X024880Y006680D01*
X024180Y006680D01*
X024180Y006680D01*
X024180Y006680D01*
X024180Y007120D01*
X023885Y007120D01*
X023817Y007109D01*
X023751Y007088D01*
X023689Y007056D01*
X023633Y007016D01*
X023508Y006837D02*
X010550Y006837D01*
X010577Y006865D02*
X010577Y007495D01*
X010495Y007577D01*
X009865Y007577D01*
X009783Y007495D01*
X009783Y006865D01*
X009865Y006783D01*
X010495Y006783D01*
X010577Y006865D01*
X010577Y007313D02*
X023677Y007313D01*
X023689Y007304D02*
X023751Y007272D01*
X023817Y007251D01*
X023885Y007240D01*
X024180Y007240D01*
X024475Y007240D01*
X024543Y007251D01*
X024609Y007272D01*
X024671Y007304D01*
X024727Y007344D01*
X024776Y007393D01*
X024816Y007449D01*
X024848Y007511D01*
X024869Y007577D01*
X024880Y007645D01*
X024880Y007680D01*
X024880Y007715D01*
X024869Y007783D01*
X024848Y007849D01*
X024816Y007911D01*
X024776Y007967D01*
X024727Y008016D01*
X024671Y008056D01*
X024609Y008088D01*
X024543Y008109D01*
X024475Y008120D01*
X024180Y008120D01*
X024180Y007680D01*
X024180Y007680D01*
X024880Y007680D01*
X024180Y007680D01*
X024180Y007680D01*
X024180Y007240D01*
X024180Y007680D01*
X024180Y007680D01*
X024180Y007680D01*
X023480Y007680D01*
X023480Y007715D01*
X023491Y007783D01*
X023512Y007849D01*
X023544Y007911D01*
X023584Y007967D01*
X023633Y008016D01*
X023689Y008056D01*
X023751Y008088D01*
X023817Y008109D01*
X023885Y008120D01*
X024180Y008120D01*
X024180Y007680D01*
X023480Y007680D01*
X023480Y007645D01*
X023491Y007577D01*
X023512Y007511D01*
X023544Y007449D01*
X023584Y007393D01*
X023633Y007344D01*
X023689Y007304D01*
X023533Y007471D02*
X010577Y007471D01*
X010495Y007783D02*
X009865Y007783D01*
X009783Y007865D01*
X009783Y008495D01*
X009865Y008577D01*
X010495Y008577D01*
X010577Y008495D01*
X010577Y007865D01*
X010495Y007783D01*
X010501Y007788D02*
X023492Y007788D01*
X023483Y007630D02*
X004577Y007630D01*
X004577Y007788D02*
X007859Y007788D01*
X007783Y007947D02*
X004577Y007947D01*
X004577Y007471D02*
X007783Y007471D01*
X007783Y007495D02*
X007783Y006865D01*
X007865Y006783D01*
X008495Y006783D01*
X008577Y006865D01*
X008577Y007495D01*
X008495Y007577D01*
X007865Y007577D01*
X007783Y007495D01*
X007783Y007313D02*
X004525Y007313D01*
X004577Y007154D02*
X007783Y007154D01*
X007783Y006996D02*
X004577Y006996D01*
X004577Y006837D02*
X007810Y006837D01*
X008550Y006837D02*
X009810Y006837D01*
X009783Y006996D02*
X008577Y006996D01*
X008577Y007154D02*
X009783Y007154D01*
X009783Y007313D02*
X008577Y007313D01*
X008577Y007471D02*
X009783Y007471D01*
X009859Y007788D02*
X008501Y007788D01*
X008577Y007947D02*
X009783Y007947D01*
X009783Y008105D02*
X008577Y008105D01*
X008577Y008264D02*
X009783Y008264D01*
X009783Y008422D02*
X008577Y008422D01*
X008577Y008898D02*
X009783Y008898D01*
X009783Y008865D02*
X009865Y008783D01*
X010495Y008783D01*
X010577Y008865D01*
X010577Y009495D01*
X010495Y009577D01*
X009865Y009577D01*
X009783Y009495D01*
X009783Y008865D01*
X009783Y009056D02*
X008577Y009056D01*
X008577Y009215D02*
X009783Y009215D01*
X009783Y009373D02*
X008577Y009373D01*
X008541Y009532D02*
X009819Y009532D01*
X010541Y009532D02*
X017609Y009532D01*
X017484Y009373D02*
X010577Y009373D01*
X010577Y009215D02*
X017440Y009215D01*
X017455Y009056D02*
X010577Y009056D01*
X010577Y008898D02*
X017540Y008898D01*
X018820Y008898D02*
X033979Y008898D01*
X033949Y008825D02*
X033949Y008535D01*
X034060Y008266D01*
X034266Y008060D01*
X034535Y007949D01*
X034825Y007949D01*
X035094Y008060D01*
X035300Y008266D01*
X035411Y008535D01*
X035411Y008825D01*
X035300Y009094D01*
X035094Y009300D01*
X034825Y009411D01*
X034535Y009411D01*
X034266Y009300D01*
X034060Y009094D01*
X033949Y008825D01*
X033949Y008739D02*
X000360Y008739D01*
X000360Y008581D02*
X033949Y008581D01*
X033995Y008422D02*
X010577Y008422D01*
X010577Y008264D02*
X034062Y008264D01*
X034221Y008105D02*
X024556Y008105D01*
X024790Y007947D02*
X026621Y007947D01*
X026581Y007907D02*
X026693Y008019D01*
X026840Y008080D01*
X027520Y008080D01*
X027667Y008019D01*
X027779Y007907D01*
X027840Y007760D01*
X027840Y007600D01*
X027779Y007453D01*
X027667Y007341D01*
X027520Y007280D01*
X026840Y007280D01*
X026693Y007341D01*
X026581Y007453D01*
X026520Y007600D01*
X026520Y007760D01*
X026581Y007907D01*
X026532Y007788D02*
X024868Y007788D01*
X024877Y007630D02*
X026520Y007630D01*
X026574Y007471D02*
X024827Y007471D01*
X024683Y007313D02*
X026762Y007313D01*
X026670Y006996D02*
X024747Y006996D01*
X024852Y006837D02*
X026552Y006837D01*
X026520Y006679D02*
X024880Y006679D01*
X024851Y006520D02*
X026553Y006520D01*
X026673Y006362D02*
X024744Y006362D01*
X024605Y006045D02*
X026755Y006045D01*
X026572Y005886D02*
X024788Y005886D01*
X024840Y005728D02*
X026520Y005728D01*
X026533Y005569D02*
X024827Y005569D01*
X024736Y005411D02*
X026624Y005411D01*
X026840Y005080D02*
X026693Y005019D01*
X026581Y004907D01*
X026520Y004760D01*
X026520Y004600D01*
X026581Y004453D01*
X026693Y004341D01*
X026840Y004280D01*
X027520Y004280D01*
X027667Y004341D01*
X027779Y004453D01*
X027840Y004600D01*
X027840Y004760D01*
X027779Y004907D01*
X027667Y005019D01*
X027520Y005080D01*
X026840Y005080D01*
X026609Y004935D02*
X024751Y004935D01*
X024833Y004777D02*
X026527Y004777D01*
X026520Y004618D02*
X024840Y004618D01*
X024782Y004460D02*
X026578Y004460D01*
X026790Y004301D02*
X024570Y004301D01*
X027570Y004301D02*
X035145Y004301D01*
X035131Y004307D02*
X035292Y004240D01*
X036068Y004240D01*
X036229Y004307D01*
X036353Y004431D01*
X036420Y004592D01*
X036420Y004768D01*
X036353Y004929D01*
X036229Y005053D01*
X036068Y005120D01*
X035292Y005120D01*
X035131Y005053D01*
X035007Y004929D01*
X034940Y004768D01*
X034940Y004592D01*
X035007Y004431D01*
X035131Y004307D01*
X034995Y004460D02*
X027782Y004460D01*
X027840Y004618D02*
X034940Y004618D01*
X034944Y004777D02*
X027833Y004777D01*
X027751Y004935D02*
X035013Y004935D01*
X035229Y005094D02*
X019389Y005094D01*
X019180Y005094D02*
X019180Y005094D01*
X019180Y004935D02*
X019180Y004935D01*
X019180Y004777D02*
X019180Y004777D01*
X019180Y004618D02*
X019180Y004618D01*
X019180Y004460D02*
X019180Y004460D01*
X017993Y004301D02*
X000360Y004301D01*
X000360Y004143D02*
X002250Y004143D01*
X002268Y004148D02*
X002196Y004125D01*
X002128Y004091D01*
X002067Y004046D01*
X002014Y003993D01*
X001969Y003932D01*
X001935Y003864D01*
X001912Y003792D01*
X001900Y003718D01*
X001900Y003700D01*
X002660Y003700D01*
X002660Y004160D01*
X002342Y004160D01*
X002268Y004148D01*
X002008Y003984D02*
X000360Y003984D01*
X000360Y003826D02*
X001923Y003826D01*
X001900Y003660D02*
X001900Y003642D01*
X001912Y003568D01*
X001935Y003496D01*
X001969Y003428D01*
X002014Y003367D01*
X002067Y003314D01*
X002128Y003269D01*
X002196Y003235D01*
X002268Y003212D01*
X002342Y003200D01*
X002660Y003200D01*
X002660Y003660D01*
X002700Y003660D01*
X002700Y003700D01*
X002660Y003700D01*
X002660Y003660D01*
X001900Y003660D01*
X001931Y003509D02*
X000360Y003509D01*
X000360Y003667D02*
X002660Y003667D01*
X002700Y003667D02*
X034940Y003667D01*
X034940Y003592D02*
X035007Y003431D01*
X035131Y003307D01*
X035292Y003240D01*
X036068Y003240D01*
X036229Y003307D01*
X036353Y003431D01*
X036420Y003592D01*
X036420Y003768D01*
X036353Y003929D01*
X036229Y004053D01*
X036068Y004120D01*
X035292Y004120D01*
X035131Y004053D01*
X035007Y003929D01*
X034940Y003768D01*
X034940Y003592D01*
X034975Y003509D02*
X003429Y003509D01*
X003425Y003496D02*
X003448Y003568D01*
X003460Y003642D01*
X003460Y003660D01*
X002700Y003660D01*
X002700Y003200D01*
X003018Y003200D01*
X003092Y003212D01*
X003164Y003235D01*
X003232Y003269D01*
X003293Y003314D01*
X003346Y003367D01*
X003391Y003428D01*
X003425Y003496D01*
X003329Y003350D02*
X035088Y003350D01*
X035131Y003053D02*
X035292Y003120D01*
X036068Y003120D01*
X036229Y003053D01*
X036353Y002929D01*
X036420Y002768D01*
X036420Y002592D01*
X036353Y002431D01*
X036229Y002307D01*
X036068Y002240D01*
X035292Y002240D01*
X035131Y002307D01*
X035007Y002431D01*
X034940Y002592D01*
X034940Y002768D01*
X035007Y002929D01*
X035131Y003053D01*
X035111Y003033D02*
X003249Y003033D01*
X003229Y003053D02*
X003068Y003120D01*
X002292Y003120D01*
X002131Y003053D01*
X002007Y002929D01*
X001940Y002768D01*
X001940Y002592D01*
X002007Y002431D01*
X002131Y002307D01*
X002292Y002240D01*
X003068Y002240D01*
X003229Y002307D01*
X003353Y002431D01*
X003420Y002592D01*
X003420Y002768D01*
X003353Y002929D01*
X003229Y003053D01*
X003376Y002875D02*
X006946Y002875D01*
X007035Y002911D02*
X006766Y002800D01*
X006560Y002594D01*
X006449Y002325D01*
X006449Y002035D01*
X006560Y001766D01*
X006766Y001560D01*
X007035Y001449D01*
X007325Y001449D01*
X007594Y001560D01*
X007800Y001766D01*
X007911Y002035D01*
X007911Y002325D01*
X007800Y002594D01*
X007594Y002800D01*
X007325Y002911D01*
X007035Y002911D01*
X007414Y002875D02*
X034984Y002875D01*
X034940Y002716D02*
X007678Y002716D01*
X007815Y002558D02*
X034954Y002558D01*
X035039Y002399D02*
X007881Y002399D01*
X007911Y002241D02*
X035291Y002241D01*
X036069Y002241D02*
X037992Y002241D01*
X037992Y002399D02*
X036321Y002399D01*
X036406Y002558D02*
X037992Y002558D01*
X037992Y002716D02*
X036420Y002716D01*
X036376Y002875D02*
X037992Y002875D01*
X037992Y003033D02*
X036249Y003033D01*
X036272Y003350D02*
X037992Y003350D01*
X037992Y003192D02*
X000360Y003192D01*
X000360Y003350D02*
X002031Y003350D01*
X002660Y003350D02*
X002700Y003350D01*
X002700Y003509D02*
X002660Y003509D01*
X002700Y003700D02*
X003460Y003700D01*
X003460Y003718D01*
X003448Y003792D01*
X003425Y003864D01*
X003391Y003932D01*
X003346Y003993D01*
X003293Y004046D01*
X003232Y004091D01*
X003164Y004125D01*
X003092Y004148D01*
X003018Y004160D01*
X002700Y004160D01*
X002700Y003700D01*
X002700Y003826D02*
X002660Y003826D01*
X002660Y003984D02*
X002700Y003984D01*
X002700Y004143D02*
X002660Y004143D01*
X003110Y004143D02*
X037992Y004143D01*
X037992Y004301D02*
X036215Y004301D01*
X036365Y004460D02*
X037992Y004460D01*
X037992Y004618D02*
X036420Y004618D01*
X036416Y004777D02*
X037992Y004777D01*
X037992Y004935D02*
X036347Y004935D01*
X036131Y005094D02*
X037992Y005094D01*
X037992Y005252D02*
X036197Y005252D01*
X036164Y005235D02*
X036232Y005269D01*
X036293Y005314D01*
X036346Y005367D01*
X036391Y005428D01*
X036425Y005496D01*
X036448Y005568D01*
X036460Y005642D01*
X036460Y005660D01*
X035700Y005660D01*
X035700Y005200D01*
X036018Y005200D01*
X036092Y005212D01*
X036164Y005235D01*
X036378Y005411D02*
X037992Y005411D01*
X037992Y005569D02*
X036448Y005569D01*
X036460Y005700D02*
X036460Y005718D01*
X036448Y005792D01*
X036425Y005864D01*
X036391Y005932D01*
X036346Y005993D01*
X036293Y006046D01*
X036232Y006091D01*
X036164Y006125D01*
X036092Y006148D01*
X036018Y006160D01*
X035700Y006160D01*
X035700Y005700D01*
X036460Y005700D01*
X036458Y005728D02*
X037992Y005728D01*
X037992Y005886D02*
X036414Y005886D01*
X036294Y006045D02*
X037992Y006045D01*
X037992Y006203D02*
X004617Y006203D01*
X004617Y006362D02*
X023616Y006362D01*
X023633Y006344D02*
X023689Y006304D01*
X023751Y006272D01*
X023817Y006251D01*
X023885Y006240D01*
X024180Y006240D01*
X024180Y006680D01*
X023480Y006680D01*
X023480Y006645D01*
X023491Y006577D01*
X023512Y006511D01*
X023544Y006449D01*
X023584Y006393D01*
X023633Y006344D01*
X023509Y006520D02*
X004533Y006520D01*
X004577Y006679D02*
X023480Y006679D01*
X024180Y006679D02*
X024180Y006679D01*
X024180Y006837D02*
X024180Y006837D01*
X024180Y006996D02*
X024180Y006996D01*
X024180Y007313D02*
X024180Y007313D01*
X024180Y007471D02*
X024180Y007471D01*
X024180Y007630D02*
X024180Y007630D01*
X024180Y007788D02*
X024180Y007788D01*
X024180Y007947D02*
X024180Y007947D01*
X024180Y008105D02*
X024180Y008105D01*
X023804Y008105D02*
X010577Y008105D01*
X010577Y007947D02*
X023570Y007947D01*
X024180Y006520D02*
X024180Y006520D01*
X024180Y006362D02*
X024180Y006362D01*
X027598Y007313D02*
X037992Y007313D01*
X037992Y007471D02*
X027786Y007471D01*
X027840Y007630D02*
X037992Y007630D01*
X037992Y007788D02*
X027828Y007788D01*
X027739Y007947D02*
X037992Y007947D01*
X037992Y008105D02*
X035139Y008105D01*
X035298Y008264D02*
X037992Y008264D01*
X037992Y008422D02*
X035365Y008422D01*
X035411Y008581D02*
X037992Y008581D01*
X037992Y008739D02*
X035411Y008739D01*
X035381Y008898D02*
X037992Y008898D01*
X037992Y009056D02*
X035316Y009056D01*
X035180Y009215D02*
X037992Y009215D01*
X037992Y009373D02*
X034918Y009373D01*
X034442Y009373D02*
X018876Y009373D01*
X018920Y009215D02*
X034180Y009215D01*
X034044Y009056D02*
X018905Y009056D01*
X018160Y009700D02*
X017842Y009700D01*
X017768Y009712D01*
X017696Y009735D01*
X017628Y009769D01*
X017567Y009814D01*
X017514Y009867D01*
X017469Y009928D01*
X017435Y009996D01*
X017412Y010068D01*
X017400Y010142D01*
X017400Y010160D01*
X018160Y010160D01*
X018160Y009700D01*
X018160Y009849D02*
X018200Y009849D01*
X018200Y010007D02*
X018160Y010007D01*
X018160Y010166D02*
X000360Y010166D01*
X000360Y010324D02*
X017422Y010324D01*
X017506Y010483D02*
X000360Y010483D01*
X000360Y010641D02*
X017746Y010641D01*
X017649Y010800D02*
X000360Y010800D01*
X000360Y010958D02*
X017496Y010958D01*
X017440Y011117D02*
X000360Y011117D01*
X000360Y011275D02*
X017443Y011275D01*
X017511Y011434D02*
X000360Y011434D01*
X000360Y011592D02*
X017725Y011592D01*
X018160Y010641D02*
X018200Y010641D01*
X018200Y010483D02*
X018160Y010483D01*
X018160Y010324D02*
X018200Y010324D01*
X018200Y010166D02*
X037992Y010166D01*
X037992Y006837D02*
X031080Y006837D01*
X031080Y006679D02*
X037992Y006679D01*
X037992Y006520D02*
X031080Y006520D01*
X030927Y006362D02*
X037992Y006362D01*
X035700Y006045D02*
X035660Y006045D01*
X035660Y005886D02*
X035700Y005886D01*
X035700Y005728D02*
X035660Y005728D01*
X035660Y005569D02*
X035700Y005569D01*
X035700Y005411D02*
X035660Y005411D01*
X035660Y005252D02*
X035700Y005252D01*
X036298Y003984D02*
X037992Y003984D01*
X037992Y003826D02*
X036396Y003826D01*
X036420Y003667D02*
X037992Y003667D01*
X037992Y003509D02*
X036385Y003509D01*
X035062Y003984D02*
X003352Y003984D01*
X003437Y003826D02*
X034964Y003826D01*
X037992Y002082D02*
X007911Y002082D01*
X007865Y001924D02*
X037992Y001924D01*
X037992Y001765D02*
X007799Y001765D01*
X007641Y001607D02*
X037992Y001607D01*
X037992Y001448D02*
X003360Y001448D01*
X003353Y001431D02*
X003420Y001592D01*
X003420Y001768D01*
X003353Y001929D01*
X003229Y002053D01*
X003068Y002120D01*
X002292Y002120D01*
X002131Y002053D01*
X002007Y001929D01*
X001940Y001768D01*
X001940Y001592D01*
X002007Y001431D01*
X002131Y001307D01*
X002292Y001240D01*
X003068Y001240D01*
X003229Y001307D01*
X003353Y001431D01*
X003420Y001607D02*
X006719Y001607D01*
X006561Y001765D02*
X003420Y001765D01*
X003355Y001924D02*
X006495Y001924D01*
X006449Y002082D02*
X003159Y002082D01*
X003069Y002241D02*
X006449Y002241D01*
X006479Y002399D02*
X003321Y002399D01*
X003406Y002558D02*
X006545Y002558D01*
X006682Y002716D02*
X003420Y002716D01*
X002291Y002241D02*
X000360Y002241D01*
X000360Y002399D02*
X002039Y002399D01*
X001954Y002558D02*
X000360Y002558D01*
X000360Y002716D02*
X001940Y002716D01*
X001984Y002875D02*
X000360Y002875D01*
X000360Y003033D02*
X002111Y003033D01*
X002201Y002082D02*
X000360Y002082D01*
X000360Y001924D02*
X002005Y001924D01*
X001940Y001765D02*
X000360Y001765D01*
X000360Y001607D02*
X001940Y001607D01*
X002000Y001448D02*
X000360Y001448D01*
X000360Y001290D02*
X002173Y001290D01*
X003187Y001290D02*
X037992Y001290D01*
X037992Y001131D02*
X000360Y001131D01*
X000360Y000973D02*
X037992Y000973D01*
X037992Y000814D02*
X000360Y000814D01*
X000360Y000656D02*
X037992Y000656D01*
X037992Y000497D02*
X000360Y000497D01*
X000360Y004460D02*
X017835Y004460D01*
X017780Y004618D02*
X000360Y004618D01*
X000360Y004777D02*
X017780Y004777D01*
X017869Y004935D02*
X000360Y004935D01*
X000360Y009849D02*
X017533Y009849D01*
X017432Y010007D02*
X000360Y010007D01*
X000360Y015872D02*
X023524Y015872D01*
X023653Y016030D02*
X000360Y016030D01*
X019384Y014762D02*
X023488Y014762D01*
X023551Y014921D02*
X019543Y014921D01*
M02*
