%
M48
M72
T01C0.0315
T02C0.0320
T03C0.0400
T04C0.1102
%
T01
X4180Y6080
X4180Y6880
X4180Y7680
X8180Y7180
X8180Y8180
X8180Y9180
X10180Y9180
X10180Y8180
X10180Y7180
T02
X18180Y4680
X19180Y4680
X24180Y4680
X24180Y5680
X24180Y6680
X24180Y7680
X27180Y7680
X27180Y6680
X27180Y5680
X27180Y4680
X30680Y5680
X30680Y6680
X27180Y12680
X27180Y13680
X27180Y14680
X27180Y15680
X24180Y15680
X24180Y14680
X24180Y13680
X24180Y12680
X19180Y15180
X18180Y15180
X10680Y16680
X9680Y16680
X9680Y14180
X5680Y14180
X30680Y13680
X30680Y14680
T03
X2680Y1680
X2680Y2680
X2680Y3680
X18180Y9180
X18180Y10180
X18180Y11180
X2680Y12680
X2680Y13680
X2680Y14680
X35680Y14680
X35680Y13680
X35680Y15680
X35680Y16680
X35680Y5680
X35680Y4680
X35680Y3680
X35680Y2680
T04
X34680Y8680
X29180Y17180
X2180Y17180
X7180Y2180
M30
