G75*
G70*
%OFA0B0*%
%FSLAX24Y24*%
%IPPOS*%
%LPD*%
%AMOC8*
5,1,8,0,0,1.08239X$1,22.5*
%
%ADD10C,0.0000*%
%ADD11C,0.0050*%
%ADD12C,0.0040*%
%ADD13C,0.0030*%
%ADD14C,0.0060*%
%ADD15R,0.0300X0.4200*%
%ADD16R,0.0200X0.0750*%
%ADD17R,0.0200X0.0300*%
%ADD18C,0.0100*%
%ADD19C,0.0080*%
%ADD20C,0.0010*%
%ADD21R,0.0340X0.0240*%
D10*
X000180Y000180D02*
X000180Y019050D01*
X038172Y019050D01*
X038172Y000180D01*
X000180Y000180D01*
X006629Y002180D02*
X006631Y002227D01*
X006637Y002273D01*
X006647Y002319D01*
X006660Y002364D01*
X006678Y002407D01*
X006699Y002449D01*
X006723Y002489D01*
X006751Y002526D01*
X006782Y002561D01*
X006816Y002594D01*
X006852Y002623D01*
X006891Y002649D01*
X006932Y002672D01*
X006975Y002691D01*
X007019Y002707D01*
X007064Y002719D01*
X007110Y002727D01*
X007157Y002731D01*
X007203Y002731D01*
X007250Y002727D01*
X007296Y002719D01*
X007341Y002707D01*
X007385Y002691D01*
X007428Y002672D01*
X007469Y002649D01*
X007508Y002623D01*
X007544Y002594D01*
X007578Y002561D01*
X007609Y002526D01*
X007637Y002489D01*
X007661Y002449D01*
X007682Y002407D01*
X007700Y002364D01*
X007713Y002319D01*
X007723Y002273D01*
X007729Y002227D01*
X007731Y002180D01*
X007729Y002133D01*
X007723Y002087D01*
X007713Y002041D01*
X007700Y001996D01*
X007682Y001953D01*
X007661Y001911D01*
X007637Y001871D01*
X007609Y001834D01*
X007578Y001799D01*
X007544Y001766D01*
X007508Y001737D01*
X007469Y001711D01*
X007428Y001688D01*
X007385Y001669D01*
X007341Y001653D01*
X007296Y001641D01*
X007250Y001633D01*
X007203Y001629D01*
X007157Y001629D01*
X007110Y001633D01*
X007064Y001641D01*
X007019Y001653D01*
X006975Y001669D01*
X006932Y001688D01*
X006891Y001711D01*
X006852Y001737D01*
X006816Y001766D01*
X006782Y001799D01*
X006751Y001834D01*
X006723Y001871D01*
X006699Y001911D01*
X006678Y001953D01*
X006660Y001996D01*
X006647Y002041D01*
X006637Y002087D01*
X006631Y002133D01*
X006629Y002180D01*
X034129Y008680D02*
X034131Y008727D01*
X034137Y008773D01*
X034147Y008819D01*
X034160Y008864D01*
X034178Y008907D01*
X034199Y008949D01*
X034223Y008989D01*
X034251Y009026D01*
X034282Y009061D01*
X034316Y009094D01*
X034352Y009123D01*
X034391Y009149D01*
X034432Y009172D01*
X034475Y009191D01*
X034519Y009207D01*
X034564Y009219D01*
X034610Y009227D01*
X034657Y009231D01*
X034703Y009231D01*
X034750Y009227D01*
X034796Y009219D01*
X034841Y009207D01*
X034885Y009191D01*
X034928Y009172D01*
X034969Y009149D01*
X035008Y009123D01*
X035044Y009094D01*
X035078Y009061D01*
X035109Y009026D01*
X035137Y008989D01*
X035161Y008949D01*
X035182Y008907D01*
X035200Y008864D01*
X035213Y008819D01*
X035223Y008773D01*
X035229Y008727D01*
X035231Y008680D01*
X035229Y008633D01*
X035223Y008587D01*
X035213Y008541D01*
X035200Y008496D01*
X035182Y008453D01*
X035161Y008411D01*
X035137Y008371D01*
X035109Y008334D01*
X035078Y008299D01*
X035044Y008266D01*
X035008Y008237D01*
X034969Y008211D01*
X034928Y008188D01*
X034885Y008169D01*
X034841Y008153D01*
X034796Y008141D01*
X034750Y008133D01*
X034703Y008129D01*
X034657Y008129D01*
X034610Y008133D01*
X034564Y008141D01*
X034519Y008153D01*
X034475Y008169D01*
X034432Y008188D01*
X034391Y008211D01*
X034352Y008237D01*
X034316Y008266D01*
X034282Y008299D01*
X034251Y008334D01*
X034223Y008371D01*
X034199Y008411D01*
X034178Y008453D01*
X034160Y008496D01*
X034147Y008541D01*
X034137Y008587D01*
X034131Y008633D01*
X034129Y008680D01*
X028629Y017180D02*
X028631Y017227D01*
X028637Y017273D01*
X028647Y017319D01*
X028660Y017364D01*
X028678Y017407D01*
X028699Y017449D01*
X028723Y017489D01*
X028751Y017526D01*
X028782Y017561D01*
X028816Y017594D01*
X028852Y017623D01*
X028891Y017649D01*
X028932Y017672D01*
X028975Y017691D01*
X029019Y017707D01*
X029064Y017719D01*
X029110Y017727D01*
X029157Y017731D01*
X029203Y017731D01*
X029250Y017727D01*
X029296Y017719D01*
X029341Y017707D01*
X029385Y017691D01*
X029428Y017672D01*
X029469Y017649D01*
X029508Y017623D01*
X029544Y017594D01*
X029578Y017561D01*
X029609Y017526D01*
X029637Y017489D01*
X029661Y017449D01*
X029682Y017407D01*
X029700Y017364D01*
X029713Y017319D01*
X029723Y017273D01*
X029729Y017227D01*
X029731Y017180D01*
X029729Y017133D01*
X029723Y017087D01*
X029713Y017041D01*
X029700Y016996D01*
X029682Y016953D01*
X029661Y016911D01*
X029637Y016871D01*
X029609Y016834D01*
X029578Y016799D01*
X029544Y016766D01*
X029508Y016737D01*
X029469Y016711D01*
X029428Y016688D01*
X029385Y016669D01*
X029341Y016653D01*
X029296Y016641D01*
X029250Y016633D01*
X029203Y016629D01*
X029157Y016629D01*
X029110Y016633D01*
X029064Y016641D01*
X029019Y016653D01*
X028975Y016669D01*
X028932Y016688D01*
X028891Y016711D01*
X028852Y016737D01*
X028816Y016766D01*
X028782Y016799D01*
X028751Y016834D01*
X028723Y016871D01*
X028699Y016911D01*
X028678Y016953D01*
X028660Y016996D01*
X028647Y017041D01*
X028637Y017087D01*
X028631Y017133D01*
X028629Y017180D01*
X001629Y017180D02*
X001631Y017227D01*
X001637Y017273D01*
X001647Y017319D01*
X001660Y017364D01*
X001678Y017407D01*
X001699Y017449D01*
X001723Y017489D01*
X001751Y017526D01*
X001782Y017561D01*
X001816Y017594D01*
X001852Y017623D01*
X001891Y017649D01*
X001932Y017672D01*
X001975Y017691D01*
X002019Y017707D01*
X002064Y017719D01*
X002110Y017727D01*
X002157Y017731D01*
X002203Y017731D01*
X002250Y017727D01*
X002296Y017719D01*
X002341Y017707D01*
X002385Y017691D01*
X002428Y017672D01*
X002469Y017649D01*
X002508Y017623D01*
X002544Y017594D01*
X002578Y017561D01*
X002609Y017526D01*
X002637Y017489D01*
X002661Y017449D01*
X002682Y017407D01*
X002700Y017364D01*
X002713Y017319D01*
X002723Y017273D01*
X002729Y017227D01*
X002731Y017180D01*
X002729Y017133D01*
X002723Y017087D01*
X002713Y017041D01*
X002700Y016996D01*
X002682Y016953D01*
X002661Y016911D01*
X002637Y016871D01*
X002609Y016834D01*
X002578Y016799D01*
X002544Y016766D01*
X002508Y016737D01*
X002469Y016711D01*
X002428Y016688D01*
X002385Y016669D01*
X002341Y016653D01*
X002296Y016641D01*
X002250Y016633D01*
X002203Y016629D01*
X002157Y016629D01*
X002110Y016633D01*
X002064Y016641D01*
X002019Y016653D01*
X001975Y016669D01*
X001932Y016688D01*
X001891Y016711D01*
X001852Y016737D01*
X001816Y016766D01*
X001782Y016799D01*
X001751Y016834D01*
X001723Y016871D01*
X001699Y016911D01*
X001678Y016953D01*
X001660Y016996D01*
X001647Y017041D01*
X001637Y017087D01*
X001631Y017133D01*
X001629Y017180D01*
D11*
X006505Y015255D02*
X006505Y014805D01*
X006505Y014955D02*
X006730Y014955D01*
X006805Y015030D01*
X006805Y015180D01*
X006730Y015255D01*
X006505Y015255D01*
X006655Y014955D02*
X006805Y014805D01*
X006965Y014805D02*
X007266Y014805D01*
X007116Y014805D02*
X007116Y015255D01*
X006965Y015105D01*
X011455Y016915D02*
X011455Y017365D01*
X011455Y016915D02*
X011755Y016915D01*
X011915Y016915D02*
X012216Y016915D01*
X012376Y016915D02*
X012601Y016915D01*
X012676Y016990D01*
X012676Y017290D01*
X012601Y017365D01*
X012376Y017365D01*
X012376Y016915D01*
X012066Y017140D02*
X011915Y017140D01*
X011915Y017365D02*
X011915Y016915D01*
X011915Y017365D02*
X012216Y017365D01*
X012836Y017215D02*
X012986Y017365D01*
X012986Y016915D01*
X012836Y016915D02*
X013136Y016915D01*
X017805Y016180D02*
X017805Y015880D01*
X017880Y015805D01*
X018030Y015805D01*
X018105Y015880D01*
X018265Y016030D02*
X018566Y016030D01*
X018491Y015805D02*
X018491Y016255D01*
X018265Y016030D01*
X018105Y016180D02*
X018030Y016255D01*
X017880Y016255D01*
X017805Y016180D01*
X024555Y016305D02*
X024705Y016305D01*
X024630Y016305D02*
X024630Y016755D01*
X024555Y016755D02*
X024705Y016755D01*
X024862Y016680D02*
X024862Y016380D01*
X024937Y016305D01*
X025087Y016305D01*
X025162Y016380D01*
X025322Y016380D02*
X025397Y016305D01*
X025548Y016305D01*
X025623Y016380D01*
X025623Y016455D01*
X025548Y016530D01*
X025472Y016530D01*
X025548Y016530D02*
X025623Y016605D01*
X025623Y016680D01*
X025548Y016755D01*
X025397Y016755D01*
X025322Y016680D01*
X025162Y016680D02*
X025087Y016755D01*
X024937Y016755D01*
X024862Y016680D01*
X030055Y014066D02*
X030055Y013765D01*
X030055Y013916D02*
X029605Y013916D01*
X029755Y013765D01*
X029680Y013605D02*
X029605Y013530D01*
X029605Y013380D01*
X029680Y013305D01*
X029980Y013305D01*
X030055Y013380D01*
X030055Y013530D01*
X029980Y013605D01*
X034485Y013635D02*
X034935Y013635D01*
X034785Y013786D01*
X034935Y013936D01*
X034485Y013936D01*
X034485Y014096D02*
X034485Y014321D01*
X034560Y014396D01*
X034710Y014396D01*
X034785Y014321D01*
X034785Y014096D01*
X034785Y014246D02*
X034935Y014396D01*
X034860Y014556D02*
X034935Y014631D01*
X034935Y014781D01*
X034860Y014856D01*
X034560Y014856D01*
X034485Y014781D01*
X034485Y014631D01*
X034560Y014556D01*
X034860Y014556D01*
X034860Y015017D02*
X034485Y015017D01*
X034860Y015017D02*
X034935Y015092D01*
X034935Y015242D01*
X034860Y015317D01*
X034485Y015317D01*
X034485Y015477D02*
X034485Y015777D01*
X034485Y015627D02*
X034935Y015627D01*
X034935Y015937D02*
X034635Y016238D01*
X034560Y016238D01*
X034485Y016163D01*
X034485Y016012D01*
X034560Y015937D01*
X034935Y015937D02*
X034935Y016238D01*
X034935Y014096D02*
X034485Y014096D01*
X034560Y013475D02*
X034485Y013400D01*
X034485Y013175D01*
X034935Y013175D01*
X034785Y013175D02*
X034785Y013400D01*
X034710Y013475D01*
X034560Y013475D01*
X025472Y008755D02*
X025472Y008305D01*
X025322Y008305D02*
X025623Y008305D01*
X025162Y008380D02*
X025087Y008305D01*
X024937Y008305D01*
X024862Y008380D01*
X024862Y008680D01*
X024937Y008755D01*
X025087Y008755D01*
X025162Y008680D01*
X025322Y008605D02*
X025472Y008755D01*
X024705Y008755D02*
X024555Y008755D01*
X024630Y008755D02*
X024630Y008305D01*
X024555Y008305D02*
X024705Y008305D01*
X029605Y005991D02*
X029605Y005840D01*
X029680Y005765D01*
X029680Y005605D02*
X029605Y005530D01*
X029605Y005380D01*
X029680Y005305D01*
X029980Y005305D01*
X030055Y005380D01*
X030055Y005530D01*
X029980Y005605D01*
X030055Y005765D02*
X029755Y006066D01*
X029680Y006066D01*
X029605Y005991D01*
X030055Y006066D02*
X030055Y005765D01*
X034485Y004777D02*
X034485Y004477D01*
X034485Y004627D02*
X034935Y004627D01*
X034860Y004317D02*
X034485Y004317D01*
X034860Y004317D02*
X034935Y004242D01*
X034935Y004092D01*
X034860Y004017D01*
X034485Y004017D01*
X034560Y003856D02*
X034485Y003781D01*
X034485Y003631D01*
X034560Y003556D01*
X034860Y003556D01*
X034935Y003631D01*
X034935Y003781D01*
X034860Y003856D01*
X034560Y003856D01*
X034560Y003396D02*
X034485Y003321D01*
X034485Y003096D01*
X034935Y003096D01*
X034785Y003096D02*
X034785Y003321D01*
X034710Y003396D01*
X034560Y003396D01*
X034785Y003246D02*
X034935Y003396D01*
X034935Y002936D02*
X034485Y002936D01*
X034785Y002786D02*
X034935Y002936D01*
X034785Y002786D02*
X034935Y002635D01*
X034485Y002635D01*
X034560Y002475D02*
X034485Y002400D01*
X034485Y002175D01*
X034935Y002175D01*
X034785Y002175D02*
X034785Y002400D01*
X034710Y002475D01*
X034560Y002475D01*
X020348Y002010D02*
X019941Y002010D01*
X020247Y002316D01*
X020247Y001705D01*
X019741Y001705D02*
X019334Y001705D01*
X019537Y001705D02*
X019537Y002316D01*
X019334Y002112D01*
X019133Y002214D02*
X019133Y001807D01*
X019031Y001705D01*
X018828Y001705D01*
X018726Y001807D01*
X019133Y002214D01*
X019031Y002316D01*
X018828Y002316D01*
X018726Y002214D01*
X018726Y001807D01*
X018525Y001705D02*
X018118Y001705D01*
X018525Y002112D01*
X018525Y002214D01*
X018423Y002316D01*
X018220Y002316D01*
X018118Y002214D01*
X017918Y002010D02*
X017510Y002010D01*
X017310Y002010D02*
X017310Y001807D01*
X017208Y001705D01*
X017005Y001705D01*
X016903Y001807D01*
X016702Y001807D02*
X016600Y001705D01*
X016397Y001705D01*
X016295Y001807D01*
X016702Y002214D01*
X016702Y001807D01*
X016903Y002010D02*
X017106Y002112D01*
X017208Y002112D01*
X017310Y002010D01*
X017310Y002316D02*
X016903Y002316D01*
X016903Y002010D01*
X016702Y002214D02*
X016600Y002316D01*
X016397Y002316D01*
X016295Y002214D01*
X016295Y001807D01*
X015487Y001705D02*
X015080Y001705D01*
X015283Y001705D02*
X015283Y002316D01*
X015080Y002112D01*
X014271Y002112D02*
X014068Y001705D01*
X013864Y002112D01*
X013663Y002010D02*
X013663Y001909D01*
X013256Y001909D01*
X013256Y002010D02*
X013256Y001807D01*
X013358Y001705D01*
X013562Y001705D01*
X013663Y002010D02*
X013562Y002112D01*
X013358Y002112D01*
X013256Y002010D01*
X013055Y002112D02*
X012954Y002112D01*
X012750Y001909D01*
X012750Y002112D02*
X012750Y001705D01*
X011941Y002112D02*
X011839Y002112D01*
X011636Y001909D01*
X011435Y001909D02*
X011435Y002010D01*
X011333Y002112D01*
X011130Y002112D01*
X011028Y002010D01*
X011028Y001807D01*
X011130Y001705D01*
X011333Y001705D01*
X011435Y001909D02*
X011028Y001909D01*
X010827Y001807D02*
X010827Y002112D01*
X010827Y001807D02*
X010726Y001705D01*
X010624Y001807D01*
X010522Y001705D01*
X010420Y001807D01*
X010420Y002112D01*
X010220Y002010D02*
X010220Y001807D01*
X010118Y001705D01*
X009914Y001705D01*
X009813Y001807D01*
X009813Y002010D01*
X009914Y002112D01*
X010118Y002112D01*
X010220Y002010D01*
X009612Y002010D02*
X009612Y002214D01*
X009510Y002316D01*
X009205Y002316D01*
X009205Y001705D01*
X009205Y001909D02*
X009510Y001909D01*
X009612Y002010D01*
X009409Y002695D02*
X009510Y002797D01*
X009510Y003306D01*
X009409Y003306D02*
X009612Y003306D01*
X009914Y003102D02*
X010118Y003102D01*
X010220Y003000D01*
X010220Y002899D01*
X009813Y002899D01*
X009813Y003000D02*
X009813Y002797D01*
X009914Y002695D01*
X010118Y002695D01*
X010522Y002695D02*
X010522Y003204D01*
X010624Y003306D01*
X010927Y003204D02*
X011029Y003306D01*
X010927Y003204D02*
X010927Y002695D01*
X010826Y003000D02*
X011029Y003000D01*
X010624Y003000D02*
X010420Y003000D01*
X009914Y003102D02*
X009813Y003000D01*
X009409Y002695D02*
X009307Y002695D01*
X009205Y002797D01*
X009307Y003685D02*
X009205Y003787D01*
X009205Y004092D01*
X009409Y003787D02*
X009510Y003685D01*
X009612Y003787D01*
X009612Y004092D01*
X009813Y004092D02*
X009813Y003787D01*
X009914Y003685D01*
X010016Y003787D01*
X010118Y003685D01*
X010220Y003787D01*
X010220Y004092D01*
X010420Y004092D02*
X010420Y003787D01*
X010522Y003685D01*
X010624Y003787D01*
X010726Y003685D01*
X010827Y003787D01*
X010827Y004092D01*
X011332Y004092D02*
X011739Y004092D01*
X011332Y003685D01*
X011739Y003685D01*
X011940Y003685D02*
X012143Y003685D01*
X012041Y003685D02*
X012041Y004092D01*
X011940Y004092D01*
X012041Y004296D02*
X012041Y004397D01*
X012345Y004296D02*
X012345Y003685D01*
X012345Y003889D02*
X012650Y003685D01*
X012851Y003685D02*
X013258Y003685D01*
X013459Y003787D02*
X013561Y003889D01*
X013866Y003889D01*
X013866Y003990D02*
X013866Y003685D01*
X013561Y003685D01*
X013459Y003787D01*
X013764Y004092D02*
X013866Y003990D01*
X013764Y004092D02*
X013561Y004092D01*
X013258Y004092D02*
X012851Y003685D01*
X012650Y004092D02*
X012345Y003889D01*
X012851Y004092D02*
X013258Y004092D01*
X014067Y003889D02*
X014372Y004092D01*
X014067Y003889D02*
X014372Y003685D01*
X014573Y003685D02*
X014675Y003685D01*
X014675Y003787D01*
X014573Y003787D01*
X014573Y003685D01*
X014877Y003787D02*
X014877Y003990D01*
X014979Y004092D01*
X015284Y004092D01*
X015587Y004092D02*
X015790Y004092D01*
X015892Y003990D01*
X015892Y003685D01*
X015587Y003685D01*
X015485Y003787D01*
X015587Y003889D01*
X015892Y003889D01*
X015284Y003685D02*
X014979Y003685D01*
X014877Y003787D01*
X015080Y003306D02*
X015181Y003306D01*
X015181Y002695D01*
X015080Y002695D02*
X015283Y002695D01*
X015485Y002695D02*
X015688Y002695D01*
X015587Y002695D02*
X015587Y003306D01*
X015485Y003306D01*
X014879Y003000D02*
X014879Y002899D01*
X014472Y002899D01*
X014472Y003000D02*
X014472Y002797D01*
X014574Y002695D01*
X014777Y002695D01*
X014271Y002695D02*
X014271Y003000D01*
X014169Y003102D01*
X013966Y003102D01*
X013864Y003000D01*
X013663Y003102D02*
X013358Y003102D01*
X013256Y003000D01*
X013256Y002797D01*
X013358Y002695D01*
X013663Y002695D01*
X013864Y002695D02*
X013864Y003306D01*
X014472Y003000D02*
X014574Y003102D01*
X014777Y003102D01*
X014879Y003000D01*
X014067Y003685D02*
X014067Y004296D01*
X012548Y003407D02*
X012548Y003306D01*
X012548Y003102D02*
X012548Y002695D01*
X012446Y002695D02*
X012650Y002695D01*
X012953Y002797D02*
X013055Y002695D01*
X012953Y002797D02*
X012953Y003204D01*
X012851Y003102D02*
X013055Y003102D01*
X012548Y003102D02*
X012446Y003102D01*
X012245Y003306D02*
X012245Y002695D01*
X011838Y002695D02*
X011838Y003306D01*
X012042Y003102D01*
X012245Y003306D01*
X011130Y003685D02*
X011028Y003685D01*
X011028Y003787D01*
X011130Y003787D01*
X011130Y003685D01*
X011131Y004675D02*
X010724Y004675D01*
X011131Y005082D01*
X010724Y005082D01*
X010523Y005082D02*
X010218Y004879D01*
X010523Y004675D01*
X010218Y004675D02*
X010218Y005286D01*
X009914Y005286D02*
X009914Y005387D01*
X009914Y005082D02*
X009914Y004675D01*
X009813Y004675D02*
X010016Y004675D01*
X009612Y004675D02*
X009205Y004675D01*
X009205Y004777D01*
X009612Y005184D01*
X009612Y005286D01*
X009205Y005286D01*
X009813Y005082D02*
X009914Y005082D01*
X011332Y004777D02*
X011434Y004879D01*
X011739Y004879D01*
X011739Y004980D02*
X011739Y004675D01*
X011434Y004675D01*
X011332Y004777D01*
X011637Y005082D02*
X011739Y004980D01*
X011637Y005082D02*
X011434Y005082D01*
X011940Y004879D02*
X012245Y004675D01*
X011940Y004675D02*
X011940Y005286D01*
X012245Y005082D02*
X011940Y004879D01*
X011180Y006180D02*
X011180Y010180D01*
X007180Y010180D01*
X007180Y006180D01*
X011180Y006180D01*
X009409Y003787D02*
X009307Y003685D01*
X011636Y002112D02*
X011636Y001705D01*
X017805Y005380D02*
X017880Y005305D01*
X018030Y005305D01*
X018105Y005380D01*
X018265Y005380D02*
X018340Y005305D01*
X018491Y005305D01*
X018566Y005380D01*
X018566Y005455D01*
X018491Y005530D01*
X018416Y005530D01*
X018491Y005530D02*
X018566Y005605D01*
X018566Y005680D01*
X018491Y005755D01*
X018340Y005755D01*
X018265Y005680D01*
X018105Y005680D02*
X018030Y005755D01*
X017880Y005755D01*
X017805Y005680D01*
X017805Y005380D01*
X017630Y008180D02*
X018780Y008230D01*
X018880Y008330D01*
X018880Y012030D01*
X018780Y012130D01*
X017630Y012180D01*
X019160Y009273D02*
X019085Y009198D01*
X019085Y009047D01*
X019160Y008972D01*
X019160Y008812D02*
X019085Y008737D01*
X019085Y008587D01*
X019160Y008512D01*
X019460Y008512D01*
X019535Y008587D01*
X019535Y008737D01*
X019460Y008812D01*
X019535Y008972D02*
X019235Y009273D01*
X019160Y009273D01*
X019535Y009273D02*
X019535Y008972D01*
X019535Y008355D02*
X019535Y008205D01*
X019535Y008280D02*
X019085Y008280D01*
X019085Y008205D02*
X019085Y008355D01*
X018540Y008410D02*
X018542Y008430D01*
X018548Y008448D01*
X018557Y008466D01*
X018569Y008481D01*
X018584Y008493D01*
X018602Y008502D01*
X018620Y008508D01*
X018640Y008510D01*
X018660Y008508D01*
X018678Y008502D01*
X018696Y008493D01*
X018711Y008481D01*
X018723Y008466D01*
X018732Y008448D01*
X018738Y008430D01*
X018740Y008410D01*
X018738Y008390D01*
X018732Y008372D01*
X018723Y008354D01*
X018711Y008339D01*
X018696Y008327D01*
X018678Y008318D01*
X018660Y008312D01*
X018640Y008310D01*
X018620Y008312D01*
X018602Y008318D01*
X018584Y008327D01*
X018569Y008339D01*
X018557Y008354D01*
X018548Y008372D01*
X018542Y008390D01*
X018540Y008410D01*
X004680Y008180D02*
X004680Y005580D01*
X000980Y005580D01*
X000980Y008180D01*
X004680Y008180D01*
X001785Y012175D02*
X001485Y012175D01*
X001785Y012175D02*
X001935Y012325D01*
X001785Y012475D01*
X001485Y012475D01*
X001560Y012635D02*
X001485Y012710D01*
X001485Y012861D01*
X001560Y012936D01*
X001560Y013096D02*
X001860Y013096D01*
X001935Y013171D01*
X001935Y013321D01*
X001860Y013396D01*
X001935Y013556D02*
X001935Y013706D01*
X001935Y013631D02*
X001485Y013631D01*
X001485Y013556D02*
X001485Y013706D01*
X001485Y013863D02*
X001935Y014163D01*
X001485Y014163D01*
X001485Y013863D02*
X001935Y013863D01*
X001560Y013396D02*
X001485Y013321D01*
X001485Y013171D01*
X001560Y013096D01*
X001860Y012936D02*
X001935Y012861D01*
X001935Y012710D01*
X001860Y012635D01*
X001560Y012635D01*
X001485Y003163D02*
X001935Y003163D01*
X001485Y002863D01*
X001935Y002863D01*
X001935Y002706D02*
X001935Y002556D01*
X001935Y002631D02*
X001485Y002631D01*
X001485Y002556D02*
X001485Y002706D01*
X001560Y002396D02*
X001710Y002396D01*
X001785Y002321D01*
X001785Y002096D01*
X001785Y002246D02*
X001935Y002396D01*
X001560Y002396D02*
X001485Y002321D01*
X001485Y002096D01*
X001935Y002096D01*
X001935Y001936D02*
X001785Y001786D01*
X001935Y001635D01*
X001485Y001635D01*
X001560Y001475D02*
X001485Y001400D01*
X001485Y001175D01*
X001935Y001175D01*
X001785Y001175D02*
X001785Y001400D01*
X001710Y001475D01*
X001560Y001475D01*
X001485Y001936D02*
X001935Y001936D01*
D12*
X003700Y001853D02*
X003853Y001700D01*
X004007Y001853D01*
X004007Y002160D01*
X004160Y002084D02*
X004160Y001777D01*
X004237Y001700D01*
X004391Y001700D01*
X004467Y001777D01*
X004621Y001777D02*
X004698Y001700D01*
X004851Y001700D01*
X004928Y001777D01*
X005081Y001777D02*
X005158Y001700D01*
X005311Y001700D01*
X005388Y001777D01*
X005388Y002084D01*
X005311Y002160D01*
X005158Y002160D01*
X005081Y002084D01*
X005081Y002007D01*
X005158Y001930D01*
X005388Y001930D01*
X004928Y002084D02*
X004851Y002160D01*
X004698Y002160D01*
X004621Y002084D01*
X004621Y001777D01*
X004467Y002084D02*
X004391Y002160D01*
X004237Y002160D01*
X004160Y002084D01*
X003700Y002160D02*
X003700Y001853D01*
X003700Y002450D02*
X003700Y002910D01*
X004007Y002450D01*
X004007Y002910D01*
X004160Y002834D02*
X004160Y002527D01*
X004237Y002450D01*
X004391Y002450D01*
X004467Y002527D01*
X004467Y002834D02*
X004391Y002910D01*
X004237Y002910D01*
X004160Y002834D01*
X004160Y003200D02*
X004160Y003660D01*
X004467Y003200D01*
X004467Y003660D01*
X004621Y003660D02*
X004851Y003660D01*
X004928Y003584D01*
X004928Y003277D01*
X004851Y003200D01*
X004621Y003200D01*
X004621Y003660D01*
X004007Y003584D02*
X003930Y003660D01*
X003777Y003660D01*
X003700Y003584D01*
X003700Y003277D01*
X003777Y003200D01*
X003930Y003200D01*
X004007Y003277D01*
X004007Y003430D01*
X003853Y003430D01*
X005277Y005700D02*
X005430Y005700D01*
X005507Y005777D01*
X005507Y005930D01*
X005353Y005930D01*
X005200Y005777D02*
X005277Y005700D01*
X005200Y005777D02*
X005200Y006084D01*
X005277Y006160D01*
X005430Y006160D01*
X005507Y006084D01*
X005660Y006160D02*
X005967Y005700D01*
X005967Y006160D01*
X006121Y006160D02*
X006351Y006160D01*
X006428Y006084D01*
X006428Y005777D01*
X006351Y005700D01*
X006121Y005700D01*
X006121Y006160D01*
X005660Y006160D02*
X005660Y005700D01*
X005737Y006450D02*
X005891Y006450D01*
X005967Y006527D01*
X006121Y006527D02*
X006198Y006450D01*
X006351Y006450D01*
X006428Y006527D01*
X006581Y006527D02*
X006658Y006450D01*
X006811Y006450D01*
X006888Y006527D01*
X006888Y006834D01*
X006811Y006910D01*
X006658Y006910D01*
X006581Y006834D01*
X006581Y006757D01*
X006658Y006680D01*
X006888Y006680D01*
X006428Y006834D02*
X006351Y006910D01*
X006198Y006910D01*
X006121Y006834D01*
X006121Y006527D01*
X005737Y006450D02*
X005660Y006527D01*
X005660Y006834D01*
X005737Y006910D01*
X005891Y006910D01*
X005967Y006834D01*
X005507Y006910D02*
X005507Y006603D01*
X005353Y006450D01*
X005200Y006603D01*
X005200Y006910D01*
X005200Y007200D02*
X005200Y007660D01*
X005507Y007200D01*
X005507Y007660D01*
X005660Y007584D02*
X005660Y007277D01*
X005737Y007200D01*
X005891Y007200D01*
X005967Y007277D01*
X005967Y007584D02*
X005891Y007660D01*
X005737Y007660D01*
X005660Y007584D01*
X003547Y006930D02*
X003547Y006700D01*
X003547Y006930D02*
X003470Y007007D01*
X003240Y007007D01*
X003240Y006700D01*
X003086Y006700D02*
X002933Y006700D01*
X003009Y006700D02*
X003009Y007007D01*
X002933Y007007D01*
X003009Y007160D02*
X003009Y007237D01*
X002779Y007084D02*
X002779Y006930D01*
X002702Y006853D01*
X002472Y006853D01*
X002472Y006700D02*
X002472Y007160D01*
X002702Y007160D01*
X002779Y007084D01*
X002319Y007084D02*
X002242Y007160D01*
X002089Y007160D01*
X002012Y007084D01*
X002012Y006777D01*
X002089Y006700D01*
X002242Y006700D01*
X002319Y006777D01*
X002472Y006310D02*
X002626Y006310D01*
X002549Y006310D02*
X002549Y005927D01*
X002472Y005850D01*
X002396Y005850D01*
X002319Y005927D01*
X002779Y005927D02*
X002856Y005850D01*
X003009Y005850D01*
X003086Y005927D01*
X003240Y006003D02*
X003547Y006310D01*
X003240Y006310D02*
X003240Y005850D01*
X003316Y006080D02*
X003547Y005850D01*
X003086Y006234D02*
X003009Y006310D01*
X002856Y006310D01*
X002779Y006234D01*
X002779Y005927D01*
X001705Y005927D02*
X001705Y006080D01*
X001551Y006080D01*
X001398Y005927D02*
X001475Y005850D01*
X001628Y005850D01*
X001705Y005927D01*
X001398Y005927D02*
X001398Y006234D01*
X001475Y006310D01*
X001628Y006310D01*
X001705Y006234D01*
X001245Y006080D02*
X000938Y006080D01*
X001168Y006700D02*
X001321Y006700D01*
X001398Y006777D01*
X001398Y007084D01*
X001321Y007160D01*
X001168Y007160D01*
X001091Y007084D01*
X001091Y007007D01*
X001168Y006930D01*
X001398Y006930D01*
X001168Y006700D02*
X001091Y006777D01*
X000938Y006930D02*
X000631Y006930D01*
X000784Y006777D02*
X000784Y007084D01*
X001319Y007450D02*
X001549Y007450D01*
X001626Y007527D01*
X001626Y007834D01*
X001549Y007910D01*
X001319Y007910D01*
X001319Y007450D01*
X001779Y007527D02*
X001856Y007450D01*
X002009Y007450D01*
X002086Y007527D01*
X002240Y007527D02*
X002316Y007450D01*
X002470Y007450D01*
X002547Y007527D01*
X002547Y007834D01*
X002470Y007910D01*
X002316Y007910D01*
X002240Y007834D01*
X002240Y007757D01*
X002316Y007680D01*
X002547Y007680D01*
X002086Y007834D02*
X002009Y007910D01*
X001856Y007910D01*
X001779Y007834D01*
X001779Y007527D01*
X003853Y012700D02*
X004007Y012853D01*
X004007Y013160D01*
X004160Y013084D02*
X004160Y012777D01*
X004237Y012700D01*
X004391Y012700D01*
X004467Y012777D01*
X004621Y012777D02*
X004698Y012700D01*
X004851Y012700D01*
X004928Y012777D01*
X005081Y012777D02*
X005158Y012700D01*
X005311Y012700D01*
X005388Y012777D01*
X005388Y012930D01*
X005311Y013007D01*
X005235Y013007D01*
X005081Y012930D01*
X005081Y013160D01*
X005388Y013160D01*
X004928Y013084D02*
X004851Y013160D01*
X004698Y013160D01*
X004621Y013084D01*
X004621Y012777D01*
X004467Y013084D02*
X004391Y013160D01*
X004237Y013160D01*
X004160Y013084D01*
X003700Y013160D02*
X003700Y012853D01*
X003853Y012700D01*
X003700Y013450D02*
X003700Y013910D01*
X004007Y013450D01*
X004007Y013910D01*
X004160Y013834D02*
X004160Y013527D01*
X004237Y013450D01*
X004391Y013450D01*
X004467Y013527D01*
X004467Y013834D02*
X004391Y013910D01*
X004237Y013910D01*
X004160Y013834D01*
X004160Y014200D02*
X004160Y014660D01*
X004467Y014200D01*
X004467Y014660D01*
X004621Y014660D02*
X004851Y014660D01*
X004928Y014584D01*
X004928Y014277D01*
X004851Y014200D01*
X004621Y014200D01*
X004621Y014660D01*
X004007Y014584D02*
X003930Y014660D01*
X003777Y014660D01*
X003700Y014584D01*
X003700Y014277D01*
X003777Y014200D01*
X003930Y014200D01*
X004007Y014277D01*
X004007Y014430D01*
X003853Y014430D01*
X032819Y013660D02*
X032819Y013353D01*
X032972Y013200D01*
X033126Y013353D01*
X033126Y013660D01*
X033279Y013584D02*
X033279Y013277D01*
X033356Y013200D01*
X033509Y013200D01*
X033586Y013277D01*
X033740Y013277D02*
X033816Y013200D01*
X033970Y013200D01*
X034047Y013277D01*
X033740Y013277D02*
X033740Y013584D01*
X033816Y013660D01*
X033970Y013660D01*
X034047Y013584D01*
X033586Y013584D02*
X033509Y013660D01*
X033356Y013660D01*
X033279Y013584D01*
X033740Y014027D02*
X033816Y013950D01*
X033970Y013950D01*
X034047Y014027D01*
X034047Y014180D01*
X033970Y014257D01*
X033893Y014257D01*
X033740Y014180D01*
X033740Y014410D01*
X034047Y014410D01*
X033970Y014700D02*
X033816Y014700D01*
X033740Y014777D01*
X033586Y014777D02*
X033586Y014700D01*
X033509Y014700D01*
X033509Y014777D01*
X033586Y014777D01*
X033356Y014777D02*
X033279Y014700D01*
X033126Y014700D01*
X033049Y014777D01*
X033202Y014930D02*
X033279Y014930D01*
X033356Y014853D01*
X033356Y014777D01*
X033279Y014930D02*
X033356Y015007D01*
X033356Y015084D01*
X033279Y015160D01*
X033126Y015160D01*
X033049Y015084D01*
X033740Y015084D02*
X033816Y015160D01*
X033970Y015160D01*
X034047Y015084D01*
X034047Y015007D01*
X033970Y014930D01*
X034047Y014853D01*
X034047Y014777D01*
X033970Y014700D01*
X033970Y014930D02*
X033893Y014930D01*
X033970Y015450D02*
X033740Y015450D01*
X033740Y015910D01*
X033970Y015910D01*
X034047Y015834D01*
X034047Y015527D01*
X033970Y015450D01*
X033586Y015450D02*
X033586Y015910D01*
X033279Y015910D02*
X033586Y015450D01*
X033279Y015450D02*
X033279Y015910D01*
X033126Y015834D02*
X033049Y015910D01*
X032896Y015910D01*
X032819Y015834D01*
X032819Y015527D01*
X032896Y015450D01*
X033049Y015450D01*
X033126Y015527D01*
X033126Y015680D01*
X032972Y015680D01*
X032896Y004910D02*
X032819Y004834D01*
X032819Y004527D01*
X032896Y004450D01*
X033049Y004450D01*
X033126Y004527D01*
X033126Y004680D01*
X032972Y004680D01*
X033126Y004680D01*
X033126Y004527D01*
X033049Y004450D01*
X032896Y004450D01*
X032819Y004527D01*
X032819Y004834D01*
X032896Y004910D01*
X033049Y004910D01*
X033126Y004834D01*
X033049Y004910D01*
X032896Y004910D01*
X033279Y004910D02*
X033586Y004450D01*
X033586Y004910D01*
X033586Y004450D01*
X033279Y004910D01*
X033279Y004450D01*
X033279Y004910D01*
X033740Y004910D02*
X033970Y004910D01*
X034047Y004834D01*
X034047Y004527D01*
X033970Y004450D01*
X033740Y004450D01*
X033740Y004910D01*
X033970Y004910D01*
X034047Y004834D01*
X034047Y004527D01*
X033970Y004450D01*
X033740Y004450D01*
X033740Y004910D01*
X033816Y004160D02*
X033740Y004084D01*
X033816Y004160D01*
X033970Y004160D01*
X034047Y004084D01*
X034047Y004007D01*
X033970Y003930D01*
X034047Y003853D01*
X034047Y003777D01*
X033970Y003700D01*
X033816Y003700D01*
X033740Y003777D01*
X033816Y003700D01*
X033970Y003700D01*
X034047Y003777D01*
X034047Y003853D01*
X033970Y003930D01*
X033893Y003930D01*
X033970Y003930D01*
X034047Y004007D01*
X034047Y004084D01*
X033970Y004160D01*
X033816Y004160D01*
X033586Y003777D02*
X033586Y003700D01*
X033509Y003700D01*
X033509Y003777D01*
X033586Y003777D01*
X033586Y003700D01*
X033509Y003700D01*
X033509Y003777D01*
X033586Y003777D01*
X033356Y003777D02*
X033279Y003700D01*
X033126Y003700D01*
X033049Y003777D01*
X033126Y003700D01*
X033279Y003700D01*
X033356Y003777D01*
X033356Y003853D01*
X033279Y003930D01*
X033202Y003930D01*
X033279Y003930D01*
X033356Y004007D01*
X033356Y004084D01*
X033279Y004160D01*
X033126Y004160D01*
X033049Y004084D01*
X033126Y004160D01*
X033279Y004160D01*
X033356Y004084D01*
X033356Y004007D01*
X033279Y003930D01*
X033356Y003853D01*
X033356Y003777D01*
X033740Y003410D02*
X033740Y003180D01*
X033893Y003257D01*
X033970Y003257D01*
X034047Y003180D01*
X034047Y003027D01*
X033970Y002950D01*
X033816Y002950D01*
X033740Y003027D01*
X033816Y002950D01*
X033970Y002950D01*
X034047Y003027D01*
X034047Y003180D01*
X033970Y003257D01*
X033893Y003257D01*
X033740Y003180D01*
X033740Y003410D01*
X034047Y003410D01*
X033740Y003410D01*
X033816Y002660D02*
X033740Y002584D01*
X033740Y002277D01*
X033816Y002200D01*
X033970Y002200D01*
X034047Y002277D01*
X033970Y002200D01*
X033816Y002200D01*
X033740Y002277D01*
X033740Y002584D01*
X033816Y002660D01*
X033970Y002660D01*
X034047Y002584D01*
X033970Y002660D01*
X033816Y002660D01*
X033586Y002584D02*
X033509Y002660D01*
X033356Y002660D01*
X033279Y002584D01*
X033279Y002277D01*
X033356Y002200D01*
X033509Y002200D01*
X033586Y002277D01*
X033509Y002200D01*
X033356Y002200D01*
X033279Y002277D01*
X033279Y002584D01*
X033356Y002660D01*
X033509Y002660D01*
X033586Y002584D01*
X033126Y002660D02*
X033126Y002353D01*
X032972Y002200D01*
X032819Y002353D01*
X032819Y002660D01*
X032819Y002353D01*
X032972Y002200D01*
X033126Y002353D01*
X033126Y002660D01*
D13*
X005309Y009918D02*
X005185Y009795D01*
X005064Y009795D02*
X005064Y009980D01*
X005002Y010042D01*
X004878Y010042D01*
X004817Y009980D01*
X004695Y010042D02*
X004571Y010042D01*
X004633Y010104D02*
X004633Y009857D01*
X004695Y009795D01*
X004817Y009795D02*
X004817Y010165D01*
X004634Y010395D02*
X004449Y010580D01*
X004387Y010518D02*
X004634Y010765D01*
X004387Y010765D02*
X004387Y010395D01*
X004266Y010457D02*
X004204Y010395D01*
X004080Y010395D01*
X004019Y010457D01*
X004019Y010704D01*
X004080Y010765D01*
X004204Y010765D01*
X004266Y010704D01*
X003897Y010642D02*
X003897Y010395D01*
X003897Y010580D02*
X003650Y010580D01*
X003650Y010642D02*
X003774Y010765D01*
X003897Y010642D01*
X003650Y010642D02*
X003650Y010395D01*
X003467Y010457D02*
X003467Y010765D01*
X003406Y010765D02*
X003529Y010765D01*
X003467Y010457D02*
X003406Y010395D01*
X003344Y010395D01*
X003282Y010457D01*
X003161Y010765D02*
X002914Y010395D01*
X002792Y010395D02*
X002792Y010765D01*
X002545Y010765D02*
X002792Y010395D01*
X002545Y010395D02*
X002545Y010765D01*
X002423Y010765D02*
X002300Y010765D01*
X002362Y010765D02*
X002362Y010395D01*
X002423Y010395D02*
X002300Y010395D01*
X002179Y010395D02*
X002055Y010518D01*
X002117Y010518D02*
X001932Y010518D01*
X001932Y010395D02*
X001932Y010765D01*
X002117Y010765D01*
X002179Y010704D01*
X002179Y010580D01*
X002117Y010518D01*
X001810Y010395D02*
X001810Y010765D01*
X001563Y010765D02*
X001563Y010395D01*
X001687Y010518D01*
X001810Y010395D01*
X001442Y010580D02*
X001380Y010518D01*
X001195Y010518D01*
X001195Y010395D02*
X001195Y010765D01*
X001380Y010765D01*
X001442Y010704D01*
X001442Y010580D01*
X001380Y010042D02*
X001257Y010042D01*
X001195Y009980D01*
X001195Y009857D01*
X001257Y009795D01*
X001380Y009795D01*
X001442Y009857D01*
X001442Y009980D01*
X001380Y010042D01*
X001563Y010042D02*
X001563Y009795D01*
X001563Y009918D02*
X001687Y010042D01*
X001748Y010042D01*
X002239Y010042D02*
X002362Y010165D01*
X002484Y010042D02*
X002669Y010042D01*
X002731Y009980D01*
X002731Y009795D01*
X002852Y009857D02*
X002914Y009795D01*
X003038Y009795D01*
X003099Y009857D01*
X003099Y009980D01*
X003038Y010042D01*
X002914Y010042D01*
X002852Y009980D01*
X002852Y009857D01*
X002792Y009565D02*
X002792Y009195D01*
X002545Y009565D01*
X002545Y009195D01*
X002423Y009195D02*
X002300Y009195D01*
X002362Y009195D02*
X002362Y009565D01*
X002423Y009565D02*
X002300Y009565D01*
X002179Y009504D02*
X002117Y009565D01*
X001993Y009565D01*
X001932Y009504D01*
X001932Y009257D01*
X001993Y009195D01*
X002117Y009195D01*
X002179Y009257D01*
X001810Y009257D02*
X001748Y009195D01*
X001625Y009195D01*
X001563Y009257D01*
X001563Y009504D01*
X001625Y009565D01*
X001748Y009565D01*
X001810Y009504D01*
X001442Y009565D02*
X001442Y009318D01*
X001318Y009195D01*
X001195Y009318D01*
X001195Y009565D01*
X002239Y009918D02*
X002239Y010042D01*
X002239Y009918D02*
X002362Y009795D01*
X002484Y009795D02*
X002484Y010042D01*
X003221Y010042D02*
X003344Y010042D01*
X003282Y010104D02*
X003282Y009857D01*
X003344Y009795D01*
X003835Y009795D02*
X004020Y009795D01*
X004081Y009857D01*
X004081Y009980D01*
X004020Y010042D01*
X003835Y010042D01*
X003835Y010165D02*
X003835Y009795D01*
X004203Y009857D02*
X004203Y009980D01*
X004265Y010042D01*
X004388Y010042D01*
X004450Y009980D01*
X004450Y009857D01*
X004388Y009795D01*
X004265Y009795D01*
X004203Y009857D01*
X005185Y010165D02*
X005309Y010042D01*
X005309Y009918D01*
D14*
X002930Y012180D02*
X002430Y012180D01*
X002180Y012430D01*
X002180Y012930D01*
X002430Y013180D01*
X002180Y013430D01*
X002180Y013930D01*
X002430Y014180D01*
X002180Y014430D01*
X002180Y014930D01*
X002430Y015180D01*
X002930Y015180D01*
X003180Y014930D01*
X003180Y014430D01*
X002930Y014180D01*
X003180Y013930D01*
X003180Y013430D01*
X002930Y013180D01*
X003180Y012930D01*
X003180Y012430D01*
X002930Y012180D01*
X002930Y013180D02*
X002430Y013180D01*
X002430Y014180D02*
X002930Y014180D01*
X006430Y013830D02*
X006430Y014530D01*
X006432Y014547D01*
X006436Y014564D01*
X006443Y014580D01*
X006453Y014594D01*
X006466Y014607D01*
X006480Y014617D01*
X006496Y014624D01*
X006513Y014628D01*
X006530Y014630D01*
X006680Y014630D01*
X006730Y014580D01*
X008630Y014580D01*
X008680Y014630D01*
X008830Y014630D01*
X008847Y014628D01*
X008864Y014624D01*
X008880Y014617D01*
X008894Y014607D01*
X008907Y014594D01*
X008917Y014580D01*
X008924Y014564D01*
X008928Y014547D01*
X008930Y014530D01*
X008930Y013830D01*
X008928Y013813D01*
X008924Y013796D01*
X008917Y013780D01*
X008907Y013766D01*
X008894Y013753D01*
X008880Y013743D01*
X008864Y013736D01*
X008847Y013732D01*
X008830Y013730D01*
X008680Y013730D01*
X008630Y013780D01*
X006730Y013780D01*
X006680Y013730D01*
X006530Y013730D01*
X006513Y013732D01*
X006496Y013736D01*
X006480Y013743D01*
X006466Y013753D01*
X006453Y013766D01*
X006443Y013780D01*
X006436Y013796D01*
X006432Y013813D01*
X006430Y013830D01*
X009180Y016680D02*
X009182Y016743D01*
X009188Y016805D01*
X009198Y016867D01*
X009211Y016929D01*
X009229Y016989D01*
X009250Y017048D01*
X009275Y017106D01*
X009304Y017162D01*
X009336Y017216D01*
X009371Y017268D01*
X009409Y017317D01*
X009451Y017365D01*
X009495Y017409D01*
X009543Y017451D01*
X009592Y017489D01*
X009644Y017524D01*
X009698Y017556D01*
X009754Y017585D01*
X009812Y017610D01*
X009871Y017631D01*
X009931Y017649D01*
X009993Y017662D01*
X010055Y017672D01*
X010117Y017678D01*
X010180Y017680D01*
X010243Y017678D01*
X010305Y017672D01*
X010367Y017662D01*
X010429Y017649D01*
X010489Y017631D01*
X010548Y017610D01*
X010606Y017585D01*
X010662Y017556D01*
X010716Y017524D01*
X010768Y017489D01*
X010817Y017451D01*
X010865Y017409D01*
X010909Y017365D01*
X010951Y017317D01*
X010989Y017268D01*
X011024Y017216D01*
X011056Y017162D01*
X011085Y017106D01*
X011110Y017048D01*
X011131Y016989D01*
X011149Y016929D01*
X011162Y016867D01*
X011172Y016805D01*
X011178Y016743D01*
X011180Y016680D01*
X011178Y016617D01*
X011172Y016555D01*
X011162Y016493D01*
X011149Y016431D01*
X011131Y016371D01*
X011110Y016312D01*
X011085Y016254D01*
X011056Y016198D01*
X011024Y016144D01*
X010989Y016092D01*
X010951Y016043D01*
X010909Y015995D01*
X010865Y015951D01*
X010817Y015909D01*
X010768Y015871D01*
X010716Y015836D01*
X010662Y015804D01*
X010606Y015775D01*
X010548Y015750D01*
X010489Y015729D01*
X010429Y015711D01*
X010367Y015698D01*
X010305Y015688D01*
X010243Y015682D01*
X010180Y015680D01*
X010117Y015682D01*
X010055Y015688D01*
X009993Y015698D01*
X009931Y015711D01*
X009871Y015729D01*
X009812Y015750D01*
X009754Y015775D01*
X009698Y015804D01*
X009644Y015836D01*
X009592Y015871D01*
X009543Y015909D01*
X009495Y015951D01*
X009451Y015995D01*
X009409Y016043D01*
X009371Y016092D01*
X009336Y016144D01*
X009304Y016198D01*
X009275Y016254D01*
X009250Y016312D01*
X009229Y016371D01*
X009211Y016431D01*
X009198Y016493D01*
X009188Y016555D01*
X009182Y016617D01*
X009180Y016680D01*
X017730Y015580D02*
X017730Y014780D01*
X017732Y014763D01*
X017736Y014746D01*
X017743Y014730D01*
X017753Y014716D01*
X017766Y014703D01*
X017780Y014693D01*
X017796Y014686D01*
X017813Y014682D01*
X017830Y014680D01*
X019530Y014680D01*
X019547Y014682D01*
X019564Y014686D01*
X019580Y014693D01*
X019594Y014703D01*
X019607Y014716D01*
X019617Y014730D01*
X019624Y014746D01*
X019628Y014763D01*
X019630Y014780D01*
X019630Y015580D01*
X019628Y015597D01*
X019624Y015614D01*
X019617Y015630D01*
X019607Y015644D01*
X019594Y015657D01*
X019580Y015667D01*
X019564Y015674D01*
X019547Y015678D01*
X019530Y015680D01*
X017830Y015680D01*
X017813Y015678D01*
X017796Y015674D01*
X017780Y015667D01*
X017766Y015657D01*
X017753Y015644D01*
X017743Y015630D01*
X017736Y015614D01*
X017732Y015597D01*
X017730Y015580D01*
X018530Y015180D02*
X018580Y015180D01*
X018780Y015180D02*
X018830Y015180D01*
X024530Y016180D02*
X025280Y016180D01*
X025282Y016141D01*
X025288Y016102D01*
X025297Y016064D01*
X025310Y016027D01*
X025327Y015991D01*
X025347Y015958D01*
X025371Y015926D01*
X025397Y015897D01*
X025426Y015871D01*
X025458Y015847D01*
X025491Y015827D01*
X025527Y015810D01*
X025564Y015797D01*
X025602Y015788D01*
X025641Y015782D01*
X025680Y015780D01*
X025719Y015782D01*
X025758Y015788D01*
X025796Y015797D01*
X025833Y015810D01*
X025869Y015827D01*
X025902Y015847D01*
X025934Y015871D01*
X025963Y015897D01*
X025989Y015926D01*
X026013Y015958D01*
X026033Y015991D01*
X026050Y016027D01*
X026063Y016064D01*
X026072Y016102D01*
X026078Y016141D01*
X026080Y016180D01*
X026830Y016180D01*
X026830Y012180D01*
X024530Y012180D01*
X024530Y016180D01*
X030180Y015030D02*
X030180Y013330D01*
X030182Y013313D01*
X030186Y013296D01*
X030193Y013280D01*
X030203Y013266D01*
X030216Y013253D01*
X030230Y013243D01*
X030246Y013236D01*
X030263Y013232D01*
X030280Y013230D01*
X031080Y013230D01*
X031097Y013232D01*
X031114Y013236D01*
X031130Y013243D01*
X031144Y013253D01*
X031157Y013266D01*
X031167Y013280D01*
X031174Y013296D01*
X031178Y013313D01*
X031180Y013330D01*
X031180Y015030D01*
X031178Y015047D01*
X031174Y015064D01*
X031167Y015080D01*
X031157Y015094D01*
X031144Y015107D01*
X031130Y015117D01*
X031114Y015124D01*
X031097Y015128D01*
X031080Y015130D01*
X030280Y015130D01*
X030263Y015128D01*
X030246Y015124D01*
X030230Y015117D01*
X030216Y015107D01*
X030203Y015094D01*
X030193Y015080D01*
X030186Y015064D01*
X030182Y015047D01*
X030180Y015030D01*
X030680Y014330D02*
X030680Y014280D01*
X030680Y014080D02*
X030680Y014030D01*
X035180Y013930D02*
X035180Y013430D01*
X035430Y013180D01*
X035930Y013180D01*
X036180Y013430D01*
X036180Y013930D01*
X035930Y014180D01*
X036180Y014430D01*
X036180Y014930D01*
X035930Y015180D01*
X035430Y015180D01*
X035180Y014930D01*
X035180Y014430D01*
X035430Y014180D01*
X035930Y014180D01*
X035430Y014180D02*
X035180Y013930D01*
X035430Y015180D02*
X035180Y015430D01*
X035180Y015930D01*
X035430Y016180D01*
X035180Y016430D01*
X035180Y016930D01*
X035430Y017180D01*
X035930Y017180D01*
X036180Y016930D01*
X036180Y016430D01*
X035930Y016180D01*
X036180Y015930D01*
X036180Y015430D01*
X035930Y015180D01*
X035930Y016180D02*
X035430Y016180D01*
X026830Y008180D02*
X026080Y008180D01*
X026078Y008141D01*
X026072Y008102D01*
X026063Y008064D01*
X026050Y008027D01*
X026033Y007991D01*
X026013Y007958D01*
X025989Y007926D01*
X025963Y007897D01*
X025934Y007871D01*
X025902Y007847D01*
X025869Y007827D01*
X025833Y007810D01*
X025796Y007797D01*
X025758Y007788D01*
X025719Y007782D01*
X025680Y007780D01*
X025641Y007782D01*
X025602Y007788D01*
X025564Y007797D01*
X025527Y007810D01*
X025491Y007827D01*
X025458Y007847D01*
X025426Y007871D01*
X025397Y007897D01*
X025371Y007926D01*
X025347Y007958D01*
X025327Y007991D01*
X025310Y008027D01*
X025297Y008064D01*
X025288Y008102D01*
X025282Y008141D01*
X025280Y008180D01*
X024530Y008180D01*
X024530Y004180D01*
X026830Y004180D01*
X026830Y008180D01*
X030180Y007030D02*
X030180Y005330D01*
X030182Y005313D01*
X030186Y005296D01*
X030193Y005280D01*
X030203Y005266D01*
X030216Y005253D01*
X030230Y005243D01*
X030246Y005236D01*
X030263Y005232D01*
X030280Y005230D01*
X031080Y005230D01*
X031097Y005232D01*
X031114Y005236D01*
X031130Y005243D01*
X031144Y005253D01*
X031157Y005266D01*
X031167Y005280D01*
X031174Y005296D01*
X031178Y005313D01*
X031180Y005330D01*
X031180Y007030D01*
X031178Y007047D01*
X031174Y007064D01*
X031167Y007080D01*
X031157Y007094D01*
X031144Y007107D01*
X031130Y007117D01*
X031114Y007124D01*
X031097Y007128D01*
X031080Y007130D01*
X030280Y007130D01*
X030263Y007128D01*
X030246Y007124D01*
X030230Y007117D01*
X030216Y007107D01*
X030203Y007094D01*
X030193Y007080D01*
X030186Y007064D01*
X030182Y007047D01*
X030180Y007030D01*
X030680Y006330D02*
X030680Y006280D01*
X030680Y006080D02*
X030680Y006030D01*
X035180Y005930D02*
X035180Y005430D01*
X035430Y005180D01*
X035930Y005180D01*
X036180Y005430D01*
X036180Y005930D01*
X035930Y006180D01*
X035430Y006180D01*
X035180Y005930D01*
X035430Y005180D02*
X035180Y004930D01*
X035180Y004430D01*
X035430Y004180D01*
X035930Y004180D01*
X036180Y003930D01*
X036180Y003430D01*
X035930Y003180D01*
X036180Y002930D01*
X036180Y002430D01*
X035930Y002180D01*
X035430Y002180D01*
X035180Y002430D01*
X035180Y002930D01*
X035430Y003180D01*
X035180Y003430D01*
X035180Y003930D01*
X035430Y004180D01*
X035930Y004180D02*
X036180Y004430D01*
X036180Y004930D01*
X035930Y005180D01*
X035930Y003180D02*
X035430Y003180D01*
X019630Y004280D02*
X019630Y005080D01*
X019628Y005097D01*
X019624Y005114D01*
X019617Y005130D01*
X019607Y005144D01*
X019594Y005157D01*
X019580Y005167D01*
X019564Y005174D01*
X019547Y005178D01*
X019530Y005180D01*
X017830Y005180D01*
X017813Y005178D01*
X017796Y005174D01*
X017780Y005167D01*
X017766Y005157D01*
X017753Y005144D01*
X017743Y005130D01*
X017736Y005114D01*
X017732Y005097D01*
X017730Y005080D01*
X017730Y004280D01*
X017732Y004263D01*
X017736Y004246D01*
X017743Y004230D01*
X017753Y004216D01*
X017766Y004203D01*
X017780Y004193D01*
X017796Y004186D01*
X017813Y004182D01*
X017830Y004180D01*
X019530Y004180D01*
X019547Y004182D01*
X019564Y004186D01*
X019580Y004193D01*
X019594Y004203D01*
X019607Y004216D01*
X019617Y004230D01*
X019624Y004246D01*
X019628Y004263D01*
X019630Y004280D01*
X018830Y004680D02*
X018780Y004680D01*
X018580Y004680D02*
X018530Y004680D01*
X003180Y003930D02*
X003180Y003430D01*
X002930Y003180D01*
X003180Y002930D01*
X003180Y002430D01*
X002930Y002180D01*
X003180Y001930D01*
X003180Y001430D01*
X002930Y001180D01*
X002430Y001180D01*
X002180Y001430D01*
X002180Y001930D01*
X002430Y002180D01*
X002180Y002430D01*
X002180Y002930D01*
X002430Y003180D01*
X002180Y003430D01*
X002180Y003930D01*
X002430Y004180D01*
X002930Y004180D01*
X003180Y003930D01*
X002930Y003180D02*
X002430Y003180D01*
X002430Y002180D02*
X002930Y002180D01*
D15*
X017330Y010180D03*
D16*
X017580Y008455D03*
X017580Y011905D03*
D17*
X017580Y010680D03*
X017580Y009680D03*
D18*
X018580Y004980D02*
X018580Y004680D01*
X018580Y004380D01*
X018780Y004380D02*
X018780Y004680D01*
X018780Y004980D01*
X030380Y006080D02*
X030680Y006080D01*
X030980Y006080D01*
X030980Y006280D02*
X030680Y006280D01*
X030380Y006280D01*
X030380Y014080D02*
X030680Y014080D01*
X030980Y014080D01*
X030980Y014280D02*
X030680Y014280D01*
X030380Y014280D01*
X018780Y014880D02*
X018780Y015180D01*
X018780Y015480D01*
X018580Y015480D02*
X018580Y015180D01*
X018580Y014880D01*
D19*
X011180Y015930D02*
X011180Y017430D01*
D20*
X011212Y017460D02*
X011140Y017406D01*
X011141Y017407D02*
X011098Y017460D01*
X011053Y017511D01*
X011004Y017559D01*
X010953Y017604D01*
X010899Y017647D01*
X010843Y017686D01*
X010785Y017722D01*
X010725Y017755D01*
X010664Y017784D01*
X010600Y017809D01*
X010536Y017831D01*
X010470Y017850D01*
X010403Y017864D01*
X010336Y017875D01*
X010268Y017882D01*
X010200Y017885D01*
X010131Y017884D01*
X010063Y017879D01*
X009995Y017871D01*
X009928Y017858D01*
X009862Y017842D01*
X009797Y017822D01*
X009732Y017799D01*
X009670Y017772D01*
X009609Y017741D01*
X009550Y017707D01*
X009492Y017670D01*
X009437Y017629D01*
X009385Y017585D01*
X009335Y017539D01*
X009288Y017490D01*
X009243Y017438D01*
X009202Y017384D01*
X009163Y017327D01*
X009128Y017268D01*
X009097Y017208D01*
X009069Y017146D01*
X009044Y017082D01*
X009023Y017017D01*
X009006Y016951D01*
X008992Y016884D01*
X008983Y016816D01*
X008977Y016748D01*
X008975Y016680D01*
X008977Y016612D01*
X008983Y016544D01*
X008992Y016476D01*
X009006Y016409D01*
X009023Y016343D01*
X009044Y016278D01*
X009069Y016214D01*
X009097Y016152D01*
X009128Y016092D01*
X009163Y016033D01*
X009202Y015976D01*
X009243Y015922D01*
X009288Y015870D01*
X009335Y015821D01*
X009385Y015775D01*
X009437Y015731D01*
X009492Y015690D01*
X009550Y015653D01*
X009609Y015619D01*
X009670Y015588D01*
X009732Y015561D01*
X009797Y015538D01*
X009862Y015518D01*
X009928Y015502D01*
X009995Y015489D01*
X010063Y015481D01*
X010131Y015476D01*
X010200Y015475D01*
X010268Y015478D01*
X010336Y015485D01*
X010403Y015496D01*
X010470Y015510D01*
X010536Y015529D01*
X010600Y015551D01*
X010664Y015576D01*
X010725Y015605D01*
X010785Y015638D01*
X010843Y015674D01*
X010899Y015713D01*
X010953Y015756D01*
X011004Y015801D01*
X011053Y015849D01*
X011098Y015900D01*
X011141Y015953D01*
X011212Y015900D01*
X011213Y015899D01*
X011169Y015844D01*
X011121Y015791D01*
X011071Y015740D01*
X011018Y015693D01*
X010963Y015649D01*
X010905Y015607D01*
X010845Y015569D01*
X010784Y015534D01*
X010720Y015503D01*
X010655Y015475D01*
X010588Y015451D01*
X010520Y015430D01*
X010451Y015414D01*
X010381Y015401D01*
X010311Y015392D01*
X010240Y015386D01*
X010169Y015385D01*
X010098Y015388D01*
X010027Y015394D01*
X009957Y015404D01*
X009888Y015418D01*
X009819Y015436D01*
X009751Y015458D01*
X009685Y015483D01*
X009620Y015512D01*
X009557Y015545D01*
X009496Y015581D01*
X009437Y015620D01*
X009380Y015662D01*
X009325Y015707D01*
X009273Y015756D01*
X009224Y015807D01*
X009177Y015860D01*
X009134Y015917D01*
X009094Y015975D01*
X009057Y016036D01*
X009023Y016098D01*
X008993Y016162D01*
X008966Y016228D01*
X008943Y016295D01*
X008924Y016364D01*
X008909Y016433D01*
X008897Y016503D01*
X008889Y016574D01*
X008885Y016645D01*
X008885Y016715D01*
X008889Y016786D01*
X008897Y016857D01*
X008909Y016927D01*
X008924Y016996D01*
X008943Y017065D01*
X008966Y017132D01*
X008993Y017198D01*
X009023Y017262D01*
X009057Y017324D01*
X009094Y017385D01*
X009134Y017443D01*
X009177Y017500D01*
X009224Y017553D01*
X009273Y017604D01*
X009325Y017653D01*
X009380Y017698D01*
X009437Y017740D01*
X009496Y017779D01*
X009557Y017815D01*
X009620Y017848D01*
X009685Y017877D01*
X009751Y017902D01*
X009819Y017924D01*
X009888Y017942D01*
X009957Y017956D01*
X010027Y017966D01*
X010098Y017972D01*
X010169Y017975D01*
X010240Y017974D01*
X010311Y017968D01*
X010381Y017959D01*
X010451Y017946D01*
X010520Y017930D01*
X010588Y017909D01*
X010655Y017885D01*
X010720Y017857D01*
X010784Y017826D01*
X010845Y017791D01*
X010905Y017753D01*
X010963Y017711D01*
X011018Y017667D01*
X011071Y017620D01*
X011121Y017569D01*
X011169Y017516D01*
X011213Y017461D01*
X011206Y017456D01*
X011161Y017511D01*
X011114Y017564D01*
X011063Y017615D01*
X011010Y017662D01*
X010954Y017707D01*
X010896Y017748D01*
X010836Y017786D01*
X010774Y017821D01*
X010710Y017852D01*
X010644Y017879D01*
X010577Y017903D01*
X010508Y017923D01*
X010439Y017940D01*
X010369Y017952D01*
X010298Y017961D01*
X010227Y017965D01*
X010156Y017966D01*
X010085Y017962D01*
X010014Y017955D01*
X009943Y017944D01*
X009874Y017929D01*
X009805Y017910D01*
X009737Y017887D01*
X009671Y017861D01*
X009606Y017831D01*
X009544Y017797D01*
X009483Y017761D01*
X009424Y017720D01*
X009367Y017677D01*
X009313Y017630D01*
X009262Y017581D01*
X009214Y017528D01*
X009168Y017474D01*
X009126Y017416D01*
X009087Y017357D01*
X009051Y017295D01*
X009018Y017232D01*
X008990Y017167D01*
X008964Y017100D01*
X008943Y017032D01*
X008925Y016963D01*
X008912Y016893D01*
X008902Y016822D01*
X008896Y016751D01*
X008894Y016680D01*
X008896Y016609D01*
X008902Y016538D01*
X008912Y016467D01*
X008925Y016397D01*
X008943Y016328D01*
X008964Y016260D01*
X008990Y016193D01*
X009018Y016128D01*
X009051Y016065D01*
X009087Y016003D01*
X009126Y015944D01*
X009168Y015886D01*
X009214Y015832D01*
X009262Y015779D01*
X009313Y015730D01*
X009367Y015683D01*
X009424Y015640D01*
X009483Y015599D01*
X009544Y015563D01*
X009606Y015529D01*
X009671Y015499D01*
X009737Y015473D01*
X009805Y015450D01*
X009874Y015431D01*
X009943Y015416D01*
X010014Y015405D01*
X010085Y015398D01*
X010156Y015394D01*
X010227Y015395D01*
X010298Y015399D01*
X010369Y015408D01*
X010439Y015420D01*
X010508Y015437D01*
X010577Y015457D01*
X010644Y015481D01*
X010710Y015508D01*
X010774Y015539D01*
X010836Y015574D01*
X010896Y015612D01*
X010954Y015653D01*
X011010Y015698D01*
X011063Y015745D01*
X011114Y015796D01*
X011161Y015849D01*
X011206Y015904D01*
X011199Y015910D01*
X011154Y015855D01*
X011107Y015802D01*
X011057Y015752D01*
X011004Y015705D01*
X010949Y015661D01*
X010891Y015619D01*
X010832Y015582D01*
X010770Y015547D01*
X010706Y015516D01*
X010641Y015489D01*
X010574Y015465D01*
X010506Y015445D01*
X010437Y015429D01*
X010368Y015417D01*
X010297Y015408D01*
X010227Y015404D01*
X010156Y015403D01*
X010085Y015407D01*
X010015Y015414D01*
X009945Y015425D01*
X009876Y015440D01*
X009808Y015459D01*
X009740Y015481D01*
X009675Y015507D01*
X009610Y015537D01*
X009548Y015570D01*
X009488Y015607D01*
X009429Y015647D01*
X009373Y015690D01*
X009319Y015736D01*
X009269Y015786D01*
X009220Y015837D01*
X009175Y015892D01*
X009133Y015949D01*
X009094Y016008D01*
X009059Y016069D01*
X009026Y016132D01*
X008998Y016197D01*
X008973Y016263D01*
X008952Y016331D01*
X008934Y016399D01*
X008921Y016469D01*
X008911Y016539D01*
X008905Y016609D01*
X008903Y016680D01*
X008905Y016751D01*
X008911Y016821D01*
X008921Y016891D01*
X008934Y016961D01*
X008952Y017029D01*
X008973Y017097D01*
X008998Y017163D01*
X009026Y017228D01*
X009059Y017291D01*
X009094Y017352D01*
X009133Y017411D01*
X009175Y017468D01*
X009220Y017523D01*
X009269Y017574D01*
X009319Y017624D01*
X009373Y017670D01*
X009429Y017713D01*
X009488Y017753D01*
X009548Y017790D01*
X009610Y017823D01*
X009675Y017853D01*
X009740Y017879D01*
X009808Y017901D01*
X009876Y017920D01*
X009945Y017935D01*
X010015Y017946D01*
X010085Y017953D01*
X010156Y017957D01*
X010227Y017956D01*
X010297Y017952D01*
X010368Y017943D01*
X010437Y017931D01*
X010506Y017915D01*
X010574Y017895D01*
X010641Y017871D01*
X010706Y017844D01*
X010770Y017813D01*
X010832Y017778D01*
X010891Y017741D01*
X010949Y017699D01*
X011004Y017655D01*
X011057Y017608D01*
X011107Y017558D01*
X011154Y017505D01*
X011199Y017450D01*
X011191Y017445D01*
X011147Y017500D01*
X011099Y017553D01*
X011049Y017603D01*
X010996Y017651D01*
X010940Y017695D01*
X010882Y017736D01*
X010822Y017773D01*
X010760Y017808D01*
X010696Y017838D01*
X010630Y017865D01*
X010563Y017889D01*
X010495Y017908D01*
X010425Y017924D01*
X010355Y017936D01*
X010285Y017944D01*
X010214Y017948D01*
X010143Y017947D01*
X010072Y017943D01*
X010001Y017935D01*
X009931Y017923D01*
X009862Y017907D01*
X009794Y017888D01*
X009726Y017864D01*
X009661Y017837D01*
X009597Y017806D01*
X009535Y017772D01*
X009475Y017734D01*
X009417Y017692D01*
X009361Y017648D01*
X009308Y017601D01*
X009258Y017550D01*
X009211Y017497D01*
X009166Y017442D01*
X009125Y017384D01*
X009088Y017324D01*
X009053Y017261D01*
X009022Y017197D01*
X008995Y017132D01*
X008972Y017065D01*
X008952Y016996D01*
X008936Y016927D01*
X008924Y016857D01*
X008916Y016786D01*
X008912Y016716D01*
X008912Y016644D01*
X008916Y016574D01*
X008924Y016503D01*
X008936Y016433D01*
X008952Y016364D01*
X008972Y016295D01*
X008995Y016228D01*
X009022Y016163D01*
X009053Y016099D01*
X009088Y016036D01*
X009125Y015976D01*
X009166Y015918D01*
X009211Y015863D01*
X009258Y015810D01*
X009308Y015759D01*
X009361Y015712D01*
X009417Y015668D01*
X009475Y015626D01*
X009535Y015588D01*
X009597Y015554D01*
X009661Y015523D01*
X009726Y015496D01*
X009794Y015472D01*
X009862Y015453D01*
X009931Y015437D01*
X010001Y015425D01*
X010072Y015417D01*
X010143Y015413D01*
X010214Y015412D01*
X010285Y015416D01*
X010355Y015424D01*
X010425Y015436D01*
X010495Y015452D01*
X010563Y015471D01*
X010630Y015495D01*
X010696Y015522D01*
X010760Y015552D01*
X010822Y015587D01*
X010882Y015624D01*
X010940Y015665D01*
X010996Y015709D01*
X011049Y015757D01*
X011099Y015807D01*
X011147Y015860D01*
X011191Y015915D01*
X011184Y015921D01*
X011140Y015866D01*
X011093Y015813D01*
X011043Y015763D01*
X010990Y015716D01*
X010935Y015672D01*
X010877Y015632D01*
X010818Y015594D01*
X010756Y015560D01*
X010692Y015530D01*
X010627Y015503D01*
X010560Y015480D01*
X010492Y015460D01*
X010424Y015445D01*
X010354Y015433D01*
X010284Y015425D01*
X010213Y015421D01*
X010143Y015422D01*
X010072Y015426D01*
X010002Y015434D01*
X009933Y015446D01*
X009864Y015461D01*
X009796Y015481D01*
X009730Y015504D01*
X009665Y015531D01*
X009601Y015562D01*
X009539Y015596D01*
X009480Y015634D01*
X009422Y015675D01*
X009367Y015719D01*
X009314Y015766D01*
X009265Y015816D01*
X009218Y015868D01*
X009174Y015924D01*
X009133Y015981D01*
X009095Y016041D01*
X009061Y016103D01*
X009031Y016166D01*
X009004Y016231D01*
X008980Y016298D01*
X008961Y016366D01*
X008945Y016435D01*
X008933Y016504D01*
X008925Y016574D01*
X008921Y016645D01*
X008921Y016715D01*
X008925Y016786D01*
X008933Y016856D01*
X008945Y016925D01*
X008961Y016994D01*
X008980Y017062D01*
X009004Y017129D01*
X009031Y017194D01*
X009061Y017257D01*
X009095Y017319D01*
X009133Y017379D01*
X009174Y017436D01*
X009218Y017492D01*
X009265Y017544D01*
X009314Y017594D01*
X009367Y017641D01*
X009422Y017685D01*
X009480Y017726D01*
X009539Y017764D01*
X009601Y017798D01*
X009665Y017829D01*
X009730Y017856D01*
X009796Y017879D01*
X009864Y017899D01*
X009933Y017914D01*
X010002Y017926D01*
X010072Y017934D01*
X010143Y017938D01*
X010213Y017939D01*
X010284Y017935D01*
X010354Y017927D01*
X010424Y017915D01*
X010492Y017900D01*
X010560Y017880D01*
X010627Y017857D01*
X010692Y017830D01*
X010756Y017800D01*
X010818Y017766D01*
X010877Y017728D01*
X010935Y017688D01*
X010990Y017644D01*
X011043Y017597D01*
X011093Y017547D01*
X011140Y017494D01*
X011184Y017439D01*
X011177Y017434D01*
X011133Y017489D01*
X011086Y017541D01*
X011037Y017590D01*
X010984Y017637D01*
X010930Y017680D01*
X010872Y017721D01*
X010813Y017758D01*
X010752Y017792D01*
X010688Y017822D01*
X010624Y017849D01*
X010557Y017872D01*
X010490Y017891D01*
X010422Y017906D01*
X010353Y017918D01*
X010283Y017926D01*
X010213Y017930D01*
X010143Y017929D01*
X010073Y017925D01*
X010004Y017917D01*
X009935Y017906D01*
X009866Y017890D01*
X009799Y017871D01*
X009733Y017847D01*
X009668Y017820D01*
X009605Y017790D01*
X009544Y017756D01*
X009485Y017719D01*
X009427Y017678D01*
X009373Y017634D01*
X009321Y017588D01*
X009271Y017538D01*
X009224Y017486D01*
X009181Y017431D01*
X009140Y017374D01*
X009103Y017315D01*
X009069Y017253D01*
X009039Y017190D01*
X009012Y017125D01*
X008989Y017059D01*
X008970Y016992D01*
X008954Y016924D01*
X008942Y016855D01*
X008934Y016785D01*
X008930Y016715D01*
X008930Y016645D01*
X008934Y016575D01*
X008942Y016505D01*
X008954Y016436D01*
X008970Y016368D01*
X008989Y016301D01*
X009012Y016235D01*
X009039Y016170D01*
X009069Y016107D01*
X009103Y016045D01*
X009140Y015986D01*
X009181Y015929D01*
X009224Y015874D01*
X009271Y015822D01*
X009321Y015772D01*
X009373Y015726D01*
X009427Y015682D01*
X009485Y015641D01*
X009544Y015604D01*
X009605Y015570D01*
X009668Y015540D01*
X009733Y015513D01*
X009799Y015489D01*
X009866Y015470D01*
X009935Y015454D01*
X010004Y015443D01*
X010073Y015435D01*
X010143Y015431D01*
X010213Y015430D01*
X010283Y015434D01*
X010353Y015442D01*
X010422Y015454D01*
X010490Y015469D01*
X010557Y015488D01*
X010624Y015511D01*
X010688Y015538D01*
X010752Y015568D01*
X010813Y015602D01*
X010872Y015639D01*
X010930Y015680D01*
X010984Y015723D01*
X011037Y015770D01*
X011086Y015819D01*
X011133Y015871D01*
X011177Y015926D01*
X011170Y015931D01*
X011126Y015877D01*
X011080Y015825D01*
X011031Y015776D01*
X010979Y015730D01*
X010924Y015687D01*
X010867Y015647D01*
X010808Y015610D01*
X010747Y015576D01*
X010685Y015546D01*
X010620Y015520D01*
X010555Y015497D01*
X010488Y015478D01*
X010420Y015462D01*
X010351Y015451D01*
X010282Y015443D01*
X010213Y015439D01*
X010143Y015440D01*
X010074Y015444D01*
X010005Y015451D01*
X009936Y015463D01*
X009869Y015479D01*
X009802Y015498D01*
X009736Y015521D01*
X009672Y015548D01*
X009609Y015578D01*
X009548Y015612D01*
X009490Y015649D01*
X009433Y015689D01*
X009379Y015732D01*
X009327Y015779D01*
X009278Y015828D01*
X009231Y015880D01*
X009188Y015934D01*
X009148Y015991D01*
X009111Y016050D01*
X009077Y016111D01*
X009047Y016174D01*
X009020Y016238D01*
X008997Y016303D01*
X008978Y016370D01*
X008963Y016438D01*
X008951Y016507D01*
X008943Y016576D01*
X008939Y016645D01*
X008939Y016715D01*
X008943Y016784D01*
X008951Y016853D01*
X008963Y016922D01*
X008978Y016990D01*
X008997Y017057D01*
X009020Y017122D01*
X009047Y017186D01*
X009077Y017249D01*
X009111Y017310D01*
X009148Y017369D01*
X009188Y017426D01*
X009231Y017480D01*
X009278Y017532D01*
X009327Y017581D01*
X009379Y017628D01*
X009433Y017671D01*
X009490Y017711D01*
X009548Y017748D01*
X009609Y017782D01*
X009672Y017812D01*
X009736Y017839D01*
X009802Y017862D01*
X009869Y017881D01*
X009936Y017897D01*
X010005Y017909D01*
X010074Y017916D01*
X010143Y017920D01*
X010213Y017921D01*
X010282Y017917D01*
X010351Y017909D01*
X010420Y017898D01*
X010488Y017882D01*
X010555Y017863D01*
X010620Y017840D01*
X010685Y017814D01*
X010747Y017784D01*
X010808Y017750D01*
X010867Y017713D01*
X010924Y017673D01*
X010979Y017630D01*
X011031Y017584D01*
X011080Y017535D01*
X011126Y017483D01*
X011170Y017429D01*
X011163Y017423D01*
X011119Y017477D01*
X011073Y017528D01*
X011024Y017577D01*
X010973Y017623D01*
X010919Y017666D01*
X010862Y017706D01*
X010804Y017742D01*
X010743Y017776D01*
X010681Y017806D01*
X010617Y017832D01*
X010552Y017854D01*
X010486Y017873D01*
X010418Y017889D01*
X010350Y017900D01*
X010282Y017908D01*
X010213Y017912D01*
X010144Y017911D01*
X010075Y017907D01*
X010006Y017900D01*
X009938Y017888D01*
X009871Y017873D01*
X009804Y017853D01*
X009739Y017830D01*
X009676Y017804D01*
X009613Y017774D01*
X009553Y017741D01*
X009495Y017704D01*
X009438Y017664D01*
X009384Y017621D01*
X009333Y017575D01*
X009284Y017526D01*
X009238Y017474D01*
X009195Y017420D01*
X009155Y017364D01*
X009119Y017305D01*
X009085Y017245D01*
X009055Y017183D01*
X009029Y017119D01*
X009006Y017054D01*
X008987Y016987D01*
X008972Y016920D01*
X008960Y016852D01*
X008952Y016783D01*
X008948Y016715D01*
X008948Y016645D01*
X008952Y016577D01*
X008960Y016508D01*
X008972Y016440D01*
X008987Y016373D01*
X009006Y016306D01*
X009029Y016241D01*
X009055Y016177D01*
X009085Y016115D01*
X009119Y016055D01*
X009155Y015996D01*
X009195Y015940D01*
X009238Y015886D01*
X009284Y015834D01*
X009333Y015785D01*
X009384Y015739D01*
X009438Y015696D01*
X009495Y015656D01*
X009553Y015619D01*
X009613Y015586D01*
X009676Y015556D01*
X009739Y015530D01*
X009804Y015507D01*
X009871Y015487D01*
X009938Y015472D01*
X010006Y015460D01*
X010075Y015453D01*
X010144Y015449D01*
X010213Y015448D01*
X010282Y015452D01*
X010350Y015460D01*
X010418Y015471D01*
X010486Y015487D01*
X010552Y015506D01*
X010617Y015528D01*
X010681Y015554D01*
X010743Y015584D01*
X010804Y015618D01*
X010862Y015654D01*
X010919Y015694D01*
X010973Y015737D01*
X011024Y015783D01*
X011073Y015832D01*
X011119Y015883D01*
X011163Y015937D01*
X011155Y015942D01*
X011112Y015888D01*
X011066Y015837D01*
X011016Y015788D01*
X010965Y015742D01*
X010910Y015699D01*
X010853Y015659D01*
X010795Y015623D01*
X010734Y015589D01*
X010671Y015560D01*
X010607Y015534D01*
X010541Y015512D01*
X010474Y015493D01*
X010407Y015478D01*
X010338Y015467D01*
X010269Y015460D01*
X010200Y015457D01*
X010131Y015458D01*
X010061Y015463D01*
X009993Y015471D01*
X009925Y015484D01*
X009857Y015500D01*
X009791Y015521D01*
X009726Y015544D01*
X009662Y015572D01*
X009600Y015603D01*
X009540Y015638D01*
X009482Y015676D01*
X009426Y015717D01*
X009373Y015761D01*
X009322Y015808D01*
X009274Y015858D01*
X009229Y015911D01*
X009187Y015966D01*
X009148Y016023D01*
X009113Y016083D01*
X009081Y016144D01*
X009052Y016207D01*
X009027Y016272D01*
X009006Y016338D01*
X008988Y016405D01*
X008975Y016473D01*
X008965Y016542D01*
X008959Y016611D01*
X008957Y016680D01*
X008959Y016749D01*
X008965Y016818D01*
X008975Y016887D01*
X008988Y016955D01*
X009006Y017022D01*
X009027Y017088D01*
X009052Y017153D01*
X009081Y017216D01*
X009113Y017277D01*
X009148Y017337D01*
X009187Y017394D01*
X009229Y017449D01*
X009274Y017502D01*
X009322Y017552D01*
X009373Y017599D01*
X009426Y017643D01*
X009482Y017684D01*
X009540Y017722D01*
X009600Y017757D01*
X009662Y017788D01*
X009726Y017816D01*
X009791Y017839D01*
X009857Y017860D01*
X009925Y017876D01*
X009993Y017889D01*
X010061Y017897D01*
X010131Y017902D01*
X010200Y017903D01*
X010269Y017900D01*
X010338Y017893D01*
X010407Y017882D01*
X010474Y017867D01*
X010541Y017848D01*
X010607Y017826D01*
X010671Y017800D01*
X010734Y017771D01*
X010795Y017737D01*
X010853Y017701D01*
X010910Y017661D01*
X010965Y017618D01*
X011016Y017572D01*
X011066Y017523D01*
X011112Y017472D01*
X011155Y017418D01*
X011148Y017412D01*
X011105Y017466D01*
X011059Y017517D01*
X011010Y017566D01*
X010959Y017611D01*
X010905Y017654D01*
X010848Y017693D01*
X010790Y017730D01*
X010730Y017763D01*
X010667Y017792D01*
X010604Y017818D01*
X010538Y017840D01*
X010472Y017858D01*
X010405Y017873D01*
X010337Y017884D01*
X010268Y017891D01*
X010200Y017894D01*
X010131Y017893D01*
X010062Y017888D01*
X009994Y017880D01*
X009926Y017867D01*
X009860Y017851D01*
X009794Y017831D01*
X009729Y017807D01*
X009666Y017780D01*
X009605Y017749D01*
X009545Y017715D01*
X009487Y017677D01*
X009432Y017636D01*
X009379Y017592D01*
X009329Y017545D01*
X009281Y017496D01*
X009236Y017444D01*
X009194Y017389D01*
X009156Y017332D01*
X009121Y017273D01*
X009089Y017212D01*
X009060Y017149D01*
X009036Y017085D01*
X009014Y017019D01*
X008997Y016953D01*
X008984Y016885D01*
X008974Y016817D01*
X008968Y016749D01*
X008966Y016680D01*
X008968Y016611D01*
X008974Y016543D01*
X008984Y016475D01*
X008997Y016407D01*
X009014Y016341D01*
X009036Y016275D01*
X009060Y016211D01*
X009089Y016148D01*
X009121Y016087D01*
X009156Y016028D01*
X009194Y015971D01*
X009236Y015916D01*
X009281Y015864D01*
X009329Y015815D01*
X009379Y015768D01*
X009432Y015724D01*
X009487Y015683D01*
X009545Y015645D01*
X009605Y015611D01*
X009666Y015580D01*
X009729Y015553D01*
X009794Y015529D01*
X009860Y015509D01*
X009926Y015493D01*
X009994Y015480D01*
X010062Y015472D01*
X010131Y015467D01*
X010200Y015466D01*
X010268Y015469D01*
X010337Y015476D01*
X010405Y015487D01*
X010472Y015502D01*
X010538Y015520D01*
X010604Y015542D01*
X010667Y015568D01*
X010730Y015597D01*
X010790Y015630D01*
X010848Y015667D01*
X010905Y015706D01*
X010959Y015749D01*
X011010Y015794D01*
X011059Y015843D01*
X011105Y015894D01*
X011148Y015948D01*
D21*
X009100Y014180D03*
X006260Y014180D03*
M02*
