%
M48
M72
T01C0.0120
T02C0.0236
T03C0.0315
T04C0.0320
T05C0.0360
T06C0.0400
T07C0.1102
%
T01
X32305Y9555
X33305Y12680
T02
X33930Y12680
X34305Y12180
X33430Y11805
X32680Y11805
X31680Y12180
X31380Y10030
X32930Y9930
X34430Y9930
X34680Y9180
X35430Y9930
X18055Y9305
X17180Y9930
T03
X33180Y4680
X34180Y4680
X35180Y4680
X35180Y2680
X34180Y2680
X33180Y2680
T04
X30180Y2680
X30180Y1680
X27680Y2180
X26680Y2180
X25680Y2180
X24680Y2180
X24680Y5180
X25680Y5180
X26680Y5180
X27680Y5180
X22680Y5180
X19680Y5180
X18180Y5180
X15180Y5180
X14680Y8180
X13680Y8180
X12180Y8180
X11180Y8180
X12680Y10180
X13680Y10180
X13680Y12180
X12680Y12180
X11680Y12180
X10680Y12180
X9680Y12180
X8680Y12180
X7680Y12180
X6680Y12180
X5680Y12180
X4680Y12180
X3680Y12180
X3680Y18180
X4680Y18180
X5680Y18180
X6680Y18180
X7680Y18180
X8680Y18180
X9680Y18180
X10680Y18180
X11680Y18180
X12680Y18180
X13680Y18180
X14680Y18180
X15680Y18180
X16680Y18180
X17680Y18180
X18680Y18180
X19680Y18180
X20680Y18180
X21680Y18180
X22680Y18180
X25180Y18180
X25180Y19680
X26680Y22180
X27680Y22180
X29680Y22180
X30680Y22180
X28180Y19680
X28180Y18180
X25680Y14630
X25680Y12730
X28180Y13180
X29180Y13180
X29180Y10680
X28180Y10680
X22680Y12180
X21680Y12180
X20680Y12180
X19680Y12180
X18680Y12180
X17680Y12180
X16680Y12180
X15680Y12180
X14680Y12180
X9680Y5180
X6680Y5180
X5180Y5180
X2180Y5180
X10180Y2180
X11180Y2180
X12680Y20180
X13680Y20180
X31180Y34180
X31680Y36680
X32680Y36680
X35180Y36680
X36180Y36680
X35180Y34180
X34180Y34180
X38180Y34180
T05
X37180Y29180
X37180Y28180
X37180Y27180
X36180Y27180
X36180Y28180
X35180Y28180
X35180Y27180
X34180Y27180
X34180Y28180
X34180Y29180
X33180Y29180
X32180Y29180
X32180Y28180
X32180Y27180
X33180Y27180
X33180Y28180
X31180Y28180
X31180Y27180
X30180Y27180
X30180Y28180
X30180Y29180
X31180Y29180
X29180Y29180
X29180Y30180
X28180Y30180
X28180Y29180
X28180Y28180
X28180Y27180
X29180Y27180
X29180Y28180
X27180Y28180
X27180Y27180
X26180Y27180
X26180Y28180
X26180Y29180
X26180Y30180
X27180Y30180
X27180Y29180
X27180Y31180
X27180Y32180
X26180Y32180
X26180Y31180
X25180Y31180
X25180Y32180
X24180Y32180
X24180Y31180
X24180Y30180
X24180Y29180
X25180Y29180
X25180Y30180
X25180Y28180
X25180Y27180
X24180Y27180
X24180Y28180
X23180Y28180
X23180Y27180
X22180Y27180
X22180Y28180
X22180Y29180
X22180Y30180
X23180Y30180
X23180Y29180
X23180Y31180
X23180Y32180
X22180Y32180
X22180Y31180
X21180Y31180
X21180Y32180
X20180Y32180
X20180Y31180
X20180Y30180
X20180Y29180
X21180Y29180
X21180Y30180
X21180Y28180
X21180Y27180
X20180Y27180
X20180Y28180
X19180Y28180
X19180Y27180
X18180Y27180
X18180Y28180
X18180Y29180
X18180Y30180
X19180Y30180
X19180Y29180
X19180Y31180
X19180Y32180
X18180Y32180
X18180Y31180
X17180Y31180
X17180Y32180
X17180Y33180
X17180Y34180
X17180Y35180
X16180Y35180
X15180Y35180
X15180Y34180
X15180Y33180
X16180Y33180
X16180Y34180
X16180Y32180
X16180Y31180
X15180Y31180
X15180Y32180
X14180Y32180
X14180Y31180
X13180Y31180
X13180Y32180
X13180Y33180
X13180Y34180
X14180Y34180
X14180Y33180
X14180Y35180
X13180Y35180
X12180Y35180
X11180Y35180
X11180Y34180
X11180Y33180
X12180Y33180
X12180Y34180
X12180Y32180
X12180Y31180
X11180Y31180
X11180Y32180
X10180Y32180
X10180Y31180
X9180Y31180
X9180Y32180
X9180Y33180
X9180Y34180
X10180Y34180
X10180Y33180
X10180Y35180
X9180Y35180
X8180Y35180
X7180Y35180
X7180Y34180
X7180Y33180
X8180Y33180
X8180Y34180
X8180Y32180
X8180Y31180
X7180Y31180
X7180Y32180
X6180Y32180
X6180Y31180
X5180Y31180
X5180Y32180
X5180Y33180
X5180Y34180
X6180Y34180
X6180Y33180
X6180Y35180
X5180Y35180
X4180Y35180
X3180Y35180
X3180Y34180
X3180Y33180
X4180Y33180
X4180Y34180
X4180Y32180
X4180Y31180
X3180Y31180
X3180Y32180
X2180Y32180
X2180Y31180
X2180Y30180
X2180Y29180
X2180Y28180
X2180Y27180
X3180Y27180
X3180Y28180
X4180Y28180
X4180Y27180
X5180Y27180
X5180Y28180
X6180Y28180
X6180Y27180
X7180Y27180
X7180Y28180
X8180Y28180
X8180Y27180
X9180Y27180
X9180Y28180
X10180Y28180
X10180Y27180
X11180Y27180
X11180Y28180
X12180Y28180
X12180Y27180
X13180Y27180
X13180Y28180
X14180Y28180
X14180Y27180
X15180Y27180
X15180Y28180
X16180Y28180
X16180Y27180
X17180Y27180
X17180Y28180
X17180Y29180
X17180Y30180
X16180Y30180
X16180Y29180
X15180Y29180
X15180Y30180
X14180Y30180
X14180Y29180
X13180Y29180
X13180Y30180
X12180Y30180
X12180Y29180
X11180Y29180
X11180Y30180
X10180Y30180
X10180Y29180
X9180Y29180
X9180Y30180
X8180Y30180
X8180Y29180
X7180Y29180
X7180Y30180
X6180Y30180
X6180Y29180
X5180Y29180
X5180Y30180
X4180Y30180
X4180Y29180
X3180Y29180
X3180Y30180
X2180Y33180
X2180Y34180
X2180Y35180
X4180Y36680
X4180Y37680
X5180Y37680
X5180Y36680
X6180Y36680
X6180Y37680
X7180Y37680
X7180Y36680
X8180Y36680
X8180Y37680
X9180Y37680
X9180Y36680
X10180Y36680
X10180Y37680
X11180Y37680
X11180Y36680
X12180Y36680
X12180Y37680
X13180Y37680
X13180Y36680
X14180Y36680
X14180Y37680
X15180Y37680
X15180Y36680
X16180Y36680
X16180Y37680
X17180Y37680
X17180Y36680
X18180Y36680
X18180Y37680
X19180Y37680
X19180Y36680
X20180Y36680
X20180Y37680
X21180Y37680
X21180Y36680
X22180Y36680
X22180Y37680
X23180Y37680
X23180Y36680
X24180Y36680
X24180Y37680
X25180Y37680
X25180Y36680
X26180Y36680
X26180Y37680
X27180Y37680
X27180Y36680
X28180Y36680
X28180Y37680
X29180Y37680
X29180Y36680
X29180Y35180
X28180Y35180
X28180Y34180
X28180Y33180
X29180Y33180
X29180Y34180
X29180Y32180
X29180Y31180
X28180Y31180
X28180Y32180
X27180Y33180
X27180Y34180
X26180Y34180
X26180Y33180
X25180Y33180
X25180Y34180
X24180Y34180
X24180Y33180
X23180Y33180
X23180Y34180
X22180Y34180
X22180Y33180
X21180Y33180
X21180Y34180
X20180Y34180
X20180Y33180
X19180Y33180
X19180Y34180
X18180Y34180
X18180Y33180
X18180Y35180
X19180Y35180
X20180Y35180
X21180Y35180
X22180Y35180
X23180Y35180
X24180Y35180
X25180Y35180
X26180Y35180
X27180Y35180
X35180Y29180
X36180Y29180
X36180Y25680
X35180Y25680
X35180Y24680
X36180Y24680
X37180Y24680
X37180Y25680
X34180Y25680
X34180Y24680
X33180Y24680
X32180Y24680
X32180Y25680
X33180Y25680
X31180Y25680
X30180Y25680
X30180Y24680
X31180Y24680
X29180Y24680
X28180Y24680
X28180Y25680
X29180Y25680
X27180Y25680
X26180Y25680
X26180Y24680
X27180Y24680
X25180Y24680
X24180Y24680
X24180Y25680
X25180Y25680
X23180Y25680
X22180Y25680
X22180Y24680
X23180Y24680
X21180Y24680
X20180Y24680
X20180Y25680
X21180Y25680
X19180Y25680
X18180Y25680
X18180Y24680
X19180Y24680
X17180Y24680
X17180Y25680
X16180Y25680
X15180Y25680
X15180Y24680
X16180Y24680
X14180Y24680
X13180Y24680
X13180Y25680
X14180Y25680
X12180Y25680
X11180Y25680
X11180Y24680
X12180Y24680
X10180Y24680
X9180Y24680
X9180Y25680
X10180Y25680
X8180Y25680
X7180Y25680
X7180Y24680
X8180Y24680
X6180Y24680
X5180Y24680
X5180Y25680
X6180Y25680
X4180Y25680
X3180Y25680
X3180Y24680
X4180Y24680
X2180Y24680
X2180Y25680
T06
X2180Y22180
X3180Y22180
X4180Y22180
X5180Y22180
X6180Y22180
X7180Y22180
X8180Y22180
X9180Y22180
X12680Y22180
X13680Y22180
X16680Y22180
X17680Y22180
X18680Y22180
X19680Y22180
X20680Y22180
X21680Y22180
X22680Y22180
X23680Y22180
X30180Y18680
X31180Y18680
X31180Y16180
X30180Y16180
X33680Y16180
X34680Y16180
X34680Y18680
X33680Y18680
X35680Y21680
X35680Y22680
X36680Y22680
X36680Y21680
X37680Y21680
X37680Y22680
X33680Y22180
X32680Y22180
X37680Y17180
X37680Y16180
X37680Y15180
X37680Y14180
X37680Y11680
X37680Y10680
X37680Y9680
X37680Y8680
X35180Y7680
X34180Y7680
X33180Y7680
X32180Y7680
X31180Y7680
X30180Y7680
X27680Y7680
X26680Y7680
X23680Y8180
X22680Y8180
X21680Y8180
X20680Y8180
X19680Y8180
X18680Y8180
X17680Y8180
X16680Y8180
X13180Y5180
X12180Y5180
X9180Y8180
X8180Y8180
X7180Y8180
X6180Y8180
X5180Y8180
X4180Y8180
X3180Y8180
X2180Y8180
X4400Y3070
X4400Y1290
X6960Y1290
X6960Y3070
X15400Y3070
X15400Y1290
X17960Y1290
X17960Y3070
X19900Y3070
X19900Y1290
X22460Y1290
X22460Y3070
X29680Y4680
X30680Y4680
X37680Y4680
X37680Y3680
X37680Y5680
T07
X1680Y1680
X1680Y19680
X1680Y37680
X37680Y37680
X37680Y19680
X37680Y1680
M30
