G75*
%MOIN*%
%OFA0B0*%
%FSLAX24Y24*%
%IPPOS*%
%LPD*%
%AMOC8*
5,1,8,0,0,1.08239X$1,22.5*
%
%ADD10C,0.0000*%
%ADD11R,0.0137X0.0550*%
%ADD12R,0.0500X0.0500*%
D10*
X000180Y000180D02*
X000180Y039180D01*
X039180Y039180D01*
X037129Y037680D02*
X037131Y037727D01*
X037137Y037773D01*
X037147Y037819D01*
X037160Y037864D01*
X037178Y037907D01*
X037199Y037949D01*
X037223Y037989D01*
X037251Y038026D01*
X037282Y038061D01*
X037316Y038094D01*
X037352Y038123D01*
X037391Y038149D01*
X037432Y038172D01*
X037475Y038191D01*
X037519Y038207D01*
X037564Y038219D01*
X037610Y038227D01*
X037657Y038231D01*
X037703Y038231D01*
X037750Y038227D01*
X037796Y038219D01*
X037841Y038207D01*
X037885Y038191D01*
X037928Y038172D01*
X037969Y038149D01*
X038008Y038123D01*
X038044Y038094D01*
X038078Y038061D01*
X038109Y038026D01*
X038137Y037989D01*
X038161Y037949D01*
X038182Y037907D01*
X038200Y037864D01*
X038213Y037819D01*
X038223Y037773D01*
X038229Y037727D01*
X038231Y037680D01*
X038229Y037633D01*
X038223Y037587D01*
X038213Y037541D01*
X038200Y037496D01*
X038182Y037453D01*
X038161Y037411D01*
X038137Y037371D01*
X038109Y037334D01*
X038078Y037299D01*
X038044Y037266D01*
X038008Y037237D01*
X037969Y037211D01*
X037928Y037188D01*
X037885Y037169D01*
X037841Y037153D01*
X037796Y037141D01*
X037750Y037133D01*
X037703Y037129D01*
X037657Y037129D01*
X037610Y037133D01*
X037564Y037141D01*
X037519Y037153D01*
X037475Y037169D01*
X037432Y037188D01*
X037391Y037211D01*
X037352Y037237D01*
X037316Y037266D01*
X037282Y037299D01*
X037251Y037334D01*
X037223Y037371D01*
X037199Y037411D01*
X037178Y037453D01*
X037160Y037496D01*
X037147Y037541D01*
X037137Y037587D01*
X037131Y037633D01*
X037129Y037680D01*
X037129Y019680D02*
X037131Y019727D01*
X037137Y019773D01*
X037147Y019819D01*
X037160Y019864D01*
X037178Y019907D01*
X037199Y019949D01*
X037223Y019989D01*
X037251Y020026D01*
X037282Y020061D01*
X037316Y020094D01*
X037352Y020123D01*
X037391Y020149D01*
X037432Y020172D01*
X037475Y020191D01*
X037519Y020207D01*
X037564Y020219D01*
X037610Y020227D01*
X037657Y020231D01*
X037703Y020231D01*
X037750Y020227D01*
X037796Y020219D01*
X037841Y020207D01*
X037885Y020191D01*
X037928Y020172D01*
X037969Y020149D01*
X038008Y020123D01*
X038044Y020094D01*
X038078Y020061D01*
X038109Y020026D01*
X038137Y019989D01*
X038161Y019949D01*
X038182Y019907D01*
X038200Y019864D01*
X038213Y019819D01*
X038223Y019773D01*
X038229Y019727D01*
X038231Y019680D01*
X038229Y019633D01*
X038223Y019587D01*
X038213Y019541D01*
X038200Y019496D01*
X038182Y019453D01*
X038161Y019411D01*
X038137Y019371D01*
X038109Y019334D01*
X038078Y019299D01*
X038044Y019266D01*
X038008Y019237D01*
X037969Y019211D01*
X037928Y019188D01*
X037885Y019169D01*
X037841Y019153D01*
X037796Y019141D01*
X037750Y019133D01*
X037703Y019129D01*
X037657Y019129D01*
X037610Y019133D01*
X037564Y019141D01*
X037519Y019153D01*
X037475Y019169D01*
X037432Y019188D01*
X037391Y019211D01*
X037352Y019237D01*
X037316Y019266D01*
X037282Y019299D01*
X037251Y019334D01*
X037223Y019371D01*
X037199Y019411D01*
X037178Y019453D01*
X037160Y019496D01*
X037147Y019541D01*
X037137Y019587D01*
X037131Y019633D01*
X037129Y019680D01*
X037129Y001680D02*
X037131Y001727D01*
X037137Y001773D01*
X037147Y001819D01*
X037160Y001864D01*
X037178Y001907D01*
X037199Y001949D01*
X037223Y001989D01*
X037251Y002026D01*
X037282Y002061D01*
X037316Y002094D01*
X037352Y002123D01*
X037391Y002149D01*
X037432Y002172D01*
X037475Y002191D01*
X037519Y002207D01*
X037564Y002219D01*
X037610Y002227D01*
X037657Y002231D01*
X037703Y002231D01*
X037750Y002227D01*
X037796Y002219D01*
X037841Y002207D01*
X037885Y002191D01*
X037928Y002172D01*
X037969Y002149D01*
X038008Y002123D01*
X038044Y002094D01*
X038078Y002061D01*
X038109Y002026D01*
X038137Y001989D01*
X038161Y001949D01*
X038182Y001907D01*
X038200Y001864D01*
X038213Y001819D01*
X038223Y001773D01*
X038229Y001727D01*
X038231Y001680D01*
X038229Y001633D01*
X038223Y001587D01*
X038213Y001541D01*
X038200Y001496D01*
X038182Y001453D01*
X038161Y001411D01*
X038137Y001371D01*
X038109Y001334D01*
X038078Y001299D01*
X038044Y001266D01*
X038008Y001237D01*
X037969Y001211D01*
X037928Y001188D01*
X037885Y001169D01*
X037841Y001153D01*
X037796Y001141D01*
X037750Y001133D01*
X037703Y001129D01*
X037657Y001129D01*
X037610Y001133D01*
X037564Y001141D01*
X037519Y001153D01*
X037475Y001169D01*
X037432Y001188D01*
X037391Y001211D01*
X037352Y001237D01*
X037316Y001266D01*
X037282Y001299D01*
X037251Y001334D01*
X037223Y001371D01*
X037199Y001411D01*
X037178Y001453D01*
X037160Y001496D01*
X037147Y001541D01*
X037137Y001587D01*
X037131Y001633D01*
X037129Y001680D01*
X039180Y000180D02*
X000180Y000180D01*
X001129Y001680D02*
X001131Y001727D01*
X001137Y001773D01*
X001147Y001819D01*
X001160Y001864D01*
X001178Y001907D01*
X001199Y001949D01*
X001223Y001989D01*
X001251Y002026D01*
X001282Y002061D01*
X001316Y002094D01*
X001352Y002123D01*
X001391Y002149D01*
X001432Y002172D01*
X001475Y002191D01*
X001519Y002207D01*
X001564Y002219D01*
X001610Y002227D01*
X001657Y002231D01*
X001703Y002231D01*
X001750Y002227D01*
X001796Y002219D01*
X001841Y002207D01*
X001885Y002191D01*
X001928Y002172D01*
X001969Y002149D01*
X002008Y002123D01*
X002044Y002094D01*
X002078Y002061D01*
X002109Y002026D01*
X002137Y001989D01*
X002161Y001949D01*
X002182Y001907D01*
X002200Y001864D01*
X002213Y001819D01*
X002223Y001773D01*
X002229Y001727D01*
X002231Y001680D01*
X002229Y001633D01*
X002223Y001587D01*
X002213Y001541D01*
X002200Y001496D01*
X002182Y001453D01*
X002161Y001411D01*
X002137Y001371D01*
X002109Y001334D01*
X002078Y001299D01*
X002044Y001266D01*
X002008Y001237D01*
X001969Y001211D01*
X001928Y001188D01*
X001885Y001169D01*
X001841Y001153D01*
X001796Y001141D01*
X001750Y001133D01*
X001703Y001129D01*
X001657Y001129D01*
X001610Y001133D01*
X001564Y001141D01*
X001519Y001153D01*
X001475Y001169D01*
X001432Y001188D01*
X001391Y001211D01*
X001352Y001237D01*
X001316Y001266D01*
X001282Y001299D01*
X001251Y001334D01*
X001223Y001371D01*
X001199Y001411D01*
X001178Y001453D01*
X001160Y001496D01*
X001147Y001541D01*
X001137Y001587D01*
X001131Y001633D01*
X001129Y001680D01*
X001129Y019680D02*
X001131Y019727D01*
X001137Y019773D01*
X001147Y019819D01*
X001160Y019864D01*
X001178Y019907D01*
X001199Y019949D01*
X001223Y019989D01*
X001251Y020026D01*
X001282Y020061D01*
X001316Y020094D01*
X001352Y020123D01*
X001391Y020149D01*
X001432Y020172D01*
X001475Y020191D01*
X001519Y020207D01*
X001564Y020219D01*
X001610Y020227D01*
X001657Y020231D01*
X001703Y020231D01*
X001750Y020227D01*
X001796Y020219D01*
X001841Y020207D01*
X001885Y020191D01*
X001928Y020172D01*
X001969Y020149D01*
X002008Y020123D01*
X002044Y020094D01*
X002078Y020061D01*
X002109Y020026D01*
X002137Y019989D01*
X002161Y019949D01*
X002182Y019907D01*
X002200Y019864D01*
X002213Y019819D01*
X002223Y019773D01*
X002229Y019727D01*
X002231Y019680D01*
X002229Y019633D01*
X002223Y019587D01*
X002213Y019541D01*
X002200Y019496D01*
X002182Y019453D01*
X002161Y019411D01*
X002137Y019371D01*
X002109Y019334D01*
X002078Y019299D01*
X002044Y019266D01*
X002008Y019237D01*
X001969Y019211D01*
X001928Y019188D01*
X001885Y019169D01*
X001841Y019153D01*
X001796Y019141D01*
X001750Y019133D01*
X001703Y019129D01*
X001657Y019129D01*
X001610Y019133D01*
X001564Y019141D01*
X001519Y019153D01*
X001475Y019169D01*
X001432Y019188D01*
X001391Y019211D01*
X001352Y019237D01*
X001316Y019266D01*
X001282Y019299D01*
X001251Y019334D01*
X001223Y019371D01*
X001199Y019411D01*
X001178Y019453D01*
X001160Y019496D01*
X001147Y019541D01*
X001137Y019587D01*
X001131Y019633D01*
X001129Y019680D01*
X001129Y037680D02*
X001131Y037727D01*
X001137Y037773D01*
X001147Y037819D01*
X001160Y037864D01*
X001178Y037907D01*
X001199Y037949D01*
X001223Y037989D01*
X001251Y038026D01*
X001282Y038061D01*
X001316Y038094D01*
X001352Y038123D01*
X001391Y038149D01*
X001432Y038172D01*
X001475Y038191D01*
X001519Y038207D01*
X001564Y038219D01*
X001610Y038227D01*
X001657Y038231D01*
X001703Y038231D01*
X001750Y038227D01*
X001796Y038219D01*
X001841Y038207D01*
X001885Y038191D01*
X001928Y038172D01*
X001969Y038149D01*
X002008Y038123D01*
X002044Y038094D01*
X002078Y038061D01*
X002109Y038026D01*
X002137Y037989D01*
X002161Y037949D01*
X002182Y037907D01*
X002200Y037864D01*
X002213Y037819D01*
X002223Y037773D01*
X002229Y037727D01*
X002231Y037680D01*
X002229Y037633D01*
X002223Y037587D01*
X002213Y037541D01*
X002200Y037496D01*
X002182Y037453D01*
X002161Y037411D01*
X002137Y037371D01*
X002109Y037334D01*
X002078Y037299D01*
X002044Y037266D01*
X002008Y037237D01*
X001969Y037211D01*
X001928Y037188D01*
X001885Y037169D01*
X001841Y037153D01*
X001796Y037141D01*
X001750Y037133D01*
X001703Y037129D01*
X001657Y037129D01*
X001610Y037133D01*
X001564Y037141D01*
X001519Y037153D01*
X001475Y037169D01*
X001432Y037188D01*
X001391Y037211D01*
X001352Y037237D01*
X001316Y037266D01*
X001282Y037299D01*
X001251Y037334D01*
X001223Y037371D01*
X001199Y037411D01*
X001178Y037453D01*
X001160Y037496D01*
X001147Y037541D01*
X001137Y037587D01*
X001131Y037633D01*
X001129Y037680D01*
D11*
X031517Y013619D03*
X031773Y013619D03*
X032028Y013619D03*
X032284Y013619D03*
X032540Y013619D03*
X032796Y013619D03*
X033052Y013619D03*
X033308Y013619D03*
X033564Y013619D03*
X033820Y013619D03*
X034076Y013619D03*
X034332Y013619D03*
X034587Y013619D03*
X034843Y013619D03*
X034843Y010741D03*
X034587Y010741D03*
X034332Y010741D03*
X034076Y010741D03*
X033820Y010741D03*
X033564Y010741D03*
X033308Y010741D03*
X033052Y010741D03*
X032796Y010741D03*
X032540Y010741D03*
X032284Y010741D03*
X032028Y010741D03*
X031773Y010741D03*
X031517Y010741D03*
D12*
X036680Y007430D03*
X036680Y006930D03*
M02*
