G75*
%MOIN*%
%OFA0B0*%
%FSLAX24Y24*%
%IPPOS*%
%LPD*%
%AMOC8*
5,1,8,0,0,1.08239X$1,22.5*
%
%ADD10C,0.0000*%
%ADD11OC8,0.0600*%
%ADD12C,0.0520*%
%ADD13C,0.0740*%
%ADD14OC8,0.0520*%
%ADD15C,0.0650*%
%ADD16R,0.0118X0.0630*%
%ADD17R,0.0630X0.0118*%
%ADD18C,0.0600*%
%ADD19R,0.0660X0.0660*%
%ADD20C,0.0660*%
%ADD21R,0.0650X0.0650*%
%ADD22C,0.0520*%
%ADD23R,0.0591X0.0118*%
%ADD24R,0.0118X0.0591*%
%ADD25R,0.0591X0.0138*%
%ADD26R,0.0500X0.1000*%
%ADD27C,0.0120*%
%ADD28C,0.0100*%
%ADD29R,0.0356X0.0356*%
%ADD30C,0.0080*%
%ADD31C,0.0240*%
%ADD32C,0.0060*%
%ADD33C,0.0356*%
%ADD34C,0.0070*%
D10*
X000180Y000180D02*
X000180Y039050D01*
X059172Y039050D01*
X059172Y000180D01*
X000180Y000180D01*
X000667Y004193D02*
X000669Y004240D01*
X000675Y004286D01*
X000685Y004332D01*
X000698Y004377D01*
X000716Y004420D01*
X000737Y004462D01*
X000761Y004502D01*
X000789Y004539D01*
X000820Y004574D01*
X000854Y004607D01*
X000890Y004636D01*
X000929Y004662D01*
X000970Y004685D01*
X001013Y004704D01*
X001057Y004720D01*
X001102Y004732D01*
X001148Y004740D01*
X001195Y004744D01*
X001241Y004744D01*
X001288Y004740D01*
X001334Y004732D01*
X001379Y004720D01*
X001423Y004704D01*
X001466Y004685D01*
X001507Y004662D01*
X001546Y004636D01*
X001582Y004607D01*
X001616Y004574D01*
X001647Y004539D01*
X001675Y004502D01*
X001699Y004462D01*
X001720Y004420D01*
X001738Y004377D01*
X001751Y004332D01*
X001761Y004286D01*
X001767Y004240D01*
X001769Y004193D01*
X001767Y004146D01*
X001761Y004100D01*
X001751Y004054D01*
X001738Y004009D01*
X001720Y003966D01*
X001699Y003924D01*
X001675Y003884D01*
X001647Y003847D01*
X001616Y003812D01*
X001582Y003779D01*
X001546Y003750D01*
X001507Y003724D01*
X001466Y003701D01*
X001423Y003682D01*
X001379Y003666D01*
X001334Y003654D01*
X001288Y003646D01*
X001241Y003642D01*
X001195Y003642D01*
X001148Y003646D01*
X001102Y003654D01*
X001057Y003666D01*
X001013Y003682D01*
X000970Y003701D01*
X000929Y003724D01*
X000890Y003750D01*
X000854Y003779D01*
X000820Y003812D01*
X000789Y003847D01*
X000761Y003884D01*
X000737Y003924D01*
X000716Y003966D01*
X000698Y004009D01*
X000685Y004054D01*
X000675Y004100D01*
X000669Y004146D01*
X000667Y004193D01*
X019217Y027605D02*
X019219Y027652D01*
X019225Y027698D01*
X019235Y027744D01*
X019248Y027789D01*
X019266Y027832D01*
X019287Y027874D01*
X019311Y027914D01*
X019339Y027951D01*
X019370Y027986D01*
X019404Y028019D01*
X019440Y028048D01*
X019479Y028074D01*
X019520Y028097D01*
X019563Y028116D01*
X019607Y028132D01*
X019652Y028144D01*
X019698Y028152D01*
X019745Y028156D01*
X019791Y028156D01*
X019838Y028152D01*
X019884Y028144D01*
X019929Y028132D01*
X019973Y028116D01*
X020016Y028097D01*
X020057Y028074D01*
X020096Y028048D01*
X020132Y028019D01*
X020166Y027986D01*
X020197Y027951D01*
X020225Y027914D01*
X020249Y027874D01*
X020270Y027832D01*
X020288Y027789D01*
X020301Y027744D01*
X020311Y027698D01*
X020317Y027652D01*
X020319Y027605D01*
X020317Y027558D01*
X020311Y027512D01*
X020301Y027466D01*
X020288Y027421D01*
X020270Y027378D01*
X020249Y027336D01*
X020225Y027296D01*
X020197Y027259D01*
X020166Y027224D01*
X020132Y027191D01*
X020096Y027162D01*
X020057Y027136D01*
X020016Y027113D01*
X019973Y027094D01*
X019929Y027078D01*
X019884Y027066D01*
X019838Y027058D01*
X019791Y027054D01*
X019745Y027054D01*
X019698Y027058D01*
X019652Y027066D01*
X019607Y027078D01*
X019563Y027094D01*
X019520Y027113D01*
X019479Y027136D01*
X019440Y027162D01*
X019404Y027191D01*
X019370Y027224D01*
X019339Y027259D01*
X019311Y027296D01*
X019287Y027336D01*
X019266Y027378D01*
X019248Y027421D01*
X019235Y027466D01*
X019225Y027512D01*
X019219Y027558D01*
X019217Y027605D01*
X008617Y037043D02*
X008619Y037090D01*
X008625Y037136D01*
X008635Y037182D01*
X008648Y037227D01*
X008666Y037270D01*
X008687Y037312D01*
X008711Y037352D01*
X008739Y037389D01*
X008770Y037424D01*
X008804Y037457D01*
X008840Y037486D01*
X008879Y037512D01*
X008920Y037535D01*
X008963Y037554D01*
X009007Y037570D01*
X009052Y037582D01*
X009098Y037590D01*
X009145Y037594D01*
X009191Y037594D01*
X009238Y037590D01*
X009284Y037582D01*
X009329Y037570D01*
X009373Y037554D01*
X009416Y037535D01*
X009457Y037512D01*
X009496Y037486D01*
X009532Y037457D01*
X009566Y037424D01*
X009597Y037389D01*
X009625Y037352D01*
X009649Y037312D01*
X009670Y037270D01*
X009688Y037227D01*
X009701Y037182D01*
X009711Y037136D01*
X009717Y037090D01*
X009719Y037043D01*
X009717Y036996D01*
X009711Y036950D01*
X009701Y036904D01*
X009688Y036859D01*
X009670Y036816D01*
X009649Y036774D01*
X009625Y036734D01*
X009597Y036697D01*
X009566Y036662D01*
X009532Y036629D01*
X009496Y036600D01*
X009457Y036574D01*
X009416Y036551D01*
X009373Y036532D01*
X009329Y036516D01*
X009284Y036504D01*
X009238Y036496D01*
X009191Y036492D01*
X009145Y036492D01*
X009098Y036496D01*
X009052Y036504D01*
X009007Y036516D01*
X008963Y036532D01*
X008920Y036551D01*
X008879Y036574D01*
X008840Y036600D01*
X008804Y036629D01*
X008770Y036662D01*
X008739Y036697D01*
X008711Y036734D01*
X008687Y036774D01*
X008666Y036816D01*
X008648Y036859D01*
X008635Y036904D01*
X008625Y036950D01*
X008619Y036996D01*
X008617Y037043D01*
X057642Y038093D02*
X057644Y038140D01*
X057650Y038186D01*
X057660Y038232D01*
X057673Y038277D01*
X057691Y038320D01*
X057712Y038362D01*
X057736Y038402D01*
X057764Y038439D01*
X057795Y038474D01*
X057829Y038507D01*
X057865Y038536D01*
X057904Y038562D01*
X057945Y038585D01*
X057988Y038604D01*
X058032Y038620D01*
X058077Y038632D01*
X058123Y038640D01*
X058170Y038644D01*
X058216Y038644D01*
X058263Y038640D01*
X058309Y038632D01*
X058354Y038620D01*
X058398Y038604D01*
X058441Y038585D01*
X058482Y038562D01*
X058521Y038536D01*
X058557Y038507D01*
X058591Y038474D01*
X058622Y038439D01*
X058650Y038402D01*
X058674Y038362D01*
X058695Y038320D01*
X058713Y038277D01*
X058726Y038232D01*
X058736Y038186D01*
X058742Y038140D01*
X058744Y038093D01*
X058742Y038046D01*
X058736Y038000D01*
X058726Y037954D01*
X058713Y037909D01*
X058695Y037866D01*
X058674Y037824D01*
X058650Y037784D01*
X058622Y037747D01*
X058591Y037712D01*
X058557Y037679D01*
X058521Y037650D01*
X058482Y037624D01*
X058441Y037601D01*
X058398Y037582D01*
X058354Y037566D01*
X058309Y037554D01*
X058263Y037546D01*
X058216Y037542D01*
X058170Y037542D01*
X058123Y037546D01*
X058077Y037554D01*
X058032Y037566D01*
X057988Y037582D01*
X057945Y037601D01*
X057904Y037624D01*
X057865Y037650D01*
X057829Y037679D01*
X057795Y037712D01*
X057764Y037747D01*
X057736Y037784D01*
X057712Y037824D01*
X057691Y037866D01*
X057673Y037909D01*
X057660Y037954D01*
X057650Y038000D01*
X057644Y038046D01*
X057642Y038093D01*
X053679Y003105D02*
X053681Y003152D01*
X053687Y003198D01*
X053697Y003244D01*
X053710Y003289D01*
X053728Y003332D01*
X053749Y003374D01*
X053773Y003414D01*
X053801Y003451D01*
X053832Y003486D01*
X053866Y003519D01*
X053902Y003548D01*
X053941Y003574D01*
X053982Y003597D01*
X054025Y003616D01*
X054069Y003632D01*
X054114Y003644D01*
X054160Y003652D01*
X054207Y003656D01*
X054253Y003656D01*
X054300Y003652D01*
X054346Y003644D01*
X054391Y003632D01*
X054435Y003616D01*
X054478Y003597D01*
X054519Y003574D01*
X054558Y003548D01*
X054594Y003519D01*
X054628Y003486D01*
X054659Y003451D01*
X054687Y003414D01*
X054711Y003374D01*
X054732Y003332D01*
X054750Y003289D01*
X054763Y003244D01*
X054773Y003198D01*
X054779Y003152D01*
X054781Y003105D01*
X054779Y003058D01*
X054773Y003012D01*
X054763Y002966D01*
X054750Y002921D01*
X054732Y002878D01*
X054711Y002836D01*
X054687Y002796D01*
X054659Y002759D01*
X054628Y002724D01*
X054594Y002691D01*
X054558Y002662D01*
X054519Y002636D01*
X054478Y002613D01*
X054435Y002594D01*
X054391Y002578D01*
X054346Y002566D01*
X054300Y002558D01*
X054253Y002554D01*
X054207Y002554D01*
X054160Y002558D01*
X054114Y002566D01*
X054069Y002578D01*
X054025Y002594D01*
X053982Y002613D01*
X053941Y002636D01*
X053902Y002662D01*
X053866Y002691D01*
X053832Y002724D01*
X053801Y002759D01*
X053773Y002796D01*
X053749Y002836D01*
X053728Y002878D01*
X053710Y002921D01*
X053697Y002966D01*
X053687Y003012D01*
X053681Y003058D01*
X053679Y003105D01*
D11*
X014843Y009705D03*
X001818Y006205D03*
X012720Y036120D03*
X013720Y036120D03*
X014720Y036120D03*
X014720Y037120D03*
X013720Y037120D03*
X012720Y037120D03*
X038060Y037180D03*
X039060Y037180D03*
X040060Y037180D03*
X041060Y037180D03*
X042060Y037180D03*
X043060Y037180D03*
X044060Y037180D03*
X045060Y037180D03*
X046060Y037180D03*
X047060Y037180D03*
X047060Y036180D03*
X046060Y036180D03*
X045060Y036180D03*
X044060Y036180D03*
X043060Y036180D03*
X042060Y036180D03*
X041060Y036180D03*
X040060Y036180D03*
X039060Y036180D03*
X038060Y036180D03*
D12*
X033680Y028180D03*
X033680Y025180D03*
X027680Y025180D03*
X027680Y028180D03*
D13*
X036900Y031790D03*
X039460Y031790D03*
X039460Y033570D03*
X036900Y033570D03*
X007318Y036693D03*
X006318Y036693D03*
X003960Y037570D03*
X001400Y037570D03*
X001400Y035790D03*
X003960Y035790D03*
D14*
X005180Y033680D03*
X004680Y031680D03*
X003680Y029305D03*
X003680Y028305D03*
X003680Y027305D03*
X003680Y026305D03*
X003680Y025305D03*
X006680Y025305D03*
X006680Y026305D03*
X006680Y027305D03*
X006680Y028305D03*
X006680Y029305D03*
X008680Y031680D03*
X008180Y033680D03*
X010680Y034680D03*
X012180Y033680D03*
X015180Y033680D03*
X010680Y037680D03*
X015680Y027680D03*
X013930Y026180D03*
X013930Y025180D03*
X013930Y024180D03*
X013930Y023180D03*
X013930Y022180D03*
X015680Y022680D03*
X015680Y024680D03*
X010930Y024180D03*
X010930Y025180D03*
X010930Y026180D03*
X010930Y023180D03*
X010930Y022180D03*
X009430Y020680D03*
X009430Y019680D03*
X011180Y020180D03*
X012180Y020180D03*
X015680Y019680D03*
X015680Y016180D03*
X015680Y015180D03*
X016118Y010655D03*
X016118Y009655D03*
X011718Y008180D03*
X010718Y008180D03*
X008180Y008180D03*
X007180Y008180D03*
X002680Y011418D03*
X001680Y011418D03*
X003443Y013380D03*
X001805Y013430D03*
X001805Y014430D03*
X003443Y014380D03*
X004180Y015680D03*
X004180Y016930D03*
X003305Y018430D03*
X002305Y018430D03*
X001180Y016930D03*
X001180Y015680D03*
X036680Y015180D03*
X036680Y016680D03*
X040680Y016680D03*
X040680Y015180D03*
X040680Y012680D03*
X040680Y011180D03*
X040680Y008680D03*
X040680Y007180D03*
X040180Y005180D03*
X043180Y005180D03*
X044180Y005180D03*
X047180Y005180D03*
X050680Y007180D03*
X050680Y008680D03*
X050680Y011180D03*
X050680Y012680D03*
X050680Y015180D03*
X050680Y016680D03*
X047530Y019168D03*
X046530Y019168D03*
X051180Y019680D03*
X052180Y019680D03*
X053380Y019680D03*
X054380Y019680D03*
X054680Y016680D03*
X054680Y015180D03*
X054680Y012680D03*
X054680Y011180D03*
X054680Y008680D03*
X054680Y007180D03*
X036680Y007180D03*
X036680Y008680D03*
X036680Y011180D03*
X036680Y012680D03*
X038580Y020180D03*
X039580Y020180D03*
X041580Y022380D03*
X042580Y022380D03*
X043380Y023880D03*
X044380Y023880D03*
X042280Y025580D03*
X041280Y025580D03*
X039580Y028180D03*
X038580Y028180D03*
X041380Y029980D03*
X042380Y029980D03*
X045880Y030680D03*
X046880Y030680D03*
X048380Y030580D03*
X052380Y030580D03*
X053980Y028980D03*
X054980Y028980D03*
X054480Y026680D03*
X055480Y026680D03*
D15*
X038580Y025180D03*
X038580Y023180D03*
X004305Y020305D03*
X002305Y020305D03*
D16*
X007318Y017172D03*
X007515Y017172D03*
X007711Y017172D03*
X007908Y017172D03*
X008105Y017172D03*
X008302Y017172D03*
X008499Y017172D03*
X008696Y017172D03*
X008893Y017172D03*
X009089Y017172D03*
X009286Y017172D03*
X009483Y017172D03*
X009680Y017172D03*
X009877Y017172D03*
X010074Y017172D03*
X010271Y017172D03*
X010467Y017172D03*
X010664Y017172D03*
X010861Y017172D03*
X011058Y017172D03*
X011255Y017172D03*
X011452Y017172D03*
X011649Y017172D03*
X011845Y017172D03*
X012042Y017172D03*
X012042Y011188D03*
X011845Y011188D03*
X011649Y011188D03*
X011452Y011188D03*
X011255Y011188D03*
X011058Y011188D03*
X010861Y011188D03*
X010664Y011188D03*
X010467Y011188D03*
X010271Y011188D03*
X010074Y011188D03*
X009877Y011188D03*
X009680Y011188D03*
X009483Y011188D03*
X009286Y011188D03*
X009089Y011188D03*
X008893Y011188D03*
X008696Y011188D03*
X008499Y011188D03*
X008302Y011188D03*
X008105Y011188D03*
X007908Y011188D03*
X007711Y011188D03*
X007515Y011188D03*
X007318Y011188D03*
D17*
X006688Y011818D03*
X006688Y012015D03*
X006688Y012211D03*
X006688Y012408D03*
X006688Y012605D03*
X006688Y012802D03*
X006688Y012999D03*
X006688Y013196D03*
X006688Y013393D03*
X006688Y013589D03*
X006688Y013786D03*
X006688Y013983D03*
X006688Y014180D03*
X006688Y014377D03*
X006688Y014574D03*
X006688Y014771D03*
X006688Y014967D03*
X006688Y015164D03*
X006688Y015361D03*
X006688Y015558D03*
X006688Y015755D03*
X006688Y015952D03*
X006688Y016149D03*
X006688Y016345D03*
X006688Y016542D03*
X012672Y016542D03*
X012672Y016345D03*
X012672Y016149D03*
X012672Y015952D03*
X012672Y015755D03*
X012672Y015558D03*
X012672Y015361D03*
X012672Y015164D03*
X012672Y014967D03*
X012672Y014771D03*
X012672Y014574D03*
X012672Y014377D03*
X012672Y014180D03*
X012672Y013983D03*
X012672Y013786D03*
X012672Y013589D03*
X012672Y013393D03*
X012672Y013196D03*
X012672Y012999D03*
X012672Y012802D03*
X012672Y012605D03*
X012672Y012408D03*
X012672Y012211D03*
X012672Y012015D03*
X012672Y011818D03*
D18*
X002805Y009480D02*
X002805Y008880D01*
X001805Y008880D02*
X001805Y009480D01*
X002180Y002480D02*
X002180Y001880D01*
X003180Y001880D02*
X003180Y002480D01*
X004180Y002480D02*
X004180Y001880D01*
X005180Y001880D02*
X005180Y002480D01*
X006180Y002480D02*
X006180Y001880D01*
X007180Y001880D02*
X007180Y002480D01*
X008180Y002480D02*
X008180Y001880D01*
X009180Y001880D02*
X009180Y002480D01*
X009130Y022180D02*
X009730Y022180D01*
X009730Y023180D02*
X009130Y023180D01*
X009130Y024180D02*
X009730Y024180D01*
X009730Y025180D02*
X009130Y025180D01*
X009130Y026180D02*
X009730Y026180D01*
X009730Y027180D02*
X009130Y027180D01*
X009130Y028180D02*
X009730Y028180D01*
X009730Y029180D02*
X009130Y029180D01*
X002480Y029305D02*
X001880Y029305D01*
X001880Y028305D02*
X002480Y028305D01*
X002480Y027305D02*
X001880Y027305D01*
X001880Y026305D02*
X002480Y026305D01*
X002480Y025305D02*
X001880Y025305D01*
X001880Y024305D02*
X002480Y024305D01*
X002480Y023305D02*
X001880Y023305D01*
X001880Y022305D02*
X002480Y022305D01*
X002480Y030930D02*
X001880Y030930D01*
X001880Y031930D02*
X002480Y031930D01*
X002480Y032930D02*
X001880Y032930D01*
X001880Y033930D02*
X002480Y033930D01*
X017680Y036880D02*
X017680Y037480D01*
X018680Y037480D02*
X018680Y036880D01*
X019680Y036880D02*
X019680Y037480D01*
X020680Y037480D02*
X020680Y036880D01*
X021680Y036880D02*
X021680Y037480D01*
X022680Y037480D02*
X022680Y036880D01*
X023680Y036880D02*
X023680Y037480D01*
X024680Y037480D02*
X024680Y036880D01*
X027180Y036880D02*
X027180Y037480D01*
X028180Y037480D02*
X028180Y036880D01*
X029180Y036880D02*
X029180Y037480D01*
X030180Y037480D02*
X030180Y036880D01*
X031180Y036880D02*
X031180Y037480D01*
X032180Y037480D02*
X032180Y036880D01*
X033180Y036880D02*
X033180Y037480D01*
X034180Y037480D02*
X034180Y036880D01*
X041680Y033980D02*
X041680Y033380D01*
X042680Y033380D02*
X042680Y033980D01*
X043680Y033980D02*
X043680Y033380D01*
X044680Y033380D02*
X044680Y033980D01*
X045680Y033980D02*
X045680Y033380D01*
X046680Y033380D02*
X046680Y033980D01*
X047680Y033980D02*
X047680Y033380D01*
X048680Y033380D02*
X048680Y033980D01*
X050680Y033980D02*
X050680Y033380D01*
X051680Y033380D02*
X051680Y033980D01*
X052680Y033980D02*
X052680Y033380D01*
X053680Y033380D02*
X053680Y033980D01*
X054680Y033980D02*
X054680Y033380D01*
X055680Y033380D02*
X055680Y033980D01*
X056680Y033980D02*
X056680Y033380D01*
X057680Y033380D02*
X057680Y033980D01*
X057680Y036380D02*
X057680Y036980D01*
X056680Y036980D02*
X056680Y036380D01*
X055680Y036380D02*
X055680Y036980D01*
X054680Y036980D02*
X054680Y036380D01*
X052180Y036380D02*
X052180Y036980D01*
X051180Y036980D02*
X051180Y036380D01*
X050180Y036380D02*
X050180Y036980D01*
X049180Y036980D02*
X049180Y036380D01*
X057380Y029680D02*
X057980Y029680D01*
X057980Y028680D02*
X057380Y028680D01*
X057380Y027680D02*
X057980Y027680D01*
X057980Y026680D02*
X057380Y026680D01*
X057380Y025680D02*
X057980Y025680D01*
X057980Y024680D02*
X057380Y024680D01*
X057380Y022180D02*
X057980Y022180D01*
X057980Y021180D02*
X057380Y021180D01*
X057380Y020180D02*
X057980Y020180D01*
X057980Y019180D02*
X057380Y019180D01*
X057380Y018180D02*
X057980Y018180D01*
X057980Y017180D02*
X057380Y017180D01*
X057380Y016180D02*
X057980Y016180D01*
X057980Y015180D02*
X057380Y015180D01*
X057380Y014180D02*
X057980Y014180D01*
X057980Y013180D02*
X057380Y013180D01*
X057380Y012180D02*
X057980Y012180D01*
X057980Y011180D02*
X057380Y011180D01*
X057380Y010180D02*
X057980Y010180D01*
X057980Y009180D02*
X057380Y009180D01*
X057380Y008180D02*
X057980Y008180D01*
X057980Y007180D02*
X057380Y007180D01*
X057680Y004480D02*
X057680Y003880D01*
X056680Y003880D02*
X056680Y004480D01*
X055680Y004480D02*
X055680Y003880D01*
X055680Y001980D02*
X055680Y001380D01*
X056680Y001380D02*
X056680Y001980D01*
X057680Y001980D02*
X057680Y001380D01*
X053180Y001380D02*
X053180Y001980D01*
X052180Y001980D02*
X052180Y001380D01*
X051180Y001380D02*
X051180Y001980D01*
X050180Y001980D02*
X050180Y001380D01*
X050680Y003880D02*
X050680Y004480D01*
X051680Y004480D02*
X051680Y003880D01*
X052680Y003880D02*
X052680Y004480D01*
X042380Y027580D02*
X042380Y028180D01*
X041380Y028180D02*
X041380Y027580D01*
D19*
X018180Y024180D03*
D20*
X018180Y023180D03*
X018180Y022180D03*
X018180Y021180D03*
X018180Y020180D03*
X018180Y019180D03*
X018180Y018180D03*
X018180Y017180D03*
X018180Y016180D03*
X018180Y015180D03*
X018180Y014180D03*
X018180Y013180D03*
X018180Y012180D03*
X018180Y011180D03*
X018180Y010180D03*
X018180Y009180D03*
X024180Y009180D03*
X024180Y010180D03*
X024180Y011180D03*
X024180Y012180D03*
X024180Y013180D03*
X024180Y014180D03*
X024180Y015180D03*
X024180Y016180D03*
X024180Y017180D03*
X024180Y018180D03*
X024180Y019180D03*
X024180Y020180D03*
X024180Y021180D03*
X024180Y022180D03*
X024180Y023180D03*
X024180Y024180D03*
X044680Y016680D03*
X044680Y015180D03*
X044680Y012680D03*
X044680Y011180D03*
X044680Y008680D03*
X044680Y007180D03*
X048680Y007180D03*
X048680Y008680D03*
X048680Y011180D03*
X048680Y012680D03*
X048680Y015180D03*
X048680Y016680D03*
D21*
X042220Y003190D03*
X040660Y003190D03*
X039100Y003190D03*
X037540Y003190D03*
X035980Y003190D03*
X034420Y003190D03*
X032860Y003190D03*
X031300Y003190D03*
X029740Y003190D03*
X028180Y003190D03*
X026620Y003190D03*
X025060Y003190D03*
X023500Y003190D03*
X021940Y003190D03*
X020380Y003190D03*
X018820Y003190D03*
X017260Y003190D03*
X015700Y003190D03*
X015670Y001670D03*
X017230Y001670D03*
X018790Y001670D03*
X020350Y001670D03*
X021910Y001670D03*
X023470Y001670D03*
X025030Y001670D03*
X026590Y001670D03*
X028150Y001670D03*
X029710Y001670D03*
X031270Y001670D03*
X032830Y001670D03*
X034390Y001670D03*
X035950Y001670D03*
X037510Y001670D03*
X039070Y001670D03*
X040630Y001670D03*
X042190Y001670D03*
D22*
X033915Y009218D02*
X033395Y009218D01*
X033395Y010218D02*
X033915Y010218D01*
X033915Y011218D02*
X033395Y011218D01*
X033395Y012218D02*
X033915Y012218D01*
X033915Y013218D02*
X033395Y013218D01*
X033395Y014218D02*
X033915Y014218D01*
X033915Y015218D02*
X033395Y015218D01*
X033395Y016218D02*
X033915Y016218D01*
X033915Y017218D02*
X033395Y017218D01*
X033395Y018218D02*
X033915Y018218D01*
X033915Y019218D02*
X033395Y019218D01*
X033395Y020218D02*
X033915Y020218D01*
X027915Y020218D02*
X027395Y020218D01*
X027395Y019218D02*
X027915Y019218D01*
X027915Y018218D02*
X027395Y018218D01*
X027395Y017218D02*
X027915Y017218D01*
X027915Y016218D02*
X027395Y016218D01*
X027395Y015218D02*
X027915Y015218D01*
X027915Y014218D02*
X027395Y014218D01*
X027395Y013218D02*
X027915Y013218D01*
X027915Y012218D02*
X027395Y012218D01*
X027395Y011218D02*
X027915Y011218D01*
X027915Y010218D02*
X027395Y010218D01*
X027395Y009218D02*
X027915Y009218D01*
X028180Y030920D02*
X028180Y031440D01*
X029180Y031440D02*
X029180Y030920D01*
X030180Y030920D02*
X030180Y031440D01*
X031180Y031440D02*
X031180Y030920D01*
X032180Y030920D02*
X032180Y031440D01*
X033180Y031440D02*
X033180Y030920D01*
X034180Y030920D02*
X034180Y031440D01*
X034180Y033920D02*
X034180Y034440D01*
X033180Y034440D02*
X033180Y033920D01*
X032180Y033920D02*
X032180Y034440D01*
X031180Y034440D02*
X031180Y033920D01*
X030180Y033920D02*
X030180Y034440D01*
X029180Y034440D02*
X029180Y033920D01*
X028180Y033920D02*
X028180Y034440D01*
X024180Y034440D02*
X024180Y033920D01*
X023180Y033920D02*
X023180Y034440D01*
X022180Y034440D02*
X022180Y033920D01*
X021180Y033920D02*
X021180Y034440D01*
X020180Y034440D02*
X020180Y033920D01*
X019180Y033920D02*
X019180Y034440D01*
X018180Y034440D02*
X018180Y033920D01*
X018180Y031440D02*
X018180Y030920D01*
X019180Y030920D02*
X019180Y031440D01*
X020180Y031440D02*
X020180Y030920D01*
X021180Y030920D02*
X021180Y031440D01*
X022180Y031440D02*
X022180Y030920D01*
X023180Y030920D02*
X023180Y031440D01*
X024180Y031440D02*
X024180Y030920D01*
D23*
X046030Y027042D03*
X046030Y026845D03*
X046030Y026649D03*
X046030Y026452D03*
X046030Y026255D03*
X046030Y026058D03*
X046030Y025861D03*
X046030Y025664D03*
X046030Y025467D03*
X046030Y025271D03*
X046030Y025074D03*
X046030Y024877D03*
X046030Y024680D03*
X046030Y024483D03*
X046030Y024286D03*
X046030Y024089D03*
X046030Y023893D03*
X046030Y023696D03*
X046030Y023499D03*
X046030Y023302D03*
X046030Y023105D03*
X046030Y022908D03*
X046030Y022711D03*
X046030Y022515D03*
X046030Y022318D03*
X052330Y022318D03*
X052330Y022515D03*
X052330Y022711D03*
X052330Y022908D03*
X052330Y023105D03*
X052330Y023302D03*
X052330Y023499D03*
X052330Y023696D03*
X052330Y023893D03*
X052330Y024089D03*
X052330Y024483D03*
X052330Y024680D03*
X052330Y024877D03*
X052330Y025074D03*
X052330Y025271D03*
X052330Y025467D03*
X052330Y025664D03*
X052330Y025861D03*
X052330Y026058D03*
X052330Y026452D03*
X052330Y026649D03*
X052330Y026845D03*
X052330Y027042D03*
D24*
X051542Y027830D03*
X051345Y027830D03*
X051149Y027830D03*
X050952Y027830D03*
X050755Y027830D03*
X050558Y027830D03*
X050361Y027830D03*
X050164Y027830D03*
X049967Y027830D03*
X049771Y027830D03*
X049574Y027830D03*
X049377Y027830D03*
X049180Y027830D03*
X048983Y027830D03*
X048786Y027830D03*
X048589Y027830D03*
X048393Y027830D03*
X048196Y027830D03*
X047999Y027830D03*
X047802Y027830D03*
X047605Y027830D03*
X047408Y027830D03*
X047211Y027830D03*
X047015Y027830D03*
X046818Y027830D03*
X046818Y021530D03*
X047015Y021530D03*
X047211Y021530D03*
X047408Y021530D03*
X047605Y021530D03*
X047802Y021530D03*
X047999Y021530D03*
X048196Y021530D03*
X048393Y021530D03*
X048589Y021530D03*
X048786Y021530D03*
X048983Y021530D03*
X049180Y021530D03*
X049377Y021530D03*
X049574Y021530D03*
X049771Y021530D03*
X049967Y021530D03*
X050164Y021530D03*
X050361Y021530D03*
X050558Y021530D03*
X050755Y021530D03*
X050952Y021530D03*
X051149Y021530D03*
X051345Y021530D03*
X051542Y021530D03*
D25*
X052330Y024286D03*
X052330Y026255D03*
D26*
X053420Y022380D03*
X052740Y021470D03*
X022730Y022370D03*
X022070Y022380D03*
D27*
X015680Y022680D02*
X014180Y021180D01*
X011680Y021180D01*
X011180Y020680D01*
X011180Y020180D01*
X011058Y020058D01*
X009430Y019680D02*
X008893Y019217D01*
X008893Y017172D02*
X008905Y017160D01*
X008696Y017172D02*
X008696Y021821D01*
X009055Y022180D01*
X009430Y022180D01*
X009430Y023180D02*
X008805Y023180D01*
X008499Y022874D01*
X008499Y017172D01*
X008302Y017172D02*
X008302Y024052D01*
X008430Y024180D01*
X009430Y024180D01*
X009430Y025180D02*
X008430Y025180D01*
X008105Y024855D01*
X008105Y017172D01*
X007908Y017172D02*
X007908Y025908D01*
X008180Y026180D01*
X009430Y026180D01*
X009430Y027180D02*
X008180Y027180D01*
X007711Y026711D01*
X007711Y017172D01*
X007515Y017172D02*
X007515Y027515D01*
X008180Y028180D01*
X009430Y028180D01*
X009430Y029180D02*
X008680Y029180D01*
X007318Y027818D01*
X007318Y017172D01*
X008905Y016105D02*
X009205Y015805D01*
X010655Y015805D01*
X011058Y016208D01*
X011055Y016180D02*
X011380Y015955D01*
X011405Y015955D01*
X011105Y015605D01*
X011305Y015180D01*
X011496Y015164D01*
X011630Y015555D02*
X011855Y015455D01*
X011568Y015955D02*
X011405Y015955D01*
X011568Y015955D02*
X011505Y016243D01*
X011055Y016180D02*
X011055Y017169D01*
X011058Y017172D01*
X012672Y015361D02*
X012666Y015355D01*
X011543Y013755D02*
X011693Y013605D01*
X011793Y013393D01*
X012672Y013393D01*
X012672Y013393D01*
X014014Y013196D02*
X014318Y012768D01*
X014605Y012368D01*
X014593Y011268D01*
X016118Y010655D01*
X010861Y011188D02*
X010855Y011194D01*
X010664Y012221D02*
X010280Y012605D01*
X008780Y012605D01*
X008505Y012330D01*
X008505Y012355D01*
X008255Y012605D01*
X007980Y012255D02*
X007830Y012405D01*
X008705Y012055D02*
X009030Y012255D01*
X008705Y011197D02*
X008696Y011188D01*
X008505Y011194D02*
X008499Y011188D01*
X008499Y010236D02*
X008499Y009811D01*
X008305Y009618D01*
X008305Y008518D02*
X008180Y008180D01*
X010718Y008180D02*
X010668Y008693D01*
X010664Y008708D01*
X010718Y008180D02*
X010680Y005180D01*
X012555Y004680D01*
X014730Y003718D01*
X014918Y003180D01*
X015680Y003180D01*
X015690Y003190D01*
X015700Y003190D01*
X005217Y012430D02*
X002680Y011418D01*
X003443Y014380D02*
X003668Y014380D01*
X004411Y014574D02*
X006688Y014574D01*
X006688Y014771D02*
X004964Y014771D01*
X004680Y015180D01*
X004680Y015930D01*
X004180Y016930D01*
X003305Y016930D01*
X002680Y016305D01*
X002680Y015305D01*
X001805Y014430D01*
X001180Y015680D02*
X001180Y016930D01*
X001180Y017305D01*
X002305Y018430D01*
X002930Y019680D02*
X003930Y018680D01*
X004493Y018005D01*
X004693Y017780D01*
X004693Y017505D01*
X004680Y017180D01*
X004180Y015680D02*
X004411Y014574D01*
X006688Y014967D02*
X006688Y014968D01*
X007618Y014968D01*
X006980Y012605D02*
X006688Y012605D01*
X006688Y012408D02*
X006691Y012405D01*
X006980Y012605D02*
X006980Y012605D01*
X015664Y015164D02*
X015680Y015180D01*
X013930Y022180D02*
X013930Y023180D01*
X013930Y024180D01*
X013930Y025180D01*
X013930Y026180D01*
X013930Y028180D01*
X012930Y029180D01*
X012805Y029180D01*
X012555Y029430D01*
X012555Y029805D01*
X012430Y029930D01*
X006680Y029930D01*
X006305Y030305D01*
X005305Y030305D01*
X004680Y030930D01*
X004680Y031680D01*
X002180Y031930D01*
X002180Y032930D02*
X002205Y032930D01*
X007305Y032930D01*
X008180Y033680D01*
X009180Y034680D01*
X010680Y034680D01*
X011660Y035660D01*
X011660Y037740D01*
X012100Y038180D01*
X014360Y038180D01*
X014720Y037820D01*
X014720Y037120D01*
X011680Y033680D02*
X010680Y034680D01*
X011680Y033680D02*
X012180Y033680D01*
X013680Y032180D01*
X013680Y029180D01*
X014680Y028180D01*
X014680Y025680D01*
X015680Y024680D01*
X015680Y022680D01*
X006680Y025305D02*
X006680Y026305D01*
X006680Y027305D01*
X006680Y028305D01*
X006680Y029305D01*
X006680Y029930D01*
X003680Y029305D02*
X002180Y029305D01*
X002180Y028305D02*
X003680Y028305D01*
X003680Y027305D02*
X002180Y027305D01*
X002180Y026305D02*
X003680Y026305D01*
X004430Y025555D01*
X004430Y020930D01*
X004930Y020430D01*
X004930Y019180D01*
X003805Y019930D02*
X003805Y025180D01*
X003680Y025305D01*
X002180Y025305D01*
X002180Y024305D02*
X002805Y024305D01*
X003555Y023555D01*
X003555Y019805D01*
X003305Y019680D02*
X003305Y022680D01*
X002680Y023305D01*
X002180Y023305D01*
X002180Y022305D02*
X002930Y021555D01*
X002930Y019680D01*
X014805Y028930D02*
X016555Y030680D01*
X016555Y033305D01*
X017430Y034180D01*
X018180Y034180D01*
X042280Y025580D02*
X042786Y025074D01*
X046030Y025074D01*
X046037Y025080D01*
X046980Y025080D01*
X047455Y025080D01*
X047680Y025305D01*
X047680Y025980D01*
X049355Y025980D01*
X050430Y027055D01*
X052317Y027055D01*
X052330Y027042D01*
X053042Y027042D01*
X053980Y027980D01*
X053980Y028980D01*
X052330Y026845D02*
X052314Y026830D01*
X050805Y026830D01*
X050555Y026580D01*
X052330Y026649D02*
X054211Y026649D01*
X054480Y026680D01*
X047680Y025980D02*
X047643Y026505D01*
X047555Y026593D01*
X047180Y026593D01*
X047130Y026905D02*
X047405Y026905D01*
X047130Y026905D02*
X047030Y027005D01*
X047030Y027814D01*
X047015Y027830D01*
X046830Y027817D02*
X046818Y026968D01*
X046830Y027817D02*
X046818Y027830D01*
X047080Y025505D02*
X046855Y025280D01*
X046040Y025280D01*
X046030Y025271D01*
X047455Y025080D02*
X047730Y024805D01*
X047730Y023905D01*
X047505Y023680D01*
X047368Y023343D01*
X047405Y023105D01*
X047233Y022908D01*
X046030Y022908D01*
X046030Y023105D02*
X046455Y023105D01*
X047405Y023105D01*
X047505Y022755D01*
X047005Y022480D02*
X046880Y022605D01*
X047005Y022480D02*
X047005Y021540D01*
X047015Y021530D01*
X047211Y021530D02*
X047211Y019511D01*
X047530Y019168D01*
X051180Y019680D02*
X051345Y019845D01*
X051345Y021530D01*
X051542Y021530D02*
X051542Y020618D01*
X051780Y020380D01*
X052380Y020380D01*
X053080Y019680D01*
X053380Y019680D01*
X047080Y023405D02*
X046980Y023305D01*
X046033Y023305D01*
X046030Y023302D01*
X046030Y023105D02*
X043255Y023105D01*
X042580Y022380D01*
X044380Y023880D02*
X044761Y023499D01*
X046030Y023499D01*
X046036Y023505D01*
X046705Y023505D01*
X046930Y023805D01*
X046605Y030180D02*
X046880Y030680D01*
X033655Y016218D02*
X033143Y016218D01*
X032980Y016380D01*
D28*
X024180Y014180D02*
X023480Y014180D01*
X022918Y014180D01*
X022468Y013730D01*
X022468Y012143D01*
X022055Y011730D01*
X021930Y011730D01*
X022793Y011543D02*
X022830Y011543D01*
X023193Y011180D01*
X024180Y011180D01*
X024180Y012180D02*
X023193Y012180D01*
X022843Y012530D01*
X022843Y012655D01*
X023368Y013180D02*
X024180Y013180D01*
X023368Y013180D02*
X022980Y013568D01*
X022980Y013630D01*
X020680Y013680D02*
X020555Y013668D01*
X017318Y013680D01*
X015980Y013680D01*
X015405Y013843D01*
X014577Y014771D01*
X012672Y014771D01*
X012672Y014967D02*
X014730Y014967D01*
X015018Y014680D01*
X020643Y014680D01*
X020655Y014693D01*
X020618Y012718D02*
X020568Y012705D01*
X017568Y012693D01*
X016843Y013230D01*
X015268Y013680D01*
X014511Y014574D01*
X012672Y014574D01*
X012672Y014377D02*
X014458Y014364D01*
X015118Y013530D01*
X016730Y013043D01*
X016730Y012518D01*
X016130Y012505D02*
X016118Y013018D01*
X014968Y013368D01*
X014380Y014168D01*
X012672Y014180D01*
X012672Y013983D02*
X014227Y013983D01*
X014905Y013105D01*
X015230Y012743D01*
X015430Y012493D01*
X014993Y012180D02*
X017480Y012180D01*
X018180Y012180D01*
X018605Y010705D02*
X017568Y010705D01*
X016980Y010955D01*
X016130Y011380D01*
X016855Y010593D02*
X016855Y010118D01*
X017318Y009655D01*
X019018Y009655D01*
X018605Y010705D02*
X020118Y009193D01*
X020668Y009193D01*
X021355Y008505D02*
X021385Y023968D01*
X023538Y024400D01*
X023740Y023740D01*
X024180Y023180D01*
X019630Y028993D02*
X016893Y026255D01*
X016893Y021993D01*
X015230Y020330D01*
X015168Y020330D01*
X014118Y019280D01*
X014118Y016243D01*
X013630Y015755D01*
X012672Y015755D01*
X012672Y015952D02*
X013564Y015952D01*
X013930Y016318D01*
X013930Y019368D01*
X014980Y020380D01*
X016693Y022093D01*
X016693Y026343D01*
X019555Y029205D01*
X028043Y029205D01*
X028255Y029418D01*
X028730Y028993D02*
X029193Y029455D01*
X029193Y031168D01*
X029180Y031180D01*
X028180Y031180D02*
X028180Y030243D01*
X027418Y029480D01*
X019530Y029480D01*
X016505Y026455D01*
X016505Y022193D01*
X013755Y019443D01*
X013755Y016430D01*
X013474Y016149D01*
X012672Y016149D01*
X012672Y015558D02*
X013683Y015558D01*
X014280Y016155D01*
X014280Y016580D01*
X014280Y019155D01*
X014805Y019680D01*
X015680Y019680D01*
X011058Y020058D02*
X011058Y017172D01*
X011058Y016208D01*
X010855Y016405D02*
X010705Y016255D01*
X010555Y016255D01*
X010855Y016405D02*
X010855Y017166D01*
X010861Y017172D01*
X010080Y017166D02*
X010080Y016468D01*
X009930Y016330D01*
X009918Y016230D01*
X010080Y017166D02*
X010074Y017172D01*
X008905Y017160D02*
X008905Y016105D01*
X009155Y015155D02*
X009818Y015318D01*
X009155Y015155D02*
X009080Y015130D01*
X007555Y014180D02*
X006688Y014180D01*
X006688Y013983D02*
X004752Y014021D01*
X004693Y014080D01*
X004414Y013589D02*
X003630Y012805D01*
X004218Y012755D02*
X004855Y013393D01*
X006688Y013393D01*
X006688Y013589D02*
X004414Y013589D01*
X003986Y013786D02*
X003918Y013855D01*
X003205Y013855D01*
X002855Y013505D01*
X002855Y012918D01*
X002955Y012818D01*
X002193Y013930D02*
X001330Y013918D01*
X000555Y014693D01*
X000555Y032393D01*
X001118Y032955D01*
X001805Y032943D01*
X002205Y032930D01*
X001543Y033293D02*
X002180Y033930D01*
X001543Y033293D02*
X000855Y033293D01*
X000505Y033643D01*
X000505Y036305D01*
X001400Y037200D01*
X001400Y037570D01*
X001400Y035790D02*
X002048Y035143D01*
X002818Y035143D01*
X004280Y033680D01*
X005180Y033680D01*
X008680Y033630D02*
X008680Y031680D01*
X008680Y033630D02*
X009230Y034180D01*
X011443Y030943D02*
X011780Y030955D01*
X013068Y030943D01*
X015468Y028943D02*
X017705Y031180D01*
X018180Y031180D01*
X018368Y033068D02*
X017318Y033043D01*
X021768Y032068D02*
X022380Y032680D01*
X021768Y032068D02*
X021768Y031930D01*
X023180Y034180D02*
X023180Y034555D01*
X023743Y035118D01*
X024280Y035118D01*
X024293Y035130D01*
X024805Y035130D01*
X025468Y035793D01*
X025068Y036193D01*
X025068Y036205D01*
X023380Y036180D02*
X023368Y036193D01*
X022980Y036193D01*
X022680Y036493D01*
X022680Y037180D01*
X030180Y034943D02*
X030180Y034180D01*
X030180Y034943D02*
X030255Y035130D01*
X030980Y035018D02*
X031768Y035055D01*
X031980Y034843D01*
X031980Y034380D01*
X032180Y034180D01*
X035093Y033068D02*
X035155Y033005D01*
X035155Y031968D01*
X032180Y031180D02*
X032180Y030505D01*
X030905Y029418D01*
X029755Y029480D01*
X028730Y028993D02*
X019630Y028993D01*
X010930Y026180D02*
X009430Y026180D01*
X009430Y025180D02*
X010930Y025180D01*
X010930Y024180D02*
X009430Y024180D01*
X009430Y023180D02*
X010930Y023180D01*
X010930Y022180D02*
X009430Y022180D01*
X006093Y020480D02*
X006405Y016743D01*
X006605Y016542D01*
X006688Y016542D01*
X006688Y016345D02*
X006290Y016345D01*
X006193Y016443D01*
X005830Y020380D01*
X005055Y021180D01*
X005055Y026930D01*
X003680Y028305D01*
X003680Y027305D02*
X004805Y026180D01*
X004805Y021055D01*
X005618Y020255D01*
X005805Y018230D01*
X006030Y016218D01*
X006211Y016149D01*
X006688Y016149D01*
X006688Y015952D02*
X005908Y015952D01*
X005805Y016305D01*
X005555Y018430D01*
X004930Y019180D01*
X005055Y018305D02*
X005430Y015680D01*
X005677Y015558D01*
X006688Y015558D01*
X006688Y015755D02*
X005730Y015755D01*
X005555Y016180D01*
X005305Y018305D01*
X003805Y019930D01*
X003555Y019805D02*
X005055Y018305D01*
X004930Y017930D02*
X004930Y016430D01*
X005180Y015805D01*
X005180Y015555D01*
X005624Y015361D01*
X006688Y015361D01*
X006688Y015164D02*
X005321Y015164D01*
X004930Y015430D01*
X004930Y015805D01*
X004680Y016430D01*
X004680Y017180D01*
X004930Y017930D02*
X003305Y019680D01*
X005368Y021318D02*
X006093Y020480D01*
X005368Y021318D02*
X005368Y027618D01*
X003680Y029305D01*
X008893Y019217D02*
X008893Y017172D01*
X011030Y014905D02*
X011305Y015180D01*
X011496Y015164D02*
X012672Y015164D01*
X015664Y015164D01*
X014046Y013589D02*
X014993Y012180D01*
X014930Y011693D02*
X020655Y011693D01*
X021880Y009655D02*
X023655Y009655D01*
X024180Y010180D01*
X024180Y009180D02*
X021880Y009180D01*
X021355Y008505D02*
X023155Y006705D01*
X023968Y004830D02*
X024305Y004493D01*
X024305Y002330D01*
X024965Y001670D01*
X025030Y001670D01*
X025843Y002318D02*
X026490Y001670D01*
X026590Y001670D01*
X025843Y002318D02*
X025843Y004605D01*
X025430Y005018D01*
X016755Y005018D01*
X011455Y010318D01*
X011455Y011185D01*
X011452Y011188D01*
X011649Y011188D02*
X011655Y011181D01*
X011655Y010380D01*
X016843Y005193D01*
X017393Y005193D01*
X017405Y005180D01*
X026443Y005180D01*
X026636Y004986D01*
X027380Y004243D01*
X027380Y002305D01*
X028015Y001670D01*
X028150Y001670D01*
X028955Y002293D02*
X029578Y001670D01*
X029710Y001670D01*
X030780Y002268D02*
X031270Y001778D01*
X031270Y001670D01*
X030780Y002268D02*
X030780Y004043D01*
X029293Y005530D01*
X017055Y005530D01*
X012055Y010530D01*
X012055Y011175D01*
X012042Y011188D01*
X011855Y011178D02*
X011855Y010443D01*
X016930Y005368D01*
X027818Y005368D01*
X028955Y004230D01*
X028955Y002293D01*
X032168Y002330D02*
X032168Y004680D01*
X031130Y005718D01*
X017105Y005718D01*
X013368Y009455D01*
X013368Y011618D01*
X013168Y011818D01*
X012672Y011818D01*
X012672Y011818D01*
X012675Y012405D02*
X013155Y012405D01*
X013405Y011993D01*
X013730Y011993D01*
X014168Y012280D02*
X014155Y008918D01*
X017180Y005893D01*
X030180Y005893D01*
X031243Y005893D01*
X032355Y004780D01*
X032355Y004355D01*
X032668Y004043D01*
X041518Y004043D01*
X042220Y003340D01*
X042220Y003190D01*
X032830Y001670D02*
X032828Y001670D01*
X032168Y002330D01*
X023968Y004830D02*
X016630Y004830D01*
X011243Y010218D01*
X011243Y011176D01*
X011255Y011188D01*
X011058Y011188D02*
X011055Y011185D01*
X011055Y010143D01*
X016555Y004643D01*
X022118Y004643D01*
X022680Y004080D01*
X023005Y004080D01*
X022730Y004030D02*
X022730Y002330D01*
X023390Y001670D01*
X023470Y001670D01*
X021910Y001670D02*
X021790Y001670D01*
X021143Y002318D01*
X021143Y004130D01*
X020868Y004405D01*
X016480Y004405D01*
X016455Y004430D01*
X016430Y004430D01*
X011893Y008968D01*
X011680Y008968D01*
X011380Y009018D02*
X011380Y009405D01*
X010664Y010121D01*
X010664Y011188D01*
X010664Y012221D01*
X010855Y011880D02*
X010855Y012680D01*
X011043Y013180D02*
X011043Y013230D01*
X011043Y013180D02*
X011418Y012805D01*
X012669Y012805D01*
X012672Y012802D01*
X012679Y012993D02*
X013893Y012993D01*
X014368Y012355D01*
X014368Y011143D01*
X014843Y010680D01*
X014843Y009705D01*
X012968Y007555D02*
X016330Y004193D01*
X017168Y004193D01*
X017180Y004205D01*
X019205Y004205D01*
X019643Y003768D01*
X019643Y002268D01*
X020240Y001670D01*
X020350Y001670D01*
X018790Y001670D02*
X018578Y001670D01*
X017980Y002268D01*
X017980Y003718D01*
X017693Y004005D01*
X016255Y004005D01*
X013193Y007068D01*
X012193Y007068D01*
X012743Y006593D02*
X013393Y006593D01*
X016180Y003805D01*
X016318Y003805D01*
X016455Y003668D01*
X016455Y002255D01*
X017040Y001670D01*
X017230Y001670D01*
X015530Y003918D02*
X015468Y004218D01*
X013493Y006193D01*
X013380Y006193D01*
X012218Y006193D01*
X012768Y005868D02*
X013543Y005868D01*
X014618Y004805D01*
X014768Y004380D01*
X013943Y004905D02*
X012818Y004905D01*
X012230Y005493D01*
X010193Y005868D02*
X009593Y005868D01*
X009293Y006168D01*
X009293Y008305D01*
X009493Y008505D01*
X009493Y011179D01*
X009483Y011188D01*
X009293Y011182D02*
X009293Y008580D01*
X009105Y008393D01*
X009105Y005993D01*
X009618Y005480D01*
X009643Y005480D01*
X009880Y005093D02*
X009368Y005093D01*
X008918Y005543D01*
X008918Y008518D01*
X009093Y008693D01*
X009093Y011185D01*
X009089Y011188D01*
X008893Y011188D02*
X008893Y011188D01*
X008893Y008780D01*
X008743Y008630D01*
X008743Y005455D01*
X009518Y004680D01*
X009605Y004680D01*
X009880Y005093D02*
X010193Y005093D01*
X009655Y006443D02*
X009618Y006518D01*
X009480Y006730D01*
X009480Y008193D01*
X009680Y008393D01*
X009680Y011188D01*
X009877Y011188D02*
X009880Y011185D01*
X009880Y008318D01*
X009668Y008105D01*
X009668Y006955D01*
X010043Y006580D01*
X010218Y006580D01*
X010230Y007055D02*
X010093Y007055D01*
X009855Y007293D01*
X009855Y007993D01*
X010080Y008218D01*
X010080Y011182D01*
X010074Y011188D01*
X010268Y011185D02*
X010268Y007655D01*
X010664Y008708D02*
X011380Y009018D01*
X011361Y009405D02*
X011380Y009405D01*
X010918Y009293D02*
X010880Y009355D01*
X010468Y009918D01*
X010468Y011188D01*
X010467Y011188D01*
X010271Y011188D02*
X010268Y011185D01*
X010855Y011194D02*
X010855Y011880D01*
X010280Y012605D02*
X010280Y013030D01*
X011030Y013780D01*
X011030Y014905D01*
X011543Y014855D02*
X011543Y014068D01*
X011618Y013993D01*
X011030Y013780D02*
X011555Y013205D01*
X012663Y013205D01*
X012672Y013196D01*
X014014Y013196D01*
X014046Y013589D02*
X012672Y013589D01*
X012672Y012999D02*
X012679Y012993D01*
X012672Y012605D02*
X012685Y012593D01*
X013718Y012593D01*
X013730Y012580D01*
X013880Y012580D01*
X014168Y012280D01*
X012675Y012405D02*
X012672Y012408D01*
X011845Y011188D02*
X011855Y011178D01*
X009293Y011182D02*
X009286Y011188D01*
X008705Y011197D02*
X008705Y012055D01*
X008505Y012330D02*
X008505Y011194D01*
X008499Y011188D02*
X008499Y010236D01*
X006688Y011818D02*
X006230Y011818D01*
X005655Y011805D01*
X005455Y011618D01*
X005443Y011543D01*
X005443Y009855D01*
X001818Y006205D01*
X001805Y009180D02*
X001805Y009980D01*
X002018Y010193D01*
X004593Y010193D01*
X005018Y010618D01*
X005018Y011680D01*
X005549Y012211D01*
X006688Y012211D01*
X006691Y012405D02*
X007830Y012405D01*
X008255Y012605D02*
X006980Y012605D01*
X006688Y012605D02*
X006280Y012605D01*
X006168Y012430D01*
X005217Y012430D01*
X005380Y012730D02*
X005530Y013030D01*
X006180Y013018D01*
X006286Y012999D01*
X006688Y012999D01*
X006688Y013196D02*
X005146Y013196D01*
X004855Y012730D01*
X005918Y012730D02*
X006177Y012802D01*
X006688Y012802D01*
X006688Y012015D02*
X005615Y012015D01*
X005255Y011655D01*
X005255Y009955D01*
X004480Y009180D01*
X002805Y009180D01*
X002193Y013930D02*
X002655Y014368D01*
X003668Y014380D01*
X011855Y015455D02*
X011868Y015443D01*
X011955Y015355D01*
X011968Y015355D01*
X012018Y015355D01*
X012666Y015355D01*
X012743Y007568D02*
X012755Y007555D01*
X012968Y007555D01*
X021480Y004093D02*
X021940Y003583D01*
X021940Y003190D01*
X022730Y004030D02*
X022680Y004080D01*
X046618Y019892D02*
X047018Y019555D01*
X047018Y018968D01*
X048305Y017655D01*
X052693Y017655D01*
X053430Y016918D01*
X053430Y014543D01*
X055330Y012643D01*
X055330Y011318D01*
X056493Y010155D01*
X057655Y010155D01*
X057680Y010180D01*
X057680Y009180D02*
X055468Y009180D01*
X053218Y011430D01*
X053218Y016855D01*
X052580Y017493D01*
X047418Y017493D01*
X044430Y020480D01*
X044430Y021493D01*
X045243Y022318D01*
X045493Y022318D01*
X045580Y022318D01*
X046030Y022318D01*
X046030Y022515D02*
X045190Y022515D01*
X044205Y021530D01*
X044205Y020418D01*
X047318Y017305D01*
X052493Y017305D01*
X053030Y016768D01*
X053030Y011305D01*
X056155Y008180D01*
X057680Y008180D01*
X057680Y007180D02*
X057668Y007168D01*
X056543Y007168D01*
X056205Y007505D01*
X056205Y007843D01*
X052830Y011218D01*
X052830Y016693D01*
X052393Y017130D01*
X047230Y017130D01*
X043955Y020380D01*
X043955Y021543D01*
X045124Y022711D01*
X046030Y022711D01*
X047211Y022511D02*
X047211Y021530D01*
X047408Y021530D02*
X047408Y019852D01*
X049430Y017830D01*
X052793Y017830D01*
X053618Y017005D01*
X053618Y014630D01*
X055543Y012705D01*
X055543Y011893D01*
X056243Y011193D01*
X057668Y011193D01*
X057680Y011180D01*
X057680Y012180D02*
X057643Y012218D01*
X056130Y012218D01*
X055755Y012593D01*
X055755Y012805D01*
X053843Y014718D01*
X053843Y017068D01*
X052868Y018043D01*
X049518Y018043D01*
X047605Y019955D01*
X047605Y021530D01*
X047802Y021530D02*
X047802Y020008D01*
X049580Y018230D01*
X052968Y018230D01*
X054030Y017168D01*
X054030Y014880D01*
X055730Y013180D01*
X057680Y013180D01*
X057568Y014068D02*
X057680Y014180D01*
X057568Y014068D02*
X056230Y014068D01*
X055068Y015230D01*
X055068Y017330D01*
X053968Y018430D01*
X049643Y018430D01*
X047999Y020074D01*
X047999Y021530D01*
X049180Y021530D02*
X049180Y025580D01*
X049155Y025605D01*
X049180Y027830D02*
X049180Y031768D01*
X050330Y032918D01*
X050330Y033330D01*
X050680Y033680D01*
X050505Y032843D02*
X051555Y032843D01*
X051680Y032968D01*
X051680Y033680D01*
X052680Y033680D02*
X052680Y032843D01*
X052499Y032661D01*
X052468Y032630D01*
X050605Y032630D01*
X049574Y031599D01*
X049574Y027830D01*
X049771Y027830D02*
X049771Y031483D01*
X050718Y032430D01*
X053380Y032430D01*
X053405Y032455D01*
X053705Y032755D01*
X053705Y033655D01*
X053680Y033680D01*
X054680Y033680D02*
X054693Y033668D01*
X054693Y032568D01*
X054380Y032255D01*
X053680Y032255D01*
X050843Y032255D01*
X049967Y031380D01*
X049967Y027830D01*
X050164Y027830D02*
X050164Y031277D01*
X050968Y032080D01*
X055180Y032080D01*
X055680Y032580D01*
X055680Y033680D01*
X056680Y033680D02*
X056680Y032518D01*
X056055Y031893D01*
X055480Y031893D01*
X051080Y031893D01*
X050361Y031174D01*
X050361Y027830D01*
X050558Y027830D02*
X050558Y028480D01*
X050558Y031095D01*
X051180Y031718D01*
X057218Y031718D01*
X057668Y032168D01*
X057668Y033668D01*
X057680Y033680D01*
X058155Y031555D02*
X058630Y031043D01*
X058618Y023118D01*
X057680Y022180D01*
X058568Y022068D02*
X058568Y022518D01*
X058568Y022068D02*
X057680Y021180D01*
X057568Y020293D02*
X056630Y020293D01*
X056305Y020618D01*
X056305Y023780D01*
X054843Y025243D01*
X054843Y025505D01*
X053896Y026452D01*
X052330Y026452D01*
X052330Y026255D02*
X053805Y026255D01*
X054630Y025430D01*
X054630Y025155D01*
X056093Y023693D01*
X056093Y019955D01*
X056855Y019193D01*
X057668Y019193D01*
X057680Y019180D01*
X057680Y018180D02*
X056643Y018180D01*
X055893Y018930D01*
X055893Y023605D01*
X054430Y025068D01*
X054430Y025355D01*
X053727Y026058D01*
X052330Y026058D01*
X052330Y025861D02*
X053574Y025861D01*
X054230Y025205D01*
X054230Y024943D01*
X055655Y023518D01*
X055655Y017755D01*
X056243Y017168D01*
X057668Y017168D01*
X057680Y017180D01*
X057680Y016180D02*
X056180Y016180D01*
X055443Y016918D01*
X055443Y023443D01*
X054030Y024855D01*
X054030Y025093D01*
X053458Y025664D01*
X052330Y025664D01*
X052330Y025467D02*
X053380Y025467D01*
X053843Y025005D01*
X053843Y024768D01*
X055255Y023355D01*
X055255Y016080D01*
X056168Y015168D01*
X057668Y015168D01*
X057680Y015180D01*
X057680Y020180D02*
X057568Y020293D01*
X058143Y023193D02*
X058455Y023480D01*
X058455Y030918D01*
X058080Y031343D01*
X054505Y031343D01*
X053118Y029955D01*
X052218Y029955D01*
X051542Y029280D01*
X051542Y028780D01*
X051542Y027830D01*
X051345Y027830D02*
X051345Y029080D01*
X051345Y029358D01*
X052130Y030143D01*
X053005Y030143D01*
X054418Y031543D01*
X058155Y031555D01*
X050505Y032843D02*
X049377Y031714D01*
X049377Y027830D01*
X048983Y027830D02*
X048983Y031846D01*
X049043Y031905D01*
X049068Y031905D01*
X049680Y032518D01*
X049680Y034568D01*
X049143Y035105D01*
X044780Y035105D01*
X044755Y035105D01*
X044680Y033680D02*
X044680Y031968D01*
X044905Y031743D01*
X044905Y027143D01*
X045399Y026649D01*
X046030Y026649D01*
X046030Y026845D02*
X045515Y026845D01*
X045168Y027193D01*
X045168Y031705D01*
X045680Y032218D01*
X045680Y033680D01*
X046680Y033680D02*
X046680Y032293D01*
X046368Y031980D01*
X045705Y031980D01*
X045393Y031668D01*
X045393Y029680D01*
X045393Y027243D01*
X045593Y027042D01*
X046030Y027042D01*
X046030Y026452D02*
X045283Y026452D01*
X044555Y027180D01*
X044555Y031505D01*
X043668Y032393D01*
X043668Y033668D01*
X043680Y033680D01*
X042680Y033680D02*
X042680Y032543D01*
X042943Y032280D01*
X043418Y032280D01*
X044318Y031380D01*
X044318Y027143D01*
X045205Y026255D01*
X046030Y026255D01*
X046030Y026058D02*
X044490Y026058D01*
X043030Y027518D01*
X042743Y027518D01*
X042380Y027880D01*
X044018Y027143D02*
X044005Y031355D01*
X043318Y032055D01*
X042018Y032055D01*
X041693Y032380D01*
X041693Y033668D01*
X041680Y033680D01*
X047211Y030161D02*
X047680Y030630D01*
X047680Y033680D01*
X048680Y033680D02*
X048680Y032768D01*
X047893Y031980D01*
X047893Y030593D01*
X047408Y030108D01*
X047408Y027830D01*
X047211Y027830D02*
X047211Y030161D01*
X047999Y030199D02*
X048380Y030580D01*
X047999Y030199D02*
X047999Y027830D01*
X042318Y023218D02*
X041580Y022480D01*
X041580Y022380D01*
X040068Y022855D02*
X040055Y023893D01*
X033680Y024293D02*
X033680Y025180D01*
X033680Y024293D02*
X033480Y024093D01*
X031543Y024055D02*
X031543Y029343D01*
X032268Y030080D01*
X046818Y021530D02*
X046818Y020955D01*
X046618Y020655D01*
X047211Y022511D02*
X047505Y022755D01*
D29*
X047805Y022580D03*
X047855Y023243D03*
X046880Y022605D03*
X047355Y024555D03*
X047080Y025505D03*
X048543Y025193D03*
X049155Y025605D03*
X050218Y025280D03*
X050780Y025930D03*
X050555Y026580D03*
X048755Y024505D03*
X046730Y026543D03*
X047405Y026905D03*
X044018Y027143D03*
X041730Y027043D03*
X041780Y025680D03*
X040055Y023893D03*
X040068Y022855D03*
X042318Y023218D03*
X046343Y020280D03*
X046893Y020268D03*
X052155Y018755D03*
X058568Y022518D03*
X058143Y023193D03*
X054418Y030568D03*
X057918Y035193D03*
X046880Y029768D03*
X045968Y029868D03*
X037420Y036180D03*
X035093Y033068D03*
X035155Y031968D03*
X032268Y030080D03*
X029755Y029480D03*
X028255Y029418D03*
X022380Y032680D03*
X021768Y031930D03*
X018368Y033068D03*
X017318Y033043D03*
X017355Y029980D03*
X016643Y029455D03*
X015468Y028943D03*
X014805Y028930D03*
X013930Y028180D03*
X011880Y030305D03*
X013018Y030318D03*
X013068Y030943D03*
X011443Y030943D03*
X009230Y034180D03*
X023380Y036180D03*
X025068Y036205D03*
X030255Y035130D03*
X030980Y035018D03*
X031543Y024055D03*
X033480Y024093D03*
X026693Y017180D03*
X022980Y013630D03*
X022843Y012655D03*
X022793Y011543D03*
X021930Y011730D03*
X020655Y011693D03*
X020618Y012718D03*
X020680Y013680D03*
X020655Y014693D03*
X016730Y012518D03*
X016130Y012505D03*
X015430Y012493D03*
X014930Y011693D03*
X013730Y011993D03*
X012955Y010318D03*
X010918Y009293D03*
X011680Y008968D03*
X012743Y007568D03*
X012193Y007068D03*
X012743Y006593D03*
X012218Y006193D03*
X012768Y005868D03*
X012230Y005493D03*
X013943Y004905D03*
X014768Y004380D03*
X015530Y003918D03*
X010193Y005093D03*
X009643Y005480D03*
X010193Y005868D03*
X010218Y006580D03*
X010230Y007055D03*
X009655Y006443D03*
X010268Y007655D03*
X008580Y009318D03*
X011643Y011880D03*
X010855Y012680D03*
X011043Y013230D03*
X011693Y013605D03*
X011618Y013993D03*
X011543Y014855D03*
X011630Y015555D03*
X011930Y016280D03*
X010555Y016255D03*
X009918Y016230D03*
X009818Y015318D03*
X009080Y015130D03*
X009180Y014093D03*
X009255Y013093D03*
X009030Y012255D03*
X007980Y012255D03*
X005918Y012730D03*
X005380Y012730D03*
X004855Y012730D03*
X004218Y012755D03*
X003630Y012805D03*
X002955Y012818D03*
X004693Y014080D03*
X007555Y014180D03*
X007618Y014968D03*
X010630Y018580D03*
X010543Y020893D03*
X019355Y019855D03*
X020218Y019318D03*
X016130Y011380D03*
X016855Y010593D03*
X015505Y009080D03*
X017030Y008980D03*
X016093Y007980D03*
X015530Y008168D03*
X019018Y009655D03*
X020668Y009193D03*
X021880Y009180D03*
X021880Y009655D03*
X023155Y006705D03*
X023005Y004080D03*
X021480Y004093D03*
X009605Y004680D03*
X035893Y011455D03*
X036693Y010093D03*
X042360Y011680D03*
X043450Y011680D03*
X048380Y003155D03*
X050280Y003143D03*
X048555Y001330D03*
D30*
X048380Y003155D01*
X050280Y003143D02*
X051180Y002243D01*
X051180Y001680D01*
X055680Y001680D02*
X055680Y002555D01*
X055655Y002580D01*
X055680Y002580D01*
X055868Y002768D01*
X056455Y002768D01*
X056655Y002568D01*
X056655Y001705D01*
X056680Y001680D01*
X036693Y010093D02*
X035893Y010718D01*
X035893Y011455D01*
X026693Y017180D02*
X026618Y017305D01*
X026618Y019630D01*
X026468Y019630D01*
X026180Y019918D01*
X026180Y021418D01*
X026246Y021484D01*
X026393Y021630D01*
X026393Y023868D01*
X026398Y023928D01*
X020080Y019780D02*
X020218Y019568D01*
X020218Y019318D01*
X020080Y019780D02*
X019743Y019855D01*
X019355Y019855D01*
X012672Y016542D02*
X012168Y016542D01*
X012068Y016618D01*
X011718Y016618D01*
X011505Y016243D01*
X011930Y016280D02*
X012093Y016018D01*
X012018Y015355D01*
X011968Y015355D02*
X011880Y015443D01*
X011868Y015443D01*
X011755Y015555D01*
X011630Y015555D01*
X010555Y016255D02*
X010455Y016268D01*
X010305Y016305D01*
X010105Y016418D01*
X009918Y016230D01*
X006688Y014377D02*
X004627Y014377D01*
X004624Y014380D01*
X003668Y014380D01*
X003986Y013786D02*
X006688Y013786D01*
X009180Y014093D02*
X009255Y013743D01*
X009255Y013093D01*
X010855Y011880D02*
X011643Y011880D01*
X012205Y011668D01*
X012205Y011655D01*
X012630Y011230D01*
X012955Y010318D01*
X015505Y009080D02*
X015530Y009055D01*
X015530Y008168D01*
X016093Y007980D02*
X016593Y008568D01*
X017030Y008980D01*
X008696Y009421D02*
X008580Y009318D01*
X008696Y009421D02*
X008696Y011188D01*
X009430Y020680D02*
X010543Y020680D01*
X010543Y020893D01*
X016643Y029455D02*
X017355Y029980D01*
X013018Y030318D02*
X011880Y030305D01*
X041730Y027043D02*
X041793Y026980D01*
X041780Y025680D01*
X043380Y023880D02*
X043958Y023302D01*
X046030Y023302D01*
X047080Y023405D02*
X047080Y023643D01*
X047093Y023655D01*
X047255Y024155D01*
X047355Y024555D01*
X046855Y025280D02*
X046718Y025280D01*
X046693Y025305D01*
X046693Y026505D01*
X046730Y026543D01*
X046943Y026830D02*
X046818Y026968D01*
X046943Y026830D02*
X047180Y026593D01*
X047015Y027830D02*
X047015Y029783D01*
X046880Y029768D01*
X046605Y030180D02*
X046368Y028880D01*
X046818Y028617D01*
X046818Y027830D01*
X045968Y029868D02*
X045768Y030568D01*
X045880Y030680D01*
X052330Y026845D02*
X053708Y026845D01*
X054130Y027268D01*
X055305Y027268D01*
X055480Y027443D01*
X054980Y028980D02*
X054980Y029018D01*
X055780Y029818D01*
X055780Y030005D01*
X055155Y030630D01*
X054480Y030630D01*
X054418Y030568D01*
X053918Y034818D02*
X057543Y034818D01*
X057918Y035193D01*
X053918Y034818D02*
X052180Y036555D01*
X052180Y036680D01*
X050780Y025930D02*
X050605Y025930D01*
X050218Y025280D01*
X048805Y024630D02*
X048543Y025193D01*
X048805Y024630D02*
X048755Y024505D01*
X047855Y023243D02*
X047918Y022843D01*
X047805Y022580D01*
X047918Y022255D01*
X048143Y022055D01*
X047015Y021530D02*
X047015Y020327D01*
X046893Y020268D01*
X046343Y020280D02*
X046580Y019218D01*
X046530Y019168D01*
X052155Y018755D02*
X053455Y018755D01*
X054380Y019680D01*
X053843Y020218D01*
X053855Y021223D01*
D31*
X053855Y021223D03*
X053580Y020580D03*
X053580Y020180D03*
X053280Y020180D03*
X052980Y020180D03*
X052780Y020580D03*
X051880Y021180D03*
X051680Y020280D03*
X050980Y020980D03*
X050580Y020980D03*
X050180Y020780D03*
X048480Y020280D03*
X048680Y019780D03*
X049580Y019280D03*
X050860Y019280D03*
X051320Y018940D03*
X050980Y018680D03*
X051780Y018880D03*
X052480Y016680D03*
X054780Y018080D03*
X054980Y017780D03*
X055980Y018380D03*
X056980Y018880D03*
X056980Y019480D03*
X056480Y020080D03*
X056580Y021280D03*
X058480Y021580D03*
X056580Y023180D03*
X054780Y023320D03*
X054490Y022790D03*
X054780Y022080D03*
X054510Y021700D03*
X054780Y020080D03*
X051480Y022280D03*
X050780Y022080D03*
X050380Y022080D03*
X049780Y022080D03*
X049480Y022280D03*
X048730Y022880D03*
X048130Y023618D03*
X048330Y023905D03*
X046580Y023880D03*
X046580Y024480D03*
X045380Y024180D03*
X045180Y023780D03*
X044880Y023880D03*
X045380Y024780D03*
X044780Y022780D03*
X043218Y021930D03*
X041293Y021693D03*
X040068Y022168D03*
X039380Y022980D03*
X038080Y022680D03*
X037880Y021780D03*
X037180Y020480D03*
X035880Y020180D03*
X035080Y020080D03*
X034880Y020480D03*
X034380Y021080D03*
X033980Y021280D03*
X034380Y021680D03*
X034880Y021480D03*
X035280Y021480D03*
X035280Y021880D03*
X035280Y022480D03*
X034680Y022480D03*
X033980Y022080D03*
X032680Y022080D03*
X031580Y021280D03*
X031818Y021068D03*
X031780Y020480D03*
X030980Y020780D03*
X031480Y019880D03*
X031980Y019080D03*
X032580Y018080D03*
X031980Y017280D03*
X032060Y016500D03*
X031760Y016200D03*
X032480Y016080D03*
X032680Y016580D03*
X032680Y016880D03*
X034380Y016780D03*
X035310Y016700D03*
X035300Y017100D03*
X035330Y018230D03*
X036180Y018880D03*
X038980Y019880D03*
X041580Y020480D03*
X043480Y020260D03*
X043470Y019390D03*
X044780Y018580D03*
X044680Y018180D03*
X044980Y017880D03*
X045480Y018380D03*
X045880Y017880D03*
X045880Y019380D03*
X046155Y019705D03*
X046480Y021380D03*
X046518Y021843D03*
X048143Y022055D03*
X051180Y022980D03*
X051080Y023680D03*
X051680Y023780D03*
X051780Y024080D03*
X051680Y024380D03*
X051380Y024980D03*
X049855Y024880D03*
X048118Y025418D03*
X049280Y026280D03*
X049968Y026205D03*
X049580Y026980D03*
X049880Y027280D03*
X050680Y028480D03*
X050980Y028480D03*
X051580Y028780D03*
X051280Y029080D03*
X050880Y029380D03*
X048580Y029380D03*
X047680Y029980D03*
X047180Y030280D03*
X047380Y030980D03*
X048680Y030980D03*
X046180Y029080D03*
X045480Y029680D03*
X043780Y028780D03*
X043280Y027880D03*
X040680Y028780D03*
X040480Y029080D03*
X040480Y029680D03*
X040180Y029680D03*
X039980Y030280D03*
X040780Y030580D03*
X040280Y030880D03*
X040180Y031180D03*
X040280Y032080D03*
X040280Y032380D03*
X041080Y031780D03*
X042280Y031180D03*
X042880Y031780D03*
X041180Y033780D03*
X040280Y033780D03*
X039030Y034260D03*
X038680Y033080D03*
X038680Y032680D03*
X036580Y031280D03*
X035080Y031080D03*
X037380Y029980D03*
X037680Y029980D03*
X038680Y029980D03*
X038980Y030780D03*
X038980Y028480D03*
X039080Y028180D03*
X040718Y026768D03*
X039568Y026668D03*
X038280Y026480D03*
X037880Y025980D03*
X036480Y026580D03*
X036180Y025980D03*
X035880Y025980D03*
X035580Y025980D03*
X035980Y024080D03*
X036280Y024080D03*
X034780Y024180D03*
X034380Y023480D03*
X033680Y023280D03*
X036080Y022480D03*
X040093Y025005D03*
X040980Y023780D03*
X041580Y023280D03*
X040980Y022980D03*
X042180Y024280D03*
X041818Y025218D03*
X045880Y027680D03*
X047280Y027280D03*
X051780Y026580D03*
X054880Y025880D03*
X052880Y024380D03*
X053580Y023680D03*
X052980Y023580D03*
X058880Y026480D03*
X056870Y029860D03*
X058580Y031580D03*
X055480Y031980D03*
X055080Y032980D03*
X053680Y032380D03*
X053280Y032580D03*
X051780Y032680D03*
X049080Y034280D03*
X049580Y035080D03*
X049080Y035380D03*
X047880Y035380D03*
X047280Y035380D03*
X047280Y034780D03*
X044780Y035080D03*
X044780Y035380D03*
X044480Y034480D03*
X043380Y035280D03*
X043380Y035580D03*
X043580Y036080D03*
X042380Y035280D03*
X041880Y035080D03*
X041440Y035050D03*
X041450Y035810D03*
X040370Y035680D03*
X039100Y035500D03*
X038480Y036880D03*
X037380Y035500D03*
X036080Y035580D03*
X035820Y035050D03*
X035280Y034560D03*
X034280Y033480D03*
X032810Y035030D03*
X031593Y035643D03*
X030580Y033680D03*
X032280Y032280D03*
X032280Y031980D03*
X030580Y029780D03*
X033180Y028880D03*
X034180Y028180D03*
X032080Y026880D03*
X032380Y026280D03*
X032080Y025280D03*
X030380Y024780D03*
X029880Y025080D03*
X029230Y024250D03*
X028410Y023470D03*
X029800Y023190D03*
X030610Y023190D03*
X030400Y022000D03*
X029380Y021080D03*
X029080Y021080D03*
X028280Y021000D03*
X028360Y020260D03*
X029400Y020100D03*
X028380Y019180D03*
X028680Y018880D03*
X028770Y018290D03*
X029890Y018370D03*
X030610Y017370D03*
X028960Y016100D03*
X028600Y015460D03*
X027980Y015680D03*
X029400Y014460D03*
X028960Y014020D03*
X028600Y013800D03*
X028920Y013360D03*
X028700Y013140D03*
X029280Y012780D03*
X029500Y013000D03*
X028680Y012180D03*
X028680Y011180D03*
X029500Y010360D03*
X030400Y011360D03*
X032080Y011980D03*
X034280Y010480D03*
X034880Y010780D03*
X034180Y009780D03*
X032980Y009480D03*
X031780Y009680D03*
X032180Y008480D03*
X030480Y007880D03*
X029580Y007880D03*
X028640Y007700D03*
X028220Y007820D03*
X027880Y008180D03*
X026800Y008370D03*
X025260Y009160D03*
X024960Y009460D03*
X024640Y009900D03*
X025260Y010040D03*
X024680Y008880D03*
X025020Y008640D03*
X024480Y007780D03*
X024900Y006390D03*
X023480Y006180D03*
X022180Y007280D03*
X021280Y007880D03*
X020380Y008780D03*
X019180Y007580D03*
X018270Y008490D03*
X015080Y010810D03*
X013130Y010930D03*
X013120Y011520D03*
X014880Y012780D03*
X015770Y013980D03*
X017670Y013980D03*
X018690Y013970D03*
X019110Y014390D03*
X018660Y014920D03*
X019140Y015400D03*
X021790Y014970D03*
X023180Y014680D03*
X021880Y013280D03*
X023680Y010680D03*
X023180Y010180D03*
X023480Y009980D03*
X022600Y009420D03*
X022800Y008490D03*
X026580Y006180D03*
X027380Y006380D03*
X027080Y006980D03*
X028460Y006760D03*
X028680Y006140D03*
X028980Y006180D03*
X029280Y006180D03*
X028480Y005280D03*
X027840Y005000D03*
X027080Y005080D03*
X026780Y005130D03*
X026080Y004780D03*
X024880Y004780D03*
X027140Y003020D03*
X027300Y001300D03*
X029160Y001200D03*
X030220Y001400D03*
X031920Y002720D03*
X031020Y003700D03*
X030220Y004220D03*
X030580Y004580D03*
X029980Y005180D03*
X030280Y005480D03*
X030580Y005480D03*
X031240Y006140D03*
X030940Y006440D03*
X031480Y006680D03*
X031780Y005880D03*
X032680Y004680D03*
X032780Y004280D03*
X033580Y003780D03*
X033800Y003340D03*
X034180Y003780D03*
X034680Y004280D03*
X037280Y003780D03*
X037980Y003680D03*
X038880Y003780D03*
X041280Y004280D03*
X041580Y004280D03*
X042980Y003080D03*
X035130Y005940D03*
X034780Y005980D03*
X035380Y008210D03*
X029880Y009080D03*
X028680Y008480D03*
X026760Y012000D03*
X026735Y013965D03*
X024880Y016280D03*
X024580Y016780D03*
X025180Y018080D03*
X026180Y018780D03*
X026380Y017780D03*
X025100Y019360D03*
X025260Y019960D03*
X025480Y020480D03*
X025560Y021000D03*
X025560Y021300D03*
X025780Y021780D03*
X025780Y022080D03*
X026080Y022080D03*
X027200Y021440D03*
X027760Y022000D03*
X026170Y023260D03*
X026398Y023928D03*
X025690Y024690D03*
X025010Y024140D03*
X025180Y023680D03*
X024500Y024760D03*
X024720Y024970D03*
X023160Y023980D03*
X021220Y024470D03*
X021090Y024970D03*
X020680Y025780D03*
X021780Y026080D03*
X021380Y026880D03*
X021780Y027380D03*
X022280Y026880D03*
X025280Y026880D03*
X026680Y026880D03*
X027380Y028680D03*
X026080Y029880D03*
X024880Y030180D03*
X027480Y031280D03*
X026280Y032780D03*
X022580Y033380D03*
X019780Y031980D03*
X020280Y030480D03*
X020780Y029780D03*
X021280Y029780D03*
X019480Y029880D03*
X018880Y030180D03*
X014568Y031605D03*
X011380Y030180D03*
X012580Y028980D03*
X012280Y028280D03*
X010980Y026680D03*
X012070Y025990D03*
X012580Y025480D03*
X011490Y025240D03*
X010590Y024830D03*
X010060Y024830D03*
X010590Y022620D03*
X011680Y022405D03*
X011970Y022270D03*
X011560Y021440D03*
X011343Y021230D03*
X011780Y020880D03*
X010880Y021580D03*
X010520Y021360D03*
X008940Y021360D03*
X008740Y022620D03*
X006870Y022080D03*
X006770Y022380D03*
X006980Y021780D03*
X007060Y021300D03*
X006280Y021180D03*
X005980Y021380D03*
X009380Y018680D03*
X009480Y017980D03*
X009780Y017980D03*
X010080Y017680D03*
X010680Y017918D03*
X011580Y017980D03*
X011580Y017680D03*
X011380Y016580D03*
X010780Y015580D03*
X010580Y015080D03*
X010580Y014780D03*
X009980Y014380D03*
X010660Y013960D03*
X009880Y013480D03*
X008880Y013680D03*
X007910Y013470D03*
X007190Y013150D03*
X007940Y012840D03*
X008080Y011880D03*
X007580Y011780D03*
X007280Y011780D03*
X006580Y011080D03*
X007980Y010380D03*
X009880Y012280D03*
X012080Y013680D03*
X012080Y014880D03*
X009580Y016580D03*
X009280Y016580D03*
X008020Y015760D03*
X006950Y016830D03*
X006650Y016830D03*
X012580Y020880D03*
X012800Y021420D03*
X013780Y020280D03*
X013780Y019980D03*
X015180Y018380D03*
X014580Y018080D03*
X014880Y016880D03*
X020470Y018890D03*
X021680Y016680D03*
X021980Y016580D03*
X022460Y016900D03*
X023860Y018600D03*
X026843Y019880D03*
X027190Y024690D03*
X029180Y026480D03*
X019390Y024110D03*
X018690Y023900D03*
X017490Y023470D03*
X018180Y025480D03*
X013230Y023530D03*
X007080Y027880D03*
X006280Y029580D03*
X002968Y031368D03*
X001180Y033680D03*
X008980Y033580D03*
X016180Y035180D03*
X018280Y036480D03*
X019380Y036380D03*
X020380Y037880D03*
X027180Y038080D03*
X028780Y037780D03*
X028280Y035880D03*
X033720Y038370D03*
X035870Y037520D03*
X035880Y036480D03*
X040590Y036870D03*
X042680Y037480D03*
X045530Y038370D03*
X048180Y037050D03*
X048880Y037980D03*
X054980Y035680D03*
X058880Y019380D03*
X058680Y019080D03*
X056180Y017580D03*
X051480Y014780D03*
X049780Y014780D03*
X049280Y016380D03*
X047080Y014180D03*
X042980Y014580D03*
X042680Y014180D03*
X041980Y015780D03*
X039980Y015480D03*
X039380Y016580D03*
X040680Y017580D03*
X037980Y015480D03*
X037040Y014740D03*
X036360Y016000D03*
X035880Y016080D03*
X035580Y015480D03*
X035442Y014995D03*
X034280Y014480D03*
X035080Y013780D03*
X035080Y013480D03*
X035365Y012343D03*
X035880Y011870D03*
X037040Y013340D03*
X032380Y014280D03*
X032480Y015080D03*
X017480Y011980D03*
X013380Y006180D03*
X007780Y006280D03*
X003680Y000820D03*
X005860Y000600D03*
X051180Y000680D03*
D32*
X052180Y001680D01*
X051680Y002180D01*
X051680Y004180D01*
X052680Y004180D01*
X051680Y004180D02*
X050680Y004180D01*
X050180Y002180D02*
X050180Y001680D01*
X050180Y002180D02*
X047180Y005180D01*
X045980Y005580D02*
X045993Y003855D01*
X044043Y003268D01*
X042643Y000593D01*
X029780Y000580D01*
X029780Y001580D01*
X029710Y001670D01*
X030220Y001400D02*
X030220Y004220D01*
X030580Y004580D02*
X030580Y005480D01*
X030280Y005480D02*
X029980Y005180D01*
X030180Y005880D02*
X030180Y005893D01*
X030180Y024580D01*
X030380Y024780D01*
X029880Y025080D02*
X029580Y024780D01*
X029580Y024110D01*
X029570Y024100D01*
X029230Y024250D01*
X029580Y024110D02*
X029580Y021180D01*
X029680Y021080D01*
X029680Y013480D01*
X028980Y012780D01*
X028980Y006180D01*
X029280Y006180D02*
X029280Y012780D01*
X029500Y013000D02*
X029500Y010360D01*
X028680Y011180D02*
X028680Y008480D01*
X028380Y008280D02*
X028380Y016080D01*
X028980Y016680D01*
X028980Y020980D01*
X029080Y021080D01*
X029180Y020880D02*
X029180Y013180D01*
X028680Y012680D01*
X028680Y012180D01*
X028680Y011180D01*
X030400Y011360D02*
X030400Y022000D01*
X031255Y021093D02*
X031255Y027393D01*
X029480Y029180D01*
X029480Y028680D01*
X027380Y028680D01*
X027680Y028180D02*
X026980Y027480D01*
X026980Y020080D01*
X027080Y019980D01*
X027080Y019780D01*
X026980Y019680D01*
X026980Y018780D01*
X027980Y018780D01*
X028380Y019180D01*
X028680Y018880D02*
X028380Y018580D01*
X028380Y018080D01*
X028080Y017780D01*
X026980Y017780D01*
X026980Y009080D01*
X027880Y008180D01*
X028220Y007820D02*
X028460Y007580D01*
X028460Y006760D01*
X027380Y006380D02*
X026555Y007205D01*
X026540Y013690D01*
X026735Y013885D01*
X026735Y013965D01*
X028600Y013800D02*
X028700Y013700D01*
X028700Y013140D01*
X028920Y013360D02*
X028960Y013400D01*
X028960Y014020D01*
X029400Y014460D02*
X029400Y020100D01*
X028780Y020380D02*
X028780Y024280D01*
X030080Y025580D01*
X029180Y026480D01*
X031818Y026568D02*
X031818Y021068D01*
X031580Y020980D02*
X031780Y020780D01*
X032080Y020780D01*
X032080Y024980D01*
X033280Y026180D01*
X033280Y028680D01*
X033780Y029180D01*
X033780Y032980D01*
X034280Y033480D01*
X033780Y033180D02*
X032780Y032180D01*
X032780Y025980D01*
X032080Y025280D01*
X032980Y025580D02*
X033680Y026280D01*
X033680Y028180D01*
X034080Y028080D02*
X034080Y022180D01*
X033980Y022080D01*
X033980Y021780D02*
X033980Y021280D01*
X034380Y021080D02*
X034380Y021680D01*
X033980Y021780D02*
X034680Y022480D01*
X035280Y022480D02*
X035280Y021880D01*
X034980Y021780D02*
X035280Y021480D01*
X034880Y021480D02*
X034880Y020480D01*
X035080Y020080D02*
X035780Y020780D01*
X035780Y023580D01*
X036280Y024080D01*
X035980Y024080D02*
X035580Y023680D01*
X035580Y020880D01*
X034380Y019680D01*
X034380Y016780D01*
X034380Y014480D01*
X034280Y014480D01*
X034380Y014480D02*
X034380Y013480D01*
X034580Y013280D01*
X034580Y006080D01*
X032780Y004280D01*
X032680Y004680D02*
X032480Y004880D01*
X032480Y015080D01*
X032380Y014980D01*
X032380Y014280D01*
X032680Y014980D02*
X032780Y015080D01*
X032780Y016480D01*
X032680Y016580D01*
X032680Y016880D02*
X032680Y017980D01*
X032580Y018080D01*
X031980Y017280D02*
X031980Y019080D01*
X031480Y019880D02*
X031480Y006680D01*
X031240Y006140D02*
X030940Y006440D01*
X031780Y005880D02*
X031780Y009680D01*
X031780Y015680D01*
X032280Y016180D01*
X032280Y021680D01*
X032680Y022080D01*
X031580Y021280D02*
X031580Y020980D01*
X031255Y021093D02*
X030980Y020780D01*
X031780Y020480D02*
X031180Y019880D01*
X031180Y012380D01*
X031280Y012280D01*
X031280Y008680D01*
X030480Y007880D01*
X029580Y007880D02*
X029580Y008780D01*
X029880Y009080D01*
X028380Y008280D02*
X027080Y006980D01*
X026380Y006380D02*
X026380Y017780D01*
X026843Y017780D02*
X026843Y019880D01*
X027655Y020218D02*
X027650Y021100D01*
X027200Y021440D02*
X027760Y022000D01*
X028280Y021000D02*
X028280Y020340D01*
X028360Y020260D01*
X028780Y020380D02*
X027680Y019280D01*
X027655Y019218D01*
X028770Y018290D02*
X028770Y017330D01*
X027660Y016220D01*
X027655Y016218D01*
X027980Y015680D02*
X028380Y016080D01*
X028960Y016100D02*
X028960Y015820D01*
X028600Y015460D01*
X030610Y017370D02*
X030610Y023190D01*
X029800Y023190D02*
X029800Y018460D01*
X029890Y018370D01*
X032060Y016500D02*
X031760Y016200D01*
X032080Y015680D02*
X032480Y016080D01*
X032080Y015680D02*
X032080Y011980D01*
X032080Y008580D01*
X032180Y008480D01*
X032680Y009180D02*
X032680Y014980D01*
X033580Y014180D02*
X033655Y014218D01*
X033580Y014180D02*
X032980Y013580D01*
X032980Y009480D01*
X032680Y009180D02*
X033580Y009180D01*
X033655Y009218D01*
X033680Y009280D01*
X034180Y009780D01*
X034280Y010480D02*
X034280Y012580D01*
X033680Y013180D01*
X033655Y013218D01*
X035070Y013450D02*
X035060Y011680D01*
X035160Y011480D01*
X035130Y005940D01*
X034780Y005980D02*
X034780Y010780D01*
X034880Y010780D01*
X034780Y010780D02*
X034780Y019780D01*
X035080Y020080D01*
X035880Y020180D02*
X036080Y020380D01*
X036080Y022480D01*
X034980Y021780D02*
X034980Y023880D01*
X035080Y023980D01*
X035080Y031080D01*
X034580Y030780D02*
X034480Y030680D01*
X034480Y023580D01*
X034380Y023480D01*
X033680Y023280D02*
X033680Y020280D01*
X033655Y020218D01*
X035080Y019080D02*
X035080Y013780D01*
X035080Y013480D02*
X035070Y013450D01*
X035880Y014280D01*
X035880Y016080D01*
X035880Y019480D01*
X036980Y020580D01*
X036980Y029880D01*
X037380Y030280D01*
X037380Y031780D01*
X038680Y033080D01*
X038980Y033280D02*
X038780Y033480D01*
X038780Y035880D01*
X038480Y036180D01*
X038480Y036880D01*
X039480Y036680D02*
X039450Y035660D01*
X039290Y035500D01*
X039100Y035500D01*
X039760Y035190D02*
X039760Y034910D01*
X039030Y034260D01*
X039760Y035190D02*
X040250Y035680D01*
X040370Y035680D01*
X040600Y035550D02*
X040280Y035250D01*
X040280Y033780D01*
X041180Y033780D02*
X041280Y033780D01*
X041280Y031880D01*
X043780Y029380D01*
X043780Y028780D01*
X043280Y027880D02*
X041780Y029380D01*
X041780Y031080D01*
X041080Y031780D01*
X040280Y032080D02*
X040180Y031980D01*
X040180Y031180D01*
X039980Y031280D02*
X038680Y029980D01*
X038980Y029580D02*
X038980Y028480D01*
X039080Y028180D02*
X039280Y028380D01*
X039280Y029580D01*
X039980Y030280D01*
X039880Y029980D02*
X039880Y028380D01*
X039980Y028280D01*
X039980Y025780D01*
X039380Y025180D01*
X039380Y022980D01*
X040380Y023180D02*
X040380Y016880D01*
X040280Y016780D01*
X040280Y005580D01*
X040580Y005280D01*
X040580Y005080D01*
X040280Y004780D01*
X036680Y004780D01*
X036680Y007180D01*
X035400Y007900D02*
X035400Y005000D01*
X034680Y004280D01*
X034180Y003780D02*
X033800Y003400D01*
X033800Y003340D01*
X033580Y003780D02*
X033580Y002480D01*
X034390Y001670D01*
X032880Y001580D02*
X032880Y000980D01*
X042480Y000980D01*
X043830Y003593D01*
X045580Y004080D01*
X045580Y008880D01*
X051480Y014780D01*
X050680Y015180D02*
X048680Y015180D01*
X049780Y014780D02*
X045380Y010380D01*
X045380Y005480D01*
X042980Y003080D01*
X042680Y002780D02*
X042080Y002180D01*
X040680Y002180D01*
X040680Y001680D01*
X040630Y001670D01*
X039070Y001670D02*
X038980Y001680D01*
X038680Y001980D01*
X038680Y003580D01*
X038880Y003780D01*
X037980Y003680D02*
X037980Y002080D01*
X037580Y001680D01*
X037510Y001670D01*
X037080Y002780D02*
X037080Y003580D01*
X037280Y003780D01*
X037080Y002780D02*
X035980Y001680D01*
X035950Y001670D01*
X032880Y001580D02*
X032830Y001670D01*
X031920Y002720D02*
X031720Y002920D01*
X031720Y003560D01*
X031580Y003700D01*
X031020Y003700D01*
X029740Y003190D02*
X029680Y003280D01*
X029180Y003780D01*
X029180Y004580D01*
X028480Y005280D01*
X027840Y005000D02*
X028700Y004140D01*
X028700Y000920D01*
X028600Y000820D01*
X003680Y000820D01*
X005860Y000600D02*
X028560Y000600D01*
X029160Y001200D01*
X028580Y000980D02*
X028580Y002780D01*
X028180Y003180D01*
X028180Y003190D01*
X028180Y003980D01*
X027080Y005080D01*
X026780Y005130D02*
X026636Y004986D01*
X026080Y004780D02*
X025880Y004580D01*
X025843Y004605D01*
X024980Y004680D02*
X024980Y003280D01*
X025060Y003190D01*
X026620Y003190D02*
X026680Y003180D01*
X027080Y002780D01*
X027080Y001180D01*
X010480Y001180D01*
X009893Y003493D01*
X006280Y007280D01*
X006280Y011380D01*
X006580Y011380D01*
X006880Y011080D01*
X006880Y010380D01*
X007780Y010380D01*
X007880Y010480D01*
X007980Y010380D01*
X007880Y010480D02*
X008080Y010680D01*
X008080Y011180D01*
X008105Y011188D01*
X008280Y011180D02*
X008302Y011188D01*
X008280Y011180D02*
X008280Y010118D01*
X008155Y009993D01*
X008143Y008780D01*
X007780Y008280D01*
X007780Y006280D01*
X006580Y007180D02*
X006580Y011080D01*
X006580Y011580D02*
X007080Y011080D01*
X007080Y010780D01*
X007880Y010780D01*
X007880Y011180D01*
X007908Y011188D01*
X007711Y011188D02*
X007680Y011280D01*
X007680Y011480D01*
X008080Y011880D01*
X007580Y011780D02*
X007480Y011680D01*
X007480Y011280D01*
X007515Y011188D01*
X007318Y011188D02*
X007280Y011280D01*
X007280Y011780D01*
X006580Y011580D02*
X006080Y011580D01*
X006080Y007280D01*
X009743Y003393D01*
X010305Y000968D01*
X012380Y000980D01*
X028580Y000980D01*
X027300Y001300D02*
X027240Y001360D01*
X027240Y002920D01*
X027140Y003020D01*
X024980Y004680D02*
X024880Y004780D01*
X023480Y006180D02*
X023480Y006880D01*
X021580Y008780D01*
X021580Y016580D01*
X021680Y016680D01*
X021680Y021680D01*
X024880Y021690D01*
X025290Y022090D01*
X025290Y022980D01*
X025180Y023680D01*
X024820Y023950D02*
X025010Y024140D01*
X024820Y023950D02*
X024820Y022340D01*
X024410Y022180D01*
X024180Y022180D01*
X023990Y022370D01*
X022730Y022370D01*
X022070Y022380D02*
X022070Y023450D01*
X022510Y023890D01*
X022950Y023950D01*
X023160Y023980D01*
X023980Y024680D02*
X024280Y024680D01*
X024480Y024480D01*
X025280Y024480D01*
X025280Y026880D01*
X025480Y025680D02*
X026680Y026880D01*
X025480Y025680D02*
X025480Y021980D01*
X024680Y021180D01*
X024680Y018080D01*
X024280Y017680D01*
X023480Y017680D01*
X023480Y014180D01*
X023180Y014680D02*
X022280Y013780D01*
X022280Y013680D01*
X021880Y013280D01*
X020980Y014880D02*
X020180Y015680D01*
X017680Y015680D01*
X017680Y016280D01*
X018080Y016680D01*
X021180Y016680D01*
X021180Y024160D01*
X023980Y024680D01*
X024330Y024800D02*
X021220Y024800D01*
X021220Y024470D01*
X021090Y024970D02*
X024720Y024970D01*
X024500Y024760D02*
X024370Y024760D01*
X024330Y024800D01*
X025690Y024690D02*
X025690Y023740D01*
X026170Y023260D01*
X026080Y022080D02*
X026080Y021780D01*
X025980Y021680D01*
X025980Y018980D01*
X026180Y018780D01*
X026080Y018680D01*
X026080Y007580D01*
X025780Y007280D01*
X024180Y007280D01*
X024180Y009180D01*
X024200Y009600D02*
X023800Y009600D01*
X023620Y009420D01*
X022600Y009420D01*
X022800Y008490D02*
X024900Y006390D01*
X024480Y007780D02*
X025780Y009080D01*
X025780Y021780D01*
X025780Y022080D02*
X024880Y021180D01*
X024880Y016280D01*
X024580Y016580D02*
X024580Y016780D01*
X024580Y016580D02*
X024180Y016180D01*
X023680Y016680D02*
X024180Y017180D01*
X023680Y016680D02*
X023680Y015680D01*
X024280Y015680D01*
X024680Y015280D01*
X024680Y010680D01*
X024080Y010680D01*
X023680Y010280D01*
X023680Y010180D01*
X023480Y009980D01*
X023180Y010180D02*
X023680Y010680D01*
X024180Y010180D02*
X024380Y010180D01*
X025180Y010980D01*
X025180Y018080D01*
X023860Y018600D02*
X021980Y016720D01*
X021980Y016580D01*
X022190Y016630D02*
X022190Y015370D01*
X021790Y014970D01*
X020980Y014880D02*
X020980Y008180D01*
X021280Y007880D01*
X021180Y008280D02*
X022180Y007280D01*
X021180Y008280D02*
X021180Y016180D01*
X018180Y016180D01*
X017680Y016580D02*
X017680Y018280D01*
X018080Y018680D01*
X020680Y018680D01*
X020680Y025280D01*
X022280Y026880D01*
X021780Y026580D02*
X021780Y027380D01*
X021380Y026880D02*
X018468Y026318D01*
X018480Y025280D01*
X017280Y024080D01*
X017280Y020480D01*
X015180Y018380D01*
X014580Y018080D02*
X017080Y020580D01*
X017080Y024380D01*
X018180Y025480D01*
X018980Y024380D02*
X021180Y026580D01*
X021780Y026580D01*
X021780Y026080D02*
X020880Y025180D01*
X020880Y018680D01*
X019380Y017180D01*
X018180Y017180D01*
X017680Y016580D02*
X014280Y016580D01*
X014880Y016880D02*
X018180Y020180D01*
X018980Y020980D01*
X018980Y024380D01*
X019180Y024280D02*
X019180Y020180D01*
X018180Y019180D01*
X020470Y018890D02*
X020490Y018910D01*
X020490Y023010D01*
X019390Y024110D01*
X019180Y024280D02*
X020680Y025780D01*
X018690Y023900D02*
X018390Y023600D01*
X017490Y023600D01*
X017490Y023470D01*
X016280Y022480D02*
X016280Y027580D01*
X018880Y030180D01*
X018580Y030580D02*
X015680Y027680D01*
X014880Y027980D02*
X014880Y028280D01*
X014480Y028680D01*
X014480Y031080D01*
X016380Y032980D01*
X016380Y033380D01*
X019380Y036380D01*
X020080Y035880D02*
X018680Y034480D01*
X018705Y031718D01*
X018180Y031180D01*
X018580Y031380D02*
X018580Y030580D01*
X019480Y029880D02*
X019580Y029980D01*
X019580Y031880D01*
X019480Y031980D01*
X019480Y032080D01*
X020680Y033280D01*
X020680Y037180D01*
X020280Y037780D02*
X020280Y035080D01*
X019580Y034380D01*
X019580Y032380D01*
X018580Y031380D01*
X019780Y031980D02*
X021680Y033880D01*
X021680Y037180D01*
X020380Y037880D02*
X020280Y037780D01*
X020080Y038780D02*
X020080Y035880D01*
X018280Y036480D02*
X018280Y037880D01*
X015670Y037880D01*
X015470Y037720D01*
X015380Y037640D01*
X014720Y037120D01*
X013720Y036120D02*
X013730Y035180D01*
X014258Y034420D01*
X014988Y034408D01*
X017680Y037180D01*
X020080Y038780D02*
X043480Y038797D01*
X043480Y038780D01*
X043480Y038280D01*
X042680Y037480D01*
X042480Y037380D02*
X041880Y037980D01*
X035880Y037980D01*
X033580Y035651D01*
X033580Y035380D01*
X032580Y034380D01*
X032580Y028980D01*
X032380Y028780D01*
X032380Y026280D01*
X031818Y026568D02*
X032080Y026880D01*
X034080Y028080D02*
X034180Y028180D01*
X033180Y028880D02*
X033180Y031180D01*
X032180Y031180D02*
X029780Y033580D01*
X029780Y036580D01*
X029180Y037180D01*
X028780Y037780D02*
X028780Y033780D01*
X030580Y031980D01*
X030580Y029780D01*
X029480Y029180D02*
X029480Y030480D01*
X030180Y031180D01*
X028580Y031580D02*
X028180Y031180D01*
X028568Y031580D02*
X028568Y032218D01*
X028280Y032505D01*
X028568Y032968D01*
X028580Y037680D01*
X028480Y037780D01*
X028480Y038080D01*
X030280Y038080D01*
X031180Y037180D01*
X030580Y036780D02*
X030180Y037180D01*
X030580Y036780D02*
X030580Y033980D01*
X032280Y032280D01*
X032280Y031980D02*
X030580Y033680D01*
X028280Y034280D02*
X028180Y034180D01*
X028280Y034280D02*
X028280Y035880D01*
X027580Y036580D02*
X028180Y037180D01*
X027580Y036580D02*
X027580Y032880D01*
X024880Y030180D01*
X026080Y029880D02*
X027480Y031280D01*
X028568Y031580D02*
X028580Y031580D01*
X026280Y032780D02*
X026280Y037180D01*
X027180Y038080D01*
X026680Y038380D02*
X032180Y038380D01*
X032180Y037180D01*
X033180Y037180D02*
X031593Y035643D01*
X032810Y035610D02*
X032810Y035030D01*
X032810Y035610D02*
X033700Y036500D01*
X033700Y038350D01*
X033720Y038370D01*
X035870Y037520D02*
X033780Y035480D01*
X033780Y033180D01*
X034780Y033880D02*
X034780Y024180D01*
X032980Y025580D02*
X032980Y016380D01*
X035310Y016700D02*
X035300Y015137D01*
X035442Y014995D01*
X035580Y015480D02*
X035580Y019380D01*
X036780Y020580D01*
X036780Y026580D01*
X036680Y026680D01*
X036680Y031180D01*
X036580Y031280D01*
X036380Y031380D02*
X036180Y031180D01*
X036180Y025980D01*
X035880Y025980D02*
X035880Y031080D01*
X036080Y031280D01*
X036080Y035580D01*
X035820Y035050D02*
X035580Y034880D01*
X035580Y025980D01*
X036480Y026580D02*
X036580Y026480D01*
X036580Y020580D01*
X035080Y019080D01*
X036180Y018880D02*
X037480Y020180D01*
X037480Y020480D01*
X037380Y020580D01*
X037380Y029680D01*
X037680Y029980D01*
X037380Y029980D02*
X037180Y029780D01*
X037180Y020480D01*
X037580Y020580D02*
X037680Y020480D01*
X037680Y015080D01*
X035480Y012880D01*
X035365Y012343D01*
X035740Y011870D02*
X035410Y011340D01*
X035410Y008270D01*
X035380Y008210D01*
X035400Y007900D02*
X037040Y009540D01*
X037040Y013340D01*
X036550Y014360D02*
X035920Y013850D01*
X037040Y014740D02*
X037040Y015320D01*
X036360Y016000D01*
X037880Y015580D02*
X037880Y021780D01*
X038180Y022580D02*
X038180Y020080D01*
X039680Y018580D01*
X039680Y005680D01*
X040180Y005180D01*
X041280Y004280D02*
X041280Y021380D01*
X041293Y021693D01*
X041180Y022280D01*
X041180Y022480D01*
X041280Y022580D01*
X041280Y023980D01*
X040380Y024880D01*
X040380Y028980D01*
X040480Y029080D01*
X040680Y028780D02*
X040955Y028468D01*
X040968Y026443D01*
X040743Y025168D01*
X041818Y025218D01*
X041818Y023943D01*
X042643Y023943D01*
X042643Y023955D01*
X042730Y023955D01*
X042730Y023130D01*
X042205Y022580D01*
X042168Y022355D01*
X041980Y015780D01*
X041980Y004280D01*
X042680Y003580D01*
X042680Y002780D01*
X043930Y003430D02*
X045780Y003980D01*
X045780Y006780D01*
X051780Y012780D01*
X051780Y015980D01*
X052480Y016680D01*
X050680Y016680D02*
X048680Y016680D01*
X049280Y016380D02*
X047080Y014180D01*
X045180Y014680D02*
X044680Y015180D01*
X045180Y014680D02*
X045180Y011680D01*
X044680Y011180D01*
X045180Y010680D01*
X045180Y007680D01*
X044680Y007180D01*
X044680Y008680D02*
X044180Y009180D01*
X044180Y012180D01*
X044680Y012680D01*
X044180Y013180D01*
X044180Y016180D01*
X044680Y016680D01*
X044680Y018180D01*
X044780Y018380D02*
X044780Y018580D01*
X044780Y018380D02*
X045480Y018380D01*
X045880Y017880D02*
X044980Y017880D01*
X045880Y019380D02*
X045880Y021280D01*
X046518Y021843D01*
X046480Y021380D02*
X046068Y021005D01*
X046068Y020043D01*
X046155Y019955D01*
X046155Y019705D01*
X048180Y020280D02*
X048180Y021480D01*
X048196Y021530D01*
X048380Y021580D02*
X048393Y021530D01*
X048380Y021580D02*
X048380Y022693D01*
X048168Y023005D01*
X048130Y023618D01*
X048330Y023905D02*
X048418Y022955D01*
X048580Y022680D01*
X048580Y021580D01*
X048589Y021530D01*
X048780Y021580D02*
X048786Y021530D01*
X048780Y021580D02*
X048780Y022780D01*
X048730Y022880D01*
X049480Y022280D02*
X050280Y023080D01*
X050280Y024905D01*
X051380Y025280D01*
X051680Y024980D01*
X051680Y024680D01*
X052330Y024680D01*
X052330Y024483D02*
X052280Y024480D01*
X051680Y024480D01*
X051680Y024380D01*
X051880Y024280D02*
X051880Y024180D01*
X051780Y024080D01*
X051880Y024280D02*
X052280Y024280D01*
X052330Y024286D01*
X052330Y024089D02*
X052380Y024080D01*
X054280Y024080D01*
X054280Y020280D01*
X054780Y019780D01*
X054780Y018080D01*
X054980Y017780D02*
X055080Y017880D01*
X055060Y023050D01*
X054780Y023320D01*
X054100Y023460D02*
X053580Y023680D01*
X053280Y023880D02*
X053280Y023390D01*
X053960Y023150D01*
X053970Y021660D01*
X053380Y021380D01*
X053280Y020180D01*
X052980Y020180D02*
X052880Y020180D01*
X051880Y021180D01*
X051180Y021580D02*
X051149Y021530D01*
X051180Y021580D02*
X051180Y022980D01*
X051380Y023280D02*
X051380Y024980D01*
X052330Y024877D02*
X052380Y024880D01*
X052880Y024880D01*
X052880Y024380D01*
X053280Y023880D02*
X052380Y023880D01*
X052330Y023893D01*
X052330Y023696D02*
X052380Y023680D01*
X052980Y023680D01*
X052980Y023580D01*
X053220Y023210D02*
X052780Y023080D01*
X052380Y023080D01*
X052330Y023105D01*
X052280Y023280D02*
X052330Y023302D01*
X052280Y023280D02*
X051380Y023280D01*
X051080Y023380D02*
X051080Y023680D01*
X051080Y023380D02*
X051780Y022680D01*
X051780Y022480D01*
X052280Y022480D01*
X052330Y022515D01*
X052330Y022711D02*
X052719Y022711D01*
X052980Y022450D01*
X052980Y021710D01*
X052740Y021470D01*
X053240Y021460D02*
X053140Y020930D01*
X052780Y020580D01*
X051780Y020380D02*
X051680Y020280D01*
X050980Y020980D02*
X050980Y021480D01*
X050952Y021530D01*
X050780Y021580D02*
X050755Y021530D01*
X050780Y021580D02*
X050780Y022080D01*
X050380Y022080D02*
X050380Y021580D01*
X050361Y021530D01*
X050180Y021480D02*
X050164Y021530D01*
X050180Y021480D02*
X050180Y020780D01*
X049980Y020880D02*
X049880Y020780D01*
X049880Y019780D01*
X050980Y018680D01*
X051320Y018940D02*
X050980Y019280D01*
X050860Y019280D01*
X051780Y018880D02*
X052180Y019280D01*
X053780Y019280D01*
X053780Y019980D01*
X053580Y020180D01*
X053580Y020580D02*
X053580Y021330D01*
X054100Y021570D01*
X054100Y023460D01*
X053830Y023010D02*
X053220Y023210D01*
X052892Y022908D02*
X053420Y022380D01*
X053830Y021750D02*
X053830Y023010D01*
X054490Y022790D02*
X054500Y022370D01*
X054510Y021700D01*
X054780Y022080D02*
X054780Y020080D01*
X056480Y020080D02*
X056980Y019580D01*
X056980Y019480D01*
X056980Y018880D02*
X057280Y018580D01*
X058380Y018580D01*
X058380Y009980D01*
X058180Y009780D01*
X055080Y009780D01*
X055080Y010780D01*
X054680Y011180D01*
X054680Y012680D01*
X054680Y015180D02*
X054680Y016680D01*
X056180Y017580D02*
X056180Y018180D01*
X055980Y018380D01*
X058380Y018780D02*
X058580Y018580D01*
X058580Y007180D01*
X056980Y005580D01*
X045980Y005580D01*
X044180Y005180D02*
X043180Y005180D01*
X041580Y004280D02*
X041580Y020480D01*
X042980Y020980D02*
X042980Y014580D01*
X042680Y014180D02*
X042680Y021680D01*
X043218Y021930D01*
X042980Y020980D02*
X044780Y022780D01*
X045180Y023680D02*
X045180Y023780D01*
X045180Y023680D02*
X045980Y023680D01*
X046030Y023696D01*
X046080Y023880D02*
X046030Y023893D01*
X046080Y023880D02*
X046580Y023880D01*
X046930Y023805D02*
X046980Y023780D01*
X046980Y025080D01*
X046580Y024480D02*
X046080Y024480D01*
X046030Y024483D01*
X046030Y024286D02*
X045980Y024280D01*
X045380Y024280D01*
X045380Y024180D01*
X045180Y024280D02*
X042180Y024280D01*
X041580Y023880D02*
X041580Y023280D01*
X041580Y023880D02*
X040518Y024930D01*
X040505Y026593D01*
X040718Y026768D01*
X039568Y026668D02*
X039080Y026080D01*
X039080Y022280D01*
X038980Y022180D01*
X038980Y019880D01*
X038580Y020180D02*
X038580Y023180D01*
X038080Y022680D02*
X038180Y022580D01*
X039968Y022068D02*
X039980Y015480D01*
X040680Y015180D02*
X040680Y016680D01*
X040680Y017580D02*
X040680Y022680D01*
X040980Y022980D01*
X040380Y023180D02*
X040980Y023780D01*
X040093Y025005D02*
X040180Y025680D01*
X040180Y029680D01*
X040180Y029980D02*
X039880Y029980D01*
X040180Y029980D02*
X040480Y029680D01*
X041380Y029980D02*
X041380Y027880D01*
X042280Y026980D01*
X042280Y025580D01*
X044880Y024080D02*
X044880Y023880D01*
X044880Y024080D02*
X045180Y024080D01*
X045380Y023880D01*
X045580Y024080D01*
X045980Y024080D01*
X046030Y024089D01*
X046030Y024680D02*
X045580Y024680D01*
X045180Y024280D01*
X045380Y024780D02*
X045380Y024880D01*
X045980Y024880D01*
X046030Y024877D01*
X048080Y024518D02*
X048968Y023905D01*
X048980Y021580D01*
X048983Y021530D01*
X049377Y021530D02*
X049380Y021480D01*
X049380Y021180D01*
X048480Y020280D01*
X048180Y020280D02*
X048680Y019780D01*
X049580Y019280D02*
X049580Y021480D01*
X049574Y021530D01*
X049771Y021530D02*
X049780Y021580D01*
X049780Y022080D01*
X049967Y021530D02*
X049980Y021480D01*
X049980Y020880D01*
X050580Y020980D02*
X050580Y021480D01*
X050558Y021530D01*
X051480Y022280D02*
X052280Y022280D01*
X052330Y022318D01*
X052330Y022908D02*
X052892Y022908D01*
X052330Y023499D02*
X052280Y023480D01*
X051680Y023480D01*
X051680Y023780D01*
X049855Y024880D02*
X049855Y025718D01*
X049968Y025830D01*
X049968Y026205D01*
X049280Y026280D02*
X050180Y027180D01*
X050180Y027780D01*
X050164Y027830D01*
X049880Y027280D02*
X048980Y027280D01*
X048780Y027480D01*
X048780Y027780D01*
X048786Y027830D01*
X048589Y027830D02*
X048580Y027880D01*
X048580Y029380D01*
X047780Y029880D02*
X047680Y029980D01*
X047780Y029880D02*
X047780Y027880D01*
X047802Y027830D01*
X047605Y027830D02*
X047580Y027780D01*
X047580Y027480D01*
X048080Y026980D01*
X049580Y026980D01*
X050558Y028480D02*
X050680Y028480D01*
X050880Y028580D02*
X050880Y029380D01*
X051280Y029080D02*
X051345Y029080D01*
X051380Y029080D01*
X051542Y028780D02*
X051580Y028780D01*
X050980Y028480D02*
X050880Y028580D01*
X051780Y026580D02*
X051880Y026580D01*
X051980Y026480D01*
X052280Y026480D01*
X052330Y026452D01*
X054880Y025880D02*
X056580Y024180D01*
X056580Y023180D01*
X056890Y021590D02*
X056870Y029860D01*
X055480Y028480D02*
X055480Y027443D01*
X055480Y026680D01*
X056570Y026680D01*
X058880Y026480D02*
X058880Y019380D01*
X058680Y019080D02*
X058780Y018980D01*
X058780Y005280D01*
X057680Y004180D01*
X056680Y004180D01*
X055680Y004180D01*
X054680Y007180D02*
X054680Y008680D01*
X050680Y008680D02*
X048680Y008680D01*
X048680Y007180D02*
X050680Y007180D01*
X043930Y003430D02*
X042580Y000793D01*
X031280Y000780D01*
X031280Y001580D01*
X031270Y001670D01*
X028680Y006140D02*
X028680Y007660D01*
X028640Y007700D01*
X026800Y008370D02*
X026790Y011860D01*
X026760Y012000D01*
X025260Y010040D02*
X024960Y009740D01*
X024960Y009460D01*
X025260Y009160D02*
X025020Y008920D01*
X025020Y008640D01*
X024680Y008880D02*
X025480Y009680D01*
X025480Y020480D01*
X025260Y020700D02*
X025260Y019960D01*
X025040Y019420D02*
X025100Y019360D01*
X025040Y019420D02*
X025040Y020780D01*
X025560Y021300D01*
X025560Y021000D02*
X025260Y020700D01*
X026246Y021484D02*
X026560Y021100D01*
X029180Y020880D02*
X029380Y021080D01*
X028410Y023470D02*
X027190Y024690D01*
X021280Y029780D02*
X021180Y029880D01*
X021180Y031180D01*
X020780Y031580D02*
X020780Y029780D01*
X020280Y030480D02*
X020580Y030780D01*
X020580Y031780D01*
X022780Y033980D01*
X022780Y034580D01*
X024680Y036480D01*
X026080Y036480D01*
X026080Y037780D01*
X026680Y038380D01*
X022580Y033380D02*
X020780Y031580D01*
X016180Y033080D02*
X016180Y035180D01*
X014988Y034408D02*
X015180Y033680D01*
X016180Y033080D02*
X014568Y031605D01*
X011380Y030180D02*
X008980Y032580D01*
X008980Y033580D01*
X005580Y029780D02*
X004280Y031080D01*
X002968Y031368D01*
X005580Y029780D02*
X005580Y021780D01*
X005980Y021380D01*
X006280Y021180D02*
X006280Y029580D01*
X007080Y027880D02*
X007080Y021880D01*
X006980Y021780D01*
X006770Y021980D02*
X006770Y017010D01*
X006950Y016830D01*
X006650Y016830D02*
X006650Y022260D01*
X006770Y022380D01*
X006870Y022080D02*
X006770Y021980D01*
X007060Y021300D02*
X007160Y021200D01*
X007160Y015920D01*
X007900Y015180D01*
X007900Y014040D01*
X007760Y013900D01*
X007080Y013900D01*
X007020Y013960D01*
X006720Y013960D01*
X006688Y013983D01*
X006688Y013589D02*
X006720Y013560D01*
X007520Y013560D01*
X008160Y012920D01*
X008160Y012820D01*
X009520Y012820D01*
X010660Y013960D01*
X010280Y014380D02*
X010080Y014180D01*
X010080Y013680D01*
X009880Y013480D01*
X009980Y014380D02*
X009980Y014480D01*
X010580Y015080D01*
X010580Y014780D02*
X010280Y014480D01*
X010280Y014380D01*
X009705Y014580D02*
X009618Y014493D01*
X008980Y014493D01*
X008880Y014393D01*
X008880Y013680D01*
X008020Y013580D02*
X007910Y013470D01*
X008020Y013580D02*
X008020Y015760D01*
X009280Y016580D02*
X009280Y017080D01*
X009286Y017172D01*
X009480Y017180D02*
X009483Y017172D01*
X009480Y017180D02*
X009480Y017980D01*
X009780Y017980D02*
X009780Y017680D01*
X009880Y017580D01*
X009880Y017180D01*
X009877Y017172D01*
X009680Y017172D02*
X009680Y016680D01*
X009580Y016580D01*
X009089Y017172D02*
X009080Y017180D01*
X009080Y018780D01*
X010880Y020580D01*
X010880Y021580D01*
X010520Y021360D02*
X008940Y021360D01*
X008740Y022620D02*
X010590Y022620D01*
X011680Y022405D02*
X012280Y022980D01*
X012280Y028280D01*
X012580Y028980D02*
X012580Y025480D01*
X012070Y025990D02*
X011490Y025410D01*
X011490Y025240D01*
X010590Y024830D02*
X010060Y024830D01*
X010980Y026680D02*
X009480Y028180D01*
X009430Y028180D01*
X009430Y029180D02*
X009480Y029180D01*
X011280Y027380D01*
X011280Y021280D01*
X011343Y021230D01*
X011560Y021420D02*
X011560Y021440D01*
X011560Y021420D02*
X012800Y021420D01*
X012580Y020880D02*
X012580Y017680D01*
X012080Y017180D01*
X012042Y017172D01*
X011880Y017180D02*
X011845Y017172D01*
X011880Y017180D02*
X011880Y019980D01*
X011780Y020080D01*
X011780Y020880D01*
X011970Y022270D02*
X013230Y023530D01*
X016080Y022580D02*
X016080Y026780D01*
X014880Y027980D01*
X016080Y022580D02*
X013780Y020280D01*
X013780Y019980D02*
X016280Y022480D01*
X010911Y018249D02*
X010630Y018580D01*
X010911Y018249D02*
X010911Y017711D01*
X010868Y017593D01*
X010861Y017172D01*
X010680Y017180D02*
X010664Y017172D01*
X010680Y017180D02*
X010680Y017918D01*
X010480Y017580D02*
X009380Y018680D01*
X010080Y017680D02*
X010280Y017480D01*
X010280Y017180D01*
X010271Y017172D01*
X010467Y017172D02*
X010480Y017180D01*
X010480Y017580D01*
X011280Y017680D02*
X011280Y017180D01*
X011255Y017172D01*
X011452Y017172D02*
X011480Y017080D01*
X011480Y016680D01*
X011380Y016580D01*
X011649Y017172D02*
X011680Y017180D01*
X011680Y017580D01*
X011580Y017680D01*
X011580Y017980D02*
X011280Y017680D01*
X010780Y015580D02*
X009705Y014580D01*
X012080Y014880D02*
X012080Y013680D01*
X012672Y013786D02*
X012680Y013780D01*
X014180Y013780D01*
X014180Y013680D01*
X014580Y013280D01*
X014580Y013080D01*
X014880Y012780D01*
X015770Y013980D02*
X017670Y013980D01*
X018690Y013970D02*
X019110Y014390D01*
X018660Y014920D02*
X019140Y015400D01*
X022190Y016630D02*
X022460Y016900D01*
X026843Y017780D02*
X026980Y017780D01*
X035300Y017100D02*
X035330Y018230D01*
X037580Y020580D02*
X037580Y027680D01*
X038280Y028380D01*
X038280Y032280D01*
X038680Y032680D01*
X038980Y033280D02*
X038980Y033330D01*
X038980Y033280D02*
X038980Y030780D01*
X039980Y031280D02*
X039980Y032080D01*
X040280Y032380D01*
X040280Y030880D02*
X038980Y029580D01*
X040780Y030580D02*
X040780Y035370D01*
X041450Y035810D01*
X041660Y036020D02*
X041660Y036710D01*
X041080Y037180D01*
X041060Y037180D01*
X040460Y037780D01*
X036380Y037780D01*
X036380Y031380D01*
X036900Y031790D02*
X036980Y031880D01*
X036980Y032380D01*
X037380Y032780D01*
X037380Y035500D01*
X036790Y035660D02*
X037310Y036180D01*
X037420Y036180D01*
X036790Y035660D02*
X036790Y033680D01*
X036900Y033570D01*
X035280Y034560D02*
X034780Y033880D01*
X034580Y035180D02*
X035880Y036480D01*
X034580Y035180D02*
X034580Y030780D01*
X038580Y028180D02*
X038580Y025180D01*
X037880Y025980D02*
X037880Y026080D01*
X038280Y026480D01*
X040068Y022168D02*
X039968Y022068D01*
X043480Y020260D02*
X043480Y019400D01*
X043470Y019390D01*
X039380Y016580D02*
X037280Y014480D01*
X037280Y009280D01*
X036680Y008680D01*
X040680Y008680D02*
X040680Y007180D01*
X040680Y011180D02*
X040680Y012680D01*
X042360Y011680D02*
X043450Y011680D01*
X037980Y015480D02*
X037880Y015580D01*
X035880Y011870D02*
X035740Y011870D01*
X026580Y006180D02*
X026380Y006380D01*
X024200Y009600D02*
X024500Y009900D01*
X024640Y009900D01*
X020380Y008780D02*
X019180Y007580D01*
X018270Y008490D02*
X016760Y010000D01*
X016760Y010010D01*
X016120Y010010D01*
X015320Y010810D01*
X015080Y010810D01*
X013130Y010930D02*
X013130Y011510D01*
X013120Y011520D01*
X009880Y012280D02*
X009280Y011680D01*
X008880Y011680D01*
X008880Y011280D01*
X008893Y011188D01*
X008305Y009618D02*
X008305Y008518D01*
X006580Y007180D02*
X009380Y004380D01*
X009880Y004380D01*
X009880Y005093D01*
X013380Y006180D02*
X013380Y006193D01*
X017480Y011980D02*
X017480Y012180D01*
X007940Y012840D02*
X007420Y013360D01*
X006720Y013360D01*
X006688Y013393D01*
X006730Y013020D02*
X006688Y012999D01*
X006730Y013020D02*
X007060Y013020D01*
X007190Y013150D01*
X003443Y013303D02*
X003310Y013170D01*
X003310Y012510D01*
X003170Y012370D01*
X001880Y012370D01*
X001740Y012510D01*
X001740Y013365D01*
X001805Y013430D01*
X003443Y013380D02*
X003443Y013303D01*
X001180Y033680D02*
X000880Y033980D01*
X000880Y035980D01*
X002980Y038080D01*
X010680Y038080D01*
X010680Y037680D01*
X039480Y036680D02*
X039980Y037180D01*
X040060Y037180D01*
X040590Y036870D02*
X040610Y036590D01*
X040600Y035550D01*
X041440Y035050D02*
X041580Y034780D01*
X042680Y033680D01*
X041880Y034680D02*
X041880Y035080D01*
X041880Y034680D02*
X043680Y034680D01*
X044680Y033680D01*
X044480Y034480D02*
X043380Y035580D01*
X043380Y035280D02*
X042480Y036180D01*
X042480Y037380D01*
X043580Y036780D02*
X043580Y036080D01*
X043580Y036780D02*
X043980Y037180D01*
X044060Y037180D01*
X044480Y036680D02*
X044480Y035080D01*
X045180Y034380D01*
X047080Y034380D01*
X047080Y031380D01*
X046280Y030580D01*
X046280Y029180D01*
X046180Y029080D01*
X045480Y029680D02*
X045393Y029680D01*
X045380Y029680D01*
X047180Y030180D02*
X047211Y030161D01*
X047180Y030180D02*
X047180Y030280D01*
X047380Y030980D02*
X047280Y031080D01*
X047280Y034780D01*
X047280Y035380D02*
X044780Y035380D01*
X044680Y035380D01*
X044780Y035105D02*
X044780Y035080D01*
X044480Y036680D02*
X044980Y037180D01*
X045060Y037180D01*
X045510Y037730D02*
X046060Y037180D01*
X045510Y037730D02*
X045530Y038370D01*
X047060Y037180D02*
X047060Y036180D01*
X047080Y036180D01*
X047880Y035380D01*
X049080Y035380D02*
X048180Y037050D01*
X047670Y038800D01*
X043480Y038797D01*
X041660Y036020D02*
X042380Y035280D01*
X042880Y031780D02*
X042280Y031180D01*
X045880Y027680D02*
X046480Y027080D01*
X046480Y026880D01*
X046080Y026880D01*
X046030Y026845D01*
X047280Y027280D02*
X047380Y027380D01*
X047380Y027780D01*
X047408Y027830D01*
X048118Y025418D02*
X048093Y025180D01*
X048080Y024518D01*
X053240Y021460D02*
X053830Y021750D01*
X056580Y021280D02*
X056890Y021590D01*
X058380Y021480D02*
X058380Y018780D01*
X058380Y021480D02*
X058480Y021580D01*
X055480Y028480D02*
X054980Y028980D01*
X055480Y031880D02*
X055480Y031893D01*
X055480Y031980D01*
X055080Y032980D02*
X055080Y034380D01*
X053480Y034380D01*
X051180Y036680D01*
X049580Y035080D01*
X049080Y034280D02*
X049080Y032880D01*
X048780Y032580D01*
X048780Y031080D01*
X048680Y030980D01*
X051780Y032680D02*
X052480Y032680D01*
X052499Y032661D01*
X053280Y032580D02*
X053405Y032455D01*
X053680Y032380D02*
X053680Y032255D01*
X058280Y031880D02*
X058280Y036980D01*
X057680Y037580D01*
X054680Y037580D01*
X054680Y036680D01*
X055680Y036680D02*
X055680Y036380D01*
X054980Y035680D01*
X050180Y036680D02*
X048880Y037980D01*
X058280Y031880D02*
X058580Y031580D01*
D33*
X056570Y026680D03*
X036550Y014360D03*
X035920Y013850D03*
X027650Y021100D03*
X026560Y021100D03*
D34*
X046618Y020655D02*
X046618Y019892D01*
M02*
